<?xml version="1.0" encoding="UTF-8" standalone="no"?>
<!-- Created with Inkscape (http://www.inkscape.org/) -->

<svg
   xmlns:dc="http://purl.org/dc/elements/1.1/"
   xmlns:cc="http://creativecommons.org/ns#"
   xmlns:rdf="http://www.w3.org/1999/02/22-rdf-syntax-ns#"
   xmlns:svg="http://www.w3.org/2000/svg"
   xmlns="http://www.w3.org/2000/svg"
   xmlns:sodipodi="http://sodipodi.sourceforge.net/DTD/sodipodi-0.dtd"
   xmlns:inkscape="http://www.inkscape.org/namespaces/inkscape"
   width="5.9000001in"
   height="8.8999996in"
   viewBox="0 0 149.86 226.06"
   version="1.1"
   id="svg8"
   inkscape:version="0.92.2 (5c3e80d, 2017-08-06)"
   sodipodi:docname="background.svg">
  <defs
     id="defs2" />
  <sodipodi:namedview
     id="base"
     pagecolor="#ffffff"
     bordercolor="#666666"
     borderopacity="1.0"
     inkscape:pageopacity="0.0"
     inkscape:pageshadow="2"
     inkscape:zoom="0.98994949"
     inkscape:cx="115.06741"
     inkscape:cy="348.58355"
     inkscape:document-units="in"
     inkscape:current-layer="layer3"
     showgrid="true"
     units="in"
     inkscape:window-width="1920"
     inkscape:window-height="1016"
     inkscape:window-x="-11"
     inkscape:window-y="-11"
     inkscape:window-maximized="1"
     inkscape:snap-grids="false"
     inkscape:snap-to-guides="false">
    <inkscape:grid
       type="xygrid"
       id="grid58"
       units="in"
       spacingx="2.5399999"
       spacingy="2.5399999" />
  </sodipodi:namedview>
  <metadata
     id="metadata5">
    <rdf:RDF>
      <cc:Work
         rdf:about="">
        <dc:format>image/svg+xml</dc:format>
        <dc:type
           rdf:resource="http://purl.org/dc/dcmitype/StillImage" />
        <dc:title />
      </cc:Work>
    </rdf:RDF>
  </metadata>
  <g
     inkscape:label="background"
     inkscape:groupmode="layer"
     id="layer1"
     transform="translate(0,-70.939974)"
     sodipodi:insensitive="true"
     style="display:none" />
  <g
     inkscape:groupmode="layer"
     id="layer2"
     inkscape:label="margins"
     transform="translate(0,-2.5399904)"
     style="display:inline"
     sodipodi:insensitive="true">
    <rect
       id="rect3750"
       width="25.4"
       height="226.06"
       x="0"
       y="2.5400143"
       style="fill:#828282;fill-opacity:0.6039604;stroke-width:1.03117371" />
    <rect
       id="rect3750-5"
       width="25.4"
       height="226.06"
       x="124.46"
       y="2.5399976"
       style="fill:#828282;fill-opacity:0.6039604;stroke-width:1.03117371" />
    <rect
       id="rect3750-1"
       width="25.4"
       height="149.86"
       x="203.2"
       y="-149.86"
       style="fill:#828282;fill-opacity:0.6039604;stroke-width:0.83958143"
       transform="rotate(90)" />
    <rect
       id="rect3750-1-2"
       width="25.4"
       height="149.86"
       x="2.5399976"
       y="-149.86"
       style="fill:#828282;fill-opacity:0.6039604;stroke-width:0.83958143"
       transform="rotate(90)" />
  </g>
  <g
     inkscape:groupmode="layer"
     id="layer3"
     inkscape:label="dedication">
    <g
       id="g5621"
       transform="matrix(0.63835872,0,0,0.63835872,77.060075,-3.9264371)">
      <g
         id="g15750-0-3-9"
         transform="matrix(0.0794876,0,0,-0.0794876,-37.485047,220.72705)">
        <path
           d="m 215.79502,45.215671 c -1.88429,5.104083 -6.77107,8.460048 -11.63753,9.8069 5.48964,-3.965607 10.06843,-7.714773 6.93022,-12.029806 -2.2229,-3.138225 -10.10101,6.58027 -13.59894,2.092127 -3.43487,-4.407249 -0.37506,-4.447742 2.87671,-7.453259 -2.78152,-1.246848 -14.0309,12.017601 -16.73714,1.830637 -2.62108,-9.866453 8.90388,-10.424 17.78321,-9.283872 -2.70564,-1.036335 -5.18069,-1.143498 -8.36855,-1.046099 -1.06169,-4.619643 3.78751,-7.23117 10.72222,-5.361108 10.01649,2.701115 13.92932,16.299207 12.0298,21.44448 z"
           id="path15748-0-7-3"
           style="fill:#000000;fill-opacity:1;fill-rule:evenodd;stroke:none;stroke-width:1.06666672px;stroke-linecap:butt;stroke-linejoin:miter;stroke-opacity:1"
           inkscape:connector-curvature="0" />
        <path
           d="m 209.71513,51.406348 c 11.03258,-12.021755 -2.13605,-23.03035 -22.54887,-14.396154 21.79443,-12.622062 36.0532,4.067194 22.54887,14.396154 z"
           id="path15746-6-0-6"
           style="fill:#ffffff;fill-opacity:1;fill-rule:evenodd;stroke:none;stroke-width:1.06666672px;stroke-linecap:butt;stroke-linejoin:miter;stroke-opacity:1"
           inkscape:connector-curvature="0" />
      </g>
      <g
         id="g15793-0-1-7"
         transform="matrix(-0.05558068,0.04695831,-0.04919443,-0.06540518,22.903505,207.59053)">
        <path
           d="m 211.23039,35.11763 c 3.59054,0.568072 5.16749,0.909112 9.47734,2.683561 -5.18873,-1.053819 -11.22645,-3.785006 -11.17275,1.353111 0.0316,3.015966 -6.75317,11.108783 -12.04621,5.93059 -3.62462,-3.915368 0.17716,-5.263363 1.99126,-6.731086 -2.78152,-1.246848 -10.69075,10.298821 -15.85169,1.108464 -5.65508,-10.0703 9.21351,-11.271713 15.93298,-9.479244 -2.70564,-1.036335 -7.79649,-0.403357 -6.66567,-5.70852 2.46984,-1.832093 6.8089,-1.453722 11.76451,1.688624 6.72604,4.26497 5.46403,6.147525 6.57023,9.1545 z"
           id="path15795-6-64-9"
           style="fill:#000000;fill-opacity:1;fill-rule:evenodd;stroke:none;stroke-width:1.06666672px;stroke-linecap:butt;stroke-linejoin:miter;stroke-opacity:1"
           inkscape:connector-curvature="0" />
        <path
           d="m 209.16164,35.435858 c -3.07946,-0.914704 -11.4325,-3.782681 -23.30186,1.747112 11.07383,-6.7695 18.57174,-3.40928 23.30186,-1.747112 z"
           id="path15797-2-0-2"
           style="fill:#ffffff;fill-opacity:1;fill-rule:evenodd;stroke:none;stroke-width:1.06666672px;stroke-linecap:butt;stroke-linejoin:miter;stroke-opacity:1"
           inkscape:connector-curvature="0" />
      </g>
      <path
         sodipodi:nodetypes="scccscccccscccccccsccccc"
         inkscape:connector-curvature="0"
         id="rect4880"
         transform="scale(0.26458333)"
         d="m 21.607422,811.1582 c -3.961577,0.10138 -8.186654,1.72058 -12.8593751,5.83985 l 1.4843751,0.99414 c 21.539002,-18.0553 33.933636,21.57244 56.830078,2.66797 -18.438795,13.05553 -29.913508,-9.89967 -45.455078,-9.50196 z m -26.5546876,0.14649 v 2.06445 c 4.31058046,-0.58282 25.6558986,22.14598 42.2675776,7.81055 l -1.376953,-1.20313 C 20.050867,832.56397 3.6705859,811.30469 -4.9472656,811.30469 Z m 58.9003906,0.70508 c -4.893319,-0.10155 -9.559196,1.10516 -13.787109,4.65625 l 1.107422,1.33593 c 14.01242,-11.38798 34.100386,4.50501 51.166015,4.64258 17.065637,0.13769 24.434007,-6.24369 29.384767,-6.52148 4.95076,-0.27803 6.08323,4.63596 -0.71484,5.05273 7.86432,0.78909 6.63302,-6.38019 0.54492,-5.93164 -6.08809,0.44859 -12.53816,6.02745 -29.214847,5.91406 -11.986362,-0.0815 -25.981179,-8.88892 -38.486328,-9.14843 z m -48.8867188,8.1582 c -3.1758793,3.64914 -5.82965986,6.37559 -10.0136718,6.82617 v 2.14844 c 5.33685244,-0.0512 8.7488272,-3.89332 11.9726562,-7.85742 z"
         style="opacity:1;fill:#000000;fill-opacity:1;stroke:none;stroke-width:1.08785021;stroke-miterlimit:4;stroke-dasharray:3.26355088, 1.08785031;stroke-dashoffset:0;stroke-opacity:1" />
      <path
         sodipodi:nodetypes="scccscccccscccccccsccccc"
         inkscape:connector-curvature="0"
         id="rect4880-3"
         d="m -8.3053626,214.6189 c 1.048167,0.0268 2.166052,0.45523 3.402376,1.54512 l -0.392741,0.26304 c -5.6988614,-4.77713 -8.9782744,5.70771 -15.0362914,0.7059 4.878598,3.45427 7.914616,-2.61929 12.0266564,-2.51406 z m 7.025928,0.0388 v 0.54622 c -1.140508,-0.15421 -6.788124,5.85945 -11.1832974,2.06654 l 0.364319,-0.31833 c 4.2048884,3.33042 8.5388384,-2.29443 10.8189784,-2.29443 z m -15.5840624,0.18655 c 1.294691,-0.0269 2.529204,0.29241 3.647839,1.23197 l -0.293005,0.35346 c -3.707453,-3.01307 -9.022394,1.19195 -13.537675,1.22835 -4.515284,0.0364 -6.464832,-1.65198 -7.77472,-1.72548 -1.309889,-0.0736 -1.609522,1.2266 0.189134,1.33687 -2.080768,0.20878 -1.754986,-1.68809 -0.144176,-1.56941 1.610807,0.11869 3.317388,1.59476 7.729762,1.56476 3.171392,-0.0216 6.874187,-2.35186 10.182841,-2.42052 z m 12.9346114,2.15852 c 0.840285,0.9655 1.542431,1.68688 2.649451,1.80609 v 0.56844 c -1.412042,-0.0135 -2.314794,-1.0301 -3.167765,-2.07894 z"
         style="opacity:1;fill:#000000;fill-opacity:1;stroke:none;stroke-width:0.28782704;stroke-miterlimit:4;stroke-dasharray:0.86348117, 0.28782706;stroke-dashoffset:0;stroke-opacity:1" />
      <g
         id="g15750-0-3-9-6"
         transform="matrix(-0.0794876,0,0,-0.0794876,34.896648,220.72708)">
        <path
           d="m 215.79502,45.215671 c -1.88429,5.104083 -6.77107,8.460048 -11.63753,9.8069 5.48964,-3.965607 10.06843,-7.714773 6.93022,-12.029806 -2.2229,-3.138225 -10.10101,6.58027 -13.59894,2.092127 -3.43487,-4.407249 -0.37506,-4.447742 2.87671,-7.453259 -2.78152,-1.246848 -14.0309,12.017601 -16.73714,1.830637 -2.62108,-9.866453 8.90388,-10.424 17.78321,-9.283872 -2.70564,-1.036335 -5.18069,-1.143498 -8.36855,-1.046099 -1.06169,-4.619643 3.78751,-7.23117 10.72222,-5.361108 10.01649,2.701115 13.92932,16.299207 12.0298,21.44448 z"
           id="path15748-0-7-3-1"
           style="fill:#000000;fill-opacity:1;fill-rule:evenodd;stroke:none;stroke-width:1.06666672px;stroke-linecap:butt;stroke-linejoin:miter;stroke-opacity:1"
           inkscape:connector-curvature="0" />
        <path
           d="m 209.71513,51.406348 c 11.03258,-12.021755 -2.13605,-23.03035 -22.54887,-14.396154 21.79443,-12.622062 36.0532,4.067194 22.54887,14.396154 z"
           id="path15746-6-0-6-2"
           style="fill:#ffffff;fill-opacity:1;fill-rule:evenodd;stroke:none;stroke-width:1.06666672px;stroke-linecap:butt;stroke-linejoin:miter;stroke-opacity:1"
           inkscape:connector-curvature="0" />
      </g>
      <g
         id="g15793-0-1-7-9"
         transform="matrix(0.05558068,0.04695831,0.04919443,-0.06540518,-25.259648,207.4935)">
        <path
           d="m 211.23039,35.11763 c 3.59054,0.568072 5.16749,0.909112 9.47734,2.683561 -5.18873,-1.053819 -11.22645,-3.785006 -11.17275,1.353111 0.0316,3.015966 -6.75317,11.108783 -12.04621,5.93059 -3.62462,-3.915368 0.17716,-5.263363 1.99126,-6.731086 -2.78152,-1.246848 -10.69075,10.298821 -15.85169,1.108464 -5.65508,-10.0703 9.21351,-11.271713 15.93298,-9.479244 -2.70564,-1.036335 -7.79649,-0.403357 -6.66567,-5.70852 2.46984,-1.832093 6.8089,-1.453722 11.76451,1.688624 6.72604,4.26497 5.46403,6.147525 6.57023,9.1545 z"
           id="path15795-6-64-9-3"
           style="fill:#000000;fill-opacity:1;fill-rule:evenodd;stroke:none;stroke-width:1.06666672px;stroke-linecap:butt;stroke-linejoin:miter;stroke-opacity:1"
           inkscape:connector-curvature="0" />
        <path
           d="m 209.16164,35.435858 c -3.07946,-0.914704 -11.4325,-3.782681 -23.30186,1.747112 11.07383,-6.7695 18.57174,-3.40928 23.30186,-1.747112 z"
           id="path15797-2-0-2-1"
           style="fill:#ffffff;fill-opacity:1;fill-rule:evenodd;stroke:none;stroke-width:1.06666672px;stroke-linecap:butt;stroke-linejoin:miter;stroke-opacity:1"
           inkscape:connector-curvature="0" />
      </g>
    </g>
    <text
       xml:space="preserve"
       style="font-style:normal;font-weight:normal;font-size:10.58333302px;line-height:1.25;font-family:sans-serif;letter-spacing:0px;word-spacing:0px;fill:#000000;fill-opacity:1;stroke:none;stroke-width:0.26458332"
       x="48.380955"
       y="102.27279"
       id="text5625"><tspan
         sodipodi:role="line"
         id="tspan5623"
         x="48.380955"
         y="102.27279"
         style="stroke-width:0.26458332">Dedicated </tspan><tspan
         sodipodi:role="line"
         x="48.380955"
         y="102.27279"
         style="stroke-width:0.26458332"
         id="tspan5627" /></text>
  </g>
</svg>
