<?xml version="1.0" encoding="UTF-8" standalone="no"?>
<!-- Created with Inkscape (http://www.inkscape.org/) -->

<svg
   xmlns:dc="http://purl.org/dc/elements/1.1/"
   xmlns:cc="http://creativecommons.org/ns#"
   xmlns:rdf="http://www.w3.org/1999/02/22-rdf-syntax-ns#"
   xmlns:svg="http://www.w3.org/2000/svg"
   xmlns="http://www.w3.org/2000/svg"
   xmlns:sodipodi="http://sodipodi.sourceforge.net/DTD/sodipodi-0.dtd"
   xmlns:inkscape="http://www.inkscape.org/namespaces/inkscape"
   id="svg2"
   viewBox="0 0 1601.9442 793.47407"
   version="1.1"
   inkscape:version="0.91 r13725"
   sodipodi:docname="Chalckboard.svg"
   width="1601.9442"
   height="793.47406">
  <sodipodi:namedview
     id="base"
     bordercolor="#666666"
     inkscape:pageshadow="2"
     inkscape:window-y="35"
     pagecolor="#ffffff"
     inkscape:window-height="1000"
     inkscape:window-maximized="1"
     inkscape:zoom="0.35355339"
     inkscape:window-x="-11"
     showgrid="false"
     borderopacity="1.0"
     inkscape:current-layer="layer1"
     inkscape:cx="686.28017"
     inkscape:cy="358.709"
     showguides="true"
     inkscape:guide-bbox="true"
     inkscape:window-width="1920"
     inkscape:pageopacity="0.0"
     inkscape:document-units="px"
     fit-margin-top="1"
     fit-margin-left="1"
     fit-margin-right="1"
     fit-margin-bottom="1" />
  <defs
     id="defs4">
    <linearGradient
       id="linearGradient5302"
       y2="196.88"
       gradientUnits="userSpaceOnUse"
       y1="37.362"
       gradientTransform="matrix(5.4761864,0,0,4.1494499,367.36276,-38.35461)"
       x2="174"
       x1="169"
       inkscape:collect="always">
      <stop
         id="stop5298"
         style="stop-color:#c17d11"
         offset="0" />
      <stop
         id="stop5300"
         style="stop-color:#8f5902"
         offset="1" />
    </linearGradient>
    <linearGradient
       id="linearGradient5491"
       y2="301.57001"
       gradientUnits="userSpaceOnUse"
       y1="132.36"
       x2="213.27"
       x1="-8"
       inkscape:collect="always"
       gradientTransform="matrix(5.6429953,0,0,4.1494499,303.38825,-378.6095)">
      <stop
         id="stop5487"
         style="stop-color:#06712e"
         offset="0" />
      <stop
         id="stop5489"
         style="stop-color:#63a67c"
         offset="1" />
    </linearGradient>
    <linearGradient
       id="linearGradient6197"
       y2="832.34003"
       gradientUnits="userSpaceOnUse"
       x2="-376.48999"
       gradientTransform="translate(-1.7774,-27.64)"
       y1="826.01001"
       x1="-818.16998"
       inkscape:collect="always">
      <stop
         id="stop6112"
         style="stop-color:#000000"
         offset="0" />
      <stop
         id="stop6114"
         style="stop-color:#5d5c5c"
         offset=".16709" />
      <stop
         id="stop6116"
         style="stop-color:#000000"
         offset=".30664" />
      <stop
         id="stop6118"
         style="stop-color:#7c7c7c"
         offset=".50633" />
      <stop
         id="stop6120"
         style="stop-color:#000000"
         offset=".64588" />
      <stop
         id="stop6122"
         style="stop-color:#cccccc"
         offset=".80294" />
      <stop
         id="stop6124"
         style="stop-color:#000000"
         offset=".89264" />
      <stop
         id="stop6126"
         style="stop-color:#000000;stop-opacity:0"
         offset="1" />
    </linearGradient>
    <linearGradient
       id="linearGradient6199"
       y2="492.41"
       gradientUnits="userSpaceOnUse"
       x2="-173"
       gradientTransform="matrix(2.5136,0,0,3.2574,-233.89,-811.59)"
       y1="431.35999"
       x1="-173"
       inkscape:collect="always">
      <stop
         id="stop5681"
         style="stop-color:#c5913e"
         offset="0" />
      <stop
         id="stop5687"
         style="stop-color:#8f5902"
         offset=".15562" />
      <stop
         id="stop5689"
         style="stop-color:#8f5902;stop-opacity:.61176"
         offset=".48325" />
      <stop
         id="stop5691"
         style="stop-color:#8f5902"
         offset=".59791" />
      <stop
         id="stop5683"
         style="stop-color:#8f5902;stop-opacity:0"
         offset="1" />
    </linearGradient>
  </defs>
  <g
     id="layer1"
     inkscape:label="Capa 1"
     inkscape:groupmode="layer"
     transform="translate(279.2123,-18.21901)">
    <rect
       id="rect4125"
       style="fill:url(#linearGradient5491)"
       inkscape:export-ydpi="90"
       inkscape:export-filename="/var/www/curros/aiki/wordpress/wp-content/themes/aiki/images/header.png"
       height="693.53906"
       width="1560.2317"
       inkscape:export-xdpi="90"
       y="58.908516"
       x="-245.2012" />
    <path
       d="m 1275.7026,59.63247 -16.6088,2.83404 0,2.70523 11.0291,0 0,671.92751 -1499.25658,0 0,4.6376 1507.85158,0 -2.9844,-682.10954 z"
       style="opacity:0.38314;fill:#eeeeec"
       id="path5384"
       inkscape:connector-curvature="0"
       sodipodi:nodetypes="cccccccccc" />
    <path
       d="m -236.50808,55.091 4.01702,686.60955 22.72366,-2.9341 4.01699,-650.50931 1516.80441,0 0,-33.1956 -1547.53816,0 z"
       style="opacity:0.38314;fill:#2e3436"
       sodipodi:nodetypes="ccccccc"
       id="path5373"
       inkscape:connector-curvature="0" />
    <path
       d="m -273.35105,19.21901 0,759.34934 16.42856,0 38.33331,0 1484.04638,0 27.381,0 27.3809,0 0,-759.34934 -52.0237,0 -1486.78458,0 -2.7381,0 z m 41.32684,41.4945 1510.48141,0 0,676.36034 -1510.48141,0 z"
       style="fill:url(#linearGradient5302)"
       id="rect3748"
       inkscape:connector-curvature="0"
       sodipodi:nodetypes="ccccccccccccccccc" />
    <path
       d="m -273.35105,19.21901 0,4.92747 41.4945,41.88455 0,-5.31628 0.38901,0 -40.97582,-41.4945 -0.90769,0 z"
       style="color:#000000;text-indent:0;text-transform:none;block-progression:tb;fill:#e9b96e"
       id="path5306"
       inkscape:connector-curvature="0" />
    <path
       d="m -272.85312,19.21901 40.97582,41.4945 0.12967,0 5.7055,0 -40.97582,-41.4945 -5.83496,0 z"
       style="color:#000000;text-indent:0;text-transform:none;block-progression:tb;fill:#8f5902"
       id="path5304"
       inkscape:connector-curvature="0" />
    <path
       d="m -273.35105,777.55175 0,-4.9275 41.4945,-41.8845 0,5.3163 0.38901,0 -40.97582,41.4945 -0.90769,0 z"
       style="color:#000000;text-indent:0;text-transform:none;block-progression:tb;fill:#784b02"
       id="path5359"
       inkscape:connector-curvature="0" />
    <path
       d="m -272.85312,778.25715 40.97582,-41.4945 0.12967,0 5.7055,0 -40.97582,41.4945 -5.83496,0 z"
       style="color:#000000;text-indent:0;text-transform:none;block-progression:tb;fill:#c17d11"
       id="path5361"
       inkscape:connector-curvature="0" />
    <path
       d="m 1319.3985,19.21901 0,4.92747 -41.4945,41.88455 0,-5.31628 -0.3888,0 40.9758,-41.4945 0.9077,0 z"
       style="color:#000000;text-indent:0;text-transform:none;block-progression:tb;fill:#e9b96e"
       id="path5363"
       inkscape:connector-curvature="0" />
    <path
       d="m 1318.9005,19.21901 -40.9758,41.4945 -0.1295,0 -5.7055,0 40.9759,-41.4945 5.8349,0 z"
       style="color:#000000;text-indent:0;text-transform:none;block-progression:tb;fill:#8f5902"
       id="path5365"
       inkscape:connector-curvature="0" />
    <path
       d="m 1319.3985,777.55175 0,-4.9275 -41.4945,-41.8845 0,5.3163 -0.3888,0 40.9758,41.4945 0.9077,0 z"
       style="color:#000000;text-indent:0;text-transform:none;block-progression:tb;fill:#784b02"
       id="path5367"
       inkscape:connector-curvature="0" />
    <path
       d="m 1318.9005,778.25715 -40.9758,-41.4945 -0.1295,0 -5.7055,0 40.9759,41.4945 5.8349,0 z"
       style="color:#000000;text-indent:0;text-transform:none;block-progression:tb;fill:#c17d11"
       id="path5369"
       inkscape:connector-curvature="0" />
    <g
       id="g5438"
       transform="matrix(5.4456101,0,0,4.06268,290.33448,-371.27094)">
      <path
         inkscape:connector-curvature="0"
         id="path3804"
         style="opacity:0.3;fill:#e9b96e;stroke:#e9b96e;stroke-width:1px"
         d="m 121.53,97 c -2.5611,0.015 -5.1435,0.28228 -7.7188,0.59375 1.7034,0.1135 3.3835,0.28282 5.0625,0.5 3.5105,0.335 6.9995,0.17736 10.469,-0.0625 -2.5823,-0.78348 -5.1812,-1.0467 -7.8125,-1.0312 z m 7.8125,1.0312 c 0.0731,0.02218 0.1457,0.03948 0.21875,0.0625 6.6191,-0.39428 13.189,-0.08028 19.75,0.125 -6.588,-1.4811 -13.251,-0.65198 -19.969,-0.1875 z m 19.969,0.1875 c 0.76572,0.17214 1.517,0.38579 2.2812,0.625 0.78001,-0.2028 1.601,-0.36693 2.4375,-0.5 -1.5716,-0.02122 -3.1486,-0.07587 -4.7188,-0.125 z m 4.7188,0.125 c 3.4345,0.04638 6.8568,0.01971 10.312,-0.25 4.0254,-0.16438 7.8746,0.26928 11.812,0.1875 -7.3252,-0.06539 -15.524,-0.98759 -22.125,0.0625 z m -40.219,-0.75 c -5.5373,-0.36895 -11.157,-0.22053 -16.656,0.3125 2.1466,0.11891 4.2945,0.28272 6.4688,0.5625 3.3707,-0.0069 6.7769,-0.4625 10.188,-0.875 z m -16.656,0.3125 c -5.8973,-0.32667 -11.721,-0.14096 -17.594,0.1875 3.2083,0.26756 6.4114,0.59794 9.625,0.84375 2.5987,-0.4233 5.2807,-0.77073 7.9688,-1.0312 z m -17.594,0.1875 c -6.0936,-0.50818 -12.164,-0.76964 -18.094,0.21875 -0.71095,0.05396 -1.4159,0.08499 -2.125,0.125 4.6959,0.52976 9.3558,0.90986 13.844,0.0625 2.1377,-0.13108 4.258,-0.28784 6.375,-0.40625 z m -20.216,0.344 c -6.6919,-0.75494 -13.497,-1.8294 -20.156,-0.125 -0.22123,0.031 -0.43484,0.03629 -0.65625,0.0625 6.9554,0.21211 13.85,0.45543 20.812,0.0625 z m -20.813,-0.063 c -3.582,-0.109 -7.17,-0.219 -10.812,-0.219 -1.39,-0.131 -2.789,-0.145 -4.188,-0.156 5.0466,0.41006 10.05,0.96097 15,0.375 z m -15,-0.375 c -4.711,-0.383 -9.442,-0.632 -14.25,0.375 -7.361,-0.931 -14.779,-0.527 -22.156,-0.187 5.0285,0.086 10.036,0.134 14.938,-0.094 7.1503,0.988 14.348,-0.149 21.468,-0.094 z m -36.406,0.188 c -3.9479,-0.06806 -7.9096,-0.14442 -11.906,-0.15625 0.70234,0.1359 1.4061,0.28886 2.0938,0.46875 3.264,0.0088 6.5346,-0.16171 9.8125,-0.3125 z m -11.906,-0.15625 c -3.781,-0.73162 -7.7645,-0.87023 -11.812,-0.71875 1.9999,0.10798 3.9472,0.36488 5.8438,0.78125 1.9882,-0.04844 3.9878,-0.06836 5.9688,-0.0625 z m -64.031,-0.875 c -2.1803,0.06093 -4.3092,0.40474 -6.4375,0.78125 3.3138,-0.0016 6.5414,0.03183 8.75,0.09375 2.052,-0.03282 4.1064,-0.02686 6.1562,0 -1.2018,-0.1268 -2.4155,-0.29902 -3.625,-0.46875 -1.6418,-0.36473 -3.256,-0.45062 -4.8438,-0.40625 z m -6.438,0.781 c -2.0804,9.91e-4 -4.0258,-0.0154 -5.9688,0 l 0.6875,0.8125 c 1.7624,-0.19752 3.5194,-0.50081 5.2812,-0.8125 z m 55.812,-0.688 c -6.5719,-0.02743 -13.451,0.90132 -19.969,0.5625 -7.0331,0.58331 -13.976,0.31011 -20.906,0.21875 8.4835,0.89276 16.793,0.76937 25.219,0.71875 5.9304,-0.34017 12.158,-1.1928 18.25,-1.4375 -0.85665,-0.04196 -1.724,-0.05887 -2.5938,-0.0625 z m 223.34,0.59375 -4.5,0.25 c -0.95857,0.11186 -1.9019,0.15864 -2.8438,0.1875 2.6015,0.01126 5.09,-0.08244 7.3438,-0.4375 z" />
      <path
         inkscape:connector-curvature="0"
         id="path5280"
         style="opacity:0.3;fill:#e9b96e;stroke:#e9b96e;stroke-width:1px"
         d="m 135.44,102.34 c -3.3614,0.0183 -6.745,0.33776 -10.125,0.71875 2.2487,0.13743 4.4713,0.32715 6.6875,0.59375 4.5767,0.40617 9.1335,0.22905 13.656,-0.0625 -3.3676,-0.95466 -6.7869,-1.2687 -10.219,-1.25 z m 10.219,1.25 c 0.0835,0.0237 0.16654,0.038 0.25,0.0625 8.5966,-0.47624 17.104,-0.0607 25.625,0.1875 -8.5469,-1.7852 -17.16,-0.81182 -25.875,-0.25 z m 25.875,0.25 c 0.99805,0.20846 2.0039,0.42878 3,0.71875 1.0327,-0.2497 2.064,-0.43544 3.0938,-0.59375 -2.0321,-0.0259 -4.0636,-0.0659 -6.0938,-0.125 z m 6.0938,0.125 c 0.86103,0.011 1.7327,0.0289 2.5938,0.0312 l 0.3125,-0.375 c -0.96662,0.0822 -1.9388,0.19503 -2.9062,0.34375 z m -52.312,-0.90625 c -7.1559,-0.43733 -14.425,-0.23323 -21.531,0.40625 2.785,0.14378 5.5854,0.34993 8.4062,0.6875 4.3488,-0.008 8.7247,-0.59776 13.125,-1.0938 z m -21.531,0.40625 c -7.6608,-0.39551 -15.247,-0.17768 -22.875,0.21875 4.169,0.32338 8.3554,0.73419 12.531,1.0312 3.3856,-0.51288 6.8416,-0.93485 10.344,-1.25 z m -22.875,0.21875 c -7.9214,-0.61444 -15.823,-0.94492 -23.531,0.25 -0.91145,0.0643 -1.8097,0.0771 -2.7188,0.125 6.0944,0.63888 12.113,1.1165 17.938,0.0937 2.7882,-0.159 5.5513,-0.32525 8.3125,-0.46875 z m -26.25,0.375 c -8.7066,-0.91273 -17.554,-2.1874 -26.219,-0.125 -0.27892,0.0363 -0.56461,0.0628 -0.84375,0.0937 9.0521,0.25674 18,0.50899 27.062,0.0312 z m -27.062,-0.0312 c -4.6565,-0.13207 -9.3582,-0.25012 -14.094,-0.25 -1.8613,-0.1639 -3.7203,-0.24013 -5.5938,-0.25 6.6312,0.49691 13.184,1.2198 19.688,0.5 z m -19.688,-0.5 c -6.0626,-0.4543 -12.189,-0.70456 -18.375,0.5 -9.4905,-1.1165 -19.02,-0.62718 -28.531,-0.21875 6.456,0.10224 12.861,0.14792 19.156,-0.125 9.2393,1.1879 18.549,-0.20474 27.75,-0.15625 z m -46.915,0.28 c -5.1543,-0.0816 -10.344,-0.20226 -15.562,-0.21875 0.86323,0.15807 1.7164,0.35666 2.5625,0.5625 4.3198,0.0108 8.6616,-0.15745 13,-0.34375 z m -15.562,-0.21875 c -5.094,-0.93 -10.474,-1.05 -15.938,-0.84 2.7463,0.12108 5.4327,0.37568 8.0312,0.90625 2.6395,-0.0598 5.2767,-0.0708 7.9062,-0.0625 z m -15.938,-0.84 c -8.416,-0.37104 -17.386,0.71865 -25.969,0.65625 l 0.96875,1.0625 c 0.45994,-0.003 0.91456,0.003 1.375,0 7.6718,-0.40925 15.742,-1.4175 23.625,-1.7188 z" />
      <path
         inkscape:connector-curvature="0"
         id="path5282"
         style="opacity:0.3;fill:#e9b96e;stroke:#e9b96e;stroke-width:1px"
         d="m -50.25,99.875 c -3.4331,-0.0155 -6.85,0.2373 -10.219,1.0312 4.5227,0.24227 9.0796,0.40005 13.656,0.0625 2.2099,-0.22092 4.4452,-0.38584 6.6875,-0.5 -3.38,-0.31659 -6.7636,-0.57854 -10.125,-0.59375 z m 10.125,0.59375 c 4.4003,0.41216 8.8074,0.86812 13.156,0.875 2.7861,-0.27705 5.5302,-0.44277 8.2812,-0.5625 -7.0825,-0.52616 -14.307,-0.67552 -21.438,-0.3125 z m 21.438,0.3125 c 3.5347,0.26259 7.0524,0.60119 10.469,1.0312 4.1681,-0.24639 8.3387,-0.54404 12.5,-0.8125 -7.6626,-0.3309 -15.273,-0.5537 -22.969,-0.21875 z m 22.968,0.22 c 2.7612,0.11924 5.5243,0.24288 8.3125,0.375 5.8218,0.84949 11.846,0.46797 17.938,-0.0625 -0.90909,-0.0398 -1.8073,-0.0715 -2.7188,-0.125 -7.716,-1 -15.601,-0.7 -23.531,-0.19 z m 26.25,0.3125 c 9.0338,0.39574 17.977,0.18166 27,-0.0312 -0.25868,-0.0241 -0.52275,-0.0657 -0.78125,-0.0937 -8.6676,-1.7144 -17.509,-0.66475 -26.219,0.0937 l 0,0.0312 z m 27,-0.0312 c 6.5358,0.60875 13.147,-0.023 19.812,-0.4375 -1.8944,0.007 -3.7742,0.0498 -5.6562,0.1875 -4.7645,-1.1e-4 -9.4716,0.13947 -14.156,0.25 z m 19.812,-0.4375 c 9.1806,-0.0348 18.469,1.1412 27.688,0.15625 6.3561,0.22899 12.824,0.18041 19.344,0.0937 -9.5658,-0.34047 -19.174,-0.77688 -28.719,0.15625 -6.1731,-0.99882 -12.263,-0.78227 -18.312,-0.40625 z m 47.031,0.25 c 4.2836,0.15247 8.5471,0.29014 12.812,0.28125 0.87553,-0.177 1.7624,-0.33419 2.6562,-0.46875 -5.182,0.0128 -10.35,0.11947 -15.469,0.1875 z m 15.469,-0.1875 c 2.6032,-0.006 5.1996,0.0136 7.8125,0.0625 2.5929,-0.43992 5.2913,-0.64903 8.0312,-0.75 -5.4316,-0.1725 -10.777,-0.0752 -15.844,0.6875 z m 15.844,-0.6875 c 7.8831,0.25034 15.953,1.0662 23.625,1.4062 0.99379,0.005 1.9771,-0.005 2.9688,0 l 0.8125,-0.90625 c -9.0254,0.18269 -18.508,-0.82793 -27.406,-0.5 z m -216.16,0.6875 c -8.7683,-0.4697 -17.433,-1.3022 -26.031,0.21875 8.573,-0.20578 17.132,-0.5544 25.781,-0.15625 0.0823,-0.02 0.16766,-0.0431 0.25,-0.0625 z m -26.02,0.22 c -1.9784,0.0475 -3.9573,0.0728 -5.9375,0.0937 1.0298,0.13155 2.061,0.29251 3.0938,0.5 0.94426,-0.22842 1.8977,-0.4264 2.8438,-0.59375 z m -5.9375,0.0937 c -2.1034,-0.26869 -4.1864,-0.37063 -6.2812,-0.40625 l 0.21875,0.28125 0.125,0.125 c 1.9831,0.0246 3.9561,0.021 5.9375,0 z" />
    </g>
    <g
       id="g5443"
       transform="matrix(5.4266021,0,0,-4.0602117,291.51796,1168.4325)">
      <path
         inkscape:connector-curvature="0"
         id="path5445"
         style="opacity:0.3;fill:#e9b96e;stroke:#e9b96e;stroke-width:1.00530005px"
         d="m 121.53,97 c -2.5611,0.015 -5.1435,0.28228 -7.7188,0.59375 1.7034,0.1135 3.3835,0.28282 5.0625,0.5 3.5105,0.335 6.9995,0.17736 10.469,-0.0625 -2.5823,-0.78348 -5.1812,-1.0467 -7.8125,-1.0312 z m 7.8125,1.0312 c 0.0731,0.02218 0.1457,0.03948 0.21875,0.0625 6.6191,-0.39428 13.189,-0.08028 19.75,0.125 -6.588,-1.4811 -13.251,-0.65198 -19.969,-0.1875 z m 19.969,0.1875 c 0.76572,0.17214 1.517,0.38579 2.2812,0.625 0.78001,-0.2028 1.601,-0.36693 2.4375,-0.5 -1.5716,-0.02122 -3.1486,-0.07587 -4.7188,-0.125 z m 4.7188,0.125 c 3.4345,0.04638 6.8568,0.01971 10.312,-0.25 4.0254,-0.16438 7.8746,0.26928 11.812,0.1875 -7.3252,-0.06539 -15.524,-0.98759 -22.125,0.0625 z m -40.219,-0.75 c -5.5373,-0.36895 -11.157,-0.22053 -16.656,0.3125 2.1466,0.11891 4.2945,0.28272 6.4688,0.5625 3.3707,-0.0069 6.7769,-0.4625 10.188,-0.875 z m -16.656,0.3125 c -5.8973,-0.32667 -11.721,-0.14096 -17.594,0.1875 3.2083,0.26756 6.4114,0.59794 9.625,0.84375 2.5987,-0.4233 5.2807,-0.77073 7.9688,-1.0312 z m -17.594,0.1875 c -6.0936,-0.50818 -12.164,-0.76964 -18.094,0.21875 -0.71095,0.05396 -1.4159,0.08499 -2.125,0.125 4.6959,0.52976 9.3558,0.90986 13.844,0.0625 2.1377,-0.13108 4.258,-0.28784 6.375,-0.40625 z m -20.216,0.344 c -6.6919,-0.75494 -13.497,-1.8294 -20.156,-0.125 -0.22123,0.031 -0.43484,0.03629 -0.65625,0.0625 6.9554,0.21211 13.85,0.45543 20.812,0.0625 z m -20.813,-0.063 c -3.582,-0.109 -7.17,-0.219 -10.812,-0.219 -1.39,-0.131 -2.789,-0.145 -4.188,-0.156 5.0466,0.41006 10.05,0.96097 15,0.375 z m -15,-0.375 c -4.711,-0.383 -9.442,-0.632 -14.25,0.375 -7.361,-0.931 -14.779,-0.527 -22.156,-0.187 5.0285,0.086 10.036,0.134 14.938,-0.094 7.1503,0.988 14.348,-0.149 21.468,-0.094 z m -36.406,0.188 c -3.9479,-0.06806 -7.9096,-0.14442 -11.906,-0.15625 0.70234,0.1359 1.4061,0.28886 2.0938,0.46875 3.264,0.0088 6.5346,-0.16171 9.8125,-0.3125 z m -11.906,-0.15625 c -3.781,-0.73162 -7.7645,-0.87023 -11.812,-0.71875 1.9999,0.10798 3.9472,0.36488 5.8438,0.78125 1.9882,-0.04844 3.9878,-0.06836 5.9688,-0.0625 z m -64.031,-0.875 c -2.1803,0.06093 -4.3092,0.40474 -6.4375,0.78125 3.3138,-0.0016 6.5414,0.03183 8.75,0.09375 2.052,-0.03282 4.1064,-0.02686 6.1562,0 -1.2018,-0.1268 -2.4155,-0.29902 -3.625,-0.46875 -1.6418,-0.36473 -3.256,-0.45062 -4.8438,-0.40625 z m -6.438,0.781 c -2.0804,9.91e-4 -4.0258,-0.0154 -5.9688,0 l 0.6875,0.8125 c 1.7624,-0.19752 3.5194,-0.50081 5.2812,-0.8125 z m 55.812,-0.688 c -6.5719,-0.02743 -13.451,0.90132 -19.969,0.5625 -7.0331,0.58331 -13.976,0.31011 -20.906,0.21875 8.4835,0.89276 16.793,0.76937 25.219,0.71875 5.9304,-0.34017 12.158,-1.1928 18.25,-1.4375 -0.85665,-0.04196 -1.724,-0.05887 -2.5938,-0.0625 z m 223.34,0.59375 -4.5,0.25 c -0.95857,0.11186 -1.9019,0.15864 -2.8438,0.1875 2.6015,0.01126 5.09,-0.08244 7.3438,-0.4375 z" />
      <path
         inkscape:connector-curvature="0"
         id="path5447"
         style="opacity:0.3;fill:#e9b96e;stroke:#e9b96e;stroke-width:1.00530005px"
         d="m 135.44,102.34 c -3.3614,0.0183 -6.745,0.33776 -10.125,0.71875 2.2487,0.13743 4.4713,0.32715 6.6875,0.59375 4.5767,0.40617 9.1335,0.22905 13.656,-0.0625 -3.3676,-0.95466 -6.7869,-1.2687 -10.219,-1.25 z m 10.219,1.25 c 0.0835,0.0237 0.16654,0.038 0.25,0.0625 8.5966,-0.47624 17.104,-0.0607 25.625,0.1875 -8.5469,-1.7852 -17.16,-0.81182 -25.875,-0.25 z m 25.875,0.25 c 0.99805,0.20846 2.0039,0.42878 3,0.71875 1.0327,-0.2497 2.064,-0.43544 3.0938,-0.59375 -2.0321,-0.0259 -4.0636,-0.0659 -6.0938,-0.125 z m 6.0938,0.125 c 0.86103,0.011 1.7327,0.0289 2.5938,0.0312 l 0.3125,-0.375 c -0.96662,0.0822 -1.9388,0.19503 -2.9062,0.34375 z m -52.312,-0.90625 c -7.1559,-0.43733 -14.425,-0.23323 -21.531,0.40625 2.785,0.14378 5.5854,0.34993 8.4062,0.6875 4.3488,-0.008 8.7247,-0.59776 13.125,-1.0938 z m -21.531,0.40625 c -7.6608,-0.39551 -15.247,-0.17768 -22.875,0.21875 4.169,0.32338 8.3554,0.73419 12.531,1.0312 3.3856,-0.51288 6.8416,-0.93485 10.344,-1.25 z m -22.875,0.21875 c -7.9214,-0.61444 -15.823,-0.94492 -23.531,0.25 -0.91145,0.0643 -1.8097,0.0771 -2.7188,0.125 6.0944,0.63888 12.113,1.1165 17.938,0.0937 2.7882,-0.159 5.5513,-0.32525 8.3125,-0.46875 z m -26.25,0.375 c -8.7066,-0.91273 -17.554,-2.1874 -26.219,-0.125 -0.27892,0.0363 -0.56461,0.0628 -0.84375,0.0937 9.0521,0.25674 18,0.50899 27.062,0.0312 z m -27.062,-0.0312 c -4.6565,-0.13207 -9.3582,-0.25012 -14.094,-0.25 -1.8613,-0.1639 -3.7203,-0.24013 -5.5938,-0.25 6.6312,0.49691 13.184,1.2198 19.688,0.5 z m -19.688,-0.5 c -6.0626,-0.4543 -12.189,-0.70456 -18.375,0.5 -9.4905,-1.1165 -19.02,-0.62718 -28.531,-0.21875 6.456,0.10224 12.861,0.14792 19.156,-0.125 9.2393,1.1879 18.549,-0.20474 27.75,-0.15625 z m -46.915,0.28 c -5.1543,-0.0816 -10.344,-0.20226 -15.562,-0.21875 0.86323,0.15807 1.7164,0.35666 2.5625,0.5625 4.3198,0.0108 8.6616,-0.15745 13,-0.34375 z m -15.562,-0.21875 c -5.094,-0.93 -10.474,-1.05 -15.938,-0.84 2.7463,0.12108 5.4327,0.37568 8.0312,0.90625 2.6395,-0.0598 5.2767,-0.0708 7.9062,-0.0625 z m -15.938,-0.84 c -8.416,-0.37104 -17.386,0.71865 -25.969,0.65625 l 0.96875,1.0625 c 0.45994,-0.003 0.91456,0.003 1.375,0 7.6718,-0.40925 15.742,-1.4175 23.625,-1.7188 z" />
      <path
         inkscape:connector-curvature="0"
         id="path5449"
         style="opacity:0.3;fill:#e9b96e;stroke:#e9b96e;stroke-width:1.00530005px"
         d="m -50.25,99.875 c -3.4331,-0.0155 -6.85,0.2373 -10.219,1.0312 4.5227,0.24227 9.0796,0.40005 13.656,0.0625 2.2099,-0.22092 4.4452,-0.38584 6.6875,-0.5 -3.38,-0.31659 -6.7636,-0.57854 -10.125,-0.59375 z m 10.125,0.59375 c 4.4003,0.41216 8.8074,0.86812 13.156,0.875 2.7861,-0.27705 5.5302,-0.44277 8.2812,-0.5625 -7.0825,-0.52616 -14.307,-0.67552 -21.438,-0.3125 z m 21.438,0.3125 c 3.5347,0.26259 7.0524,0.60119 10.469,1.0312 4.1681,-0.24639 8.3387,-0.54404 12.5,-0.8125 -7.6626,-0.3309 -15.273,-0.5537 -22.969,-0.21875 z m 22.968,0.22 c 2.7612,0.11924 5.5243,0.24288 8.3125,0.375 5.8218,0.84949 11.846,0.46797 17.938,-0.0625 -0.90909,-0.0398 -1.8073,-0.0715 -2.7188,-0.125 -7.716,-1 -15.601,-0.7 -23.531,-0.19 z m 26.25,0.3125 c 9.0338,0.39574 17.977,0.18166 27,-0.0312 -0.25868,-0.0241 -0.52275,-0.0657 -0.78125,-0.0937 -8.6676,-1.7144 -17.509,-0.66475 -26.219,0.0937 l 0,0.0312 z m 27,-0.0312 c 6.5358,0.60875 13.147,-0.023 19.812,-0.4375 -1.8944,0.007 -3.7742,0.0498 -5.6562,0.1875 -4.7645,-1.1e-4 -9.4716,0.13947 -14.156,0.25 z m 19.812,-0.4375 c 9.1806,-0.0348 18.469,1.1412 27.688,0.15625 6.3561,0.22899 12.824,0.18041 19.344,0.0937 -9.5658,-0.34047 -19.174,-0.77688 -28.719,0.15625 -6.1731,-0.99882 -12.263,-0.78227 -18.312,-0.40625 z m 47.031,0.25 c 4.2836,0.15247 8.5471,0.29014 12.812,0.28125 0.87553,-0.177 1.7624,-0.33419 2.6562,-0.46875 -5.182,0.0128 -10.35,0.11947 -15.469,0.1875 z m 15.469,-0.1875 c 2.6032,-0.006 5.1996,0.0136 7.8125,0.0625 2.5929,-0.43992 5.2913,-0.64903 8.0312,-0.75 -5.4316,-0.1725 -10.777,-0.0752 -15.844,0.6875 z m 15.844,-0.6875 c 7.8831,0.25034 15.953,1.0662 23.625,1.4062 0.99379,0.005 1.9771,-0.005 2.9688,0 l 0.8125,-0.90625 c -9.0254,0.18269 -18.508,-0.82793 -27.406,-0.5 z m -216.16,0.6875 c -8.7683,-0.4697 -17.433,-1.3022 -26.031,0.21875 8.573,-0.20578 17.132,-0.5544 25.781,-0.15625 0.0823,-0.02 0.16766,-0.0431 0.25,-0.0625 z m -26.02,0.22 c -1.9784,0.0475 -3.9573,0.0728 -5.9375,0.0937 1.0298,0.13155 2.061,0.29251 3.0938,0.5 0.94426,-0.22842 1.8977,-0.4264 2.8438,-0.59375 z m -5.9375,0.0937 c -2.1034,-0.26869 -4.1864,-0.37063 -6.2812,-0.40625 l 0.21875,0.28125 0.125,0.125 c 1.9831,0.0246 3.9561,0.021 5.9375,0 z" />
    </g>
    <g
       id="g5451"
       transform="matrix(0,2.5251892,-4.1494499,0,1721.5665,298.62222)">
      <path
         inkscape:connector-curvature="0"
         id="path5453"
         style="opacity:0.3;fill:#e9b96e;stroke:#e9b96e;stroke-width:1.28190005px"
         d="m 121.53,97 c -2.5611,0.015 -5.1435,0.28228 -7.7188,0.59375 1.7034,0.1135 3.3835,0.28282 5.0625,0.5 3.5105,0.335 6.9995,0.17736 10.469,-0.0625 -2.5823,-0.78348 -5.1812,-1.0467 -7.8125,-1.0312 z m 7.8125,1.0312 c 0.0731,0.02218 0.1457,0.03948 0.21875,0.0625 6.6191,-0.39428 13.189,-0.08028 19.75,0.125 -6.588,-1.4811 -13.251,-0.65198 -19.969,-0.1875 z m 19.969,0.1875 c 0.76572,0.17214 1.517,0.38579 2.2812,0.625 0.78001,-0.2028 1.601,-0.36693 2.4375,-0.5 -1.5716,-0.02122 -3.1486,-0.07587 -4.7188,-0.125 z m 4.7188,0.125 c 3.4345,0.04638 6.8568,0.01971 10.312,-0.25 4.0254,-0.16438 7.8746,0.26928 11.812,0.1875 -7.3252,-0.06539 -15.524,-0.98759 -22.125,0.0625 z m -40.219,-0.75 c -5.5373,-0.36895 -11.157,-0.22053 -16.656,0.3125 2.1466,0.11891 4.2945,0.28272 6.4688,0.5625 3.3707,-0.0069 6.7769,-0.4625 10.188,-0.875 z m -16.656,0.3125 c -5.8973,-0.32667 -11.721,-0.14096 -17.594,0.1875 3.2083,0.26756 6.4114,0.59794 9.625,0.84375 2.5987,-0.4233 5.2807,-0.77073 7.9688,-1.0312 z m -17.594,0.1875 c -6.0936,-0.50818 -12.164,-0.76964 -18.094,0.21875 -0.71095,0.05396 -1.4159,0.08499 -2.125,0.125 4.6959,0.52976 9.3558,0.90986 13.844,0.0625 2.1377,-0.13108 4.258,-0.28784 6.375,-0.40625 z m -20.216,0.344 c -6.6919,-0.75494 -13.497,-1.8294 -20.156,-0.125 -0.22123,0.031 -0.43484,0.03629 -0.65625,0.0625 6.9554,0.21211 13.85,0.45543 20.812,0.0625 z m -20.813,-0.063 c -3.582,-0.109 -7.17,-0.219 -10.812,-0.219 -1.39,-0.131 -2.789,-0.145 -4.188,-0.156 5.0466,0.41006 10.05,0.96097 15,0.375 z m -15,-0.375 c -4.711,-0.383 -9.442,-0.632 -14.25,0.375 -7.361,-0.931 -14.779,-0.527 -22.156,-0.187 5.0285,0.086 10.036,0.134 14.938,-0.094 7.1503,0.988 14.348,-0.149 21.468,-0.094 z m -36.406,0.188 c -3.9479,-0.06806 -7.9096,-0.14442 -11.906,-0.15625 0.70234,0.1359 1.4061,0.28886 2.0938,0.46875 3.264,0.0088 6.5346,-0.16171 9.8125,-0.3125 z m -11.906,-0.15625 c -3.781,-0.73162 -7.7645,-0.87023 -11.812,-0.71875 1.9999,0.10798 3.9472,0.36488 5.8438,0.78125 1.9882,-0.04844 3.9878,-0.06836 5.9688,-0.0625 z m -64.031,-0.875 c -2.1803,0.06093 -4.3092,0.40474 -6.4375,0.78125 3.3138,-0.0016 6.5414,0.03183 8.75,0.09375 2.052,-0.03282 4.1064,-0.02686 6.1562,0 -1.2018,-0.1268 -2.4155,-0.29902 -3.625,-0.46875 -1.6418,-0.36473 -3.256,-0.45062 -4.8438,-0.40625 z m -6.438,0.781 c -2.0804,9.91e-4 -4.0258,-0.0154 -5.9688,0 l 0.6875,0.8125 c 1.7624,-0.19752 3.5194,-0.50081 5.2812,-0.8125 z m 55.812,-0.688 c -6.5719,-0.02743 -13.451,0.90132 -19.969,0.5625 -7.0331,0.58331 -13.976,0.31011 -20.906,0.21875 8.4835,0.89276 16.793,0.76937 25.219,0.71875 5.9304,-0.34017 12.158,-1.1928 18.25,-1.4375 -0.85665,-0.04196 -1.724,-0.05887 -2.5938,-0.0625 z m 223.34,0.59375 -4.5,0.25 c -0.95857,0.11186 -1.9019,0.15864 -2.8438,0.1875 2.6015,0.01126 5.09,-0.08244 7.3438,-0.4375 z" />
      <path
         inkscape:connector-curvature="0"
         id="path5455"
         style="opacity:0.3;fill:#e9b96e;stroke:#e9b96e;stroke-width:1.28190005px"
         d="m 135.44,102.34 c -3.3614,0.0183 -6.745,0.33776 -10.125,0.71875 2.2487,0.13743 4.4713,0.32715 6.6875,0.59375 4.5767,0.40617 9.1335,0.22905 13.656,-0.0625 -3.3676,-0.95466 -6.7869,-1.2687 -10.219,-1.25 z m 10.219,1.25 c 0.0835,0.0237 0.16654,0.038 0.25,0.0625 8.5966,-0.47624 17.104,-0.0607 25.625,0.1875 -8.5469,-1.7852 -17.16,-0.81182 -25.875,-0.25 z m 25.875,0.25 c 0.99805,0.20846 2.0039,0.42878 3,0.71875 1.0327,-0.2497 2.064,-0.43544 3.0938,-0.59375 -2.0321,-0.0259 -4.0636,-0.0659 -6.0938,-0.125 z m 6.0938,0.125 c 0.86103,0.011 1.7327,0.0289 2.5938,0.0312 l 0.3125,-0.375 c -0.96662,0.0822 -1.9388,0.19503 -2.9062,0.34375 z m -52.312,-0.90625 c -7.1559,-0.43733 -14.425,-0.23323 -21.531,0.40625 2.785,0.14378 5.5854,0.34993 8.4062,0.6875 4.3488,-0.008 8.7247,-0.59776 13.125,-1.0938 z m -21.531,0.40625 c -7.6608,-0.39551 -15.247,-0.17768 -22.875,0.21875 4.169,0.32338 8.3554,0.73419 12.531,1.0312 3.3856,-0.51288 6.8416,-0.93485 10.344,-1.25 z m -22.875,0.21875 c -7.9214,-0.61444 -15.823,-0.94492 -23.531,0.25 -0.91145,0.0643 -1.8097,0.0771 -2.7188,0.125 6.0944,0.63888 12.113,1.1165 17.938,0.0937 2.7882,-0.159 5.5513,-0.32525 8.3125,-0.46875 z m -26.25,0.375 c -8.7066,-0.91273 -17.554,-2.1874 -26.219,-0.125 -0.27892,0.0363 -0.56461,0.0628 -0.84375,0.0937 9.0521,0.25674 18,0.50899 27.062,0.0312 z m -27.062,-0.0312 c -4.6565,-0.13207 -9.3582,-0.25012 -14.094,-0.25 -1.8613,-0.1639 -3.7203,-0.24013 -5.5938,-0.25 6.6312,0.49691 13.184,1.2198 19.688,0.5 z m -19.688,-0.5 c -6.0626,-0.4543 -12.189,-0.70456 -18.375,0.5 -9.4905,-1.1165 -19.02,-0.62718 -28.531,-0.21875 6.456,0.10224 12.861,0.14792 19.156,-0.125 9.2393,1.1879 18.549,-0.20474 27.75,-0.15625 z m -46.915,0.28 c -5.1543,-0.0816 -10.344,-0.20226 -15.562,-0.21875 0.86323,0.15807 1.7164,0.35666 2.5625,0.5625 4.3198,0.0108 8.6616,-0.15745 13,-0.34375 z m -15.562,-0.21875 c -5.094,-0.93 -10.474,-1.05 -15.938,-0.84 2.7463,0.12108 5.4327,0.37568 8.0312,0.90625 2.6395,-0.0598 5.2767,-0.0708 7.9062,-0.0625 z m -15.938,-0.84 c -8.416,-0.37104 -17.386,0.71865 -25.969,0.65625 l 0.96875,1.0625 c 0.45994,-0.003 0.91456,0.003 1.375,0 7.6718,-0.40925 15.742,-1.4175 23.625,-1.7188 z" />
      <path
         inkscape:connector-curvature="0"
         id="path5457"
         style="opacity:0.3;fill:#e9b96e;stroke:#e9b96e;stroke-width:1.28190005px"
         d="m -50.25,99.875 c -3.4331,-0.0155 -6.85,0.2373 -10.219,1.0312 4.5227,0.24227 9.0796,0.40005 13.656,0.0625 2.2099,-0.22092 4.4452,-0.38584 6.6875,-0.5 -3.38,-0.31659 -6.7636,-0.57854 -10.125,-0.59375 z m 10.125,0.59375 c 4.4003,0.41216 8.8074,0.86812 13.156,0.875 2.7861,-0.27705 5.5302,-0.44277 8.2812,-0.5625 -7.0825,-0.52616 -14.307,-0.67552 -21.438,-0.3125 z m 21.438,0.3125 c 3.5347,0.26259 7.0524,0.60119 10.469,1.0312 4.1681,-0.24639 8.3387,-0.54404 12.5,-0.8125 -7.6626,-0.3309 -15.273,-0.5537 -22.969,-0.21875 z m 22.968,0.22 c 2.7612,0.11924 5.5243,0.24288 8.3125,0.375 5.8218,0.84949 11.846,0.46797 17.938,-0.0625 -0.90909,-0.0398 -1.8073,-0.0715 -2.7188,-0.125 -7.716,-1 -15.601,-0.7 -23.531,-0.19 z m 26.25,0.3125 c 9.0338,0.39574 17.977,0.18166 27,-0.0312 -0.25868,-0.0241 -0.52275,-0.0657 -0.78125,-0.0937 -8.6676,-1.7144 -17.509,-0.66475 -26.219,0.0937 l 0,0.0312 z m 27,-0.0312 c 6.5358,0.60875 13.147,-0.023 19.812,-0.4375 -1.8944,0.007 -3.7742,0.0498 -5.6562,0.1875 -4.7645,-1.1e-4 -9.4716,0.13947 -14.156,0.25 z m 19.812,-0.4375 c 9.1806,-0.0348 18.469,1.1412 27.688,0.15625 6.3561,0.22899 12.824,0.18041 19.344,0.0937 -9.5658,-0.34047 -19.174,-0.77688 -28.719,0.15625 -6.1731,-0.99882 -12.263,-0.78227 -18.312,-0.40625 z m 47.031,0.25 c 4.2836,0.15247 8.5471,0.29014 12.812,0.28125 0.87553,-0.177 1.7624,-0.33419 2.6562,-0.46875 -5.182,0.0128 -10.35,0.11947 -15.469,0.1875 z m 15.469,-0.1875 c 2.6032,-0.006 5.1996,0.0136 7.8125,0.0625 2.5929,-0.43992 5.2913,-0.64903 8.0312,-0.75 -5.4316,-0.1725 -10.777,-0.0752 -15.844,0.6875 z m 15.844,-0.6875 c 7.8831,0.25034 15.953,1.0662 23.625,1.4062 0.99379,0.005 1.9771,-0.005 2.9688,0 l 0.8125,-0.90625 c -9.0254,0.18269 -18.508,-0.82793 -27.406,-0.5 z m -216.16,0.6875 c -8.7683,-0.4697 -17.433,-1.3022 -26.031,0.21875 8.573,-0.20578 17.132,-0.5544 25.781,-0.15625 0.0823,-0.02 0.16766,-0.0431 0.25,-0.0625 z m -26.02,0.22 c -1.9784,0.0475 -3.9573,0.0728 -5.9375,0.0937 1.0298,0.13155 2.061,0.29251 3.0938,0.5 0.94426,-0.22842 1.8977,-0.4264 2.8438,-0.59375 z m -5.9375,0.0937 c -2.1034,-0.26869 -4.1864,-0.37063 -6.2812,-0.40625 l 0.21875,0.28125 0.125,0.125 c 1.9831,0.0246 3.9561,0.021 5.9375,0 z" />
    </g>
    <g
       id="g5459"
       transform="matrix(0,2.5251892,4.1494499,0,-678.0469,292.39804)">
      <path
         inkscape:connector-curvature="0"
         id="path5461"
         style="opacity:0.3;fill:#e9b96e;stroke:#e9b96e;stroke-width:1.28190005px"
         d="m 121.53,97 c -2.5611,0.015 -5.1435,0.28228 -7.7188,0.59375 1.7034,0.1135 3.3835,0.28282 5.0625,0.5 3.5105,0.335 6.9995,0.17736 10.469,-0.0625 -2.5823,-0.78348 -5.1812,-1.0467 -7.8125,-1.0312 z m 7.8125,1.0312 c 0.0731,0.02218 0.1457,0.03948 0.21875,0.0625 6.6191,-0.39428 13.189,-0.08028 19.75,0.125 -6.588,-1.4811 -13.251,-0.65198 -19.969,-0.1875 z m 19.969,0.1875 c 0.76572,0.17214 1.517,0.38579 2.2812,0.625 0.78001,-0.2028 1.601,-0.36693 2.4375,-0.5 -1.5716,-0.02122 -3.1486,-0.07587 -4.7188,-0.125 z m 4.7188,0.125 c 3.4345,0.04638 6.8568,0.01971 10.312,-0.25 4.0254,-0.16438 7.8746,0.26928 11.812,0.1875 -7.3252,-0.06539 -15.524,-0.98759 -22.125,0.0625 z m -40.219,-0.75 c -5.5373,-0.36895 -11.157,-0.22053 -16.656,0.3125 2.1466,0.11891 4.2945,0.28272 6.4688,0.5625 3.3707,-0.0069 6.7769,-0.4625 10.188,-0.875 z m -16.656,0.3125 c -5.8973,-0.32667 -11.721,-0.14096 -17.594,0.1875 3.2083,0.26756 6.4114,0.59794 9.625,0.84375 2.5987,-0.4233 5.2807,-0.77073 7.9688,-1.0312 z m -17.594,0.1875 c -6.0936,-0.50818 -12.164,-0.76964 -18.094,0.21875 -0.71095,0.05396 -1.4159,0.08499 -2.125,0.125 4.6959,0.52976 9.3558,0.90986 13.844,0.0625 2.1377,-0.13108 4.258,-0.28784 6.375,-0.40625 z m -20.216,0.344 c -6.6919,-0.75494 -13.497,-1.8294 -20.156,-0.125 -0.22123,0.031 -0.43484,0.03629 -0.65625,0.0625 6.9554,0.21211 13.85,0.45543 20.812,0.0625 z m -20.813,-0.063 c -3.582,-0.109 -7.17,-0.219 -10.812,-0.219 -1.39,-0.131 -2.789,-0.145 -4.188,-0.156 5.0466,0.41006 10.05,0.96097 15,0.375 z m -15,-0.375 c -4.711,-0.383 -9.442,-0.632 -14.25,0.375 -7.361,-0.931 -14.779,-0.527 -22.156,-0.187 5.0285,0.086 10.036,0.134 14.938,-0.094 7.1503,0.988 14.348,-0.149 21.468,-0.094 z m -36.406,0.188 c -3.9479,-0.06806 -7.9096,-0.14442 -11.906,-0.15625 0.70234,0.1359 1.4061,0.28886 2.0938,0.46875 3.264,0.0088 6.5346,-0.16171 9.8125,-0.3125 z m -11.906,-0.15625 c -3.781,-0.73162 -7.7645,-0.87023 -11.812,-0.71875 1.9999,0.10798 3.9472,0.36488 5.8438,0.78125 1.9882,-0.04844 3.9878,-0.06836 5.9688,-0.0625 z m -64.031,-0.875 c -2.1803,0.06093 -4.3092,0.40474 -6.4375,0.78125 3.3138,-0.0016 6.5414,0.03183 8.75,0.09375 2.052,-0.03282 4.1064,-0.02686 6.1562,0 -1.2018,-0.1268 -2.4155,-0.29902 -3.625,-0.46875 -1.6418,-0.36473 -3.256,-0.45062 -4.8438,-0.40625 z m -6.438,0.781 c -2.0804,9.91e-4 -4.0258,-0.0154 -5.9688,0 l 0.6875,0.8125 c 1.7624,-0.19752 3.5194,-0.50081 5.2812,-0.8125 z m 55.812,-0.688 c -6.5719,-0.02743 -13.451,0.90132 -19.969,0.5625 -7.0331,0.58331 -13.976,0.31011 -20.906,0.21875 8.4835,0.89276 16.793,0.76937 25.219,0.71875 5.9304,-0.34017 12.158,-1.1928 18.25,-1.4375 -0.85665,-0.04196 -1.724,-0.05887 -2.5938,-0.0625 z m 223.34,0.59375 -4.5,0.25 c -0.95857,0.11186 -1.9019,0.15864 -2.8438,0.1875 2.6015,0.01126 5.09,-0.08244 7.3438,-0.4375 z" />
      <path
         inkscape:connector-curvature="0"
         id="path5463"
         style="opacity:0.3;fill:#e9b96e;stroke:#e9b96e;stroke-width:1.28190005px"
         d="m 135.44,102.34 c -3.3614,0.0183 -6.745,0.33776 -10.125,0.71875 2.2487,0.13743 4.4713,0.32715 6.6875,0.59375 4.5767,0.40617 9.1335,0.22905 13.656,-0.0625 -3.3676,-0.95466 -6.7869,-1.2687 -10.219,-1.25 z m 10.219,1.25 c 0.0835,0.0237 0.16654,0.038 0.25,0.0625 8.5966,-0.47624 17.104,-0.0607 25.625,0.1875 -8.5469,-1.7852 -17.16,-0.81182 -25.875,-0.25 z m 25.875,0.25 c 0.99805,0.20846 2.0039,0.42878 3,0.71875 1.0327,-0.2497 2.064,-0.43544 3.0938,-0.59375 -2.0321,-0.0259 -4.0636,-0.0659 -6.0938,-0.125 z m 6.0938,0.125 c 0.86103,0.011 1.7327,0.0289 2.5938,0.0312 l 0.3125,-0.375 c -0.96662,0.0822 -1.9388,0.19503 -2.9062,0.34375 z m -52.312,-0.90625 c -7.1559,-0.43733 -14.425,-0.23323 -21.531,0.40625 2.785,0.14378 5.5854,0.34993 8.4062,0.6875 4.3488,-0.008 8.7247,-0.59776 13.125,-1.0938 z m -21.531,0.40625 c -7.6608,-0.39551 -15.247,-0.17768 -22.875,0.21875 4.169,0.32338 8.3554,0.73419 12.531,1.0312 3.3856,-0.51288 6.8416,-0.93485 10.344,-1.25 z m -22.875,0.21875 c -7.9214,-0.61444 -15.823,-0.94492 -23.531,0.25 -0.91145,0.0643 -1.8097,0.0771 -2.7188,0.125 6.0944,0.63888 12.113,1.1165 17.938,0.0937 2.7882,-0.159 5.5513,-0.32525 8.3125,-0.46875 z m -26.25,0.375 c -8.7066,-0.91273 -17.554,-2.1874 -26.219,-0.125 -0.27892,0.0363 -0.56461,0.0628 -0.84375,0.0937 9.0521,0.25674 18,0.50899 27.062,0.0312 z m -27.062,-0.0312 c -4.6565,-0.13207 -9.3582,-0.25012 -14.094,-0.25 -1.8613,-0.1639 -3.7203,-0.24013 -5.5938,-0.25 6.6312,0.49691 13.184,1.2198 19.688,0.5 z m -19.688,-0.5 c -6.0626,-0.4543 -12.189,-0.70456 -18.375,0.5 -9.4905,-1.1165 -19.02,-0.62718 -28.531,-0.21875 6.456,0.10224 12.861,0.14792 19.156,-0.125 9.2393,1.1879 18.549,-0.20474 27.75,-0.15625 z m -46.915,0.28 c -5.1543,-0.0816 -10.344,-0.20226 -15.562,-0.21875 0.86323,0.15807 1.7164,0.35666 2.5625,0.5625 4.3198,0.0108 8.6616,-0.15745 13,-0.34375 z m -15.562,-0.21875 c -5.094,-0.93 -10.474,-1.05 -15.938,-0.84 2.7463,0.12108 5.4327,0.37568 8.0312,0.90625 2.6395,-0.0598 5.2767,-0.0708 7.9062,-0.0625 z m -15.938,-0.84 c -8.416,-0.37104 -17.386,0.71865 -25.969,0.65625 l 0.96875,1.0625 c 0.45994,-0.003 0.91456,0.003 1.375,0 7.6718,-0.40925 15.742,-1.4175 23.625,-1.7188 z" />
      <path
         inkscape:connector-curvature="0"
         id="path5465"
         style="opacity:0.3;fill:#e9b96e;stroke:#e9b96e;stroke-width:1.28190005px"
         d="m -50.25,99.875 c -3.4331,-0.0155 -6.85,0.2373 -10.219,1.0312 4.5227,0.24227 9.0796,0.40005 13.656,0.0625 2.2099,-0.22092 4.4452,-0.38584 6.6875,-0.5 -3.38,-0.31659 -6.7636,-0.57854 -10.125,-0.59375 z m 10.125,0.59375 c 4.4003,0.41216 8.8074,0.86812 13.156,0.875 2.7861,-0.27705 5.5302,-0.44277 8.2812,-0.5625 -7.0825,-0.52616 -14.307,-0.67552 -21.438,-0.3125 z m 21.438,0.3125 c 3.5347,0.26259 7.0524,0.60119 10.469,1.0312 4.1681,-0.24639 8.3387,-0.54404 12.5,-0.8125 -7.6626,-0.3309 -15.273,-0.5537 -22.969,-0.21875 z m 22.968,0.22 c 2.7612,0.11924 5.5243,0.24288 8.3125,0.375 5.8218,0.84949 11.846,0.46797 17.938,-0.0625 -0.90909,-0.0398 -1.8073,-0.0715 -2.7188,-0.125 -7.716,-1 -15.601,-0.7 -23.531,-0.19 z m 26.25,0.3125 c 9.0338,0.39574 17.977,0.18166 27,-0.0312 -0.25868,-0.0241 -0.52275,-0.0657 -0.78125,-0.0937 -8.6676,-1.7144 -17.509,-0.66475 -26.219,0.0937 l 0,0.0312 z m 27,-0.0312 c 6.5358,0.60875 13.147,-0.023 19.812,-0.4375 -1.8944,0.007 -3.7742,0.0498 -5.6562,0.1875 -4.7645,-1.1e-4 -9.4716,0.13947 -14.156,0.25 z m 19.812,-0.4375 c 9.1806,-0.0348 18.469,1.1412 27.688,0.15625 6.3561,0.22899 12.824,0.18041 19.344,0.0937 -9.5658,-0.34047 -19.174,-0.77688 -28.719,0.15625 -6.1731,-0.99882 -12.263,-0.78227 -18.312,-0.40625 z m 47.031,0.25 c 4.2836,0.15247 8.5471,0.29014 12.812,0.28125 0.87553,-0.177 1.7624,-0.33419 2.6562,-0.46875 -5.182,0.0128 -10.35,0.11947 -15.469,0.1875 z m 15.469,-0.1875 c 2.6032,-0.006 5.1996,0.0136 7.8125,0.0625 2.5929,-0.43992 5.2913,-0.64903 8.0312,-0.75 -5.4316,-0.1725 -10.777,-0.0752 -15.844,0.6875 z m 15.844,-0.6875 c 7.8831,0.25034 15.953,1.0662 23.625,1.4062 0.99379,0.005 1.9771,-0.005 2.9688,0 l 0.8125,-0.90625 c -9.0254,0.18269 -18.508,-0.82793 -27.406,-0.5 z m -216.16,0.6875 c -8.7683,-0.4697 -17.433,-1.3022 -26.031,0.21875 8.573,-0.20578 17.132,-0.5544 25.781,-0.15625 0.0823,-0.02 0.16766,-0.0431 0.25,-0.0625 z m -26.02,0.22 c -1.9784,0.0475 -3.9573,0.0728 -5.9375,0.0937 1.0298,0.13155 2.061,0.29251 3.0938,0.5 0.94426,-0.22842 1.8977,-0.4264 2.8438,-0.59375 z m -5.9375,0.0937 c -2.1034,-0.26869 -4.1864,-0.37063 -6.2812,-0.40625 l 0.21875,0.28125 0.125,0.125 c 1.9831,0.0246 3.9561,0.021 5.9375,0 z" />
    </g>
    <path
       inkscape:connector-curvature="0"
       id="rect5541"
       style="fill:#925b03"
       d="m -272.47967,779.83395 0,30.8591 1592.31117,0 0,-30.8591 -1592.31117,0 z" />
    <path
       inkscape:connector-curvature="0"
       id="path5543"
       style="opacity:0.3;fill:#e9b96e;stroke:#e9b96e;stroke-width:4.07238245px"
       d="m 1299.6581,784.39505 c -9.9797,0.065 -20.1742,0.4003 -30.4082,0.9645 -10.8323,0.3773 -21.3391,0.6253 -32.0974,0.9003 17.8152,-0.061 35.38,-0.071 53.2139,0 7.2246,-0.051 16.6313,-0.1039 26.0155,-0.1286 l 0,-1.6077 c -2.261,-0.034 -4.6554,-0.1128 -6.9259,-0.1286 -3.2991,-0.024 -6.4714,-0.022 -9.7979,0 z m -62.5051,1.8648 c -56.9058,0.195 -114.0528,0.7387 -171.8078,-0.4501 -61.4698,0.7931 -126.9989,-1.7847 -188.0247,-1.0289 50.7184,0.5012 102.6684,2.3194 152.0414,3.0223 69.3423,0.1036 137.9997,0.2407 207.7857,-1.5433 z m -386.6884,-1.5433 c -25.04586,0.021 -49.69166,0.4032 -73.31956,1.5433 16.5989,-0.016 33.1748,0.027 49.8351,0.1287 15.71366,-0.8563 31.91586,-1.384 48.48366,-1.6077 -8.4337,-0.078 -16.6537,-0.071 -25.0019,-0.064 z m -73.31956,1.5433 c -33.2573,0.024 -66.4825,0.2458 -99.3321,0.3858 27.4338,0.3137 54.9555,0.5971 82.2718,0.5788 5.6314,-0.3657 11.3121,-0.6871 17.0624,-0.9646 z m -99.3321,0.3858 c -61.1244,-0.6989 -122.3036,-1.5934 -183.2911,0.3215 -39.4304,-2.0489 -78.4258,-1.5423 -117.07157,-0.7716 58.69747,-0.071 118.27137,2.2797 177.20987,0.2573 40.571,0.4695 81.5376,0.3702 123.1528,0.1928 z m -300.36267,-0.4501 c -12.11805,0.016 -24.28212,0.1029 -36.32074,0.3858 -30.29814,-2e-4 -60.24784,0.1605 -90.04031,0.3858 41.68426,1.2289 83.85501,0.076 126.36324,-0.7716 z m -126.36324,0.7716 c -1.80558,-0.053 -3.60178,0 -5.40587,-0.064 -55.25686,-3.5099 -111.71902,-1.364 -167.24434,0.1928 57.76058,0.8053 114.95138,0.3082 172.65169,-0.1286 z m -172.65169,0.1287 c -5.97712,-0.083 -11.91425,-0.1443 -17.90671,-0.2573 -49.20578,-2.0357 -99.28267,-1.431 -149.844394,-0.3858 17.50622,0.2433 35.199824,0.5026 52.876434,0.7716 37.38850968,1.7522 75.7522,0.9682 114.87467,-0.1287 z m -167.748364,-0.643 c -49.155936,-0.6833 -97.940416,-1.1406 -147.307806,-0.4502 22.60731,0.5393 44.87881,1.2386 66.72899,2.1221 26.78966,-0.5087 53.83572,-1.1192 80.578816,-1.6719 z m -147.307806,-0.4502 c -10.40382,-0.2482 -20.92267,-0.4159 -31.4218,-0.5787 l 0,1.1574 c 10.50461,-0.2464 20.96539,-0.4325 31.4218,-0.5787 z m 114.535,6.2377 c -18.25954,0.1266 -36.23638,0.8885 -54.05871,1.6719 27.67062,0 54.71175,0.065 73.14988,0.1929 17.747276,-0.071 35.316496,-0.059 53.04516,0 -10.67881,-0.2738 -21.176864,-0.5901 -31.928554,-0.9646 -13.64494,-0.7524 -27.010446,-0.9918 -40.206136,-0.9003 z m 72.13633,1.8648 c 69.87371,1.7907 138.53663,1.6468 207.95561,1.5433 49.37397,-0.7029 101.3207,-2.521 152.04131,-3.0223 -61.02581,-0.7558 -126.55501,1.822 -188.02456,1.029 -57.83729,1.1905 -114.9842603,0.6442 -171.97236,0.45 z m -126.19341,-0.1927 c -37.46574,0 -70.01613,0.092 -91.89753,0.1927 l 0,1.5433 c 31.16485,1.1499 61.40383,-0.3958 91.89753,-1.7362 z m 513.39142,-1.4147 c -8.3822,10e-5 -16.86359,0.05 -25.34004,0.1285 16.56777,0.2237 32.77063,0.7514 48.48372,1.6077 16.74689,-0.1011 33.65706,-0.1424 50.34205,-0.1287 -23.73263,-1.1555 -48.33964,-1.6081 -73.48408,-1.6075 z m 73.48403,1.6075 c 5.5871,0.2721 11.0805,0.5448 16.5557,0.9003 28.0738,0.018 56.1007,-0.2546 84.2988,-0.5788 -33.4461,-0.1398 -66.981,-0.2942 -100.855,-0.3215 z m 100.855,0.3215 c 40.9085,0.1714 81.565,0.2688 121.4655,-0.1928 58.9931,2.0244 118.2878,-0.2686 177.0399,-0.1928 -38.7055,-0.7731 -77.7463,-1.2807 -117.2413,0.7716 -60.2314,-1.8911 -120.8957,-1.0796 -181.2641,-0.3858 z m 298.5054,-0.3858 c 42.52416,0.8493 84.66036,2.0103 126.36336,0.7716 -29.8802,-0.2261 -59.9905,-0.4503 -90.3801,-0.4501 -11.9844,-0.2815 -23.91996,-0.3059 -35.98256,-0.3215 z m 126.36336,0.7716 c 57.6948,0.437 114.891,0.9377 172.6516,0.1288 -55.5911,-1.5573 -112.0916,-3.7715 -167.4142,-0.2573 -1.7261,0.059 -3.5094,0.078 -5.2368,0.1285 z m 172.6516,0.1288 c 39.0545,1.0939 77.7191,1.8134 115.0446,0.064 17.8497,-0.2716 35.5373,-0.4623 53.2138,-0.7074 -50.7376,-1.0519 -101.3152,-1.6568 -150.688,0.3859 -5.9093,0.1114 -11.6754,0.1746 -17.5693,0.2573 z m 168.2579,-0.6431 c 12.9853,0.2691 25.9937,0.5478 39.0238,0.8359 l 0,-1.286 c -12.9776,0.1285 -26.0056,0.2697 -39.0238,0.4501 z m -215.2201,3.7939 c -33.5596,-0.016 -66.5647,0.3099 -98.1487,1.286 21.636,-0.01 43.3235,-0.018 65.0417,0.064 21.5498,-0.7507 44.1255,-1.1138 66.8987,-1.286 -11.2859,-0.074 -22.6001,-0.059 -33.7869,-0.064 z m 33.7868,0.064 c 65.5182,0.4272 132.5376,1.8631 196.3026,2.4435 8.064,0.01 16.1104,-0.01 24.1573,0 l 0,-1.5433 c -72.8102,0.1765 -148.8857,-1.4419 -220.4578,-0.9002 z m -131.9349,1.2217 c -43.0688,0.022 -85.8493,0.2056 -128.3904,0.3216 35.602,0.2602 70.975,0.4653 106.4269,0.4501 7.2765,-0.3021 14.5323,-0.5421 21.9612,-0.7717 z m -128.3904,0.3216 c -79.50496,-0.5811 -159.54136,-1.3353 -238.87106,0.2573 -51.3058,-1.7046 -101.759,-1.349 -152.0413,-0.7073 76.3,-0.059 153.641,1.9379 230.2588,0.2573 52.8266,0.3907 106.4706,0.341 160.65356,0.1927 z m -390.91236,-0.4501 c -15.7449,0.013 -31.3216,0.087 -46.96344,0.3214 -39.59803,-2e-4 -78.80926,0.2616 -117.74545,0.4502 54.32057,1.0388 109.31392,-0.064 164.70779,-0.7716 z m -164.7078,0.7716 c -2.14995,-0.041 -4.43994,-0.1451 -6.58853,-0.1929 -72.03773,-2.9256 -145.53825,-1.1013 -217.92661,0.1929 75.08382,0.6753 149.52117,0.3631 224.51186,0 z m -224.51184,0 c -7.5555,-0.068 -14.89295,-0.1018 -22.46817,-0.1929 -64.13216,-1.6961 -129.721604,-1.1945 -195.62333,-0.3215 22.94919,0.2034 46.08957,0.4175 69.260086,0.643 48.386204,1.4497 98.2033937,0.7766 148.830874,-0.1286 z m -218.09095,-0.5145 c -35.25406,-0.3126 -70.22981,-0.5736 -105.41318,-0.643 l 0,1.9934 c 0.52868,0.016 0.99233,0.051 1.52041,0.064 34.64155,-0.4205 69.30939,-0.9566 103.89562,-1.4147 z m 140.21306,3.9868 c -70.531124,-0.027 -144.6507,1.9156 -214.54632,1.2217 -10.44927,0.1656 -20.67832,0.2167 -31.08377,0.3215 l 0,1.672 c 25.96404,0.01 51.78455,-0.034 77.87789,-0.064 64.17599,-0.7029 131.72675,-2.4568 197.6503997,-2.958 -9.91292,-0.094 -19.8252997,-0.1893 -29.9014897,-0.1929 z m 65.20595,0.064 c -10.85359,-0.01 -21.80087,0.051 -32.77335,0.1287 21.56091,0.2233 42.56411,0.7503 63.01452,1.6076 21.67706,-0.1009 43.27304,-0.1417 64.87176,-0.1287 -30.73369,-1.1429 -62.54885,-1.5889 -95.108,-1.6076 z m 95.10799,1.6076 c 7.43497,0.2764 14.84749,0.5365 22.13015,0.9003 35.47101,0.018 71.14472,-0.201 106.76639,-0.5145 -42.63808,-0.1399 -85.72868,-0.3598 -128.89435,-0.3858 z m 128.89435,0.3858 c 54.12882,0.1777 107.71419,0.277 160.48924,-0.1928 76.5301,2.0204 153.8712,-0.3874 230.0891,-0.3216 -50.2204,-0.7704 -100.9702,-1.2126 -152.2112,0.8361 -79.3571,-1.9072 -158.92786,-0.9991 -238.41097,-0.3028 z m 390.57274,-0.5144 c 55.2624,0.8478 110.0152,2.0653 164.2038,0.836 -38.6995,-0.2256 -77.5437,-0.4503 -116.9018,-0.4502 -15.7278,-0.2845 -31.4695,-0.3722 -47.3013,-0.3858 z m 164.2038,0.836 c 75.01806,0.4368 149.41696,0.8696 224.51176,0.064 -72.1417,-1.5567 -145.8012,-3.7012 -217.58686,-0.1929 -2.343,0.062 -4.5814,0.075 -6.926,0.1288 z m 224.51176,0.064 c 50.8883,1.0982 101.2112,1.882 149.8444,0.1287 23.1727,-0.2712 45.9768,-0.4625 68.9259,-0.7074 -65.9237,-1.0512 -131.4748,-1.7203 -195.6233,0.3216 -7.7938,0.1128 -15.3712,0.1737 -23.1437,0.2573 z m 218.7703,-0.5787 c 17.1303,0.273 34.3649,0.5438 51.5249,0.8359 l 0,-1.2861 c -17.1429,0.1304 -34.3171,0.2664 -51.5249,0.4502 z" />
    <g
       id="g6189"
       transform="matrix(4.1494499,0,0,4.1494499,375.1566,-589.19408)">
      <path
         id="rect6164"
         sodipodi:nodetypes="csccccccsccsssscc"
         style="opacity:0.30612003;fill:#000000"
         d="m -134.84,314.78 c 0.26783,0.8991 0.40625,1.8382 0.40625,2.7982 0,5.3634 -4.419,3.7888 -10.656,5.6512 l 0,1.3442 c 0,1.0957 1.0246,1.9953 2.4688,2.3318 0.0803,1.248 1.2138,2.2495 2.6562,2.2495 l 45.312,0 c 1.412,0 2.5642,-0.95676 2.6875,-2.1672 0.20457,-0.0323 0.4041,-0.0829 0.59375,-0.13717 1.3208,-0.37801 2.25,-1.2412 2.25,-2.277 l 0,-0.90529 c -0.8933,-0.18401 -1.7661,-0.31993 -2.5938,-0.43893 -1.6553,-0.238 -3.155,-0.3968 -4.4688,-0.60353 -3.2843,-0.51684 -6.5812,-0.3291 -6.5812,-3.987 0,-0.72002 0.59683,-2.4865 1.4562,-3.173 0.18313,-0.1463 0.12054,-0.46105 0.1875,-0.68583 l -33.719,0 z"
         inkscape:connector-curvature="0" />
      <g
         id="g6129"
         transform="matrix(0.12651,0,0,0.09762,-41.361,258.49)">
        <rect
           id="rect5700"
           style="fill:url(#linearGradient6197)"
           transform="matrix(1,0,0,2,-8.8869,-883.01)"
           ry="13.82"
           height="28.792"
           width="400.79999"
           y="775.90997"
           x="-841.27002" />
        <g
           id="g5696"
           transform="translate(-0.88869,-21.882)">
          <path
             id="path5693"
             sodipodi:nodetypes="csccccccscc"
             style="fill:#e9b96e"
             d="m -787.58,580.54 c 2.1172,10.492 3.2206,21.371 3.2206,32.574 0,62.586 -34.902,44.434 -84.205,66.166 l 0,15.473 c 0,16.116 12.948,29.113 29.063,29.113 l 384.27,0 c 16.115,0 29.063,-12.998 29.063,-29.113 l 0,-10.383 c -56.49,-17.178 -98.03,-2.96 -98.03,-71.256 0,-11.203 1.1034,-22.082 3.2205,-32.574 l -266.6,0 z"
             inkscape:connector-curvature="0" />
          <path
             id="rect5641"
             sodipodi:nodetypes="csccccccscc"
             style="fill:url(#linearGradient6199)"
             d="m -787.58,580.54 c 2.1172,10.492 3.2206,21.371 3.2206,32.574 0,62.586 -34.902,44.434 -84.205,66.166 l 0,15.473 c 0,16.116 12.948,29.113 29.063,29.113 l 384.27,0 c 16.115,0 29.063,-12.998 29.063,-29.113 l 0,-10.383 c -56.49,-17.178 -98.03,-2.96 -98.03,-71.256 0,-11.203 1.1034,-22.082 3.2205,-32.574 l -266.6,0 z"
             inkscape:connector-curvature="0" />
        </g>
      </g>
    </g>
    <g
       id="g5617"
       transform="matrix(1.5009805,0.6871904,-0.6871904,1.5009805,359.46482,419.70821)">
      <path
         inkscape:connector-curvature="0"
         id="path5619"
         sodipodi:nodetypes="cccccc"
         style="fill:#ffffff"
         d="m -76.75,246.11 31,-0.5 11.25,-0.5 0,11 -42.25,0 0,-10 z" />
      <path
         inkscape:connector-curvature="0"
         id="path5621"
         style="fill:#e5e5e5"
         d="m -44.318,248.6 1.75,2.5 -3.5,3.75 -1.25,-3.5 3,-2.75 z" />
      <path
         inkscape:connector-curvature="0"
         id="path5623"
         style="fill:#e5e5e5"
         inkscape:transform-center-y="-4.09965"
         d="m -58.053,247.7 3.0322,0.51686 0.4934,7.6824 -3.4507,-2.0768 -0.07495,-6.1225 z" />
      <path
         inkscape:connector-curvature="0"
         id="path5625"
         sodipodi:nodetypes="ccccc"
         style="fill:#e5e5e5"
         inkscape:transform-center-y="-4.09965"
         d="m -37.678,247.32 3.0322,-2.1081 0.2434,10.682 -3.8257,-0.82684 0.55005,-7.7475 z" />
      <path
         inkscape:connector-curvature="0"
         id="path5627"
         inkscape:transform-center-x="-4.4347071"
         style="fill:#e5e5e5"
         inkscape:transform-center-y="-3.0953654"
         d="m -61.484,245.85 2.2768,2.2291 -7.4928,7.4188 -1.0504,-3.9191 6.2665,-5.7288 z" />
    </g>
    <g
       id="g5629"
       transform="matrix(1.6508171,0,0,1.6508171,142.15072,354.97175)">
      <path
         inkscape:connector-curvature="0"
         id="path5631"
         sodipodi:nodetypes="cccccc"
         style="fill:#ffffff"
         d="m -76.75,246.11 31,-0.5 11.25,-0.5 0,11 -42.25,0 0,-10 z" />
      <path
         inkscape:connector-curvature="0"
         id="path5633"
         style="fill:#e5e5e5"
         d="m -44.25,246.61 1.75,2.5 -3.5,3.75 -1.25,-3.5 3,-2.75 z" />
      <path
         inkscape:connector-curvature="0"
         id="path5635"
         style="fill:#e5e5e5"
         inkscape:transform-center-y="-4.09965"
         d="m -58.053,247.7 3.0322,0.51686 0.4934,7.6824 -3.4507,-2.0768 -0.07495,-6.1225 z" />
      <path
         inkscape:connector-curvature="0"
         id="path5637"
         sodipodi:nodetypes="ccccc"
         style="fill:#e5e5e5"
         inkscape:transform-center-y="-4.09965"
         d="m -37.678,247.32 3.0322,-2.1081 0.2434,10.682 -3.8257,-0.82684 0.55005,-7.7475 z" />
      <path
         inkscape:connector-curvature="0"
         id="path5639"
         inkscape:transform-center-x="-3.041551"
         style="fill:#e5e5e5"
         inkscape:transform-center-y="-3.095365"
         d="m -66.745,246.3 1.9505,2.3784 -4.6648,6.124 -1.2436,-3.8307 3.9578,-4.6718 z" />
    </g>
  </g>
  <metadata
     id="metadata96">
    <rdf:RDF>
      <cc:Work>
        <dc:format>image/svg+xml</dc:format>
        <dc:type
           rdf:resource="http://purl.org/dc/dcmitype/StillImage" />
        <cc:license
           rdf:resource="http://creativecommons.org/publicdomain/zero/1.0/" />
        <dc:publisher>
          <cc:Agent
             rdf:about="http://openclipart.org/">
            <dc:title>Openclipart</dc:title>
          </cc:Agent>
        </dc:publisher>
        <dc:title></dc:title>
        <dc:date>2010-11-26T21:16:28</dc:date>
        <dc:description />
        <dc:source>https://openclipart.org/detail/98395/blackboard-by-rg1024</dc:source>
        <dc:creator>
          <cc:Agent>
            <dc:title>rg1024</dc:title>
          </cc:Agent>
        </dc:creator>
        <dc:subject>
          <rdf:Bag>
            <rdf:li>blackboard</rdf:li>
            <rdf:li>learning</rdf:li>
            <rdf:li>school</rdf:li>
            <rdf:li>studying</rdf:li>
            <rdf:li>teaching</rdf:li>
            <rdf:li>wood frame</rdf:li>
          </rdf:Bag>
        </dc:subject>
      </cc:Work>
      <cc:License
         rdf:about="http://creativecommons.org/publicdomain/zero/1.0/">
        <cc:permits
           rdf:resource="http://creativecommons.org/ns#Reproduction" />
        <cc:permits
           rdf:resource="http://creativecommons.org/ns#Distribution" />
        <cc:permits
           rdf:resource="http://creativecommons.org/ns#DerivativeWorks" />
      </cc:License>
    </rdf:RDF>
  </metadata>
</svg>
