<?xml version="1.0" encoding="UTF-8"?>
<!-- Created with Inkscape (http://www.inkscape.org/) -->
<svg width="5.9309in" height="1.194in" version="1.1" viewBox="0 0 150.64 30.328" xmlns="http://www.w3.org/2000/svg" xmlns:cc="http://creativecommons.org/ns#" xmlns:dc="http://purl.org/dc/elements/1.1/" xmlns:rdf="http://www.w3.org/1999/02/22-rdf-syntax-ns#" xmlns:xlink="http://www.w3.org/1999/xlink">
 <defs>
  <linearGradient id="linearGradient85535" x1="17.268" x2="17.268" y1="77.903" y2="94.474" gradientTransform="translate(13.96)" gradientUnits="userSpaceOnUse">
   <stop stop-color="#0485a3" offset="0"/>
   <stop stop-color="#0485a3" stop-opacity="0" offset="1"/>
  </linearGradient>
 </defs>
 <metadata>
  <rdf:RDF>
   <cc:Work rdf:about="">
    <dc:format>image/svg+xml</dc:format>
    <dc:type rdf:resource="http://purl.org/dc/dcmitype/StillImage"/>
   </cc:Work>
  </rdf:RDF>
 </metadata>
 <g transform="translate(-3.2496 -68.024)">
  <g>
   <circle cx="32.189" cy="84.127" r="12.403" fill="url(#linearGradient85535)"/>
   <path d="m28.64 86.672-6.6828 6.6833a13.198 13.198 0 0 0 9.4713 4.0178 13.198 13.198 0 0 0 6.3014-1.6113z" fill="#ff6140" stroke-width=".23824"/>
   <path d="m39.685 85.488-11.124 11.102a13.225 13.198 0 0 0 0.26099 0.0698c3.174-9e-3 5.3829-0.0147 7.1901-0.0186a13.225 13.198 0 0 0 8.1444-6.6906z" fill="#003278" stroke-width=".23849"/>
  </g>
  <circle cx="31.949" cy="83.885" r="13.198" fill="none" stroke="#fac2a3" stroke-width="2.5381"/>
  <g transform="translate(12.161 1.1445)" fill="#fffdf7">
   <circle cx="11.515" cy="78.951" r="1.3078" style="paint-order:fill markers stroke"/>
   <circle cx="13.287" cy="77.845" r="1.3078" style="paint-order:fill markers stroke"/>
   <circle cx="15.633" cy="78.607" r="1.6471" style="paint-order:fill markers stroke"/>
   <rect x="11.463" y="78.617" width="4.2276" height="1.6411" style="paint-order:fill markers stroke"/>
  </g>
  <g transform="translate(22.866 -1.4128)" fill="#fffdf7">
   <circle cx="11.515" cy="78.951" r="1.3078" style="paint-order:fill markers stroke"/>
   <circle cx="13.287" cy="77.845" r="1.3078" style="paint-order:fill markers stroke"/>
   <circle cx="15.633" cy="78.607" r="1.6471" style="paint-order:fill markers stroke"/>
   <rect x="11.463" y="78.617" width="4.2276" height="1.6411" style="paint-order:fill markers stroke"/>
  </g>
  <g fill="#fac2a3" fill-rule="evenodd" stroke-width=".14674">
   <path d="m31.172 69.433h100.9l0.71829 1.0405-0.71829 1.0405h-100.9z"/>
   <g transform="translate(0 -8.7464)">
    <path d="m150.37 78.186h2.791l0.73233 1.0405-0.73233 1.0405h-2.791l0.73233-1.0405z" fill-opacity=".22311"/>
    <path d="m146.9 78.186h2.791l0.73233 1.0405-0.73233 1.0405h-2.791l0.73233-1.0405z" fill-opacity=".33068"/>
    <path d="m143.39 78.186h2.791l0.73233 1.0405-0.73233 1.0405h-2.791l0.73233-1.0405z" fill-opacity=".46215"/>
    <path d="m139.75 78.186h2.791l0.73233 1.0405-0.73233 1.0405h-2.791l0.73233-1.0405z" fill-opacity=".62151"/>
    <path d="m136.27 78.186h2.791l0.73233 1.0405-0.73233 1.0405h-2.791l0.73233-1.0405z" fill-opacity=".79283"/>
    <path d="m132.76 78.186h2.791l0.73233 1.0405-0.73233 1.0405h-2.791l0.73233-1.0405z"/>
   </g>
   <g transform="translate(0 26.81)">
    <path d="m31.172 69.433h100.9l0.71829 1.0405-0.71829 1.0405h-100.9z"/>
    <g transform="translate(0 -8.7464)">
     <path d="m150.37 78.186h2.791l0.73233 1.0405-0.73233 1.0405h-2.791l0.73233-1.0405z" fill-opacity=".22311"/>
     <path d="m146.9 78.186h2.791l0.73233 1.0405-0.73233 1.0405h-2.791l0.73233-1.0405z" fill-opacity=".33068"/>
     <path d="m143.39 78.186h2.791l0.73233 1.0405-0.73233 1.0405h-2.791l0.73233-1.0405z" fill-opacity=".46215"/>
     <path d="m139.75 78.186h2.791l0.73233 1.0405-0.73233 1.0405h-2.791l0.73233-1.0405z" fill-opacity=".62151"/>
     <path d="m136.27 78.186h2.791l0.73233 1.0405-0.73233 1.0405h-2.791l0.73233-1.0405z" fill-opacity=".79283"/>
     <path d="m132.76 78.186h2.791l0.73233 1.0405-0.73233 1.0405h-2.791l0.73233-1.0405z"/>
    </g>
   </g>
  </g>
  <circle cx="50.241" cy="68.727" r=".61278" fill="#8e8e8e" opacity=".39223" stroke="#122028" stroke-width=".18086"/>
  <circle cx="10.358" cy="83.952" r="6.1938" fill="#f00" opacity=".39223" stroke="#a00" stroke-width="1.8281"/>
 </g>
</svg>
