<?xml version="1.0" encoding="UTF-8" standalone="no"?>
<!-- Created with Inkscape (http://www.inkscape.org/) -->

<svg
   width="5.9308562in"
   height="1.1940308in"
   viewBox="0 0 150.64375 30.328381"
   version="1.1"
   id="svg7348"
   inkscape:version="1.4.2 (ebf0e940, 2025-05-08)"
   sodipodi:docname="chapterImageDefault.svg"
   xmlns:inkscape="http://www.inkscape.org/namespaces/inkscape"
   xmlns:sodipodi="http://sodipodi.sourceforge.net/DTD/sodipodi-0.dtd"
   xmlns:xlink="http://www.w3.org/1999/xlink"
   xmlns="http://www.w3.org/2000/svg"
   xmlns:svg="http://www.w3.org/2000/svg"
   xmlns:rdf="http://www.w3.org/1999/02/22-rdf-syntax-ns#"
   xmlns:cc="http://creativecommons.org/ns#"
   xmlns:dc="http://purl.org/dc/elements/1.1/">
  <defs
     id="defs7342">
    <linearGradient
       id="linearGradient5232"
       x1="612.85999"
       xlink:href="#linearGradient4279"
       gradientUnits="userSpaceOnUse"
       y1="2301.8"
       gradientTransform="translate(1491.87,-1584.9)"
       x2="612.85999"
       y2="2085.3999" />
    <linearGradient
       id="linearGradient4279">
      <stop
         id="stop4281"
         offset="0" />
      <stop
         id="stop4283"
         stop-opacity="0"
         offset="1" />
    </linearGradient>
    <linearGradient
       id="linearGradient5206"
       x1="-990.77002"
       gradientUnits="userSpaceOnUse"
       y1="1853.8"
       gradientTransform="translate(1491.87,-1584.9)"
       x2="-991.46002"
       y2="2240.8999">
      <stop
         id="stop4332"
         stop-color="#1a1a1a"
         offset="0" />
      <stop
         id="stop4334"
         stop-color="#ccc"
         offset="1" />
    </linearGradient>
    <linearGradient
       id="linearGradient5198"
       x1="-1046.3"
       gradientUnits="userSpaceOnUse"
       y1="1908.7"
       gradientTransform="translate(1491.87,-1584.9)"
       x2="-1046.5"
       y2="1944.1">
      <stop
         id="stop4356"
         offset="0" />
      <stop
         id="stop4358"
         stop-color="#ccc"
         offset="1" />
    </linearGradient>
    <linearGradient
       id="linearGradient5096"
       x1="612.85999"
       xlink:href="#linearGradient4279"
       gradientUnits="userSpaceOnUse"
       y1="2301.8"
       gradientTransform="translate(1491.87,-640.3)"
       x2="612.85999"
       y2="2085.3999" />
    <linearGradient
       id="linearGradient5089"
       x1="-990.77002"
       gradientUnits="userSpaceOnUse"
       y1="1853.8"
       gradientTransform="translate(1491.87,-640.3)"
       x2="-991.46002"
       y2="2240.8999">
      <stop
         id="stop4666"
         stop-color="#b21822"
         offset="0" />
      <stop
         id="stop4668"
         stop-color="#ccc"
         offset="1" />
    </linearGradient>
    <linearGradient
       id="linearGradient5081"
       x1="-1046.3"
       gradientUnits="userSpaceOnUse"
       y1="1908.7"
       gradientTransform="translate(1491.87,-640.3)"
       x2="-1046.5"
       y2="1944.1">
      <stop
         id="stop4672"
         stop-color="#b21822"
         offset="0" />
      <stop
         id="stop4674"
         stop-color="#ccc"
         offset="1" />
    </linearGradient>
  </defs>
  <sodipodi:namedview
     id="base"
     pagecolor="#ffffff"
     bordercolor="#666666"
     borderopacity="1.0"
     inkscape:pageopacity="0.0"
     inkscape:pageshadow="2"
     inkscape:zoom="0.9899495"
     inkscape:cx="217.68787"
     inkscape:cy="174.75639"
     inkscape:document-units="mm"
     inkscape:current-layer="layer1"
     showgrid="false"
     units="in"
     inkscape:window-width="1920"
     inkscape:window-height="1027"
     inkscape:window-x="0"
     inkscape:window-y="25"
     inkscape:window-maximized="1"
     fit-margin-top="0"
     fit-margin-left="0"
     fit-margin-right="0"
     fit-margin-bottom="0"
     inkscape:pagecheckerboard="0"
     inkscape:showpageshadow="2"
     inkscape:deskcolor="#d1d1d1"
     showguides="false" />
  <metadata
     id="metadata7345">
    <rdf:RDF>
      <cc:Work
         rdf:about="">
        <dc:format>image/svg+xml</dc:format>
        <dc:type
           rdf:resource="http://purl.org/dc/dcmitype/StillImage" />
      </cc:Work>
    </rdf:RDF>
  </metadata>
  <g
     inkscape:label="Layer 1"
     inkscape:groupmode="layer"
     id="layer1"
     transform="translate(-3.2496458,-68.023591)">
    <g
       id="g43"
       transform="translate(-38.364583,29.576637)">
      <circle
         style="opacity:1;fill:#0000ff;fill-opacity:1;stroke-width:0.68995;stroke-linejoin:round"
         id="path34"
         cx="70.293167"
         cy="54.274704"
         r="11.953496" />
      <path
         id="path35"
         style="opacity:1;fill:#4fff00;fill-opacity:1;stroke-width:0.951477;stroke-linejoin:round"
         d="m 80.89144,54.593297 c 0,5.64604 -5.916729,11.091685 -7.049233,9.955789 -0.846781,-0.849315 3.507913,-4.309752 3.507913,-9.955789 0,-5.646038 -3.842141,-9.472689 -2.906557,-10.22306 1.332957,-1.069078 6.447877,4.577021 6.447877,10.22306 z"
         sodipodi:nodetypes="sssss" />
      <path
         id="path36"
         style="opacity:1;fill:#4fff00;fill-opacity:1;stroke-width:0.951477;stroke-linejoin:round"
         d="m 59.500878,54.593297 c 0,5.64604 5.916729,11.091685 7.049233,9.955789 0.846781,-0.849315 -3.507913,-4.309752 -3.507913,-9.955789 0,-5.646038 3.842141,-9.472689 2.906557,-10.22306 -1.332957,-1.069078 -6.447877,4.577021 -6.447877,10.22306 z"
         sodipodi:nodetypes="sssss" />
      <path
         id="path37"
         style="opacity:1;fill:#4fff00;stroke-width:0.730434;stroke-linejoin:round"
         d="m 76.548313,54.426256 c 0,3.48726 -1.749983,6.314243 -3.170718,6.314243 -1.420735,0 -1.97422,-2.826983 -1.97422,-6.314243 0,-3.48726 0.553485,-6.314242 1.97422,-6.314242 1.420735,0 3.170718,2.826982 3.170718,6.314242 z"
         sodipodi:nodetypes="sssss" />
      <path
         id="path38"
         style="opacity:1;fill:#4fff00;stroke-width:0.730434;stroke-linejoin:round"
         d="m 64.253915,54.426256 c 0,3.48726 1.749983,6.314243 3.170718,6.314243 1.420735,0 1.97422,-2.826983 1.97422,-6.314243 0,-3.48726 -0.553485,-6.314242 -1.97422,-6.314242 -1.420735,0 -3.170718,2.826982 -3.170718,6.314242 z"
         sodipodi:nodetypes="sssss" />
      <g
         id="g40">
        <path
           id="path39"
           style="opacity:1;fill:#eafc01;fill-opacity:1;stroke-width:0.482389;stroke-linejoin:round"
           d="m 75.641328,54.420182 c 0,2.303033 -1.155712,4.170012 -2.093985,4.170012 -0.938273,0 -1.303801,-1.866979 -1.303801,-4.170012 0,-2.303034 0.365528,-4.170012 1.303801,-4.170012 0.938273,0 2.093985,1.866978 2.093985,4.170012 z"
           sodipodi:nodetypes="sssss" />
        <path
           id="path40"
           style="opacity:1;fill:#fb0001;fill-opacity:1;stroke-width:0.321124;stroke-linejoin:round"
           d="m 74.973155,54.429293 c 0,1.533118 -0.769353,2.775958 -1.393956,2.775958 -0.624605,0 -0.867935,-1.24284 -0.867935,-2.775958 0,-1.533119 0.24333,-2.775958 0.867935,-2.775958 0.624603,0 1.393956,1.242839 1.393956,2.775958 z"
           sodipodi:nodetypes="sssss" />
      </g>
      <g
         id="g42"
         transform="matrix(-1,0,0,1,140.66859,0)">
        <path
           id="path41"
           style="opacity:1;fill:#eafc01;fill-opacity:1;stroke-width:0.482389;stroke-linejoin:round"
           d="m 75.641328,54.420182 c 0,2.303033 -1.155712,4.170012 -2.093985,4.170012 -0.938273,0 -1.303801,-1.866979 -1.303801,-4.170012 0,-2.303034 0.365528,-4.170012 1.303801,-4.170012 0.938273,0 2.093985,1.866978 2.093985,4.170012 z"
           sodipodi:nodetypes="sssss" />
        <path
           id="path42"
           style="opacity:1;fill:#fb0001;fill-opacity:1;stroke-width:0.321124;stroke-linejoin:round"
           d="m 74.973155,54.429293 c 0,1.533118 -0.769353,2.775958 -1.393956,2.775958 -0.624605,0 -0.867935,-1.24284 -0.867935,-2.775958 0,-1.533119 0.24333,-2.775958 0.867935,-2.775958 0.624603,0 1.393956,1.242839 1.393956,2.775958 z"
           sodipodi:nodetypes="sssss" />
      </g>
    </g>
    <circle
       style="fill:none;stroke:#fac2a3;stroke-width:2.50493;stroke-dasharray:none;stroke-dashoffset:0;stroke-opacity:1"
       id="path79781"
       cx="31.760269"
       cy="83.696312"
       r="13.025217" />
    <path
       id="rect495-7"
       style="fill:#fac2a3;fill-rule:evenodd;stroke-width:0.146735"
       d="M 31.172029,69.432625 H 132.06793 c 0,0 0.78511,0.122982 0.78511,1.040536 0,0.917554 -0.78511,1.040536 -0.78511,1.040536 H 31.172029 Z"
       sodipodi:nodetypes="cczccc" />
    <g
       id="g20">
      <circle
         style="fill:#fac2a3;fill-opacity:1;stroke-width:0.657225;stroke-linejoin:round"
         id="path1"
         cx="134.19501"
         cy="70.470779"
         r="1.018965" />
      <circle
         style="fill:#fac2a3;fill-opacity:1;stroke-width:0.657225;stroke-linejoin:round;opacity:0.7900641"
         id="circle1"
         cx="136.70065"
         cy="70.470779"
         r="1.018965" />
      <circle
         style="fill:#fac2a3;fill-opacity:1;stroke-width:0.657225;stroke-linejoin:round;opacity:0.69230769"
         id="circle2"
         cx="139.1729"
         cy="70.470779"
         r="1.018965" />
      <circle
         style="fill:#fac2a3;fill-opacity:1;stroke-width:0.657225;stroke-linejoin:round;opacity:0.53525641"
         id="circle3"
         cx="141.67854"
         cy="70.470779"
         r="1.018965" />
      <circle
         style="fill:#fac2a3;fill-opacity:1;stroke-width:0.657225;stroke-linejoin:round;opacity:0.37820513"
         id="circle4"
         cx="144.11737"
         cy="70.470779"
         r="1.018965" />
      <circle
         style="fill:#fac2a3;fill-opacity:1;stroke-width:0.657225;stroke-linejoin:round;opacity:0.23076923"
         id="circle5"
         cx="146.58961"
         cy="70.470779"
         r="1.018965" />
      <circle
         style="fill:#fac2a3;fill-opacity:1;stroke-width:0.657225;stroke-linejoin:round;opacity:0.18429487"
         id="circle11"
         cx="149.16208"
         cy="70.470779"
         r="1.018965" />
      <path
         id="path14"
         style="fill:#fac2a3;fill-rule:evenodd;stroke-width:0.146735"
         d="M 31.172029,69.432625 H 132.06793 c 0,0 0.78511,0.122982 0.78511,1.040536 0,0.917554 -0.78511,1.040536 -0.78511,1.040536 H 31.172029 Z"
         sodipodi:nodetypes="cczccc" />
      <circle
         style="fill:#fac2a3;fill-opacity:1;stroke-width:0.657225;stroke-linejoin:round"
         id="circle14"
         cx="134.19501"
         cy="70.470779"
         r="1.018965" />
      <circle
         style="fill:#fac2a3;fill-opacity:1;stroke-width:0.657225;stroke-linejoin:round;opacity:0.7900641"
         id="circle15"
         cx="136.70065"
         cy="70.470779"
         r="1.018965" />
      <circle
         style="fill:#fac2a3;fill-opacity:1;stroke-width:0.657225;stroke-linejoin:round;opacity:0.69230769"
         id="circle16"
         cx="139.1729"
         cy="70.470779"
         r="1.018965" />
      <circle
         style="fill:#fac2a3;fill-opacity:1;stroke-width:0.657225;stroke-linejoin:round;opacity:0.53525641"
         id="circle17"
         cx="141.67854"
         cy="70.470779"
         r="1.018965" />
      <circle
         style="fill:#fac2a3;fill-opacity:1;stroke-width:0.657225;stroke-linejoin:round;opacity:0.37820513"
         id="circle18"
         cx="144.11737"
         cy="70.470779"
         r="1.018965" />
      <circle
         style="fill:#fac2a3;fill-opacity:1;stroke-width:0.657225;stroke-linejoin:round;opacity:0.23076923"
         id="circle19"
         cx="146.58961"
         cy="70.470779"
         r="1.018965" />
      <circle
         style="fill:#fac2a3;fill-opacity:1;stroke-width:0.657225;stroke-linejoin:round;opacity:0.18429487"
         id="circle20"
         cx="149.16208"
         cy="70.470779"
         r="1.018965" />
    </g>
    <g
       id="g34"
       transform="translate(0,26.40298)">
      <circle
         style="fill:#fac2a3;fill-opacity:1;stroke-width:0.657225;stroke-linejoin:round"
         id="circle21"
         cx="134.19501"
         cy="70.470779"
         r="1.018965" />
      <circle
         style="opacity:0.790064;fill:#fac2a3;fill-opacity:1;stroke-width:0.657225;stroke-linejoin:round"
         id="circle22"
         cx="136.70065"
         cy="70.470779"
         r="1.018965" />
      <circle
         style="opacity:0.692308;fill:#fac2a3;fill-opacity:1;stroke-width:0.657225;stroke-linejoin:round"
         id="circle23"
         cx="139.1729"
         cy="70.470779"
         r="1.018965" />
      <circle
         style="opacity:0.535256;fill:#fac2a3;fill-opacity:1;stroke-width:0.657225;stroke-linejoin:round"
         id="circle24"
         cx="141.67854"
         cy="70.470779"
         r="1.018965" />
      <circle
         style="opacity:0.378205;fill:#fac2a3;fill-opacity:1;stroke-width:0.657225;stroke-linejoin:round"
         id="circle25"
         cx="144.11737"
         cy="70.470779"
         r="1.018965" />
      <circle
         style="opacity:0.230769;fill:#fac2a3;fill-opacity:1;stroke-width:0.657225;stroke-linejoin:round"
         id="circle26"
         cx="146.58961"
         cy="70.470779"
         r="1.018965" />
      <circle
         style="opacity:0.184295;fill:#fac2a3;fill-opacity:1;stroke-width:0.657225;stroke-linejoin:round"
         id="circle27"
         cx="149.16208"
         cy="70.470779"
         r="1.018965" />
      <path
         id="path27"
         style="fill:#fac2a3;fill-rule:evenodd;stroke-width:0.146735"
         d="M 31.172029,69.432625 H 132.06793 c 0,0 0.78511,0.122982 0.78511,1.040536 0,0.917554 -0.78511,1.040536 -0.78511,1.040536 H 31.172029 Z"
         sodipodi:nodetypes="cczccc" />
      <circle
         style="fill:#fac2a3;fill-opacity:1;stroke-width:0.657225;stroke-linejoin:round"
         id="circle28"
         cx="134.19501"
         cy="70.470779"
         r="1.018965" />
      <circle
         style="opacity:0.790064;fill:#fac2a3;fill-opacity:1;stroke-width:0.657225;stroke-linejoin:round"
         id="circle29"
         cx="136.70065"
         cy="70.470779"
         r="1.018965" />
      <circle
         style="opacity:0.692308;fill:#fac2a3;fill-opacity:1;stroke-width:0.657225;stroke-linejoin:round"
         id="circle30"
         cx="139.1729"
         cy="70.470779"
         r="1.018965" />
      <circle
         style="opacity:0.535256;fill:#fac2a3;fill-opacity:1;stroke-width:0.657225;stroke-linejoin:round"
         id="circle31"
         cx="141.67854"
         cy="70.470779"
         r="1.018965" />
      <circle
         style="opacity:0.378205;fill:#fac2a3;fill-opacity:1;stroke-width:0.657225;stroke-linejoin:round"
         id="circle32"
         cx="144.11737"
         cy="70.470779"
         r="1.018965" />
      <circle
         style="opacity:0.230769;fill:#fac2a3;fill-opacity:1;stroke-width:0.657225;stroke-linejoin:round"
         id="circle33"
         cx="146.58961"
         cy="70.470779"
         r="1.018965" />
      <circle
         style="opacity:0.184295;fill:#fac2a3;fill-opacity:1;stroke-width:0.657225;stroke-linejoin:round"
         id="circle34"
         cx="149.16208"
         cy="70.470779"
         r="1.018965" />
    </g>
  </g>
</svg>
