<?xml version="1.0" encoding="UTF-8" standalone="no"?>
<!-- Created with Inkscape (http://www.inkscape.org/) -->

<svg
   xmlns:dc="http://purl.org/dc/elements/1.1/"
   xmlns:cc="http://creativecommons.org/ns#"
   xmlns:rdf="http://www.w3.org/1999/02/22-rdf-syntax-ns#"
   xmlns:svg="http://www.w3.org/2000/svg"
   xmlns="http://www.w3.org/2000/svg"
   xmlns:sodipodi="http://sodipodi.sourceforge.net/DTD/sodipodi-0.dtd"
   xmlns:inkscape="http://www.inkscape.org/namespaces/inkscape"
   id="svg2"
   viewBox="0 0 540.00002 270"
   version="1.1"
   inkscape:version="0.92.2 (5c3e80d, 2017-08-06)"
   sodipodi:docname="geometry.svg"
   width="6in"
   height="3in">
  <sodipodi:namedview
     id="base"
     bordercolor="#666666"
     inkscape:pageshadow="2"
     inkscape:window-y="-11"
     pagecolor="#ffffff"
     inkscape:window-height="1016"
     inkscape:window-maximized="1"
     inkscape:zoom="2"
     inkscape:window-x="-11"
     showgrid="false"
     borderopacity="1.0"
     inkscape:current-layer="layer1"
     inkscape:cx="295.80137"
     inkscape:cy="97.916314"
     showguides="true"
     inkscape:guide-bbox="true"
     inkscape:window-width="1920"
     inkscape:pageopacity="0.0"
     inkscape:document-units="px"
     fit-margin-top="1"
     fit-margin-left="1"
     fit-margin-right="1"
     fit-margin-bottom="1"
     units="in" />
  <defs
     id="defs4">
    <linearGradient
       id="linearGradient5302"
       y2="196.88"
       gradientUnits="userSpaceOnUse"
       y1="37.362"
       gradientTransform="matrix(1.8308505,0,0,1.3872834,-60.976998,525.29215)"
       x2="174"
       x1="169"
       inkscape:collect="always">
      <stop
         id="stop5298"
         style="stop-color:#c17d11"
         offset="0" />
      <stop
         id="stop5300"
         style="stop-color:#8f5902"
         offset="1" />
    </linearGradient>
    <linearGradient
       id="linearGradient5491"
       y2="301.57001"
       gradientUnits="userSpaceOnUse"
       y1="132.36"
       x2="213.27"
       x1="-8"
       inkscape:collect="always"
       gradientTransform="matrix(1.8866196,0,0,1.3872834,-82.365562,411.53492)">
      <stop
         id="stop5487"
         style="stop-color:#06712e"
         offset="0" />
      <stop
         id="stop5489"
         style="stop-color:#63a67c"
         offset="1" />
    </linearGradient>
    <linearGradient
       id="linearGradient6197"
       y2="832.34003"
       gradientUnits="userSpaceOnUse"
       x2="-376.48999"
       gradientTransform="translate(-1.7774,-27.64)"
       y1="826.01001"
       x1="-818.16998"
       inkscape:collect="always">
      <stop
         id="stop6112"
         style="stop-color:#000000"
         offset="0" />
      <stop
         id="stop6114"
         style="stop-color:#5d5c5c"
         offset=".16709" />
      <stop
         id="stop6116"
         style="stop-color:#000000"
         offset=".30664" />
      <stop
         id="stop6118"
         style="stop-color:#7c7c7c"
         offset=".50633" />
      <stop
         id="stop6120"
         style="stop-color:#000000"
         offset=".64588" />
      <stop
         id="stop6122"
         style="stop-color:#cccccc"
         offset=".80294" />
      <stop
         id="stop6124"
         style="stop-color:#000000"
         offset=".89264" />
      <stop
         id="stop6126"
         style="stop-color:#000000;stop-opacity:0"
         offset="1" />
    </linearGradient>
    <linearGradient
       id="linearGradient6199"
       y2="492.41"
       gradientUnits="userSpaceOnUse"
       x2="-173"
       gradientTransform="matrix(2.5136,0,0,3.2574,-233.89,-811.59)"
       y1="431.35999"
       x1="-173"
       inkscape:collect="always">
      <stop
         id="stop5681"
         style="stop-color:#c5913e"
         offset="0" />
      <stop
         id="stop5687"
         style="stop-color:#8f5902"
         offset=".15562" />
      <stop
         id="stop5689"
         style="stop-color:#8f5902;stop-opacity:.61176"
         offset=".48325" />
      <stop
         id="stop5691"
         style="stop-color:#8f5902"
         offset=".59791" />
      <stop
         id="stop5683"
         style="stop-color:#8f5902;stop-opacity:0"
         offset="1" />
    </linearGradient>
    <marker
       inkscape:stockid="Arrow1Mend"
       orient="auto"
       refY="0"
       refX="0"
       id="Arrow1Mend"
       style="overflow:visible"
       inkscape:isstock="true"
       inkscape:collect="always">
      <path
         id="path5466"
         d="M 0,0 5,-5 -12.5,0 5,5 Z"
         style="fill:#ffffff;fill-opacity:1;fill-rule:evenodd;stroke:#ffffff;stroke-width:1.00000003pt;stroke-opacity:1"
         transform="matrix(-0.4,0,0,-0.4,-4,0)"
         inkscape:connector-curvature="0" />
    </marker>
    <marker
       inkscape:isstock="true"
       style="overflow:visible"
       id="marker5739-9"
       refX="0"
       refY="0"
       orient="auto"
       inkscape:stockid="Arrow1Mend">
      <path
         transform="matrix(-0.4,0,0,-0.4,-4,0)"
         style="fill:#ffffff;fill-opacity:1;fill-rule:evenodd;stroke:#ffffff;stroke-width:1.00000003pt;stroke-opacity:1"
         d="M 0,0 5,-5 -12.5,0 5,5 Z"
         id="path5741-8"
         inkscape:connector-curvature="0" />
    </marker>
    <marker
       inkscape:stockid="Arrow1Mend"
       orient="auto"
       refY="0"
       refX="0"
       id="Arrow1Mend-5"
       style="overflow:visible">
      <path
         inkscape:connector-curvature="0"
         id="path4345-1"
         d="M 0,0 5,-5 -12.5,0 5,5 Z"
         style="fill-rule:evenodd;stroke:#000000;stroke-width:1.00000003pt"
         transform="matrix(-0.4,0,0,-0.4,-4,0)" />
    </marker>
    <marker
       inkscape:stockid="Arrow1Mend"
       orient="auto"
       refY="0"
       refX="0"
       id="marker4398"
       style="overflow:visible">
      <path
         inkscape:connector-curvature="0"
         id="path4400"
         d="M 0,0 5,-5 -12.5,0 5,5 Z"
         style="fill-rule:evenodd;stroke:#000000;stroke-width:1.00000003pt"
         transform="matrix(-0.4,0,0,-0.4,-4,0)" />
    </marker>
    <marker
       inkscape:stockid="Arrow1Mend"
       orient="auto"
       refY="0"
       refX="0"
       id="Arrow1Mend-5-4"
       style="overflow:visible">
      <path
         inkscape:connector-curvature="0"
         id="path4345-1-4"
         d="M 0,0 5,-5 -12.5,0 5,5 Z"
         style="fill-rule:evenodd;stroke:#000000;stroke-width:1.00000003pt"
         transform="matrix(-0.4,0,0,-0.4,-4,0)" />
    </marker>
    <marker
       inkscape:stockid="Arrow1Mend"
       orient="auto"
       refY="0"
       refX="0"
       id="marker4463"
       style="overflow:visible">
      <path
         inkscape:connector-curvature="0"
         id="path4465"
         d="M 0,0 5,-5 -12.5,0 5,5 Z"
         style="fill-rule:evenodd;stroke:#000000;stroke-width:1.00000003pt"
         transform="matrix(-0.4,0,0,-0.4,-4,0)" />
    </marker>
  </defs>
  <g
     id="layer1"
     inkscape:label="Capa 1"
     inkscape:groupmode="layer"
     transform="translate(279.2123,-541.69313)"
     style="display:inline">
    <rect
       id="rect4125"
       style="fill:url(#linearGradient5491);stroke-width:0.33432946"
       inkscape:export-ydpi="90"
       inkscape:export-filename="/var/www/curros/aiki/wordpress/wp-content/themes/aiki/images/header.png"
       height="231.87056"
       width="521.63141"
       inkscape:export-xdpi="90"
       y="557.81012"
       x="-265.77518" />
    <path
       d="m 242.70778,558.05213 -5.55281,0.9475 v 0.90444 h 3.68735 v 224.64517 h -501.24566 v 1.55049 h 504.11922 l -0.99777,-228.04932 z"
       style="opacity:0.38314;fill:#eeeeec;stroke-width:0.33432946"
       id="path5384"
       inkscape:connector-curvature="0"
       sodipodi:nodetypes="cccccccccc" />
    <path
       d="m -262.86882,556.53379 1.343,229.5538 7.5972,-0.98096 1.343,-217.48443 H 254.5268 v -11.09827 h -517.38763 z"
       style="opacity:0.38314;fill:#2e3436;stroke-width:0.33432946"
       sodipodi:nodetypes="ccccccc"
       id="path5373"
       inkscape:connector-curvature="0" />
    <path
       d="m -275.18651,544.54072 v 253.87287 h 5.49255 12.81596 496.16044 9.15427 9.15425 V 544.54072 h -17.39306 -497.0759 -0.91544 z m 13.81678,13.87283 h 504.99846 v 226.1272 h -504.99846 z"
       style="fill:url(#linearGradient5302);stroke-width:0.33432946"
       id="rect3748"
       inkscape:connector-curvature="0"
       sodipodi:nodetypes="ccccccccccccccccc" />
    <path
       d="m -275.18651,544.54072 v 1.6474 l 13.87283,14.00324 v -1.7774 h 0.13006 l -13.69942,-13.87283 h -0.30347 z"
       style="color:#000000;text-indent:0;text-transform:none;fill:#e9b96e;stroke-width:0.33432946"
       id="path5306"
       inkscape:connector-curvature="0" />
    <path
       d="m -275.02004,544.54072 13.69942,13.87283 h 0.0434 1.90752 l -13.69947,-13.87283 h -1.9508 z"
       style="color:#000000;text-indent:0;text-transform:none;fill:#8f5902;stroke-width:0.33432946"
       id="path5304"
       inkscape:connector-curvature="0" />
    <path
       d="m -275.18651,798.07371 v -1.64742 l 13.87283,-14.00322 v 1.7774 h 0.13006 l -13.69942,13.87284 h -0.30347 z"
       style="color:#000000;text-indent:0;text-transform:none;fill:#784b02;stroke-width:0.33432946"
       id="path5359"
       inkscape:connector-curvature="0" />
    <path
       d="m -275.02004,798.30954 13.69942,-13.87283 h 0.0434 1.90752 l -13.69942,13.87283 h -1.95081 z"
       style="color:#000000;text-indent:0;text-transform:none;fill:#c17d11;stroke-width:0.33432946"
       id="path5361"
       inkscape:connector-curvature="0" />
    <path
       d="m 257.31661,544.54072 v 1.6474 l -13.87284,14.00324 v -1.7774 h -0.12998 l 13.69941,-13.87283 h 0.30347 z"
       style="color:#000000;text-indent:0;text-transform:none;fill:#e9b96e;stroke-width:0.33432946"
       id="path5363"
       inkscape:connector-curvature="0" />
    <path
       d="m 257.15011,544.54072 -13.69941,13.87283 h -0.0433 -1.90752 l 13.69945,-13.87283 z"
       style="color:#000000;text-indent:0;text-transform:none;fill:#8f5902;stroke-width:0.33432946"
       id="path5365"
       inkscape:connector-curvature="0" />
    <path
       d="m 257.31661,798.07371 v -1.64742 l -13.87284,-14.00322 v 1.7774 h -0.12998 l 13.69941,13.87284 h 0.30347 z"
       style="color:#000000;text-indent:0;text-transform:none;fill:#784b02;stroke-width:0.33432946"
       id="path5367"
       inkscape:connector-curvature="0" />
    <path
       d="M 257.15011,798.30954 243.4507,784.43671 h -0.0433 -1.90752 l 13.69945,13.87283 z"
       style="color:#000000;text-indent:0;text-transform:none;fill:#c17d11;stroke-width:0.33432946"
       id="path5369"
       inkscape:connector-curvature="0" />
    <g
       id="g5438"
       transform="matrix(1.820628,0,0,1.3582736,-86.729822,413.98842)">
      <path
         inkscape:connector-curvature="0"
         id="path3804"
         style="opacity:0.3;fill:#e9b96e;stroke:#e9b96e;stroke-width:1px"
         d="m 121.53,97 c -2.5611,0.015 -5.1435,0.28228 -7.7188,0.59375 1.7034,0.1135 3.3835,0.28282 5.0625,0.5 3.5105,0.335 6.9995,0.17736 10.469,-0.0625 -2.5823,-0.78348 -5.1812,-1.0467 -7.8125,-1.0312 z m 7.8125,1.0312 c 0.0731,0.02218 0.1457,0.03948 0.21875,0.0625 6.6191,-0.39428 13.189,-0.08028 19.75,0.125 -6.588,-1.4811 -13.251,-0.65198 -19.969,-0.1875 z m 19.969,0.1875 c 0.76572,0.17214 1.517,0.38579 2.2812,0.625 0.78001,-0.2028 1.601,-0.36693 2.4375,-0.5 -1.5716,-0.02122 -3.1486,-0.07587 -4.7188,-0.125 z m 4.7188,0.125 c 3.4345,0.04638 6.8568,0.01971 10.312,-0.25 4.0254,-0.16438 7.8746,0.26928 11.812,0.1875 -7.3252,-0.06539 -15.524,-0.98759 -22.125,0.0625 z m -40.219,-0.75 c -5.5373,-0.36895 -11.157,-0.22053 -16.656,0.3125 2.1466,0.11891 4.2945,0.28272 6.4688,0.5625 3.3707,-0.0069 6.7769,-0.4625 10.188,-0.875 z m -16.656,0.3125 c -5.8973,-0.32667 -11.721,-0.14096 -17.594,0.1875 3.2083,0.26756 6.4114,0.59794 9.625,0.84375 2.5987,-0.4233 5.2807,-0.77073 7.9688,-1.0312 z m -17.594,0.1875 c -6.0936,-0.50818 -12.164,-0.76964 -18.094,0.21875 -0.71095,0.05396 -1.4159,0.08499 -2.125,0.125 4.6959,0.52976 9.3558,0.90986 13.844,0.0625 2.1377,-0.13108 4.258,-0.28784 6.375,-0.40625 z m -20.216,0.344 c -6.6919,-0.75494 -13.497,-1.8294 -20.156,-0.125 -0.22123,0.031 -0.43484,0.03629 -0.65625,0.0625 6.9554,0.21211 13.85,0.45543 20.812,0.0625 z m -20.813,-0.063 c -3.582,-0.109 -7.17,-0.219 -10.812,-0.219 -1.39,-0.131 -2.789,-0.145 -4.188,-0.156 5.0466,0.41006 10.05,0.96097 15,0.375 z m -15,-0.375 c -4.711,-0.383 -9.442,-0.632 -14.25,0.375 -7.361,-0.931 -14.779,-0.527 -22.156,-0.187 5.0285,0.086 10.036,0.134 14.938,-0.094 7.1503,0.988 14.348,-0.149 21.468,-0.094 z m -36.406,0.188 c -3.9479,-0.06806 -7.9096,-0.14442 -11.906,-0.15625 0.70234,0.1359 1.4061,0.28886 2.0938,0.46875 3.264,0.0088 6.5346,-0.16171 9.8125,-0.3125 z m -11.906,-0.15625 c -3.781,-0.73162 -7.7645,-0.87023 -11.812,-0.71875 1.9999,0.10798 3.9472,0.36488 5.8438,0.78125 1.9882,-0.04844 3.9878,-0.06836 5.9688,-0.0625 z m -64.031,-0.875 c -2.1803,0.06093 -4.3092,0.40474 -6.4375,0.78125 3.3138,-0.0016 6.5414,0.03183 8.75,0.09375 2.052,-0.03282 4.1064,-0.02686 6.1562,0 -1.2018,-0.1268 -2.4155,-0.29902 -3.625,-0.46875 -1.6418,-0.36473 -3.256,-0.45062 -4.8438,-0.40625 z m -6.438,0.781 c -2.0804,9.91e-4 -4.0258,-0.0154 -5.9688,0 l 0.6875,0.8125 c 1.7624,-0.19752 3.5194,-0.50081 5.2812,-0.8125 z m 55.812,-0.688 c -6.5719,-0.02743 -13.451,0.90132 -19.969,0.5625 -7.0331,0.58331 -13.976,0.31011 -20.906,0.21875 8.4835,0.89276 16.793,0.76937 25.219,0.71875 5.9304,-0.34017 12.158,-1.1928 18.25,-1.4375 -0.85665,-0.04196 -1.724,-0.05887 -2.5938,-0.0625 z m 223.34,0.59375 -4.5,0.25 c -0.95857,0.11186 -1.9019,0.15864 -2.8438,0.1875 2.6015,0.01126 5.09,-0.08244 7.3438,-0.4375 z" />
      <path
         inkscape:connector-curvature="0"
         id="path5280"
         style="opacity:0.3;fill:#e9b96e;stroke:#e9b96e;stroke-width:1px"
         d="m 135.44,102.34 c -3.3614,0.0183 -6.745,0.33776 -10.125,0.71875 2.2487,0.13743 4.4713,0.32715 6.6875,0.59375 4.5767,0.40617 9.1335,0.22905 13.656,-0.0625 -3.3676,-0.95466 -6.7869,-1.2687 -10.219,-1.25 z m 10.219,1.25 c 0.0835,0.0237 0.16654,0.038 0.25,0.0625 8.5966,-0.47624 17.104,-0.0607 25.625,0.1875 -8.5469,-1.7852 -17.16,-0.81182 -25.875,-0.25 z m 25.875,0.25 c 0.99805,0.20846 2.0039,0.42878 3,0.71875 1.0327,-0.2497 2.064,-0.43544 3.0938,-0.59375 -2.0321,-0.0259 -4.0636,-0.0659 -6.0938,-0.125 z m 6.0938,0.125 c 0.86103,0.011 1.7327,0.0289 2.5938,0.0312 l 0.3125,-0.375 c -0.96662,0.0822 -1.9388,0.19503 -2.9062,0.34375 z m -52.312,-0.90625 c -7.1559,-0.43733 -14.425,-0.23323 -21.531,0.40625 2.785,0.14378 5.5854,0.34993 8.4062,0.6875 4.3488,-0.008 8.7247,-0.59776 13.125,-1.0938 z m -21.531,0.40625 c -7.6608,-0.39551 -15.247,-0.17768 -22.875,0.21875 4.169,0.32338 8.3554,0.73419 12.531,1.0312 3.3856,-0.51288 6.8416,-0.93485 10.344,-1.25 z m -22.875,0.21875 c -7.9214,-0.61444 -15.823,-0.94492 -23.531,0.25 -0.91145,0.0643 -1.8097,0.0771 -2.7188,0.125 6.0944,0.63888 12.113,1.1165 17.938,0.0937 2.7882,-0.159 5.5513,-0.32525 8.3125,-0.46875 z m -26.25,0.375 c -8.7066,-0.91273 -17.554,-2.1874 -26.219,-0.125 -0.27892,0.0363 -0.56461,0.0628 -0.84375,0.0937 9.0521,0.25674 18,0.50899 27.062,0.0312 z m -27.062,-0.0312 c -4.6565,-0.13207 -9.3582,-0.25012 -14.094,-0.25 -1.8613,-0.1639 -3.7203,-0.24013 -5.5938,-0.25 6.6312,0.49691 13.184,1.2198 19.688,0.5 z m -19.688,-0.5 c -6.0626,-0.4543 -12.189,-0.70456 -18.375,0.5 -9.4905,-1.1165 -19.02,-0.62718 -28.531,-0.21875 6.456,0.10224 12.861,0.14792 19.156,-0.125 9.2393,1.1879 18.549,-0.20474 27.75,-0.15625 z m -46.915,0.28 c -5.1543,-0.0816 -10.344,-0.20226 -15.562,-0.21875 0.86323,0.15807 1.7164,0.35666 2.5625,0.5625 4.3198,0.0108 8.6616,-0.15745 13,-0.34375 z m -15.562,-0.21875 c -5.094,-0.93 -10.474,-1.05 -15.938,-0.84 2.7463,0.12108 5.4327,0.37568 8.0312,0.90625 2.6395,-0.0598 5.2767,-0.0708 7.9062,-0.0625 z m -15.938,-0.84 c -8.416,-0.37104 -17.386,0.71865 -25.969,0.65625 l 0.96875,1.0625 c 0.45994,-0.003 0.91456,0.003 1.375,0 7.6718,-0.40925 15.742,-1.4175 23.625,-1.7188 z" />
      <path
         inkscape:connector-curvature="0"
         id="path5282"
         style="opacity:0.3;fill:#e9b96e;stroke:#e9b96e;stroke-width:1px"
         d="m -50.25,99.875 c -3.4331,-0.0155 -6.85,0.2373 -10.219,1.0312 4.5227,0.24227 9.0796,0.40005 13.656,0.0625 2.2099,-0.22092 4.4452,-0.38584 6.6875,-0.5 -3.38,-0.31659 -6.7636,-0.57854 -10.125,-0.59375 z m 10.125,0.59375 c 4.4003,0.41216 8.8074,0.86812 13.156,0.875 2.7861,-0.27705 5.5302,-0.44277 8.2812,-0.5625 -7.0825,-0.52616 -14.307,-0.67552 -21.438,-0.3125 z m 21.438,0.3125 c 3.5347,0.26259 7.0524,0.60119 10.469,1.0312 4.1681,-0.24639 8.3387,-0.54404 12.5,-0.8125 -7.6626,-0.3309 -15.273,-0.5537 -22.969,-0.21875 z m 22.968,0.22 c 2.7612,0.11924 5.5243,0.24288 8.3125,0.375 5.8218,0.84949 11.846,0.46797 17.938,-0.0625 -0.90909,-0.0398 -1.8073,-0.0715 -2.7188,-0.125 -7.716,-1 -15.601,-0.7 -23.531,-0.19 z m 26.25,0.3125 c 9.0338,0.39574 17.977,0.18166 27,-0.0312 -0.25868,-0.0241 -0.52275,-0.0657 -0.78125,-0.0937 -8.6676,-1.7144 -17.509,-0.66475 -26.219,0.0937 v 0.0312 z m 27,-0.0312 c 6.5358,0.60875 13.147,-0.023 19.812,-0.4375 -1.8944,0.007 -3.7742,0.0498 -5.6562,0.1875 -4.7645,-1.1e-4 -9.4716,0.13947 -14.156,0.25 z m 19.812,-0.4375 c 9.1806,-0.0348 18.469,1.1412 27.688,0.15625 6.3561,0.22899 12.824,0.18041 19.344,0.0937 -9.5658,-0.34047 -19.174,-0.77688 -28.719,0.15625 -6.1731,-0.99882 -12.263,-0.78227 -18.312,-0.40625 z m 47.031,0.25 c 4.2836,0.15247 8.5471,0.29014 12.812,0.28125 0.87553,-0.177 1.7624,-0.33419 2.6562,-0.46875 -5.182,0.0128 -10.35,0.11947 -15.469,0.1875 z m 15.469,-0.1875 c 2.6032,-0.006 5.1996,0.0136 7.8125,0.0625 2.5929,-0.43992 5.2913,-0.64903 8.0312,-0.75 -5.4316,-0.1725 -10.777,-0.0752 -15.844,0.6875 z m 15.844,-0.6875 c 7.8831,0.25034 15.953,1.0662 23.625,1.4062 0.99379,0.005 1.9771,-0.005 2.9688,0 l 0.8125,-0.90625 c -9.0254,0.18269 -18.508,-0.82793 -27.406,-0.5 z m -216.16,0.6875 c -8.7683,-0.4697 -17.433,-1.3022 -26.031,0.21875 8.573,-0.20578 17.132,-0.5544 25.781,-0.15625 0.0823,-0.02 0.16766,-0.0431 0.25,-0.0625 z m -26.02,0.22 c -1.9784,0.0475 -3.9573,0.0728 -5.9375,0.0937 1.0298,0.13155 2.061,0.29251 3.0938,0.5 0.94426,-0.22842 1.8977,-0.4264 2.8438,-0.59375 z m -5.9375,0.0937 c -2.1034,-0.26869 -4.1864,-0.37063 -6.2812,-0.40625 l 0.21875,0.28125 0.125,0.125 c 1.9831,0.0246 3.9561,0.021 5.9375,0 z" />
    </g>
    <g
       id="g5443"
       transform="matrix(1.814273,0,0,-1.3574485,-86.334149,928.75666)">
      <path
         inkscape:connector-curvature="0"
         id="path5445"
         style="opacity:0.3;fill:#e9b96e;stroke:#e9b96e;stroke-width:1.00530005px"
         d="m 121.53,97 c -2.5611,0.015 -5.1435,0.28228 -7.7188,0.59375 1.7034,0.1135 3.3835,0.28282 5.0625,0.5 3.5105,0.335 6.9995,0.17736 10.469,-0.0625 -2.5823,-0.78348 -5.1812,-1.0467 -7.8125,-1.0312 z m 7.8125,1.0312 c 0.0731,0.02218 0.1457,0.03948 0.21875,0.0625 6.6191,-0.39428 13.189,-0.08028 19.75,0.125 -6.588,-1.4811 -13.251,-0.65198 -19.969,-0.1875 z m 19.969,0.1875 c 0.76572,0.17214 1.517,0.38579 2.2812,0.625 0.78001,-0.2028 1.601,-0.36693 2.4375,-0.5 -1.5716,-0.02122 -3.1486,-0.07587 -4.7188,-0.125 z m 4.7188,0.125 c 3.4345,0.04638 6.8568,0.01971 10.312,-0.25 4.0254,-0.16438 7.8746,0.26928 11.812,0.1875 -7.3252,-0.06539 -15.524,-0.98759 -22.125,0.0625 z m -40.219,-0.75 c -5.5373,-0.36895 -11.157,-0.22053 -16.656,0.3125 2.1466,0.11891 4.2945,0.28272 6.4688,0.5625 3.3707,-0.0069 6.7769,-0.4625 10.188,-0.875 z m -16.656,0.3125 c -5.8973,-0.32667 -11.721,-0.14096 -17.594,0.1875 3.2083,0.26756 6.4114,0.59794 9.625,0.84375 2.5987,-0.4233 5.2807,-0.77073 7.9688,-1.0312 z m -17.594,0.1875 c -6.0936,-0.50818 -12.164,-0.76964 -18.094,0.21875 -0.71095,0.05396 -1.4159,0.08499 -2.125,0.125 4.6959,0.52976 9.3558,0.90986 13.844,0.0625 2.1377,-0.13108 4.258,-0.28784 6.375,-0.40625 z m -20.216,0.344 c -6.6919,-0.75494 -13.497,-1.8294 -20.156,-0.125 -0.22123,0.031 -0.43484,0.03629 -0.65625,0.0625 6.9554,0.21211 13.85,0.45543 20.812,0.0625 z m -20.813,-0.063 c -3.582,-0.109 -7.17,-0.219 -10.812,-0.219 -1.39,-0.131 -2.789,-0.145 -4.188,-0.156 5.0466,0.41006 10.05,0.96097 15,0.375 z m -15,-0.375 c -4.711,-0.383 -9.442,-0.632 -14.25,0.375 -7.361,-0.931 -14.779,-0.527 -22.156,-0.187 5.0285,0.086 10.036,0.134 14.938,-0.094 7.1503,0.988 14.348,-0.149 21.468,-0.094 z m -36.406,0.188 c -3.9479,-0.06806 -7.9096,-0.14442 -11.906,-0.15625 0.70234,0.1359 1.4061,0.28886 2.0938,0.46875 3.264,0.0088 6.5346,-0.16171 9.8125,-0.3125 z m -11.906,-0.15625 c -3.781,-0.73162 -7.7645,-0.87023 -11.812,-0.71875 1.9999,0.10798 3.9472,0.36488 5.8438,0.78125 1.9882,-0.04844 3.9878,-0.06836 5.9688,-0.0625 z m -64.031,-0.875 c -2.1803,0.06093 -4.3092,0.40474 -6.4375,0.78125 3.3138,-0.0016 6.5414,0.03183 8.75,0.09375 2.052,-0.03282 4.1064,-0.02686 6.1562,0 -1.2018,-0.1268 -2.4155,-0.29902 -3.625,-0.46875 -1.6418,-0.36473 -3.256,-0.45062 -4.8438,-0.40625 z m -6.438,0.781 c -2.0804,9.91e-4 -4.0258,-0.0154 -5.9688,0 l 0.6875,0.8125 c 1.7624,-0.19752 3.5194,-0.50081 5.2812,-0.8125 z m 55.812,-0.688 c -6.5719,-0.02743 -13.451,0.90132 -19.969,0.5625 -7.0331,0.58331 -13.976,0.31011 -20.906,0.21875 8.4835,0.89276 16.793,0.76937 25.219,0.71875 5.9304,-0.34017 12.158,-1.1928 18.25,-1.4375 -0.85665,-0.04196 -1.724,-0.05887 -2.5938,-0.0625 z m 223.34,0.59375 -4.5,0.25 c -0.95857,0.11186 -1.9019,0.15864 -2.8438,0.1875 2.6015,0.01126 5.09,-0.08244 7.3438,-0.4375 z" />
      <path
         inkscape:connector-curvature="0"
         id="path5447"
         style="opacity:0.3;fill:#e9b96e;stroke:#e9b96e;stroke-width:1.00530005px"
         d="m 135.44,102.34 c -3.3614,0.0183 -6.745,0.33776 -10.125,0.71875 2.2487,0.13743 4.4713,0.32715 6.6875,0.59375 4.5767,0.40617 9.1335,0.22905 13.656,-0.0625 -3.3676,-0.95466 -6.7869,-1.2687 -10.219,-1.25 z m 10.219,1.25 c 0.0835,0.0237 0.16654,0.038 0.25,0.0625 8.5966,-0.47624 17.104,-0.0607 25.625,0.1875 -8.5469,-1.7852 -17.16,-0.81182 -25.875,-0.25 z m 25.875,0.25 c 0.99805,0.20846 2.0039,0.42878 3,0.71875 1.0327,-0.2497 2.064,-0.43544 3.0938,-0.59375 -2.0321,-0.0259 -4.0636,-0.0659 -6.0938,-0.125 z m 6.0938,0.125 c 0.86103,0.011 1.7327,0.0289 2.5938,0.0312 l 0.3125,-0.375 c -0.96662,0.0822 -1.9388,0.19503 -2.9062,0.34375 z m -52.312,-0.90625 c -7.1559,-0.43733 -14.425,-0.23323 -21.531,0.40625 2.785,0.14378 5.5854,0.34993 8.4062,0.6875 4.3488,-0.008 8.7247,-0.59776 13.125,-1.0938 z m -21.531,0.40625 c -7.6608,-0.39551 -15.247,-0.17768 -22.875,0.21875 4.169,0.32338 8.3554,0.73419 12.531,1.0312 3.3856,-0.51288 6.8416,-0.93485 10.344,-1.25 z m -22.875,0.21875 c -7.9214,-0.61444 -15.823,-0.94492 -23.531,0.25 -0.91145,0.0643 -1.8097,0.0771 -2.7188,0.125 6.0944,0.63888 12.113,1.1165 17.938,0.0937 2.7882,-0.159 5.5513,-0.32525 8.3125,-0.46875 z m -26.25,0.375 c -8.7066,-0.91273 -17.554,-2.1874 -26.219,-0.125 -0.27892,0.0363 -0.56461,0.0628 -0.84375,0.0937 9.0521,0.25674 18,0.50899 27.062,0.0312 z m -27.062,-0.0312 c -4.6565,-0.13207 -9.3582,-0.25012 -14.094,-0.25 -1.8613,-0.1639 -3.7203,-0.24013 -5.5938,-0.25 6.6312,0.49691 13.184,1.2198 19.688,0.5 z m -19.688,-0.5 c -6.0626,-0.4543 -12.189,-0.70456 -18.375,0.5 -9.4905,-1.1165 -19.02,-0.62718 -28.531,-0.21875 6.456,0.10224 12.861,0.14792 19.156,-0.125 9.2393,1.1879 18.549,-0.20474 27.75,-0.15625 z m -46.915,0.28 c -5.1543,-0.0816 -10.344,-0.20226 -15.562,-0.21875 0.86323,0.15807 1.7164,0.35666 2.5625,0.5625 4.3198,0.0108 8.6616,-0.15745 13,-0.34375 z m -15.562,-0.21875 c -5.094,-0.93 -10.474,-1.05 -15.938,-0.84 2.7463,0.12108 5.4327,0.37568 8.0312,0.90625 2.6395,-0.0598 5.2767,-0.0708 7.9062,-0.0625 z m -15.938,-0.84 c -8.416,-0.37104 -17.386,0.71865 -25.969,0.65625 l 0.96875,1.0625 c 0.45994,-0.003 0.91456,0.003 1.375,0 7.6718,-0.40925 15.742,-1.4175 23.625,-1.7188 z" />
      <path
         inkscape:connector-curvature="0"
         id="path5449"
         style="opacity:0.3;fill:#e9b96e;stroke:#e9b96e;stroke-width:1.00530005px"
         d="m -50.25,99.875 c -3.4331,-0.0155 -6.85,0.2373 -10.219,1.0312 4.5227,0.24227 9.0796,0.40005 13.656,0.0625 2.2099,-0.22092 4.4452,-0.38584 6.6875,-0.5 -3.38,-0.31659 -6.7636,-0.57854 -10.125,-0.59375 z m 10.125,0.59375 c 4.4003,0.41216 8.8074,0.86812 13.156,0.875 2.7861,-0.27705 5.5302,-0.44277 8.2812,-0.5625 -7.0825,-0.52616 -14.307,-0.67552 -21.438,-0.3125 z m 21.438,0.3125 c 3.5347,0.26259 7.0524,0.60119 10.469,1.0312 4.1681,-0.24639 8.3387,-0.54404 12.5,-0.8125 -7.6626,-0.3309 -15.273,-0.5537 -22.969,-0.21875 z m 22.968,0.22 c 2.7612,0.11924 5.5243,0.24288 8.3125,0.375 5.8218,0.84949 11.846,0.46797 17.938,-0.0625 -0.90909,-0.0398 -1.8073,-0.0715 -2.7188,-0.125 -7.716,-1 -15.601,-0.7 -23.531,-0.19 z m 26.25,0.3125 c 9.0338,0.39574 17.977,0.18166 27,-0.0312 -0.25868,-0.0241 -0.52275,-0.0657 -0.78125,-0.0937 -8.6676,-1.7144 -17.509,-0.66475 -26.219,0.0937 v 0.0312 z m 27,-0.0312 c 6.5358,0.60875 13.147,-0.023 19.812,-0.4375 -1.8944,0.007 -3.7742,0.0498 -5.6562,0.1875 -4.7645,-1.1e-4 -9.4716,0.13947 -14.156,0.25 z m 19.812,-0.4375 c 9.1806,-0.0348 18.469,1.1412 27.688,0.15625 6.3561,0.22899 12.824,0.18041 19.344,0.0937 -9.5658,-0.34047 -19.174,-0.77688 -28.719,0.15625 -6.1731,-0.99882 -12.263,-0.78227 -18.312,-0.40625 z m 47.031,0.25 c 4.2836,0.15247 8.5471,0.29014 12.812,0.28125 0.87553,-0.177 1.7624,-0.33419 2.6562,-0.46875 -5.182,0.0128 -10.35,0.11947 -15.469,0.1875 z m 15.469,-0.1875 c 2.6032,-0.006 5.1996,0.0136 7.8125,0.0625 2.5929,-0.43992 5.2913,-0.64903 8.0312,-0.75 -5.4316,-0.1725 -10.777,-0.0752 -15.844,0.6875 z m 15.844,-0.6875 c 7.8831,0.25034 15.953,1.0662 23.625,1.4062 0.99379,0.005 1.9771,-0.005 2.9688,0 l 0.8125,-0.90625 c -9.0254,0.18269 -18.508,-0.82793 -27.406,-0.5 z m -216.16,0.6875 c -8.7683,-0.4697 -17.433,-1.3022 -26.031,0.21875 8.573,-0.20578 17.132,-0.5544 25.781,-0.15625 0.0823,-0.02 0.16766,-0.0431 0.25,-0.0625 z m -26.02,0.22 c -1.9784,0.0475 -3.9573,0.0728 -5.9375,0.0937 1.0298,0.13155 2.061,0.29251 3.0938,0.5 0.94426,-0.22842 1.8977,-0.4264 2.8438,-0.59375 z m -5.9375,0.0937 c -2.1034,-0.26869 -4.1864,-0.37063 -6.2812,-0.40625 l 0.21875,0.28125 0.125,0.125 c 1.9831,0.0246 3.9561,0.021 5.9375,0 z" />
    </g>
    <g
       id="g5451"
       transform="matrix(0,0.84424517,-1.3872834,0,391.77322,637.95345)">
      <path
         inkscape:connector-curvature="0"
         id="path5453"
         style="opacity:0.3;fill:#e9b96e;stroke:#e9b96e;stroke-width:1.28190005px"
         d="m 121.53,97 c -2.5611,0.015 -5.1435,0.28228 -7.7188,0.59375 1.7034,0.1135 3.3835,0.28282 5.0625,0.5 3.5105,0.335 6.9995,0.17736 10.469,-0.0625 -2.5823,-0.78348 -5.1812,-1.0467 -7.8125,-1.0312 z m 7.8125,1.0312 c 0.0731,0.02218 0.1457,0.03948 0.21875,0.0625 6.6191,-0.39428 13.189,-0.08028 19.75,0.125 -6.588,-1.4811 -13.251,-0.65198 -19.969,-0.1875 z m 19.969,0.1875 c 0.76572,0.17214 1.517,0.38579 2.2812,0.625 0.78001,-0.2028 1.601,-0.36693 2.4375,-0.5 -1.5716,-0.02122 -3.1486,-0.07587 -4.7188,-0.125 z m 4.7188,0.125 c 3.4345,0.04638 6.8568,0.01971 10.312,-0.25 4.0254,-0.16438 7.8746,0.26928 11.812,0.1875 -7.3252,-0.06539 -15.524,-0.98759 -22.125,0.0625 z m -40.219,-0.75 c -5.5373,-0.36895 -11.157,-0.22053 -16.656,0.3125 2.1466,0.11891 4.2945,0.28272 6.4688,0.5625 3.3707,-0.0069 6.7769,-0.4625 10.188,-0.875 z m -16.656,0.3125 c -5.8973,-0.32667 -11.721,-0.14096 -17.594,0.1875 3.2083,0.26756 6.4114,0.59794 9.625,0.84375 2.5987,-0.4233 5.2807,-0.77073 7.9688,-1.0312 z m -17.594,0.1875 c -6.0936,-0.50818 -12.164,-0.76964 -18.094,0.21875 -0.71095,0.05396 -1.4159,0.08499 -2.125,0.125 4.6959,0.52976 9.3558,0.90986 13.844,0.0625 2.1377,-0.13108 4.258,-0.28784 6.375,-0.40625 z m -20.216,0.344 c -6.6919,-0.75494 -13.497,-1.8294 -20.156,-0.125 -0.22123,0.031 -0.43484,0.03629 -0.65625,0.0625 6.9554,0.21211 13.85,0.45543 20.812,0.0625 z m -20.813,-0.063 c -3.582,-0.109 -7.17,-0.219 -10.812,-0.219 -1.39,-0.131 -2.789,-0.145 -4.188,-0.156 5.0466,0.41006 10.05,0.96097 15,0.375 z m -15,-0.375 c -4.711,-0.383 -9.442,-0.632 -14.25,0.375 -7.361,-0.931 -14.779,-0.527 -22.156,-0.187 5.0285,0.086 10.036,0.134 14.938,-0.094 7.1503,0.988 14.348,-0.149 21.468,-0.094 z m -36.406,0.188 c -3.9479,-0.06806 -7.9096,-0.14442 -11.906,-0.15625 0.70234,0.1359 1.4061,0.28886 2.0938,0.46875 3.264,0.0088 6.5346,-0.16171 9.8125,-0.3125 z m -11.906,-0.15625 c -3.781,-0.73162 -7.7645,-0.87023 -11.812,-0.71875 1.9999,0.10798 3.9472,0.36488 5.8438,0.78125 1.9882,-0.04844 3.9878,-0.06836 5.9688,-0.0625 z m -64.031,-0.875 c -2.1803,0.06093 -4.3092,0.40474 -6.4375,0.78125 3.3138,-0.0016 6.5414,0.03183 8.75,0.09375 2.052,-0.03282 4.1064,-0.02686 6.1562,0 -1.2018,-0.1268 -2.4155,-0.29902 -3.625,-0.46875 -1.6418,-0.36473 -3.256,-0.45062 -4.8438,-0.40625 z m -6.438,0.781 c -2.0804,9.91e-4 -4.0258,-0.0154 -5.9688,0 l 0.6875,0.8125 c 1.7624,-0.19752 3.5194,-0.50081 5.2812,-0.8125 z m 55.812,-0.688 c -6.5719,-0.02743 -13.451,0.90132 -19.969,0.5625 -7.0331,0.58331 -13.976,0.31011 -20.906,0.21875 8.4835,0.89276 16.793,0.76937 25.219,0.71875 5.9304,-0.34017 12.158,-1.1928 18.25,-1.4375 -0.85665,-0.04196 -1.724,-0.05887 -2.5938,-0.0625 z m 223.34,0.59375 -4.5,0.25 c -0.95857,0.11186 -1.9019,0.15864 -2.8438,0.1875 2.6015,0.01126 5.09,-0.08244 7.3438,-0.4375 z" />
      <path
         inkscape:connector-curvature="0"
         id="path5455"
         style="opacity:0.3;fill:#e9b96e;stroke:#e9b96e;stroke-width:1.28190005px"
         d="m 135.44,102.34 c -3.3614,0.0183 -6.745,0.33776 -10.125,0.71875 2.2487,0.13743 4.4713,0.32715 6.6875,0.59375 4.5767,0.40617 9.1335,0.22905 13.656,-0.0625 -3.3676,-0.95466 -6.7869,-1.2687 -10.219,-1.25 z m 10.219,1.25 c 0.0835,0.0237 0.16654,0.038 0.25,0.0625 8.5966,-0.47624 17.104,-0.0607 25.625,0.1875 -8.5469,-1.7852 -17.16,-0.81182 -25.875,-0.25 z m 25.875,0.25 c 0.99805,0.20846 2.0039,0.42878 3,0.71875 1.0327,-0.2497 2.064,-0.43544 3.0938,-0.59375 -2.0321,-0.0259 -4.0636,-0.0659 -6.0938,-0.125 z m 6.0938,0.125 c 0.86103,0.011 1.7327,0.0289 2.5938,0.0312 l 0.3125,-0.375 c -0.96662,0.0822 -1.9388,0.19503 -2.9062,0.34375 z m -52.312,-0.90625 c -7.1559,-0.43733 -14.425,-0.23323 -21.531,0.40625 2.785,0.14378 5.5854,0.34993 8.4062,0.6875 4.3488,-0.008 8.7247,-0.59776 13.125,-1.0938 z m -21.531,0.40625 c -7.6608,-0.39551 -15.247,-0.17768 -22.875,0.21875 4.169,0.32338 8.3554,0.73419 12.531,1.0312 3.3856,-0.51288 6.8416,-0.93485 10.344,-1.25 z m -22.875,0.21875 c -7.9214,-0.61444 -15.823,-0.94492 -23.531,0.25 -0.91145,0.0643 -1.8097,0.0771 -2.7188,0.125 6.0944,0.63888 12.113,1.1165 17.938,0.0937 2.7882,-0.159 5.5513,-0.32525 8.3125,-0.46875 z m -26.25,0.375 c -8.7066,-0.91273 -17.554,-2.1874 -26.219,-0.125 -0.27892,0.0363 -0.56461,0.0628 -0.84375,0.0937 9.0521,0.25674 18,0.50899 27.062,0.0312 z m -27.062,-0.0312 c -4.6565,-0.13207 -9.3582,-0.25012 -14.094,-0.25 -1.8613,-0.1639 -3.7203,-0.24013 -5.5938,-0.25 6.6312,0.49691 13.184,1.2198 19.688,0.5 z m -19.688,-0.5 c -6.0626,-0.4543 -12.189,-0.70456 -18.375,0.5 -9.4905,-1.1165 -19.02,-0.62718 -28.531,-0.21875 6.456,0.10224 12.861,0.14792 19.156,-0.125 9.2393,1.1879 18.549,-0.20474 27.75,-0.15625 z m -46.915,0.28 c -5.1543,-0.0816 -10.344,-0.20226 -15.562,-0.21875 0.86323,0.15807 1.7164,0.35666 2.5625,0.5625 4.3198,0.0108 8.6616,-0.15745 13,-0.34375 z m -15.562,-0.21875 c -5.094,-0.93 -10.474,-1.05 -15.938,-0.84 2.7463,0.12108 5.4327,0.37568 8.0312,0.90625 2.6395,-0.0598 5.2767,-0.0708 7.9062,-0.0625 z m -15.938,-0.84 c -8.416,-0.37104 -17.386,0.71865 -25.969,0.65625 l 0.96875,1.0625 c 0.45994,-0.003 0.91456,0.003 1.375,0 7.6718,-0.40925 15.742,-1.4175 23.625,-1.7188 z" />
      <path
         inkscape:connector-curvature="0"
         id="path5457"
         style="opacity:0.3;fill:#e9b96e;stroke:#e9b96e;stroke-width:1.28190005px"
         d="m -50.25,99.875 c -3.4331,-0.0155 -6.85,0.2373 -10.219,1.0312 4.5227,0.24227 9.0796,0.40005 13.656,0.0625 2.2099,-0.22092 4.4452,-0.38584 6.6875,-0.5 -3.38,-0.31659 -6.7636,-0.57854 -10.125,-0.59375 z m 10.125,0.59375 c 4.4003,0.41216 8.8074,0.86812 13.156,0.875 2.7861,-0.27705 5.5302,-0.44277 8.2812,-0.5625 -7.0825,-0.52616 -14.307,-0.67552 -21.438,-0.3125 z m 21.438,0.3125 c 3.5347,0.26259 7.0524,0.60119 10.469,1.0312 4.1681,-0.24639 8.3387,-0.54404 12.5,-0.8125 -7.6626,-0.3309 -15.273,-0.5537 -22.969,-0.21875 z m 22.968,0.22 c 2.7612,0.11924 5.5243,0.24288 8.3125,0.375 5.8218,0.84949 11.846,0.46797 17.938,-0.0625 -0.90909,-0.0398 -1.8073,-0.0715 -2.7188,-0.125 -7.716,-1 -15.601,-0.7 -23.531,-0.19 z m 26.25,0.3125 c 9.0338,0.39574 17.977,0.18166 27,-0.0312 -0.25868,-0.0241 -0.52275,-0.0657 -0.78125,-0.0937 -8.6676,-1.7144 -17.509,-0.66475 -26.219,0.0937 v 0.0312 z m 27,-0.0312 c 6.5358,0.60875 13.147,-0.023 19.812,-0.4375 -1.8944,0.007 -3.7742,0.0498 -5.6562,0.1875 -4.7645,-1.1e-4 -9.4716,0.13947 -14.156,0.25 z m 19.812,-0.4375 c 9.1806,-0.0348 18.469,1.1412 27.688,0.15625 6.3561,0.22899 12.824,0.18041 19.344,0.0937 -9.5658,-0.34047 -19.174,-0.77688 -28.719,0.15625 -6.1731,-0.99882 -12.263,-0.78227 -18.312,-0.40625 z m 47.031,0.25 c 4.2836,0.15247 8.5471,0.29014 12.812,0.28125 0.87553,-0.177 1.7624,-0.33419 2.6562,-0.46875 -5.182,0.0128 -10.35,0.11947 -15.469,0.1875 z m 15.469,-0.1875 c 2.6032,-0.006 5.1996,0.0136 7.8125,0.0625 2.5929,-0.43992 5.2913,-0.64903 8.0312,-0.75 -5.4316,-0.1725 -10.777,-0.0752 -15.844,0.6875 z m 15.844,-0.6875 c 7.8831,0.25034 15.953,1.0662 23.625,1.4062 0.99379,0.005 1.9771,-0.005 2.9688,0 l 0.8125,-0.90625 c -9.0254,0.18269 -18.508,-0.82793 -27.406,-0.5 z m -216.16,0.6875 c -8.7683,-0.4697 -17.433,-1.3022 -26.031,0.21875 8.573,-0.20578 17.132,-0.5544 25.781,-0.15625 0.0823,-0.02 0.16766,-0.0431 0.25,-0.0625 z m -26.02,0.22 c -1.9784,0.0475 -3.9573,0.0728 -5.9375,0.0937 1.0298,0.13155 2.061,0.29251 3.0938,0.5 0.94426,-0.22842 1.8977,-0.4264 2.8438,-0.59375 z m -5.9375,0.0937 c -2.1034,-0.26869 -4.1864,-0.37063 -6.2812,-0.40625 l 0.21875,0.28125 0.125,0.125 c 1.9831,0.0246 3.9561,0.021 5.9375,0 z" />
    </g>
    <g
       id="g5459"
       transform="matrix(0,0.84424517,1.3872834,0,-410.48826,635.87252)">
      <path
         inkscape:connector-curvature="0"
         id="path5461"
         style="opacity:0.3;fill:#e9b96e;stroke:#e9b96e;stroke-width:1.28190005px"
         d="m 121.53,97 c -2.5611,0.015 -5.1435,0.28228 -7.7188,0.59375 1.7034,0.1135 3.3835,0.28282 5.0625,0.5 3.5105,0.335 6.9995,0.17736 10.469,-0.0625 -2.5823,-0.78348 -5.1812,-1.0467 -7.8125,-1.0312 z m 7.8125,1.0312 c 0.0731,0.02218 0.1457,0.03948 0.21875,0.0625 6.6191,-0.39428 13.189,-0.08028 19.75,0.125 -6.588,-1.4811 -13.251,-0.65198 -19.969,-0.1875 z m 19.969,0.1875 c 0.76572,0.17214 1.517,0.38579 2.2812,0.625 0.78001,-0.2028 1.601,-0.36693 2.4375,-0.5 -1.5716,-0.02122 -3.1486,-0.07587 -4.7188,-0.125 z m 4.7188,0.125 c 3.4345,0.04638 6.8568,0.01971 10.312,-0.25 4.0254,-0.16438 7.8746,0.26928 11.812,0.1875 -7.3252,-0.06539 -15.524,-0.98759 -22.125,0.0625 z m -40.219,-0.75 c -5.5373,-0.36895 -11.157,-0.22053 -16.656,0.3125 2.1466,0.11891 4.2945,0.28272 6.4688,0.5625 3.3707,-0.0069 6.7769,-0.4625 10.188,-0.875 z m -16.656,0.3125 c -5.8973,-0.32667 -11.721,-0.14096 -17.594,0.1875 3.2083,0.26756 6.4114,0.59794 9.625,0.84375 2.5987,-0.4233 5.2807,-0.77073 7.9688,-1.0312 z m -17.594,0.1875 c -6.0936,-0.50818 -12.164,-0.76964 -18.094,0.21875 -0.71095,0.05396 -1.4159,0.08499 -2.125,0.125 4.6959,0.52976 9.3558,0.90986 13.844,0.0625 2.1377,-0.13108 4.258,-0.28784 6.375,-0.40625 z m -20.216,0.344 c -6.6919,-0.75494 -13.497,-1.8294 -20.156,-0.125 -0.22123,0.031 -0.43484,0.03629 -0.65625,0.0625 6.9554,0.21211 13.85,0.45543 20.812,0.0625 z m -20.813,-0.063 c -3.582,-0.109 -7.17,-0.219 -10.812,-0.219 -1.39,-0.131 -2.789,-0.145 -4.188,-0.156 5.0466,0.41006 10.05,0.96097 15,0.375 z m -15,-0.375 c -4.711,-0.383 -9.442,-0.632 -14.25,0.375 -7.361,-0.931 -14.779,-0.527 -22.156,-0.187 5.0285,0.086 10.036,0.134 14.938,-0.094 7.1503,0.988 14.348,-0.149 21.468,-0.094 z m -36.406,0.188 c -3.9479,-0.06806 -7.9096,-0.14442 -11.906,-0.15625 0.70234,0.1359 1.4061,0.28886 2.0938,0.46875 3.264,0.0088 6.5346,-0.16171 9.8125,-0.3125 z m -11.906,-0.15625 c -3.781,-0.73162 -7.7645,-0.87023 -11.812,-0.71875 1.9999,0.10798 3.9472,0.36488 5.8438,0.78125 1.9882,-0.04844 3.9878,-0.06836 5.9688,-0.0625 z m -64.031,-0.875 c -2.1803,0.06093 -4.3092,0.40474 -6.4375,0.78125 3.3138,-0.0016 6.5414,0.03183 8.75,0.09375 2.052,-0.03282 4.1064,-0.02686 6.1562,0 -1.2018,-0.1268 -2.4155,-0.29902 -3.625,-0.46875 -1.6418,-0.36473 -3.256,-0.45062 -4.8438,-0.40625 z m -6.438,0.781 c -2.0804,9.91e-4 -4.0258,-0.0154 -5.9688,0 l 0.6875,0.8125 c 1.7624,-0.19752 3.5194,-0.50081 5.2812,-0.8125 z m 55.812,-0.688 c -6.5719,-0.02743 -13.451,0.90132 -19.969,0.5625 -7.0331,0.58331 -13.976,0.31011 -20.906,0.21875 8.4835,0.89276 16.793,0.76937 25.219,0.71875 5.9304,-0.34017 12.158,-1.1928 18.25,-1.4375 -0.85665,-0.04196 -1.724,-0.05887 -2.5938,-0.0625 z m 223.34,0.59375 -4.5,0.25 c -0.95857,0.11186 -1.9019,0.15864 -2.8438,0.1875 2.6015,0.01126 5.09,-0.08244 7.3438,-0.4375 z" />
      <path
         inkscape:connector-curvature="0"
         id="path5463"
         style="opacity:0.3;fill:#e9b96e;stroke:#e9b96e;stroke-width:1.28190005px"
         d="m 135.44,102.34 c -3.3614,0.0183 -6.745,0.33776 -10.125,0.71875 2.2487,0.13743 4.4713,0.32715 6.6875,0.59375 4.5767,0.40617 9.1335,0.22905 13.656,-0.0625 -3.3676,-0.95466 -6.7869,-1.2687 -10.219,-1.25 z m 10.219,1.25 c 0.0835,0.0237 0.16654,0.038 0.25,0.0625 8.5966,-0.47624 17.104,-0.0607 25.625,0.1875 -8.5469,-1.7852 -17.16,-0.81182 -25.875,-0.25 z m 25.875,0.25 c 0.99805,0.20846 2.0039,0.42878 3,0.71875 1.0327,-0.2497 2.064,-0.43544 3.0938,-0.59375 -2.0321,-0.0259 -4.0636,-0.0659 -6.0938,-0.125 z m 6.0938,0.125 c 0.86103,0.011 1.7327,0.0289 2.5938,0.0312 l 0.3125,-0.375 c -0.96662,0.0822 -1.9388,0.19503 -2.9062,0.34375 z m -52.312,-0.90625 c -7.1559,-0.43733 -14.425,-0.23323 -21.531,0.40625 2.785,0.14378 5.5854,0.34993 8.4062,0.6875 4.3488,-0.008 8.7247,-0.59776 13.125,-1.0938 z m -21.531,0.40625 c -7.6608,-0.39551 -15.247,-0.17768 -22.875,0.21875 4.169,0.32338 8.3554,0.73419 12.531,1.0312 3.3856,-0.51288 6.8416,-0.93485 10.344,-1.25 z m -22.875,0.21875 c -7.9214,-0.61444 -15.823,-0.94492 -23.531,0.25 -0.91145,0.0643 -1.8097,0.0771 -2.7188,0.125 6.0944,0.63888 12.113,1.1165 17.938,0.0937 2.7882,-0.159 5.5513,-0.32525 8.3125,-0.46875 z m -26.25,0.375 c -8.7066,-0.91273 -17.554,-2.1874 -26.219,-0.125 -0.27892,0.0363 -0.56461,0.0628 -0.84375,0.0937 9.0521,0.25674 18,0.50899 27.062,0.0312 z m -27.062,-0.0312 c -4.6565,-0.13207 -9.3582,-0.25012 -14.094,-0.25 -1.8613,-0.1639 -3.7203,-0.24013 -5.5938,-0.25 6.6312,0.49691 13.184,1.2198 19.688,0.5 z m -19.688,-0.5 c -6.0626,-0.4543 -12.189,-0.70456 -18.375,0.5 -9.4905,-1.1165 -19.02,-0.62718 -28.531,-0.21875 6.456,0.10224 12.861,0.14792 19.156,-0.125 9.2393,1.1879 18.549,-0.20474 27.75,-0.15625 z m -46.915,0.28 c -5.1543,-0.0816 -10.344,-0.20226 -15.562,-0.21875 0.86323,0.15807 1.7164,0.35666 2.5625,0.5625 4.3198,0.0108 8.6616,-0.15745 13,-0.34375 z m -15.562,-0.21875 c -5.094,-0.93 -10.474,-1.05 -15.938,-0.84 2.7463,0.12108 5.4327,0.37568 8.0312,0.90625 2.6395,-0.0598 5.2767,-0.0708 7.9062,-0.0625 z m -15.938,-0.84 c -8.416,-0.37104 -17.386,0.71865 -25.969,0.65625 l 0.96875,1.0625 c 0.45994,-0.003 0.91456,0.003 1.375,0 7.6718,-0.40925 15.742,-1.4175 23.625,-1.7188 z" />
      <path
         inkscape:connector-curvature="0"
         id="path5465"
         style="opacity:0.3;fill:#e9b96e;stroke:#e9b96e;stroke-width:1.28190005px"
         d="m -50.25,99.875 c -3.4331,-0.0155 -6.85,0.2373 -10.219,1.0312 4.5227,0.24227 9.0796,0.40005 13.656,0.0625 2.2099,-0.22092 4.4452,-0.38584 6.6875,-0.5 -3.38,-0.31659 -6.7636,-0.57854 -10.125,-0.59375 z m 10.125,0.59375 c 4.4003,0.41216 8.8074,0.86812 13.156,0.875 2.7861,-0.27705 5.5302,-0.44277 8.2812,-0.5625 -7.0825,-0.52616 -14.307,-0.67552 -21.438,-0.3125 z m 21.438,0.3125 c 3.5347,0.26259 7.0524,0.60119 10.469,1.0312 4.1681,-0.24639 8.3387,-0.54404 12.5,-0.8125 -7.6626,-0.3309 -15.273,-0.5537 -22.969,-0.21875 z m 22.968,0.22 c 2.7612,0.11924 5.5243,0.24288 8.3125,0.375 5.8218,0.84949 11.846,0.46797 17.938,-0.0625 -0.90909,-0.0398 -1.8073,-0.0715 -2.7188,-0.125 -7.716,-1 -15.601,-0.7 -23.531,-0.19 z m 26.25,0.3125 c 9.0338,0.39574 17.977,0.18166 27,-0.0312 -0.25868,-0.0241 -0.52275,-0.0657 -0.78125,-0.0937 -8.6676,-1.7144 -17.509,-0.66475 -26.219,0.0937 v 0.0312 z m 27,-0.0312 c 6.5358,0.60875 13.147,-0.023 19.812,-0.4375 -1.8944,0.007 -3.7742,0.0498 -5.6562,0.1875 -4.7645,-1.1e-4 -9.4716,0.13947 -14.156,0.25 z m 19.812,-0.4375 c 9.1806,-0.0348 18.469,1.1412 27.688,0.15625 6.3561,0.22899 12.824,0.18041 19.344,0.0937 -9.5658,-0.34047 -19.174,-0.77688 -28.719,0.15625 -6.1731,-0.99882 -12.263,-0.78227 -18.312,-0.40625 z m 47.031,0.25 c 4.2836,0.15247 8.5471,0.29014 12.812,0.28125 0.87553,-0.177 1.7624,-0.33419 2.6562,-0.46875 -5.182,0.0128 -10.35,0.11947 -15.469,0.1875 z m 15.469,-0.1875 c 2.6032,-0.006 5.1996,0.0136 7.8125,0.0625 2.5929,-0.43992 5.2913,-0.64903 8.0312,-0.75 -5.4316,-0.1725 -10.777,-0.0752 -15.844,0.6875 z m 15.844,-0.6875 c 7.8831,0.25034 15.953,1.0662 23.625,1.4062 0.99379,0.005 1.9771,-0.005 2.9688,0 l 0.8125,-0.90625 c -9.0254,0.18269 -18.508,-0.82793 -27.406,-0.5 z m -216.16,0.6875 c -8.7683,-0.4697 -17.433,-1.3022 -26.031,0.21875 8.573,-0.20578 17.132,-0.5544 25.781,-0.15625 0.0823,-0.02 0.16766,-0.0431 0.25,-0.0625 z m -26.02,0.22 c -1.9784,0.0475 -3.9573,0.0728 -5.9375,0.0937 1.0298,0.13155 2.061,0.29251 3.0938,0.5 0.94426,-0.22842 1.8977,-0.4264 2.8438,-0.59375 z m -5.9375,0.0937 c -2.1034,-0.26869 -4.1864,-0.37063 -6.2812,-0.40625 l 0.21875,0.28125 0.125,0.125 c 1.9831,0.0246 3.9561,0.021 5.9375,0 z" />
    </g>
    <path
       inkscape:connector-curvature="0"
       id="rect5541"
       style="fill:#925b03;stroke-width:0.33432946"
       d="m -274.89518,798.83671 v 10.31711 h 532.35655 v -10.31711 z" />
    <path
       inkscape:connector-curvature="0"
       id="path5543"
       style="opacity:0.3;fill:#e9b96e;stroke:#e9b96e;stroke-width:1.36151755px"
       d="m 250.7168,800.36162 c -3.3365,0.0217 -6.74482,0.13383 -10.16635,0.32247 -3.62156,0.12614 -7.13429,0.20905 -10.7311,0.30099 5.95614,-0.0204 11.82857,-0.0237 17.79097,0 2.41539,-0.0171 5.56033,-0.0347 8.69775,-0.043 v -0.53749 c -0.75592,-0.0113 -1.55644,-0.0377 -2.31553,-0.043 -1.10299,-0.008 -2.16359,-0.008 -3.27574,0 z m -20.89729,0.62346 c -19.02528,0.0652 -38.13121,0.24697 -57.44041,-0.15048 -20.55117,0.26515 -42.45947,-0.59668 -62.86219,-0.344 16.95665,0.16757 34.32506,0.77545 50.83191,1.01045 23.18318,0.0347 46.13737,0.0805 69.46889,-0.51597 z m -129.28132,-0.51597 c -8.373572,0.007 -16.61339,0.1348 -24.512893,0.51597 5.549501,-0.005 11.091314,0.009 16.661343,0.0431 5.253539,-0.28629 10.67041,-0.46271 16.20952,-0.53751 -2.81964,-0.0261 -5.56783,-0.0237 -8.35888,-0.0214 z m -24.512893,0.51597 c -11.118896,0.008 -22.227059,0.0822 -33.209649,0.12898 9.171929,0.10485 18.373243,0.19963 27.505888,0.19351 1.882742,-0.12226 3.781968,-0.22971 5.704463,-0.32249 z m -33.209649,0.12898 c -20.435688,-0.23366 -40.8896979,-0.53272 -61.279617,0.10746 -13.182744,-0.68501 -26.220056,-0.51564 -39.140476,-0.25797 19.624295,-0.0237 39.541605,0.76216 59.2464827,0.086 13.5640813,0.15697 27.2604233,0.12377 41.1736103,0.0645 z m -100.420093,-0.15048 c -4.051421,0.005 -8.118228,0.0344 -12.143093,0.12898 -10.129562,-6e-5 -20.142634,0.0536 -30.103139,0.12899 13.936282,0.41086 28.035211,0.0254 42.246964,-0.25797 z m -42.24696,0.25797 c -0.603655,-0.0177 -1.204185,0 -1.807335,-0.0214 -18.474,-1.17347 -37.35096,-0.45604 -55.91472,0.0645 19.31106,0.26924 38.43163,0.103 57.722555,-0.043 z m -57.722545,0.0431 c -1.99833,-0.0277 -3.98329,-0.0483 -5.98674,-0.086 -16.45095,-0.68059 -33.19313,-0.47843 -50.0974,-0.12899 5.85284,0.0813 11.76834,0.16804 17.67815,0.25797 12.50008,0.58581 25.32619,0.3237 38.40599,-0.0431 z m -56.08323,-0.21498 c -16.43428,-0.22844 -32.74437,-0.38132 -49.24934,-0.15051 7.5583,0.1803 15.00432,0.41411 22.30947,0.70948 8.95657,-0.17007 17.99887,-0.37418 26.93987,-0.55897 z m -49.24934,-0.15051 c -3.4783,-0.083 -6.99506,-0.13904 -10.50523,-0.19348 v 0.38695 c 3.51201,-0.0823 7.00935,-0.14459 10.50523,-0.19347 z m 38.29243,2.08545 c -6.1047,0.0423 -12.11489,0.29705 -18.07341,0.55897 9.25109,0 18.29174,0.0217 24.45615,0.0645 5.93344,-0.0237 11.80735,-0.0197 17.73456,0 -3.57024,-0.0916 -7.08005,-0.19729 -10.67465,-0.32249 -4.56192,-0.25156 -9.03039,-0.33159 -13.4421,-0.301 z m 24.1173,0.62345 c 23.36084,0.59869 46.31688,0.55059 69.52569,0.51598 16.50717,-0.235 33.874497,-0.84285 50.831895,-1.01045 -20.402725,-0.25268 -42.311075,0.60915 -62.862155,0.34402 -19.33671,0.39803 -38.44263,0.21538 -57.49543,0.15045 z m -42.19017,-0.0644 c -12.52591,0 -23.40846,0.0308 -30.72405,0.0644 v 0.51598 c 10.41932,0.38445 20.5291,-0.13233 30.72405,-0.58046 z m 171.641882,-0.47298 c -2.802417,3e-5 -5.637995,0.0168 -8.471922,0.043 5.539093,0.0748 10.956187,0.25121 16.209536,0.53751 5.598979,-0.0338 11.252547,-0.0476 16.830831,-0.0431 -7.934517,-0.38631 -16.161366,-0.53763 -24.567894,-0.53744 z m 24.567878,0.53743 c 1.867931,0.0909 3.704537,0.18214 5.535058,0.301 9.385899,0.007 18.756116,-0.0852 28.183573,-0.19351 -11.182017,-0.0468 -22.393722,-0.0983 -33.718799,-0.10746 z m 33.718798,0.10746 c 13.67691662,0.0573 27.269583,0.0898 40.609497,-0.0645 19.723131,0.67681 39.547097,-0.0898 59.189656,-0.0645 -12.94039,-0.25847 -25.992879,-0.42817 -39.197222,0.25798 -20.137132,-0.63226 -40.4189959,-0.36095 -60.601931,-0.129 z m 99.799153,-0.12898 c 14.217079,0.28394 28.304459,0.6721 42.246989,0.25797 -9.98982,-0.0756 -20.05659,-0.15055 -30.216725,-0.15049 -4.006738,-0.0941 -7.997147,-0.10223 -12.03003,-0.10745 z m 42.246989,0.25797 c 19.28907,0.1461 38.41145,0.31349 57.72252,0.0431 -18.58575,-0.52065 -37.47552,-1.26093 -55.97149,-0.086 -0.57709,0.0197 -1.1733,0.0261 -1.75082,0.043 z m 57.72252,0.0431 c 13.05707,0.36572 25.98378,0.60626 38.46281,0.0214 5.96767,-0.0908 11.88116,-0.15456 17.79094,-0.2365 -16.96309,-0.35168 -33.87266,-0.55392 -50.37945,0.12901 -1.97566,0.0372 -3.90343,0.0584 -5.87393,0.086 z m 56.25357,-0.21501 c 4.34137,0.0899 8.69047,0.18314 13.04681,0.27947 v -0.42996 c -4.3388,0.043 -8.69443,0.0902 -13.04681,0.15049 z m -71.95441,1.26841 c -11.21997,-0.005 -22.25455,0.10365 -32.81401,0.42995 7.23355,-0.003 14.48433,-0.007 21.74536,0.0214 7.20473,-0.25097 14.75245,-0.37236 22.36621,-0.42994 -3.77321,-0.0248 -7.55588,-0.0197 -11.29596,-0.0214 z m 11.29591,0.0214 c 21.90468,0.14282 44.31124,0.62288 65.62975,0.81694 2.69604,0.003 5.38618,-0.003 8.0765,0 v -0.51598 c -24.3426,0.0591 -49.77688,-0.48207 -73.70554,-0.30096 z m -44.10972,0.40845 c -14.39916,0.008 -28.70195,0.0687 -42.92469,0.10757 11.9028,0.087 23.72903,0.15556 35.58165,0.15048 2.43275,-0.10104 4.85857,-0.18124 7.34227,-0.25801 z m -42.92469,0.10757 c -26.580851,-0.19428 -53.339379,-0.44644 -79.861635,0.086 -17.1530422,-0.5699 -34.021034,-0.45101 -50.831888,-0.23647 25.5093388,-0.0197 51.366714,0.6479 76.982303,0.086 17.661489,0.13062 35.596259,0.11401 53.71122,0.0644 z m -130.693523,-0.15049 c -5.263984,0.004 -10.471734,0.029 -15.701262,0.10746 -13.238789,-8e-5 -26.348259,0.0874 -39.365781,0.15051 18.160974,0.3473 36.546872,-0.0214 55.066676,-0.25797 z m -55.066674,0.25797 c -0.718792,-0.0137 -1.484405,-0.0485 -2.202741,-0.0645 -24.084332,-0.97811 -48.657732,-0.3682 -72.859292,0.0645 25.10273,0.22577 49.98933,0.12139 75.060935,0 z m -75.060933,0 c -2.52602,-0.0227 -4.97915,-0.034 -7.51176,-0.0645 -21.44128,-0.56706 -43.36977,-0.39936 -65.40265,-0.10746 7.67259,0.068 15.4091,0.13959 23.15569,0.21498 16.17694,0.48467 32.83229,0.25964 49.75855,-0.043 z m -72.91423,-0.17201 c -11.78646,-0.10452 -23.47989,-0.19177 -35.24273,-0.21498 v 0.66646 c 0.17675,0.005 0.33176,0.0171 0.50831,0.0214 11.5817,-0.14058 23.17218,-0.31981 34.73538,-0.47297 z m 46.87736,1.3329 c -23.58063,-0.009 -48.36099,0.64044 -71.72916,0.40845 -3.49349,0.0554 -6.91337,0.0724 -10.39222,0.10746 v 0.559 c 8.68055,0.003 17.3131,-0.0113 26.03688,-0.0214 21.45592,-0.235 44.04014,-0.82138 66.08036,-0.98895 -3.31419,-0.0314 -6.6282,-0.0633 -9.99695,-0.0645 z m 21.80028,0.0214 c -3.62868,-0.003 -7.28868,0.0171 -10.95711,0.0431 7.20845,0.0746 14.23044,0.25085 21.06761,0.53747 7.24728,-0.0337 14.46746,-0.0474 21.68854,-0.0431 -10.27517,-0.38211 -20.91192,-0.53121 -31.7974,-0.53746 z m 31.7974,0.53746 c 2.48573,0.0924 4.96395,0.17937 7.39876,0.301 11.859,0.007 23.78578,-0.0672 35.695153,-0.17202 -14.255173,-0.0468 -28.661623,-0.12029 -43.093183,-0.12898 z m 43.093173,0.12898 c 18.096868,0.0594 36.012036,0.0926 53.656291,-0.0645 25.586268,0.67547 51.443677,-0.12953 76.925568,-0.10757 -16.79016,-0.25757 -33.7573148,-0.40541 -50.88869,0.27953 -26.531418,-0.63764 -53.134268,-0.33403 -79.707819,-0.10126 z m 130.579986,-0.17213 c 18.475849,0.28345 36.781323,0.6905 54.89817,0.2795 -12.938384,-0.0754 -25.925145,-0.15055 -39.083718,-0.15052 -5.258266,-0.0952 -10.521181,-0.12443 -15.814217,-0.12898 z m 54.89817,0.2795 c 25.080751,0.14603 49.954491,0.29074 75.060891,0.0214 -24.11909,-0.52046 -48.74563,-1.23742 -72.745693,-0.0645 -0.783334,0.0208 -1.531697,0.025 -2.315565,0.0431 z m 75.060891,0.0214 c 17.01346,0.36715 33.83789,0.6292 50.09741,0.0431 7.74731,-0.0907 15.37139,-0.15462 23.04395,-0.2365 -22.04024,-0.35145 -43.9559,-0.57515 -65.40264,0.10757 -2.60569,0.0377 -5.13904,0.0581 -7.73762,0.086 z m 73.14136,-0.19348 c 5.72716,0.0912 11.4892,0.18181 17.2263,0.27946 v -0.42999 c -5.73138,0.0436 -11.47322,0.0891 -17.2263,0.15053 z" />
    <g
       id="g6189"
       transform="matrix(1.3872834,0,0,1.3872834,-58.371286,341.13029)">
      <path
         id="rect6164"
         sodipodi:nodetypes="csccccccsccsssscc"
         style="opacity:0.30612003;fill:#000000"
         d="m -134.84,314.78 c 0.26783,0.8991 0.40625,1.8382 0.40625,2.7982 0,5.3634 -4.419,3.7888 -10.656,5.6512 v 1.3442 c 0,1.0957 1.0246,1.9953 2.4688,2.3318 0.0803,1.248 1.2138,2.2495 2.6562,2.2495 h 45.312 c 1.412,0 2.5642,-0.95676 2.6875,-2.1672 0.20457,-0.0323 0.4041,-0.0829 0.59375,-0.13717 1.3208,-0.37801 2.25,-1.2412 2.25,-2.277 v -0.90529 c -0.8933,-0.18401 -1.7661,-0.31993 -2.5938,-0.43893 -1.6553,-0.238 -3.155,-0.3968 -4.4688,-0.60353 -3.2843,-0.51684 -6.5812,-0.3291 -6.5812,-3.987 0,-0.72002 0.59683,-2.4865 1.4562,-3.173 0.18313,-0.1463 0.12054,-0.46105 0.1875,-0.68583 h -33.719 z"
         inkscape:connector-curvature="0" />
      <g
         id="g6129"
         transform="matrix(0.12651,0,0,0.09762,-41.361,258.49)">
        <rect
           id="rect5700"
           style="fill:url(#linearGradient6197)"
           transform="matrix(1,0,0,2,-8.8869,-883.01)"
           ry="13.82"
           height="28.792"
           width="400.79999"
           y="775.90997"
           x="-841.27002" />
        <g
           id="g5696"
           transform="translate(-0.88869,-21.882)">
          <path
             id="path5693"
             sodipodi:nodetypes="csccccccscc"
             style="fill:#e9b96e"
             d="m -787.58,580.54 c 2.1172,10.492 3.2206,21.371 3.2206,32.574 0,62.586 -34.902,44.434 -84.205,66.166 v 15.473 c 0,16.116 12.948,29.113 29.063,29.113 h 384.27 c 16.115,0 29.063,-12.998 29.063,-29.113 V 684.37 c -56.49,-17.178 -98.03,-2.96 -98.03,-71.256 0,-11.203 1.1034,-22.082 3.2205,-32.574 h -266.6 z"
             inkscape:connector-curvature="0" />
          <path
             id="rect5641"
             sodipodi:nodetypes="csccccccscc"
             style="fill:url(#linearGradient6199)"
             d="m -787.58,580.54 c 2.1172,10.492 3.2206,21.371 3.2206,32.574 0,62.586 -34.902,44.434 -84.205,66.166 v 15.473 c 0,16.116 12.948,29.113 29.063,29.113 h 384.27 c 16.115,0 29.063,-12.998 29.063,-29.113 V 684.37 c -56.49,-17.178 -98.03,-2.96 -98.03,-71.256 0,-11.203 1.1034,-22.082 3.2205,-32.574 h -266.6 z"
             inkscape:connector-curvature="0" />
        </g>
      </g>
    </g>
    <path
       d="m -177.50227,793.18156 51.80669,-0.27596 18.80081,-0.27596 v 6.07108 h -70.6075 z"
       style="fill:#ffffff;stroke-width:0.96039271"
       sodipodi:nodetypes="cccccc"
       id="path5631"
       inkscape:connector-curvature="0" />
  </g>
  <g
     inkscape:groupmode="layer"
     id="layer2"
     inkscape:label="chalk"
     transform="translate(0,-523.47412)">
    <text
       xml:space="preserve"
       style="font-style:normal;font-variant:normal;font-weight:normal;font-stretch:normal;font-size:4.01195383px;line-height:0%;font-family:'Segoe Print';-inkscape-font-specification:'Segoe Print';letter-spacing:0px;word-spacing:0px;fill:#ffffff;fill-opacity:1;stroke:#ffffff;stroke-width:0.51925129px;stroke-linecap:butt;stroke-linejoin:miter;stroke-opacity:1"
       x="52.114456"
       y="680.96515"
       id="text5769"><tspan
         sodipodi:role="line"
         id="tspan5771"
         x="52.114456"
         y="680.96515"
         style="font-size:10.55419636px;line-height:1.25;stroke-width:0.51925129px">O</tspan></text>
    <text
       xml:space="preserve"
       style="font-style:normal;font-variant:normal;font-weight:normal;font-stretch:normal;font-size:4.01195383px;line-height:0%;font-family:'Segoe Print';-inkscape-font-specification:'Segoe Print';letter-spacing:0px;word-spacing:0px;fill:#ffffff;fill-opacity:1;stroke:#ffffff;stroke-width:0.51925129px;stroke-linecap:butt;stroke-linejoin:miter;stroke-opacity:1"
       x="120.65381"
       y="598.37726"
       id="text5769-3"><tspan
         sodipodi:role="line"
         id="tspan5771-3"
         x="120.65381"
         y="598.37726"
         style="font-size:10.55419636px;line-height:1.25;stroke-width:0.51925129px">P</tspan></text>
    <g
       style="fill:#ffffff;fill-opacity:1;stroke:#ffffff;stroke-opacity:1"
       id="g6142"
       transform="matrix(0.51925131,0,0,0.51925131,-108.44033,522.12006)">
      <text
         id="text5769-6"
         y="277.50626"
         x="343.80209"
         style="font-style:normal;font-weight:normal;line-height:0%;font-family:sans-serif;letter-spacing:0px;word-spacing:0px;fill:#ffffff;fill-opacity:1;stroke:#ffffff;stroke-width:1px;stroke-linecap:butt;stroke-linejoin:miter;stroke-opacity:1"
         xml:space="preserve"><tspan
           style="font-style:normal;font-variant:normal;font-weight:normal;font-stretch:normal;font-size:20.32579803px;line-height:1.25;font-family:'Segoe Print';-inkscape-font-specification:'Segoe Print';fill:#ffffff;fill-opacity:1;stroke:#ffffff;stroke-opacity:1"
           y="277.50626"
           x="343.80209"
           id="tspan6122"
           sodipodi:role="line"></tspan></text>
      <text
         id="text5769-3-3"
         y="286.63934"
         x="356.42871"
         style="font-style:normal;font-weight:normal;line-height:0%;font-family:sans-serif;letter-spacing:0px;word-spacing:0px;fill:#ffffff;fill-opacity:1;stroke:#ffffff;stroke-width:1px;stroke-linecap:butt;stroke-linejoin:miter;stroke-opacity:1"
         xml:space="preserve"><tspan
           y="286.63934"
           x="356.42871"
           id="tspan5771-3-8"
           sodipodi:role="line"
           style="font-style:normal;font-variant:normal;font-weight:normal;font-stretch:normal;font-size:11.97503567px;line-height:1.25;font-family:'Segoe Print';-inkscape-font-specification:'Segoe Print';fill:#ffffff;fill-opacity:1;stroke:#ffffff;stroke-opacity:1">P</tspan></text>
    </g>
    <g
       style="fill:#ffffff;fill-opacity:1;stroke:#ffffff;stroke-opacity:1"
       id="g6179"
       transform="matrix(0.51925131,0,0,0.51925131,-108.85077,522.32913)">
      <text
         id="text5769-6-1"
         y="209.1207"
         x="367.08554"
         style="font-style:normal;font-weight:normal;line-height:0%;font-family:sans-serif;letter-spacing:0px;word-spacing:0px;fill:#ffffff;fill-opacity:1;stroke:#ffffff;stroke-width:1px;stroke-linecap:butt;stroke-linejoin:miter;stroke-opacity:1"
         xml:space="preserve"><tspan
           style="font-style:normal;font-variant:normal;font-weight:normal;font-stretch:normal;font-size:20.32579803px;line-height:1.25;font-family:'Segoe Print';-inkscape-font-specification:'Segoe Print';fill:#ffffff;fill-opacity:1;stroke:#ffffff;stroke-opacity:1"
           y="209.1207"
           x="367.08554"
           id="tspan6122-0"
           sodipodi:role="line">r</tspan></text>
      <text
         id="text5769-3-3-5"
         y="216.28951"
         x="375.24786"
         style="font-style:normal;font-weight:normal;line-height:0%;font-family:sans-serif;letter-spacing:0px;word-spacing:0px;fill:#ffffff;fill-opacity:1;stroke:#ffffff;stroke-width:1px;stroke-linecap:butt;stroke-linejoin:miter;stroke-opacity:1"
         xml:space="preserve"><tspan
           y="216.28951"
           x="375.24786"
           id="tspan5771-3-8-7"
           sodipodi:role="line"
           style="font-style:normal;font-variant:normal;font-weight:normal;font-stretch:normal;font-size:11.97503567px;line-height:1.25;font-family:'Segoe Print';-inkscape-font-specification:'Segoe Print';fill:#ffffff;fill-opacity:1;stroke:#ffffff;stroke-opacity:1">P</tspan></text>
    </g>
    <path
       style="fill:#ffffff;fill-opacity:1;fill-rule:evenodd;stroke:#ffffff;stroke-width:0.51925129px;stroke-linecap:butt;stroke-linejoin:miter;stroke-opacity:1"
       d="M 60.365434,672.08342 180.66624,671.71873"
       id="path5451"
       inkscape:connector-curvature="0"
       sodipodi:nodetypes="cc" />
    <circle
       style="fill:#ffffff;fill-opacity:1;stroke:#ffffff;stroke-width:0.51925129;stroke-miterlimit:4;stroke-dasharray:3.11550798, 3.11550798;stroke-dashoffset:0;stroke-opacity:1"
       id="path5767-3"
       cx="-110.96386"
       cy="601.12781"
       r="0.81956726"
       transform="rotate(-21.629825)" />
    <path
       style="fill:#ffffff;fill-opacity:1;fill-rule:evenodd;stroke:#ffffff;stroke-width:0.51925129px;stroke-linecap:butt;stroke-linejoin:miter;stroke-opacity:1"
       d="M 60.502884,671.91993 118.63908,599.59659"
       id="path6094"
       inkscape:connector-curvature="0" />
    <path
       style="fill:#ffffff;fill-opacity:1;fill-rule:evenodd;stroke:#ffffff;stroke-width:0.51925129px;stroke-linecap:butt;stroke-linejoin:miter;stroke-opacity:1"
       d="m 65.823959,665.19297 c 0,0 1.127208,1.04011 2.219516,3.05165 1.092311,2.01154 0.988718,3.84822 0.988718,3.84822"
       id="path6102"
       inkscape:connector-curvature="0"
       sodipodi:nodetypes="czc" />
    <path
       style="fill:#ffffff;fill-opacity:1;fill-rule:evenodd;stroke:#ffffff;stroke-width:0.51925129px;stroke-linecap:butt;stroke-linejoin:miter;stroke-opacity:1;marker-end:url(#marker5739-9)"
       d="M 60.922955,698.79968 60.370954,589.6497"
       id="path5449-1"
       inkscape:connector-curvature="0"
       sodipodi:nodetypes="cc" />
    <path
       style="fill:#ffffff;fill-opacity:1;fill-rule:evenodd;stroke:#ffffff;stroke-width:0.51921368;stroke-linecap:butt;stroke-linejoin:miter;stroke-miterlimit:4;stroke-dasharray:none;stroke-opacity:1;marker-end:url(#Arrow1Mend)"
       d="M 36.346313,672.30855 165.02471,671.65174"
       id="path5451-7"
       inkscape:connector-curvature="0"
       sodipodi:nodetypes="cc" />
    <circle
       style="fill:#ffffff;fill-opacity:1;stroke:#ffffff;stroke-width:0.51925129;stroke-miterlimit:4;stroke-dasharray:3.11550792, 3.11550792;stroke-dashoffset:0;stroke-opacity:1"
       id="path5767-3-1"
       cx="58.37891"
       cy="600.21136"
       r="0.81956726"
       transform="rotate(-0.19081478)" />
    <path
       style="fill:#ffffff;fill-opacity:1;fill-rule:evenodd;stroke:#ffffff;stroke-width:0.51925129;stroke-linecap:butt;stroke-linejoin:miter;stroke-miterlimit:4;stroke-dasharray:1.03850264, 0.51925131;stroke-dashoffset:0;stroke-opacity:1"
       d="m 118.3689,599.70751 0.15872,74.36394"
       id="path5844"
       inkscape:connector-curvature="0"
       sodipodi:nodetypes="cc" />
    <path
       style="fill:#ffffff;fill-opacity:1;fill-rule:evenodd;stroke:#ffffff;stroke-width:0.51925129;stroke-linecap:butt;stroke-linejoin:miter;stroke-miterlimit:4;stroke-dasharray:1.03850264, 0.51925131;stroke-dashoffset:0;stroke-opacity:1"
       d="m 118.23429,599.79143 -59.78347,0.27421"
       id="path5846"
       inkscape:connector-curvature="0"
       sodipodi:nodetypes="cc" />
    <circle
       style="fill:#ffffff;fill-opacity:1;stroke:#ffffff;stroke-width:0.51925129;stroke-miterlimit:4;stroke-dasharray:3.11550792, 3.11550792;stroke-dashoffset:0;stroke-opacity:1"
       id="path5767-4"
       cx="116.35749"
       cy="672.20349"
       r="0.81956726"
       transform="rotate(-0.19081478)" />
    <circle
       style="fill:#ffffff;fill-opacity:1;stroke:#ffffff;stroke-width:0.51925129;stroke-miterlimit:4;stroke-dasharray:3.11550792, 3.11550792;stroke-dashoffset:0;stroke-opacity:1"
       id="path5767-4-3"
       cx="58.304943"
       cy="672.26917"
       r="0.81956726"
       transform="rotate(-0.19081478)" />
    <g
       style="fill:#ffffff;fill-opacity:1;stroke:#ffffff;stroke-opacity:1"
       id="g5925"
       transform="matrix(0.51925131,0,0,0.51925131,-122.01981,490.19844)">
      <text
         id="text5769-3-6"
         y="365.77634"
         x="456.33667"
         style="font-style:normal;font-weight:normal;line-height:0%;font-family:sans-serif;letter-spacing:0px;word-spacing:0px;fill:#ffffff;fill-opacity:1;stroke:#ffffff;stroke-width:1px;stroke-linecap:butt;stroke-linejoin:miter;stroke-opacity:1"
         xml:space="preserve"><tspan
           style="font-style:normal;font-variant:normal;font-weight:normal;font-stretch:normal;font-size:20.32579803px;line-height:1.25;font-family:'Segoe Print';-inkscape-font-specification:'Segoe Print';fill:#ffffff;fill-opacity:1;stroke:#ffffff;stroke-opacity:1"
           y="365.77634"
           x="456.33667"
           id="tspan5771-3-4"
           sodipodi:role="line">x</tspan></text>
      <text
         id="text5769-3-0"
         y="372.07095"
         x="467.35165"
         style="font-style:normal;font-weight:normal;line-height:0%;font-family:sans-serif;letter-spacing:0px;word-spacing:0px;fill:#ffffff;fill-opacity:1;stroke:#ffffff;stroke-width:1px;stroke-linecap:butt;stroke-linejoin:miter;stroke-opacity:1"
         xml:space="preserve"><tspan
           y="372.07095"
           x="467.35165"
           id="tspan5771-3-1"
           sodipodi:role="line"
           style="font-style:normal;font-variant:normal;font-weight:normal;font-stretch:normal;font-size:12.06531143px;line-height:1.25;font-family:'Segoe Print';-inkscape-font-specification:'Segoe Print';fill:#ffffff;fill-opacity:1;stroke:#ffffff;stroke-opacity:1">P</tspan></text>
    </g>
    <g
       style="fill:#ffffff;fill-opacity:1;stroke:#ffffff;stroke-opacity:1"
       id="g5919"
       transform="matrix(0.51925131,0,0,0.51925131,-174.47212,429.35376)">
      <text
         id="text5769-3-6-3"
         y="335.11499"
         x="428.16245"
         style="font-style:normal;font-weight:normal;line-height:0%;font-family:sans-serif;letter-spacing:0px;word-spacing:0px;fill:#ffffff;fill-opacity:1;stroke:#ffffff;stroke-width:1px;stroke-linecap:butt;stroke-linejoin:miter;stroke-opacity:1"
         xml:space="preserve"><tspan
           style="font-style:normal;font-variant:normal;font-weight:normal;font-stretch:normal;font-size:20.32579803px;line-height:1.25;font-family:'Segoe Print';-inkscape-font-specification:'Segoe Print';fill:#ffffff;fill-opacity:1;stroke:#ffffff;stroke-opacity:1"
           y="335.11499"
           x="428.16245"
           id="tspan5771-3-4-2"
           sodipodi:role="line">y</tspan></text>
      <text
         id="text5769-3-0-9"
         y="341.40961"
         x="439.17743"
         style="font-style:normal;font-weight:normal;line-height:0%;font-family:sans-serif;letter-spacing:0px;word-spacing:0px;fill:#ffffff;fill-opacity:1;stroke:#ffffff;stroke-width:1px;stroke-linecap:butt;stroke-linejoin:miter;stroke-opacity:1"
         xml:space="preserve"><tspan
           y="341.40961"
           x="439.17743"
           id="tspan5771-3-1-6"
           sodipodi:role="line"
           style="font-style:normal;font-variant:normal;font-weight:normal;font-stretch:normal;font-size:12.06531143px;line-height:1.25;font-family:'Segoe Print';-inkscape-font-specification:'Segoe Print';fill:#ffffff;fill-opacity:1;stroke:#ffffff;stroke-opacity:1">P</tspan></text>
    </g>
    <text
       xml:space="preserve"
       style="font-style:normal;font-variant:normal;font-weight:normal;font-stretch:normal;font-size:4.01195383px;line-height:0%;font-family:'Segoe Print';-inkscape-font-specification:'Segoe Print';letter-spacing:0px;word-spacing:0px;fill:#ffffff;fill-opacity:1;stroke:#ffffff;stroke-width:0.51925129px;stroke-linecap:butt;stroke-linejoin:miter;stroke-opacity:1"
       x="162.19623"
       y="679.93494"
       id="text5769-3-6-8"><tspan
         sodipodi:role="line"
         id="tspan5771-3-4-0"
         x="162.19623"
         y="679.93494"
         style="font-style:normal;font-variant:normal;font-weight:normal;font-stretch:normal;font-size:10.55419636px;line-height:1.25;font-family:'Segoe Print';-inkscape-font-specification:'Segoe Print';fill:#ffffff;fill-opacity:1;stroke:#ffffff;stroke-width:0.51925129px;stroke-opacity:1">x</tspan></text>
    <text
       xml:space="preserve"
       style="font-style:normal;font-variant:normal;font-weight:normal;font-stretch:normal;font-size:4.01195383px;line-height:0%;font-family:'Segoe Print';-inkscape-font-specification:'Segoe Print';letter-spacing:0px;word-spacing:0px;fill:#ffffff;fill-opacity:1;stroke:#ffffff;stroke-width:0.51925129px;stroke-linecap:butt;stroke-linejoin:miter;stroke-opacity:1"
       x="54.696606"
       y="586.8927"
       id="text5769-3-6-8-2"><tspan
         sodipodi:role="line"
         id="tspan5771-3-4-0-0"
         x="54.696606"
         y="586.8927"
         style="font-style:normal;font-variant:normal;font-weight:normal;font-stretch:normal;font-size:10.55419636px;line-height:1.25;font-family:'Segoe Print';-inkscape-font-specification:'Segoe Print';fill:#ffffff;fill-opacity:1;stroke:#ffffff;stroke-width:0.51925129px;stroke-opacity:1">y</tspan></text>
  </g>
  <metadata
     id="metadata96">
    <rdf:RDF>
      <cc:Work>
        <dc:format>image/svg+xml</dc:format>
        <dc:type
           rdf:resource="http://purl.org/dc/dcmitype/StillImage" />
        <cc:license
           rdf:resource="http://creativecommons.org/publicdomain/zero/1.0/" />
        <dc:publisher>
          <cc:Agent
             rdf:about="http://openclipart.org/">
            <dc:title>Openclipart</dc:title>
          </cc:Agent>
        </dc:publisher>
        <dc:title></dc:title>
        <dc:date>2010-11-26T21:16:28</dc:date>
        <dc:description />
        <dc:source>https://openclipart.org/detail/98395/blackboard-by-rg1024</dc:source>
        <dc:creator>
          <cc:Agent>
            <dc:title>rg1024</dc:title>
          </cc:Agent>
        </dc:creator>
        <dc:subject>
          <rdf:Bag>
            <rdf:li>blackboard</rdf:li>
            <rdf:li>learning</rdf:li>
            <rdf:li>school</rdf:li>
            <rdf:li>studying</rdf:li>
            <rdf:li>teaching</rdf:li>
            <rdf:li>wood frame</rdf:li>
          </rdf:Bag>
        </dc:subject>
      </cc:Work>
      <cc:License
         rdf:about="http://creativecommons.org/publicdomain/zero/1.0/">
        <cc:permits
           rdf:resource="http://creativecommons.org/ns#Reproduction" />
        <cc:permits
           rdf:resource="http://creativecommons.org/ns#Distribution" />
        <cc:permits
           rdf:resource="http://creativecommons.org/ns#DerivativeWorks" />
      </cc:License>
    </rdf:RDF>
  </metadata>
</svg>
