<?xml version="1.0" encoding="utf-8" standalone="no"?>
<!DOCTYPE svg PUBLIC "-//W3C//DTD SVG 1.1//EN"
  "http://www.w3.org/Graphics/SVG/1.1/DTD/svg11.dtd">
<svg xmlns:xlink="http://www.w3.org/1999/xlink" width="712.52375pt" height="423.034375pt" viewBox="0 0 712.52375 423.034375" xmlns="http://www.w3.org/2000/svg" version="1.1">
 <metadata>
  <rdf:RDF xmlns:dc="http://purl.org/dc/elements/1.1/" xmlns:cc="http://creativecommons.org/ns#" xmlns:rdf="http://www.w3.org/1999/02/22-rdf-syntax-ns#">
   <cc:Work>
    <dc:type rdf:resource="http://purl.org/dc/dcmitype/StillImage"/>
    <dc:date>2026-03-10T10:23:22.245559</dc:date>
    <dc:format>image/svg+xml</dc:format>
    <dc:creator>
     <cc:Agent>
      <dc:title>Matplotlib v3.10.8, https://matplotlib.org/</dc:title>
     </cc:Agent>
    </dc:creator>
   </cc:Work>
  </rdf:RDF>
 </metadata>
 <defs>
  <style type="text/css">*{stroke-linejoin: round; stroke-linecap: butt}</style>
 </defs>
 <g id="figure_1">
  <g id="patch_1">
   <path d="M 0 423.034375 
L 712.52375 423.034375 
L 712.52375 0 
L 0 0 
z
" style="fill: #ffffff"/>
  </g>
  <g id="axes_1">
   <g id="patch_2">
    <path d="M 50.14375 385.478125 
L 705.32375 385.478125 
L 705.32375 22.318125 
L 50.14375 22.318125 
z
" style="fill: #ffffff"/>
   </g>
   <g id="patch_3">
    <path d="M 79.924659 385.478125 
L 91.603447 385.478125 
L 91.603447 385.478125 
L 79.924659 385.478125 
z
" clip-path="url(#p342086daf3)" style="fill: #1f77b4; opacity: 0.1; stroke: #000000; stroke-linejoin: miter"/>
   </g>
   <g id="patch_4">
    <path d="M 91.603447 385.478125 
L 103.282235 385.478125 
L 103.282235 385.478125 
L 91.603447 385.478125 
z
" clip-path="url(#p342086daf3)" style="fill: #1f77b4; opacity: 0.1; stroke: #000000; stroke-linejoin: miter"/>
   </g>
   <g id="patch_5">
    <path d="M 103.282235 385.478125 
L 114.961023 385.478125 
L 114.961023 385.478125 
L 103.282235 385.478125 
z
" clip-path="url(#p342086daf3)" style="fill: #1f77b4; opacity: 0.1; stroke: #000000; stroke-linejoin: miter"/>
   </g>
   <g id="patch_6">
    <path d="M 114.961023 385.478125 
L 126.639811 385.478125 
L 126.639811 385.478125 
L 114.961023 385.478125 
z
" clip-path="url(#p342086daf3)" style="fill: #1f77b4; opacity: 0.1; stroke: #000000; stroke-linejoin: miter"/>
   </g>
   <g id="patch_7">
    <path d="M 126.639811 385.478125 
L 138.318598 385.478125 
L 138.318598 385.431388 
L 126.639811 385.431388 
z
" clip-path="url(#p342086daf3)" style="fill: #1f77b4; opacity: 0.1; stroke: #000000; stroke-linejoin: miter"/>
   </g>
   <g id="patch_8">
    <path d="M 138.318598 385.478125 
L 149.997386 385.478125 
L 149.997386 385.291175 
L 138.318598 385.291175 
z
" clip-path="url(#p342086daf3)" style="fill: #1f77b4; opacity: 0.1; stroke: #000000; stroke-linejoin: miter"/>
   </g>
   <g id="patch_9">
    <path d="M 149.997386 385.478125 
L 161.676174 385.478125 
L 161.676174 384.870538 
L 149.997386 384.870538 
z
" clip-path="url(#p342086daf3)" style="fill: #1f77b4; opacity: 0.1; stroke: #000000; stroke-linejoin: miter"/>
   </g>
   <g id="patch_10">
    <path d="M 161.676174 385.478125 
L 173.354962 385.478125 
L 173.354962 384.636851 
L 161.676174 384.636851 
z
" clip-path="url(#p342086daf3)" style="fill: #1f77b4; opacity: 0.1; stroke: #000000; stroke-linejoin: miter"/>
   </g>
   <g id="patch_11">
    <path d="M 173.354962 385.478125 
L 185.03375 385.478125 
L 185.03375 383.982527 
L 173.354962 383.982527 
z
" clip-path="url(#p342086daf3)" style="fill: #1f77b4; opacity: 0.1; stroke: #000000; stroke-linejoin: miter"/>
   </g>
   <g id="patch_12">
    <path d="M 185.03375 385.478125 
L 196.712538 385.478125 
L 196.712538 381.505444 
L 185.03375 381.505444 
z
" clip-path="url(#p342086daf3)" style="fill: #1f77b4; opacity: 0.1; stroke: #000000; stroke-linejoin: miter"/>
   </g>
   <g id="patch_13">
    <path d="M 196.712538 385.478125 
L 208.391326 385.478125 
L 208.391326 378.233824 
L 196.712538 378.233824 
z
" clip-path="url(#p342086daf3)" style="fill: #1f77b4; opacity: 0.1; stroke: #000000; stroke-linejoin: miter"/>
   </g>
   <g id="patch_14">
    <path d="M 208.391326 385.478125 
L 220.070114 385.478125 
L 220.070114 374.401355 
L 208.391326 374.401355 
z
" clip-path="url(#p342086daf3)" style="fill: #1f77b4; opacity: 0.1; stroke: #000000; stroke-linejoin: miter"/>
   </g>
   <g id="patch_15">
    <path d="M 220.070114 385.478125 
L 231.748902 385.478125 
L 231.748902 365.941881 
L 220.070114 365.941881 
z
" clip-path="url(#p342086daf3)" style="fill: #1f77b4; opacity: 0.1; stroke: #000000; stroke-linejoin: miter"/>
   </g>
   <g id="patch_16">
    <path d="M 231.748902 385.478125 
L 243.427689 385.478125 
L 243.427689 357.762832 
L 231.748902 357.762832 
z
" clip-path="url(#p342086daf3)" style="fill: #1f77b4; opacity: 0.1; stroke: #000000; stroke-linejoin: miter"/>
   </g>
   <g id="patch_17">
    <path d="M 243.427689 385.478125 
L 255.106477 385.478125 
L 255.106477 340.797146 
L 243.427689 340.797146 
z
" clip-path="url(#p342086daf3)" style="fill: #1f77b4; opacity: 0.1; stroke: #000000; stroke-linejoin: miter"/>
   </g>
   <g id="patch_18">
    <path d="M 255.106477 385.478125 
L 266.785265 385.478125 
L 266.785265 320.419629 
L 255.106477 320.419629 
z
" clip-path="url(#p342086daf3)" style="fill: #1f77b4; opacity: 0.1; stroke: #000000; stroke-linejoin: miter"/>
   </g>
   <g id="patch_19">
    <path d="M 266.785265 385.478125 
L 278.464053 385.478125 
L 278.464053 298.172614 
L 266.785265 298.172614 
z
" clip-path="url(#p342086daf3)" style="fill: #1f77b4; opacity: 0.1; stroke: #000000; stroke-linejoin: miter"/>
   </g>
   <g id="patch_20">
    <path d="M 278.464053 385.478125 
L 290.142841 385.478125 
L 290.142841 268.541086 
L 278.464053 268.541086 
z
" clip-path="url(#p342086daf3)" style="fill: #1f77b4; opacity: 0.1; stroke: #000000; stroke-linejoin: miter"/>
   </g>
   <g id="patch_21">
    <path d="M 290.142841 385.478125 
L 301.821629 385.478125 
L 301.821629 228.3469 
L 290.142841 228.3469 
z
" clip-path="url(#p342086daf3)" style="fill: #1f77b4; opacity: 0.1; stroke: #000000; stroke-linejoin: miter"/>
   </g>
   <g id="patch_22">
    <path d="M 301.821629 385.478125 
L 313.500417 385.478125 
L 313.500417 194.976379 
L 301.821629 194.976379 
z
" clip-path="url(#p342086daf3)" style="fill: #1f77b4; opacity: 0.1; stroke: #000000; stroke-linejoin: miter"/>
   </g>
   <g id="patch_23">
    <path d="M 313.500417 385.478125 
L 325.179205 385.478125 
L 325.179205 159.082036 
L 313.500417 159.082036 
z
" clip-path="url(#p342086daf3)" style="fill: #1f77b4; opacity: 0.1; stroke: #000000; stroke-linejoin: miter"/>
   </g>
   <g id="patch_24">
    <path d="M 325.179205 385.478125 
L 336.857992 385.478125 
L 336.857992 124.309391 
L 325.179205 124.309391 
z
" clip-path="url(#p342086daf3)" style="fill: #1f77b4; opacity: 0.1; stroke: #000000; stroke-linejoin: miter"/>
   </g>
   <g id="patch_25">
    <path d="M 336.857992 385.478125 
L 348.53678 385.478125 
L 348.53678 92.340992 
L 336.857992 92.340992 
z
" clip-path="url(#p342086daf3)" style="fill: #1f77b4; opacity: 0.1; stroke: #000000; stroke-linejoin: miter"/>
   </g>
   <g id="patch_26">
    <path d="M 348.53678 385.478125 
L 360.215568 385.478125 
L 360.215568 64.251799 
L 348.53678 64.251799 
z
" clip-path="url(#p342086daf3)" style="fill: #1f77b4; opacity: 0.1; stroke: #000000; stroke-linejoin: miter"/>
   </g>
   <g id="patch_27">
    <path d="M 360.215568 385.478125 
L 371.894356 385.478125 
L 371.894356 48.2676 
L 360.215568 48.2676 
z
" clip-path="url(#p342086daf3)" style="fill: #1f77b4; opacity: 0.1; stroke: #000000; stroke-linejoin: miter"/>
   </g>
   <g id="patch_28">
    <path d="M 371.894356 385.478125 
L 383.573144 385.478125 
L 383.573144 39.995075 
L 371.894356 39.995075 
z
" clip-path="url(#p342086daf3)" style="fill: #1f77b4; opacity: 0.1; stroke: #000000; stroke-linejoin: miter"/>
   </g>
   <g id="patch_29">
    <path d="M 383.573144 385.478125 
L 395.251932 385.478125 
L 395.251932 52.754393 
L 383.573144 52.754393 
z
" clip-path="url(#p342086daf3)" style="fill: #1f77b4; opacity: 0.1; stroke: #000000; stroke-linejoin: miter"/>
   </g>
   <g id="patch_30">
    <path d="M 395.251932 385.478125 
L 406.93072 385.478125 
L 406.93072 72.056949 
L 395.251932 72.056949 
z
" clip-path="url(#p342086daf3)" style="fill: #1f77b4; opacity: 0.1; stroke: #000000; stroke-linejoin: miter"/>
   </g>
   <g id="patch_31">
    <path d="M 406.93072 385.478125 
L 418.609508 385.478125 
L 418.609508 87.246613 
L 406.93072 87.246613 
z
" clip-path="url(#p342086daf3)" style="fill: #1f77b4; opacity: 0.1; stroke: #000000; stroke-linejoin: miter"/>
   </g>
   <g id="patch_32">
    <path d="M 418.609508 385.478125 
L 430.288295 385.478125 
L 430.288295 125.524564 
L 418.609508 125.524564 
z
" clip-path="url(#p342086daf3)" style="fill: #1f77b4; opacity: 0.1; stroke: #000000; stroke-linejoin: miter"/>
   </g>
   <g id="patch_33">
    <path d="M 430.288295 385.478125 
L 441.967083 385.478125 
L 441.967083 159.175511 
L 430.288295 159.175511 
z
" clip-path="url(#p342086daf3)" style="fill: #1f77b4; opacity: 0.1; stroke: #000000; stroke-linejoin: miter"/>
   </g>
   <g id="patch_34">
    <path d="M 441.967083 385.478125 
L 453.645871 385.478125 
L 453.645871 198.294736 
L 441.967083 198.294736 
z
" clip-path="url(#p342086daf3)" style="fill: #1f77b4; opacity: 0.1; stroke: #000000; stroke-linejoin: miter"/>
   </g>
   <g id="patch_35">
    <path d="M 453.645871 385.478125 
L 465.324659 385.478125 
L 465.324659 235.731414 
L 453.645871 235.731414 
z
" clip-path="url(#p342086daf3)" style="fill: #1f77b4; opacity: 0.1; stroke: #000000; stroke-linejoin: miter"/>
   </g>
   <g id="patch_36">
    <path d="M 465.324659 385.478125 
L 477.003447 385.478125 
L 477.003447 264.568405 
L 465.324659 264.568405 
z
" clip-path="url(#p342086daf3)" style="fill: #1f77b4; opacity: 0.1; stroke: #000000; stroke-linejoin: miter"/>
   </g>
   <g id="patch_37">
    <path d="M 477.003447 385.478125 
L 488.682235 385.478125 
L 488.682235 298.266089 
L 477.003447 298.266089 
z
" clip-path="url(#p342086daf3)" style="fill: #1f77b4; opacity: 0.1; stroke: #000000; stroke-linejoin: miter"/>
   </g>
   <g id="patch_38">
    <path d="M 488.682235 385.478125 
L 500.361023 385.478125 
L 500.361023 323.737986 
L 488.682235 323.737986 
z
" clip-path="url(#p342086daf3)" style="fill: #1f77b4; opacity: 0.1; stroke: #000000; stroke-linejoin: miter"/>
   </g>
   <g id="patch_39">
    <path d="M 500.361023 385.478125 
L 512.039811 385.478125 
L 512.039811 342.853593 
L 500.361023 342.853593 
z
" clip-path="url(#p342086daf3)" style="fill: #1f77b4; opacity: 0.1; stroke: #000000; stroke-linejoin: miter"/>
   </g>
   <g id="patch_40">
    <path d="M 512.039811 385.478125 
L 523.718598 385.478125 
L 523.718598 354.257525 
L 512.039811 354.257525 
z
" clip-path="url(#p342086daf3)" style="fill: #1f77b4; opacity: 0.1; stroke: #000000; stroke-linejoin: miter"/>
   </g>
   <g id="patch_41">
    <path d="M 523.718598 385.478125 
L 535.397386 385.478125 
L 535.397386 366.970104 
L 523.718598 366.970104 
z
" clip-path="url(#p342086daf3)" style="fill: #1f77b4; opacity: 0.1; stroke: #000000; stroke-linejoin: miter"/>
   </g>
   <g id="patch_42">
    <path d="M 535.397386 385.478125 
L 547.076174 385.478125 
L 547.076174 373.700294 
L 535.397386 373.700294 
z
" clip-path="url(#p342086daf3)" style="fill: #1f77b4; opacity: 0.1; stroke: #000000; stroke-linejoin: miter"/>
   </g>
   <g id="patch_43">
    <path d="M 547.076174 385.478125 
L 558.754962 385.478125 
L 558.754962 378.327299 
L 547.076174 378.327299 
z
" clip-path="url(#p342086daf3)" style="fill: #1f77b4; opacity: 0.1; stroke: #000000; stroke-linejoin: miter"/>
   </g>
   <g id="patch_44">
    <path d="M 558.754962 385.478125 
L 570.43375 385.478125 
L 570.43375 382.29998 
L 558.754962 382.29998 
z
" clip-path="url(#p342086daf3)" style="fill: #1f77b4; opacity: 0.1; stroke: #000000; stroke-linejoin: miter"/>
   </g>
   <g id="patch_45">
    <path d="M 570.43375 385.478125 
L 582.112538 385.478125 
L 582.112538 383.795578 
L 570.43375 383.795578 
z
" clip-path="url(#p342086daf3)" style="fill: #1f77b4; opacity: 0.1; stroke: #000000; stroke-linejoin: miter"/>
   </g>
   <g id="patch_46">
    <path d="M 582.112538 385.478125 
L 593.791326 385.478125 
L 593.791326 384.964013 
L 582.112538 384.964013 
z
" clip-path="url(#p342086daf3)" style="fill: #1f77b4; opacity: 0.1; stroke: #000000; stroke-linejoin: miter"/>
   </g>
   <g id="patch_47">
    <path d="M 593.791326 385.478125 
L 605.470114 385.478125 
L 605.470114 385.010751 
L 593.791326 385.010751 
z
" clip-path="url(#p342086daf3)" style="fill: #1f77b4; opacity: 0.1; stroke: #000000; stroke-linejoin: miter"/>
   </g>
   <g id="patch_48">
    <path d="M 605.470114 385.478125 
L 617.148902 385.478125 
L 617.148902 385.38465 
L 605.470114 385.38465 
z
" clip-path="url(#p342086daf3)" style="fill: #1f77b4; opacity: 0.1; stroke: #000000; stroke-linejoin: miter"/>
   </g>
   <g id="patch_49">
    <path d="M 617.148902 385.478125 
L 628.827689 385.478125 
L 628.827689 385.337913 
L 617.148902 385.337913 
z
" clip-path="url(#p342086daf3)" style="fill: #1f77b4; opacity: 0.1; stroke: #000000; stroke-linejoin: miter"/>
   </g>
   <g id="patch_50">
    <path d="M 628.827689 385.478125 
L 640.506477 385.478125 
L 640.506477 385.478125 
L 628.827689 385.478125 
z
" clip-path="url(#p342086daf3)" style="fill: #1f77b4; opacity: 0.1; stroke: #000000; stroke-linejoin: miter"/>
   </g>
   <g id="patch_51">
    <path d="M 640.506477 385.478125 
L 652.185265 385.478125 
L 652.185265 385.478125 
L 640.506477 385.478125 
z
" clip-path="url(#p342086daf3)" style="fill: #1f77b4; opacity: 0.1; stroke: #000000; stroke-linejoin: miter"/>
   </g>
   <g id="patch_52">
    <path d="M 652.185265 385.478125 
L 663.864053 385.478125 
L 663.864053 385.478125 
L 652.185265 385.478125 
z
" clip-path="url(#p342086daf3)" style="fill: #1f77b4; opacity: 0.1; stroke: #000000; stroke-linejoin: miter"/>
   </g>
   <g id="patch_53">
    <path d="M 663.864053 385.478125 
L 675.542841 385.478125 
L 675.542841 385.478125 
L 663.864053 385.478125 
z
" clip-path="url(#p342086daf3)" style="fill: #1f77b4; opacity: 0.1; stroke: #000000; stroke-linejoin: miter"/>
   </g>
   <g id="matplotlib.axis_1">
    <g id="xtick_1">
     <g id="line2d_1">
      <path d="M 85.764053 385.478125 
L 85.764053 22.318125 
" clip-path="url(#p342086daf3)" style="fill: none; stroke: #b0b0b0; stroke-opacity: 0.3; stroke-width: 0.8; stroke-linecap: square"/>
     </g>
     <g id="line2d_2">
      <defs>
       <path id="m8cddf51ab0" d="M 0 0 
L 0 3.5 
" style="stroke: #000000; stroke-width: 0.8"/>
      </defs>
      <g>
       <use xlink:href="#m8cddf51ab0" x="85.764053" y="385.478125" style="stroke: #000000; stroke-width: 0.8"/>
      </g>
     </g>
     <g id="text_1">
      <!-- 10 -->
      <g transform="translate(79.401553 400.076562) scale(0.1 -0.1)">
       <defs>
        <path id="DejaVuSans-31" d="M 794 531 
L 1825 531 
L 1825 4091 
L 703 3866 
L 703 4441 
L 1819 4666 
L 2450 4666 
L 2450 531 
L 3481 531 
L 3481 0 
L 794 0 
L 794 531 
z
" transform="scale(0.015625)"/>
        <path id="DejaVuSans-30" d="M 2034 4250 
Q 1547 4250 1301 3770 
Q 1056 3291 1056 2328 
Q 1056 1369 1301 889 
Q 1547 409 2034 409 
Q 2525 409 2770 889 
Q 3016 1369 3016 2328 
Q 3016 3291 2770 3770 
Q 2525 4250 2034 4250 
z
M 2034 4750 
Q 2819 4750 3233 4129 
Q 3647 3509 3647 2328 
Q 3647 1150 3233 529 
Q 2819 -91 2034 -91 
Q 1250 -91 836 529 
Q 422 1150 422 2328 
Q 422 3509 836 4129 
Q 1250 4750 2034 4750 
z
" transform="scale(0.015625)"/>
       </defs>
       <use xlink:href="#DejaVuSans-31"/>
       <use xlink:href="#DejaVuSans-30" transform="translate(63.623047 0)"/>
      </g>
     </g>
    </g>
    <g id="xtick_2">
     <g id="line2d_3">
      <path d="M 202.551932 385.478125 
L 202.551932 22.318125 
" clip-path="url(#p342086daf3)" style="fill: none; stroke: #b0b0b0; stroke-opacity: 0.3; stroke-width: 0.8; stroke-linecap: square"/>
     </g>
     <g id="line2d_4">
      <g>
       <use xlink:href="#m8cddf51ab0" x="202.551932" y="385.478125" style="stroke: #000000; stroke-width: 0.8"/>
      </g>
     </g>
     <g id="text_2">
      <!-- 20 -->
      <g transform="translate(196.189432 400.076562) scale(0.1 -0.1)">
       <defs>
        <path id="DejaVuSans-32" d="M 1228 531 
L 3431 531 
L 3431 0 
L 469 0 
L 469 531 
Q 828 903 1448 1529 
Q 2069 2156 2228 2338 
Q 2531 2678 2651 2914 
Q 2772 3150 2772 3378 
Q 2772 3750 2511 3984 
Q 2250 4219 1831 4219 
Q 1534 4219 1204 4116 
Q 875 4013 500 3803 
L 500 4441 
Q 881 4594 1212 4672 
Q 1544 4750 1819 4750 
Q 2544 4750 2975 4387 
Q 3406 4025 3406 3419 
Q 3406 3131 3298 2873 
Q 3191 2616 2906 2266 
Q 2828 2175 2409 1742 
Q 1991 1309 1228 531 
z
" transform="scale(0.015625)"/>
       </defs>
       <use xlink:href="#DejaVuSans-32"/>
       <use xlink:href="#DejaVuSans-30" transform="translate(63.623047 0)"/>
      </g>
     </g>
    </g>
    <g id="xtick_3">
     <g id="line2d_5">
      <path d="M 319.339811 385.478125 
L 319.339811 22.318125 
" clip-path="url(#p342086daf3)" style="fill: none; stroke: #b0b0b0; stroke-opacity: 0.3; stroke-width: 0.8; stroke-linecap: square"/>
     </g>
     <g id="line2d_6">
      <g>
       <use xlink:href="#m8cddf51ab0" x="319.339811" y="385.478125" style="stroke: #000000; stroke-width: 0.8"/>
      </g>
     </g>
     <g id="text_3">
      <!-- 30 -->
      <g transform="translate(312.977311 400.076562) scale(0.1 -0.1)">
       <defs>
        <path id="DejaVuSans-33" d="M 2597 2516 
Q 3050 2419 3304 2112 
Q 3559 1806 3559 1356 
Q 3559 666 3084 287 
Q 2609 -91 1734 -91 
Q 1441 -91 1130 -33 
Q 819 25 488 141 
L 488 750 
Q 750 597 1062 519 
Q 1375 441 1716 441 
Q 2309 441 2620 675 
Q 2931 909 2931 1356 
Q 2931 1769 2642 2001 
Q 2353 2234 1838 2234 
L 1294 2234 
L 1294 2753 
L 1863 2753 
Q 2328 2753 2575 2939 
Q 2822 3125 2822 3475 
Q 2822 3834 2567 4026 
Q 2313 4219 1838 4219 
Q 1578 4219 1281 4162 
Q 984 4106 628 3988 
L 628 4550 
Q 988 4650 1302 4700 
Q 1616 4750 1894 4750 
Q 2613 4750 3031 4423 
Q 3450 4097 3450 3541 
Q 3450 3153 3228 2886 
Q 3006 2619 2597 2516 
z
" transform="scale(0.015625)"/>
       </defs>
       <use xlink:href="#DejaVuSans-33"/>
       <use xlink:href="#DejaVuSans-30" transform="translate(63.623047 0)"/>
      </g>
     </g>
    </g>
    <g id="xtick_4">
     <g id="line2d_7">
      <path d="M 436.127689 385.478125 
L 436.127689 22.318125 
" clip-path="url(#p342086daf3)" style="fill: none; stroke: #b0b0b0; stroke-opacity: 0.3; stroke-width: 0.8; stroke-linecap: square"/>
     </g>
     <g id="line2d_8">
      <g>
       <use xlink:href="#m8cddf51ab0" x="436.127689" y="385.478125" style="stroke: #000000; stroke-width: 0.8"/>
      </g>
     </g>
     <g id="text_4">
      <!-- 40 -->
      <g transform="translate(429.765189 400.076562) scale(0.1 -0.1)">
       <defs>
        <path id="DejaVuSans-34" d="M 2419 4116 
L 825 1625 
L 2419 1625 
L 2419 4116 
z
M 2253 4666 
L 3047 4666 
L 3047 1625 
L 3713 1625 
L 3713 1100 
L 3047 1100 
L 3047 0 
L 2419 0 
L 2419 1100 
L 313 1100 
L 313 1709 
L 2253 4666 
z
" transform="scale(0.015625)"/>
       </defs>
       <use xlink:href="#DejaVuSans-34"/>
       <use xlink:href="#DejaVuSans-30" transform="translate(63.623047 0)"/>
      </g>
     </g>
    </g>
    <g id="xtick_5">
     <g id="line2d_9">
      <path d="M 552.915568 385.478125 
L 552.915568 22.318125 
" clip-path="url(#p342086daf3)" style="fill: none; stroke: #b0b0b0; stroke-opacity: 0.3; stroke-width: 0.8; stroke-linecap: square"/>
     </g>
     <g id="line2d_10">
      <g>
       <use xlink:href="#m8cddf51ab0" x="552.915568" y="385.478125" style="stroke: #000000; stroke-width: 0.8"/>
      </g>
     </g>
     <g id="text_5">
      <!-- 50 -->
      <g transform="translate(546.553068 400.076562) scale(0.1 -0.1)">
       <defs>
        <path id="DejaVuSans-35" d="M 691 4666 
L 3169 4666 
L 3169 4134 
L 1269 4134 
L 1269 2991 
Q 1406 3038 1543 3061 
Q 1681 3084 1819 3084 
Q 2600 3084 3056 2656 
Q 3513 2228 3513 1497 
Q 3513 744 3044 326 
Q 2575 -91 1722 -91 
Q 1428 -91 1123 -41 
Q 819 9 494 109 
L 494 744 
Q 775 591 1075 516 
Q 1375 441 1709 441 
Q 2250 441 2565 725 
Q 2881 1009 2881 1497 
Q 2881 1984 2565 2268 
Q 2250 2553 1709 2553 
Q 1456 2553 1204 2497 
Q 953 2441 691 2322 
L 691 4666 
z
" transform="scale(0.015625)"/>
       </defs>
       <use xlink:href="#DejaVuSans-35"/>
       <use xlink:href="#DejaVuSans-30" transform="translate(63.623047 0)"/>
      </g>
     </g>
    </g>
    <g id="xtick_6">
     <g id="line2d_11">
      <path d="M 669.703447 385.478125 
L 669.703447 22.318125 
" clip-path="url(#p342086daf3)" style="fill: none; stroke: #b0b0b0; stroke-opacity: 0.3; stroke-width: 0.8; stroke-linecap: square"/>
     </g>
     <g id="line2d_12">
      <g>
       <use xlink:href="#m8cddf51ab0" x="669.703447" y="385.478125" style="stroke: #000000; stroke-width: 0.8"/>
      </g>
     </g>
     <g id="text_6">
      <!-- 60 -->
      <g transform="translate(663.340947 400.076562) scale(0.1 -0.1)">
       <defs>
        <path id="DejaVuSans-36" d="M 2113 2584 
Q 1688 2584 1439 2293 
Q 1191 2003 1191 1497 
Q 1191 994 1439 701 
Q 1688 409 2113 409 
Q 2538 409 2786 701 
Q 3034 994 3034 1497 
Q 3034 2003 2786 2293 
Q 2538 2584 2113 2584 
z
M 3366 4563 
L 3366 3988 
Q 3128 4100 2886 4159 
Q 2644 4219 2406 4219 
Q 1781 4219 1451 3797 
Q 1122 3375 1075 2522 
Q 1259 2794 1537 2939 
Q 1816 3084 2150 3084 
Q 2853 3084 3261 2657 
Q 3669 2231 3669 1497 
Q 3669 778 3244 343 
Q 2819 -91 2113 -91 
Q 1303 -91 875 529 
Q 447 1150 447 2328 
Q 447 3434 972 4092 
Q 1497 4750 2381 4750 
Q 2619 4750 2861 4703 
Q 3103 4656 3366 4563 
z
" transform="scale(0.015625)"/>
       </defs>
       <use xlink:href="#DejaVuSans-36"/>
       <use xlink:href="#DejaVuSans-30" transform="translate(63.623047 0)"/>
      </g>
     </g>
    </g>
    <g id="text_7">
     <!-- Total face value -->
     <g transform="translate(338.57125 413.754687) scale(0.1 -0.1)">
      <defs>
       <path id="DejaVuSans-54" d="M -19 4666 
L 3928 4666 
L 3928 4134 
L 2272 4134 
L 2272 0 
L 1638 0 
L 1638 4134 
L -19 4134 
L -19 4666 
z
" transform="scale(0.015625)"/>
       <path id="DejaVuSans-6f" d="M 1959 3097 
Q 1497 3097 1228 2736 
Q 959 2375 959 1747 
Q 959 1119 1226 758 
Q 1494 397 1959 397 
Q 2419 397 2687 759 
Q 2956 1122 2956 1747 
Q 2956 2369 2687 2733 
Q 2419 3097 1959 3097 
z
M 1959 3584 
Q 2709 3584 3137 3096 
Q 3566 2609 3566 1747 
Q 3566 888 3137 398 
Q 2709 -91 1959 -91 
Q 1206 -91 779 398 
Q 353 888 353 1747 
Q 353 2609 779 3096 
Q 1206 3584 1959 3584 
z
" transform="scale(0.015625)"/>
       <path id="DejaVuSans-74" d="M 1172 4494 
L 1172 3500 
L 2356 3500 
L 2356 3053 
L 1172 3053 
L 1172 1153 
Q 1172 725 1289 603 
Q 1406 481 1766 481 
L 2356 481 
L 2356 0 
L 1766 0 
Q 1100 0 847 248 
Q 594 497 594 1153 
L 594 3053 
L 172 3053 
L 172 3500 
L 594 3500 
L 594 4494 
L 1172 4494 
z
" transform="scale(0.015625)"/>
       <path id="DejaVuSans-61" d="M 2194 1759 
Q 1497 1759 1228 1600 
Q 959 1441 959 1056 
Q 959 750 1161 570 
Q 1363 391 1709 391 
Q 2188 391 2477 730 
Q 2766 1069 2766 1631 
L 2766 1759 
L 2194 1759 
z
M 3341 1997 
L 3341 0 
L 2766 0 
L 2766 531 
Q 2569 213 2275 61 
Q 1981 -91 1556 -91 
Q 1019 -91 701 211 
Q 384 513 384 1019 
Q 384 1609 779 1909 
Q 1175 2209 1959 2209 
L 2766 2209 
L 2766 2266 
Q 2766 2663 2505 2880 
Q 2244 3097 1772 3097 
Q 1472 3097 1187 3025 
Q 903 2953 641 2809 
L 641 3341 
Q 956 3463 1253 3523 
Q 1550 3584 1831 3584 
Q 2591 3584 2966 3190 
Q 3341 2797 3341 1997 
z
" transform="scale(0.015625)"/>
       <path id="DejaVuSans-6c" d="M 603 4863 
L 1178 4863 
L 1178 0 
L 603 0 
L 603 4863 
z
" transform="scale(0.015625)"/>
       <path id="DejaVuSans-20" transform="scale(0.015625)"/>
       <path id="DejaVuSans-66" d="M 2375 4863 
L 2375 4384 
L 1825 4384 
Q 1516 4384 1395 4259 
Q 1275 4134 1275 3809 
L 1275 3500 
L 2222 3500 
L 2222 3053 
L 1275 3053 
L 1275 0 
L 697 0 
L 697 3053 
L 147 3053 
L 147 3500 
L 697 3500 
L 697 3744 
Q 697 4328 969 4595 
Q 1241 4863 1831 4863 
L 2375 4863 
z
" transform="scale(0.015625)"/>
       <path id="DejaVuSans-63" d="M 3122 3366 
L 3122 2828 
Q 2878 2963 2633 3030 
Q 2388 3097 2138 3097 
Q 1578 3097 1268 2742 
Q 959 2388 959 1747 
Q 959 1106 1268 751 
Q 1578 397 2138 397 
Q 2388 397 2633 464 
Q 2878 531 3122 666 
L 3122 134 
Q 2881 22 2623 -34 
Q 2366 -91 2075 -91 
Q 1284 -91 818 406 
Q 353 903 353 1747 
Q 353 2603 823 3093 
Q 1294 3584 2113 3584 
Q 2378 3584 2631 3529 
Q 2884 3475 3122 3366 
z
" transform="scale(0.015625)"/>
       <path id="DejaVuSans-65" d="M 3597 1894 
L 3597 1613 
L 953 1613 
Q 991 1019 1311 708 
Q 1631 397 2203 397 
Q 2534 397 2845 478 
Q 3156 559 3463 722 
L 3463 178 
Q 3153 47 2828 -22 
Q 2503 -91 2169 -91 
Q 1331 -91 842 396 
Q 353 884 353 1716 
Q 353 2575 817 3079 
Q 1281 3584 2069 3584 
Q 2775 3584 3186 3129 
Q 3597 2675 3597 1894 
z
M 3022 2063 
Q 3016 2534 2758 2815 
Q 2500 3097 2075 3097 
Q 1594 3097 1305 2825 
Q 1016 2553 972 2059 
L 3022 2063 
z
" transform="scale(0.015625)"/>
       <path id="DejaVuSans-76" d="M 191 3500 
L 800 3500 
L 1894 563 
L 2988 3500 
L 3597 3500 
L 2284 0 
L 1503 0 
L 191 3500 
z
" transform="scale(0.015625)"/>
       <path id="DejaVuSans-75" d="M 544 1381 
L 544 3500 
L 1119 3500 
L 1119 1403 
Q 1119 906 1312 657 
Q 1506 409 1894 409 
Q 2359 409 2629 706 
Q 2900 1003 2900 1516 
L 2900 3500 
L 3475 3500 
L 3475 0 
L 2900 0 
L 2900 538 
Q 2691 219 2414 64 
Q 2138 -91 1772 -91 
Q 1169 -91 856 284 
Q 544 659 544 1381 
z
M 1991 3584 
L 1991 3584 
z
" transform="scale(0.015625)"/>
      </defs>
      <use xlink:href="#DejaVuSans-54"/>
      <use xlink:href="#DejaVuSans-6f" transform="translate(44.083984 0)"/>
      <use xlink:href="#DejaVuSans-74" transform="translate(105.265625 0)"/>
      <use xlink:href="#DejaVuSans-61" transform="translate(144.474609 0)"/>
      <use xlink:href="#DejaVuSans-6c" transform="translate(205.753906 0)"/>
      <use xlink:href="#DejaVuSans-20" transform="translate(233.537109 0)"/>
      <use xlink:href="#DejaVuSans-66" transform="translate(265.324219 0)"/>
      <use xlink:href="#DejaVuSans-61" transform="translate(300.529297 0)"/>
      <use xlink:href="#DejaVuSans-63" transform="translate(361.808594 0)"/>
      <use xlink:href="#DejaVuSans-65" transform="translate(416.789062 0)"/>
      <use xlink:href="#DejaVuSans-20" transform="translate(478.3125 0)"/>
      <use xlink:href="#DejaVuSans-76" transform="translate(510.099609 0)"/>
      <use xlink:href="#DejaVuSans-61" transform="translate(569.279297 0)"/>
      <use xlink:href="#DejaVuSans-6c" transform="translate(630.558594 0)"/>
      <use xlink:href="#DejaVuSans-75" transform="translate(658.341797 0)"/>
      <use xlink:href="#DejaVuSans-65" transform="translate(721.720703 0)"/>
     </g>
    </g>
   </g>
   <g id="matplotlib.axis_2">
    <g id="ytick_1">
     <g id="line2d_13">
      <path d="M 50.14375 385.478125 
L 705.32375 385.478125 
" clip-path="url(#p342086daf3)" style="fill: none; stroke: #b0b0b0; stroke-opacity: 0.3; stroke-width: 0.8; stroke-linecap: square"/>
     </g>
     <g id="line2d_14">
      <defs>
       <path id="m323f169885" d="M 0 0 
L -3.5 0 
" style="stroke: #000000; stroke-width: 0.8"/>
      </defs>
      <g>
       <use xlink:href="#m323f169885" x="50.14375" y="385.478125" style="stroke: #000000; stroke-width: 0.8"/>
      </g>
     </g>
     <g id="text_8">
      <!-- 0.00 -->
      <g transform="translate(20.878125 389.277344) scale(0.1 -0.1)">
       <defs>
        <path id="DejaVuSans-2e" d="M 684 794 
L 1344 794 
L 1344 0 
L 684 0 
L 684 794 
z
" transform="scale(0.015625)"/>
       </defs>
       <use xlink:href="#DejaVuSans-30"/>
       <use xlink:href="#DejaVuSans-2e" transform="translate(63.623047 0)"/>
       <use xlink:href="#DejaVuSans-30" transform="translate(95.410156 0)"/>
       <use xlink:href="#DejaVuSans-30" transform="translate(159.033203 0)"/>
      </g>
     </g>
    </g>
    <g id="ytick_2">
     <g id="line2d_15">
      <path d="M 50.14375 338.740699 
L 705.32375 338.740699 
" clip-path="url(#p342086daf3)" style="fill: none; stroke: #b0b0b0; stroke-opacity: 0.3; stroke-width: 0.8; stroke-linecap: square"/>
     </g>
     <g id="line2d_16">
      <g>
       <use xlink:href="#m323f169885" x="50.14375" y="338.740699" style="stroke: #000000; stroke-width: 0.8"/>
      </g>
     </g>
     <g id="text_9">
      <!-- 0.01 -->
      <g transform="translate(20.878125 342.539918) scale(0.1 -0.1)">
       <use xlink:href="#DejaVuSans-30"/>
       <use xlink:href="#DejaVuSans-2e" transform="translate(63.623047 0)"/>
       <use xlink:href="#DejaVuSans-30" transform="translate(95.410156 0)"/>
       <use xlink:href="#DejaVuSans-31" transform="translate(159.033203 0)"/>
      </g>
     </g>
    </g>
    <g id="ytick_3">
     <g id="line2d_17">
      <path d="M 50.14375 292.003274 
L 705.32375 292.003274 
" clip-path="url(#p342086daf3)" style="fill: none; stroke: #b0b0b0; stroke-opacity: 0.3; stroke-width: 0.8; stroke-linecap: square"/>
     </g>
     <g id="line2d_18">
      <g>
       <use xlink:href="#m323f169885" x="50.14375" y="292.003274" style="stroke: #000000; stroke-width: 0.8"/>
      </g>
     </g>
     <g id="text_10">
      <!-- 0.02 -->
      <g transform="translate(20.878125 295.802493) scale(0.1 -0.1)">
       <use xlink:href="#DejaVuSans-30"/>
       <use xlink:href="#DejaVuSans-2e" transform="translate(63.623047 0)"/>
       <use xlink:href="#DejaVuSans-30" transform="translate(95.410156 0)"/>
       <use xlink:href="#DejaVuSans-32" transform="translate(159.033203 0)"/>
      </g>
     </g>
    </g>
    <g id="ytick_4">
     <g id="line2d_19">
      <path d="M 50.14375 245.265848 
L 705.32375 245.265848 
" clip-path="url(#p342086daf3)" style="fill: none; stroke: #b0b0b0; stroke-opacity: 0.3; stroke-width: 0.8; stroke-linecap: square"/>
     </g>
     <g id="line2d_20">
      <g>
       <use xlink:href="#m323f169885" x="50.14375" y="245.265848" style="stroke: #000000; stroke-width: 0.8"/>
      </g>
     </g>
     <g id="text_11">
      <!-- 0.03 -->
      <g transform="translate(20.878125 249.065067) scale(0.1 -0.1)">
       <use xlink:href="#DejaVuSans-30"/>
       <use xlink:href="#DejaVuSans-2e" transform="translate(63.623047 0)"/>
       <use xlink:href="#DejaVuSans-30" transform="translate(95.410156 0)"/>
       <use xlink:href="#DejaVuSans-33" transform="translate(159.033203 0)"/>
      </g>
     </g>
    </g>
    <g id="ytick_5">
     <g id="line2d_21">
      <path d="M 50.14375 198.528423 
L 705.32375 198.528423 
" clip-path="url(#p342086daf3)" style="fill: none; stroke: #b0b0b0; stroke-opacity: 0.3; stroke-width: 0.8; stroke-linecap: square"/>
     </g>
     <g id="line2d_22">
      <g>
       <use xlink:href="#m323f169885" x="50.14375" y="198.528423" style="stroke: #000000; stroke-width: 0.8"/>
      </g>
     </g>
     <g id="text_12">
      <!-- 0.04 -->
      <g transform="translate(20.878125 202.327642) scale(0.1 -0.1)">
       <use xlink:href="#DejaVuSans-30"/>
       <use xlink:href="#DejaVuSans-2e" transform="translate(63.623047 0)"/>
       <use xlink:href="#DejaVuSans-30" transform="translate(95.410156 0)"/>
       <use xlink:href="#DejaVuSans-34" transform="translate(159.033203 0)"/>
      </g>
     </g>
    </g>
    <g id="ytick_6">
     <g id="line2d_23">
      <path d="M 50.14375 151.790997 
L 705.32375 151.790997 
" clip-path="url(#p342086daf3)" style="fill: none; stroke: #b0b0b0; stroke-opacity: 0.3; stroke-width: 0.8; stroke-linecap: square"/>
     </g>
     <g id="line2d_24">
      <g>
       <use xlink:href="#m323f169885" x="50.14375" y="151.790997" style="stroke: #000000; stroke-width: 0.8"/>
      </g>
     </g>
     <g id="text_13">
      <!-- 0.05 -->
      <g transform="translate(20.878125 155.590216) scale(0.1 -0.1)">
       <use xlink:href="#DejaVuSans-30"/>
       <use xlink:href="#DejaVuSans-2e" transform="translate(63.623047 0)"/>
       <use xlink:href="#DejaVuSans-30" transform="translate(95.410156 0)"/>
       <use xlink:href="#DejaVuSans-35" transform="translate(159.033203 0)"/>
      </g>
     </g>
    </g>
    <g id="ytick_7">
     <g id="line2d_25">
      <path d="M 50.14375 105.053572 
L 705.32375 105.053572 
" clip-path="url(#p342086daf3)" style="fill: none; stroke: #b0b0b0; stroke-opacity: 0.3; stroke-width: 0.8; stroke-linecap: square"/>
     </g>
     <g id="line2d_26">
      <g>
       <use xlink:href="#m323f169885" x="50.14375" y="105.053572" style="stroke: #000000; stroke-width: 0.8"/>
      </g>
     </g>
     <g id="text_14">
      <!-- 0.06 -->
      <g transform="translate(20.878125 108.852791) scale(0.1 -0.1)">
       <use xlink:href="#DejaVuSans-30"/>
       <use xlink:href="#DejaVuSans-2e" transform="translate(63.623047 0)"/>
       <use xlink:href="#DejaVuSans-30" transform="translate(95.410156 0)"/>
       <use xlink:href="#DejaVuSans-36" transform="translate(159.033203 0)"/>
      </g>
     </g>
    </g>
    <g id="ytick_8">
     <g id="line2d_27">
      <path d="M 50.14375 58.316146 
L 705.32375 58.316146 
" clip-path="url(#p342086daf3)" style="fill: none; stroke: #b0b0b0; stroke-opacity: 0.3; stroke-width: 0.8; stroke-linecap: square"/>
     </g>
     <g id="line2d_28">
      <g>
       <use xlink:href="#m323f169885" x="50.14375" y="58.316146" style="stroke: #000000; stroke-width: 0.8"/>
      </g>
     </g>
     <g id="text_15">
      <!-- 0.07 -->
      <g transform="translate(20.878125 62.115365) scale(0.1 -0.1)">
       <defs>
        <path id="DejaVuSans-37" d="M 525 4666 
L 3525 4666 
L 3525 4397 
L 1831 0 
L 1172 0 
L 2766 4134 
L 525 4134 
L 525 4666 
z
" transform="scale(0.015625)"/>
       </defs>
       <use xlink:href="#DejaVuSans-30"/>
       <use xlink:href="#DejaVuSans-2e" transform="translate(63.623047 0)"/>
       <use xlink:href="#DejaVuSans-30" transform="translate(95.410156 0)"/>
       <use xlink:href="#DejaVuSans-37" transform="translate(159.033203 0)"/>
      </g>
     </g>
    </g>
    <g id="text_16">
     <!-- Probability density -->
     <g transform="translate(14.798438 250.248906) rotate(-90) scale(0.1 -0.1)">
      <defs>
       <path id="DejaVuSans-50" d="M 1259 4147 
L 1259 2394 
L 2053 2394 
Q 2494 2394 2734 2622 
Q 2975 2850 2975 3272 
Q 2975 3691 2734 3919 
Q 2494 4147 2053 4147 
L 1259 4147 
z
M 628 4666 
L 2053 4666 
Q 2838 4666 3239 4311 
Q 3641 3956 3641 3272 
Q 3641 2581 3239 2228 
Q 2838 1875 2053 1875 
L 1259 1875 
L 1259 0 
L 628 0 
L 628 4666 
z
" transform="scale(0.015625)"/>
       <path id="DejaVuSans-72" d="M 2631 2963 
Q 2534 3019 2420 3045 
Q 2306 3072 2169 3072 
Q 1681 3072 1420 2755 
Q 1159 2438 1159 1844 
L 1159 0 
L 581 0 
L 581 3500 
L 1159 3500 
L 1159 2956 
Q 1341 3275 1631 3429 
Q 1922 3584 2338 3584 
Q 2397 3584 2469 3576 
Q 2541 3569 2628 3553 
L 2631 2963 
z
" transform="scale(0.015625)"/>
       <path id="DejaVuSans-62" d="M 3116 1747 
Q 3116 2381 2855 2742 
Q 2594 3103 2138 3103 
Q 1681 3103 1420 2742 
Q 1159 2381 1159 1747 
Q 1159 1113 1420 752 
Q 1681 391 2138 391 
Q 2594 391 2855 752 
Q 3116 1113 3116 1747 
z
M 1159 2969 
Q 1341 3281 1617 3432 
Q 1894 3584 2278 3584 
Q 2916 3584 3314 3078 
Q 3713 2572 3713 1747 
Q 3713 922 3314 415 
Q 2916 -91 2278 -91 
Q 1894 -91 1617 61 
Q 1341 213 1159 525 
L 1159 0 
L 581 0 
L 581 4863 
L 1159 4863 
L 1159 2969 
z
" transform="scale(0.015625)"/>
       <path id="DejaVuSans-69" d="M 603 3500 
L 1178 3500 
L 1178 0 
L 603 0 
L 603 3500 
z
M 603 4863 
L 1178 4863 
L 1178 4134 
L 603 4134 
L 603 4863 
z
" transform="scale(0.015625)"/>
       <path id="DejaVuSans-79" d="M 2059 -325 
Q 1816 -950 1584 -1140 
Q 1353 -1331 966 -1331 
L 506 -1331 
L 506 -850 
L 844 -850 
Q 1081 -850 1212 -737 
Q 1344 -625 1503 -206 
L 1606 56 
L 191 3500 
L 800 3500 
L 1894 763 
L 2988 3500 
L 3597 3500 
L 2059 -325 
z
" transform="scale(0.015625)"/>
       <path id="DejaVuSans-64" d="M 2906 2969 
L 2906 4863 
L 3481 4863 
L 3481 0 
L 2906 0 
L 2906 525 
Q 2725 213 2448 61 
Q 2172 -91 1784 -91 
Q 1150 -91 751 415 
Q 353 922 353 1747 
Q 353 2572 751 3078 
Q 1150 3584 1784 3584 
Q 2172 3584 2448 3432 
Q 2725 3281 2906 2969 
z
M 947 1747 
Q 947 1113 1208 752 
Q 1469 391 1925 391 
Q 2381 391 2643 752 
Q 2906 1113 2906 1747 
Q 2906 2381 2643 2742 
Q 2381 3103 1925 3103 
Q 1469 3103 1208 2742 
Q 947 2381 947 1747 
z
" transform="scale(0.015625)"/>
       <path id="DejaVuSans-6e" d="M 3513 2113 
L 3513 0 
L 2938 0 
L 2938 2094 
Q 2938 2591 2744 2837 
Q 2550 3084 2163 3084 
Q 1697 3084 1428 2787 
Q 1159 2491 1159 1978 
L 1159 0 
L 581 0 
L 581 3500 
L 1159 3500 
L 1159 2956 
Q 1366 3272 1645 3428 
Q 1925 3584 2291 3584 
Q 2894 3584 3203 3211 
Q 3513 2838 3513 2113 
z
" transform="scale(0.015625)"/>
       <path id="DejaVuSans-73" d="M 2834 3397 
L 2834 2853 
Q 2591 2978 2328 3040 
Q 2066 3103 1784 3103 
Q 1356 3103 1142 2972 
Q 928 2841 928 2578 
Q 928 2378 1081 2264 
Q 1234 2150 1697 2047 
L 1894 2003 
Q 2506 1872 2764 1633 
Q 3022 1394 3022 966 
Q 3022 478 2636 193 
Q 2250 -91 1575 -91 
Q 1294 -91 989 -36 
Q 684 19 347 128 
L 347 722 
Q 666 556 975 473 
Q 1284 391 1588 391 
Q 1994 391 2212 530 
Q 2431 669 2431 922 
Q 2431 1156 2273 1281 
Q 2116 1406 1581 1522 
L 1381 1569 
Q 847 1681 609 1914 
Q 372 2147 372 2553 
Q 372 3047 722 3315 
Q 1072 3584 1716 3584 
Q 2034 3584 2315 3537 
Q 2597 3491 2834 3397 
z
" transform="scale(0.015625)"/>
      </defs>
      <use xlink:href="#DejaVuSans-50"/>
      <use xlink:href="#DejaVuSans-72" transform="translate(58.552734 0)"/>
      <use xlink:href="#DejaVuSans-6f" transform="translate(97.416016 0)"/>
      <use xlink:href="#DejaVuSans-62" transform="translate(158.597656 0)"/>
      <use xlink:href="#DejaVuSans-61" transform="translate(222.074219 0)"/>
      <use xlink:href="#DejaVuSans-62" transform="translate(283.353516 0)"/>
      <use xlink:href="#DejaVuSans-69" transform="translate(346.830078 0)"/>
      <use xlink:href="#DejaVuSans-6c" transform="translate(374.613281 0)"/>
      <use xlink:href="#DejaVuSans-69" transform="translate(402.396484 0)"/>
      <use xlink:href="#DejaVuSans-74" transform="translate(430.179688 0)"/>
      <use xlink:href="#DejaVuSans-79" transform="translate(469.388672 0)"/>
      <use xlink:href="#DejaVuSans-20" transform="translate(528.568359 0)"/>
      <use xlink:href="#DejaVuSans-64" transform="translate(560.355469 0)"/>
      <use xlink:href="#DejaVuSans-65" transform="translate(623.832031 0)"/>
      <use xlink:href="#DejaVuSans-6e" transform="translate(685.355469 0)"/>
      <use xlink:href="#DejaVuSans-73" transform="translate(748.734375 0)"/>
      <use xlink:href="#DejaVuSans-69" transform="translate(800.833984 0)"/>
      <use xlink:href="#DejaVuSans-74" transform="translate(828.617188 0)"/>
      <use xlink:href="#DejaVuSans-79" transform="translate(867.826172 0)"/>
     </g>
    </g>
   </g>
   <g id="line2d_29">
    <path d="M 85.764053 385.47061 
L 127.891945 385.344672 
L 145.445234 385.090394 
L 157.147426 384.72203 
L 166.50918 384.219749 
L 174.700714 383.54832 
L 181.72203 382.731271 
L 187.573126 381.826568 
L 193.424222 380.665639 
L 198.105099 379.513517 
L 202.785976 378.126324 
L 207.466853 376.466462 
L 210.97751 375.017975 
L 214.488168 373.374358 
L 217.998826 371.515958 
L 221.509483 369.422222 
L 225.020141 367.071834 
L 228.530799 364.442885 
L 232.041456 361.513076 
L 235.552114 358.259962 
L 239.062772 354.661225 
L 242.573429 350.69499 
L 246.084087 346.340169 
L 249.594745 341.576842 
L 253.105402 336.386668 
L 256.61606 330.753314 
L 260.126718 324.662907 
L 263.637375 318.1045 
L 267.148033 311.070541 
L 270.658691 303.557335 
L 274.169348 295.565494 
L 277.680006 287.100365 
L 281.190664 278.172425 
L 285.871541 265.576963 
L 290.552418 252.241581 
L 295.233295 238.239181 
L 301.084391 219.940784 
L 308.105706 197.116423 
L 327.999433 131.614583 
L 332.68031 117.070646 
L 337.361187 103.25782 
L 340.871844 93.494782 
L 344.382502 84.33182 
L 347.89316 75.845549 
L 351.403817 68.108472 
L 353.744256 63.400145 
L 356.084694 59.073343 
L 358.425133 55.145222 
L 360.765571 51.631495 
L 363.10601 48.546326 
L 365.446448 45.902235 
L 367.786887 43.710016 
L 370.127325 41.978659 
L 372.467763 40.715294 
L 374.808202 39.925137 
L 375.978421 39.708611 
L 377.14864 39.611458 
L 378.31886 39.633781 
L 379.489079 39.775556 
L 380.659298 40.036637 
L 381.829517 40.416752 
L 384.169956 41.53239 
L 386.510394 43.117861 
L 388.850833 45.166631 
L 391.191271 47.670284 
L 393.53171 50.618586 
L 395.872148 53.999547 
L 398.212586 57.799509 
L 400.553025 62.003234 
L 402.893463 66.594005 
L 405.233902 71.55374 
L 408.744559 79.642555 
L 412.255217 88.447943 
L 415.765875 97.895388 
L 419.276533 107.906742 
L 423.957409 121.992676 
L 429.808506 140.510788 
L 436.829821 163.567175 
L 452.042671 213.831589 
L 457.893767 232.375778 
L 462.574644 246.624066 
L 467.255521 260.240542 
L 471.936398 273.144404 
L 476.617275 285.274143 
L 480.127932 293.836941 
L 483.63859 301.928204 
L 487.149248 309.541543 
L 490.659905 316.675392 
L 494.170563 323.332583 
L 497.681221 329.519903 
L 501.191878 335.247627 
L 504.702536 340.529055 
L 508.213194 345.380045 
L 511.723851 349.818556 
L 515.234509 353.864213 
L 518.745167 357.537891 
L 522.255824 360.861332 
L 525.766482 363.856787 
L 529.27714 366.5467 
L 532.787797 368.953421 
L 536.298455 371.098959 
L 539.809113 373.004768 
L 543.319771 374.691572 
L 546.830428 376.179224 
L 551.511305 377.885423 
L 556.192182 379.312737 
L 560.873059 380.499334 
L 565.553936 381.479721 
L 571.405032 382.461896 
L 577.256128 383.222375 
L 584.277443 383.90439 
L 592.468978 384.460271 
L 601.830732 384.872223 
L 614.703143 385.191735 
L 632.256432 385.381761 
L 665.02257 385.467879 
L 669.703447 385.470849 
L 669.703447 385.470849 
" clip-path="url(#p342086daf3)" style="fill: none; stroke: #ff7f0e; stroke-opacity: 0.4; stroke-width: 2; stroke-linecap: square"/>
   </g>
   <g id="patch_54">
    <path d="M 50.14375 385.478125 
L 50.14375 22.318125 
" style="fill: none; stroke: #000000; stroke-width: 0.8; stroke-linejoin: miter; stroke-linecap: square"/>
   </g>
   <g id="patch_55">
    <path d="M 705.32375 385.478125 
L 705.32375 22.318125 
" style="fill: none; stroke: #000000; stroke-width: 0.8; stroke-linejoin: miter; stroke-linecap: square"/>
   </g>
   <g id="patch_56">
    <path d="M 50.14375 385.478125 
L 705.32375 385.478125 
" style="fill: none; stroke: #000000; stroke-width: 0.8; stroke-linejoin: miter; stroke-linecap: square"/>
   </g>
   <g id="patch_57">
    <path d="M 50.14375 22.318125 
L 705.32375 22.318125 
" style="fill: none; stroke: #000000; stroke-width: 0.8; stroke-linejoin: miter; stroke-linecap: square"/>
   </g>
   <g id="text_17">
    <!-- Histogram of total face value for 10 dice -->
    <g transform="translate(256.236563 16.318125) scale(0.12 -0.12)">
     <defs>
      <path id="DejaVuSans-48" d="M 628 4666 
L 1259 4666 
L 1259 2753 
L 3553 2753 
L 3553 4666 
L 4184 4666 
L 4184 0 
L 3553 0 
L 3553 2222 
L 1259 2222 
L 1259 0 
L 628 0 
L 628 4666 
z
" transform="scale(0.015625)"/>
      <path id="DejaVuSans-67" d="M 2906 1791 
Q 2906 2416 2648 2759 
Q 2391 3103 1925 3103 
Q 1463 3103 1205 2759 
Q 947 2416 947 1791 
Q 947 1169 1205 825 
Q 1463 481 1925 481 
Q 2391 481 2648 825 
Q 2906 1169 2906 1791 
z
M 3481 434 
Q 3481 -459 3084 -895 
Q 2688 -1331 1869 -1331 
Q 1566 -1331 1297 -1286 
Q 1028 -1241 775 -1147 
L 775 -588 
Q 1028 -725 1275 -790 
Q 1522 -856 1778 -856 
Q 2344 -856 2625 -561 
Q 2906 -266 2906 331 
L 2906 616 
Q 2728 306 2450 153 
Q 2172 0 1784 0 
Q 1141 0 747 490 
Q 353 981 353 1791 
Q 353 2603 747 3093 
Q 1141 3584 1784 3584 
Q 2172 3584 2450 3431 
Q 2728 3278 2906 2969 
L 2906 3500 
L 3481 3500 
L 3481 434 
z
" transform="scale(0.015625)"/>
      <path id="DejaVuSans-6d" d="M 3328 2828 
Q 3544 3216 3844 3400 
Q 4144 3584 4550 3584 
Q 5097 3584 5394 3201 
Q 5691 2819 5691 2113 
L 5691 0 
L 5113 0 
L 5113 2094 
Q 5113 2597 4934 2840 
Q 4756 3084 4391 3084 
Q 3944 3084 3684 2787 
Q 3425 2491 3425 1978 
L 3425 0 
L 2847 0 
L 2847 2094 
Q 2847 2600 2669 2842 
Q 2491 3084 2119 3084 
Q 1678 3084 1418 2786 
Q 1159 2488 1159 1978 
L 1159 0 
L 581 0 
L 581 3500 
L 1159 3500 
L 1159 2956 
Q 1356 3278 1631 3431 
Q 1906 3584 2284 3584 
Q 2666 3584 2933 3390 
Q 3200 3197 3328 2828 
z
" transform="scale(0.015625)"/>
     </defs>
     <use xlink:href="#DejaVuSans-48"/>
     <use xlink:href="#DejaVuSans-69" transform="translate(75.195312 0)"/>
     <use xlink:href="#DejaVuSans-73" transform="translate(102.978516 0)"/>
     <use xlink:href="#DejaVuSans-74" transform="translate(155.078125 0)"/>
     <use xlink:href="#DejaVuSans-6f" transform="translate(194.287109 0)"/>
     <use xlink:href="#DejaVuSans-67" transform="translate(255.46875 0)"/>
     <use xlink:href="#DejaVuSans-72" transform="translate(318.945312 0)"/>
     <use xlink:href="#DejaVuSans-61" transform="translate(360.058594 0)"/>
     <use xlink:href="#DejaVuSans-6d" transform="translate(421.337891 0)"/>
     <use xlink:href="#DejaVuSans-20" transform="translate(518.75 0)"/>
     <use xlink:href="#DejaVuSans-6f" transform="translate(550.537109 0)"/>
     <use xlink:href="#DejaVuSans-66" transform="translate(611.71875 0)"/>
     <use xlink:href="#DejaVuSans-20" transform="translate(646.923828 0)"/>
     <use xlink:href="#DejaVuSans-74" transform="translate(678.710938 0)"/>
     <use xlink:href="#DejaVuSans-6f" transform="translate(717.919922 0)"/>
     <use xlink:href="#DejaVuSans-74" transform="translate(779.101562 0)"/>
     <use xlink:href="#DejaVuSans-61" transform="translate(818.310547 0)"/>
     <use xlink:href="#DejaVuSans-6c" transform="translate(879.589844 0)"/>
     <use xlink:href="#DejaVuSans-20" transform="translate(907.373047 0)"/>
     <use xlink:href="#DejaVuSans-66" transform="translate(939.160156 0)"/>
     <use xlink:href="#DejaVuSans-61" transform="translate(974.365234 0)"/>
     <use xlink:href="#DejaVuSans-63" transform="translate(1035.644531 0)"/>
     <use xlink:href="#DejaVuSans-65" transform="translate(1090.625 0)"/>
     <use xlink:href="#DejaVuSans-20" transform="translate(1152.148438 0)"/>
     <use xlink:href="#DejaVuSans-76" transform="translate(1183.935547 0)"/>
     <use xlink:href="#DejaVuSans-61" transform="translate(1243.115234 0)"/>
     <use xlink:href="#DejaVuSans-6c" transform="translate(1304.394531 0)"/>
     <use xlink:href="#DejaVuSans-75" transform="translate(1332.177734 0)"/>
     <use xlink:href="#DejaVuSans-65" transform="translate(1395.556641 0)"/>
     <use xlink:href="#DejaVuSans-20" transform="translate(1457.080078 0)"/>
     <use xlink:href="#DejaVuSans-66" transform="translate(1488.867188 0)"/>
     <use xlink:href="#DejaVuSans-6f" transform="translate(1524.072266 0)"/>
     <use xlink:href="#DejaVuSans-72" transform="translate(1585.253906 0)"/>
     <use xlink:href="#DejaVuSans-20" transform="translate(1626.367188 0)"/>
     <use xlink:href="#DejaVuSans-31" transform="translate(1658.154297 0)"/>
     <use xlink:href="#DejaVuSans-30" transform="translate(1721.777344 0)"/>
     <use xlink:href="#DejaVuSans-20" transform="translate(1785.400391 0)"/>
     <use xlink:href="#DejaVuSans-64" transform="translate(1817.1875 0)"/>
     <use xlink:href="#DejaVuSans-69" transform="translate(1880.664062 0)"/>
     <use xlink:href="#DejaVuSans-63" transform="translate(1908.447266 0)"/>
     <use xlink:href="#DejaVuSans-65" transform="translate(1963.427734 0)"/>
    </g>
   </g>
   <g id="legend_1">
    <g id="patch_58">
     <path d="M 510.762813 59.674375 
L 698.32375 59.674375 
Q 700.32375 59.674375 700.32375 57.674375 
L 700.32375 29.318125 
Q 700.32375 27.318125 698.32375 27.318125 
L 510.762813 27.318125 
Q 508.762813 27.318125 508.762813 29.318125 
L 508.762813 57.674375 
Q 508.762813 59.674375 510.762813 59.674375 
z
" style="fill: #ffffff; opacity: 0.8; stroke: #cccccc; stroke-linejoin: miter"/>
    </g>
    <g id="patch_59">
     <path d="M 512.762813 38.916562 
L 532.762813 38.916562 
L 532.762813 31.916562 
L 512.762813 31.916562 
z
" style="fill: #1f77b4; opacity: 0.1; stroke: #000000; stroke-linejoin: miter"/>
    </g>
    <g id="text_18">
     <!-- Simulated histogram -->
     <g transform="translate(540.762813 38.916562) scale(0.1 -0.1)">
      <defs>
       <path id="DejaVuSans-53" d="M 3425 4513 
L 3425 3897 
Q 3066 4069 2747 4153 
Q 2428 4238 2131 4238 
Q 1616 4238 1336 4038 
Q 1056 3838 1056 3469 
Q 1056 3159 1242 3001 
Q 1428 2844 1947 2747 
L 2328 2669 
Q 3034 2534 3370 2195 
Q 3706 1856 3706 1288 
Q 3706 609 3251 259 
Q 2797 -91 1919 -91 
Q 1588 -91 1214 -16 
Q 841 59 441 206 
L 441 856 
Q 825 641 1194 531 
Q 1563 422 1919 422 
Q 2459 422 2753 634 
Q 3047 847 3047 1241 
Q 3047 1584 2836 1778 
Q 2625 1972 2144 2069 
L 1759 2144 
Q 1053 2284 737 2584 
Q 422 2884 422 3419 
Q 422 4038 858 4394 
Q 1294 4750 2059 4750 
Q 2388 4750 2728 4690 
Q 3069 4631 3425 4513 
z
" transform="scale(0.015625)"/>
       <path id="DejaVuSans-68" d="M 3513 2113 
L 3513 0 
L 2938 0 
L 2938 2094 
Q 2938 2591 2744 2837 
Q 2550 3084 2163 3084 
Q 1697 3084 1428 2787 
Q 1159 2491 1159 1978 
L 1159 0 
L 581 0 
L 581 4863 
L 1159 4863 
L 1159 2956 
Q 1366 3272 1645 3428 
Q 1925 3584 2291 3584 
Q 2894 3584 3203 3211 
Q 3513 2838 3513 2113 
z
" transform="scale(0.015625)"/>
      </defs>
      <use xlink:href="#DejaVuSans-53"/>
      <use xlink:href="#DejaVuSans-69" transform="translate(63.476562 0)"/>
      <use xlink:href="#DejaVuSans-6d" transform="translate(91.259766 0)"/>
      <use xlink:href="#DejaVuSans-75" transform="translate(188.671875 0)"/>
      <use xlink:href="#DejaVuSans-6c" transform="translate(252.050781 0)"/>
      <use xlink:href="#DejaVuSans-61" transform="translate(279.833984 0)"/>
      <use xlink:href="#DejaVuSans-74" transform="translate(341.113281 0)"/>
      <use xlink:href="#DejaVuSans-65" transform="translate(380.322266 0)"/>
      <use xlink:href="#DejaVuSans-64" transform="translate(441.845703 0)"/>
      <use xlink:href="#DejaVuSans-20" transform="translate(505.322266 0)"/>
      <use xlink:href="#DejaVuSans-68" transform="translate(537.109375 0)"/>
      <use xlink:href="#DejaVuSans-69" transform="translate(600.488281 0)"/>
      <use xlink:href="#DejaVuSans-73" transform="translate(628.271484 0)"/>
      <use xlink:href="#DejaVuSans-74" transform="translate(680.371094 0)"/>
      <use xlink:href="#DejaVuSans-6f" transform="translate(719.580078 0)"/>
      <use xlink:href="#DejaVuSans-67" transform="translate(780.761719 0)"/>
      <use xlink:href="#DejaVuSans-72" transform="translate(844.238281 0)"/>
      <use xlink:href="#DejaVuSans-61" transform="translate(885.351562 0)"/>
      <use xlink:href="#DejaVuSans-6d" transform="translate(946.630859 0)"/>
     </g>
    </g>
    <g id="line2d_30">
     <path d="M 512.762813 50.094687 
L 522.762813 50.094687 
L 532.762813 50.094687 
" style="fill: none; stroke: #ff7f0e; stroke-opacity: 0.4; stroke-width: 2; stroke-linecap: square"/>
    </g>
    <g id="text_19">
     <!-- Normal fit: μ=34.981, σ=5.391 -->
     <g transform="translate(540.762813 53.594687) scale(0.1 -0.1)">
      <defs>
       <path id="DejaVuSans-4e" d="M 628 4666 
L 1478 4666 
L 3547 763 
L 3547 4666 
L 4159 4666 
L 4159 0 
L 3309 0 
L 1241 3903 
L 1241 0 
L 628 0 
L 628 4666 
z
" transform="scale(0.015625)"/>
       <path id="DejaVuSans-3a" d="M 750 794 
L 1409 794 
L 1409 0 
L 750 0 
L 750 794 
z
M 750 3309 
L 1409 3309 
L 1409 2516 
L 750 2516 
L 750 3309 
z
" transform="scale(0.015625)"/>
       <path id="DejaVuSans-3bc" d="M 544 -1331 
L 544 3500 
L 1119 3500 
L 1119 1325 
Q 1119 872 1334 640 
Q 1550 409 1972 409 
Q 2434 409 2667 671 
Q 2900 934 2900 1459 
L 2900 3500 
L 3475 3500 
L 3475 806 
Q 3475 619 3529 530 
Q 3584 441 3700 441 
Q 3728 441 3778 458 
Q 3828 475 3916 513 
L 3916 50 
Q 3788 -22 3673 -56 
Q 3559 -91 3450 -91 
Q 3234 -91 3106 31 
Q 2978 153 2931 403 
Q 2775 156 2548 32 
Q 2322 -91 2016 -91 
Q 1697 -91 1473 31 
Q 1250 153 1119 397 
L 1119 -1331 
L 544 -1331 
z
" transform="scale(0.015625)"/>
       <path id="DejaVuSans-3d" d="M 678 2906 
L 4684 2906 
L 4684 2381 
L 678 2381 
L 678 2906 
z
M 678 1631 
L 4684 1631 
L 4684 1100 
L 678 1100 
L 678 1631 
z
" transform="scale(0.015625)"/>
       <path id="DejaVuSans-39" d="M 703 97 
L 703 672 
Q 941 559 1184 500 
Q 1428 441 1663 441 
Q 2288 441 2617 861 
Q 2947 1281 2994 2138 
Q 2813 1869 2534 1725 
Q 2256 1581 1919 1581 
Q 1219 1581 811 2004 
Q 403 2428 403 3163 
Q 403 3881 828 4315 
Q 1253 4750 1959 4750 
Q 2769 4750 3195 4129 
Q 3622 3509 3622 2328 
Q 3622 1225 3098 567 
Q 2575 -91 1691 -91 
Q 1453 -91 1209 -44 
Q 966 3 703 97 
z
M 1959 2075 
Q 2384 2075 2632 2365 
Q 2881 2656 2881 3163 
Q 2881 3666 2632 3958 
Q 2384 4250 1959 4250 
Q 1534 4250 1286 3958 
Q 1038 3666 1038 3163 
Q 1038 2656 1286 2365 
Q 1534 2075 1959 2075 
z
" transform="scale(0.015625)"/>
       <path id="DejaVuSans-38" d="M 2034 2216 
Q 1584 2216 1326 1975 
Q 1069 1734 1069 1313 
Q 1069 891 1326 650 
Q 1584 409 2034 409 
Q 2484 409 2743 651 
Q 3003 894 3003 1313 
Q 3003 1734 2745 1975 
Q 2488 2216 2034 2216 
z
M 1403 2484 
Q 997 2584 770 2862 
Q 544 3141 544 3541 
Q 544 4100 942 4425 
Q 1341 4750 2034 4750 
Q 2731 4750 3128 4425 
Q 3525 4100 3525 3541 
Q 3525 3141 3298 2862 
Q 3072 2584 2669 2484 
Q 3125 2378 3379 2068 
Q 3634 1759 3634 1313 
Q 3634 634 3220 271 
Q 2806 -91 2034 -91 
Q 1263 -91 848 271 
Q 434 634 434 1313 
Q 434 1759 690 2068 
Q 947 2378 1403 2484 
z
M 1172 3481 
Q 1172 3119 1398 2916 
Q 1625 2713 2034 2713 
Q 2441 2713 2670 2916 
Q 2900 3119 2900 3481 
Q 2900 3844 2670 4047 
Q 2441 4250 2034 4250 
Q 1625 4250 1398 4047 
Q 1172 3844 1172 3481 
z
" transform="scale(0.015625)"/>
       <path id="DejaVuSans-2c" d="M 750 794 
L 1409 794 
L 1409 256 
L 897 -744 
L 494 -744 
L 750 256 
L 750 794 
z
" transform="scale(0.015625)"/>
       <path id="DejaVuSans-3c3" d="M 1959 3044 
Q 1484 3044 1228 2700 
Q 959 2341 959 1747 
Q 959 1119 1226 758 
Q 1494 397 1959 397 
Q 2419 397 2687 759 
Q 2956 1122 2956 1747 
Q 2956 2319 2688 2700 
Q 2441 3044 1959 3044 
z
M 1959 3500 
L 3869 3500 
L 3869 2925 
L 3225 2925 
Q 3566 2438 3566 1747 
Q 3566 888 3138 400 
Q 2709 -91 1959 -91 
Q 1206 -91 781 400 
Q 353 888 353 1747 
Q 353 2613 781 3097 
Q 1134 3500 1959 3500 
z
" transform="scale(0.015625)"/>
      </defs>
      <use xlink:href="#DejaVuSans-4e"/>
      <use xlink:href="#DejaVuSans-6f" transform="translate(74.804688 0)"/>
      <use xlink:href="#DejaVuSans-72" transform="translate(135.986328 0)"/>
      <use xlink:href="#DejaVuSans-6d" transform="translate(175.349609 0)"/>
      <use xlink:href="#DejaVuSans-61" transform="translate(272.761719 0)"/>
      <use xlink:href="#DejaVuSans-6c" transform="translate(334.041016 0)"/>
      <use xlink:href="#DejaVuSans-20" transform="translate(361.824219 0)"/>
      <use xlink:href="#DejaVuSans-66" transform="translate(393.611328 0)"/>
      <use xlink:href="#DejaVuSans-69" transform="translate(428.816406 0)"/>
      <use xlink:href="#DejaVuSans-74" transform="translate(456.599609 0)"/>
      <use xlink:href="#DejaVuSans-3a" transform="translate(495.808594 0)"/>
      <use xlink:href="#DejaVuSans-20" transform="translate(529.5 0)"/>
      <use xlink:href="#DejaVuSans-3bc" transform="translate(561.287109 0)"/>
      <use xlink:href="#DejaVuSans-3d" transform="translate(624.910156 0)"/>
      <use xlink:href="#DejaVuSans-33" transform="translate(708.699219 0)"/>
      <use xlink:href="#DejaVuSans-34" transform="translate(772.322266 0)"/>
      <use xlink:href="#DejaVuSans-2e" transform="translate(835.945312 0)"/>
      <use xlink:href="#DejaVuSans-39" transform="translate(867.732422 0)"/>
      <use xlink:href="#DejaVuSans-38" transform="translate(931.355469 0)"/>
      <use xlink:href="#DejaVuSans-31" transform="translate(994.978516 0)"/>
      <use xlink:href="#DejaVuSans-2c" transform="translate(1058.601562 0)"/>
      <use xlink:href="#DejaVuSans-20" transform="translate(1090.388672 0)"/>
      <use xlink:href="#DejaVuSans-3c3" transform="translate(1122.175781 0)"/>
      <use xlink:href="#DejaVuSans-3d" transform="translate(1185.554688 0)"/>
      <use xlink:href="#DejaVuSans-35" transform="translate(1269.34375 0)"/>
      <use xlink:href="#DejaVuSans-2e" transform="translate(1332.966797 0)"/>
      <use xlink:href="#DejaVuSans-33" transform="translate(1364.753906 0)"/>
      <use xlink:href="#DejaVuSans-39" transform="translate(1428.376953 0)"/>
      <use xlink:href="#DejaVuSans-31" transform="translate(1492 0)"/>
     </g>
    </g>
   </g>
  </g>
 </g>
 <defs>
  <clipPath id="p342086daf3">
   <rect x="50.14375" y="22.318125" width="655.18" height="363.16"/>
  </clipPath>
 </defs>
</svg>
