<?xml version="1.0" encoding="UTF-8" standalone="no"?>
<!-- Created with Inkscape (http://www.inkscape.org/) -->

<svg
   width="4.0012298in"
   height="4.5058117in"
   viewBox="0 0 101.63124 114.44761"
   version="1.1"
   id="svg5"
   inkscape:version="1.4.2 (ebf0e940, 2025-05-08)"
   sodipodi:docname="changeInSmallSteps.svg"
   xmlns:inkscape="http://www.inkscape.org/namespaces/inkscape"
   xmlns:sodipodi="http://sodipodi.sourceforge.net/DTD/sodipodi-0.dtd"
   xmlns="http://www.w3.org/2000/svg"
   xmlns:svg="http://www.w3.org/2000/svg"
   xmlns:ns3="http://www.iki.fi/pav/software/textext/">
  <sodipodi:namedview
     id="namedview7"
     pagecolor="#ffffff"
     bordercolor="#000000"
     borderopacity="0.25"
     inkscape:showpageshadow="2"
     inkscape:pageopacity="0.0"
     inkscape:pagecheckerboard="0"
     inkscape:deskcolor="#d1d1d1"
     inkscape:document-units="mm"
     showgrid="false"
     inkscape:zoom="1.1376503"
     inkscape:cx="248.75834"
     inkscape:cy="334.0218"
     inkscape:window-width="1496"
     inkscape:window-height="905"
     inkscape:window-x="191"
     inkscape:window-y="299"
     inkscape:window-maximized="0"
     inkscape:current-layer="layer2" />
  <defs
     id="defs2">
    <marker
       style="overflow:visible"
       id="TriangleStart"
       refX="0"
       refY="0"
       orient="auto-start-reverse"
       inkscape:stockid="TriangleStart"
       markerWidth="5.3244081"
       markerHeight="6.155385"
       viewBox="0 0 5.3244081 6.1553851"
       inkscape:isstock="true"
       inkscape:collect="always"
       preserveAspectRatio="xMidYMid">
      <path
         transform="scale(0.5)"
         style="fill:context-stroke;fill-rule:evenodd;stroke:context-stroke;stroke-width:1pt"
         d="M 5.77,0 -2.88,5 V -5 Z"
         id="path135" />
    </marker>
  </defs>
  <g
     inkscape:groupmode="layer"
     id="layer2"
     inkscape:label="background"
     transform="translate(-11.2158, -45.7176)">
    <g
       id="g6856"
       transform="matrix(0.67227383,0,0,0.67227383,85.038047,100.29742)"
       ns3:version="1.12.0"
       ns3:texconverter="pdflatex"
       ns3:pdfconverter="inkscape"
       ns3:text="$\\theta$"
       ns3:preamble="/Users/yurydeshko/Library/Application Support/org.inkscape.Inkscape/config/inkscape/extensions/textext/default_packages.tex"
       ns3:scale="1.1670629193005304"
       ns3:alignment="middle center"
       ns3:inkscapeversion="1.2"
       ns3:jacobian_sqrt="0.411714">
      <defs
         id="defs8905">
        <g
           id="g1630">
          <g
             id="g9063">
            <path
               d="m 4.53125,-4.984375 c 0,-0.65625 -0.171875,-2.046875 -1.1875,-2.046875 -1.390625,0 -2.921875,2.8125 -2.921875,5.09375 0,0.9375 0.28125,2.046875 1.1875,2.046875 1.40625,0 2.921875,-2.859375 2.921875,-5.09375 z M 1.46875,-3.625 C 1.640625,-4.25 1.84375,-5.046875 2.25,-5.765625 2.515625,-6.25 2.875,-6.8125 3.328125,-6.8125 c 0.484375,0 0.546875,0.640625 0.546875,1.203125 0,0.5 -0.078125,1 -0.3125,1.984375 z m 2,0.328125 C 3.359375,-2.84375 3.15625,-2 2.765625,-1.28125 c -0.34375,0.6875 -0.71875,1.171875 -1.15625,1.171875 -0.328125,0 -0.53125,-0.296875 -0.53125,-1.21875 0,-0.421875 0.0625,-1 0.3125,-1.96875 z m 0,0"
               id="path1233" />
          </g>
        </g>
      </defs>
      <g
         fill="#000000"
         fill-opacity="1"
         id="g7580"
         transform="translate(-149.134,-127.734)">
        <g
           transform="translate(148.712,134.765)"
           id="g313">
          <path
             d="m 4.53125,-4.984375 c 0,-0.65625 -0.171875,-2.046875 -1.1875,-2.046875 -1.390625,0 -2.921875,2.8125 -2.921875,5.09375 0,0.9375 0.28125,2.046875 1.1875,2.046875 1.40625,0 2.921875,-2.859375 2.921875,-5.09375 z M 1.46875,-3.625 C 1.640625,-4.25 1.84375,-5.046875 2.25,-5.765625 2.515625,-6.25 2.875,-6.8125 3.328125,-6.8125 c 0.484375,0 0.546875,0.640625 0.546875,1.203125 0,0.5 -0.078125,1 -0.3125,1.984375 z m 2,0.328125 C 3.359375,-2.84375 3.15625,-2 2.765625,-1.28125 c -0.34375,0.6875 -0.71875,1.171875 -1.15625,1.171875 -0.328125,0 -0.53125,-0.296875 -0.53125,-1.21875 0,-0.421875 0.0625,-1 0.3125,-1.96875 z m 0,0"
             id="path8278" />
        </g>
      </g>
    </g>
    <g
       id="g5"
       transform="matrix(0.672274,0,0,0.672274,93.65533,124.69108)"
       ns3:version="1.12.0"
       ns3:texconverter="pdflatex"
       ns3:pdfconverter="inkscape"
       ns3:text="$\\delta\\theta$"
       ns3:preamble="/Users/yurydeshko/Library/Application Support/org.inkscape.Inkscape/config/inkscape/extensions/textext/default_packages.tex"
       ns3:scale="1.9056574675846545"
       ns3:alignment="middle center"
       ns3:inkscapeversion="1.2"
       ns3:jacobian_sqrt="0.672274">
      <defs
         id="defs3445">
        <g
           id="g9903">
          <g
             id="g3860">
            <path
               d="M 2.625,-4.359375 C 1.390625,-4.0625 0.421875,-2.765625 0.421875,-1.5625 0.421875,-0.59375 1.0625,0.125 2,0.125 c 1.15625,0 1.984375,-1.578125 1.984375,-2.953125 0,-0.90625 -0.390625,-1.40625 -0.734375,-1.84375 C 2.890625,-5.125 2.296875,-5.875 2.296875,-6.3125 c 0,-0.21875 0.203125,-0.453125 0.546875,-0.453125 0.3125,0 0.5,0.125 0.71875,0.265625 0.203125,0.125 0.390625,0.25 0.546875,0.25 C 4.359375,-6.25 4.5,-6.484375 4.5,-6.65625 4.5,-6.875 4.34375,-6.890625 3.984375,-6.984375 3.46875,-7.09375 3.328125,-7.09375 3.171875,-7.09375 c -0.78125,0 -1.140625,0.4375 -1.140625,1.03125 0,0.546875 0.296875,1.09375 0.59375,1.703125 z m 0.125,0.21875 c 0.25,0.46875 0.546875,1 0.546875,1.71875 0,0.65625 -0.375,2.328125 -1.296875,2.328125 -0.546875,0 -0.96875,-0.421875 -0.96875,-1.1875 0,-0.625 0.375,-2.5 1.71875,-2.859375 z m 0,0"
               id="path7766" />
          </g>
          <g
             id="g6830">
            <path
               d="m 4.53125,-4.984375 c 0,-0.65625 -0.171875,-2.046875 -1.1875,-2.046875 -1.390625,0 -2.921875,2.8125 -2.921875,5.09375 0,0.9375 0.28125,2.046875 1.1875,2.046875 1.40625,0 2.921875,-2.859375 2.921875,-5.09375 z M 1.46875,-3.625 C 1.640625,-4.25 1.84375,-5.046875 2.25,-5.765625 2.515625,-6.25 2.875,-6.8125 3.328125,-6.8125 c 0.484375,0 0.546875,0.640625 0.546875,1.203125 0,0.5 -0.078125,1 -0.3125,1.984375 z m 2,0.328125 C 3.359375,-2.84375 3.15625,-2 2.765625,-1.28125 c -0.34375,0.6875 -0.71875,1.171875 -1.15625,1.171875 -0.328125,0 -0.53125,-0.296875 -0.53125,-1.21875 0,-0.421875 0.0625,-1 0.3125,-1.96875 z m 0,0"
               id="path445" />
          </g>
        </g>
      </defs>
      <g
         fill="#000000"
         fill-opacity="1"
         id="g348"
         transform="translate(-149.134,-127.671)">
        <g
           transform="translate(148.712,134.765)"
           id="g8690">
          <path
             d="M 2.625,-4.359375 C 1.390625,-4.0625 0.421875,-2.765625 0.421875,-1.5625 0.421875,-0.59375 1.0625,0.125 2,0.125 c 1.15625,0 1.984375,-1.578125 1.984375,-2.953125 0,-0.90625 -0.390625,-1.40625 -0.734375,-1.84375 C 2.890625,-5.125 2.296875,-5.875 2.296875,-6.3125 c 0,-0.21875 0.203125,-0.453125 0.546875,-0.453125 0.3125,0 0.5,0.125 0.71875,0.265625 0.203125,0.125 0.390625,0.25 0.546875,0.25 C 4.359375,-6.25 4.5,-6.484375 4.5,-6.65625 4.5,-6.875 4.34375,-6.890625 3.984375,-6.984375 3.46875,-7.09375 3.328125,-7.09375 3.171875,-7.09375 c -0.78125,0 -1.140625,0.4375 -1.140625,1.03125 0,0.546875 0.296875,1.09375 0.59375,1.703125 z m 0.125,0.21875 c 0.25,0.46875 0.546875,1 0.546875,1.71875 0,0.65625 -0.375,2.328125 -1.296875,2.328125 -0.546875,0 -0.96875,-0.421875 -0.96875,-1.1875 0,-0.625 0.375,-2.5 1.71875,-2.859375 z m 0,0"
             id="path102" />
        </g>
      </g>
      <g
         fill="#000000"
         fill-opacity="1"
         id="g1801"
         transform="translate(-149.134,-127.671)">
        <g
           transform="translate(153.518,134.765)"
           id="g508">
          <path
             d="m 4.53125,-4.984375 c 0,-0.65625 -0.171875,-2.046875 -1.1875,-2.046875 -1.390625,0 -2.921875,2.8125 -2.921875,5.09375 0,0.9375 0.28125,2.046875 1.1875,2.046875 1.40625,0 2.921875,-2.859375 2.921875,-5.09375 z M 1.46875,-3.625 C 1.640625,-4.25 1.84375,-5.046875 2.25,-5.765625 2.515625,-6.25 2.875,-6.8125 3.328125,-6.8125 c 0.484375,0 0.546875,0.640625 0.546875,1.203125 0,0.5 -0.078125,1 -0.3125,1.984375 z m 2,0.328125 C 3.359375,-2.84375 3.15625,-2 2.765625,-1.28125 c -0.34375,0.6875 -0.71875,1.171875 -1.15625,1.171875 -0.328125,0 -0.53125,-0.296875 -0.53125,-1.21875 0,-0.421875 0.0625,-1 0.3125,-1.96875 z m 0,0"
             id="path7925" />
        </g>
      </g>
    </g>
  </g>
  <g
     inkscape:label="Layer 1"
     inkscape:groupmode="layer"
     id="layer1"
     transform="translate(-11.21578,-45.717609)">
    <path
       style="fill:none;fill-opacity:1;stroke:#000000;stroke-width:0.393999;stroke-linejoin:round;stroke-opacity:1;marker-end:url(#TriangleStart)"
       d="M 24.077254,60.681557 H 98.267083"
       id="path2512" />
    <text
       xml:space="preserve"
       style="font-size:42.3685px;font-family:serif;-inkscape-font-specification:serif;fill:#89afc5;stroke:#f1f1f1;stroke-width:0.393999;stroke-linejoin:round"
       x="98.763618"
       y="67.925789"
       id="text3261"><tspan
         sodipodi:role="line"
         id="tspan3259"
         style="font-style:italic;font-variant:normal;font-weight:normal;font-stretch:normal;font-size:5.64444px;font-family:'Iowan Old Style';-inkscape-font-specification:'Iowan Old Style, Normal';font-variant-ligatures:normal;font-variant-caps:normal;font-variant-numeric:normal;font-variant-east-asian:normal;fill:#030607;fill-opacity:1;stroke:none;stroke-width:0.394"
         x="98.763618"
         y="67.925789">x</tspan></text>
    <circle
       style="fill:none;fill-opacity:1;stroke:#787878;stroke-width:0.492104;stroke-linejoin:round;stroke-opacity:1"
       id="ellipse473"
       cx="57.28167"
       cy="125.47558"
       r="29.753948" />
    <text
       xml:space="preserve"
       style="font-size:5.64444px;font-family:serif;-inkscape-font-specification:serif;fill:#89afc5;stroke:#f1f1f1;stroke-width:0.393999;stroke-linejoin:round"
       x="54.897305"
       y="55.296597"
       id="text517"><tspan
         sodipodi:role="line"
         id="tspan571"
         style="font-style:italic;font-variant:normal;font-weight:normal;font-stretch:normal;font-size:5.64444px;font-family:'Iowan Old Style';-inkscape-font-specification:'Iowan Old Style Italic';fill:#000000;fill-opacity:1;stroke:none"
         x="54.897305"
         y="55.296597">δx</tspan></text>
    <path
       style="fill:none;fill-opacity:1;stroke:#000000;stroke-width:0.393999;stroke-linejoin:round;stroke-opacity:1"
       d="m 30.007789,58.355867 v 4.65139"
       id="path1184"
       sodipodi:nodetypes="cc" />
    <path
       style="fill:none;fill-opacity:1;stroke:#000000;stroke-width:0.393999;stroke-linejoin:round;stroke-opacity:1"
       d="m 91.326465,58.355867 v 4.65139"
       id="path1235"
       sodipodi:nodetypes="cc" />
    <path
       style="fill:none;fill-opacity:1;stroke:#b1b1b1;stroke-width:0.393999;stroke-linejoin:round;stroke-opacity:1"
       d="m 32.186776,58.355867 v 4.65139"
       id="path1237"
       sodipodi:nodetypes="cc" />
    <path
       style="fill:none;fill-opacity:1;stroke:#b1b1b1;stroke-width:0.393999;stroke-linejoin:round;stroke-opacity:1"
       d="m 34.36712,58.355867 v 4.65139"
       id="path1239"
       sodipodi:nodetypes="cc" />
    <path
       style="fill:none;fill-opacity:1;stroke:#b1b1b1;stroke-width:0.393999;stroke-linejoin:round;stroke-opacity:1"
       d="m 36.634677,58.355867 v 4.65139"
       id="path1241"
       sodipodi:nodetypes="cc" />
    <path
       style="fill:none;fill-opacity:1;stroke:#b1b1b1;stroke-width:0.393999;stroke-linejoin:round;stroke-opacity:1"
       d="m 38.815021,58.355867 v 4.65139"
       id="path1243"
       sodipodi:nodetypes="cc" />
    <path
       style="fill:none;fill-opacity:1;stroke:#b1b1b1;stroke-width:0.393999;stroke-linejoin:round;stroke-opacity:1"
       d="m 40.937222,58.355867 v 4.65139"
       id="path1245"
       sodipodi:nodetypes="cc" />
    <path
       style="fill:none;fill-opacity:1;stroke:#b1b1b1;stroke-width:0.393999;stroke-linejoin:round;stroke-opacity:1"
       d="m 43.117566,58.355867 v 4.65139"
       id="path1247"
       sodipodi:nodetypes="cc" />
    <path
       style="fill:none;fill-opacity:1;stroke:#b1b1b1;stroke-width:0.393999;stroke-linejoin:round;stroke-opacity:1"
       d="m 45.385123,58.355867 v 4.65139"
       id="path1249"
       sodipodi:nodetypes="cc" />
    <path
       style="fill:none;fill-opacity:1;stroke:#b1b1b1;stroke-width:0.393999;stroke-linejoin:round;stroke-opacity:1"
       d="m 47.565467,58.355867 v 4.65139"
       id="path1251"
       sodipodi:nodetypes="cc" />
    <path
       style="fill:none;fill-opacity:1;stroke:#b1b1b1;stroke-width:0.393999;stroke-linejoin:round;stroke-opacity:1"
       d="m 49.745811,58.355867 v 4.65139"
       id="path1253"
       sodipodi:nodetypes="cc" />
    <path
       style="fill:none;fill-opacity:1;stroke:#b1b1b1;stroke-width:0.393999;stroke-linejoin:round;stroke-opacity:1"
       d="m 51.926155,58.355867 v 4.65139"
       id="path1255"
       sodipodi:nodetypes="cc" />
    <path
       style="fill:none;fill-opacity:1;stroke:#b1b1b1;stroke-width:0.393999;stroke-linejoin:round;stroke-opacity:1"
       d="m 54.193712,58.355867 v 4.65139"
       id="path1257"
       sodipodi:nodetypes="cc" />
    <path
       style="fill:none;fill-opacity:1;stroke:#b1b1b1;stroke-width:0.393999;stroke-linejoin:round;stroke-opacity:1"
       d="m 56.374056,58.355867 v 4.65139"
       id="path1259"
       sodipodi:nodetypes="cc" />
    <path
       style="fill:none;fill-opacity:1;stroke:#b1b1b1;stroke-width:0.393999;stroke-linejoin:round;stroke-opacity:1"
       d="m 58.496257,58.355867 v 4.65139"
       id="path1261"
       sodipodi:nodetypes="cc" />
    <path
       style="fill:none;fill-opacity:1;stroke:#b1b1b1;stroke-width:0.393999;stroke-linejoin:round;stroke-opacity:1"
       d="m 60.676601,58.355867 v 4.65139"
       id="path1263"
       sodipodi:nodetypes="cc" />
    <path
       style="fill:none;fill-opacity:1;stroke:#b1b1b1;stroke-width:0.393999;stroke-linejoin:round;stroke-opacity:1"
       d="m 62.944158,58.355867 v 4.65139"
       id="path1265"
       sodipodi:nodetypes="cc" />
    <path
       style="fill:none;fill-opacity:1;stroke:#b1b1b1;stroke-width:0.393999;stroke-linejoin:round;stroke-opacity:1"
       d="m 65.124502,58.355867 v 4.65139"
       id="path1267"
       sodipodi:nodetypes="cc" />
    <path
       style="fill:none;fill-opacity:1;stroke:#b1b1b1;stroke-width:0.393999;stroke-linejoin:round;stroke-opacity:1"
       d="m 67.209759,58.355867 v 4.65139"
       id="path1269"
       sodipodi:nodetypes="cc" />
    <path
       style="fill:none;fill-opacity:1;stroke:#b1b1b1;stroke-width:0.393999;stroke-linejoin:round;stroke-opacity:1"
       d="m 69.477316,58.355867 v 4.65139"
       id="path1271"
       sodipodi:nodetypes="cc" />
    <path
       style="fill:none;fill-opacity:1;stroke:#b1b1b1;stroke-width:0.393999;stroke-linejoin:round;stroke-opacity:1"
       d="m 71.65766,58.355867 v 4.65139"
       id="path1273"
       sodipodi:nodetypes="cc" />
    <path
       style="fill:none;fill-opacity:1;stroke:#b1b1b1;stroke-width:0.393999;stroke-linejoin:round;stroke-opacity:1"
       d="m 73.838004,58.355867 v 4.65139"
       id="path1275"
       sodipodi:nodetypes="cc" />
    <path
       style="fill:none;fill-opacity:1;stroke:#b1b1b1;stroke-width:0.393999;stroke-linejoin:round;stroke-opacity:1"
       d="m 76.018348,58.355867 v 4.65139"
       id="path1277"
       sodipodi:nodetypes="cc" />
    <path
       style="fill:none;fill-opacity:1;stroke:#b1b1b1;stroke-width:0.393999;stroke-linejoin:round;stroke-opacity:1"
       d="m 78.285905,58.355867 v 4.65139"
       id="path1279"
       sodipodi:nodetypes="cc" />
    <path
       style="fill:none;fill-opacity:1;stroke:#b1b1b1;stroke-width:0.393999;stroke-linejoin:round;stroke-opacity:1"
       d="m 80.466249,58.355867 v 4.65139"
       id="path1281"
       sodipodi:nodetypes="cc" />
    <path
       style="fill:none;fill-opacity:1;stroke:#b1b1b1;stroke-width:0.393999;stroke-linejoin:round;stroke-opacity:1"
       d="m 82.58845,58.355867 v 4.65139"
       id="path1283"
       sodipodi:nodetypes="cc" />
    <path
       style="fill:none;fill-opacity:1;stroke:#b1b1b1;stroke-width:0.393999;stroke-linejoin:round;stroke-opacity:1"
       d="m 84.768794,58.355867 v 4.65139"
       id="path1285"
       sodipodi:nodetypes="cc" />
    <path
       style="fill:none;fill-opacity:1;stroke:#b1b1b1;stroke-width:0.393999;stroke-linejoin:round;stroke-opacity:1"
       d="m 87.036351,58.355867 v 4.65139"
       id="path1287"
       sodipodi:nodetypes="cc" />
    <path
       style="fill:none;fill-opacity:1;stroke:#b1b1b1;stroke-width:0.393999;stroke-linejoin:round;stroke-opacity:1"
       d="m 89.216695,58.355867 v 4.65139"
       id="path1289"
       sodipodi:nodetypes="cc" />
    <text
       xml:space="preserve"
       style="font-size:5.64444px;font-family:serif;-inkscape-font-specification:serif;fill:#89afc5;stroke:#f1f1f1;stroke-width:0.393999;stroke-linejoin:round"
       x="56.252819"
       y="70.112083"
       id="text1293"><tspan
         sodipodi:role="line"
         id="tspan1291"
         style="font-style:italic;font-variant:normal;font-weight:normal;font-stretch:normal;font-size:5.64444px;font-family:'Iowan Old Style';-inkscape-font-specification:'Iowan Old Style Italic';fill:#000000;fill-opacity:1;stroke:none"
         x="56.252819"
         y="70.112083">Δx</tspan></text>
    <path
       style="fill:none;fill-opacity:1;stroke:#989898;stroke-width:0.194;stroke-linejoin:round;stroke-dasharray:none;stroke-opacity:1;marker-start:url(#TriangleStart);marker-end:url(#TriangleStart)"
       d="M 30.408649,65.121757 H 90.948977"
       id="path2087"
       sodipodi:nodetypes="cc" />
    <path
       style="fill:none;fill-opacity:1;stroke:#989898;stroke-width:0.194;stroke-linejoin:round;stroke-dasharray:none;stroke-opacity:1;marker-start:url(#TriangleStart);marker-end:url(#TriangleStart)"
       d="m 56.823724,57.392527 h 1.296554"
       id="path2200"
       sodipodi:nodetypes="cc" />
    <path
       style="fill:none;fill-opacity:1;stroke:#000000;stroke-width:0.394;stroke-linejoin:round;stroke-dasharray:none;stroke-opacity:1;marker-start:url(#TriangleStart);marker-end:url(#TriangleStart)"
       d="m 84.705095,133.37456 -27.47586,-7.81559 -6.81477,-27.82884"
       id="path2570"
       sodipodi:nodetypes="ccc" />
    <path
       style="fill:none;fill-opacity:1;stroke:#979797;stroke-width:0.194;stroke-linejoin:round;stroke-dasharray:none;stroke-opacity:1"
       d="m 57.147015,125.51786 29.28081,6.34698"
       id="path3076"
       inkscape:transform-center-x="-14.637374"
       inkscape:transform-center-y="3.1760341" />
    <path
       style="fill:none;fill-opacity:1;stroke:#979797;stroke-width:0.194;stroke-linejoin:round;stroke-dasharray:none;stroke-opacity:1"
       d="m 57.147225,125.51808 29.6871,4.04058"
       id="path3836"
       inkscape:transform-center-x="-14.840729"
       inkscape:transform-center-y="2.0230556" />
    <path
       style="fill:none;fill-opacity:1;stroke:#979797;stroke-width:0.194;stroke-linejoin:round;stroke-dasharray:none;stroke-opacity:1"
       d="m 57.147415,125.51827 33.55513,2.49243"
       id="path3838"
       inkscape:transform-center-x="-14.943444"
       inkscape:transform-center-y="1.0166001"
       sodipodi:nodetypes="cc" />
    <path
       style="fill:none;fill-opacity:1;stroke:#979797;stroke-width:0.194;stroke-linejoin:round;stroke-dasharray:none;stroke-opacity:1"
       d="m 57.147625,125.51844 33.50749,-0.0859"
       id="path3840"
       inkscape:transform-center-x="-14.977979"
       inkscape:transform-center-y="-0.0107724"
       sodipodi:nodetypes="cc" />
    <path
       style="fill:none;fill-opacity:1;stroke:#979797;stroke-width:0.194;stroke-linejoin:round;stroke-dasharray:none;stroke-opacity:1"
       d="m 57.147845,125.5186 29.88833,-2.08283"
       id="path3842"
       inkscape:transform-center-x="-14.941964"
       inkscape:transform-center-y="-1.0381289" />
    <path
       style="fill:none;fill-opacity:1;stroke:#979797;stroke-width:0.194;stroke-linejoin:round;stroke-dasharray:none;stroke-opacity:1"
       d="m 57.148055,125.51873 29.69637,-3.97192"
       id="path3844"
       inkscape:transform-center-x="-14.846194"
       inkscape:transform-center-y="-1.9825404" />
    <path
       style="fill:none;fill-opacity:1;stroke:#979797;stroke-width:0.194;stroke-linejoin:round;stroke-dasharray:none;stroke-opacity:1"
       d="m 57.148275,125.51885 29.39307,-5.80497"
       id="path3846"
       inkscape:transform-center-x="-14.694764"
       inkscape:transform-center-y="-2.8989499" />
    <path
       style="fill:none;fill-opacity:1;stroke:#979797;stroke-width:0.194;stroke-linejoin:round;stroke-dasharray:none;stroke-opacity:1"
       d="m 57.148505,125.51896 28.96853,-7.64685"
       id="path3848"
       inkscape:transform-center-x="-14.482724"
       inkscape:transform-center-y="-3.8197819" />
    <path
       style="fill:none;fill-opacity:1;stroke:#979797;stroke-width:0.194;stroke-linejoin:round;stroke-dasharray:none;stroke-opacity:1"
       d="m 57.148725,125.51904 28.46291,-9.35482"
       id="path3850"
       inkscape:transform-center-x="-14.230134"
       inkscape:transform-center-y="-4.6736839" />
    <path
       style="fill:none;fill-opacity:1;stroke:#979797;stroke-width:0.194;stroke-linejoin:round;stroke-dasharray:none;stroke-opacity:1"
       d="m 57.148965,125.51912 27.81353,-11.13811"
       id="path3852"
       inkscape:transform-center-x="-13.905684"
       inkscape:transform-center-y="-5.5652499" />
    <path
       style="fill:none;fill-opacity:1;stroke:#979797;stroke-width:0.194;stroke-linejoin:round;stroke-dasharray:none;stroke-opacity:1"
       d="m 57.149225,125.51918 26.99786,-12.99096"
       id="path3854"
       inkscape:transform-center-x="-13.498109"
       inkscape:transform-center-y="-6.4916164" />
    <path
       style="fill:none;fill-opacity:1;stroke:#979797;stroke-width:0.194;stroke-linejoin:round;stroke-dasharray:none;stroke-opacity:1"
       d="m 57.149495,125.51923 26.04199,-14.81432"
       id="path3856"
       inkscape:transform-center-x="-13.020444"
       inkscape:transform-center-y="-7.4032469" />
    <path
       style="fill:none;fill-opacity:1;stroke:#979797;stroke-width:0.194;stroke-linejoin:round;stroke-dasharray:none;stroke-opacity:1"
       d="m 57.149775,125.51926 24.90914,-16.64885"
       id="path3858"
       inkscape:transform-center-x="-12.454299"
       inkscape:transform-center-y="-8.3204804" />
    <path
       style="fill:none;fill-opacity:1;stroke:#979797;stroke-width:0.194;stroke-linejoin:round;stroke-dasharray:none;stroke-opacity:1"
       d="m 57.150045,125.51927 23.73093,-18.28913"
       id="path3860"
       inkscape:transform-center-x="-11.865464"
       inkscape:transform-center-y="-9.1406139" />
    <path
       style="fill:none;fill-opacity:1;stroke:#979797;stroke-width:0.194;stroke-linejoin:round;stroke-dasharray:none;stroke-opacity:1"
       d="m 57.150325,125.51926 22.36893,-19.93189"
       id="path3862"
       inkscape:transform-center-x="-11.184744"
       inkscape:transform-center-y="-9.9620039" />
    <path
       style="fill:none;fill-opacity:1;stroke:#979797;stroke-width:0.194;stroke-linejoin:round;stroke-dasharray:none;stroke-opacity:1"
       d="m 57.150595,125.51923 20.9214,-21.44632"
       id="path3864"
       inkscape:transform-center-x="-10.461249"
       inkscape:transform-center-y="-10.719244" />
    <path
       style="fill:none;fill-opacity:1;stroke:#979797;stroke-width:0.194;stroke-linejoin:round;stroke-dasharray:none;stroke-opacity:1"
       d="M 57.150855,125.51918 76.565065,102.6995"
       id="path3866"
       inkscape:transform-center-x="-9.707914"
       inkscape:transform-center-y="-11.405975" />
    <path
       style="fill:none;fill-opacity:1;stroke:#979797;stroke-width:0.194;stroke-linejoin:round;stroke-dasharray:none;stroke-opacity:1"
       d="m 57.151145,125.51911 17.66325,-24.20039"
       id="path3868"
       inkscape:transform-center-x="-8.832724"
       inkscape:transform-center-y="-12.096399" />
    <path
       style="fill:none;fill-opacity:1;stroke:#979797;stroke-width:0.194;stroke-linejoin:round;stroke-dasharray:none;stroke-opacity:1"
       d="m 57.151415,125.51902 15.90748,-25.38899"
       id="path3870"
       inkscape:transform-center-x="-7.955109"
       inkscape:transform-center-y="-12.690791" />
    <path
       style="fill:none;fill-opacity:1;stroke:#979797;stroke-width:0.194;stroke-linejoin:round;stroke-dasharray:none;stroke-opacity:1"
       d="M 57.151645,125.51893 71.403025,99.16466"
       id="path3872"
       inkscape:transform-center-x="-7.127289"
       inkscape:transform-center-y="-13.17352" />
    <path
       style="fill:none;fill-opacity:1;stroke:#979797;stroke-width:0.194;stroke-linejoin:round;stroke-dasharray:none;stroke-opacity:1"
       d="M 57.151875,125.51882 69.681685,98.30388"
       id="path3874"
       inkscape:transform-center-x="-6.266734"
       inkscape:transform-center-y="-13.603967" />
    <path
       style="fill:none;fill-opacity:1;stroke:#979797;stroke-width:0.194;stroke-linejoin:round;stroke-dasharray:none;stroke-opacity:1"
       d="M 57.152095,125.5187 67.932435,97.56457"
       id="path3876"
       inkscape:transform-center-x="-5.392219"
       inkscape:transform-center-y="-13.973684" />
    <path
       style="fill:none;fill-opacity:1;stroke:#979797;stroke-width:0.194;stroke-linejoin:round;stroke-dasharray:none;stroke-opacity:1"
       d="m 57.152325,125.51854 8.80366,-28.63816"
       id="path3878"
       inkscape:transform-center-x="-4.404109"
       inkscape:transform-center-y="-14.315855" />
    <path
       style="fill:none;fill-opacity:1;stroke:#979797;stroke-width:0.194;stroke-linejoin:round;stroke-dasharray:none;stroke-opacity:1"
       d="m 57.152535,125.51838 6.84569,-29.16823"
       id="path3880"
       inkscape:transform-center-x="-3.425334"
       inkscape:transform-center-y="-14.581049" />
    <path
       style="fill:none;fill-opacity:1;stroke:#979797;stroke-width:0.194;stroke-linejoin:round;stroke-dasharray:none;stroke-opacity:1"
       d="M 57.152765,125.51818 61.765485,95.9146"
       id="path3882"
       inkscape:transform-center-x="-2.309079"
       inkscape:transform-center-y="-14.798921" />
    <path
       style="fill:none;fill-opacity:1;stroke:#979797;stroke-width:0.194;stroke-linejoin:round;stroke-dasharray:none;stroke-opacity:1"
       d="m 57.152975,125.51797 2.38207,-29.86595"
       id="path3884"
       inkscape:transform-center-x="-1.193964"
       inkscape:transform-center-y="-14.930317" />
    <path
       style="fill:none;fill-opacity:1;stroke:#979797;stroke-width:0.194;stroke-linejoin:round;stroke-dasharray:none;stroke-opacity:1"
       d="m 57.153175,125.51774 0.0392,-29.96077"
       id="path3886"
       inkscape:transform-center-x="-0.022729"
       inkscape:transform-center-y="-14.977964" />
    <path
       style="fill:none;fill-opacity:1;stroke:#979797;stroke-width:0.194;stroke-linejoin:round;stroke-dasharray:none;stroke-opacity:1"
       d="M 57.153355,125.51748 54.849145,95.64543"
       id="path3888"
       inkscape:transform-center-x="1.148796"
       inkscape:transform-center-y="-14.933861" />
    <path
       style="fill:none;fill-opacity:1;stroke:#979797;stroke-width:0.194;stroke-linejoin:round;stroke-dasharray:none;stroke-opacity:1"
       d="M 57.153525,125.5172 52.358065,95.94267"
       id="path3890"
       inkscape:transform-center-x="2.394251"
       inkscape:transform-center-y="-14.785381" />
    <path
       style="fill:none;fill-opacity:1;stroke:#787878;stroke-width:0.327;stroke-linejoin:round;stroke-dasharray:none;stroke-opacity:1;marker-start:url(#TriangleStart);marker-end:url(#TriangleStart)"
       id="circle6396"
       sodipodi:type="arc"
       sodipodi:cx="57.28167"
       sodipodi:cy="125.64002"
       sodipodi:rx="31.874289"
       sodipodi:ry="31.874289"
       sodipodi:start="4.5029495"
       sodipodi:end="0.2443461"
       sodipodi:arc-type="arc"
       d="m 50.654632,94.462263 a 31.874289,31.874289 0 0 1 29.555482,9.036017 31.874289,31.874289 0 0 1 7.999042,29.85283"
       sodipodi:open="true" />
    <path
       style="fill:none;fill-opacity:1;stroke:#787878;stroke-width:0.327;stroke-linejoin:round;stroke-dasharray:none;stroke-opacity:1;marker-start:url(#TriangleStart);marker-end:url(#TriangleStart)"
       id="path6544"
       sodipodi:type="arc"
       sodipodi:cx="77.644142"
       sodipodi:cy="114.97206"
       sodipodi:rx="31.874289"
       sodipodi:ry="31.874289"
       sodipodi:start="6.1610123"
       sodipodi:end="6.2133721"
       sodipodi:arc-type="arc"
       d="m 109.28084,111.08756 a 31.874289,31.874289 0 0 1 0.15995,1.66106"
       sodipodi:open="true"
       transform="rotate(8.470229)" />
    <circle
       style="fill:#000000;fill-opacity:1;stroke:none;stroke-width:0.0113547;stroke-linejoin:round;stroke-opacity:1"
       id="circle2505"
       cx="57.11721"
       cy="125.51669"
       r="0.68653899" />
  </g>
</svg>
