<?xml version="1.0" encoding="UTF-8" standalone="no"?>
<!-- Created with Inkscape (http://www.inkscape.org/) -->

<svg
   xmlns:dc="http://purl.org/dc/elements/1.1/"
   xmlns:cc="http://creativecommons.org/ns#"
   xmlns:rdf="http://www.w3.org/1999/02/22-rdf-syntax-ns#"
   xmlns:svg="http://www.w3.org/2000/svg"
   xmlns="http://www.w3.org/2000/svg"
   xmlns:sodipodi="http://sodipodi.sourceforge.net/DTD/sodipodi-0.dtd"
   xmlns:inkscape="http://www.inkscape.org/namespaces/inkscape"
   id="svg2"
   version="1.1"
   inkscape:version="0.92.3 (2405546, 2018-03-11)"
   width="622.59106pt"
   height="190.80597pt"
   sodipodi:docname="hydrogenOpticalSpectrum.svg">
  <sodipodi:namedview
     pagecolor="#ffffff"
     bordercolor="#666666"
     borderopacity="1"
     objecttolerance="10"
     gridtolerance="10"
     guidetolerance="10"
     inkscape:pageopacity="0"
     inkscape:pageshadow="2"
     inkscape:window-width="1920"
     inkscape:window-height="1017"
     id="namedview4"
     showgrid="false"
     inkscape:zoom="1.28"
     inkscape:cx="401.40181"
     inkscape:cy="7.9637624"
     inkscape:window-x="0"
     inkscape:window-y="30"
     inkscape:window-maximized="1"
     inkscape:current-layer="svg2"
     units="pt"
     fit-margin-top="0"
     fit-margin-left="0"
     fit-margin-right="0"
     fit-margin-bottom="0" />
  <metadata
     id="metadata8">
    <rdf:RDF>
      <cc:Work
         rdf:about="">
        <dc:format>image/svg+xml</dc:format>
        <dc:type
           rdf:resource="http://purl.org/dc/dcmitype/StillImage" />
        <dc:title></dc:title>
      </cc:Work>
    </rdf:RDF>
  </metadata>
  <defs
     id="defs6">
    <marker
       inkscape:stockid="Arrow1Mstart"
       orient="auto"
       refY="0"
       refX="0"
       id="Arrow1Mstart"
       style="overflow:visible"
       inkscape:isstock="true">
      <path
         id="path883"
         d="M 0,0 5,-5 -12.5,0 5,5 Z"
         style="fill:#000000;fill-opacity:1;fill-rule:evenodd;stroke:#000000;stroke-width:1.00000003pt;stroke-opacity:1"
         transform="matrix(0.4,0,0,0.4,4,0)"
         inkscape:connector-curvature="0" />
    </marker>
    <marker
       inkscape:stockid="Arrow1Mend"
       orient="auto"
       refY="0"
       refX="0"
       id="Arrow1Mend"
       style="overflow:visible"
       inkscape:isstock="true">
      <path
         id="path886"
         d="M 0,0 5,-5 -12.5,0 5,5 Z"
         style="fill:#000000;fill-opacity:1;fill-rule:evenodd;stroke:#000000;stroke-width:1.00000003pt;stroke-opacity:1"
         transform="matrix(-0.4,0,0,-0.4,-4,0)"
         inkscape:connector-curvature="0" />
    </marker>
  </defs>
  <g
     id="g1310"
     transform="matrix(1,0,0,0.54300389,11.558731,9.0478439)">
    <rect
       y="4.2494869"
       x="2.312917"
       height="92.774773"
       width="753.09265"
       id="rect3015"
       style="fill:#000000;fill-opacity:1;stroke:#000000;stroke-width:8.41898155;stroke-linecap:butt;stroke-linejoin:miter;stroke-miterlimit:4;stroke-dasharray:none;stroke-dashoffset:0;stroke-opacity:1" />
    <path
       inkscape:connector-curvature="0"
       id="path3021"
       d="M 26.507813,0 V 101.48437"
       style="fill:#5f5fd3;stroke:#7f2aff;stroke-width:1px;stroke-linecap:butt;stroke-linejoin:miter;stroke-opacity:1" />
    <path
       inkscape:connector-curvature="0"
       id="path3023"
       d="M 87.492188,0 V 101.53125"
       style="fill:none;stroke:#0000ff;stroke-width:1px;stroke-linecap:butt;stroke-linejoin:miter;stroke-opacity:1" />
    <path
       inkscape:connector-curvature="0"
       id="path3025"
       d="M 221,0 V 101.4805"
       style="fill:none;stroke:#55ddff;stroke-width:2;stroke-linecap:butt;stroke-linejoin:miter;stroke-miterlimit:4;stroke-dasharray:none;stroke-opacity:1" />
    <path
       inkscape:connector-curvature="0"
       id="path3795"
       d="M 654.50467,0.010682 V 102.12132"
       style="fill:none;stroke:#ff0000;stroke-width:3;stroke-linecap:butt;stroke-linejoin:miter;stroke-miterlimit:4;stroke-dasharray:none;stroke-opacity:1" />
  </g>
  <path
     style="fill:none;stroke:#000000;stroke-width:1.00157475;stroke-linecap:butt;stroke-linejoin:miter;stroke-miterlimit:4;stroke-dasharray:none;stroke-opacity:1;marker-start:url(#Arrow1Mstart);marker-end:url(#Arrow1Mend)"
     d="M 776.11792,210.92452 H 2.5431205 V 1.9737847"
     id="path875"
     inkscape:connector-curvature="0"
     sodipodi:nodetypes="ccc" />
  <path
     id="path1248"
     title="1/(1+x*x)"
     d="m 31.271886,210.44875 c 0.622556,-0.88686 1.245113,-2.04769 1.867668,-4.30886 0.622557,-2.26118 1.245113,-5.14897 1.867669,-13.35643 0.622556,-8.20746 1.245112,-23.30241 1.867668,-60.82588 0.622556,-37.523486 1.245113,-37.549846 1.867669,0 0.622555,37.54985 1.245112,52.60591 1.867668,60.82588 0.622555,8.21998 1.245112,11.0928 1.867668,13.35643 0.622557,2.26362 1.245113,3.422 1.867668,4.30886"
     style="opacity:1;fill:#5f5fd3;fill-opacity:1;stroke:#000000;stroke-width:0.29270393;stroke-miterlimit:4;stroke-dasharray:none;stroke-dashoffset:0;stroke-opacity:1"
     inkscape:connector-curvature="0" />
  <path
     id="path1248-8"
     title="1/(1+x*x)"
     d="m 93.265547,210.48419 c 0.62316,-0.79288 1.246321,-1.83068 1.86948,-3.85223 0.623161,-2.02155 1.246321,-4.60331 1.869482,-11.94099 0.62316,-7.33768 1.24632,-20.83295 1.86948,-54.3799 0.62316,-33.54695 1.246321,-33.57052 1.869481,0 0.62316,33.57053 1.24632,47.03104 1.86948,54.3799 0.62316,7.34887 1.24632,9.91724 1.86948,11.94099 0.62316,2.02374 1.24632,3.05935 1.86948,3.85223"
     style="opacity:1;fill:#0000ff;fill-opacity:1;stroke:#000000;stroke-width:0.27689439;stroke-miterlimit:4;stroke-dasharray:none;stroke-dashoffset:0;stroke-opacity:1"
     inkscape:connector-curvature="0" />
  <path
     id="path1248-8-7"
     title="1/(1+x*x)"
     d="m 226.26387,210.54655 c 0.62331,-0.76937 1.24664,-1.77641 1.86995,-3.73803 0.62333,-1.96161 1.24665,-4.46684 1.86996,-11.58699 0.62332,-7.12014 1.24664,-20.21533 1.86996,-52.76774 0.62333,-32.55242 1.24664,-32.57528 1.86997,0 0.62331,32.57529 1.24664,45.63675 1.86996,52.76774 0.62331,7.13101 1.24663,9.62324 1.86996,11.58699 0.62331,1.96375 1.24664,2.96866 1.86995,3.73803"
     style="opacity:1;fill:#55ddff;fill-opacity:1;stroke:#000000;stroke-width:0.2727941;stroke-miterlimit:4;stroke-dasharray:none;stroke-dashoffset:0;stroke-opacity:1"
     inkscape:connector-curvature="0" />
  <path
     id="path1248-8-0"
     title="1/(1+x*x)"
     d="m 659.78943,210.6603 c 0.62088,-1.17469 1.24177,-2.71227 1.86265,-5.70733 0.62089,-2.99504 1.24177,-6.82009 1.86265,-17.69134 0.62089,-10.87125 1.24177,-30.86536 1.86266,-80.56732 0.62088,-49.701976 1.24176,-49.736896 1.86265,0 0.62088,49.73689 1.24177,69.67951 1.86266,80.56732 0.62087,10.88783 1.24176,14.69304 1.86264,17.69134 0.62089,2.99831 1.24178,4.53264 1.86265,5.70733"
     style="opacity:1;fill:#ff0000;fill-opacity:1;stroke:#000000;stroke-width:0.33641854;stroke-miterlimit:4;stroke-dasharray:none;stroke-dashoffset:0;stroke-opacity:1"
     inkscape:connector-curvature="0" />
  <text
     xml:space="preserve"
     style="font-style:normal;font-weight:normal;font-size:21.63862228px;line-height:1.25;font-family:sans-serif;letter-spacing:0px;word-spacing:0px;fill:#000000;fill-opacity:1;stroke:none;stroke-width:0.5409655"
     x="647.25568"
     y="237.05812"
     id="text1640"><tspan
       sodipodi:role="line"
       id="tspan1638"
       x="647.25568"
       y="237.05812"
       style="stroke-width:0.5409655">656</tspan></text>
  <text
     xml:space="preserve"
     style="font-style:normal;font-weight:normal;font-size:21.63862228px;line-height:1.25;font-family:sans-serif;letter-spacing:0px;word-spacing:0px;fill:#000000;fill-opacity:1;stroke:none;stroke-width:0.5409655"
     x="213.26459"
     y="236.77307"
     id="text1640-1"><tspan
       sodipodi:role="line"
       id="tspan1638-0"
       x="213.26459"
       y="236.77307"
       style="stroke-width:0.5409655">486</tspan></text>
  <text
     xml:space="preserve"
     style="font-style:normal;font-weight:normal;font-size:21.63862228px;line-height:1.25;font-family:sans-serif;letter-spacing:0px;word-spacing:0px;fill:#000000;fill-opacity:1;stroke:none;stroke-width:0.5409655"
     x="82.609589"
     y="235.76698"
     id="text1640-1-4"><tspan
       sodipodi:role="line"
       id="tspan1638-0-2"
       x="82.609589"
       y="235.76698"
       style="stroke-width:0.5409655">434</tspan></text>
  <text
     xml:space="preserve"
     style="font-style:normal;font-weight:normal;font-size:21.63862228px;line-height:1.25;font-family:sans-serif;letter-spacing:0px;word-spacing:0px;fill:#000000;fill-opacity:1;stroke:none;stroke-width:0.5409655"
     x="20.188536"
     y="235.70631"
     id="text1640-1-4-2"><tspan
       sodipodi:role="line"
       id="tspan1638-0-2-2"
       x="20.188536"
       y="235.70631"
       style="stroke-width:0.5409655">410</tspan></text>
  <g
     transform="matrix(2.7245901,0,0,2.7245901,538.39551,-1015.1908)"
     id="g1725">
    <g
       style="font-style:normal;font-variant:normal;font-weight:normal;font-stretch:normal;letter-spacing:normal;word-spacing:normal;text-anchor:start;fill:none;fill-opacity:1;fill-rule:evenodd;stroke:#000000;stroke-linecap:butt;stroke-linejoin:miter;stroke-miterlimit:10.43299961;stroke-dasharray:none;stroke-dashoffset:0;stroke-opacity:1"
       id="content"
       transform="matrix(0.29195213,0,0,-0.29195213,-51.091623,583.56879)"
       xml:space="preserve"
       stroke-miterlimit="10.433"
       font-style="normal"
       font-variant="normal"
       font-weight="normal"
       font-stretch="normal"
       font-size-adjust="none"
       letter-spacing="normal"
       word-spacing="normal"><path
         style="fill:#000000;stroke-width:0"
         inkscape:connector-curvature="0"
         d="m 473.3,420.75 0.19,-0.5 0.2,-0.51 0.39,-1.05 0.4,-1.08 0.39,-1.1 0.39,-1.1 0.39,-1.09 0.37,-1.07 0.19,-0.53 0.18,-0.51 0.17,-0.5 0.18,-0.49 0.16,-0.47 0.17,-0.45 0.16,-0.44 0.15,-0.42 0.15,-0.39 0.14,-0.37 0.13,-0.35 0.13,-0.32 0.12,-0.29 0.12,-0.26 0.1,-0.23 0.1,-0.2 0.09,-0.16 0.08,-0.12 c 0.79,-1.1 1.29,-1.1 2.64,-1.1 h 1.09 c 0.5,0.05 0.55,0.35 0.55,0.5 0,0.14 -0.1,0.25 -0.25,0.46 -0.49,0.54 -0.8,1.28 -1.14,2.28 l -10.16,28.34 c -1.05,2.89 -3.75,3.55 -6.08,3.55 -0.25,0 -0.9,0 -0.9,-0.55 0,-0.41 0.4,-0.5 0.45,-0.5 1.64,-0.3 1.98,-0.59 3.23,-3.98 l 4.83,-13.55 -13.75,-13.66 c -0.59,-0.59 -0.89,-0.9 -0.89,-1.54 0,-0.85 0.7,-1.44 1.5,-1.44 0.8,0 1.23,0.55 1.64,1.05 z"
         id="path1722" /></g>  </g>
  <text
     xml:space="preserve"
     style="font-style:normal;font-weight:normal;font-size:21.63862228px;line-height:1.25;font-family:sans-serif;letter-spacing:0px;word-spacing:0px;fill:#000000;fill-opacity:1;stroke:none;stroke-width:0.5409655"
     x="786.93927"
     y="249.92809"
     id="text1640-1-0"><tspan
       sodipodi:role="line"
       id="tspan1638-0-5"
       x="786.93927"
       y="249.92809"
       style="stroke-width:0.5409655">(nm)</tspan></text>
  <g
     id="g2118"
     transform="matrix(1.701528,0,0,1.701528,499.85807,-687.02256)">
    <g
       word-spacing="normal"
       letter-spacing="normal"
       font-size-adjust="none"
       font-stretch="normal"
       font-weight="normal"
       font-variant="normal"
       font-style="normal"
       stroke-miterlimit="10.433"
       xml:space="preserve"
       transform="matrix(0.36343994,0,0,-0.36343994,-63.60199,622.59106)"
       id="g2116"
       style="font-style:normal;font-variant:normal;font-weight:normal;font-stretch:normal;letter-spacing:normal;word-spacing:normal;text-anchor:start;fill:none;fill-opacity:1;fill-rule:evenodd;stroke:#000000;stroke-linecap:butt;stroke-linejoin:miter;stroke-miterlimit:10.43299961;stroke-dasharray:none;stroke-dashoffset:0;stroke-opacity:1"><path
         id="path2112"
         d="m 493.54,436.39 0.04,0.16 0.04,0.16 0.04,0.15 0.04,0.14 0.04,0.14 0.04,0.13 0.04,0.12 0.05,0.11 0.05,0.11 0.05,0.11 0.06,0.09 0.07,0.09 0.07,0.09 0.08,0.08 0.09,0.07 0.09,0.07 0.11,0.06 0.11,0.06 0.13,0.05 0.14,0.05 0.15,0.04 0.16,0.04 0.09,0.02 0.09,0.02 0.09,0.01 0.1,0.02 0.1,0.01 0.1,0.01 0.11,0.02 0.11,0.01 0.12,0.01 h 0.12 l 0.13,0.01 0.13,0.01 0.13,0.01 h 0.14 0.14 l 0.15,0.01 h 0.15 0.16 0.16 0.17 c 1.3,0 1.69,0 1.69,1 0,0.55 -0.55,0.55 -0.7,0.55 -1.39,0 -4.97,-0.16 -6.38,-0.16 -1.44,0 -4.98,0.16 -6.42,0.16 -0.39,0 -0.95,0 -0.95,-1 0,-0.55 0.45,-0.55 1.4,-0.55 0.1,0 1.05,0 1.89,-0.09 0.89,-0.11 1.35,-0.16 1.35,-0.8 0,-0.2 -0.05,-0.31 -0.21,-0.95 l -2.98,-12.16 h -15.2 l 2.95,11.71 c 0.44,1.79 0.59,2.29 4.17,2.29 1.3,0 1.71,0 1.71,1 0,0.55 -0.55,0.55 -0.71,0.55 -1.39,0 -4.98,-0.16 -6.37,-0.16 -1.44,0 -4.99,0.16 -6.42,0.16 -0.41,0 -0.96,0 -0.96,-1 0,-0.55 0.46,-0.55 1.39,-0.55 0.11,0 1.05,0 1.91,-0.09 0.89,-0.11 1.34,-0.16 1.34,-0.8 0,-0.2 -0.06,-0.36 -0.2,-0.95 l -6.67,-26.75 c -0.5,-1.95 -0.61,-2.34 -4.55,-2.34 -0.89,0 -1.34,0 -1.34,-1 0,-0.55 0.61,-0.55 0.7,-0.55 1.39,0 4.94,0.16 6.33,0.16 1.05,0 2.14,-0.07 3.19,-0.07 1.09,0 2.18,-0.09 3.23,-0.09 0.41,0 1,0 1,1 0,0.55 -0.45,0.55 -1.39,0.55 -1.84,0 -3.23,0 -3.23,0.89 0,0.29 0.09,0.54 0.14,0.84 l 3.39,13.66 H 486 c -2.09,-8.27 -3.23,-13 -3.43,-13.75 -0.49,-1.6 -1.44,-1.64 -4.53,-1.64 -0.75,0 -1.19,0 -1.19,-1 0,-0.55 0.59,-0.55 0.69,-0.55 1.4,0 4.93,0.16 6.32,0.16 1.05,0 2.14,-0.07 3.19,-0.07 1.11,0 2.2,-0.09 3.25,-0.09 0.39,0 0.99,0 0.99,1 0,0.55 -0.44,0.55 -1.4,0.55 -1.84,0 -3.23,0 -3.23,0.89 0,0.29 0.09,0.54 0.14,0.84 z"
         inkscape:connector-curvature="0"
         style="fill:#000000;stroke-width:0" /><path
         id="path2114"
         d="m 524.77,417.96 -0.01,0.37 -0.01,0.35 -0.01,0.35 -0.03,0.34 -0.06,0.65 -0.09,0.63 -0.11,0.59 -0.14,0.57 -0.15,0.54 -0.18,0.51 -0.19,0.49 -0.21,0.45 -0.23,0.44 -0.25,0.4 -0.26,0.38 -0.27,0.36 -0.29,0.33 -0.3,0.31 -0.3,0.29 -0.32,0.26 -0.33,0.24 -0.34,0.22 -0.34,0.2 -0.35,0.18 -0.35,0.16 -0.36,0.14 -0.35,0.12 -0.36,0.11 -0.37,0.09 -0.36,0.06 -0.35,0.06 -0.36,0.04 -0.35,0.02 h -0.35 l -0.05,-1.09 c 4.94,0 4.94,-6.53 4.94,-10.41 0,-1.84 0,-4.73 0.09,-5.57 v 0 c -4.37,-3.85 -8.22,-4.39 -10.2,-4.39 -3,0 -4.49,2.25 -4.49,5.43 0,2.44 1.3,7.82 2.89,10.36 2.33,3.64 5.04,4.58 6.77,4.58 l 0.05,1.09 c -6.82,0 -13.39,-7.12 -13.39,-14.14 0,-4.64 2.98,-8.42 8.06,-8.42 3.14,0 6.73,1.14 10.51,4.19 0.66,-2.64 2.3,-4.19 4.54,-4.19 2.64,0 4.18,2.74 4.18,3.53 0,0.36 -0.29,0.5 -0.59,0.5 -0.36,0 -0.5,-0.14 -0.66,-0.5 -0.89,-2.43 -2.68,-2.43 -2.78,-2.43 -1.54,0 -1.54,3.89 -1.54,5.07 0,1.05 0,1.16 0.5,1.75 4.68,5.88 5.73,11.66 5.73,11.71 0,0.11 -0.06,0.5 -0.61,0.5 -0.5,0 -0.5,-0.14 -0.75,-1.05 -0.89,-3.14 -2.53,-6.92 -4.87,-9.86 z"
         inkscape:connector-curvature="0"
         style="fill:#000000;stroke-width:0" /></g>  </g>
</svg>
