<?xml version="1.0" encoding="UTF-8" standalone="no"?>
<!-- Created with Inkscape (http://www.inkscape.org/) -->

<svg
   xmlns:dc="http://purl.org/dc/elements/1.1/"
   xmlns:cc="http://creativecommons.org/ns#"
   xmlns:rdf="http://www.w3.org/1999/02/22-rdf-syntax-ns#"
   xmlns:svg="http://www.w3.org/2000/svg"
   xmlns="http://www.w3.org/2000/svg"
   xmlns:sodipodi="http://sodipodi.sourceforge.net/DTD/sodipodi-0.dtd"
   xmlns:inkscape="http://www.inkscape.org/namespaces/inkscape"
   id="svg2"
   sodipodi:docname="numbersToBoolean.svg"
   viewBox="0 0 144.96277 101.10187"
   version="1.1"
   inkscape:version="0.92.4 (5da689c313, 2019-01-14)"
   width="144.96277"
   height="101.10186">
  <sodipodi:namedview
     id="base"
     fit-margin-left="0"
     inkscape:zoom="2.3252876"
     borderopacity="1.0"
     inkscape:current-layer="layer1"
     inkscape:cx="71.547735"
     inkscape:cy="40.896822"
     inkscape:window-maximized="1"
     showgrid="false"
     fit-margin-right="0"
     inkscape:snap-nodes="false"
     inkscape:guide-bbox="true"
     inkscape:snap-midpoints="false"
     showguides="true"
     bordercolor="#666666"
     inkscape:window-x="-8"
     inkscape:window-y="-8"
     fit-margin-bottom="0"
     inkscape:window-width="1920"
     inkscape:pageopacity="0.0"
     inkscape:pageshadow="2"
     pagecolor="#ffffff"
     inkscape:document-units="px"
     inkscape:window-height="1027"
     fit-margin-top="0" />
  <defs
     id="defs4">
    <marker
       inkscape:stockid="Arrow2Mend"
       orient="auto"
       refY="0"
       refX="0"
       id="marker12212"
       style="overflow:visible"
       inkscape:isstock="true">
      <path
         id="path12210"
         style="fill:#909090;fill-opacity:1;fill-rule:evenodd;stroke:#909090;stroke-width:0.625;stroke-linejoin:round;stroke-opacity:1"
         d="M 8.7185878,4.0337352 -2.2072895,0.01601326 8.7185884,-4.0017078 c -1.7454984,2.3720609 -1.7354408,5.6174519 -6e-7,8.035443 z"
         transform="scale(-0.6)"
         inkscape:connector-curvature="0" />
    </marker>
    <marker
       inkscape:stockid="Arrow2Lend"
       orient="auto"
       refY="0"
       refX="0"
       id="marker12208"
       style="overflow:visible"
       inkscape:isstock="true">
      <path
         id="path12206"
         style="fill:#000000;fill-opacity:1;fill-rule:evenodd;stroke:#000000;stroke-width:0.625;stroke-linejoin:round;stroke-opacity:1"
         d="M 8.7185878,4.0337352 -2.2072895,0.01601326 8.7185884,-4.0017078 c -1.7454984,2.3720609 -1.7354408,5.6174519 -6e-7,8.035443 z"
         transform="matrix(-1.1,0,0,-1.1,-1.1,0)"
         inkscape:connector-curvature="0" />
    </marker>
    <marker
       inkscape:stockid="Arrow2Mend"
       orient="auto"
       refY="0"
       refX="0"
       id="Arrow2Mend"
       style="overflow:visible"
       inkscape:isstock="true">
      <path
         id="path7486"
         style="fill:#8f8f8f;fill-opacity:1;fill-rule:evenodd;stroke:#8f8f8f;stroke-width:0.625;stroke-linejoin:round;stroke-opacity:1"
         d="M 8.7185878,4.0337352 -2.2072895,0.01601326 8.7185884,-4.0017078 c -1.7454984,2.3720609 -1.7354408,5.6174519 -6e-7,8.035443 z"
         transform="scale(-0.6)"
         inkscape:connector-curvature="0" />
    </marker>
    <marker
       inkscape:stockid="Arrow2Lend"
       orient="auto"
       refY="0"
       refX="0"
       id="Arrow2Lend"
       style="overflow:visible"
       inkscape:isstock="true">
      <path
         id="path7480"
         style="fill:#000000;fill-opacity:1;fill-rule:evenodd;stroke:#000000;stroke-width:0.625;stroke-linejoin:round;stroke-opacity:1"
         d="M 8.7185878,4.0337352 -2.2072895,0.01601326 8.7185884,-4.0017078 c -1.7454984,2.3720609 -1.7354408,5.6174519 -6e-7,8.035443 z"
         transform="matrix(-1.1,0,0,-1.1,-1.1,0)"
         inkscape:connector-curvature="0" />
    </marker>
    <marker
       inkscape:stockid="Arrow2Lend"
       orient="auto"
       refY="0"
       refX="0"
       id="Arrow2Lend-9"
       style="overflow:visible"
       inkscape:isstock="true">
      <path
         inkscape:connector-curvature="0"
         id="path7480-4"
         style="fill:#000000;fill-opacity:1;fill-rule:evenodd;stroke:#000000;stroke-width:0.625;stroke-linejoin:round;stroke-opacity:1"
         d="M 8.7185878,4.0337352 -2.2072895,0.01601326 8.7185884,-4.0017078 c -1.7454984,2.3720609 -1.7354408,5.6174519 -6e-7,8.035443 z"
         transform="matrix(-1.1,0,0,-1.1,-1.1,0)" />
    </marker>
    <marker
       inkscape:stockid="Arrow2Lend"
       orient="auto"
       refY="0"
       refX="0"
       id="Arrow2Lend-3"
       style="overflow:visible"
       inkscape:isstock="true">
      <path
         inkscape:connector-curvature="0"
         id="path7480-0"
         style="fill:#000000;fill-opacity:1;fill-rule:evenodd;stroke:#000000;stroke-width:0.625;stroke-linejoin:round;stroke-opacity:1"
         d="M 8.7185878,4.0337352 -2.2072895,0.01601326 8.7185884,-4.0017078 c -1.7454984,2.3720609 -1.7354408,5.6174519 -6e-7,8.035443 z"
         transform="matrix(-1.1,0,0,-1.1,-1.1,0)" />
    </marker>
    <marker
       inkscape:stockid="Arrow2Lend"
       orient="auto"
       refY="0"
       refX="0"
       id="Arrow2Lend-6"
       style="overflow:visible"
       inkscape:isstock="true">
      <path
         inkscape:connector-curvature="0"
         id="path7480-7"
         style="fill:#000000;fill-opacity:1;fill-rule:evenodd;stroke:#000000;stroke-width:0.625;stroke-linejoin:round;stroke-opacity:1"
         d="M 8.7185878,4.0337352 -2.2072895,0.01601326 8.7185884,-4.0017078 c -1.7454984,2.3720609 -1.7354408,5.6174519 -6e-7,8.035443 z"
         transform="matrix(-1.1,0,0,-1.1,-1.1,0)" />
    </marker>
    <marker
       inkscape:stockid="Arrow2Mend"
       orient="auto"
       refY="0"
       refX="0"
       id="marker12212-3"
       style="overflow:visible"
       inkscape:isstock="true">
      <path
         inkscape:connector-curvature="0"
         id="path12210-2"
         style="fill:#717171;fill-opacity:1;fill-rule:evenodd;stroke:#717171;stroke-width:0.625;stroke-linejoin:round;stroke-opacity:1"
         d="M 8.7185878,4.0337352 -2.2072895,0.01601326 8.7185884,-4.0017078 c -1.7454984,2.3720609 -1.7354408,5.6174519 -6e-7,8.035443 z"
         transform="scale(-0.6)" />
    </marker>
    <marker
       inkscape:stockid="Arrow2Mend"
       orient="auto"
       refY="0"
       refX="0"
       id="marker12212-6"
       style="overflow:visible"
       inkscape:isstock="true">
      <path
         inkscape:connector-curvature="0"
         id="path12210-3"
         style="fill:#000000;fill-opacity:1;fill-rule:evenodd;stroke:#000000;stroke-width:0.625;stroke-linejoin:round;stroke-opacity:1"
         d="M 8.7185878,4.0337352 -2.2072895,0.01601326 8.7185884,-4.0017078 c -1.7454984,2.3720609 -1.7354408,5.6174519 -6e-7,8.035443 z"
         transform="scale(-0.6)" />
    </marker>
    <marker
       inkscape:stockid="Arrow2Mend"
       orient="auto"
       refY="0"
       refX="0"
       id="marker12212-4"
       style="overflow:visible"
       inkscape:isstock="true">
      <path
         inkscape:connector-curvature="0"
         id="path12210-0"
         style="fill:#000000;fill-opacity:1;fill-rule:evenodd;stroke:#000000;stroke-width:0.625;stroke-linejoin:round;stroke-opacity:1"
         d="M 8.7185878,4.0337352 -2.2072895,0.01601326 8.7185884,-4.0017078 c -1.7454984,2.3720609 -1.7354408,5.6174519 -6e-7,8.035443 z"
         transform="scale(-0.6)" />
    </marker>
    <marker
       inkscape:stockid="Arrow2Mend"
       orient="auto"
       refY="0"
       refX="0"
       id="marker12212-2"
       style="overflow:visible"
       inkscape:isstock="true">
      <path
         inkscape:connector-curvature="0"
         id="path12210-31"
         style="fill:#000000;fill-opacity:1;fill-rule:evenodd;stroke:#000000;stroke-width:0.625;stroke-linejoin:round;stroke-opacity:1"
         d="M 8.7185878,4.0337352 -2.2072895,0.01601326 8.7185884,-4.0017078 c -1.7454984,2.3720609 -1.7354408,5.6174519 -6e-7,8.035443 z"
         transform="scale(-0.6)" />
    </marker>
    <marker
       inkscape:stockid="Arrow2Mend"
       orient="auto"
       refY="0"
       refX="0"
       id="marker12212-2-0"
       style="overflow:visible"
       inkscape:isstock="true">
      <path
         inkscape:connector-curvature="0"
         id="path12210-31-1"
         style="fill:#000000;fill-opacity:1;fill-rule:evenodd;stroke:#000000;stroke-width:0.625;stroke-linejoin:round;stroke-opacity:1"
         d="M 8.7185878,4.0337352 -2.2072895,0.01601326 8.7185884,-4.0017078 c -1.7454984,2.3720609 -1.7354408,5.6174519 -6e-7,8.035443 z"
         transform="scale(-0.6)" />
    </marker>
    <marker
       inkscape:stockid="Arrow2Mend"
       orient="auto"
       refY="0"
       refX="0"
       id="marker12212-2-5"
       style="overflow:visible"
       inkscape:isstock="true">
      <path
         inkscape:connector-curvature="0"
         id="path12210-31-4"
         style="fill:#000000;fill-opacity:1;fill-rule:evenodd;stroke:#000000;stroke-width:0.625;stroke-linejoin:round;stroke-opacity:1"
         d="M 8.7185878,4.0337352 -2.2072895,0.01601326 8.7185884,-4.0017078 c -1.7454984,2.3720609 -1.7354408,5.6174519 -6e-7,8.035443 z"
         transform="scale(-0.6)" />
    </marker>
    <marker
       inkscape:stockid="Arrow2Mend"
       orient="auto"
       refY="0"
       refX="0"
       id="marker12212-2-3"
       style="overflow:visible"
       inkscape:isstock="true">
      <path
         inkscape:connector-curvature="0"
         id="path12210-31-9"
         style="fill:#000000;fill-opacity:1;fill-rule:evenodd;stroke:#000000;stroke-width:0.625;stroke-linejoin:round;stroke-opacity:1"
         d="M 8.7185878,4.0337352 -2.2072895,0.01601326 8.7185884,-4.0017078 c -1.7454984,2.3720609 -1.7354408,5.6174519 -6e-7,8.035443 z"
         transform="scale(-0.6)" />
    </marker>
    <marker
       inkscape:stockid="Arrow2Mend"
       orient="auto"
       refY="0"
       refX="0"
       id="marker12212-3-2"
       style="overflow:visible"
       inkscape:isstock="true">
      <path
         inkscape:connector-curvature="0"
         id="path12210-2-6"
         style="fill:#b8b8b8;fill-opacity:1;fill-rule:evenodd;stroke:#b8b8b8;stroke-width:0.625;stroke-linejoin:round;stroke-opacity:1"
         d="M 8.7185878,4.0337352 -2.2072895,0.01601326 8.7185884,-4.0017078 c -1.7454984,2.3720609 -1.7354408,5.6174519 -6e-7,8.035443 z"
         transform="scale(-0.6)" />
    </marker>
    <marker
       inkscape:stockid="Arrow2Mend"
       orient="auto"
       refY="0"
       refX="0"
       id="marker12212-3-2-7"
       style="overflow:visible"
       inkscape:isstock="true">
      <path
         inkscape:connector-curvature="0"
         id="path12210-2-6-9"
         style="fill:#b8b8b8;fill-opacity:1;fill-rule:evenodd;stroke:#b8b8b8;stroke-width:0.625;stroke-linejoin:round;stroke-opacity:1"
         d="M 8.7185878,4.0337352 -2.2072895,0.01601326 8.7185884,-4.0017078 c -1.7454984,2.3720609 -1.7354408,5.6174519 -6e-7,8.035443 z"
         transform="scale(-0.6)" />
    </marker>
    <marker
       inkscape:stockid="Arrow2Mend"
       orient="auto"
       refY="0"
       refX="0"
       id="marker12212-3-2-0"
       style="overflow:visible"
       inkscape:isstock="true">
      <path
         inkscape:connector-curvature="0"
         id="path12210-2-6-91"
         style="fill:#b8b8b8;fill-opacity:1;fill-rule:evenodd;stroke:#b8b8b8;stroke-width:0.625;stroke-linejoin:round;stroke-opacity:1"
         d="M 8.7185878,4.0337352 -2.2072895,0.01601326 8.7185884,-4.0017078 c -1.7454984,2.3720609 -1.7354408,5.6174519 -6e-7,8.035443 z"
         transform="scale(-0.6)" />
    </marker>
    <marker
       inkscape:stockid="Arrow2Mend"
       orient="auto"
       refY="0"
       refX="0"
       id="marker12212-3-2-04"
       style="overflow:visible"
       inkscape:isstock="true">
      <path
         inkscape:connector-curvature="0"
         id="path12210-2-6-8"
         style="fill:#b8b8b8;fill-opacity:1;fill-rule:evenodd;stroke:#b8b8b8;stroke-width:0.625;stroke-linejoin:round;stroke-opacity:1"
         d="M 8.7185878,4.0337352 -2.2072895,0.01601326 8.7185884,-4.0017078 c -1.7454984,2.3720609 -1.7354408,5.6174519 -6e-7,8.035443 z"
         transform="scale(-0.6)" />
    </marker>
    <marker
       inkscape:stockid="Arrow2Mend"
       orient="auto"
       refY="0"
       refX="0"
       id="marker12212-1"
       style="overflow:visible"
       inkscape:isstock="true">
      <path
         id="path12210-9"
         style="fill:#6a6a6a;fill-opacity:1;fill-rule:evenodd;stroke:#6a6a6a;stroke-width:0.625;stroke-linejoin:round;stroke-opacity:1"
         d="M 8.7185878,4.0337352 -2.2072895,0.01601326 8.7185884,-4.0017078 c -1.7454984,2.3720609 -1.7354408,5.6174519 -6e-7,8.035443 z"
         transform="scale(-0.6)"
         inkscape:connector-curvature="0" />
    </marker>
    <marker
       inkscape:stockid="Arrow2Mend"
       orient="auto"
       refY="0"
       refX="0"
       id="marker12212-1-3"
       style="overflow:visible"
       inkscape:isstock="true">
      <path
         id="path12210-9-3"
         style="fill:#cacaca;fill-opacity:1;fill-rule:evenodd;stroke:#cacaca;stroke-width:0.625;stroke-linejoin:round;stroke-opacity:1"
         d="M 8.7185878,4.0337352 -2.2072895,0.01601326 8.7185884,-4.0017078 c -1.7454984,2.3720609 -1.7354408,5.6174519 -6e-7,8.035443 z"
         transform="scale(-0.6)"
         inkscape:connector-curvature="0" />
    </marker>
    <marker
       inkscape:stockid="Arrow2Mend"
       orient="auto"
       refY="0"
       refX="0"
       id="marker12212-2-0-3"
       style="overflow:visible"
       inkscape:isstock="true">
      <path
         inkscape:connector-curvature="0"
         id="path12210-31-1-6"
         style="fill:#000000;fill-opacity:1;fill-rule:evenodd;stroke:#000000;stroke-width:0.625;stroke-linejoin:round;stroke-opacity:1"
         d="M 8.7185878,4.0337352 -2.2072895,0.01601326 8.7185884,-4.0017078 c -1.7454984,2.3720609 -1.7354408,5.6174519 -6e-7,8.035443 z"
         transform="scale(-0.6)" />
    </marker>
    <marker
       inkscape:stockid="Arrow2Mend"
       orient="auto"
       refY="0"
       refX="0"
       id="marker12212-2-54"
       style="overflow:visible"
       inkscape:isstock="true">
      <path
         inkscape:connector-curvature="0"
         id="path12210-31-3"
         style="fill:#000000;fill-opacity:1;fill-rule:evenodd;stroke:#000000;stroke-width:0.625;stroke-linejoin:round;stroke-opacity:1"
         d="M 8.7185878,4.0337352 -2.2072895,0.01601326 8.7185884,-4.0017078 c -1.7454984,2.3720609 -1.7354408,5.6174519 -6e-7,8.035443 z"
         transform="scale(-0.6)" />
    </marker>
    <marker
       inkscape:stockid="Arrow2Mend"
       orient="auto"
       refY="0"
       refX="0"
       id="marker12212-3-3"
       style="overflow:visible"
       inkscape:isstock="true">
      <path
         inkscape:connector-curvature="0"
         id="path12210-2-1"
         style="fill:#000000;fill-opacity:1;fill-rule:evenodd;stroke:#000000;stroke-width:0.625;stroke-linejoin:round;stroke-opacity:1"
         d="M 8.7185878,4.0337352 -2.2072895,0.01601326 8.7185884,-4.0017078 c -1.7454984,2.3720609 -1.7354408,5.6174519 -6e-7,8.035443 z"
         transform="scale(-0.6)" />
    </marker>
    <marker
       inkscape:stockid="Arrow2Mend"
       orient="auto"
       refY="0"
       refX="0"
       id="marker12212-3-2-3"
       style="overflow:visible"
       inkscape:isstock="true">
      <path
         inkscape:connector-curvature="0"
         id="path12210-2-6-3"
         style="fill:#919191;fill-opacity:1;fill-rule:evenodd;stroke:#919191;stroke-width:0.625;stroke-linejoin:round;stroke-opacity:1"
         d="M 8.7185878,4.0337352 -2.2072895,0.01601326 8.7185884,-4.0017078 c -1.7454984,2.3720609 -1.7354408,5.6174519 -6e-7,8.035443 z"
         transform="scale(-0.6)" />
    </marker>
    <marker
       inkscape:stockid="Arrow2Mend"
       orient="auto"
       refY="0"
       refX="0"
       id="marker12212-63"
       style="overflow:visible"
       inkscape:isstock="true">
      <path
         id="path12210-1"
         style="fill:#000000;fill-opacity:1;fill-rule:evenodd;stroke:#000000;stroke-width:0.625;stroke-linejoin:round;stroke-opacity:1"
         d="M 8.7185878,4.0337352 -2.2072895,0.01601326 8.7185884,-4.0017078 c -1.7454984,2.3720609 -1.7354408,5.6174519 -6e-7,8.035443 z"
         transform="scale(-0.6)"
         inkscape:connector-curvature="0" />
    </marker>
    <marker
       inkscape:stockid="Arrow2Mend"
       orient="auto"
       refY="0"
       refX="0"
       id="marker12212-3-3-2"
       style="overflow:visible"
       inkscape:isstock="true">
      <path
         inkscape:connector-curvature="0"
         id="path12210-2-1-6"
         style="fill:#6a6a6a;fill-opacity:1;fill-rule:evenodd;stroke:#6a6a6a;stroke-width:0.625;stroke-linejoin:round;stroke-opacity:1"
         d="M 8.7185878,4.0337352 -2.2072895,0.01601326 8.7185884,-4.0017078 c -1.7454984,2.3720609 -1.7354408,5.6174519 -6e-7,8.035443 z"
         transform="scale(-0.6)" />
    </marker>
    <marker
       inkscape:stockid="Arrow2Mend"
       orient="auto"
       refY="0"
       refX="0"
       id="marker12212-2-9"
       style="overflow:visible"
       inkscape:isstock="true">
      <path
         inkscape:connector-curvature="0"
         id="path12210-31-7"
         style="fill:#000000;fill-opacity:1;fill-rule:evenodd;stroke:#000000;stroke-width:0.625;stroke-linejoin:round;stroke-opacity:1"
         d="M 8.7185878,4.0337352 -2.2072895,0.01601326 8.7185884,-4.0017078 c -1.7454984,2.3720609 -1.7354408,5.6174519 -6e-7,8.035443 z"
         transform="scale(-0.6)" />
    </marker>
    <marker
       inkscape:stockid="Arrow2Mend"
       orient="auto"
       refY="0"
       refX="0"
       id="marker12212-2-9-1"
       style="overflow:visible"
       inkscape:isstock="true">
      <path
         inkscape:connector-curvature="0"
         id="path12210-31-7-1"
         style="fill:#000000;fill-opacity:1;fill-rule:evenodd;stroke:#000000;stroke-width:0.625;stroke-linejoin:round;stroke-opacity:1"
         d="M 8.7185878,4.0337352 -2.2072895,0.01601326 8.7185884,-4.0017078 c -1.7454984,2.3720609 -1.7354408,5.6174519 -6e-7,8.035443 z"
         transform="scale(-0.6)" />
    </marker>
    <marker
       inkscape:stockid="Arrow2Mend"
       orient="auto"
       refY="0"
       refX="0"
       id="marker12212-37"
       style="overflow:visible"
       inkscape:isstock="true">
      <path
         id="path12210-7"
         style="fill:#000000;fill-opacity:1;fill-rule:evenodd;stroke:#000000;stroke-width:0.625;stroke-linejoin:round;stroke-opacity:1"
         d="M 8.7185878,4.0337352 -2.2072895,0.01601326 8.7185884,-4.0017078 c -1.7454984,2.3720609 -1.7354408,5.6174519 -6e-7,8.035443 z"
         transform="scale(-0.6)"
         inkscape:connector-curvature="0" />
    </marker>
    <marker
       inkscape:stockid="Arrow2Mend"
       orient="auto"
       refY="0"
       refX="0"
       id="marker12212-631"
       style="overflow:visible"
       inkscape:isstock="true">
      <path
         id="path12210-5"
         style="fill:#000000;fill-opacity:1;fill-rule:evenodd;stroke:#000000;stroke-width:0.625;stroke-linejoin:round;stroke-opacity:1"
         d="M 8.7185878,4.0337352 -2.2072895,0.01601326 8.7185884,-4.0017078 c -1.7454984,2.3720609 -1.7354408,5.6174519 -6e-7,8.035443 z"
         transform="scale(-0.6)"
         inkscape:connector-curvature="0" />
    </marker>
    <marker
       inkscape:stockid="Arrow2Mend"
       orient="auto"
       refY="0"
       refX="0"
       id="marker12212-2-1"
       style="overflow:visible"
       inkscape:isstock="true">
      <path
         inkscape:connector-curvature="0"
         id="path12210-31-44"
         style="fill:#000000;fill-opacity:1;fill-rule:evenodd;stroke:#000000;stroke-width:0.625;stroke-linejoin:round;stroke-opacity:1"
         d="M 8.7185878,4.0337352 -2.2072895,0.01601326 8.7185884,-4.0017078 c -1.7454984,2.3720609 -1.7354408,5.6174519 -6e-7,8.035443 z"
         transform="scale(-0.6)" />
    </marker>
    <marker
       inkscape:stockid="Arrow2Mend"
       orient="auto"
       refY="0"
       refX="0"
       id="marker12212-3-0"
       style="overflow:visible"
       inkscape:isstock="true">
      <path
         inkscape:connector-curvature="0"
         id="path12210-2-9"
         style="fill:#000000;fill-opacity:1;fill-rule:evenodd;stroke:#000000;stroke-width:0.625;stroke-linejoin:round;stroke-opacity:1"
         d="M 8.7185878,4.0337352 -2.2072895,0.01601326 8.7185884,-4.0017078 c -1.7454984,2.3720609 -1.7354408,5.6174519 -6e-7,8.035443 z"
         transform="scale(-0.6)" />
    </marker>
    <marker
       inkscape:stockid="Arrow2Mend"
       orient="auto"
       refY="0"
       refX="0"
       id="marker12212-2-0-4"
       style="overflow:visible"
       inkscape:isstock="true">
      <path
         inkscape:connector-curvature="0"
         id="path12210-31-1-4"
         style="fill:#000000;fill-opacity:1;fill-rule:evenodd;stroke:#000000;stroke-width:0.625;stroke-linejoin:round;stroke-opacity:1"
         d="M 8.7185878,4.0337352 -2.2072895,0.01601326 8.7185884,-4.0017078 c -1.7454984,2.3720609 -1.7354408,5.6174519 -6e-7,8.035443 z"
         transform="scale(-0.6)" />
    </marker>
    <marker
       inkscape:stockid="Arrow2Mend"
       orient="auto"
       refY="0"
       refX="0"
       id="marker12212-29"
       style="overflow:visible"
       inkscape:isstock="true">
      <path
         id="path12210-8"
         style="fill:#909090;fill-opacity:1;fill-rule:evenodd;stroke:#909090;stroke-width:0.625;stroke-linejoin:round;stroke-opacity:1"
         d="M 8.7185878,4.0337352 -2.2072895,0.01601326 8.7185884,-4.0017078 c -1.7454984,2.3720609 -1.7354408,5.6174519 -6e-7,8.035443 z"
         transform="scale(-0.6)"
         inkscape:connector-curvature="0" />
    </marker>
    <marker
       inkscape:stockid="Arrow2Mend"
       orient="auto"
       refY="0"
       refX="0"
       id="marker12212-3-2-8"
       style="overflow:visible"
       inkscape:isstock="true">
      <path
         inkscape:connector-curvature="0"
         id="path12210-2-6-4"
         style="fill:#b8b8b8;fill-opacity:1;fill-rule:evenodd;stroke:#b8b8b8;stroke-width:0.625;stroke-linejoin:round;stroke-opacity:1"
         d="M 8.7185878,4.0337352 -2.2072895,0.01601326 8.7185884,-4.0017078 c -1.7454984,2.3720609 -1.7354408,5.6174519 -6e-7,8.035443 z"
         transform="scale(-0.6)" />
    </marker>
    <marker
       inkscape:stockid="Arrow2Mend"
       orient="auto"
       refY="0"
       refX="0"
       id="marker12212-3-4"
       style="overflow:visible"
       inkscape:isstock="true">
      <path
         inkscape:connector-curvature="0"
         id="path12210-2-7"
         style="fill:#717171;fill-opacity:1;fill-rule:evenodd;stroke:#717171;stroke-width:0.625;stroke-linejoin:round;stroke-opacity:1"
         d="M 8.7185878,4.0337352 -2.2072895,0.01601326 8.7185884,-4.0017078 c -1.7454984,2.3720609 -1.7354408,5.6174519 -6e-7,8.035443 z"
         transform="scale(-0.6)" />
    </marker>
    <marker
       inkscape:stockid="Arrow2Mend"
       orient="auto"
       refY="0"
       refX="0"
       id="marker12212-2-2"
       style="overflow:visible"
       inkscape:isstock="true">
      <path
         inkscape:connector-curvature="0"
         id="path12210-31-2"
         style="fill:#000000;fill-opacity:1;fill-rule:evenodd;stroke:#000000;stroke-width:0.625;stroke-linejoin:round;stroke-opacity:1"
         d="M 8.7185878,4.0337352 -2.2072895,0.01601326 8.7185884,-4.0017078 c -1.7454984,2.3720609 -1.7354408,5.6174519 -6e-7,8.035443 z"
         transform="scale(-0.6)" />
    </marker>
    <marker
       inkscape:stockid="Arrow2Mend"
       orient="auto"
       refY="0"
       refX="0"
       id="marker12212-2-0-7"
       style="overflow:visible"
       inkscape:isstock="true">
      <path
         inkscape:connector-curvature="0"
         id="path12210-31-1-9"
         style="fill:#000000;fill-opacity:1;fill-rule:evenodd;stroke:#000000;stroke-width:0.625;stroke-linejoin:round;stroke-opacity:1"
         d="M 8.7185878,4.0337352 -2.2072895,0.01601326 8.7185884,-4.0017078 c -1.7454984,2.3720609 -1.7354408,5.6174519 -6e-7,8.035443 z"
         transform="scale(-0.6)" />
    </marker>
    <marker
       inkscape:stockid="Arrow2Mend"
       orient="auto"
       refY="0"
       refX="0"
       id="marker12212-1-8"
       style="overflow:visible"
       inkscape:isstock="true">
      <path
         id="path12210-9-7"
         style="fill:#6a6a6a;fill-opacity:1;fill-rule:evenodd;stroke:#6a6a6a;stroke-width:0.625;stroke-linejoin:round;stroke-opacity:1"
         d="M 8.7185878,4.0337352 -2.2072895,0.01601326 8.7185884,-4.0017078 c -1.7454984,2.3720609 -1.7354408,5.6174519 -6e-7,8.035443 z"
         transform="scale(-0.6)"
         inkscape:connector-curvature="0" />
    </marker>
    <marker
       inkscape:stockid="Arrow2Mend"
       orient="auto"
       refY="0"
       refX="0"
       id="marker12212-3-3-2-3"
       style="overflow:visible"
       inkscape:isstock="true">
      <path
         inkscape:connector-curvature="0"
         id="path12210-2-1-6-2"
         style="fill:#6a6a6a;fill-opacity:1;fill-rule:evenodd;stroke:#6a6a6a;stroke-width:0.625;stroke-linejoin:round;stroke-opacity:1"
         d="M 8.7185878,4.0337352 -2.2072895,0.01601326 8.7185884,-4.0017078 c -1.7454984,2.3720609 -1.7354408,5.6174519 -6e-7,8.035443 z"
         transform="scale(-0.6)" />
    </marker>
    <marker
       inkscape:stockid="Arrow2Mend"
       orient="auto"
       refY="0"
       refX="0"
       id="marker12212-2-9-8"
       style="overflow:visible"
       inkscape:isstock="true">
      <path
         inkscape:connector-curvature="0"
         id="path12210-31-7-3"
         style="fill:#000000;fill-opacity:1;fill-rule:evenodd;stroke:#000000;stroke-width:0.625;stroke-linejoin:round;stroke-opacity:1"
         d="M 8.7185878,4.0337352 -2.2072895,0.01601326 8.7185884,-4.0017078 c -1.7454984,2.3720609 -1.7354408,5.6174519 -6e-7,8.035443 z"
         transform="scale(-0.6)" />
    </marker>
    <marker
       inkscape:stockid="Arrow2Mend"
       orient="auto"
       refY="0"
       refX="0"
       id="marker12212-37-3"
       style="overflow:visible"
       inkscape:isstock="true">
      <path
         id="path12210-7-0"
         style="fill:#000000;fill-opacity:1;fill-rule:evenodd;stroke:#000000;stroke-width:0.625;stroke-linejoin:round;stroke-opacity:1"
         d="M 8.7185878,4.0337352 -2.2072895,0.01601326 8.7185884,-4.0017078 c -1.7454984,2.3720609 -1.7354408,5.6174519 -6e-7,8.035443 z"
         transform="scale(-0.6)"
         inkscape:connector-curvature="0" />
    </marker>
    <marker
       inkscape:stockid="Arrow2Mend"
       orient="auto"
       refY="0"
       refX="0"
       id="marker12212-2-1-4"
       style="overflow:visible"
       inkscape:isstock="true">
      <path
         inkscape:connector-curvature="0"
         id="path12210-31-44-7"
         style="fill:#000000;fill-opacity:1;fill-rule:evenodd;stroke:#000000;stroke-width:0.625;stroke-linejoin:round;stroke-opacity:1"
         d="M 8.7185878,4.0337352 -2.2072895,0.01601326 8.7185884,-4.0017078 c -1.7454984,2.3720609 -1.7354408,5.6174519 -6e-7,8.035443 z"
         transform="scale(-0.6)" />
    </marker>
    <marker
       inkscape:stockid="Arrow2Mend"
       orient="auto"
       refY="0"
       refX="0"
       id="marker12212-3-0-3"
       style="overflow:visible"
       inkscape:isstock="true">
      <path
         inkscape:connector-curvature="0"
         id="path12210-2-9-6"
         style="fill:#000000;fill-opacity:1;fill-rule:evenodd;stroke:#000000;stroke-width:0.625;stroke-linejoin:round;stroke-opacity:1"
         d="M 8.7185878,4.0337352 -2.2072895,0.01601326 8.7185884,-4.0017078 c -1.7454984,2.3720609 -1.7354408,5.6174519 -6e-7,8.035443 z"
         transform="scale(-0.6)" />
    </marker>
    <marker
       inkscape:stockid="Arrow2Mend"
       orient="auto"
       refY="0"
       refX="0"
       id="marker12212-2-0-4-5"
       style="overflow:visible"
       inkscape:isstock="true">
      <path
         inkscape:connector-curvature="0"
         id="path12210-31-1-4-7"
         style="fill:#000000;fill-opacity:1;fill-rule:evenodd;stroke:#000000;stroke-width:0.625;stroke-linejoin:round;stroke-opacity:1"
         d="M 8.7185878,4.0337352 -2.2072895,0.01601326 8.7185884,-4.0017078 c -1.7454984,2.3720609 -1.7354408,5.6174519 -6e-7,8.035443 z"
         transform="scale(-0.6)" />
    </marker>
  </defs>
  <g
     id="layer1"
     inkscape:label="Camada 1"
     inkscape:groupmode="layer"
     transform="translate(-2273.1234,411.2228)">
    <path
       style="opacity:1;fill:none;fill-opacity:1;stroke:#262626;stroke-width:1.00699997;stroke-miterlimit:4;stroke-dasharray:none;stroke-dashoffset:0;stroke-opacity:1"
       d="m 2350.7536,-362.45703 c 0.2241,11.23018 -3.7313,23.39752 -11.2104,31.77784 -6.6797,7.4846 -17.3473,15.65601 -27.0644,13.16284 -9.1186,-2.33962 -10.2379,-15.86272 -16.3131,-23.05405 -6.6696,-7.89506 -19.6662,-11.80961 -21.9618,-21.88663 -2.4949,-10.95185 3.5074,-23.60293 11.2105,-31.77789 9.2731,-9.84111 24.3196,-19.22391 37.3857,-15.74312 10.0355,2.67345 13.7755,15.73737 18.8933,24.77431 4.0219,7.10179 8.8974,14.58677 9.0602,22.7467 z"
       id="path14102"
       inkscape:connector-curvature="0"
       sodipodi:nodetypes="aaaaaaaaa" />
    <path
       style="opacity:1;fill:none;fill-opacity:1;stroke:#262626;stroke-width:1;stroke-miterlimit:4;stroke-dasharray:none;stroke-dashoffset:0;stroke-opacity:1"
       d="m 2417.5855,-358.56 c 0.051,4.74821 -2.7939,10.70316 -7.2865,12.24092 -4.4188,1.51248 -7.6484,-0.14464 -13.0413,-5.12275 -5.0836,-4.00106 -15.201,5.00539 -19.4075,0.0905 -3.8531,-4.50196 -2.1381,-14.31576 2.8266,-17.55089 4.7505,-3.0956 10.7915,4.56601 16.4558,4.30846 4.8183,-0.21909 9.0489,-6.49549 13.6079,-4.92033 4.0696,1.40608 6.7985,6.64874 6.845,10.95412 z"
       id="path14102-4"
       inkscape:connector-curvature="0"
       sodipodi:nodetypes="aacaaaaa" />
    <text
       xml:space="preserve"
       style="font-style:normal;font-weight:normal;font-size:15.10049725px;line-height:1.25;font-family:sans-serif;letter-spacing:0px;word-spacing:0px;fill:#000000;fill-opacity:1;stroke:none;stroke-width:0.37751243"
       x="2385.7686"
       y="-355.34521"
       id="text7756-4-79-5"><tspan
         sodipodi:role="line"
         id="tspan7754-4-4-4"
         x="2385.7686"
         y="-355.34521"
         style="font-style:italic;font-variant:normal;font-weight:normal;font-stretch:normal;font-size:16.10719681px;font-family:'Liberation Serif';-inkscape-font-specification:'Liberation Serif';stroke-width:0.37751243">t</tspan></text>
    <text
       xml:space="preserve"
       style="font-style:normal;font-weight:normal;font-size:15.10049725px;line-height:1.25;font-family:sans-serif;letter-spacing:0px;word-spacing:0px;fill:#000000;fill-opacity:1;stroke:none;stroke-width:0.37751243"
       x="2406.7634"
       y="-352.98221"
       id="text7756-4-79-5-3"><tspan
         sodipodi:role="line"
         id="tspan7754-4-4-4-6"
         x="2406.7634"
         y="-352.98221"
         style="font-style:italic;font-variant:normal;font-weight:normal;font-stretch:normal;font-size:16.10719681px;font-family:'Liberation Serif';-inkscape-font-specification:'Liberation Serif';stroke-width:0.37751243">f</tspan></text>
    <path
       style="opacity:1;fill:#000000;fill-opacity:1;stroke:none;stroke-width:1.00697649;stroke-miterlimit:4;stroke-dasharray:none;stroke-dashoffset:0;stroke-opacity:1"
       id="path12232-1"
       sodipodi:type="arc"
       sodipodi:cx="1119.6053"
       sodipodi:cy="-2048.0894"
       sodipodi:rx="1.6433768"
       sodipodi:ry="1.6433768"
       sodipodi:start="0"
       sodipodi:end="5.8750401"
       sodipodi:open="true"
       d="m 1121.2487,-2048.0894 a 1.6433768,1.6433768 0 0 1 -1.476,1.6349 1.6433768,1.6433768 0 0 1 -1.7766,-1.3018 1.6433768,1.6433768 0 0 1 1.114,-1.9 1.6433768,1.6433768 0 0 1 2.0036,0.9147"
       transform="rotate(51.937909)" />
    <path
       style="opacity:1;fill:#000000;fill-opacity:1;stroke:none;stroke-width:1.00697649;stroke-miterlimit:4;stroke-dasharray:none;stroke-dashoffset:0;stroke-opacity:1"
       id="path12232-1-4"
       sodipodi:type="arc"
       sodipodi:cx="1136.8804"
       sodipodi:cy="-2030.739"
       sodipodi:rx="1.6433768"
       sodipodi:ry="1.6433768"
       sodipodi:start="0"
       sodipodi:end="5.8750401"
       sodipodi:open="true"
       d="m 1138.5237,-2030.739 a 1.6433768,1.6433768 0 0 1 -1.4759,1.6348 1.6433768,1.6433768 0 0 1 -1.7767,-1.3018 1.6433768,1.6433768 0 0 1 1.114,-1.9 1.6433768,1.6433768 0 0 1 2.0037,0.9147"
       transform="rotate(51.937909)" />
    <path
       style="opacity:1;fill:#000000;fill-opacity:1;stroke:none;stroke-width:1.00697649;stroke-miterlimit:4;stroke-dasharray:none;stroke-dashoffset:0;stroke-opacity:1"
       id="path12232-1-5"
       sodipodi:type="arc"
       sodipodi:cx="1158.7043"
       sodipodi:cy="-2037.6835"
       sodipodi:rx="1.6433768"
       sodipodi:ry="1.6433768"
       sodipodi:start="0"
       sodipodi:end="5.8750401"
       sodipodi:open="true"
       d="m 1160.3477,-2037.6835 a 1.6433768,1.6433768 0 0 1 -1.476,1.6349 1.6433768,1.6433768 0 0 1 -1.7766,-1.3018 1.6433768,1.6433768 0 0 1 1.114,-1.9001 1.6433768,1.6433768 0 0 1 2.0036,0.9148"
       transform="rotate(51.937909)" />
    <path
       style="opacity:1;fill:#000000;fill-opacity:1;stroke:none;stroke-width:1.00697649;stroke-miterlimit:4;stroke-dasharray:none;stroke-dashoffset:0;stroke-opacity:1"
       id="path12232-1-40"
       sodipodi:type="arc"
       sodipodi:cx="1139.7604"
       sodipodi:cy="-2063.7144"
       sodipodi:rx="1.6433768"
       sodipodi:ry="1.6433768"
       sodipodi:start="0"
       sodipodi:end="5.8750401"
       sodipodi:open="true"
       d="m 1141.4038,-2063.7144 a 1.6433768,1.6433768 0 0 1 -1.476,1.6349 1.6433768,1.6433768 0 0 1 -1.7767,-1.3018 1.6433768,1.6433768 0 0 1 1.114,-1.9 1.6433768,1.6433768 0 0 1 2.0037,0.9147"
       transform="rotate(51.937909)" />
    <path
       style="opacity:1;fill:#000000;fill-opacity:1;stroke:none;stroke-width:1.00697649;stroke-miterlimit:4;stroke-dasharray:none;stroke-dashoffset:0;stroke-opacity:1"
       id="path12232-1-44"
       sodipodi:type="arc"
       sodipodi:cx="1111.0558"
       sodipodi:cy="-2069.2585"
       sodipodi:rx="1.6433768"
       sodipodi:ry="1.6433768"
       sodipodi:start="0"
       sodipodi:end="5.8750401"
       sodipodi:open="true"
       d="m 1112.6992,-2069.2585 a 1.6433768,1.6433768 0 0 1 -1.476,1.6348 1.6433768,1.6433768 0 0 1 -1.7767,-1.3018 1.6433768,1.6433768 0 0 1 1.1141,-1.9 1.6433768,1.6433768 0 0 1 2.0036,0.9147"
       transform="rotate(51.937909)" />
    <path
       style="opacity:1;fill:#000000;fill-opacity:1;stroke:none;stroke-width:1.00697649;stroke-miterlimit:4;stroke-dasharray:none;stroke-dashoffset:0;stroke-opacity:1"
       id="path12232-1-58"
       sodipodi:type="arc"
       sodipodi:cx="1107.8883"
       sodipodi:cy="-2034.8696"
       sodipodi:rx="1.6433768"
       sodipodi:ry="1.6433768"
       sodipodi:start="0"
       sodipodi:end="5.8750401"
       sodipodi:open="true"
       d="m 1109.5317,-2034.8696 a 1.6433768,1.6433768 0 0 1 -1.476,1.6348 1.6433768,1.6433768 0 0 1 -1.7767,-1.3018 1.6433768,1.6433768 0 0 1 1.1141,-1.9 1.6433768,1.6433768 0 0 1 2.0036,0.9147"
       transform="rotate(51.937909)" />
    <path
       style="opacity:1;fill:#000000;fill-opacity:1;stroke:none;stroke-width:1.00697649;stroke-miterlimit:4;stroke-dasharray:none;stroke-dashoffset:0;stroke-opacity:1"
       id="path12232-1-1"
       sodipodi:type="arc"
       sodipodi:cx="1168.0798"
       sodipodi:cy="-2050.0056"
       sodipodi:rx="1.6433768"
       sodipodi:ry="1.6433768"
       sodipodi:start="0"
       sodipodi:end="5.8750401"
       sodipodi:open="true"
       d="m 1169.7232,-2050.0056 a 1.6433768,1.6433768 0 0 1 -1.476,1.6348 1.6433768,1.6433768 0 0 1 -1.7766,-1.3018 1.6433768,1.6433768 0 0 1 1.114,-1.9 1.6433768,1.6433768 0 0 1 2.0036,0.9147"
       transform="rotate(51.937909)" />
    <text
       xml:space="preserve"
       style="font-style:normal;font-weight:normal;font-size:15.10049725px;line-height:1.25;font-family:sans-serif;letter-spacing:0px;word-spacing:0px;fill:#000000;fill-opacity:1;stroke:none;stroke-width:0.37751243"
       x="2322.4917"
       y="-361.75916"
       id="text7756-4-79-4"><tspan
         sodipodi:role="line"
         id="tspan7754-4-4-9"
         x="2322.4917"
         y="-361.75916"
         style="font-style:italic;font-variant:normal;font-weight:normal;font-stretch:normal;font-size:16.10719681px;font-family:'Liberation Serif';-inkscape-font-specification:'Liberation Serif';stroke-width:0.37751243">n</tspan></text>
    <path
       style="fill:none;stroke:#8f8f8f;stroke-width:1px;stroke-linecap:butt;stroke-linejoin:miter;stroke-opacity:1;marker-end:url(#Arrow2Mend)"
       d="m 2328.821,-375.78873 c 0,0 18.3446,-5.94911 27.2009,-3.65546 12.932,3.34917 24.1906,17.84725 24.1906,17.84725"
       id="path14234"
       inkscape:connector-curvature="0"
       sodipodi:nodetypes="csc" />
    <text
       xml:space="preserve"
       style="font-style:normal;font-weight:normal;font-size:15.10049725px;line-height:1.25;font-family:sans-serif;letter-spacing:0px;word-spacing:0px;fill:#000000;fill-opacity:1;stroke:none;stroke-width:0.37751243"
       x="2344.6238"
       y="-384.25049"
       id="text7756-4-79-4-8"><tspan
         sodipodi:role="line"
         id="tspan7754-4-4-9-6"
         x="2344.6238"
         y="-384.25049"
         style="font-style:italic;font-variant:normal;font-weight:normal;font-stretch:normal;font-size:16.10719681px;font-family:'Liberation Serif';-inkscape-font-specification:'Liberation Serif';stroke-width:0.37751243">odd</tspan></text>
    <text
       xml:space="preserve"
       style="font-style:normal;font-weight:normal;font-size:15.10049725px;line-height:1.25;font-family:sans-serif;letter-spacing:0px;word-spacing:0px;fill:#000000;fill-opacity:1;stroke:none;stroke-width:0.37751243"
       x="2289.4741"
       y="-310.12094"
       id="text7756-4-79-4-2"><tspan
         sodipodi:role="line"
         id="tspan7754-4-4-9-0"
         x="2289.4741"
         y="-310.12094"
         style="font-style:italic;font-variant:normal;font-weight:normal;font-stretch:normal;font-size:16.10719681px;font-family:'Liberation Serif';-inkscape-font-specification:'Liberation Serif';stroke-width:0.37751243">N</tspan></text>
    <text
       xml:space="preserve"
       style="font-style:normal;font-weight:normal;font-size:15.10049725px;line-height:1.25;font-family:sans-serif;letter-spacing:0px;word-spacing:0px;fill:#000000;fill-opacity:1;stroke:none;stroke-width:0.37751243"
       x="2404.5396"
       y="-330.23303"
       id="text7756-4-79-4-2-8"><tspan
         sodipodi:role="line"
         id="tspan7754-4-4-9-0-8"
         x="2404.5396"
         y="-330.23303"
         style="font-style:italic;font-variant:normal;font-weight:normal;font-stretch:normal;font-size:16.10719681px;font-family:'Liberation Serif';-inkscape-font-specification:'Liberation Serif';stroke-width:0.37751243">B</tspan></text>
    <path
       style="opacity:1;fill:#000000;fill-opacity:1;stroke:none;stroke-width:1.00697649;stroke-miterlimit:4;stroke-dasharray:none;stroke-dashoffset:0;stroke-opacity:1"
       id="path12232-1-1-6"
       sodipodi:type="arc"
       sodipodi:cx="1186.5021"
       sodipodi:cy="-2098.1213"
       sodipodi:rx="1.6433768"
       sodipodi:ry="1.6433768"
       sodipodi:start="0"
       sodipodi:end="5.8750401"
       sodipodi:open="true"
       d="m 1188.1455,-2098.1213 a 1.6433768,1.6433768 0 0 1 -1.476,1.6348 1.6433768,1.6433768 0 0 1 -1.7767,-1.3018 1.6433768,1.6433768 0 0 1 1.114,-1.9 1.6433768,1.6433768 0 0 1 2.0037,0.9147"
       transform="rotate(51.937909)" />
    <path
       style="opacity:1;fill:#000000;fill-opacity:1;stroke:none;stroke-width:1.00697649;stroke-miterlimit:4;stroke-dasharray:none;stroke-dashoffset:0;stroke-opacity:1"
       id="path12232-1-1-8"
       sodipodi:type="arc"
       sodipodi:cx="1200.1709"
       sodipodi:cy="-2114.1826"
       sodipodi:rx="1.6433768"
       sodipodi:ry="1.6433768"
       sodipodi:start="0"
       sodipodi:end="5.8750401"
       sodipodi:open="true"
       d="m 1201.8143,-2114.1826 a 1.6433768,1.6433768 0 0 1 -1.476,1.6348 1.6433768,1.6433768 0 0 1 -1.7767,-1.3018 1.6433768,1.6433768 0 0 1 1.1141,-1.9 1.6433768,1.6433768 0 0 1 2.0036,0.9147"
       transform="rotate(51.937909)" />
  </g>
  <metadata
     id="metadata4873">
    <rdf:RDF>
      <cc:Work>
        <dc:format>image/svg+xml</dc:format>
        <dc:type
           rdf:resource="http://purl.org/dc/dcmitype/StillImage" />
        <cc:license
           rdf:resource="http://creativecommons.org/publicdomain/zero/1.0/" />
        <dc:publisher>
          <cc:Agent
             rdf:about="http://openclipart.org/">
            <dc:title>Openclipart</dc:title>
          </cc:Agent>
        </dc:publisher>
        <dc:title></dc:title>
        <dc:date>2011-06-27T17:37:08</dc:date>
        <dc:description>Um verto feito para um duvida postada na lista Inkscape Brasil.org</dc:description>
        <dc:source>https://openclipart.org/detail/147445/real-soccer-ball-by-maddrum</dc:source>
        <dc:creator>
          <cc:Agent>
            <dc:title>Maddrum</dc:title>
          </cc:Agent>
        </dc:creator>
        <dc:subject>
          <rdf:Bag>
            <rdf:li>Ball</rdf:li>
            <rdf:li>Bola</rdf:li>
            <rdf:li>Football</rdf:li>
            <rdf:li>Futebol</rdf:li>
            <rdf:li>Soccer</rdf:li>
            <rdf:li>worldcup</rdf:li>
          </rdf:Bag>
        </dc:subject>
      </cc:Work>
      <cc:License
         rdf:about="http://creativecommons.org/publicdomain/zero/1.0/">
        <cc:permits
           rdf:resource="http://creativecommons.org/ns#Reproduction" />
        <cc:permits
           rdf:resource="http://creativecommons.org/ns#Distribution" />
        <cc:permits
           rdf:resource="http://creativecommons.org/ns#DerivativeWorks" />
      </cc:License>
    </rdf:RDF>
  </metadata>
</svg>
