<?xml version="1.0" encoding="utf-8" standalone="no"?>
<!DOCTYPE svg PUBLIC "-//W3C//DTD SVG 1.1//EN"
  "http://www.w3.org/Graphics/SVG/1.1/DTD/svg11.dtd">
<svg xmlns:xlink="http://www.w3.org/1999/xlink" width="360pt" height="333.36pt" viewBox="0 0 360 333.36" xmlns="http://www.w3.org/2000/svg" version="1.1">
 <metadata>
  <rdf:RDF xmlns:dc="http://purl.org/dc/elements/1.1/" xmlns:cc="http://creativecommons.org/ns#" xmlns:rdf="http://www.w3.org/1999/02/22-rdf-syntax-ns#">
   <cc:Work>
    <dc:type rdf:resource="http://purl.org/dc/dcmitype/StillImage"/>
    <dc:date>2023-01-22T11:43:38.166044</dc:date>
    <dc:format>image/svg+xml</dc:format>
    <dc:creator>
     <cc:Agent>
      <dc:title>Matplotlib v3.6.2, https://matplotlib.org/</dc:title>
     </cc:Agent>
    </dc:creator>
   </cc:Work>
  </rdf:RDF>
 </metadata>
 <defs>
  <style type="text/css">*{stroke-linejoin: round; stroke-linecap: butt}</style>
 </defs>
 <g id="figure_1">
  <g id="patch_1">
   <path d="M 0 333.36 
L 360 333.36 
L 360 0 
L 0 0 
z
" style="fill: #ffffff"/>
  </g>
  <g id="axes_1">
   <g id="patch_2">
    <path d="M 45 296.6904 
L 324 296.6904 
L 324 40.0032 
L 45 40.0032 
z
" style="fill: #ffffff"/>
   </g>
   <g id="matplotlib.axis_1">
    <g id="xtick_1">
     <g id="line2d_1">
      <defs>
       <path id="mad797e56d4" d="M 0 0 
L 0 3.5 
" style="stroke: #000000; stroke-width: 0.8"/>
      </defs>
      <g>
       <use xlink:href="#mad797e56d4" x="85.857836" y="296.6904" style="stroke: #000000; stroke-width: 0.8"/>
      </g>
     </g>
     <g id="text_1">
      <!-- −2 -->
      <g transform="translate(78.486742 311.288837) scale(0.1 -0.1)">
       <defs>
        <path id="DejaVuSans-2212" d="M 678 2272 
L 4684 2272 
L 4684 1741 
L 678 1741 
L 678 2272 
z
" transform="scale(0.015625)"/>
        <path id="DejaVuSans-32" d="M 1228 531 
L 3431 531 
L 3431 0 
L 469 0 
L 469 531 
Q 828 903 1448 1529 
Q 2069 2156 2228 2338 
Q 2531 2678 2651 2914 
Q 2772 3150 2772 3378 
Q 2772 3750 2511 3984 
Q 2250 4219 1831 4219 
Q 1534 4219 1204 4116 
Q 875 4013 500 3803 
L 500 4441 
Q 881 4594 1212 4672 
Q 1544 4750 1819 4750 
Q 2544 4750 2975 4387 
Q 3406 4025 3406 3419 
Q 3406 3131 3298 2873 
Q 3191 2616 2906 2266 
Q 2828 2175 2409 1742 
Q 1991 1309 1228 531 
z
" transform="scale(0.015625)"/>
       </defs>
       <use xlink:href="#DejaVuSans-2212"/>
       <use xlink:href="#DejaVuSans-32" x="83.789062"/>
      </g>
     </g>
    </g>
    <g id="xtick_2">
     <g id="line2d_2">
      <g>
       <use xlink:href="#mad797e56d4" x="135.178918" y="296.6904" style="stroke: #000000; stroke-width: 0.8"/>
      </g>
     </g>
     <g id="text_2">
      <!-- −1 -->
      <g transform="translate(127.807824 311.288837) scale(0.1 -0.1)">
       <defs>
        <path id="DejaVuSans-31" d="M 794 531 
L 1825 531 
L 1825 4091 
L 703 3866 
L 703 4441 
L 1819 4666 
L 2450 4666 
L 2450 531 
L 3481 531 
L 3481 0 
L 794 0 
L 794 531 
z
" transform="scale(0.015625)"/>
       </defs>
       <use xlink:href="#DejaVuSans-2212"/>
       <use xlink:href="#DejaVuSans-31" x="83.789062"/>
      </g>
     </g>
    </g>
    <g id="xtick_3">
     <g id="line2d_3">
      <g>
       <use xlink:href="#mad797e56d4" x="184.5" y="296.6904" style="stroke: #000000; stroke-width: 0.8"/>
      </g>
     </g>
     <g id="text_3">
      <!-- 0 -->
      <g transform="translate(181.31875 311.288837) scale(0.1 -0.1)">
       <defs>
        <path id="DejaVuSans-30" d="M 2034 4250 
Q 1547 4250 1301 3770 
Q 1056 3291 1056 2328 
Q 1056 1369 1301 889 
Q 1547 409 2034 409 
Q 2525 409 2770 889 
Q 3016 1369 3016 2328 
Q 3016 3291 2770 3770 
Q 2525 4250 2034 4250 
z
M 2034 4750 
Q 2819 4750 3233 4129 
Q 3647 3509 3647 2328 
Q 3647 1150 3233 529 
Q 2819 -91 2034 -91 
Q 1250 -91 836 529 
Q 422 1150 422 2328 
Q 422 3509 836 4129 
Q 1250 4750 2034 4750 
z
" transform="scale(0.015625)"/>
       </defs>
       <use xlink:href="#DejaVuSans-30"/>
      </g>
     </g>
    </g>
    <g id="xtick_4">
     <g id="line2d_4">
      <g>
       <use xlink:href="#mad797e56d4" x="233.821082" y="296.6904" style="stroke: #000000; stroke-width: 0.8"/>
      </g>
     </g>
     <g id="text_4">
      <!-- 1 -->
      <g transform="translate(230.639832 311.288837) scale(0.1 -0.1)">
       <use xlink:href="#DejaVuSans-31"/>
      </g>
     </g>
    </g>
    <g id="xtick_5">
     <g id="line2d_5">
      <g>
       <use xlink:href="#mad797e56d4" x="283.142164" y="296.6904" style="stroke: #000000; stroke-width: 0.8"/>
      </g>
     </g>
     <g id="text_5">
      <!-- 2 -->
      <g transform="translate(279.960914 311.288837) scale(0.1 -0.1)">
       <use xlink:href="#DejaVuSans-32"/>
      </g>
     </g>
    </g>
   </g>
   <g id="matplotlib.axis_2">
    <g id="ytick_1">
     <g id="line2d_6">
      <defs>
       <path id="m3df7f31326" d="M 0 0 
L -3.5 0 
" style="stroke: #000000; stroke-width: 0.8"/>
      </defs>
      <g>
       <use xlink:href="#m3df7f31326" x="45" y="259.100137" style="stroke: #000000; stroke-width: 0.8"/>
      </g>
     </g>
     <g id="text_6">
      <!-- −2 -->
      <g transform="translate(23.257812 262.899355) scale(0.1 -0.1)">
       <use xlink:href="#DejaVuSans-2212"/>
       <use xlink:href="#DejaVuSans-32" x="83.789062"/>
      </g>
     </g>
    </g>
    <g id="ytick_2">
     <g id="line2d_7">
      <g>
       <use xlink:href="#m3df7f31326" x="45" y="213.723468" style="stroke: #000000; stroke-width: 0.8"/>
      </g>
     </g>
     <g id="text_7">
      <!-- −1 -->
      <g transform="translate(23.257812 217.522687) scale(0.1 -0.1)">
       <use xlink:href="#DejaVuSans-2212"/>
       <use xlink:href="#DejaVuSans-31" x="83.789062"/>
      </g>
     </g>
    </g>
    <g id="ytick_3">
     <g id="line2d_8">
      <g>
       <use xlink:href="#m3df7f31326" x="45" y="168.3468" style="stroke: #000000; stroke-width: 0.8"/>
      </g>
     </g>
     <g id="text_8">
      <!-- 0 -->
      <g transform="translate(31.6375 172.146019) scale(0.1 -0.1)">
       <use xlink:href="#DejaVuSans-30"/>
      </g>
     </g>
    </g>
    <g id="ytick_4">
     <g id="line2d_9">
      <g>
       <use xlink:href="#m3df7f31326" x="45" y="122.970132" style="stroke: #000000; stroke-width: 0.8"/>
      </g>
     </g>
     <g id="text_9">
      <!-- 1 -->
      <g transform="translate(31.6375 126.76935) scale(0.1 -0.1)">
       <use xlink:href="#DejaVuSans-31"/>
      </g>
     </g>
    </g>
    <g id="ytick_5">
     <g id="line2d_10">
      <g>
       <use xlink:href="#m3df7f31326" x="45" y="77.593463" style="stroke: #000000; stroke-width: 0.8"/>
      </g>
     </g>
     <g id="text_10">
      <!-- 2 -->
      <g transform="translate(31.6375 81.392682) scale(0.1 -0.1)">
       <use xlink:href="#DejaVuSans-32"/>
      </g>
     </g>
    </g>
   </g>
   <g id="line2d_11">
    <path d="M 283.142164 168.3468 
L 282.945556 162.619753 
L 282.356515 156.915536 
L 281.377389 151.256888 
L 280.012081 145.666365 
L 278.266034 140.166253 
L 276.146209 134.778476 
L 273.661054 129.524513 
L 270.820478 124.425307 
L 267.635803 119.501185 
L 264.119724 114.771775 
L 260.286257 110.255932 
L 256.150684 105.971656 
L 251.729491 101.936025 
L 247.040301 98.165127 
L 242.101807 94.673994 
L 236.933696 91.476543 
L 231.556568 88.585518 
L 225.991859 86.012446 
L 220.261751 83.767583 
L 214.389087 81.859877 
L 208.397276 80.296933 
L 202.310203 79.084982 
L 196.152133 78.228855 
L 189.947615 77.731964 
L 183.721381 77.596291 
L 177.498251 77.822375 
L 171.303032 78.409317 
L 165.16042 79.354776 
L 159.094901 80.654983 
L 153.130654 82.304755 
L 147.291454 84.297517 
L 141.600579 86.625323 
L 136.080714 89.278895 
L 130.753862 92.247655 
L 125.641258 95.519769 
L 120.763282 99.082192 
L 116.139379 102.920725 
L 111.787982 107.020065 
L 107.726436 111.363871 
L 103.970932 115.934828 
L 100.536441 120.714715 
L 97.436653 125.684477 
L 94.683925 130.824304 
L 92.28923 136.113706 
L 90.262115 141.531599 
L 88.610659 147.056385 
L 87.341446 152.66604 
L 86.459536 158.338204 
L 85.968444 164.050266 
L 85.870128 169.779454 
L 86.164979 175.502932 
L 86.851822 181.197883 
L 87.92792 186.841605 
L 89.388982 192.411603 
L 91.229185 197.88567 
L 93.441193 203.241988 
L 96.016187 208.459202 
L 98.943905 213.516517 
L 102.212673 218.393772 
L 105.809464 223.071526 
L 109.719938 227.53113 
L 113.928507 231.754808 
L 118.418394 235.725724 
L 123.171703 239.428047 
L 128.169484 242.84702 
L 133.391815 245.969012 
L 138.817878 248.78158 
L 144.426044 251.273512 
L 150.193956 253.434873 
L 156.098622 255.257048 
L 162.116504 256.732773 
L 168.223613 257.856166 
L 174.395605 258.622748 
L 180.607876 259.029464 
L 186.835662 259.074693 
L 193.054138 258.758253 
L 199.238514 258.081406 
L 205.364138 257.046852 
L 211.406592 255.658712 
L 217.341788 253.922522 
L 223.146067 251.845202 
L 228.796291 249.435033 
L 234.269938 246.701622 
L 239.545186 243.655866 
L 244.601009 240.309906 
L 249.417251 236.67708 
L 253.974715 232.77187 
L 258.255231 228.609842 
L 262.241738 224.207588 
L 265.918343 219.582656 
L 269.270391 214.753484 
L 272.284519 209.739321 
L 274.948712 204.560155 
L 277.25235 199.236631 
L 279.18625 193.789973 
L 280.742703 188.24189 
L 281.915505 182.614499 
L 282.699979 176.930233 
L 283.093 171.211751 
L 283.142164 168.3468 
L 283.142164 168.3468 
" clip-path="url(#p2d15b09e8e)" style="fill: none; stroke-dasharray: 5.55,2.4; stroke-dashoffset: 0; stroke: #0000ff; stroke-opacity: 0.2; stroke-width: 1.5"/>
   </g>
   <g id="line2d_12">
    <path d="M 283.142164 168.3468 
L 289.170432 156.915536 
L 294.781453 145.666365 
L 299.952859 134.778476 
L 304.664037 124.425307 
L 310.827312 110.255932 
L 317.275127 94.673994 
L 323.426734 79.084982 
L 324 77.596291 
L 318.251181 92.247655 
L 312.193105 107.020065 
L 306.308182 120.714715 
L 301.774533 130.824304 
L 296.773394 141.531599 
L 291.324699 152.66604 
L 285.450171 164.050266 
L 279.173225 175.502932 
L 272.518884 186.841605 
L 269.058423 192.411603 
L 265.513673 197.88567 
L 261.888167 203.241988 
L 258.185519 208.459202 
L 254.409419 213.516517 
L 250.563632 218.393772 
L 246.651992 223.071526 
L 242.678397 227.53113 
L 238.646808 231.754808 
L 234.561245 235.725724 
L 230.42578 239.428047 
L 226.244535 242.84702 
L 222.021678 245.969012 
L 217.761418 248.78158 
L 213.468003 251.273512 
L 209.145712 253.434873 
L 204.798853 255.257048 
L 200.431761 256.732773 
L 196.048787 257.856166 
L 191.654301 258.622748 
L 187.252683 259.029464 
L 182.848322 259.074693 
L 178.445606 258.758253 
L 174.048927 258.081406 
L 169.662664 257.046852 
L 165.291193 255.658712 
L 160.938868 253.922522 
L 156.61003 251.845202 
L 152.308994 249.435033 
L 148.040046 246.701622 
L 143.807442 243.655866 
L 139.615402 240.309906 
L 135.468103 236.67708 
L 131.36968 232.77187 
L 127.324219 228.609842 
L 123.335752 224.207588 
L 119.408255 219.582656 
L 115.545643 214.753484 
L 111.751766 209.739321 
L 108.030406 204.560155 
L 104.385272 199.236631 
L 100.819999 193.789973 
L 97.338139 188.24189 
L 90.638459 176.930233 
L 84.312939 165.481849 
L 78.386793 154.079101 
L 72.883646 142.903627 
L 67.825434 132.133445 
L 63.232322 121.940116 
L 57.254241 108.083758 
L 51.065863 93.037734 
L 45.008692 77.618907 
L 55.9361 104.938792 
L 61.633611 118.299828 
L 66.047489 128.234398 
L 70.933553 138.80793 
L 76.272327 149.851995 
L 82.042528 161.190668 
L 88.221154 172.643334 
L 94.783576 184.02756 
L 98.200593 189.637215 
L 101.703634 195.162001 
L 105.289209 200.579894 
L 108.953743 205.869296 
L 112.693583 211.009123 
L 116.505001 215.978885 
L 120.384198 220.758772 
L 124.327307 225.329729 
L 128.330398 229.673535 
L 132.38948 233.772875 
L 136.500506 237.611408 
L 140.65938 241.173831 
L 144.861955 244.445945 
L 149.104041 247.414705 
L 153.381412 250.068277 
L 157.689802 252.396083 
L 162.024917 254.388845 
L 166.382435 256.038617 
L 170.758014 257.338824 
L 175.147291 258.284283 
L 179.545891 258.871225 
L 183.949429 259.097309 
L 188.353516 258.961636 
L 192.753762 258.464745 
L 197.14578 257.608618 
L 201.525193 256.396667 
L 205.887635 254.833723 
L 210.228757 252.926017 
L 214.544232 250.681154 
L 218.829758 248.108082 
L 223.081063 245.217057 
L 227.293911 242.019606 
L 231.4641 238.528473 
L 235.587474 234.757575 
L 239.659924 230.721944 
L 243.677388 226.437668 
L 247.635864 221.921825 
L 251.531404 217.192415 
L 255.360126 212.268293 
L 259.118213 207.169087 
L 262.801918 201.915124 
L 266.407571 196.527347 
L 269.931577 191.027235 
L 273.370422 185.436712 
L 279.97901 174.073847 
L 283.142164 168.3468 
L 283.142164 168.3468 
" clip-path="url(#p2d15b09e8e)" style="fill: none; stroke: #ff0000; stroke-opacity: 0.2; stroke-width: 1.5; stroke-linecap: square"/>
   </g>
   <g id="line2d_13">
    <defs>
     <path id="m7d06d76020" d="M 0 3 
C 0.795609 3 1.55874 2.683901 2.12132 2.12132 
C 2.683901 1.55874 3 0.795609 3 0 
C 3 -0.795609 2.683901 -1.55874 2.12132 -2.12132 
C 1.55874 -2.683901 0.795609 -3 0 -3 
C -0.795609 -3 -1.55874 -2.683901 -2.12132 -2.12132 
C -2.683901 -1.55874 -3 -0.795609 -3 0 
C -3 0.795609 -2.683901 1.55874 -2.12132 2.12132 
C -1.55874 2.683901 -0.795609 3 0 3 
z
" style="stroke: #ff0000; stroke-opacity: 0.8"/>
    </defs>
    <g clip-path="url(#p2d15b09e8e)">
     <use xlink:href="#m7d06d76020" x="283.142164" y="168.3468" style="fill-opacity: 0; stroke: #ff0000; stroke-opacity: 0.8"/>
    </g>
   </g>
   <g id="line2d_14">
    <defs>
     <path id="m897d64ffea" d="M -3 3 
L 3 -3 
M -3 -3 
L 3 3 
" style="stroke: #ff0000; stroke-opacity: 0.8"/>
    </defs>
    <g clip-path="url(#p2d15b09e8e)">
     <use xlink:href="#m897d64ffea" x="283.142164" y="168.3468" style="fill: #ff0000; fill-opacity: 0.8; stroke: #ff0000; stroke-opacity: 0.8"/>
    </g>
   </g>
   <g id="line2d_15">
    <defs>
     <path id="m55a9a028da" d="M 0 3 
C 0.795609 3 1.55874 2.683901 2.12132 2.12132 
C 2.683901 1.55874 3 0.795609 3 0 
C 3 -0.795609 2.683901 -1.55874 2.12132 -2.12132 
C 1.55874 -2.683901 0.795609 -3 0 -3 
C -0.795609 -3 -1.55874 -2.683901 -2.12132 -2.12132 
C -2.683901 -1.55874 -3 -0.795609 -3 0 
C -3 0.795609 -2.683901 1.55874 -2.12132 2.12132 
C -1.55874 2.683901 -0.795609 3 0 3 
z
" style="stroke: #008000; stroke-opacity: 0.8"/>
    </defs>
    <g clip-path="url(#p2d15b09e8e)">
     <use xlink:href="#m55a9a028da" x="269.92662" y="122.970132" style="fill-opacity: 0; stroke: #008000; stroke-opacity: 0.8"/>
    </g>
   </g>
   <g id="line2d_16">
    <defs>
     <path id="m144e72c40c" d="M -3 3 
L 3 -3 
M -3 -3 
L 3 3 
" style="stroke: #008000; stroke-opacity: 0.8"/>
    </defs>
    <g clip-path="url(#p2d15b09e8e)">
     <use xlink:href="#m144e72c40c" x="319.247702" y="89.752105" style="fill: #008000; fill-opacity: 0.8; stroke: #008000; stroke-opacity: 0.8"/>
    </g>
   </g>
   <g id="line2d_17">
    <defs>
     <path id="m01388693a0" d="M 0 3 
C 0.795609 3 1.55874 2.683901 2.12132 2.12132 
C 2.683901 1.55874 3 0.795609 3 0 
C 3 -0.795609 2.683901 -1.55874 2.12132 -2.12132 
C 1.55874 -2.683901 0.795609 -3 0 -3 
C -0.795609 -3 -1.55874 -2.683901 -2.12132 -2.12132 
C -2.683901 -1.55874 -3 -0.795609 -3 0 
C -3 0.795609 -2.683901 1.55874 -2.12132 2.12132 
C -1.55874 2.683901 -0.795609 3 0 3 
z
" style="stroke: #0000ff; stroke-opacity: 0.8"/>
    </defs>
    <g clip-path="url(#p2d15b09e8e)">
     <use xlink:href="#m01388693a0" x="233.821082" y="89.752105" style="fill-opacity: 0; stroke: #0000ff; stroke-opacity: 0.8"/>
    </g>
   </g>
   <g id="line2d_18">
    <defs>
     <path id="m64f04c08ce" d="M -3 3 
L 3 -3 
M -3 -3 
L 3 3 
" style="stroke: #0000ff; stroke-opacity: 0.8"/>
    </defs>
    <g clip-path="url(#p2d15b09e8e)">
     <use xlink:href="#m64f04c08ce" x="319.247702" y="89.752105" style="fill: #0000ff; fill-opacity: 0.8; stroke: #0000ff; stroke-opacity: 0.8"/>
    </g>
   </g>
   <g id="line2d_19">
    <defs>
     <path id="me7b055f032" d="M 0 3 
C 0.795609 3 1.55874 2.683901 2.12132 2.12132 
C 2.683901 1.55874 3 0.795609 3 0 
C 3 -0.795609 2.683901 -1.55874 2.12132 -2.12132 
C 1.55874 -2.683901 0.795609 -3 0 -3 
C -0.795609 -3 -1.55874 -2.683901 -2.12132 -2.12132 
C -2.683901 -1.55874 -3 -0.795609 -3 0 
C -3 0.795609 -2.683901 1.55874 -2.12132 2.12132 
C -1.55874 2.683901 -0.795609 3 0 3 
z
" style="stroke: #00bfbf; stroke-opacity: 0.8"/>
    </defs>
    <g clip-path="url(#p2d15b09e8e)">
     <use xlink:href="#me7b055f032" x="184.5" y="77.593463" style="fill-opacity: 0; stroke: #00bfbf; stroke-opacity: 0.8"/>
    </g>
   </g>
   <g id="line2d_20">
    <defs>
     <path id="mf34e7b4b49" d="M -3 3 
L 3 -3 
M -3 -3 
L 3 3 
" style="stroke: #00bfbf; stroke-opacity: 0.8"/>
    </defs>
    <g clip-path="url(#p2d15b09e8e)">
     <use xlink:href="#mf34e7b4b49" x="283.142164" y="168.3468" style="fill: #00bfbf; fill-opacity: 0.8; stroke: #00bfbf; stroke-opacity: 0.8"/>
    </g>
   </g>
   <g id="line2d_21">
    <defs>
     <path id="mc147ba64a1" d="M 0 3 
C 0.795609 3 1.55874 2.683901 2.12132 2.12132 
C 2.683901 1.55874 3 0.795609 3 0 
C 3 -0.795609 2.683901 -1.55874 2.12132 -2.12132 
C 1.55874 -2.683901 0.795609 -3 0 -3 
C -0.795609 -3 -1.55874 -2.683901 -2.12132 -2.12132 
C -2.683901 -1.55874 -3 -0.795609 -3 0 
C -3 0.795609 -2.683901 1.55874 -2.12132 2.12132 
C -1.55874 2.683901 -0.795609 3 0 3 
z
" style="stroke: #bf00bf; stroke-opacity: 0.8"/>
    </defs>
    <g clip-path="url(#p2d15b09e8e)">
     <use xlink:href="#mc147ba64a1" x="135.178918" y="89.752105" style="fill-opacity: 0; stroke: #bf00bf; stroke-opacity: 0.8"/>
    </g>
   </g>
   <g id="line2d_22">
    <defs>
     <path id="m05e5337133" d="M -3 3 
L 3 -3 
M -3 -3 
L 3 3 
" style="stroke: #bf00bf; stroke-opacity: 0.8"/>
    </defs>
    <g clip-path="url(#p2d15b09e8e)">
     <use xlink:href="#m05e5337133" x="220.605538" y="246.941495" style="fill: #bf00bf; fill-opacity: 0.8; stroke: #bf00bf; stroke-opacity: 0.8"/>
    </g>
   </g>
   <g id="line2d_23">
    <defs>
     <path id="m8c49579a04" d="M 0 3 
C 0.795609 3 1.55874 2.683901 2.12132 2.12132 
C 2.683901 1.55874 3 0.795609 3 0 
C 3 -0.795609 2.683901 -1.55874 2.12132 -2.12132 
C 1.55874 -2.683901 0.795609 -3 0 -3 
C -0.795609 -3 -1.55874 -2.683901 -2.12132 -2.12132 
C -2.683901 -1.55874 -3 -0.795609 -3 0 
C -3 0.795609 -2.683901 1.55874 -2.12132 2.12132 
C -1.55874 2.683901 -0.795609 3 0 3 
z
" style="stroke: #000000; stroke-opacity: 0.8"/>
    </defs>
    <g clip-path="url(#p2d15b09e8e)">
     <use xlink:href="#m8c49579a04" x="99.07338" y="122.970132" style="fill-opacity: 0; stroke: #000000; stroke-opacity: 0.8"/>
    </g>
   </g>
   <g id="line2d_24">
    <defs>
     <path id="mdc49b441a5" d="M -3 3 
L 3 -3 
M -3 -3 
L 3 3 
" style="stroke: #000000; stroke-opacity: 0.8"/>
    </defs>
    <g clip-path="url(#p2d15b09e8e)">
     <use xlink:href="#mdc49b441a5" x="148.394462" y="246.941495" style="fill-opacity: 0.8; stroke: #000000; stroke-opacity: 0.8"/>
    </g>
   </g>
   <g id="patch_3">
    <path d="M 45 296.6904 
L 45 40.0032 
" style="fill: none; stroke: #000000; stroke-width: 0.8; stroke-linejoin: miter; stroke-linecap: square"/>
   </g>
   <g id="patch_4">
    <path d="M 324 296.6904 
L 324 40.0032 
" style="fill: none; stroke: #000000; stroke-width: 0.8; stroke-linejoin: miter; stroke-linecap: square"/>
   </g>
   <g id="patch_5">
    <path d="M 45 296.6904 
L 324 296.6904 
" style="fill: none; stroke: #000000; stroke-width: 0.8; stroke-linejoin: miter; stroke-linecap: square"/>
   </g>
   <g id="patch_6">
    <path d="M 45 40.0032 
L 324 40.0032 
" style="fill: none; stroke: #000000; stroke-width: 0.8; stroke-linejoin: miter; stroke-linecap: square"/>
   </g>
  </g>
 </g>
 <defs>
  <clipPath id="p2d15b09e8e">
   <rect x="45" y="40.0032" width="279" height="256.6872"/>
  </clipPath>
 </defs>
</svg>
