<?xml version="1.0" encoding="utf-8" standalone="no"?>
<!DOCTYPE svg PUBLIC "-//W3C//DTD SVG 1.1//EN"
  "http://www.w3.org/Graphics/SVG/1.1/DTD/svg11.dtd">
<svg xmlns:xlink="http://www.w3.org/1999/xlink" width="360pt" height="333.36pt" viewBox="0 0 360 333.36" xmlns="http://www.w3.org/2000/svg" version="1.1">
 <metadata>
  <rdf:RDF xmlns:dc="http://purl.org/dc/elements/1.1/" xmlns:cc="http://creativecommons.org/ns#" xmlns:rdf="http://www.w3.org/1999/02/22-rdf-syntax-ns#">
   <cc:Work>
    <dc:type rdf:resource="http://purl.org/dc/dcmitype/StillImage"/>
    <dc:date>2023-01-22T16:15:57.990085</dc:date>
    <dc:format>image/svg+xml</dc:format>
    <dc:creator>
     <cc:Agent>
      <dc:title>Matplotlib v3.6.2, https://matplotlib.org/</dc:title>
     </cc:Agent>
    </dc:creator>
   </cc:Work>
  </rdf:RDF>
 </metadata>
 <defs>
  <style type="text/css">*{stroke-linejoin: round; stroke-linecap: butt}</style>
 </defs>
 <g id="figure_1">
  <g id="patch_1">
   <path d="M 0 333.36 
L 360 333.36 
L 360 0 
L 0 0 
z
" style="fill: #ffffff"/>
  </g>
  <g id="axes_1">
   <g id="patch_2">
    <path d="M 45 296.6904 
L 324 296.6904 
L 324 40.0032 
L 45 40.0032 
z
" style="fill: #ffffff"/>
   </g>
   <g id="matplotlib.axis_1">
    <g id="xtick_1">
     <g id="line2d_1">
      <defs>
       <path id="m812f3a019f" d="M 0 0 
L 0 3.5 
" style="stroke: #000000; stroke-width: 0.8"/>
      </defs>
      <g>
       <use xlink:href="#m812f3a019f" x="48.58812" y="296.6904" style="stroke: #000000; stroke-width: 0.8"/>
      </g>
     </g>
     <g id="text_1">
      <!-- −3 -->
      <g transform="translate(41.217027 311.288837) scale(0.1 -0.1)">
       <defs>
        <path id="DejaVuSans-2212" d="M 678 2272 
L 4684 2272 
L 4684 1741 
L 678 1741 
L 678 2272 
z
" transform="scale(0.015625)"/>
        <path id="DejaVuSans-33" d="M 2597 2516 
Q 3050 2419 3304 2112 
Q 3559 1806 3559 1356 
Q 3559 666 3084 287 
Q 2609 -91 1734 -91 
Q 1441 -91 1130 -33 
Q 819 25 488 141 
L 488 750 
Q 750 597 1062 519 
Q 1375 441 1716 441 
Q 2309 441 2620 675 
Q 2931 909 2931 1356 
Q 2931 1769 2642 2001 
Q 2353 2234 1838 2234 
L 1294 2234 
L 1294 2753 
L 1863 2753 
Q 2328 2753 2575 2939 
Q 2822 3125 2822 3475 
Q 2822 3834 2567 4026 
Q 2313 4219 1838 4219 
Q 1578 4219 1281 4162 
Q 984 4106 628 3988 
L 628 4550 
Q 988 4650 1302 4700 
Q 1616 4750 1894 4750 
Q 2613 4750 3031 4423 
Q 3450 4097 3450 3541 
Q 3450 3153 3228 2886 
Q 3006 2619 2597 2516 
z
" transform="scale(0.015625)"/>
       </defs>
       <use xlink:href="#DejaVuSans-2212"/>
       <use xlink:href="#DejaVuSans-33" x="83.789062"/>
      </g>
     </g>
    </g>
    <g id="xtick_2">
     <g id="line2d_2">
      <g>
       <use xlink:href="#m812f3a019f" x="93.89208" y="296.6904" style="stroke: #000000; stroke-width: 0.8"/>
      </g>
     </g>
     <g id="text_2">
      <!-- −2 -->
      <g transform="translate(86.520986 311.288837) scale(0.1 -0.1)">
       <defs>
        <path id="DejaVuSans-32" d="M 1228 531 
L 3431 531 
L 3431 0 
L 469 0 
L 469 531 
Q 828 903 1448 1529 
Q 2069 2156 2228 2338 
Q 2531 2678 2651 2914 
Q 2772 3150 2772 3378 
Q 2772 3750 2511 3984 
Q 2250 4219 1831 4219 
Q 1534 4219 1204 4116 
Q 875 4013 500 3803 
L 500 4441 
Q 881 4594 1212 4672 
Q 1544 4750 1819 4750 
Q 2544 4750 2975 4387 
Q 3406 4025 3406 3419 
Q 3406 3131 3298 2873 
Q 3191 2616 2906 2266 
Q 2828 2175 2409 1742 
Q 1991 1309 1228 531 
z
" transform="scale(0.015625)"/>
       </defs>
       <use xlink:href="#DejaVuSans-2212"/>
       <use xlink:href="#DejaVuSans-32" x="83.789062"/>
      </g>
     </g>
    </g>
    <g id="xtick_3">
     <g id="line2d_3">
      <g>
       <use xlink:href="#m812f3a019f" x="139.19604" y="296.6904" style="stroke: #000000; stroke-width: 0.8"/>
      </g>
     </g>
     <g id="text_3">
      <!-- −1 -->
      <g transform="translate(131.824946 311.288837) scale(0.1 -0.1)">
       <defs>
        <path id="DejaVuSans-31" d="M 794 531 
L 1825 531 
L 1825 4091 
L 703 3866 
L 703 4441 
L 1819 4666 
L 2450 4666 
L 2450 531 
L 3481 531 
L 3481 0 
L 794 0 
L 794 531 
z
" transform="scale(0.015625)"/>
       </defs>
       <use xlink:href="#DejaVuSans-2212"/>
       <use xlink:href="#DejaVuSans-31" x="83.789062"/>
      </g>
     </g>
    </g>
    <g id="xtick_4">
     <g id="line2d_4">
      <g>
       <use xlink:href="#m812f3a019f" x="184.5" y="296.6904" style="stroke: #000000; stroke-width: 0.8"/>
      </g>
     </g>
     <g id="text_4">
      <!-- 0 -->
      <g transform="translate(181.31875 311.288837) scale(0.1 -0.1)">
       <defs>
        <path id="DejaVuSans-30" d="M 2034 4250 
Q 1547 4250 1301 3770 
Q 1056 3291 1056 2328 
Q 1056 1369 1301 889 
Q 1547 409 2034 409 
Q 2525 409 2770 889 
Q 3016 1369 3016 2328 
Q 3016 3291 2770 3770 
Q 2525 4250 2034 4250 
z
M 2034 4750 
Q 2819 4750 3233 4129 
Q 3647 3509 3647 2328 
Q 3647 1150 3233 529 
Q 2819 -91 2034 -91 
Q 1250 -91 836 529 
Q 422 1150 422 2328 
Q 422 3509 836 4129 
Q 1250 4750 2034 4750 
z
" transform="scale(0.015625)"/>
       </defs>
       <use xlink:href="#DejaVuSans-30"/>
      </g>
     </g>
    </g>
    <g id="xtick_5">
     <g id="line2d_5">
      <g>
       <use xlink:href="#m812f3a019f" x="229.80396" y="296.6904" style="stroke: #000000; stroke-width: 0.8"/>
      </g>
     </g>
     <g id="text_5">
      <!-- 1 -->
      <g transform="translate(226.62271 311.288837) scale(0.1 -0.1)">
       <use xlink:href="#DejaVuSans-31"/>
      </g>
     </g>
    </g>
    <g id="xtick_6">
     <g id="line2d_6">
      <g>
       <use xlink:href="#m812f3a019f" x="275.10792" y="296.6904" style="stroke: #000000; stroke-width: 0.8"/>
      </g>
     </g>
     <g id="text_6">
      <!-- 2 -->
      <g transform="translate(271.92667 311.288837) scale(0.1 -0.1)">
       <use xlink:href="#DejaVuSans-32"/>
      </g>
     </g>
    </g>
    <g id="xtick_7">
     <g id="line2d_7">
      <g>
       <use xlink:href="#m812f3a019f" x="320.41188" y="296.6904" style="stroke: #000000; stroke-width: 0.8"/>
      </g>
     </g>
     <g id="text_7">
      <!-- 3 -->
      <g transform="translate(317.23063 311.288837) scale(0.1 -0.1)">
       <use xlink:href="#DejaVuSans-33"/>
      </g>
     </g>
    </g>
   </g>
   <g id="matplotlib.axis_2">
    <g id="ytick_1">
     <g id="line2d_8">
      <defs>
       <path id="m085fd2b676" d="M 0 0 
L -3.5 0 
" style="stroke: #000000; stroke-width: 0.8"/>
      </defs>
      <g>
       <use xlink:href="#m085fd2b676" x="45" y="293.389237" style="stroke: #000000; stroke-width: 0.8"/>
      </g>
     </g>
     <g id="text_8">
      <!-- −3 -->
      <g transform="translate(23.257812 297.188455) scale(0.1 -0.1)">
       <use xlink:href="#DejaVuSans-2212"/>
       <use xlink:href="#DejaVuSans-33" x="83.789062"/>
      </g>
     </g>
    </g>
    <g id="ytick_2">
     <g id="line2d_9">
      <g>
       <use xlink:href="#m085fd2b676" x="45" y="251.708424" style="stroke: #000000; stroke-width: 0.8"/>
      </g>
     </g>
     <g id="text_9">
      <!-- −2 -->
      <g transform="translate(23.257812 255.507643) scale(0.1 -0.1)">
       <use xlink:href="#DejaVuSans-2212"/>
       <use xlink:href="#DejaVuSans-32" x="83.789062"/>
      </g>
     </g>
    </g>
    <g id="ytick_3">
     <g id="line2d_10">
      <g>
       <use xlink:href="#m085fd2b676" x="45" y="210.027612" style="stroke: #000000; stroke-width: 0.8"/>
      </g>
     </g>
     <g id="text_10">
      <!-- −1 -->
      <g transform="translate(23.257812 213.826831) scale(0.1 -0.1)">
       <use xlink:href="#DejaVuSans-2212"/>
       <use xlink:href="#DejaVuSans-31" x="83.789062"/>
      </g>
     </g>
    </g>
    <g id="ytick_4">
     <g id="line2d_11">
      <g>
       <use xlink:href="#m085fd2b676" x="45" y="168.3468" style="stroke: #000000; stroke-width: 0.8"/>
      </g>
     </g>
     <g id="text_11">
      <!-- 0 -->
      <g transform="translate(31.6375 172.146019) scale(0.1 -0.1)">
       <use xlink:href="#DejaVuSans-30"/>
      </g>
     </g>
    </g>
    <g id="ytick_5">
     <g id="line2d_12">
      <g>
       <use xlink:href="#m085fd2b676" x="45" y="126.665988" style="stroke: #000000; stroke-width: 0.8"/>
      </g>
     </g>
     <g id="text_12">
      <!-- 1 -->
      <g transform="translate(31.6375 130.465207) scale(0.1 -0.1)">
       <use xlink:href="#DejaVuSans-31"/>
      </g>
     </g>
    </g>
    <g id="ytick_6">
     <g id="line2d_13">
      <g>
       <use xlink:href="#m085fd2b676" x="45" y="84.985176" style="stroke: #000000; stroke-width: 0.8"/>
      </g>
     </g>
     <g id="text_13">
      <!-- 2 -->
      <g transform="translate(31.6375 88.784394) scale(0.1 -0.1)">
       <use xlink:href="#DejaVuSans-32"/>
      </g>
     </g>
    </g>
    <g id="ytick_7">
     <g id="line2d_14">
      <g>
       <use xlink:href="#m085fd2b676" x="45" y="43.304363" style="stroke: #000000; stroke-width: 0.8"/>
      </g>
     </g>
     <g id="text_14">
      <!-- 3 -->
      <g transform="translate(31.6375 47.103582) scale(0.1 -0.1)">
       <use xlink:href="#DejaVuSans-33"/>
      </g>
     </g>
    </g>
   </g>
   <g id="line2d_15">
    <path d="M 275.10792 168.3468 
L 274.927325 163.086212 
L 274.38626 157.846594 
L 273.486882 152.648834 
L 272.232777 147.513649 
L 270.628943 142.461512 
L 268.681773 137.512562 
L 266.399031 132.686525 
L 263.789815 128.002641 
L 260.864526 123.479581 
L 257.634826 119.135374 
L 254.113589 114.987339 
L 250.314852 111.05201 
L 246.253758 107.345075 
L 241.946495 103.881311 
L 237.410233 100.674525 
L 232.663056 97.737501 
L 227.723887 95.081946 
L 222.612414 92.718446 
L 217.349015 90.656423 
L 211.954669 88.904096 
L 206.450881 87.468452 
L 200.859591 86.355212 
L 195.203086 85.568815 
L 189.503916 85.112396 
L 183.784798 84.987773 
L 178.068532 85.195443 
L 172.377903 85.734579 
L 166.735597 86.603032 
L 161.164105 87.797339 
L 155.685636 89.312741 
L 150.32203 91.143195 
L 145.094668 93.281405 
L 140.024386 95.718848 
L 135.131398 98.445807 
L 130.435207 101.451413 
L 125.954534 104.723682 
L 121.707241 108.249573 
L 117.710258 112.015028 
L 113.979518 116.005039 
L 110.529894 120.203699 
L 107.375137 124.594271 
L 104.527821 129.159254 
L 101.999299 133.88045 
L 99.799648 138.739039 
L 97.937638 143.715653 
L 96.42069 148.790454 
L 95.254853 153.943213 
L 94.444773 159.153388 
L 93.99368 164.400211 
L 93.903371 169.662767 
L 94.174207 174.920076 
L 94.805108 180.151183 
L 95.793559 185.335234 
L 97.135621 190.451563 
L 98.825942 195.479777 
L 100.857785 200.399831 
L 103.223051 205.192112 
L 105.91231 209.837517 
L 108.914843 214.317527 
L 112.21868 218.614285 
L 115.810652 222.710662 
L 119.67644 226.590329 
L 123.800634 230.23782 
L 128.166793 233.638595 
L 132.757513 236.779097 
L 137.554494 239.646809 
L 142.538613 242.230298 
L 147.690002 244.519265 
L 152.988127 246.504587 
L 158.411868 248.178349 
L 163.939603 249.533879 
L 169.549299 250.565773 
L 175.218592 251.269919 
L 180.924883 251.643508 
L 186.645426 251.685053 
L 192.357417 251.394386 
L 198.038086 250.772668 
L 203.664788 249.822376 
L 209.215093 248.547299 
L 214.666877 246.952518 
L 219.998407 245.044393 
L 225.18843 242.830528 
L 230.216257 240.319749 
L 235.061845 237.522065 
L 239.705879 234.448628 
L 244.129846 231.11169 
L 248.316112 227.524552 
L 252.247987 223.701515 
L 255.909799 219.657817 
L 259.286951 215.409579 
L 262.36598 210.973735 
L 265.134612 206.367967 
L 267.581811 201.610636 
L 269.697822 196.720705 
L 271.474209 191.717667 
L 272.903891 186.621467 
L 273.98117 181.452418 
L 274.70175 176.231126 
L 275.06276 170.978406 
L 275.10792 168.3468 
L 275.10792 168.3468 
" clip-path="url(#p8c47f92295)" style="fill: none; stroke-dasharray: 5.55,2.4; stroke-dashoffset: 0; stroke: #0000ff; stroke-opacity: 0.2; stroke-width: 1.5"/>
   </g>
   <g id="line2d_16">
    <path d="M 184.5 168.3468 
L 229.427483 172.56379 
L 250.329877 174.364639 
L 269.419292 175.797583 
L 286.19015 176.74304 
L 293.569608 176.996719 
L 300.216963 177.085842 
L 306.09393 176.997219 
L 311.168863 176.718393 
L 315.417018 176.23779 
L 318.820757 175.544896 
L 321.369686 174.63044 
L 323.060722 173.486583 
L 323.898109 172.107124 
L 323.893356 170.487701 
L 323.065116 168.625989 
L 321.438999 166.521898 
L 319.047326 164.177754 
L 315.928821 161.59846 
L 312.128247 158.791645 
L 307.695986 155.767769 
L 302.687573 152.540202 
L 291.187071 145.542213 
L 278.153567 137.963136 
L 256.988812 125.973749 
L 200.347587 94.05325 
L 184.522581 84.99816 
L 225.600617 108.345737 
L 281.524939 139.901636 
L 294.227432 147.353435 
L 305.26014 154.178496 
L 309.987721 157.306073 
L 314.11077 160.222907 
L 317.576267 162.917089 
L 320.336583 165.379588 
L 322.349926 167.604154 
L 323.580732 169.587191 
L 324 171.327604 
L 323.585571 172.826622 
L 322.322346 174.087615 
L 320.202437 175.115889 
L 317.22526 175.91849 
L 313.397558 176.503997 
L 308.733362 176.882327 
L 303.253882 177.064546 
L 296.987343 177.06269 
L 289.968748 176.8896 
L 282.239586 176.558777 
L 264.845798 175.480433 
L 245.252974 173.944184 
L 212.900966 171.044974 
L 190.220008 168.894137 
L 178.779992 168.894137 
L 134.207136 173.041853 
L 113.706839 174.762089 
L 95.152516 176.084244 
L 79.031252 176.8896 
L 72.012657 177.06269 
L 65.746118 177.064546 
L 60.266638 176.882327 
L 55.602442 176.503997 
L 51.77474 175.91849 
L 48.797563 175.115889 
L 46.677654 174.087615 
L 45.414429 172.826622 
L 45 171.327604 
L 45.419268 169.587191 
L 46.650074 167.604154 
L 48.663417 165.379588 
L 51.423733 162.917089 
L 54.88923 160.222907 
L 59.012279 157.306073 
L 63.73986 154.178496 
L 74.772568 147.353435 
L 87.475061 139.901636 
L 108.419149 127.994946 
L 174.767535 90.564402 
L 184.477419 84.99816 
L 152.788696 103.050695 
L 84.173008 141.813197 
L 71.836818 149.125263 
L 66.312427 152.540202 
L 61.304014 155.767769 
L 56.871753 158.791645 
L 53.071179 161.59846 
L 49.952674 164.177754 
L 47.561001 166.521898 
L 45.934884 168.625989 
L 45.106644 170.487701 
L 45.101891 172.107124 
L 45.939278 173.486583 
L 47.630314 174.63044 
L 50.179243 175.544896 
L 53.582982 176.23779 
L 57.831137 176.718393 
L 62.90607 176.997219 
L 68.783037 177.085842 
L 75.430392 176.996719 
L 82.80985 176.74304 
L 99.580708 175.797583 
L 118.670123 174.364639 
L 139.572517 172.56379 
L 173.06996 169.439548 
L 184.5 168.3468 
L 184.5 168.3468 
" clip-path="url(#p8c47f92295)" style="fill: none; stroke: #ff0000; stroke-opacity: 0.2; stroke-width: 1.5; stroke-linecap: square"/>
   </g>
   <g id="line2d_17">
    <defs>
     <path id="m66ed920284" d="M 0 3 
C 0.795609 3 1.55874 2.683901 2.12132 2.12132 
C 2.683901 1.55874 3 0.795609 3 0 
C 3 -0.795609 2.683901 -1.55874 2.12132 -2.12132 
C 1.55874 -2.683901 0.795609 -3 0 -3 
C -0.795609 -3 -1.55874 -2.683901 -2.12132 -2.12132 
C -2.683901 -1.55874 -3 -0.795609 -3 0 
C -3 0.795609 -2.683901 1.55874 -2.12132 2.12132 
C -1.55874 2.683901 -0.795609 3 0 3 
z
" style="stroke: #ff0000; stroke-opacity: 0.8"/>
    </defs>
    <g clip-path="url(#p8c47f92295)">
     <use xlink:href="#m66ed920284" x="275.10792" y="168.3468" style="fill-opacity: 0; stroke: #ff0000; stroke-opacity: 0.8"/>
    </g>
   </g>
   <g id="line2d_18">
    <defs>
     <path id="m35c1b24ff7" d="M -3 3 
L 3 -3 
M -3 -3 
L 3 3 
" style="stroke: #ff0000; stroke-opacity: 0.8"/>
    </defs>
    <g clip-path="url(#p8c47f92295)">
     <use xlink:href="#m35c1b24ff7" x="184.5" y="168.3468" style="fill: #ff0000; fill-opacity: 0.8; stroke: #ff0000; stroke-opacity: 0.8"/>
    </g>
   </g>
   <g id="line2d_19">
    <defs>
     <path id="me9b0b8b6cf" d="M 0 3 
C 0.795609 3 1.55874 2.683901 2.12132 2.12132 
C 2.683901 1.55874 3 0.795609 3 0 
C 3 -0.795609 2.683901 -1.55874 2.12132 -2.12132 
C 1.55874 -2.683901 0.795609 -3 0 -3 
C -0.795609 -3 -1.55874 -2.683901 -2.12132 -2.12132 
C -2.683901 -1.55874 -3 -0.795609 -3 0 
C -3 0.795609 -2.683901 1.55874 -2.12132 2.12132 
C -1.55874 2.683901 -0.795609 3 0 3 
z
" style="stroke: #008000; stroke-opacity: 0.8"/>
    </defs>
    <g clip-path="url(#p8c47f92295)">
     <use xlink:href="#me9b0b8b6cf" x="262.96876" y="126.665988" style="fill-opacity: 0; stroke: #008000; stroke-opacity: 0.8"/>
    </g>
   </g>
   <g id="line2d_20">
    <defs>
     <path id="m731830852a" d="M -3 3 
L 3 -3 
M -3 -3 
L 3 3 
" style="stroke: #008000; stroke-opacity: 0.8"/>
    </defs>
    <g clip-path="url(#p8c47f92295)">
     <use xlink:href="#m731830852a" x="320.41188" y="175.038927" style="fill: #008000; fill-opacity: 0.8; stroke: #008000; stroke-opacity: 0.8"/>
    </g>
   </g>
   <g id="line2d_21">
    <defs>
     <path id="m3858c4f6fc" d="M 0 3 
C 0.795609 3 1.55874 2.683901 2.12132 2.12132 
C 2.683901 1.55874 3 0.795609 3 0 
C 3 -0.795609 2.683901 -1.55874 2.12132 -2.12132 
C 1.55874 -2.683901 0.795609 -3 0 -3 
C -0.795609 -3 -1.55874 -2.683901 -2.12132 -2.12132 
C -2.683901 -1.55874 -3 -0.795609 -3 0 
C -3 0.795609 -2.683901 1.55874 -2.12132 2.12132 
C -1.55874 2.683901 -0.795609 3 0 3 
z
" style="stroke: #0000ff; stroke-opacity: 0.8"/>
    </defs>
    <g clip-path="url(#p8c47f92295)">
     <use xlink:href="#m3858c4f6fc" x="229.80396" y="96.153516" style="fill-opacity: 0; stroke: #0000ff; stroke-opacity: 0.8"/>
    </g>
   </g>
   <g id="line2d_22">
    <defs>
     <path id="m555fa5cee4" d="M -3 3 
L 3 -3 
M -3 -3 
L 3 3 
" style="stroke: #0000ff; stroke-opacity: 0.8"/>
    </defs>
    <g clip-path="url(#p8c47f92295)">
     <use xlink:href="#m555fa5cee4" x="262.96876" y="129.340602" style="fill: #0000ff; fill-opacity: 0.8; stroke: #0000ff; stroke-opacity: 0.8"/>
    </g>
   </g>
   <g id="line2d_23">
    <defs>
     <path id="mcabb463699" d="M 0 3 
C 0.795609 3 1.55874 2.683901 2.12132 2.12132 
C 2.683901 1.55874 3 0.795609 3 0 
C 3 -0.795609 2.683901 -1.55874 2.12132 -2.12132 
C 1.55874 -2.683901 0.795609 -3 0 -3 
C -0.795609 -3 -1.55874 -2.683901 -2.12132 -2.12132 
C -2.683901 -1.55874 -3 -0.795609 -3 0 
C -3 0.795609 -2.683901 1.55874 -2.12132 2.12132 
C -1.55874 2.683901 -0.795609 3 0 3 
z
" style="stroke: #00bfbf; stroke-opacity: 0.8"/>
    </defs>
    <g clip-path="url(#p8c47f92295)">
     <use xlink:href="#mcabb463699" x="184.5" y="84.985176" style="fill-opacity: 0; stroke: #00bfbf; stroke-opacity: 0.8"/>
    </g>
   </g>
   <g id="line2d_24">
    <defs>
     <path id="ma8e6dfeebf" d="M -3 3 
L 3 -3 
M -3 -3 
L 3 3 
" style="stroke: #00bfbf; stroke-opacity: 0.8"/>
    </defs>
    <g clip-path="url(#p8c47f92295)">
     <use xlink:href="#ma8e6dfeebf" x="184.5" y="84.985176" style="fill: #00bfbf; fill-opacity: 0.8; stroke: #00bfbf; stroke-opacity: 0.8"/>
    </g>
   </g>
   <g id="line2d_25">
    <defs>
     <path id="md1c44c7bdd" d="M 0 3 
C 0.795609 3 1.55874 2.683901 2.12132 2.12132 
C 2.683901 1.55874 3 0.795609 3 0 
C 3 -0.795609 2.683901 -1.55874 2.12132 -2.12132 
C 1.55874 -2.683901 0.795609 -3 0 -3 
C -0.795609 -3 -1.55874 -2.683901 -2.12132 -2.12132 
C -2.683901 -1.55874 -3 -0.795609 -3 0 
C -3 0.795609 -2.683901 1.55874 -2.12132 2.12132 
C -1.55874 2.683901 -0.795609 3 0 3 
z
" style="stroke: #bf00bf; stroke-opacity: 0.8"/>
    </defs>
    <g clip-path="url(#p8c47f92295)">
     <use xlink:href="#md1c44c7bdd" x="139.19604" y="96.153516" style="fill-opacity: 0; stroke: #bf00bf; stroke-opacity: 0.8"/>
    </g>
   </g>
   <g id="line2d_26">
    <defs>
     <path id="mc929b6aec9" d="M -3 3 
L 3 -3 
M -3 -3 
L 3 3 
" style="stroke: #bf00bf; stroke-opacity: 0.8"/>
    </defs>
    <g clip-path="url(#p8c47f92295)">
     <use xlink:href="#mc929b6aec9" x="262.96876" y="129.340602" style="fill: #bf00bf; fill-opacity: 0.8; stroke: #bf00bf; stroke-opacity: 0.8"/>
    </g>
   </g>
   <g id="line2d_27">
    <defs>
     <path id="m108970bbe3" d="M 0 3 
C 0.795609 3 1.55874 2.683901 2.12132 2.12132 
C 2.683901 1.55874 3 0.795609 3 0 
C 3 -0.795609 2.683901 -1.55874 2.12132 -2.12132 
C 1.55874 -2.683901 0.795609 -3 0 -3 
C -0.795609 -3 -1.55874 -2.683901 -2.12132 -2.12132 
C -2.683901 -1.55874 -3 -0.795609 -3 0 
C -3 0.795609 -2.683901 1.55874 -2.12132 2.12132 
C -1.55874 2.683901 -0.795609 3 0 3 
z
" style="stroke: #000000; stroke-opacity: 0.8"/>
    </defs>
    <g clip-path="url(#p8c47f92295)">
     <use xlink:href="#m108970bbe3" x="106.03124" y="126.665988" style="fill-opacity: 0; stroke: #000000; stroke-opacity: 0.8"/>
    </g>
   </g>
   <g id="line2d_28">
    <defs>
     <path id="m2da90c306c" d="M -3 3 
L 3 -3 
M -3 -3 
L 3 3 
" style="stroke: #000000; stroke-opacity: 0.8"/>
    </defs>
    <g clip-path="url(#p8c47f92295)">
     <use xlink:href="#m2da90c306c" x="320.41188" y="175.038927" style="fill-opacity: 0.8; stroke: #000000; stroke-opacity: 0.8"/>
    </g>
   </g>
   <g id="patch_3">
    <path d="M 45 296.6904 
L 45 40.0032 
" style="fill: none; stroke: #000000; stroke-width: 0.8; stroke-linejoin: miter; stroke-linecap: square"/>
   </g>
   <g id="patch_4">
    <path d="M 324 296.6904 
L 324 40.0032 
" style="fill: none; stroke: #000000; stroke-width: 0.8; stroke-linejoin: miter; stroke-linecap: square"/>
   </g>
   <g id="patch_5">
    <path d="M 45 296.6904 
L 324 296.6904 
" style="fill: none; stroke: #000000; stroke-width: 0.8; stroke-linejoin: miter; stroke-linecap: square"/>
   </g>
   <g id="patch_6">
    <path d="M 45 40.0032 
L 324 40.0032 
" style="fill: none; stroke: #000000; stroke-width: 0.8; stroke-linejoin: miter; stroke-linecap: square"/>
   </g>
  </g>
 </g>
 <defs>
  <clipPath id="p8c47f92295">
   <rect x="45" y="40.0032" width="279" height="256.6872"/>
  </clipPath>
 </defs>
</svg>
