<?xml version="1.0" encoding="utf-8" standalone="no"?>
<!DOCTYPE svg PUBLIC "-//W3C//DTD SVG 1.1//EN"
  "http://www.w3.org/Graphics/SVG/1.1/DTD/svg11.dtd">
<svg xmlns:xlink="http://www.w3.org/1999/xlink" width="360pt" height="333.36pt" viewBox="0 0 360 333.36" xmlns="http://www.w3.org/2000/svg" version="1.1">
 <metadata>
  <rdf:RDF xmlns:dc="http://purl.org/dc/elements/1.1/" xmlns:cc="http://creativecommons.org/ns#" xmlns:rdf="http://www.w3.org/1999/02/22-rdf-syntax-ns#">
   <cc:Work>
    <dc:type rdf:resource="http://purl.org/dc/dcmitype/StillImage"/>
    <dc:date>2023-01-22T11:43:11.822464</dc:date>
    <dc:format>image/svg+xml</dc:format>
    <dc:creator>
     <cc:Agent>
      <dc:title>Matplotlib v3.6.2, https://matplotlib.org/</dc:title>
     </cc:Agent>
    </dc:creator>
   </cc:Work>
  </rdf:RDF>
 </metadata>
 <defs>
  <style type="text/css">*{stroke-linejoin: round; stroke-linecap: butt}</style>
 </defs>
 <g id="figure_1">
  <g id="patch_1">
   <path d="M 0 333.36 
L 360 333.36 
L 360 0 
L 0 0 
z
" style="fill: #ffffff"/>
  </g>
  <g id="axes_1">
   <g id="patch_2">
    <path d="M 45 296.6904 
L 324 296.6904 
L 324 40.0032 
L 45 40.0032 
z
" style="fill: #ffffff"/>
   </g>
   <g id="matplotlib.axis_1">
    <g id="xtick_1">
     <g id="line2d_1">
      <defs>
       <path id="ma2afccc075" d="M 0 0 
L 0 3.5 
" style="stroke: #000000; stroke-width: 0.8"/>
      </defs>
      <g>
       <use xlink:href="#ma2afccc075" x="85.857836" y="296.6904" style="stroke: #000000; stroke-width: 0.8"/>
      </g>
     </g>
     <g id="text_1">
      <!-- −1.0 -->
      <g transform="translate(73.71643 311.288837) scale(0.1 -0.1)">
       <defs>
        <path id="DejaVuSans-2212" d="M 678 2272 
L 4684 2272 
L 4684 1741 
L 678 1741 
L 678 2272 
z
" transform="scale(0.015625)"/>
        <path id="DejaVuSans-31" d="M 794 531 
L 1825 531 
L 1825 4091 
L 703 3866 
L 703 4441 
L 1819 4666 
L 2450 4666 
L 2450 531 
L 3481 531 
L 3481 0 
L 794 0 
L 794 531 
z
" transform="scale(0.015625)"/>
        <path id="DejaVuSans-2e" d="M 684 794 
L 1344 794 
L 1344 0 
L 684 0 
L 684 794 
z
" transform="scale(0.015625)"/>
        <path id="DejaVuSans-30" d="M 2034 4250 
Q 1547 4250 1301 3770 
Q 1056 3291 1056 2328 
Q 1056 1369 1301 889 
Q 1547 409 2034 409 
Q 2525 409 2770 889 
Q 3016 1369 3016 2328 
Q 3016 3291 2770 3770 
Q 2525 4250 2034 4250 
z
M 2034 4750 
Q 2819 4750 3233 4129 
Q 3647 3509 3647 2328 
Q 3647 1150 3233 529 
Q 2819 -91 2034 -91 
Q 1250 -91 836 529 
Q 422 1150 422 2328 
Q 422 3509 836 4129 
Q 1250 4750 2034 4750 
z
" transform="scale(0.015625)"/>
       </defs>
       <use xlink:href="#DejaVuSans-2212"/>
       <use xlink:href="#DejaVuSans-31" x="83.789062"/>
       <use xlink:href="#DejaVuSans-2e" x="147.412109"/>
       <use xlink:href="#DejaVuSans-30" x="179.199219"/>
      </g>
     </g>
    </g>
    <g id="xtick_2">
     <g id="line2d_2">
      <g>
       <use xlink:href="#ma2afccc075" x="135.178918" y="296.6904" style="stroke: #000000; stroke-width: 0.8"/>
      </g>
     </g>
     <g id="text_2">
      <!-- −0.5 -->
      <g transform="translate(123.037512 311.288837) scale(0.1 -0.1)">
       <defs>
        <path id="DejaVuSans-35" d="M 691 4666 
L 3169 4666 
L 3169 4134 
L 1269 4134 
L 1269 2991 
Q 1406 3038 1543 3061 
Q 1681 3084 1819 3084 
Q 2600 3084 3056 2656 
Q 3513 2228 3513 1497 
Q 3513 744 3044 326 
Q 2575 -91 1722 -91 
Q 1428 -91 1123 -41 
Q 819 9 494 109 
L 494 744 
Q 775 591 1075 516 
Q 1375 441 1709 441 
Q 2250 441 2565 725 
Q 2881 1009 2881 1497 
Q 2881 1984 2565 2268 
Q 2250 2553 1709 2553 
Q 1456 2553 1204 2497 
Q 953 2441 691 2322 
L 691 4666 
z
" transform="scale(0.015625)"/>
       </defs>
       <use xlink:href="#DejaVuSans-2212"/>
       <use xlink:href="#DejaVuSans-30" x="83.789062"/>
       <use xlink:href="#DejaVuSans-2e" x="147.412109"/>
       <use xlink:href="#DejaVuSans-35" x="179.199219"/>
      </g>
     </g>
    </g>
    <g id="xtick_3">
     <g id="line2d_3">
      <g>
       <use xlink:href="#ma2afccc075" x="184.5" y="296.6904" style="stroke: #000000; stroke-width: 0.8"/>
      </g>
     </g>
     <g id="text_3">
      <!-- 0.0 -->
      <g transform="translate(176.548438 311.288837) scale(0.1 -0.1)">
       <use xlink:href="#DejaVuSans-30"/>
       <use xlink:href="#DejaVuSans-2e" x="63.623047"/>
       <use xlink:href="#DejaVuSans-30" x="95.410156"/>
      </g>
     </g>
    </g>
    <g id="xtick_4">
     <g id="line2d_4">
      <g>
       <use xlink:href="#ma2afccc075" x="233.821082" y="296.6904" style="stroke: #000000; stroke-width: 0.8"/>
      </g>
     </g>
     <g id="text_4">
      <!-- 0.5 -->
      <g transform="translate(225.86952 311.288837) scale(0.1 -0.1)">
       <use xlink:href="#DejaVuSans-30"/>
       <use xlink:href="#DejaVuSans-2e" x="63.623047"/>
       <use xlink:href="#DejaVuSans-35" x="95.410156"/>
      </g>
     </g>
    </g>
    <g id="xtick_5">
     <g id="line2d_5">
      <g>
       <use xlink:href="#ma2afccc075" x="283.142164" y="296.6904" style="stroke: #000000; stroke-width: 0.8"/>
      </g>
     </g>
     <g id="text_5">
      <!-- 1.0 -->
      <g transform="translate(275.190602 311.288837) scale(0.1 -0.1)">
       <use xlink:href="#DejaVuSans-31"/>
       <use xlink:href="#DejaVuSans-2e" x="63.623047"/>
       <use xlink:href="#DejaVuSans-30" x="95.410156"/>
      </g>
     </g>
    </g>
   </g>
   <g id="matplotlib.axis_2">
    <g id="ytick_1">
     <g id="line2d_6">
      <defs>
       <path id="mae5467ae3b" d="M 0 0 
L -3.5 0 
" style="stroke: #000000; stroke-width: 0.8"/>
      </defs>
      <g>
       <use xlink:href="#mae5467ae3b" x="45" y="259.100137" style="stroke: #000000; stroke-width: 0.8"/>
      </g>
     </g>
     <g id="text_6">
      <!-- −1.0 -->
      <g transform="translate(13.717187 262.899355) scale(0.1 -0.1)">
       <use xlink:href="#DejaVuSans-2212"/>
       <use xlink:href="#DejaVuSans-31" x="83.789062"/>
       <use xlink:href="#DejaVuSans-2e" x="147.412109"/>
       <use xlink:href="#DejaVuSans-30" x="179.199219"/>
      </g>
     </g>
    </g>
    <g id="ytick_2">
     <g id="line2d_7">
      <g>
       <use xlink:href="#mae5467ae3b" x="45" y="213.723468" style="stroke: #000000; stroke-width: 0.8"/>
      </g>
     </g>
     <g id="text_7">
      <!-- −0.5 -->
      <g transform="translate(13.717187 217.522687) scale(0.1 -0.1)">
       <use xlink:href="#DejaVuSans-2212"/>
       <use xlink:href="#DejaVuSans-30" x="83.789062"/>
       <use xlink:href="#DejaVuSans-2e" x="147.412109"/>
       <use xlink:href="#DejaVuSans-35" x="179.199219"/>
      </g>
     </g>
    </g>
    <g id="ytick_3">
     <g id="line2d_8">
      <g>
       <use xlink:href="#mae5467ae3b" x="45" y="168.3468" style="stroke: #000000; stroke-width: 0.8"/>
      </g>
     </g>
     <g id="text_8">
      <!-- 0.0 -->
      <g transform="translate(22.096875 172.146019) scale(0.1 -0.1)">
       <use xlink:href="#DejaVuSans-30"/>
       <use xlink:href="#DejaVuSans-2e" x="63.623047"/>
       <use xlink:href="#DejaVuSans-30" x="95.410156"/>
      </g>
     </g>
    </g>
    <g id="ytick_4">
     <g id="line2d_9">
      <g>
       <use xlink:href="#mae5467ae3b" x="45" y="122.970132" style="stroke: #000000; stroke-width: 0.8"/>
      </g>
     </g>
     <g id="text_9">
      <!-- 0.5 -->
      <g transform="translate(22.096875 126.76935) scale(0.1 -0.1)">
       <use xlink:href="#DejaVuSans-30"/>
       <use xlink:href="#DejaVuSans-2e" x="63.623047"/>
       <use xlink:href="#DejaVuSans-35" x="95.410156"/>
      </g>
     </g>
    </g>
    <g id="ytick_5">
     <g id="line2d_10">
      <g>
       <use xlink:href="#mae5467ae3b" x="45" y="77.593463" style="stroke: #000000; stroke-width: 0.8"/>
      </g>
     </g>
     <g id="text_10">
      <!-- 1.0 -->
      <g transform="translate(22.096875 81.392682) scale(0.1 -0.1)">
       <use xlink:href="#DejaVuSans-31"/>
       <use xlink:href="#DejaVuSans-2e" x="63.623047"/>
       <use xlink:href="#DejaVuSans-30" x="95.410156"/>
      </g>
     </g>
    </g>
   </g>
   <g id="line2d_11">
    <path d="M 283.142164 168.3468 
L 282.945556 162.619753 
L 282.356515 156.915536 
L 281.377389 151.256888 
L 280.012081 145.666365 
L 278.266034 140.166253 
L 276.146209 134.778476 
L 273.661054 129.524513 
L 270.820478 124.425307 
L 267.635803 119.501185 
L 264.119724 114.771775 
L 260.286257 110.255932 
L 256.150684 105.971656 
L 251.729491 101.936025 
L 247.040301 98.165127 
L 242.101807 94.673994 
L 236.933696 91.476543 
L 231.556568 88.585518 
L 225.991859 86.012446 
L 220.261751 83.767583 
L 214.389087 81.859877 
L 208.397276 80.296933 
L 202.310203 79.084982 
L 196.152133 78.228855 
L 189.947615 77.731964 
L 183.721381 77.596291 
L 177.498251 77.822375 
L 171.303032 78.409317 
L 165.16042 79.354776 
L 159.094901 80.654983 
L 153.130654 82.304755 
L 147.291454 84.297517 
L 141.600579 86.625323 
L 136.080714 89.278895 
L 130.753862 92.247655 
L 125.641258 95.519769 
L 120.763282 99.082192 
L 116.139379 102.920725 
L 111.787982 107.020065 
L 107.726436 111.363871 
L 103.970932 115.934828 
L 100.536441 120.714715 
L 97.436653 125.684477 
L 94.683925 130.824304 
L 92.28923 136.113706 
L 90.262115 141.531599 
L 88.610659 147.056385 
L 87.341446 152.66604 
L 86.459536 158.338204 
L 85.968444 164.050266 
L 85.870128 169.779454 
L 86.164979 175.502932 
L 86.851822 181.197883 
L 87.92792 186.841605 
L 89.388982 192.411603 
L 91.229185 197.88567 
L 93.441193 203.241988 
L 96.016187 208.459202 
L 98.943905 213.516517 
L 102.212673 218.393772 
L 105.809464 223.071526 
L 109.719938 227.53113 
L 113.928507 231.754808 
L 118.418394 235.725724 
L 123.171703 239.428047 
L 128.169484 242.84702 
L 133.391815 245.969012 
L 138.817878 248.78158 
L 144.426044 251.273512 
L 150.193956 253.434873 
L 156.098622 255.257048 
L 162.116504 256.732773 
L 168.223613 257.856166 
L 174.395605 258.622748 
L 180.607876 259.029464 
L 186.835662 259.074693 
L 193.054138 258.758253 
L 199.238514 258.081406 
L 205.364138 257.046852 
L 211.406592 255.658712 
L 217.341788 253.922522 
L 223.146067 251.845202 
L 228.796291 249.435033 
L 234.269938 246.701622 
L 239.545186 243.655866 
L 244.601009 240.309906 
L 249.417251 236.67708 
L 253.974715 232.77187 
L 258.255231 228.609842 
L 262.241738 224.207588 
L 265.918343 219.582656 
L 269.270391 214.753484 
L 272.284519 209.739321 
L 274.948712 204.560155 
L 277.25235 199.236631 
L 279.18625 193.789973 
L 280.742703 188.24189 
L 281.915505 182.614499 
L 282.699979 176.930233 
L 283.093 171.211751 
L 283.142164 168.3468 
L 283.142164 168.3468 
" clip-path="url(#pe53324140b)" style="fill: none; stroke-dasharray: 5.55,2.4; stroke-dashoffset: 0; stroke: #0000ff; stroke-opacity: 0.2; stroke-width: 1.5"/>
   </g>
   <g id="line2d_12">
    <path d="M 283.142164 168.3468 
L 289.170432 162.631168 
L 294.781453 157.006582 
L 299.952859 151.562638 
L 306.841097 143.923992 
L 312.632494 137.159228 
L 318.559892 129.911671 
L 324 122.971545 
L 313.902654 135.633762 
L 308.393975 142.140814 
L 301.774533 149.585552 
L 296.773394 154.939199 
L 291.324699 160.50642 
L 285.450171 166.198533 
L 279.173225 171.924866 
L 272.518884 177.594203 
L 265.513673 183.116235 
L 258.185519 188.403001 
L 254.409419 190.931659 
L 250.563632 193.370286 
L 246.651992 195.709163 
L 242.678397 197.938965 
L 238.646808 200.050804 
L 234.561245 202.036262 
L 230.42578 203.887423 
L 226.244535 205.59691 
L 222.021678 207.157906 
L 217.761418 208.56419 
L 213.468003 209.810156 
L 209.145712 210.890836 
L 204.798853 211.801924 
L 200.431761 212.539787 
L 196.048787 213.101483 
L 191.654301 213.484774 
L 187.252683 213.688132 
L 182.848322 213.710746 
L 178.445606 213.552526 
L 174.048927 213.214103 
L 169.662664 212.696826 
L 165.291193 212.002756 
L 160.938868 211.134661 
L 156.61003 210.096001 
L 152.308994 208.890917 
L 148.040046 207.524211 
L 143.807442 206.001333 
L 139.615402 204.328353 
L 135.468103 202.51194 
L 131.36968 200.559335 
L 127.324219 198.478321 
L 123.335752 196.277194 
L 119.408255 193.964728 
L 115.545643 191.550142 
L 108.030406 186.453477 
L 100.819999 181.068386 
L 93.943165 175.480649 
L 87.427317 169.779276 
L 81.298429 164.055083 
L 75.580933 158.399255 
L 70.297621 152.901884 
L 63.232322 145.143458 
L 57.254241 138.215279 
L 51.065863 130.692267 
L 45.008692 122.982854 
L 55.9361 136.642796 
L 61.633611 143.323314 
L 68.432672 150.899206 
L 73.54764 156.314399 
L 79.104897 161.921259 
L 85.08229 167.630473 
L 91.455991 173.351098 
L 98.200593 178.992008 
L 105.289209 184.463347 
L 112.693583 189.677962 
L 116.505001 192.162843 
L 120.384198 194.552786 
L 124.327307 196.838264 
L 128.330398 199.010168 
L 132.38948 201.059838 
L 136.500506 202.979104 
L 140.65938 204.760316 
L 144.861955 206.396372 
L 149.104041 207.880752 
L 153.381412 209.207538 
L 157.689802 210.371442 
L 162.024917 211.367822 
L 166.382435 212.192709 
L 170.758014 212.842812 
L 175.147291 213.315542 
L 179.545891 213.609012 
L 183.949429 213.722055 
L 188.353516 213.654218 
L 192.753762 213.405773 
L 197.14578 212.977709 
L 201.525193 212.371733 
L 205.887635 211.590262 
L 210.228757 210.636409 
L 214.544232 209.513977 
L 218.829758 208.227441 
L 223.081063 206.781929 
L 227.293911 205.183203 
L 231.4641 203.437636 
L 235.587474 201.552187 
L 239.659924 199.534372 
L 243.677388 197.392234 
L 247.635864 195.134312 
L 251.531404 192.769608 
L 255.360126 190.307547 
L 262.801918 185.130962 
L 269.931577 179.687018 
L 276.72068 174.062432 
L 283.142164 168.3468 
L 283.142164 168.3468 
" clip-path="url(#pe53324140b)" style="fill: none; stroke: #ff0000; stroke-opacity: 0.2; stroke-width: 1.5; stroke-linecap: square"/>
   </g>
   <g id="line2d_13">
    <defs>
     <path id="ma99ecb745f" d="M 0 3 
C 0.795609 3 1.55874 2.683901 2.12132 2.12132 
C 2.683901 1.55874 3 0.795609 3 0 
C 3 -0.795609 2.683901 -1.55874 2.12132 -2.12132 
C 1.55874 -2.683901 0.795609 -3 0 -3 
C -0.795609 -3 -1.55874 -2.683901 -2.12132 -2.12132 
C -2.683901 -1.55874 -3 -0.795609 -3 0 
C -3 0.795609 -2.683901 1.55874 -2.12132 2.12132 
C -1.55874 2.683901 -0.795609 3 0 3 
z
" style="stroke: #ff0000; stroke-opacity: 0.8"/>
    </defs>
    <g clip-path="url(#pe53324140b)">
     <use xlink:href="#ma99ecb745f" x="283.142164" y="168.3468" style="fill-opacity: 0; stroke: #ff0000; stroke-opacity: 0.8"/>
    </g>
   </g>
   <g id="line2d_14">
    <defs>
     <path id="m50e02febfd" d="M -3 3 
L 3 -3 
M -3 -3 
L 3 3 
" style="stroke: #ff0000; stroke-opacity: 0.8"/>
    </defs>
    <g clip-path="url(#pe53324140b)">
     <use xlink:href="#m50e02febfd" x="283.142164" y="168.3468" style="fill: #ff0000; fill-opacity: 0.8; stroke: #ff0000; stroke-opacity: 0.8"/>
    </g>
   </g>
   <g id="line2d_15">
    <defs>
     <path id="mf2b30caf79" d="M 0 3 
C 0.795609 3 1.55874 2.683901 2.12132 2.12132 
C 2.683901 1.55874 3 0.795609 3 0 
C 3 -0.795609 2.683901 -1.55874 2.12132 -2.12132 
C 1.55874 -2.683901 0.795609 -3 0 -3 
C -0.795609 -3 -1.55874 -2.683901 -2.12132 -2.12132 
C -2.683901 -1.55874 -3 -0.795609 -3 0 
C -3 0.795609 -2.683901 1.55874 -2.12132 2.12132 
C -1.55874 2.683901 -0.795609 3 0 3 
z
" style="stroke: #008000; stroke-opacity: 0.8"/>
    </defs>
    <g clip-path="url(#pe53324140b)">
     <use xlink:href="#mf2b30caf79" x="269.92662" y="122.970132" style="fill-opacity: 0; stroke: #008000; stroke-opacity: 0.8"/>
    </g>
   </g>
   <g id="line2d_16">
    <defs>
     <path id="m87a09c472e" d="M -3 3 
L 3 -3 
M -3 -3 
L 3 3 
" style="stroke: #008000; stroke-opacity: 0.8"/>
    </defs>
    <g clip-path="url(#pe53324140b)">
     <use xlink:href="#m87a09c472e" x="319.247702" y="129.049452" style="fill: #008000; fill-opacity: 0.8; stroke: #008000; stroke-opacity: 0.8"/>
    </g>
   </g>
   <g id="line2d_17">
    <defs>
     <path id="m65359dab44" d="M 0 3 
C 0.795609 3 1.55874 2.683901 2.12132 2.12132 
C 2.683901 1.55874 3 0.795609 3 0 
C 3 -0.795609 2.683901 -1.55874 2.12132 -2.12132 
C 1.55874 -2.683901 0.795609 -3 0 -3 
C -0.795609 -3 -1.55874 -2.683901 -2.12132 -2.12132 
C -2.683901 -1.55874 -3 -0.795609 -3 0 
C -3 0.795609 -2.683901 1.55874 -2.12132 2.12132 
C -1.55874 2.683901 -0.795609 3 0 3 
z
" style="stroke: #0000ff; stroke-opacity: 0.8"/>
    </defs>
    <g clip-path="url(#pe53324140b)">
     <use xlink:href="#m65359dab44" x="233.821082" y="89.752105" style="fill-opacity: 0; stroke: #0000ff; stroke-opacity: 0.8"/>
    </g>
   </g>
   <g id="line2d_18">
    <defs>
     <path id="m3461b0be5f" d="M -3 3 
L 3 -3 
M -3 -3 
L 3 3 
" style="stroke: #0000ff; stroke-opacity: 0.8"/>
    </defs>
    <g clip-path="url(#pe53324140b)">
     <use xlink:href="#m3461b0be5f" x="319.247702" y="129.049452" style="fill: #0000ff; fill-opacity: 0.8; stroke: #0000ff; stroke-opacity: 0.8"/>
    </g>
   </g>
   <g id="line2d_19">
    <defs>
     <path id="m65f063abd9" d="M 0 3 
C 0.795609 3 1.55874 2.683901 2.12132 2.12132 
C 2.683901 1.55874 3 0.795609 3 0 
C 3 -0.795609 2.683901 -1.55874 2.12132 -2.12132 
C 1.55874 -2.683901 0.795609 -3 0 -3 
C -0.795609 -3 -1.55874 -2.683901 -2.12132 -2.12132 
C -2.683901 -1.55874 -3 -0.795609 -3 0 
C -3 0.795609 -2.683901 1.55874 -2.12132 2.12132 
C -1.55874 2.683901 -0.795609 3 0 3 
z
" style="stroke: #00bfbf; stroke-opacity: 0.8"/>
    </defs>
    <g clip-path="url(#pe53324140b)">
     <use xlink:href="#m65f063abd9" x="184.5" y="77.593463" style="fill-opacity: 0; stroke: #00bfbf; stroke-opacity: 0.8"/>
    </g>
   </g>
   <g id="line2d_20">
    <defs>
     <path id="m1017e4dc9a" d="M -3 3 
L 3 -3 
M -3 -3 
L 3 3 
" style="stroke: #00bfbf; stroke-opacity: 0.8"/>
    </defs>
    <g clip-path="url(#pe53324140b)">
     <use xlink:href="#m1017e4dc9a" x="283.142164" y="168.3468" style="fill: #00bfbf; fill-opacity: 0.8; stroke: #00bfbf; stroke-opacity: 0.8"/>
    </g>
   </g>
   <g id="line2d_21">
    <defs>
     <path id="m9fea3cdc09" d="M 0 3 
C 0.795609 3 1.55874 2.683901 2.12132 2.12132 
C 2.683901 1.55874 3 0.795609 3 0 
C 3 -0.795609 2.683901 -1.55874 2.12132 -2.12132 
C 1.55874 -2.683901 0.795609 -3 0 -3 
C -0.795609 -3 -1.55874 -2.683901 -2.12132 -2.12132 
C -2.683901 -1.55874 -3 -0.795609 -3 0 
C -3 0.795609 -2.683901 1.55874 -2.12132 2.12132 
C -1.55874 2.683901 -0.795609 3 0 3 
z
" style="stroke: #bf00bf; stroke-opacity: 0.8"/>
    </defs>
    <g clip-path="url(#pe53324140b)">
     <use xlink:href="#m9fea3cdc09" x="135.178918" y="89.752105" style="fill-opacity: 0; stroke: #bf00bf; stroke-opacity: 0.8"/>
    </g>
   </g>
   <g id="line2d_22">
    <defs>
     <path id="m4d4405742c" d="M -3 3 
L 3 -3 
M -3 -3 
L 3 3 
" style="stroke: #bf00bf; stroke-opacity: 0.8"/>
    </defs>
    <g clip-path="url(#pe53324140b)">
     <use xlink:href="#m4d4405742c" x="220.605538" y="207.644148" style="fill: #bf00bf; fill-opacity: 0.8; stroke: #bf00bf; stroke-opacity: 0.8"/>
    </g>
   </g>
   <g id="line2d_23">
    <defs>
     <path id="mb8c8d6968a" d="M 0 3 
C 0.795609 3 1.55874 2.683901 2.12132 2.12132 
C 2.683901 1.55874 3 0.795609 3 0 
C 3 -0.795609 2.683901 -1.55874 2.12132 -2.12132 
C 1.55874 -2.683901 0.795609 -3 0 -3 
C -0.795609 -3 -1.55874 -2.683901 -2.12132 -2.12132 
C -2.683901 -1.55874 -3 -0.795609 -3 0 
C -3 0.795609 -2.683901 1.55874 -2.12132 2.12132 
C -1.55874 2.683901 -0.795609 3 0 3 
z
" style="stroke: #000000; stroke-opacity: 0.8"/>
    </defs>
    <g clip-path="url(#pe53324140b)">
     <use xlink:href="#mb8c8d6968a" x="99.07338" y="122.970132" style="fill-opacity: 0; stroke: #000000; stroke-opacity: 0.8"/>
    </g>
   </g>
   <g id="line2d_24">
    <defs>
     <path id="m65b997d121" d="M -3 3 
L 3 -3 
M -3 -3 
L 3 3 
" style="stroke: #000000; stroke-opacity: 0.8"/>
    </defs>
    <g clip-path="url(#pe53324140b)">
     <use xlink:href="#m65b997d121" x="148.394462" y="207.644148" style="fill-opacity: 0.8; stroke: #000000; stroke-opacity: 0.8"/>
    </g>
   </g>
   <g id="patch_3">
    <path d="M 45 296.6904 
L 45 40.0032 
" style="fill: none; stroke: #000000; stroke-width: 0.8; stroke-linejoin: miter; stroke-linecap: square"/>
   </g>
   <g id="patch_4">
    <path d="M 324 296.6904 
L 324 40.0032 
" style="fill: none; stroke: #000000; stroke-width: 0.8; stroke-linejoin: miter; stroke-linecap: square"/>
   </g>
   <g id="patch_5">
    <path d="M 45 296.6904 
L 324 296.6904 
" style="fill: none; stroke: #000000; stroke-width: 0.8; stroke-linejoin: miter; stroke-linecap: square"/>
   </g>
   <g id="patch_6">
    <path d="M 45 40.0032 
L 324 40.0032 
" style="fill: none; stroke: #000000; stroke-width: 0.8; stroke-linejoin: miter; stroke-linecap: square"/>
   </g>
  </g>
 </g>
 <defs>
  <clipPath id="pe53324140b">
   <rect x="45" y="40.0032" width="279" height="256.6872"/>
  </clipPath>
 </defs>
</svg>
