<?xml version="1.0" encoding="UTF-8" standalone="no"?>
<svg
   width="271.56128pt"
   height="185.79741pt"
   viewBox="0 0 271.56128 185.79741"
   version="1.1"
   id="svg38027"
   sodipodi:docname="polynomialPlot.svg"
   inkscape:version="1.2.2 (b0a8486541, 2022-12-01)"
   xmlns:inkscape="http://www.inkscape.org/namespaces/inkscape"
   xmlns:sodipodi="http://sodipodi.sourceforge.net/DTD/sodipodi-0.dtd"
   xmlns:xlink="http://www.w3.org/1999/xlink"
   xmlns="http://www.w3.org/2000/svg"
   xmlns:svg="http://www.w3.org/2000/svg"
   xmlns:rdf="http://www.w3.org/1999/02/22-rdf-syntax-ns#"
   xmlns:cc="http://creativecommons.org/ns#"
   xmlns:dc="http://purl.org/dc/elements/1.1/">
  <sodipodi:namedview
     id="namedview38029"
     pagecolor="#ffffff"
     bordercolor="#000000"
     borderopacity="0.25"
     inkscape:showpageshadow="2"
     inkscape:pageopacity="0.0"
     inkscape:pagecheckerboard="0"
     inkscape:deskcolor="#d1d1d1"
     inkscape:document-units="pt"
     showgrid="false"
     inkscape:zoom="1.7465957"
     inkscape:cx="232.16592"
     inkscape:cy="191.22915"
     inkscape:window-width="1280"
     inkscape:window-height="731"
     inkscape:window-x="0"
     inkscape:window-y="0"
     inkscape:window-maximized="1"
     inkscape:current-layer="svg38027" />
  <metadata
     id="metadata37678">
    <rdf:RDF>
      <cc:Work>
        <dc:type
           rdf:resource="http://purl.org/dc/dcmitype/StillImage" />
        <dc:date>2023-01-06T08:48:22.767732</dc:date>
        <dc:format>image/svg+xml</dc:format>
        <dc:creator>
          <cc:Agent>
            <dc:title>Matplotlib v3.6.2, https://matplotlib.org/</dc:title>
          </cc:Agent>
        </dc:creator>
      </cc:Work>
    </rdf:RDF>
  </metadata>
  <defs
     id="defs37682">
    <marker
       style="overflow:visible"
       id="TriangleStart"
       refX="0"
       refY="0"
       orient="auto-start-reverse"
       inkscape:stockid="TriangleStart"
       markerWidth="4.9916334"
       markerHeight="5.6666179"
       viewBox="0 0 4.9916334 5.6666178"
       inkscape:isstock="true"
       inkscape:collect="always"
       preserveAspectRatio="xMidYMid">
      <path
         transform="scale(0.5)"
         style="fill:context-stroke;fill-rule:evenodd;stroke:context-stroke;stroke-width:1pt"
         d="M 5.77,0 -2.88,5 V -5 Z"
         id="path135" />
    </marker>
    <style
       type="text/css"
       id="style37680">*{stroke-linejoin: round; stroke-linecap: butt}</style>
    <clipPath
       id="clipPath4354">
      <path
         clip-rule="nonzero"
         d="m 6,3 h 4 V 8.300781 H 6 Z m 0,0"
         id="path6057" />
    </clipPath>
    <marker
       style="overflow:visible"
       id="TriangleStart-9"
       refX="0"
       refY="0"
       orient="auto-start-reverse"
       inkscape:stockid="TriangleStart"
       markerWidth="4.9916334"
       markerHeight="5.6666179"
       viewBox="0 0 4.9916334 5.6666178"
       inkscape:isstock="true"
       inkscape:collect="always"
       preserveAspectRatio="xMidYMid">
      <path
         transform="scale(0.5)"
         style="fill:context-stroke;fill-rule:evenodd;stroke:context-stroke;stroke-width:1pt"
         d="M 5.77,0 -2.88,5 V -5 Z"
         id="path135-7" />
    </marker>
    <linearGradient
       inkscape:collect="always"
       xlink:href="#linearGradient4020"
       id="linearGradient929-6"
       gradientUnits="userSpaceOnUse"
       x1="53.374905"
       y1="38.995232"
       x2="54.084198"
       y2="36.680912" />
    <linearGradient
       inkscape:collect="always"
       id="linearGradient4020">
      <stop
         style="stop-color:#229ba0;stop-opacity:1;"
         offset="0"
         id="stop4016" />
      <stop
         style="stop-color:#6cdbe0;stop-opacity:1;"
         offset="1"
         id="stop4018" />
    </linearGradient>
    <linearGradient
       inkscape:collect="always"
       xlink:href="#linearGradient4020"
       id="linearGradient929-6-5"
       gradientUnits="userSpaceOnUse"
       x1="53.374905"
       y1="38.995232"
       x2="54.084198"
       y2="36.680912" />
    <linearGradient
       inkscape:collect="always"
       xlink:href="#linearGradient4020"
       id="linearGradient929-6-9"
       gradientUnits="userSpaceOnUse"
       x1="53.374905"
       y1="38.995232"
       x2="54.084198"
       y2="36.680912" />
  </defs>
  <g
     id="xtick_1"
     transform="matrix(0.52418965,0,0,0.52418965,-0.38830868,-25.288586)">
    <g
       id="line2d_1">
      <path
         d="M 92.290909,360.7704 V 48.6432"
         clip-path="url(#p4b34d49375)"
         style="fill:none;stroke:#b0b0b0;stroke-width:0.8;stroke-linecap:square"
         id="path37690" />
    </g>
    <g
       id="line2d_2">
      <defs
         id="defs37694">
        <path
           id="mfe58e1c97a"
           d="M 0,0 V 3.5"
           style="stroke:#000000;stroke-width:0.8" />
      </defs>
      <g
         id="g37698">
        <use
           xlink:href="#mfe58e1c97a"
           x="92.290909"
           y="360.77039"
           style="stroke:#000000;stroke-width:0.8"
           id="use37696" />
      </g>
    </g>
    <g
       id="text_1">
      <!-- &#8722;1.5 -->
      <g
         transform="matrix(0.1,0,0,-0.1,80.149503,375.36884)"
         id="g37715">
        <defs
           id="defs37705">
          <path
             id="DejaVuSans-2212"
             d="M 678,2272 H 4684 V 1741 H 678 Z"
             transform="scale(0.015625)" />
          <path
             id="DejaVuSans-31"
             d="M 794,531 H 1825 V 4091 L 703,3866 v 575 l 1116,225 h 631 V 531 H 3481 V 0 H 794 Z"
             transform="scale(0.015625)" />
          <path
             id="DejaVuSans-2e"
             d="m 684,794 h 660 V 0 H 684 Z"
             transform="scale(0.015625)" />
          <path
             id="DejaVuSans-35"
             d="M 691,4666 H 3169 V 4134 H 1269 V 2991 q 137,47 274,70 138,23 276,23 781,0 1237,-428 457,-428 457,-1159 Q 3513,744 3044,326 2575,-91 1722,-91 1428,-91 1123,-41 819,9 494,109 v 635 q 281,-153 581,-228 300,-75 634,-75 541,0 856,284 316,284 316,772 0,487 -316,771 -315,285 -856,285 -253,0 -505,-56 -251,-56 -513,-175 z"
             transform="scale(0.015625)" />
        </defs>
        <use
           xlink:href="#DejaVuSans-2212"
           id="use37707" />
        <use
           xlink:href="#DejaVuSans-31"
           x="83.789062"
           id="use37709" />
        <use
           xlink:href="#DejaVuSans-2e"
           x="147.41211"
           id="use37711" />
        <use
           xlink:href="#DejaVuSans-35"
           x="179.19922"
           id="use37713" />
      </g>
    </g>
  </g>
  <g
     id="xtick_2"
     transform="matrix(0.52418965,0,0,0.52418965,-0.38830868,-25.288586)">
    <g
       id="line2d_3">
      <path
         d="M 143.01818,360.7704 V 48.6432"
         clip-path="url(#p4b34d49375)"
         style="fill:none;stroke:#b0b0b0;stroke-width:0.8;stroke-linecap:square"
         id="path37719" />
    </g>
    <g
       id="line2d_4">
      <g
         id="g37724">
        <use
           xlink:href="#mfe58e1c97a"
           x="143.01819"
           y="360.77039"
           style="stroke:#000000;stroke-width:0.8"
           id="use37722" />
      </g>
    </g>
    <g
       id="text_2">
      <!-- &#8722;1.0 -->
      <g
         transform="matrix(0.1,0,0,-0.1,130.87678,375.36884)"
         id="g37738">
        <defs
           id="defs37728">
          <path
             id="DejaVuSans-30"
             d="m 2034,4250 q -487,0 -733,-480 -245,-479 -245,-1442 0,-959 245,-1439 246,-480 733,-480 491,0 736,480 246,480 246,1439 0,963 -246,1442 -245,480 -736,480 z m 0,500 q 785,0 1199,-621 414,-620 414,-1801 0,-1178 -414,-1799 -414,-620 -1199,-620 -784,0 -1198,620 -414,621 -414,1799 0,1181 414,1801 414,621 1198,621 z"
             transform="scale(0.015625)" />
        </defs>
        <use
           xlink:href="#DejaVuSans-2212"
           id="use37730" />
        <use
           xlink:href="#DejaVuSans-31"
           x="83.789062"
           id="use37732" />
        <use
           xlink:href="#DejaVuSans-2e"
           x="147.41211"
           id="use37734" />
        <use
           xlink:href="#DejaVuSans-30"
           x="179.19922"
           id="use37736" />
      </g>
    </g>
  </g>
  <g
     id="xtick_3"
     transform="matrix(0.52418965,0,0,0.52418965,-0.38830868,-25.288586)">
    <g
       id="line2d_5">
      <path
         d="M 193.74545,360.7704 V 48.6432"
         clip-path="url(#p4b34d49375)"
         style="fill:none;stroke:#b0b0b0;stroke-width:0.8;stroke-linecap:square"
         id="path37742" />
    </g>
    <g
       id="line2d_6">
      <g
         id="g37747">
        <use
           xlink:href="#mfe58e1c97a"
           x="193.74545"
           y="360.77039"
           style="stroke:#000000;stroke-width:0.8"
           id="use37745" />
      </g>
    </g>
    <g
       id="text_3">
      <!-- &#8722;0.5 -->
      <g
         transform="matrix(0.1,0,0,-0.1,181.60405,375.36884)"
         id="g37758">
        <use
           xlink:href="#DejaVuSans-2212"
           id="use37750" />
        <use
           xlink:href="#DejaVuSans-30"
           x="83.789062"
           id="use37752" />
        <use
           xlink:href="#DejaVuSans-2e"
           x="147.41211"
           id="use37754" />
        <use
           xlink:href="#DejaVuSans-35"
           x="179.19922"
           id="use37756" />
      </g>
    </g>
  </g>
  <g
     id="xtick_4"
     transform="matrix(0.52418965,0,0,0.52418965,-0.38830868,-25.288586)">
    <g
       id="line2d_7">
      <path
         d="M 244.47273,360.7704 V 48.6432"
         clip-path="url(#p4b34d49375)"
         style="fill:none;stroke:#b0b0b0;stroke-width:0.8;stroke-linecap:square"
         id="path37762" />
    </g>
    <g
       id="line2d_8">
      <g
         id="g37767">
        <use
           xlink:href="#mfe58e1c97a"
           x="244.47273"
           y="360.77039"
           style="stroke:#000000;stroke-width:0.8"
           id="use37765" />
      </g>
    </g>
    <g
       id="text_4">
      <!-- 0.0 -->
      <g
         transform="matrix(0.1,0,0,-0.1,236.52116,375.36884)"
         id="g37776">
        <use
           xlink:href="#DejaVuSans-30"
           id="use37770" />
        <use
           xlink:href="#DejaVuSans-2e"
           x="63.623047"
           id="use37772" />
        <use
           xlink:href="#DejaVuSans-30"
           x="95.410156"
           id="use37774" />
      </g>
    </g>
  </g>
  <g
     id="xtick_5"
     transform="matrix(0.52418965,0,0,0.52418965,-0.38830868,-25.288586)">
    <g
       id="line2d_9">
      <path
         d="M 295.2,360.7704 V 48.6432"
         clip-path="url(#p4b34d49375)"
         style="fill:none;stroke:#b0b0b0;stroke-width:0.8;stroke-linecap:square"
         id="path37780" />
    </g>
    <g
       id="line2d_10">
      <g
         id="g37785">
        <use
           xlink:href="#mfe58e1c97a"
           x="295.20001"
           y="360.77039"
           style="stroke:#000000;stroke-width:0.8"
           id="use37783" />
      </g>
    </g>
    <g
       id="text_5">
      <!-- 0.5 -->
      <g
         transform="matrix(0.1,0,0,-0.1,287.24844,375.36884)"
         id="g37794">
        <use
           xlink:href="#DejaVuSans-30"
           id="use37788" />
        <use
           xlink:href="#DejaVuSans-2e"
           x="63.623047"
           id="use37790" />
        <use
           xlink:href="#DejaVuSans-35"
           x="95.410156"
           id="use37792" />
      </g>
    </g>
  </g>
  <g
     id="xtick_6"
     transform="matrix(0.52418965,0,0,0.52418965,-0.38830868,-25.288586)">
    <g
       id="line2d_11">
      <path
         d="M 345.92727,360.7704 V 48.6432"
         clip-path="url(#p4b34d49375)"
         style="fill:none;stroke:#b0b0b0;stroke-width:0.8;stroke-linecap:square"
         id="path37798" />
    </g>
    <g
       id="line2d_12">
      <g
         id="g37803">
        <use
           xlink:href="#mfe58e1c97a"
           x="345.92728"
           y="360.77039"
           style="stroke:#000000;stroke-width:0.8"
           id="use37801" />
      </g>
    </g>
    <g
       id="text_6">
      <!-- 1.0 -->
      <g
         transform="matrix(0.1,0,0,-0.1,337.97571,375.36884)"
         id="g37812">
        <use
           xlink:href="#DejaVuSans-31"
           id="use37806" />
        <use
           xlink:href="#DejaVuSans-2e"
           x="63.623047"
           id="use37808" />
        <use
           xlink:href="#DejaVuSans-30"
           x="95.410156"
           id="use37810" />
      </g>
    </g>
  </g>
  <g
     id="xtick_7"
     transform="matrix(0.52418965,0,0,0.52418965,-0.38830868,-25.288586)">
    <g
       id="line2d_13">
      <path
         d="M 396.65454,360.7704 V 48.6432"
         clip-path="url(#p4b34d49375)"
         style="fill:none;stroke:#b0b0b0;stroke-width:0.8;stroke-linecap:square"
         id="path37816" />
    </g>
    <g
       id="line2d_14">
      <g
         id="g37821">
        <use
           xlink:href="#mfe58e1c97a"
           x="396.65454"
           y="360.77039"
           style="stroke:#000000;stroke-width:0.8"
           id="use37819" />
      </g>
    </g>
    <g
       id="text_7">
      <!-- 1.5 -->
      <g
         transform="matrix(0.1,0,0,-0.1,388.70298,375.36884)"
         id="g37830">
        <use
           xlink:href="#DejaVuSans-31"
           id="use37824" />
        <use
           xlink:href="#DejaVuSans-2e"
           x="63.623047"
           id="use37826" />
        <use
           xlink:href="#DejaVuSans-35"
           x="95.410156"
           id="use37828" />
      </g>
    </g>
  </g>
  <g
     id="xtick_8"
     transform="matrix(0.52418965,0,0,0.52418965,-0.38830868,-25.288586)">
    <g
       id="line2d_15">
      <path
         d="M 447.38182,360.7704 V 48.6432"
         clip-path="url(#p4b34d49375)"
         style="fill:none;stroke:#b0b0b0;stroke-width:0.8;stroke-linecap:square"
         id="path37834" />
    </g>
    <g
       id="line2d_16">
      <g
         id="g37839">
        <use
           xlink:href="#mfe58e1c97a"
           x="447.38181"
           y="360.77039"
           style="stroke:#000000;stroke-width:0.8"
           id="use37837" />
      </g>
    </g>
    <g
       id="text_8">
      <!-- 2.0 -->
      <g
         transform="matrix(0.1,0,0,-0.1,439.43026,375.36884)"
         id="g37851">
        <defs
           id="defs37843">
          <path
             id="DejaVuSans-32"
             d="M 1228,531 H 3431 V 0 H 469 v 531 q 359,372 979,998 621,627 780,809 303,340 423,576 121,236 121,464 0,372 -261,606 -261,235 -680,235 -297,0 -627,-103 -329,-103 -704,-313 v 638 q 381,153 712,231 332,78 607,78 725,0 1156,-363 431,-362 431,-968 0,-288 -108,-546 -107,-257 -392,-607 -78,-91 -497,-524 Q 1991,1309 1228,531 Z"
             transform="scale(0.015625)" />
        </defs>
        <use
           xlink:href="#DejaVuSans-32"
           id="use37845" />
        <use
           xlink:href="#DejaVuSans-2e"
           x="63.623047"
           id="use37847" />
        <use
           xlink:href="#DejaVuSans-30"
           x="95.410156"
           id="use37849" />
      </g>
    </g>
  </g>
  <g
     id="xtick_9"
     transform="matrix(0.52418965,0,0,0.52418965,-0.38830868,-25.288586)">
    <g
       id="line2d_17">
      <path
         d="M 498.10909,360.7704 V 48.6432"
         clip-path="url(#p4b34d49375)"
         style="fill:none;stroke:#b0b0b0;stroke-width:0.8;stroke-linecap:square"
         id="path37855" />
    </g>
    <g
       id="line2d_18">
      <g
         id="g37860">
        <use
           xlink:href="#mfe58e1c97a"
           x="498.1091"
           y="360.77039"
           style="stroke:#000000;stroke-width:0.8"
           id="use37858" />
      </g>
    </g>
    <g
       id="text_9">
      <!-- 2.5 -->
      <g
         transform="matrix(0.1,0,0,-0.1,490.15753,375.36884)"
         id="g37869">
        <use
           xlink:href="#DejaVuSans-32"
           id="use37863" />
        <use
           xlink:href="#DejaVuSans-2e"
           x="63.623047"
           id="use37865" />
        <use
           xlink:href="#DejaVuSans-35"
           x="95.410156"
           id="use37867" />
      </g>
    </g>
  </g>
  <g
     id="matplotlib.axis_2"
     transform="matrix(0.52418965,0,0,0.52418965,-0.38830868,-25.288586)">
    <g
       id="ytick_1">
      <g
         id="line2d_19">
        <path
           d="M 72,321.2478 H 518.4"
           clip-path="url(#p4b34d49375)"
           style="fill:none;stroke:#b0b0b0;stroke-width:0.8;stroke-linecap:square"
           id="path37882" />
      </g>
      <g
         id="line2d_20">
        <defs
           id="defs37886">
          <path
             id="m5b068cd525"
             d="M 0,0 H -3.5"
             style="stroke:#000000;stroke-width:0.8" />
        </defs>
        <g
           id="g37890">
          <use
             xlink:href="#m5b068cd525"
             x="72"
             y="321.2478"
             style="stroke:#000000;stroke-width:0.8"
             id="use37888" />
        </g>
      </g>
      <g
         id="text_11">
        <!-- &#8722;4 -->
        <g
           transform="matrix(0.1,0,0,-0.1,50.257812,325.04702)"
           id="g37900">
          <defs
             id="defs37894">
            <path
               id="DejaVuSans-34"
               d="M 2419,4116 825,1625 h 1594 z m -166,550 h 794 V 1625 h 666 V 1100 H 3047 V 0 H 2419 V 1100 H 313 v 609 z"
               transform="scale(0.015625)" />
          </defs>
          <use
             xlink:href="#DejaVuSans-2212"
             id="use37896" />
          <use
             xlink:href="#DejaVuSans-34"
             x="83.789062"
             id="use37898" />
        </g>
      </g>
    </g>
    <g
       id="ytick_2">
      <g
         id="line2d_21">
        <path
           d="M 72,280.7118 H 518.4"
           clip-path="url(#p4b34d49375)"
           style="fill:none;stroke:#b0b0b0;stroke-width:0.8;stroke-linecap:square"
           id="path37904" />
      </g>
      <g
         id="line2d_22">
        <g
           id="g37909">
          <use
             xlink:href="#m5b068cd525"
             x="72"
             y="280.71179"
             style="stroke:#000000;stroke-width:0.8"
             id="use37907" />
        </g>
      </g>
      <g
         id="text_12">
        <!-- &#8722;2 -->
        <g
           transform="matrix(0.1,0,0,-0.1,50.257812,284.51102)"
           id="g37916">
          <use
             xlink:href="#DejaVuSans-2212"
             id="use37912" />
          <use
             xlink:href="#DejaVuSans-32"
             x="83.789062"
             id="use37914" />
        </g>
      </g>
    </g>
    <g
       id="ytick_3">
      <g
         id="line2d_23">
        <path
           d="M 72,240.1758 H 518.4"
           clip-path="url(#p4b34d49375)"
           style="fill:none;stroke:#b0b0b0;stroke-width:0.8;stroke-linecap:square"
           id="path37920" />
      </g>
      <g
         id="line2d_24">
        <g
           id="g37925">
          <use
             xlink:href="#m5b068cd525"
             x="72"
             y="240.1758"
             style="stroke:#000000;stroke-width:0.8"
             id="use37923" />
        </g>
      </g>
      <g
         id="text_13">
        <!-- 0 -->
        <g
           transform="matrix(0.1,0,0,-0.1,58.6375,243.97502)"
           id="g37930">
          <use
             xlink:href="#DejaVuSans-30"
             id="use37928" />
        </g>
      </g>
    </g>
    <g
       id="ytick_4">
      <g
         id="line2d_25">
        <path
           d="M 72,199.6398 H 518.4"
           clip-path="url(#p4b34d49375)"
           style="fill:none;stroke:#b0b0b0;stroke-width:0.8;stroke-linecap:square"
           id="path37934" />
      </g>
      <g
         id="line2d_26">
        <g
           id="g37939">
          <use
             xlink:href="#m5b068cd525"
             x="72"
             y="199.6398"
             style="stroke:#000000;stroke-width:0.8"
             id="use37937" />
        </g>
      </g>
      <g
         id="text_14">
        <!-- 2 -->
        <g
           transform="matrix(0.1,0,0,-0.1,58.6375,203.43902)"
           id="g37944">
          <use
             xlink:href="#DejaVuSans-32"
             id="use37942" />
        </g>
      </g>
    </g>
    <g
       id="ytick_5">
      <g
         id="line2d_27">
        <path
           d="M 72,159.1038 H 518.4"
           clip-path="url(#p4b34d49375)"
           style="fill:none;stroke:#b0b0b0;stroke-width:0.8;stroke-linecap:square"
           id="path37948" />
      </g>
      <g
         id="line2d_28">
        <g
           id="g37953">
          <use
             xlink:href="#m5b068cd525"
             x="72"
             y="159.10381"
             style="stroke:#000000;stroke-width:0.8"
             id="use37951" />
        </g>
      </g>
      <g
         id="text_15">
        <!-- 4 -->
        <g
           transform="matrix(0.1,0,0,-0.1,58.6375,162.90302)"
           id="g37958">
          <use
             xlink:href="#DejaVuSans-34"
             id="use37956" />
        </g>
      </g>
    </g>
    <g
       id="ytick_6">
      <g
         id="line2d_29">
        <path
           d="M 72,118.5678 H 518.4"
           clip-path="url(#p4b34d49375)"
           style="fill:none;stroke:#b0b0b0;stroke-width:0.8;stroke-linecap:square"
           id="path37962" />
      </g>
      <g
         id="line2d_30">
        <g
           id="g37967">
          <use
             xlink:href="#m5b068cd525"
             x="72"
             y="118.5678"
             style="stroke:#000000;stroke-width:0.8"
             id="use37965" />
        </g>
      </g>
      <g
         id="text_16">
        <!-- 6 -->
        <g
           transform="matrix(0.1,0,0,-0.1,58.6375,122.36702)"
           id="g37975">
          <defs
             id="defs37971">
            <path
               id="DejaVuSans-36"
               d="m 2113,2584 q -425,0 -674,-291 -248,-290 -248,-796 0,-503 248,-796 249,-292 674,-292 425,0 673,292 248,293 248,796 0,506 -248,796 -248,291 -673,291 z m 1253,1979 v -575 q -238,112 -480,171 -242,60 -480,60 -625,0 -955,-422 -329,-422 -376,-1275 184,272 462,417 279,145 613,145 703,0 1111,-427 408,-426 408,-1160 0,-719 -425,-1154 -425,-434 -1131,-434 -810,0 -1238,620 -428,621 -428,1799 0,1106 525,1764 525,658 1409,658 238,0 480,-47 242,-47 505,-140 z"
               transform="scale(0.015625)" />
          </defs>
          <use
             xlink:href="#DejaVuSans-36"
             id="use37973" />
        </g>
      </g>
    </g>
    <g
       id="ytick_7">
      <g
         id="line2d_31">
        <path
           d="M 72,78.0318 H 518.4"
           clip-path="url(#p4b34d49375)"
           style="fill:none;stroke:#b0b0b0;stroke-width:0.8;stroke-linecap:square"
           id="path37979" />
      </g>
      <g
         id="line2d_32">
        <g
           id="g37984">
          <use
             xlink:href="#m5b068cd525"
             x="72"
             y="78.031799"
             style="stroke:#000000;stroke-width:0.8"
             id="use37982" />
        </g>
      </g>
      <g
         id="text_17">
        <!-- 8 -->
        <g
           transform="matrix(0.1,0,0,-0.1,58.6375,81.831019)"
           id="g37992">
          <defs
             id="defs37988">
            <path
               id="DejaVuSans-38"
               d="m 2034,2216 q -450,0 -708,-241 -257,-241 -257,-662 0,-422 257,-663 258,-241 708,-241 450,0 709,242 260,243 260,662 0,421 -258,662 -257,241 -711,241 z m -631,268 q -406,100 -633,378 -226,279 -226,679 0,559 398,884 399,325 1092,325 697,0 1094,-325 397,-325 397,-884 0,-400 -227,-679 -226,-278 -629,-378 456,-106 710,-416 255,-309 255,-755 Q 3634,634 3220,271 2806,-91 2034,-91 1263,-91 848,271 434,634 434,1313 q 0,446 256,755 257,310 713,416 z m -231,997 q 0,-362 226,-565 227,-203 636,-203 407,0 636,203 230,203 230,565 0,363 -230,566 -229,203 -636,203 -409,0 -636,-203 -226,-203 -226,-566 z"
               transform="scale(0.015625)" />
          </defs>
          <use
             xlink:href="#DejaVuSans-38"
             id="use37990" />
        </g>
      </g>
    </g>
  </g>
  <g
     id="line2d_33"
     transform="matrix(0.52418965,0,0,0.52418965,-0.38830868,-25.288586)">
    <path
       d="m 92.290909,346.5828 4.078575,-12.27163 4.078576,-11.56681 4.07857,-10.87779 4.07858,-10.20457 4.07857,-9.54716 4.07858,-8.90555 4.07857,-8.27973 4.07858,-7.66972 4.07857,-7.07552 4.07858,-6.49711 4.07857,-5.9345 4.07857,-5.3877 4.07858,-4.8567 4.07857,-4.34149 4.07858,-3.8421 4.07857,-3.3585 4.07858,-2.89071 4.07857,-2.43872 4.07858,-2.00252 4.07857,-1.58213 4.07858,-1.17754 4.07857,-0.78876 4.07858,-0.41577 4.07857,-0.0586 4.07858,0.2828 4.07857,0.60837 4.07858,0.91816 4.07857,1.21213 4.07857,1.4903 4.07858,1.75268 4.07857,1.99925 4.07858,2.23002 4.07857,2.44499 4.07858,2.64415 6.11786,4.30511 6.11786,4.66434 6.11786,4.97026 6.11787,5.22284 8.15715,7.26451 12.23572,11.28439 18.35359,16.95437 8.15715,7.22072 6.11786,5.17791 6.11786,4.91494 6.11786,4.59868 6.11786,4.22906 4.07858,2.58769 4.07857,2.38392 4.07858,2.16435 4.07857,1.92897 4.07858,1.67778 4.07857,1.4108 4.07858,1.12802 4.07857,0.82943 4.07858,0.51505 4.07857,0.18486 4.07857,-0.16114 4.07858,-0.52292 4.07857,-0.90052 4.07858,-1.29392 4.07857,-1.70311 4.07858,-2.12811 4.07857,-2.56891 4.07858,-3.02552 4.07857,-3.49792 4.07858,-3.98612 4.07857,-4.49014 4.07858,-5.00994 4.07857,-5.54555 4.07858,-6.09696 4.07857,-6.66418 4.07858,-7.24719 4.07857,-7.84601 4.07858,-8.46063 4.07857,-9.09105 4.07858,-9.73728 4.07857,-10.39929 4.07857,-11.07712 4.07858,-11.77075 4.07857,-12.48018 4.07858,-13.20541 4.07857,-13.94644 4.07858,-14.70328 4.07857,-15.47591 4.07858,-16.26435 4.07857,-17.068582 4.07858,-17.888628 4.07857,-18.72447 v 0"
       clip-path="url(#p4b34d49375)"
       style="fill:none;stroke:#1f77b4;stroke-width:1.5;stroke-linecap:square"
       id="path38005" />
  </g>
  <g
     id="patch_3"
     transform="matrix(0.52418965,0,0,0.52418965,-0.38830868,-25.288586)">
    <path
       d="M 72,360.7704 V 48.6432"
       style="fill:none;stroke:#000000;stroke-width:0.8;stroke-linecap:square;stroke-linejoin:miter"
       id="path38008" />
  </g>
  <g
     id="patch_4"
     transform="matrix(0.52418965,0,0,0.52418965,-0.38830868,-25.288586)">
    <path
       d="M 518.4,360.7704 V 48.6432"
       style="fill:none;stroke:#000000;stroke-width:0.8;stroke-linecap:square;stroke-linejoin:miter"
       id="path38011" />
  </g>
  <g
     id="patch_5"
     transform="matrix(0.52418965,0,0,0.52418965,-0.38830868,-25.288586)">
    <path
       d="M 72,360.7704 H 518.4"
       style="fill:none;stroke:#000000;stroke-width:0.8;stroke-linecap:square;stroke-linejoin:miter"
       id="path38014" />
  </g>
  <g
     id="patch_6"
     transform="matrix(0.52418965,0,0,0.52418965,-0.38830868,-25.288586)">
    <path
       d="M 72,48.6432 H 518.4"
       style="fill:none;stroke:#000000;stroke-width:0.8;stroke-linecap:square;stroke-linejoin:miter"
       id="path38017" />
  </g>
  <defs
     id="defs38025">
    <clipPath
       id="p4b34d49375">
      <rect
         x="72"
         y="48.6432"
         width="446.39999"
         height="312.1272"
         id="rect38022" />
    </clipPath>
  </defs>
  <g
     inkscape:label=""
     transform="matrix(1.3017539,0,0,1.3017539,0,83.9484)"
     id="g40504">
    <g
       fill="#000000"
       fill-opacity="1"
       id="g22"
       transform="translate(-0.40625,0.00449991)">
      <g
         id="use20"
         transform="translate(0,6.8080001)">
        <path
           d="M 3.015625,-3.15625 H 4.71875 c 1.40625,0 2.796875,-1.03125 2.796875,-2.140625 0,-0.78125 -0.65625,-1.515625 -1.96875,-1.515625 h -3.21875 c -0.1875,0 -0.296875,0 -0.296875,0.1875 0,0.125 0.078125,0.125 0.28125,0.125 0.125,0 0.3125,0.015625 0.421875,0.015625 0.171875,0.03125 0.21875,0.046875 0.21875,0.171875 0,0.03125 0,0.0625 -0.03125,0.1875 l -1.34375,5.34375 c -0.09375,0.390625 -0.109375,0.46875 -0.90625,0.46875 -0.15625,0 -0.265625,0 -0.265625,0.1875 C 0.40625,0 0.515625,0 0.546875,0 0.828125,0 1.53125,-0.03125 1.8125,-0.03125 c 0.21875,0 0.4375,0.015625 0.640625,0.015625 0.21875,0 0.4375,0.015625 0.640625,0.015625 0.078125,0 0.203125,0 0.203125,-0.203125 0,-0.109375 -0.09375,-0.109375 -0.28125,-0.109375 -0.359375,0 -0.640625,0 -0.640625,-0.171875 0,-0.0625 0.015625,-0.109375 0.03125,-0.171875 z M 3.734375,-6.125 C 3.828125,-6.46875 3.84375,-6.5 4.28125,-6.5 h 0.953125 c 0.828125,0 1.359375,0.265625 1.359375,0.953125 0,0.390625 -0.203125,1.25 -0.59375,1.609375 -0.5,0.453125 -1.09375,0.53125 -1.53125,0.53125 H 3.0625 Z m 0,0"
           id="path38" />
      </g>
    </g>
    <g
       clip-path="url(#clipPath4354)"
       id="g28"
       transform="translate(-0.40625,0.00449991)">
      <g
         fill="#000000"
         fill-opacity="1"
         id="g26">
        <g
           id="use24"
           transform="translate(6.3959999,8.302)">
          <path
             d="m 1.90625,-2.328125 c 0.546875,0 0.9375,0.375 0.9375,1.125 0,0.859375 -0.515625,1.125 -0.90625,1.125 -0.28125,0 -0.90625,-0.078125 -1.1875,-0.5 0.328125,0 0.40625,-0.234375 0.40625,-0.390625 0,-0.21875 -0.171875,-0.375 -0.390625,-0.375 -0.1875,0 -0.390625,0.125 -0.390625,0.40625 0,0.65625 0.71875,1.078125 1.5625,1.078125 0.96875,0 1.640625,-0.65625 1.640625,-1.34375 0,-0.546875 -0.4375,-1.09375 -1.203125,-1.25 0.71875,-0.265625 0.984375,-0.78125 0.984375,-1.21875 0,-0.546875 -0.625,-0.953125 -1.40625,-0.953125 -0.765625,0 -1.359375,0.375 -1.359375,0.9375 0,0.234375 0.15625,0.359375 0.359375,0.359375 0.21875,0 0.359375,-0.15625 0.359375,-0.34375 0,-0.203125 -0.140625,-0.359375 -0.359375,-0.375 0.25,-0.296875 0.71875,-0.375 0.984375,-0.375 0.3125,0 0.75,0.15625 0.75,0.75 0,0.296875 -0.09375,0.625 -0.28125,0.828125 -0.21875,0.265625 -0.421875,0.28125 -0.765625,0.3125 -0.171875,0.015625 -0.1875,0.015625 -0.21875,0.015625 -0.015625,0 -0.078125,0.015625 -0.078125,0.09375 0,0.09375 0.0625,0.09375 0.1875,0.09375 z m 0,0"
             id="path42" />
        </g>
      </g>
    </g>
    <g
       fill="#000000"
       fill-opacity="1"
       id="g32"
       transform="translate(-0.40625,0.00449991)">
      <g
         id="use30"
         transform="translate(12.526,6.8080001)">
        <path
           d="M 3.328125,-3.015625 C 3.390625,-3.265625 3.625,-4.1875 4.3125,-4.1875 c 0.046875,0 0.296875,0 0.5,0.125 C 4.53125,-4 4.34375,-3.765625 4.34375,-3.515625 c 0,0.15625 0.109375,0.34375 0.375,0.34375 0.21875,0 0.53125,-0.171875 0.53125,-0.578125 0,-0.515625 -0.578125,-0.65625 -0.921875,-0.65625 -0.578125,0 -0.921875,0.53125 -1.046875,0.75 -0.25,-0.65625 -0.78125,-0.75 -1.078125,-0.75 -1.03125,0 -1.609375,1.28125 -1.609375,1.53125 0,0.109375 0.109375,0.109375 0.125,0.109375 0.078125,0 0.109375,-0.03125 0.125,-0.109375 0.34375,-1.0625 1,-1.3125 1.34375,-1.3125 0.1875,0 0.53125,0.09375 0.53125,0.671875 0,0.3125 -0.171875,0.96875 -0.53125,2.375 -0.15625,0.609375 -0.515625,1.03125 -0.953125,1.03125 -0.0625,0 -0.28125,0 -0.5,-0.125 0.25,-0.0625 0.46875,-0.265625 0.46875,-0.546875 0,-0.265625 -0.21875,-0.34375 -0.359375,-0.34375 -0.3125,0 -0.546875,0.25 -0.546875,0.578125 0,0.453125 0.484375,0.65625 0.921875,0.65625 0.671875,0 1.03125,-0.703125 1.046875,-0.75 0.125,0.359375 0.484375,0.75 1.078125,0.75 1.03125,0 1.59375,-1.28125 1.59375,-1.53125 0,-0.109375 -0.078125,-0.109375 -0.109375,-0.109375 -0.09375,0 -0.109375,0.046875 -0.140625,0.109375 -0.328125,1.078125 -1,1.3125 -1.3125,1.3125 -0.390625,0 -0.546875,-0.3125 -0.546875,-0.65625 0,-0.21875 0.046875,-0.4375 0.15625,-0.875 z m 0,0"
           id="path46" />
      </g>
    </g>
  </g>
  <g
     inkscape:label=""
     transform="matrix(1.3017539,0,0,1.3017539,139.5854,179.91917)"
     id="g41016">
    <g
       fill="#000000"
       fill-opacity="1"
       id="g12"
       transform="translate(-0.296875,0.11725)">
      <g
         id="use10"
         transform="translate(0,4.289)">
        <path
           d="M 3.328125,-3.015625 C 3.390625,-3.265625 3.625,-4.1875 4.3125,-4.1875 c 0.046875,0 0.296875,0 0.5,0.125 C 4.53125,-4 4.34375,-3.765625 4.34375,-3.515625 c 0,0.15625 0.109375,0.34375 0.375,0.34375 0.21875,0 0.53125,-0.171875 0.53125,-0.578125 0,-0.515625 -0.578125,-0.65625 -0.921875,-0.65625 -0.578125,0 -0.921875,0.53125 -1.046875,0.75 -0.25,-0.65625 -0.78125,-0.75 -1.078125,-0.75 -1.03125,0 -1.609375,1.28125 -1.609375,1.53125 0,0.109375 0.109375,0.109375 0.125,0.109375 0.078125,0 0.109375,-0.03125 0.125,-0.109375 0.34375,-1.0625 1,-1.3125 1.34375,-1.3125 0.1875,0 0.53125,0.09375 0.53125,0.671875 0,0.3125 -0.171875,0.96875 -0.53125,2.375 -0.15625,0.609375 -0.515625,1.03125 -0.953125,1.03125 -0.0625,0 -0.28125,0 -0.5,-0.125 0.25,-0.0625 0.46875,-0.265625 0.46875,-0.546875 0,-0.265625 -0.21875,-0.34375 -0.359375,-0.34375 -0.3125,0 -0.546875,0.25 -0.546875,0.578125 0,0.453125 0.484375,0.65625 0.921875,0.65625 0.671875,0 1.03125,-0.703125 1.046875,-0.75 0.125,0.359375 0.484375,0.75 1.078125,0.75 1.03125,0 1.59375,-1.28125 1.59375,-1.53125 0,-0.109375 -0.078125,-0.109375 -0.109375,-0.109375 -0.09375,0 -0.109375,0.046875 -0.140625,0.109375 -0.328125,1.078125 -1,1.3125 -1.3125,1.3125 -0.390625,0 -0.546875,-0.3125 -0.546875,-0.65625 0,-0.21875 0.046875,-0.4375 0.15625,-0.875 z m 0,0"
           id="path18" />
      </g>
    </g>
  </g>
  <path
     style="fill:none;stroke:#595959;stroke-width:0.909366;stroke-dasharray:none;marker-end:url(#TriangleStart)"
     d="M 39.588708,100.81862 H 268.02573"
     id="path41896"
     sodipodi:nodetypes="cc" />
  <path
     style="fill:none;stroke:#595959;stroke-width:0.909366;stroke-linecap:butt;stroke-linejoin:round;stroke-dasharray:none;marker-end:url(#TriangleStart-9)"
     d="M 127.61119,166.9185 V 3.3417818"
     id="path41896-8"
     sodipodi:nodetypes="cc" />
  <g
     id="g4026-6-8-7-2-6"
     transform="matrix(1.485892,0,0,1.485892,49.502959,44.483106)">
    <circle
       style="fill:#3ed0d6;fill-opacity:1;stroke:none;stroke-width:0.21"
       id="path3953-1-2-5-0-2"
       cx="52.46788"
       cy="37.908474"
       r="1.3008744" />
    <path
       id="path3953-2-9-59-5-6-2-8"
       style="fill:url(#linearGradient929-6);fill-opacity:1;stroke:none;stroke-width:0.21"
       d="m 53.363759,36.964904 a 1.3008744,1.3008744 0 0 1 0.356051,0.894003 1.3008744,1.3008744 0 0 1 -1.300696,1.301212 1.3008744,1.3008744 0 0 1 -0.775147,-0.257349 1.3008744,1.3008744 0 0 0 0.944129,0.407211 1.3008744,1.3008744 0 0 0 1.300696,-1.301213 1.3008744,1.3008744 0 0 0 -0.525033,-1.043864 z" />
  </g>
  <g
     id="g4026-6-8-7-2-6-8"
     transform="matrix(1.485892,0,0,1.485892,-3.5145314,44.242183)"
     style="stroke-linecap:butt;stroke-linejoin:round">
    <circle
       style="fill:#3ed0d6;fill-opacity:1;stroke:none;stroke-width:0.21;stroke-linecap:butt;stroke-linejoin:round"
       id="path3953-1-2-5-0-2-3"
       cx="52.46788"
       cy="37.908474"
       r="1.3008744" />
    <path
       id="path3953-2-9-59-5-6-2-8-7"
       style="fill:url(#linearGradient929-6-5);fill-opacity:1;stroke:none;stroke-width:0.21;stroke-linecap:butt;stroke-linejoin:round"
       d="m 53.363759,36.964904 a 1.3008744,1.3008744 0 0 1 0.356051,0.894003 1.3008744,1.3008744 0 0 1 -1.300696,1.301212 1.3008744,1.3008744 0 0 1 -0.775147,-0.257349 1.3008744,1.3008744 0 0 0 0.944129,0.407211 1.3008744,1.3008744 0 0 0 1.300696,-1.301213 1.3008744,1.3008744 0 0 0 -0.525033,-1.043864 z" />
  </g>
  <g
     id="g4026-6-8-7-2-6-87"
     transform="matrix(1.485892,0,0,1.485892,156.0997,44.087754)"
     style="stroke-linecap:butt;stroke-linejoin:round">
    <circle
       style="fill:#3ed0d6;fill-opacity:1;stroke:none;stroke-width:0.21;stroke-linecap:butt;stroke-linejoin:round"
       id="path3953-1-2-5-0-2-4"
       cx="52.46788"
       cy="37.908474"
       r="1.3008744" />
    <path
       id="path3953-2-9-59-5-6-2-8-1"
       style="fill:url(#linearGradient929-6-9);fill-opacity:1;stroke:none;stroke-width:0.21;stroke-linecap:butt;stroke-linejoin:round"
       d="m 53.363759,36.964904 a 1.3008744,1.3008744 0 0 1 0.356051,0.894003 1.3008744,1.3008744 0 0 1 -1.300696,1.301212 1.3008744,1.3008744 0 0 1 -0.775147,-0.257349 1.3008744,1.3008744 0 0 0 0.944129,0.407211 1.3008744,1.3008744 0 0 0 1.300696,-1.301213 1.3008744,1.3008744 0 0 0 -0.525033,-1.043864 z" />
  </g>
  <path
     sodipodi:type="star"
     style="fill:#df357e;fill-opacity:1;stroke:none;stroke-width:1.7348;stroke-dasharray:none"
     id="path52106"
     inkscape:flatsided="false"
     sodipodi:sides="3"
     sodipodi:cx="86.919228"
     sodipodi:cy="70.859665"
     sodipodi:r1="7.745965"
     sodipodi:r2="3.8729825"
     sodipodi:arg1="0.52359878"
     sodipodi:arg2="1.5707963"
     inkscape:rounded="0"
     inkscape:randomized="0"
     d="m 93.62743,74.732647 -6.708202,0 -6.708203,0 3.354101,-5.809473 3.354102,-5.809474 3.354101,5.809474 z"
     inkscape:transform-center-y="-0.57848058"
     transform="matrix(0.29872576,0,0,0.29872576,72.409565,65.239777)" />
  <path
     sodipodi:type="star"
     style="fill:#df357e;fill-opacity:1;stroke:none;stroke-width:1.7348;stroke-linecap:butt;stroke-linejoin:round;stroke-dasharray:none"
     id="path52106-9"
     inkscape:flatsided="false"
     sodipodi:sides="3"
     sodipodi:cx="86.919228"
     sodipodi:cy="70.859665"
     sodipodi:r1="7.745965"
     sodipodi:r2="3.8729825"
     sodipodi:arg1="0.52359878"
     sodipodi:arg2="1.5707963"
     inkscape:rounded="0"
     inkscape:randomized="0"
     d="m 93.62743,74.732647 -6.708202,0 -6.708203,0 3.354101,-5.809473 3.354102,-5.809474 3.354101,5.809474 z"
     inkscape:transform-center-y="0.57848455"
     transform="matrix(0.29872576,0,0,-0.29872576,166.52105,168.03712)" />
  <path
     style="fill:#df357e;fill-opacity:1;stroke:#595959;stroke-width:1.735;stroke-dasharray:1.73500001,1.73500001;stroke-opacity:1;stroke-dashoffset:0"
     d="M 98.367825,87.575685 V 103.37545"
     id="path52507" />
  <path
     style="fill:#df357e;fill-opacity:1;stroke:#595959;stroke-width:1.735;stroke-linecap:butt;stroke-linejoin:round;stroke-dasharray:1.735, 1.735;stroke-dashoffset:0;stroke-opacity:1"
     d="m 192.50322,99.160391 0,46.760249"
     id="path52507-0"
     sodipodi:nodetypes="cc" />
</svg>
