<?xml version="1.0" encoding="UTF-8" standalone="no"?>
<!-- Created with Inkscape (http://www.inkscape.org/) -->

<svg
   width="126.53162mm"
   height="136.75517mm"
   viewBox="0 0 126.53162 136.75517"
   version="1.1"
   id="svg13513"
   inkscape:version="1.2.2 (b0a8486541, 2022-12-01)"
   sodipodi:docname="polynomialApproximation.svg"
   xmlns:inkscape="http://www.inkscape.org/namespaces/inkscape"
   xmlns:sodipodi="http://sodipodi.sourceforge.net/DTD/sodipodi-0.dtd"
   xmlns="http://www.w3.org/2000/svg"
   xmlns:svg="http://www.w3.org/2000/svg">
  <sodipodi:namedview
     id="namedview13515"
     pagecolor="#ffffff"
     bordercolor="#000000"
     borderopacity="0.25"
     inkscape:showpageshadow="2"
     inkscape:pageopacity="0.0"
     inkscape:pagecheckerboard="0"
     inkscape:deskcolor="#d1d1d1"
     inkscape:document-units="mm"
     showgrid="false"
     inkscape:zoom="0.64"
     inkscape:cx="322.65625"
     inkscape:cy="314.0625"
     inkscape:window-width="1280"
     inkscape:window-height="731"
     inkscape:window-x="0"
     inkscape:window-y="0"
     inkscape:window-maximized="1"
     inkscape:current-layer="layer1" />
  <defs
     id="defs13510">
    <marker
       style="overflow:visible"
       id="TriangleStart"
       refX="0"
       refY="0"
       orient="auto-start-reverse"
       inkscape:stockid="TriangleStart"
       markerWidth="5.3244081"
       markerHeight="6.155385"
       viewBox="0 0 5.3244081 6.1553851"
       inkscape:isstock="true"
       inkscape:collect="always"
       preserveAspectRatio="xMidYMid">
      <path
         transform="scale(0.5)"
         style="fill:context-stroke;fill-rule:evenodd;stroke:context-stroke;stroke-width:1pt"
         d="M 5.77,0 -2.88,5 V -5 Z"
         id="path135" />
    </marker>
    <marker
       style="overflow:visible"
       id="TriangleStart-9"
       refX="0"
       refY="0"
       orient="auto-start-reverse"
       inkscape:stockid="TriangleStart"
       markerWidth="5.3244081"
       markerHeight="6.155385"
       viewBox="0 0 5.3244081 6.1553851"
       inkscape:isstock="true"
       inkscape:collect="always"
       preserveAspectRatio="xMidYMid">
      <path
         transform="scale(0.5)"
         style="fill:context-stroke;fill-rule:evenodd;stroke:context-stroke;stroke-width:1pt"
         d="M 5.77,0 -2.88,5 V -5 Z"
         id="path135-2" />
    </marker>
    <marker
       style="overflow:visible"
       id="TriangleStart-6"
       refX="0"
       refY="0"
       orient="auto-start-reverse"
       inkscape:stockid="TriangleStart"
       markerWidth="5.3244081"
       markerHeight="6.155385"
       viewBox="0 0 5.3244081 6.1553851"
       inkscape:isstock="true"
       inkscape:collect="always"
       preserveAspectRatio="xMidYMid">
      <path
         transform="scale(0.5)"
         style="fill:context-stroke;fill-rule:evenodd;stroke:context-stroke;stroke-width:1pt"
         d="M 5.77,0 -2.88,5 V -5 Z"
         id="path135-4" />
    </marker>
    <clipPath
       id="clipPath7962">
      <path
         clip-rule="nonzero"
         d="M 19,1 H 29 V 11.058594 H 19 Z m 0,0"
         id="path4906" />
    </clipPath>
    <clipPath
       id="clipPath782">
      <path
         clip-rule="nonzero"
         d="m 33,0 h 5.628906 V 11 H 33 Z m 0,0"
         id="path2097" />
    </clipPath>
    <clipPath
       id="clipPath6808">
      <path
         clip-rule="nonzero"
         d="m 24,3 h 11 v 9.722656 H 24 Z m 0,0"
         id="path4525" />
    </clipPath>
    <clipPath
       id="clipPath3863">
      <path
         clip-rule="nonzero"
         d="m 56,3 h 10 v 9.722656 H 56 Z m 0,0"
         id="path5608" />
    </clipPath>
    <clipPath
       id="clipPath4550">
      <path
         clip-rule="nonzero"
         d="m 69,5 h 6.441406 v 7 H 69 Z m 0,0"
         id="path6576" />
    </clipPath>
    <clipPath
       id="clipPath102">
      <path
         clip-rule="nonzero"
         d="m 24,3 h 11 v 9.722656 H 24 Z m 0,0"
         id="path3251" />
    </clipPath>
    <clipPath
       id="clipPath5332">
      <path
         clip-rule="nonzero"
         d="m 61,3 h 10 v 9.722656 H 61 Z m 0,0"
         id="path491" />
    </clipPath>
    <clipPath
       id="clipPath9244">
      <path
         clip-rule="nonzero"
         d="m 92,3 h 11 v 9.722656 H 92 Z m 0,0"
         id="path6846" />
    </clipPath>
    <clipPath
       id="clipPath7993">
      <path
         clip-rule="nonzero"
         d="m 106,1 h 7.50391 V 12 H 106 Z m 0,0"
         id="path3382" />
    </clipPath>
    <clipPath
       id="clipPath9821">
      <path
         clip-rule="nonzero"
         d="m 9,0 h 5 V 15.214844 H 9 Z m 0,0"
         id="path8721" />
    </clipPath>
    <clipPath
       id="clipPath9227">
      <path
         clip-rule="nonzero"
         d="m 22,0 h 4 v 15.214844 h -4 z m 0,0"
         id="path7980" />
    </clipPath>
  </defs>
  <g
     inkscape:label="Layer 1"
     inkscape:groupmode="layer"
     id="layer1"
     transform="translate(-33.611441,-23.415856)">
    <path
       style="fill:none;stroke:#000000;stroke-width:0.574029;stroke-linecap:round;stroke-linejoin:round;stroke-dasharray:none;paint-order:fill markers stroke"
       d="m 54.587911,107.6182 c 0,0 11.440678,10.72613 26.317034,8.19875 11.825945,-2.00915 19.455515,-14.70509 26.317035,-24.544258 8.12784,-11.655017 16.32243,-19.000301 27.53188,-19.335885 9.82504,-0.29414 25.10219,15.473859 25.10219,15.473859"
       id="path14009"
       sodipodi:nodetypes="cssac" />
    <circle
       style="fill:#000000;fill-opacity:1;stroke:#000000;stroke-width:0.574029;stroke-linecap:round;stroke-linejoin:round;stroke-dasharray:none;paint-order:fill markers stroke"
       id="path14395"
       cx="100.11634"
       cy="101.19848"
       r="1.3038408" />
    <text
       xml:space="preserve"
       style="font-size:3.44417px;font-family:C059;-inkscape-font-specification:C059;fill:#000000;fill-opacity:1;stroke:#000000;stroke-width:0.574029;stroke-linecap:round;stroke-linejoin:round;stroke-dasharray:none;paint-order:fill markers stroke"
       x="98.450806"
       y="98.816025"
       id="text14399"><tspan
         sodipodi:role="line"
         id="tspan14397"
         style="font-style:italic;font-variant:normal;font-weight:normal;font-stretch:normal;font-family:C059;-inkscape-font-specification:'C059 Italic';stroke:none;stroke-width:0.574029"
         x="98.450806"
         y="98.816025">P</tspan></text>
    <path
       id="rect14425"
       style="fill:none;stroke:#a2417c;stroke-width:0.430522;stroke-linecap:round;stroke-linejoin:round;stroke-dasharray:0.861041, 0.861041;stroke-dashoffset:0.473573;stroke-opacity:1;paint-order:fill markers stroke"
       d="M 93.386413,92.127061 H 106.4564 V 109.02662 H 93.386413 Z"
       sodipodi:nodetypes="ccccc" />
    <g
       id="g16019"
       transform="matrix(0.8135841,0,0,0.8135841,34.213873,-45.586741)">
      <path
         style="fill:none;stroke:#000000;stroke-width:0.705556;stroke-linecap:round;stroke-linejoin:round;stroke-dasharray:none;paint-order:fill markers stroke"
         d="m 119.18892,186.1721 c 5.21559,-5.72163 11.64937,-14.55572 15.86622,-20.60252"
         id="path14009-4"
         sodipodi:nodetypes="cc" />
      <circle
         style="fill:#000000;fill-opacity:1;stroke:#000000;stroke-width:0.705556;stroke-linecap:round;stroke-linejoin:round;stroke-dasharray:none;paint-order:fill markers stroke"
         id="path14395-5"
         cx="127.18151"
         cy="176.77094"
         r="1.6025888" />
      <text
         xml:space="preserve"
         style="font-size:4.23333px;font-family:C059;-inkscape-font-specification:C059;fill:#000000;fill-opacity:1;stroke:#000000;stroke-width:0.705556;stroke-linecap:round;stroke-linejoin:round;stroke-dasharray:none;paint-order:fill markers stroke"
         x="125.13435"
         y="173.84259"
         id="text14399-2"><tspan
           sodipodi:role="line"
           id="tspan14397-5"
           style="font-style:italic;font-variant:normal;font-weight:normal;font-stretch:normal;font-family:C059;-inkscape-font-specification:'C059 Italic';stroke:none;stroke-width:0.705556"
           x="125.13435"
           y="173.84259">P</tspan></text>
      <path
         id="rect14425-4"
         style="fill:none;stroke:#a2417c;stroke-width:0.529167;stroke-linecap:round;stroke-linejoin:round;stroke-dasharray:1.05833, 1.05833;stroke-dashoffset:0.582083;stroke-opacity:1;paint-order:fill markers stroke"
         d="m 118.90956,165.62098 h 16.06469 v 20.77174 h -16.06469 z"
         sodipodi:nodetypes="ccccc" />
    </g>
    <path
       id="rect14425-9"
       style="fill:none;stroke:#3d7298;stroke-width:0.430522;stroke-linecap:round;stroke-linejoin:round;stroke-dasharray:1.72209, 0.861041, 0.430522, 0.861041;stroke-dashoffset:0.473573;stroke-opacity:1;paint-order:fill markers stroke"
       d="m 85.807282,85.268516 25.991838,0.178876 v 29.067998 l -25.991838,-0.17888 z"
       sodipodi:nodetypes="ccccc" />
    <path
       id="rect14425-9-7"
       style="fill:none;stroke:#64983d;stroke-width:0.430522;stroke-linecap:round;stroke-linejoin:round;stroke-dasharray:0.430522, 0.861041;stroke-dashoffset:0.473573;stroke-opacity:1;paint-order:fill markers stroke"
       d="m 79.424005,78.931768 37.256325,0.229393 V 116.4383 l -37.256325,-0.22939 z"
       sodipodi:nodetypes="ccccc" />
    <path
       style="fill:none;stroke:#000000;stroke-width:0.574029;stroke-linecap:round;stroke-linejoin:round;stroke-dasharray:none;paint-order:fill markers stroke"
       d="m 98.702802,153.35402 c 2.999958,-1.69108 5.501188,-3.6091 9.263108,-7.37102 3.76191,-3.76191 10.2689,-13.4318 11.97784,-15.63132 1.70893,-2.19953 2.79497,-3.92093 4.48127,-5.88394"
       id="path14009-7"
       sodipodi:nodetypes="czzc" />
    <circle
       style="fill:#000000;fill-opacity:1;stroke:#000000;stroke-width:0.574029;stroke-linecap:round;stroke-linejoin:round;stroke-dasharray:none;paint-order:fill markers stroke"
       id="path14395-8"
       cx="112.8381"
       cy="140.27745"
       r="1.3038408" />
    <text
       xml:space="preserve"
       style="font-size:3.44417px;font-family:C059;-inkscape-font-specification:C059;fill:#000000;fill-opacity:1;stroke:#000000;stroke-width:0.574029;stroke-linecap:round;stroke-linejoin:round;stroke-dasharray:none;paint-order:fill markers stroke"
       x="111.17258"
       y="137.895"
       id="text14399-6"><tspan
         sodipodi:role="line"
         id="tspan14397-8"
         style="font-style:italic;font-variant:normal;font-weight:normal;font-stretch:normal;font-family:C059;-inkscape-font-specification:'C059 Italic';stroke:none;stroke-width:0.574029"
         x="111.17258"
         y="137.895">P</tspan></text>
    <path
       id="rect14425-9-4"
       style="fill:none;stroke:#3d7298;stroke-width:0.430522;stroke-linecap:round;stroke-linejoin:round;stroke-dasharray:1.72209, 0.861041, 0.430522, 0.861041;stroke-dashoffset:0.473573;stroke-opacity:1;paint-order:fill markers stroke"
       d="m 98.529045,124.3475 25.991835,0.17887 v 29.068 l -25.991835,-0.17888 z"
       sodipodi:nodetypes="ccccc" />
    <path
       style="fill:none;stroke:#000000;stroke-width:0.574029;stroke-linecap:round;stroke-linejoin:round;stroke-dasharray:none;paint-order:fill markers stroke"
       d="M 33.961942,71.797713 C 45.787886,69.78857 54.76316,56.875817 61.624677,47.03665 c 2.031958,-2.913755 3.696598,-5.4537 5.782961,-7.786552 2.086372,-2.332851 2.975798,-3.438746 3.828019,-4.085774"
       id="path14009-1"
       sodipodi:nodetypes="cssc" />
    <circle
       style="fill:#000000;fill-opacity:1;stroke:#000000;stroke-width:0.574029;stroke-linecap:round;stroke-linejoin:round;stroke-dasharray:none;paint-order:fill markers stroke"
       id="path14395-4"
       cx="54.519043"
       cy="56.962437"
       r="1.3038408" />
    <text
       xml:space="preserve"
       style="font-size:3.44417px;font-family:C059;-inkscape-font-specification:C059;fill:#000000;fill-opacity:1;stroke:#000000;stroke-width:0.574029;stroke-linecap:round;stroke-linejoin:round;stroke-dasharray:none;paint-order:fill markers stroke"
       x="52.853508"
       y="54.579983"
       id="text14399-9"><tspan
         sodipodi:role="line"
         id="tspan14397-2"
         style="font-style:italic;font-variant:normal;font-weight:normal;font-stretch:normal;font-family:C059;-inkscape-font-specification:'C059 Italic';stroke:none;stroke-width:0.574029"
         x="52.853508"
         y="54.579983">P</tspan></text>
    <path
       id="rect14425-9-7-8"
       style="fill:none;stroke:#64983d;stroke-width:0.430522;stroke-linecap:round;stroke-linejoin:round;stroke-dasharray:0.430522, 0.861041;stroke-dashoffset:0.473573;stroke-opacity:1;paint-order:fill markers stroke"
       d="m 33.826702,34.695724 37.256319,0.229393 V 72.202249 L 33.826702,71.972858 Z"
       sodipodi:nodetypes="ccccc" />
    <path
       style="fill:none;fill-opacity:1;stroke:#3a3c38;stroke-width:0.430386;stroke-linecap:round;stroke-linejoin:round;stroke-dasharray:none;stroke-dashoffset:0.582083;stroke-opacity:1;marker-end:url(#TriangleStart);paint-order:fill markers stroke"
       d="m 79.590997,78.975835 -8.60143,-6.673226"
       id="path16240" />
    <path
       style="fill:none;fill-opacity:1;stroke:#3a3c38;stroke-width:0.430386;stroke-linecap:round;stroke-linejoin:round;stroke-dasharray:none;stroke-dashoffset:0.582083;stroke-opacity:1;marker-end:url(#TriangleStart-9);paint-order:fill markers stroke"
       d="m 100.84519,114.27644 9.67907,9.06745"
       id="path16240-6"
       sodipodi:nodetypes="cc" />
    <path
       style="fill:none;fill-opacity:1;stroke:#3a3c38;stroke-width:0.430386;stroke-linecap:round;stroke-linejoin:round;stroke-dasharray:none;stroke-dashoffset:0.582083;stroke-opacity:1;marker-end:url(#TriangleStart-6);paint-order:fill markers stroke"
       d="m 106.61644,100.96752 22.96425,-5.167046"
       id="path16240-9"
       sodipodi:nodetypes="cc" />
    <g
       inkscape:label=""
       transform="matrix(0.8135841,0,0,0.8135841,131.87655,107.85609)"
       id="g17861">
      <g
         fill="#000000"
         fill-opacity="1"
         id="g30"
         transform="matrix(0.352778,0,0,0.352778,-0.20395,-0.00313086)">
        <g
           id="use26"
           transform="translate(0,9.9619999)">
          <path
             d="M 4.3125,-1.703125 C 4.25,-1.46875 4.25,-1.4375 4.046875,-1.15625 c -0.3125,0.390625 -0.953125,1.015625 -1.625,1.015625 -0.578125,0 -0.921875,-0.53125 -0.921875,-1.375 0,-0.796875 0.453125,-2.40625 0.71875,-3 0.5,-1 1.171875,-1.515625 1.71875,-1.515625 0.953125,0 1.140625,1.171875 1.140625,1.28125 0,0.015625 -0.046875,0.203125 -0.0625,0.234375 z M 5.234375,-5.375 C 5.078125,-5.75 4.6875,-6.328125 3.9375,-6.328125 c -1.609375,0 -3.359375,2.09375 -3.359375,4.21875 0,1.421875 0.828125,2.25 1.796875,2.25 0.796875,0 1.46875,-0.609375 1.875,-1.09375 0.140625,0.859375 0.8125,1.09375 1.25,1.09375 0.421875,0 0.765625,-0.25 1.03125,-0.765625 C 6.75,-1.125 6.953125,-2 6.953125,-2.046875 6.953125,-2.125 6.90625,-2.1875 6.8125,-2.1875 c -0.125,0 -0.140625,0.078125 -0.203125,0.296875 -0.21875,0.84375 -0.484375,1.75 -1.078125,1.75 -0.40625,0 -0.4375,-0.375 -0.4375,-0.65625 0,-0.34375 0.046875,-0.5 0.171875,-1.046875 0.09375,-0.359375 0.171875,-0.6875 0.28125,-1.09375 0.53125,-2.15625 0.65625,-2.671875 0.65625,-2.75 0,-0.203125 -0.15625,-0.359375 -0.359375,-0.359375 -0.46875,0 -0.578125,0.5 -0.609375,0.671875 z m 0,0"
             id="path48" />
        </g>
        <g
           id="use28"
           transform="translate(7.3739471,9.9619999)">
          <path
             d="m 6.796875,-5.859375 c -0.453125,0.09375 -0.625,0.4375 -0.625,0.703125 0,0.34375 0.265625,0.46875 0.46875,0.46875 0.4375,0 0.734375,-0.375 0.734375,-0.765625 0,-0.59375 -0.6875,-0.875 -1.296875,-0.875 -0.875,0 -1.359375,0.859375 -1.484375,1.140625 C 4.265625,-6.265625 3.375,-6.328125 3.109375,-6.328125 1.65625,-6.328125 0.875,-4.453125 0.875,-4.125 0.875,-4.078125 0.9375,-4 1.03125,-4 1.140625,-4 1.171875,-4.09375 1.203125,-4.140625 1.6875,-5.734375 2.65625,-6.03125 3.0625,-6.03125 c 0.65625,0 0.78125,0.59375 0.78125,0.9375 0,0.3125 -0.078125,0.640625 -0.265625,1.328125 l -0.484375,1.96875 c -0.203125,0.859375 -0.625,1.65625 -1.390625,1.65625 -0.0625,0 -0.421875,0 -0.734375,-0.1875 0.515625,-0.109375 0.640625,-0.53125 0.640625,-0.703125 0,-0.28125 -0.21875,-0.453125 -0.484375,-0.453125 -0.34375,0 -0.71875,0.296875 -0.71875,0.75 0,0.609375 0.671875,0.875 1.28125,0.875 0.6875,0 1.1875,-0.546875 1.484375,-1.125 0.234375,0.84375 0.9375,1.125 1.46875,1.125 1.46875,0 2.25,-1.875 2.25,-2.1875 0,-0.078125 -0.0625,-0.140625 -0.15625,-0.140625 -0.125,0 -0.140625,0.078125 -0.171875,0.1875 -0.390625,1.265625 -1.234375,1.859375 -1.875,1.859375 -0.5,0 -0.765625,-0.375 -0.765625,-0.96875 0,-0.3125 0.046875,-0.546875 0.28125,-1.484375 l 0.5,-1.953125 C 4.921875,-5.40625 5.40625,-6.03125 6.0625,-6.03125 c 0.03125,0 0.4375,0 0.734375,0.171875 z m 0,0"
             id="path52" />
        </g>
      </g>
      <g
         clip-path="url(#clipPath7962)"
         id="g36"
         transform="matrix(0.352778,0,0,0.352778,-0.20395,-0.00313086)">
        <g
           fill="#000000"
           fill-opacity="1"
           id="g34">
          <g
             id="use32"
             transform="translate(18.544001,9.9619999)">
            <path
               d="M 5.71875,-3.3125 H 9.6875 c 0.203125,0 0.453125,0 0.453125,-0.265625 0,-0.265625 -0.25,-0.265625 -0.453125,-0.265625 H 5.71875 v -3.953125 c 0,-0.203125 0,-0.46875 -0.25,-0.46875 -0.28125,0 -0.28125,0.25 -0.28125,0.46875 V -3.84375 H 1.234375 c -0.203125,0 -0.453125,0 -0.453125,0.265625 0,0.265625 0.234375,0.265625 0.453125,0.265625 H 5.1875 v 3.953125 c 0,0.203125 0,0.46875 0.265625,0.46875 0.265625,0 0.265625,-0.25 0.265625,-0.46875 z m 0,0"
               id="path56" />
          </g>
        </g>
      </g>
      <g
         clip-path="url(#clipPath782)"
         id="g42"
         transform="matrix(0.352778,0,0,0.352778,-0.20395,-0.00313086)">
        <g
           fill="#000000"
           fill-opacity="1"
           id="g40">
          <g
             id="use38"
             transform="translate(32.658001,9.9619999)">
            <path
               d="m 3.3125,-9.59375 c 0.015625,-0.0625 0.046875,-0.140625 0.046875,-0.21875 0,-0.140625 -0.140625,-0.140625 -0.171875,-0.140625 -0.015625,0 -0.53125,0.046875 -0.796875,0.0625 -0.234375,0.015625 -0.453125,0.046875 -0.71875,0.0625 -0.34375,0.03125 -0.4375,0.046875 -0.4375,0.296875 0,0.15625 0.140625,0.15625 0.28125,0.15625 C 2.25,-9.375 2.25,-9.25 2.25,-9.109375 c 0,0.09375 -0.109375,0.515625 -0.171875,0.78125 l -0.34375,1.375 C 1.59375,-6.390625 0.78125,-3.125 0.71875,-2.875 c -0.078125,0.359375 -0.078125,0.609375 -0.078125,0.796875 0,1.46875 0.828125,2.21875 1.75,2.21875 1.671875,0 3.390625,-2.140625 3.390625,-4.21875 0,-1.3125 -0.75,-2.25 -1.828125,-2.25 -0.734375,0 -1.421875,0.625 -1.6875,0.90625 z m -0.90625,9.453125 c -0.453125,0 -0.953125,-0.34375 -0.953125,-1.46875 0,-0.46875 0.03125,-0.75 0.296875,-1.75 0.046875,-0.1875 0.265625,-1.09375 0.328125,-1.28125 0.03125,-0.125 0.875,-1.390625 1.859375,-1.390625 0.625,0 0.90625,0.625 0.90625,1.375 0,0.6875 -0.390625,2.296875 -0.75,3.046875 -0.359375,0.78125 -1.03125,1.46875 -1.6875,1.46875 z m 0,0"
               id="path60" />
          </g>
        </g>
      </g>
    </g>
    <g
       inkscape:label=""
       transform="matrix(0.8135841,0,0,0.8135841,99.974336,156.45612)"
       id="g18806">
      <g
         fill="#000000"
         fill-opacity="1"
         id="g18784"
         transform="matrix(0.352778,0,0,0.352778,-0.20395,0.0778316)">
        <g
           id="use36"
           transform="translate(0,11.626)">
          <path
             d="M 4.3125,-1.703125 C 4.25,-1.46875 4.25,-1.4375 4.046875,-1.15625 c -0.3125,0.390625 -0.953125,1.015625 -1.625,1.015625 -0.578125,0 -0.921875,-0.53125 -0.921875,-1.375 0,-0.796875 0.453125,-2.40625 0.71875,-3 0.5,-1 1.171875,-1.515625 1.71875,-1.515625 0.953125,0 1.140625,1.171875 1.140625,1.28125 0,0.015625 -0.046875,0.203125 -0.0625,0.234375 z M 5.234375,-5.375 C 5.078125,-5.75 4.6875,-6.328125 3.9375,-6.328125 c -1.609375,0 -3.359375,2.09375 -3.359375,4.21875 0,1.421875 0.828125,2.25 1.796875,2.25 0.796875,0 1.46875,-0.609375 1.875,-1.09375 0.140625,0.859375 0.8125,1.09375 1.25,1.09375 0.421875,0 0.765625,-0.25 1.03125,-0.765625 C 6.75,-1.125 6.953125,-2 6.953125,-2.046875 6.953125,-2.125 6.90625,-2.1875 6.8125,-2.1875 c -0.125,0 -0.140625,0.078125 -0.203125,0.296875 -0.21875,0.84375 -0.484375,1.75 -1.078125,1.75 -0.40625,0 -0.4375,-0.375 -0.4375,-0.65625 0,-0.34375 0.046875,-0.5 0.171875,-1.046875 0.09375,-0.359375 0.171875,-0.6875 0.28125,-1.09375 0.53125,-2.15625 0.65625,-2.671875 0.65625,-2.75 0,-0.203125 -0.15625,-0.359375 -0.359375,-0.359375 -0.46875,0 -0.578125,0.5 -0.609375,0.671875 z m 0,0"
             id="path74" />
        </g>
        <g
           id="g18782"
           transform="translate(7.3739471,11.626)">
          <path
             d="m 6.796875,-5.859375 c -0.453125,0.09375 -0.625,0.4375 -0.625,0.703125 0,0.34375 0.265625,0.46875 0.46875,0.46875 0.4375,0 0.734375,-0.375 0.734375,-0.765625 0,-0.59375 -0.6875,-0.875 -1.296875,-0.875 -0.875,0 -1.359375,0.859375 -1.484375,1.140625 C 4.265625,-6.265625 3.375,-6.328125 3.109375,-6.328125 1.65625,-6.328125 0.875,-4.453125 0.875,-4.125 0.875,-4.078125 0.9375,-4 1.03125,-4 1.140625,-4 1.171875,-4.09375 1.203125,-4.140625 1.6875,-5.734375 2.65625,-6.03125 3.0625,-6.03125 c 0.65625,0 0.78125,0.59375 0.78125,0.9375 0,0.3125 -0.078125,0.640625 -0.265625,1.328125 l -0.484375,1.96875 c -0.203125,0.859375 -0.625,1.65625 -1.390625,1.65625 -0.0625,0 -0.421875,0 -0.734375,-0.1875 0.515625,-0.109375 0.640625,-0.53125 0.640625,-0.703125 0,-0.28125 -0.21875,-0.453125 -0.484375,-0.453125 -0.34375,0 -0.71875,0.296875 -0.71875,0.75 0,0.609375 0.671875,0.875 1.28125,0.875 0.6875,0 1.1875,-0.546875 1.484375,-1.125 0.234375,0.84375 0.9375,1.125 1.46875,1.125 1.46875,0 2.25,-1.875 2.25,-2.1875 0,-0.078125 -0.0625,-0.140625 -0.15625,-0.140625 -0.125,0 -0.140625,0.078125 -0.171875,0.1875 -0.390625,1.265625 -1.234375,1.859375 -1.875,1.859375 -0.5,0 -0.765625,-0.375 -0.765625,-0.96875 0,-0.3125 0.046875,-0.546875 0.28125,-1.484375 l 0.5,-1.953125 C 4.921875,-5.40625 5.40625,-6.03125 6.0625,-6.03125 c 0.03125,0 0.4375,0 0.734375,0.171875 z m 0,0"
             id="path78" />
        </g>
      </g>
      <g
         fill="#000000"
         fill-opacity="1"
         id="g44"
         transform="matrix(0.352778,0,0,0.352778,-0.20395,0.0778316)">
        <g
           id="use42"
           transform="translate(15.356,6.4200001)">
          <path
             d="m 1.265625,-0.765625 1.0625,-1.03125 c 1.546875,-1.375 2.140625,-1.90625 2.140625,-2.90625 0,-1.140625 -0.890625,-1.9375 -2.109375,-1.9375 -1.125,0 -1.859375,0.921875 -1.859375,1.8125 0,0.546875 0.5,0.546875 0.53125,0.546875 0.171875,0 0.515625,-0.109375 0.515625,-0.53125 0,-0.25 -0.1875,-0.515625 -0.53125,-0.515625 -0.078125,0 -0.09375,0 -0.125,0.015625 0.21875,-0.65625 0.765625,-1.015625 1.34375,-1.015625 0.90625,0 1.328125,0.8125 1.328125,1.625 C 3.5625,-3.90625 3.078125,-3.125 2.515625,-2.5 l -1.90625,2.125 C 0.5,-0.265625 0.5,-0.234375 0.5,0 H 4.203125 L 4.46875,-1.734375 H 4.234375 C 4.171875,-1.4375 4.109375,-1 4,-0.84375 3.9375,-0.765625 3.28125,-0.765625 3.0625,-0.765625 Z m 0,0"
             id="path82" />
        </g>
      </g>
      <g
         clip-path="url(#clipPath6808)"
         id="g50"
         transform="matrix(0.352778,0,0,0.352778,-0.20395,0.0778316)">
        <g
           fill="#000000"
           fill-opacity="1"
           id="g48">
          <g
             id="use46"
             transform="translate(24.024,11.626)">
            <path
               d="M 5.71875,-3.3125 H 9.6875 c 0.203125,0 0.453125,0 0.453125,-0.265625 0,-0.265625 -0.25,-0.265625 -0.453125,-0.265625 H 5.71875 v -3.953125 c 0,-0.203125 0,-0.46875 -0.25,-0.46875 -0.28125,0 -0.28125,0.25 -0.28125,0.46875 V -3.84375 H 1.234375 c -0.203125,0 -0.453125,0 -0.453125,0.265625 0,0.265625 0.234375,0.265625 0.453125,0.265625 H 5.1875 v 3.953125 c 0,0.203125 0,0.46875 0.265625,0.46875 0.265625,0 0.265625,-0.25 0.265625,-0.46875 z m 0,0"
               id="path86" />
          </g>
        </g>
      </g>
      <g
         fill="#000000"
         fill-opacity="1"
         id="g56"
         transform="matrix(0.352778,0,0,0.352778,-0.20395,0.0778316)">
        <g
           id="use52"
           transform="translate(38.137001,11.626)">
          <path
             d="m 3.3125,-9.59375 c 0.015625,-0.0625 0.046875,-0.140625 0.046875,-0.21875 0,-0.140625 -0.140625,-0.140625 -0.171875,-0.140625 -0.015625,0 -0.53125,0.046875 -0.796875,0.0625 -0.234375,0.015625 -0.453125,0.046875 -0.71875,0.0625 -0.34375,0.03125 -0.4375,0.046875 -0.4375,0.296875 0,0.15625 0.140625,0.15625 0.28125,0.15625 C 2.25,-9.375 2.25,-9.25 2.25,-9.109375 c 0,0.09375 -0.109375,0.515625 -0.171875,0.78125 l -0.34375,1.375 C 1.59375,-6.390625 0.78125,-3.125 0.71875,-2.875 c -0.078125,0.359375 -0.078125,0.609375 -0.078125,0.796875 0,1.46875 0.828125,2.21875 1.75,2.21875 1.671875,0 3.390625,-2.140625 3.390625,-4.21875 0,-1.3125 -0.75,-2.25 -1.828125,-2.25 -0.734375,0 -1.421875,0.625 -1.6875,0.90625 z m -0.90625,9.453125 c -0.453125,0 -0.953125,-0.34375 -0.953125,-1.46875 0,-0.46875 0.03125,-0.75 0.296875,-1.75 0.046875,-0.1875 0.265625,-1.09375 0.328125,-1.28125 0.03125,-0.125 0.875,-1.390625 1.859375,-1.390625 0.625,0 0.90625,0.625 0.90625,1.375 0,0.6875 -0.390625,2.296875 -0.75,3.046875 -0.359375,0.78125 -1.03125,1.46875 -1.6875,1.46875 z m 0,0"
             id="path90" />
        </g>
        <g
           id="use54"
           transform="translate(44.109322,11.626)">
          <path
             d="m 6.796875,-5.859375 c -0.453125,0.09375 -0.625,0.4375 -0.625,0.703125 0,0.34375 0.265625,0.46875 0.46875,0.46875 0.4375,0 0.734375,-0.375 0.734375,-0.765625 0,-0.59375 -0.6875,-0.875 -1.296875,-0.875 -0.875,0 -1.359375,0.859375 -1.484375,1.140625 C 4.265625,-6.265625 3.375,-6.328125 3.109375,-6.328125 1.65625,-6.328125 0.875,-4.453125 0.875,-4.125 0.875,-4.078125 0.9375,-4 1.03125,-4 1.140625,-4 1.171875,-4.09375 1.203125,-4.140625 1.6875,-5.734375 2.65625,-6.03125 3.0625,-6.03125 c 0.65625,0 0.78125,0.59375 0.78125,0.9375 0,0.3125 -0.078125,0.640625 -0.265625,1.328125 l -0.484375,1.96875 c -0.203125,0.859375 -0.625,1.65625 -1.390625,1.65625 -0.0625,0 -0.421875,0 -0.734375,-0.1875 0.515625,-0.109375 0.640625,-0.53125 0.640625,-0.703125 0,-0.28125 -0.21875,-0.453125 -0.484375,-0.453125 -0.34375,0 -0.71875,0.296875 -0.71875,0.75 0,0.609375 0.671875,0.875 1.28125,0.875 0.6875,0 1.1875,-0.546875 1.484375,-1.125 0.234375,0.84375 0.9375,1.125 1.46875,1.125 1.46875,0 2.25,-1.875 2.25,-2.1875 0,-0.078125 -0.0625,-0.140625 -0.15625,-0.140625 -0.125,0 -0.140625,0.078125 -0.171875,0.1875 -0.390625,1.265625 -1.234375,1.859375 -1.875,1.859375 -0.5,0 -0.765625,-0.375 -0.765625,-0.96875 0,-0.3125 0.046875,-0.546875 0.28125,-1.484375 l 0.5,-1.953125 C 4.921875,-5.40625 5.40625,-6.03125 6.0625,-6.03125 c 0.03125,0 0.4375,0 0.734375,0.171875 z m 0,0"
             id="path94" />
        </g>
      </g>
      <g
         clip-path="url(#clipPath3863)"
         id="g62"
         transform="matrix(0.352778,0,0,0.352778,-0.20395,0.0778316)">
        <g
           fill="#000000"
           fill-opacity="1"
           id="g60">
          <g
             id="use58"
             transform="translate(55.279999,11.626)">
            <path
               d="M 5.71875,-3.3125 H 9.6875 c 0.203125,0 0.453125,0 0.453125,-0.265625 0,-0.265625 -0.25,-0.265625 -0.453125,-0.265625 H 5.71875 v -3.953125 c 0,-0.203125 0,-0.46875 -0.25,-0.46875 -0.28125,0 -0.28125,0.25 -0.28125,0.46875 V -3.84375 H 1.234375 c -0.203125,0 -0.453125,0 -0.453125,0.265625 0,0.265625 0.234375,0.265625 0.453125,0.265625 H 5.1875 v 3.953125 c 0,0.203125 0,0.46875 0.265625,0.46875 0.265625,0 0.265625,-0.25 0.265625,-0.46875 z m 0,0"
               id="path98" />
          </g>
        </g>
      </g>
      <g
         clip-path="url(#clipPath4550)"
         id="g68"
         transform="matrix(0.352778,0,0,0.352778,-0.20395,0.0778316)">
        <g
           fill="#000000"
           fill-opacity="1"
           id="g66">
          <g
             id="use64"
             transform="translate(69.393997,11.626)">
            <path
               d="m 5.609375,-5.390625 c -0.28125,0 -0.40625,0 -0.609375,0.171875 -0.078125,0.0625 -0.234375,0.28125 -0.234375,0.515625 0,0.28125 0.21875,0.453125 0.484375,0.453125 0.34375,0 0.734375,-0.28125 0.734375,-0.859375 0,-0.6875 -0.65625,-1.21875 -1.65625,-1.21875 -1.875,0 -3.75,2.046875 -3.75,4.09375 0,1.25 0.765625,2.375 2.234375,2.375 C 4.765625,0.140625 6,-1.375 6,-1.5625 6,-1.65625 5.90625,-1.71875 5.859375,-1.71875 c -0.046875,0 -0.0625,0.015625 -0.1875,0.140625 -0.921875,1.21875 -2.28125,1.4375 -2.828125,1.4375 -1,0 -1.3125,-0.859375 -1.3125,-1.578125 0,-0.5 0.25,-1.890625 0.765625,-2.875 0.375,-0.671875 1.140625,-1.4375 2.046875,-1.4375 0.1875,0 0.984375,0.015625 1.265625,0.640625 z m 0,0"
               id="path102" />
          </g>
        </g>
      </g>
    </g>
    <g
       inkscape:label=""
       transform="matrix(0.8135841,0,0,0.8135841,35.04162,74.797189)"
       id="g19838">
      <g
         fill="#000000"
         fill-opacity="1"
         id="g49"
         transform="matrix(0.352778,0,0,0.352778,-0.20395,0.0778316)">
        <g
           id="use45"
           transform="translate(0,11.626)">
          <path
             d="M 4.3125,-1.703125 C 4.25,-1.46875 4.25,-1.4375 4.046875,-1.15625 c -0.3125,0.390625 -0.953125,1.015625 -1.625,1.015625 -0.578125,0 -0.921875,-0.53125 -0.921875,-1.375 0,-0.796875 0.453125,-2.40625 0.71875,-3 0.5,-1 1.171875,-1.515625 1.71875,-1.515625 0.953125,0 1.140625,1.171875 1.140625,1.28125 0,0.015625 -0.046875,0.203125 -0.0625,0.234375 z M 5.234375,-5.375 C 5.078125,-5.75 4.6875,-6.328125 3.9375,-6.328125 c -1.609375,0 -3.359375,2.09375 -3.359375,4.21875 0,1.421875 0.828125,2.25 1.796875,2.25 0.796875,0 1.46875,-0.609375 1.875,-1.09375 0.140625,0.859375 0.8125,1.09375 1.25,1.09375 0.421875,0 0.765625,-0.25 1.03125,-0.765625 C 6.75,-1.125 6.953125,-2 6.953125,-2.046875 6.953125,-2.125 6.90625,-2.1875 6.8125,-2.1875 c -0.125,0 -0.140625,0.078125 -0.203125,0.296875 -0.21875,0.84375 -0.484375,1.75 -1.078125,1.75 -0.40625,0 -0.4375,-0.375 -0.4375,-0.65625 0,-0.34375 0.046875,-0.5 0.171875,-1.046875 0.09375,-0.359375 0.171875,-0.6875 0.28125,-1.09375 0.53125,-2.15625 0.65625,-2.671875 0.65625,-2.75 0,-0.203125 -0.15625,-0.359375 -0.359375,-0.359375 -0.46875,0 -0.578125,0.5 -0.609375,0.671875 z m 0,0"
             id="path99" />
        </g>
        <g
           id="use47"
           transform="translate(7.3739471,11.626)">
          <path
             d="m 6.796875,-5.859375 c -0.453125,0.09375 -0.625,0.4375 -0.625,0.703125 0,0.34375 0.265625,0.46875 0.46875,0.46875 0.4375,0 0.734375,-0.375 0.734375,-0.765625 0,-0.59375 -0.6875,-0.875 -1.296875,-0.875 -0.875,0 -1.359375,0.859375 -1.484375,1.140625 C 4.265625,-6.265625 3.375,-6.328125 3.109375,-6.328125 1.65625,-6.328125 0.875,-4.453125 0.875,-4.125 0.875,-4.078125 0.9375,-4 1.03125,-4 1.140625,-4 1.171875,-4.09375 1.203125,-4.140625 1.6875,-5.734375 2.65625,-6.03125 3.0625,-6.03125 c 0.65625,0 0.78125,0.59375 0.78125,0.9375 0,0.3125 -0.078125,0.640625 -0.265625,1.328125 l -0.484375,1.96875 c -0.203125,0.859375 -0.625,1.65625 -1.390625,1.65625 -0.0625,0 -0.421875,0 -0.734375,-0.1875 0.515625,-0.109375 0.640625,-0.53125 0.640625,-0.703125 0,-0.28125 -0.21875,-0.453125 -0.484375,-0.453125 -0.34375,0 -0.71875,0.296875 -0.71875,0.75 0,0.609375 0.671875,0.875 1.28125,0.875 0.6875,0 1.1875,-0.546875 1.484375,-1.125 0.234375,0.84375 0.9375,1.125 1.46875,1.125 1.46875,0 2.25,-1.875 2.25,-2.1875 0,-0.078125 -0.0625,-0.140625 -0.15625,-0.140625 -0.125,0 -0.140625,0.078125 -0.171875,0.1875 -0.390625,1.265625 -1.234375,1.859375 -1.875,1.859375 -0.5,0 -0.765625,-0.375 -0.765625,-0.96875 0,-0.3125 0.046875,-0.546875 0.28125,-1.484375 l 0.5,-1.953125 C 4.921875,-5.40625 5.40625,-6.03125 6.0625,-6.03125 c 0.03125,0 0.4375,0 0.734375,0.171875 z m 0,0"
             id="path103" />
        </g>
      </g>
      <g
         fill="#000000"
         fill-opacity="1"
         id="g53"
         transform="matrix(0.352778,0,0,0.352778,-0.20395,0.0778316)">
        <g
           id="use51"
           transform="translate(15.356,6.4200001)">
          <path
             d="m 2.890625,-3.515625 c 0.8125,-0.265625 1.390625,-0.953125 1.390625,-1.75 0,-0.8125 -0.875,-1.375 -1.828125,-1.375 -1,0 -1.765625,0.59375 -1.765625,1.359375 0,0.328125 0.21875,0.515625 0.515625,0.515625 0.296875,0 0.5,-0.21875 0.5,-0.515625 0,-0.484375 -0.46875,-0.484375 -0.609375,-0.484375 0.296875,-0.5 0.953125,-0.625 1.3125,-0.625 0.421875,0 0.96875,0.21875 0.96875,1.109375 0,0.125 -0.03125,0.703125 -0.28125,1.140625 C 2.796875,-3.65625 2.453125,-3.625 2.203125,-3.625 2.125,-3.609375 1.890625,-3.59375 1.8125,-3.59375 c -0.078125,0.015625 -0.140625,0.03125 -0.140625,0.125 0,0.109375 0.0625,0.109375 0.234375,0.109375 h 0.4375 c 0.8125,0 1.1875,0.671875 1.1875,1.65625 0,1.359375 -0.6875,1.640625 -1.125,1.640625 -0.4375,0 -1.1875,-0.171875 -1.53125,-0.75 0.34375,0.046875 0.65625,-0.171875 0.65625,-0.546875 0,-0.359375 -0.265625,-0.5625 -0.546875,-0.5625 -0.25,0 -0.5625,0.140625 -0.5625,0.578125 0,0.90625 0.921875,1.5625 2.015625,1.5625 1.21875,0 2.125,-0.90625 2.125,-1.921875 0,-0.8125 -0.640625,-1.59375 -1.671875,-1.8125 z m 0,0"
             id="path107" />
        </g>
      </g>
      <g
         clip-path="url(#clipPath102)"
         id="g59"
         transform="matrix(0.352778,0,0,0.352778,-0.20395,0.0778316)">
        <g
           fill="#000000"
           fill-opacity="1"
           id="g57">
          <g
             id="use55"
             transform="translate(24.024,11.626)">
            <path
               d="M 5.71875,-3.3125 H 9.6875 c 0.203125,0 0.453125,0 0.453125,-0.265625 0,-0.265625 -0.25,-0.265625 -0.453125,-0.265625 H 5.71875 v -3.953125 c 0,-0.203125 0,-0.46875 -0.25,-0.46875 -0.28125,0 -0.28125,0.25 -0.28125,0.46875 V -3.84375 H 1.234375 c -0.203125,0 -0.453125,0 -0.453125,0.265625 0,0.265625 0.234375,0.265625 0.453125,0.265625 H 5.1875 v 3.953125 c 0,0.203125 0,0.46875 0.265625,0.46875 0.265625,0 0.265625,-0.25 0.265625,-0.46875 z m 0,0"
               id="path111" />
          </g>
        </g>
      </g>
      <g
         fill="#000000"
         fill-opacity="1"
         id="g65"
         transform="matrix(0.352778,0,0,0.352778,-0.20395,0.0778316)">
        <g
           id="use61"
           transform="translate(38.137001,11.626)">
          <path
             d="m 3.3125,-9.59375 c 0.015625,-0.0625 0.046875,-0.140625 0.046875,-0.21875 0,-0.140625 -0.140625,-0.140625 -0.171875,-0.140625 -0.015625,0 -0.53125,0.046875 -0.796875,0.0625 -0.234375,0.015625 -0.453125,0.046875 -0.71875,0.0625 -0.34375,0.03125 -0.4375,0.046875 -0.4375,0.296875 0,0.15625 0.140625,0.15625 0.28125,0.15625 C 2.25,-9.375 2.25,-9.25 2.25,-9.109375 c 0,0.09375 -0.109375,0.515625 -0.171875,0.78125 l -0.34375,1.375 C 1.59375,-6.390625 0.78125,-3.125 0.71875,-2.875 c -0.078125,0.359375 -0.078125,0.609375 -0.078125,0.796875 0,1.46875 0.828125,2.21875 1.75,2.21875 1.671875,0 3.390625,-2.140625 3.390625,-4.21875 0,-1.3125 -0.75,-2.25 -1.828125,-2.25 -0.734375,0 -1.421875,0.625 -1.6875,0.90625 z m -0.90625,9.453125 c -0.453125,0 -0.953125,-0.34375 -0.953125,-1.46875 0,-0.46875 0.03125,-0.75 0.296875,-1.75 0.046875,-0.1875 0.265625,-1.09375 0.328125,-1.28125 0.03125,-0.125 0.875,-1.390625 1.859375,-1.390625 0.625,0 0.90625,0.625 0.90625,1.375 0,0.6875 -0.390625,2.296875 -0.75,3.046875 -0.359375,0.78125 -1.03125,1.46875 -1.6875,1.46875 z m 0,0"
             id="path115" />
        </g>
        <g
           id="use63"
           transform="translate(44.109322,11.626)">
          <path
             d="m 6.796875,-5.859375 c -0.453125,0.09375 -0.625,0.4375 -0.625,0.703125 0,0.34375 0.265625,0.46875 0.46875,0.46875 0.4375,0 0.734375,-0.375 0.734375,-0.765625 0,-0.59375 -0.6875,-0.875 -1.296875,-0.875 -0.875,0 -1.359375,0.859375 -1.484375,1.140625 C 4.265625,-6.265625 3.375,-6.328125 3.109375,-6.328125 1.65625,-6.328125 0.875,-4.453125 0.875,-4.125 0.875,-4.078125 0.9375,-4 1.03125,-4 1.140625,-4 1.171875,-4.09375 1.203125,-4.140625 1.6875,-5.734375 2.65625,-6.03125 3.0625,-6.03125 c 0.65625,0 0.78125,0.59375 0.78125,0.9375 0,0.3125 -0.078125,0.640625 -0.265625,1.328125 l -0.484375,1.96875 c -0.203125,0.859375 -0.625,1.65625 -1.390625,1.65625 -0.0625,0 -0.421875,0 -0.734375,-0.1875 0.515625,-0.109375 0.640625,-0.53125 0.640625,-0.703125 0,-0.28125 -0.21875,-0.453125 -0.484375,-0.453125 -0.34375,0 -0.71875,0.296875 -0.71875,0.75 0,0.609375 0.671875,0.875 1.28125,0.875 0.6875,0 1.1875,-0.546875 1.484375,-1.125 0.234375,0.84375 0.9375,1.125 1.46875,1.125 1.46875,0 2.25,-1.875 2.25,-2.1875 0,-0.078125 -0.0625,-0.140625 -0.15625,-0.140625 -0.125,0 -0.140625,0.078125 -0.171875,0.1875 -0.390625,1.265625 -1.234375,1.859375 -1.875,1.859375 -0.5,0 -0.765625,-0.375 -0.765625,-0.96875 0,-0.3125 0.046875,-0.546875 0.28125,-1.484375 l 0.5,-1.953125 C 4.921875,-5.40625 5.40625,-6.03125 6.0625,-6.03125 c 0.03125,0 0.4375,0 0.734375,0.171875 z m 0,0"
             id="path119" />
        </g>
      </g>
      <g
         fill="#000000"
         fill-opacity="1"
         id="g69"
         transform="matrix(0.352778,0,0,0.352778,-0.20395,0.0778316)">
        <g
           id="use67"
           transform="translate(52.091999,6.4200001)">
          <path
             d="m 1.265625,-0.765625 1.0625,-1.03125 c 1.546875,-1.375 2.140625,-1.90625 2.140625,-2.90625 0,-1.140625 -0.890625,-1.9375 -2.109375,-1.9375 -1.125,0 -1.859375,0.921875 -1.859375,1.8125 0,0.546875 0.5,0.546875 0.53125,0.546875 0.171875,0 0.515625,-0.109375 0.515625,-0.53125 0,-0.25 -0.1875,-0.515625 -0.53125,-0.515625 -0.078125,0 -0.09375,0 -0.125,0.015625 0.21875,-0.65625 0.765625,-1.015625 1.34375,-1.015625 0.90625,0 1.328125,0.8125 1.328125,1.625 C 3.5625,-3.90625 3.078125,-3.125 2.515625,-2.5 l -1.90625,2.125 C 0.5,-0.265625 0.5,-0.234375 0.5,0 H 4.203125 L 4.46875,-1.734375 H 4.234375 C 4.171875,-1.4375 4.109375,-1 4,-0.84375 3.9375,-0.765625 3.28125,-0.765625 3.0625,-0.765625 Z m 0,0"
             id="path123" />
        </g>
      </g>
      <g
         clip-path="url(#clipPath5332)"
         id="g75"
         transform="matrix(0.352778,0,0,0.352778,-0.20395,0.0778316)">
        <g
           fill="#000000"
           fill-opacity="1"
           id="g73">
          <g
             id="use71"
             transform="translate(60.759998,11.626)">
            <path
               d="M 5.71875,-3.3125 H 9.6875 c 0.203125,0 0.453125,0 0.453125,-0.265625 0,-0.265625 -0.25,-0.265625 -0.453125,-0.265625 H 5.71875 v -3.953125 c 0,-0.203125 0,-0.46875 -0.25,-0.46875 -0.28125,0 -0.28125,0.25 -0.28125,0.46875 V -3.84375 H 1.234375 c -0.203125,0 -0.453125,0 -0.453125,0.265625 0,0.265625 0.234375,0.265625 0.453125,0.265625 H 5.1875 v 3.953125 c 0,0.203125 0,0.46875 0.265625,0.46875 0.265625,0 0.265625,-0.25 0.265625,-0.46875 z m 0,0"
               id="path127" />
          </g>
        </g>
      </g>
      <g
         fill="#000000"
         fill-opacity="1"
         id="g81"
         transform="matrix(0.352778,0,0,0.352778,-0.20395,0.0778316)">
        <g
           id="use77"
           transform="translate(74.873001,11.626)">
          <path
             d="m 5.609375,-5.390625 c -0.28125,0 -0.40625,0 -0.609375,0.171875 -0.078125,0.0625 -0.234375,0.28125 -0.234375,0.515625 0,0.28125 0.21875,0.453125 0.484375,0.453125 0.34375,0 0.734375,-0.28125 0.734375,-0.859375 0,-0.6875 -0.65625,-1.21875 -1.65625,-1.21875 -1.875,0 -3.75,2.046875 -3.75,4.09375 0,1.25 0.765625,2.375 2.234375,2.375 C 4.765625,0.140625 6,-1.375 6,-1.5625 6,-1.65625 5.90625,-1.71875 5.859375,-1.71875 c -0.046875,0 -0.0625,0.015625 -0.1875,0.140625 -0.921875,1.21875 -2.28125,1.4375 -2.828125,1.4375 -1,0 -1.3125,-0.859375 -1.3125,-1.578125 0,-0.5 0.25,-1.890625 0.765625,-2.875 0.375,-0.671875 1.140625,-1.4375 2.046875,-1.4375 0.1875,0 0.984375,0.015625 1.265625,0.640625 z m 0,0"
             id="path131" />
        </g>
        <g
           id="use79"
           transform="translate(80.918488,11.626)">
          <path
             d="m 6.796875,-5.859375 c -0.453125,0.09375 -0.625,0.4375 -0.625,0.703125 0,0.34375 0.265625,0.46875 0.46875,0.46875 0.4375,0 0.734375,-0.375 0.734375,-0.765625 0,-0.59375 -0.6875,-0.875 -1.296875,-0.875 -0.875,0 -1.359375,0.859375 -1.484375,1.140625 C 4.265625,-6.265625 3.375,-6.328125 3.109375,-6.328125 1.65625,-6.328125 0.875,-4.453125 0.875,-4.125 0.875,-4.078125 0.9375,-4 1.03125,-4 1.140625,-4 1.171875,-4.09375 1.203125,-4.140625 1.6875,-5.734375 2.65625,-6.03125 3.0625,-6.03125 c 0.65625,0 0.78125,0.59375 0.78125,0.9375 0,0.3125 -0.078125,0.640625 -0.265625,1.328125 l -0.484375,1.96875 c -0.203125,0.859375 -0.625,1.65625 -1.390625,1.65625 -0.0625,0 -0.421875,0 -0.734375,-0.1875 0.515625,-0.109375 0.640625,-0.53125 0.640625,-0.703125 0,-0.28125 -0.21875,-0.453125 -0.484375,-0.453125 -0.34375,0 -0.71875,0.296875 -0.71875,0.75 0,0.609375 0.671875,0.875 1.28125,0.875 0.6875,0 1.1875,-0.546875 1.484375,-1.125 0.234375,0.84375 0.9375,1.125 1.46875,1.125 1.46875,0 2.25,-1.875 2.25,-2.1875 0,-0.078125 -0.0625,-0.140625 -0.15625,-0.140625 -0.125,0 -0.140625,0.078125 -0.171875,0.1875 -0.390625,1.265625 -1.234375,1.859375 -1.875,1.859375 -0.5,0 -0.765625,-0.375 -0.765625,-0.96875 0,-0.3125 0.046875,-0.546875 0.28125,-1.484375 l 0.5,-1.953125 C 4.921875,-5.40625 5.40625,-6.03125 6.0625,-6.03125 c 0.03125,0 0.4375,0 0.734375,0.171875 z m 0,0"
             id="path19826" />
        </g>
      </g>
      <g
         clip-path="url(#clipPath9244)"
         id="g87"
         transform="matrix(0.352778,0,0,0.352778,-0.20395,0.0778316)">
        <g
           fill="#000000"
           fill-opacity="1"
           id="g85">
          <g
             id="use83"
             transform="translate(92.089996,11.626)">
            <path
               d="M 5.71875,-3.3125 H 9.6875 c 0.203125,0 0.453125,0 0.453125,-0.265625 0,-0.265625 -0.25,-0.265625 -0.453125,-0.265625 H 5.71875 v -3.953125 c 0,-0.203125 0,-0.46875 -0.25,-0.46875 -0.28125,0 -0.28125,0.25 -0.28125,0.46875 V -3.84375 H 1.234375 c -0.203125,0 -0.453125,0 -0.453125,0.265625 0,0.265625 0.234375,0.265625 0.453125,0.265625 H 5.1875 v 3.953125 c 0,0.203125 0,0.46875 0.265625,0.46875 0.265625,0 0.265625,-0.25 0.265625,-0.46875 z m 0,0"
               id="path139" />
          </g>
        </g>
      </g>
      <g
         clip-path="url(#clipPath7993)"
         id="g93"
         transform="matrix(0.352778,0,0,0.352778,-0.20395,0.0778316)">
        <g
           fill="#000000"
           fill-opacity="1"
           id="g91">
          <g
             id="use89"
             transform="translate(106.203,11.626)">
            <path
               d="m 7.21875,-9.59375 c 0.015625,-0.0625 0.046875,-0.140625 0.046875,-0.21875 0,-0.140625 -0.15625,-0.140625 -0.1875,-0.140625 0,0 -0.703125,0.0625 -0.78125,0.0625 -0.25,0.015625 -0.453125,0.046875 -0.71875,0.0625 C 5.21875,-9.796875 5.125,-9.78125 5.125,-9.53125 c 0,0.15625 0.109375,0.15625 0.3125,0.15625 0.703125,0 0.71875,0.125 0.71875,0.265625 0,0.09375 -0.03125,0.203125 -0.046875,0.25 L 5.234375,-5.375 C 5.078125,-5.75 4.6875,-6.328125 3.9375,-6.328125 c -1.609375,0 -3.359375,2.09375 -3.359375,4.21875 0,1.421875 0.828125,2.25 1.796875,2.25 0.796875,0 1.46875,-0.609375 1.875,-1.09375 0.140625,0.859375 0.8125,1.09375 1.25,1.09375 0.421875,0 0.765625,-0.25 1.03125,-0.765625 C 6.75,-1.125 6.953125,-2 6.953125,-2.046875 6.953125,-2.125 6.90625,-2.1875 6.8125,-2.1875 c -0.125,0 -0.140625,0.078125 -0.203125,0.296875 -0.21875,0.84375 -0.484375,1.75 -1.078125,1.75 -0.40625,0 -0.4375,-0.375 -0.4375,-0.65625 0,-0.0625 0,-0.359375 0.09375,-0.765625 z M 4.3125,-1.703125 C 4.25,-1.46875 4.25,-1.4375 4.046875,-1.15625 c -0.3125,0.390625 -0.953125,1.015625 -1.625,1.015625 -0.578125,0 -0.921875,-0.53125 -0.921875,-1.375 0,-0.796875 0.453125,-2.40625 0.71875,-3 0.5,-1 1.171875,-1.515625 1.71875,-1.515625 0.953125,0 1.140625,1.171875 1.140625,1.28125 0,0.015625 -0.046875,0.203125 -0.0625,0.234375 z m 0,0"
               id="path143" />
          </g>
        </g>
      </g>
    </g>
    <g
       inkscape:label=""
       transform="matrix(0.94631172,0,0,0.94631172,59.527511,23.415856)"
       id="g21920">
      <g
         fill="#000000"
         fill-opacity="1"
         id="g54"
         transform="matrix(0.352778,0,0,0.352778,-0.259071,0.0778316)">
        <g
           id="g21829"
           transform="translate(0,11.626)">
          <path
             d="m 6.390625,-5.765625 c 0.296875,0 0.40625,0 0.40625,-0.265625 0,-0.15625 -0.109375,-0.15625 -0.375,-0.15625 h -1.15625 c 0.265625,-1.46875 0.46875,-2.484375 0.59375,-2.953125 0.078125,-0.34375 0.375,-0.671875 0.75,-0.671875 0.296875,0 0.609375,0.125 0.75,0.265625 C 6.796875,-9.5 6.625,-9.078125 6.625,-8.828125 c 0,0.28125 0.21875,0.453125 0.484375,0.453125 0.296875,0 0.71875,-0.25 0.71875,-0.796875 0,-0.59375 -0.59375,-0.921875 -1.234375,-0.921875 -0.609375,0 -1.21875,0.453125 -1.5,1.015625 -0.265625,0.5 -0.40625,1.015625 -0.734375,2.890625 H 3.40625 c -0.28125,0 -0.421875,0 -0.421875,0.265625 0,0.15625 0.078125,0.15625 0.375,0.15625 H 4.28125 C 4.015625,-4.4375 3.421875,-1.1875 3.09375,0.34375 c -0.234375,1.25 -0.453125,2.296875 -1.171875,2.296875 -0.046875,0 -0.453125,0 -0.71875,-0.28125 C 1.9375,2.3125 1.9375,1.671875 1.9375,1.65625 1.9375,1.375 1.71875,1.203125 1.453125,1.203125 c -0.296875,0 -0.71875,0.25 -0.71875,0.796875 0,0.609375 0.625,0.921875 1.1875,0.921875 1.46875,0 2.0625,-2.625 2.21875,-3.34375 0.265625,-1.09375 0.96875,-4.90625 1.03125,-5.34375 z m 0,0"
             id="path176" />
        </g>
      </g>
      <g
         clip-path="url(#clipPath9821)"
         id="g21835"
         transform="matrix(0.352778,0,0,0.352778,-0.259071,0.0778316)">
        <g
           fill="#000000"
           fill-opacity="1"
           id="g58">
          <g
             id="use56"
             transform="translate(8.4560003,11.626)">
            <path
               d="m 4.65625,3.484375 c 0,-0.046875 0,-0.078125 -0.234375,-0.3125 -1.4375,-1.453125 -2.234375,-3.8125 -2.234375,-6.75 0,-2.78125 0.671875,-5.171875 2.328125,-6.859375 0.140625,-0.140625 0.140625,-0.15625 0.140625,-0.203125 0,-0.09375 -0.0625,-0.109375 -0.125,-0.109375 -0.1875,0 -1.359375,1.03125 -2.0625,2.4375 -0.734375,1.4375 -1.0625,2.984375 -1.0625,4.734375 0,1.28125 0.203125,2.984375 0.953125,4.53125 0.84375,1.71875 2.015625,2.640625 2.171875,2.640625 0.0625,0 0.125,-0.015625 0.125,-0.109375 z m 0,0"
               id="path180" />
          </g>
        </g>
      </g>
      <g
         fill="#000000"
         fill-opacity="1"
         id="g64"
         transform="matrix(0.352778,0,0,0.352778,-0.259071,0.0778316)">
        <g
           id="use62"
           transform="translate(13.918,11.626)">
          <path
             d="m 6.796875,-5.859375 c -0.453125,0.09375 -0.625,0.4375 -0.625,0.703125 0,0.34375 0.265625,0.46875 0.46875,0.46875 0.4375,0 0.734375,-0.375 0.734375,-0.765625 0,-0.59375 -0.6875,-0.875 -1.296875,-0.875 -0.875,0 -1.359375,0.859375 -1.484375,1.140625 C 4.265625,-6.265625 3.375,-6.328125 3.109375,-6.328125 1.65625,-6.328125 0.875,-4.453125 0.875,-4.125 0.875,-4.078125 0.9375,-4 1.03125,-4 1.140625,-4 1.171875,-4.09375 1.203125,-4.140625 1.6875,-5.734375 2.65625,-6.03125 3.0625,-6.03125 c 0.65625,0 0.78125,0.59375 0.78125,0.9375 0,0.3125 -0.078125,0.640625 -0.265625,1.328125 l -0.484375,1.96875 c -0.203125,0.859375 -0.625,1.65625 -1.390625,1.65625 -0.0625,0 -0.421875,0 -0.734375,-0.1875 0.515625,-0.109375 0.640625,-0.53125 0.640625,-0.703125 0,-0.28125 -0.21875,-0.453125 -0.484375,-0.453125 -0.34375,0 -0.71875,0.296875 -0.71875,0.75 0,0.609375 0.671875,0.875 1.28125,0.875 0.6875,0 1.1875,-0.546875 1.484375,-1.125 0.234375,0.84375 0.9375,1.125 1.46875,1.125 1.46875,0 2.25,-1.875 2.25,-2.1875 0,-0.078125 -0.0625,-0.140625 -0.15625,-0.140625 -0.125,0 -0.140625,0.078125 -0.171875,0.1875 -0.390625,1.265625 -1.234375,1.859375 -1.875,1.859375 -0.5,0 -0.765625,-0.375 -0.765625,-0.96875 0,-0.3125 0.046875,-0.546875 0.28125,-1.484375 l 0.5,-1.953125 C 4.921875,-5.40625 5.40625,-6.03125 6.0625,-6.03125 c 0.03125,0 0.4375,0 0.734375,0.171875 z m 0,0"
             id="path184" />
        </g>
      </g>
      <g
         clip-path="url(#clipPath9227)"
         id="g70"
         transform="matrix(0.352778,0,0,0.352778,-0.259071,0.0778316)">
        <g
           fill="#000000"
           fill-opacity="1"
           id="g21842">
          <g
             id="use66"
             transform="translate(21.900999,11.626)">
            <path
               d="M 4.046875,-3.578125 C 4.046875,-4.65625 3.90625,-6.4375 3.09375,-8.109375 2.25,-9.828125 1.078125,-10.75 0.921875,-10.75 c -0.0625,0 -0.140625,0.01563 -0.140625,0.109375 0,0.04687 0,0.0625 0.25,0.3125 1.4375,1.453125 2.234375,3.8125 2.234375,6.75 0,2.78125 -0.671875,5.171875 -2.328125,6.859375 -0.15625,0.125 -0.15625,0.15625 -0.15625,0.203125 0,0.09375 0.078125,0.109375 0.140625,0.109375 0.1875,0 1.359375,-1.03125 2.0625,-2.4375 0.734375,-1.453125 1.0625,-3 1.0625,-4.734375 z m 0,0"
               id="path188" />
          </g>
        </g>
      </g>
      <g
         fill="#000000"
         fill-opacity="1"
         id="g74"
         transform="matrix(0.352778,0,0,0.352778,-0.259071,0.0778316)">
        <g
           id="use72"
           transform="translate(31.352278,11.626)">
          <path
             d="m 9.6875,-4.640625 c 0.203125,0 0.453125,0 0.453125,-0.265625 0,-0.265625 -0.25,-0.265625 -0.453125,-0.265625 H 1.234375 c -0.203125,0 -0.453125,0 -0.453125,0.25 0,0.28125 0.234375,0.28125 0.453125,0.28125 z m 0,2.65625 c 0.203125,0 0.453125,0 0.453125,-0.25 0,-0.28125 -0.25,-0.28125 -0.453125,-0.28125 H 1.234375 c -0.203125,0 -0.453125,0 -0.453125,0.265625 0,0.265625 0.234375,0.265625 0.453125,0.265625 z m 0,0"
             id="path192" />
        </g>
      </g>
      <g
         fill="#000000"
         fill-opacity="1"
         id="g78"
         transform="matrix(0.352778,0,0,0.352778,-0.259071,0.0778316)">
        <g
           id="use76"
           transform="translate(46.258999,11.626)">
          <path
             d="M 4.3125,-1.703125 C 4.25,-1.46875 4.25,-1.4375 4.046875,-1.15625 c -0.3125,0.390625 -0.953125,1.015625 -1.625,1.015625 -0.578125,0 -0.921875,-0.53125 -0.921875,-1.375 0,-0.796875 0.453125,-2.40625 0.71875,-3 0.5,-1 1.171875,-1.515625 1.71875,-1.515625 0.953125,0 1.140625,1.171875 1.140625,1.28125 0,0.015625 -0.046875,0.203125 -0.0625,0.234375 z M 5.234375,-5.375 C 5.078125,-5.75 4.6875,-6.328125 3.9375,-6.328125 c -1.609375,0 -3.359375,2.09375 -3.359375,4.21875 0,1.421875 0.828125,2.25 1.796875,2.25 0.796875,0 1.46875,-0.609375 1.875,-1.09375 0.140625,0.859375 0.8125,1.09375 1.25,1.09375 0.421875,0 0.765625,-0.25 1.03125,-0.765625 C 6.75,-1.125 6.953125,-2 6.953125,-2.046875 6.953125,-2.125 6.90625,-2.1875 6.8125,-2.1875 c -0.125,0 -0.140625,0.078125 -0.203125,0.296875 -0.21875,0.84375 -0.484375,1.75 -1.078125,1.75 -0.40625,0 -0.4375,-0.375 -0.4375,-0.65625 0,-0.34375 0.046875,-0.5 0.171875,-1.046875 0.09375,-0.359375 0.171875,-0.6875 0.28125,-1.09375 0.53125,-2.15625 0.65625,-2.671875 0.65625,-2.75 0,-0.203125 -0.15625,-0.359375 -0.359375,-0.359375 -0.46875,0 -0.578125,0.5 -0.609375,0.671875 z m 0,0"
             id="path196" />
        </g>
      </g>
      <g
         fill="#000000"
         fill-opacity="1"
         id="g82"
         transform="matrix(0.352778,0,0,0.352778,-0.259071,0.0778316)">
        <g
           id="use80"
           transform="translate(53.632999,13.778)">
          <path
             d="m 4.578125,-3.1875 c 0,-0.796875 -0.046875,-1.59375 -0.390625,-2.328125 -0.453125,-0.96875 -1.28125,-1.125 -1.6875,-1.125 -0.609375,0 -1.328125,0.265625 -1.75,1.1875 -0.3125,0.6875 -0.359375,1.46875 -0.359375,2.265625 0,0.75 0.03125,1.640625 0.453125,2.40625 0.421875,0.796875 1.15625,1 1.640625,1 0.53125,0 1.296875,-0.203125 1.734375,-1.15625 0.3125,-0.6875 0.359375,-1.46875 0.359375,-2.25 z M 2.484375,0 C 2.09375,0 1.5,-0.25 1.328125,-1.203125 1.21875,-1.796875 1.21875,-2.71875 1.21875,-3.3125 c 0,-0.640625 0,-1.296875 0.078125,-1.828125 0.1875,-1.1875 0.9375,-1.28125 1.1875,-1.28125 0.328125,0 0.984375,0.1875 1.171875,1.171875 0.109375,0.5625 0.109375,1.3125 0.109375,1.9375 0,0.75 0,1.421875 -0.109375,2.0625 C 3.5,-0.296875 2.9375,0 2.484375,0 Z m 0,0"
             id="path200" />
        </g>
      </g>
      <g
         fill="#000000"
         fill-opacity="1"
         id="g86"
         transform="matrix(0.352778,0,0,0.352778,-0.259071,0.0778316)">
        <g
           id="use84"
           transform="translate(62.300999,11.626)">
          <path
             d="M 5.71875,-3.3125 H 9.6875 c 0.203125,0 0.453125,0 0.453125,-0.265625 0,-0.265625 -0.25,-0.265625 -0.453125,-0.265625 H 5.71875 v -3.953125 c 0,-0.203125 0,-0.46875 -0.25,-0.46875 -0.28125,0 -0.28125,0.25 -0.28125,0.46875 V -3.84375 H 1.234375 c -0.203125,0 -0.453125,0 -0.453125,0.265625 0,0.265625 0.234375,0.265625 0.453125,0.265625 H 5.1875 v 3.953125 c 0,0.203125 0,0.46875 0.265625,0.46875 0.265625,0 0.265625,-0.25 0.265625,-0.46875 z m 0,0"
             id="path204" />
        </g>
      </g>
      <g
         fill="#000000"
         fill-opacity="1"
         id="g90"
         transform="matrix(0.352778,0,0,0.352778,-0.259071,0.0778316)">
        <g
           id="use88"
           transform="translate(76.414001,11.626)">
          <path
             d="M 4.3125,-1.703125 C 4.25,-1.46875 4.25,-1.4375 4.046875,-1.15625 c -0.3125,0.390625 -0.953125,1.015625 -1.625,1.015625 -0.578125,0 -0.921875,-0.53125 -0.921875,-1.375 0,-0.796875 0.453125,-2.40625 0.71875,-3 0.5,-1 1.171875,-1.515625 1.71875,-1.515625 0.953125,0 1.140625,1.171875 1.140625,1.28125 0,0.015625 -0.046875,0.203125 -0.0625,0.234375 z M 5.234375,-5.375 C 5.078125,-5.75 4.6875,-6.328125 3.9375,-6.328125 c -1.609375,0 -3.359375,2.09375 -3.359375,4.21875 0,1.421875 0.828125,2.25 1.796875,2.25 0.796875,0 1.46875,-0.609375 1.875,-1.09375 0.140625,0.859375 0.8125,1.09375 1.25,1.09375 0.421875,0 0.765625,-0.25 1.03125,-0.765625 C 6.75,-1.125 6.953125,-2 6.953125,-2.046875 6.953125,-2.125 6.90625,-2.1875 6.8125,-2.1875 c -0.125,0 -0.140625,0.078125 -0.203125,0.296875 -0.21875,0.84375 -0.484375,1.75 -1.078125,1.75 -0.40625,0 -0.4375,-0.375 -0.4375,-0.65625 0,-0.34375 0.046875,-0.5 0.171875,-1.046875 0.09375,-0.359375 0.171875,-0.6875 0.28125,-1.09375 0.53125,-2.15625 0.65625,-2.671875 0.65625,-2.75 0,-0.203125 -0.15625,-0.359375 -0.359375,-0.359375 -0.46875,0 -0.578125,0.5 -0.609375,0.671875 z m 0,0"
             id="path208" />
        </g>
      </g>
      <g
         fill="#000000"
         fill-opacity="1"
         id="g94"
         transform="matrix(0.352778,0,0,0.352778,-0.259071,0.0778316)">
        <g
           id="use92"
           transform="translate(83.788002,13.778)">
          <path
             d="m 2.9375,-6.375 c 0,-0.25 0,-0.265625 -0.234375,-0.265625 C 2.078125,-6 1.203125,-6 0.890625,-6 v 0.3125 c 0.203125,0 0.78125,0 1.296875,-0.265625 v 5.171875 c 0,0.359375 -0.03125,0.46875 -0.921875,0.46875 h -0.3125 V 0 c 0.34375,-0.03125 1.203125,-0.03125 1.609375,-0.03125 0.390625,0 1.265625,0 1.609375,0.03125 v -0.3125 h -0.3125 c -0.90625,0 -0.921875,-0.109375 -0.921875,-0.46875 z m 0,0"
             id="path212" />
        </g>
      </g>
      <g
         fill="#000000"
         fill-opacity="1"
         id="g98"
         transform="matrix(0.352778,0,0,0.352778,-0.259071,0.0778316)">
        <g
           id="use96"
           transform="translate(89.267998,11.626)">
          <path
             d="m 6.796875,-5.859375 c -0.453125,0.09375 -0.625,0.4375 -0.625,0.703125 0,0.34375 0.265625,0.46875 0.46875,0.46875 0.4375,0 0.734375,-0.375 0.734375,-0.765625 0,-0.59375 -0.6875,-0.875 -1.296875,-0.875 -0.875,0 -1.359375,0.859375 -1.484375,1.140625 C 4.265625,-6.265625 3.375,-6.328125 3.109375,-6.328125 1.65625,-6.328125 0.875,-4.453125 0.875,-4.125 0.875,-4.078125 0.9375,-4 1.03125,-4 1.140625,-4 1.171875,-4.09375 1.203125,-4.140625 1.6875,-5.734375 2.65625,-6.03125 3.0625,-6.03125 c 0.65625,0 0.78125,0.59375 0.78125,0.9375 0,0.3125 -0.078125,0.640625 -0.265625,1.328125 l -0.484375,1.96875 c -0.203125,0.859375 -0.625,1.65625 -1.390625,1.65625 -0.0625,0 -0.421875,0 -0.734375,-0.1875 0.515625,-0.109375 0.640625,-0.53125 0.640625,-0.703125 0,-0.28125 -0.21875,-0.453125 -0.484375,-0.453125 -0.34375,0 -0.71875,0.296875 -0.71875,0.75 0,0.609375 0.671875,0.875 1.28125,0.875 0.6875,0 1.1875,-0.546875 1.484375,-1.125 0.234375,0.84375 0.9375,1.125 1.46875,1.125 1.46875,0 2.25,-1.875 2.25,-2.1875 0,-0.078125 -0.0625,-0.140625 -0.15625,-0.140625 -0.125,0 -0.140625,0.078125 -0.171875,0.1875 -0.390625,1.265625 -1.234375,1.859375 -1.875,1.859375 -0.5,0 -0.765625,-0.375 -0.765625,-0.96875 0,-0.3125 0.046875,-0.546875 0.28125,-1.484375 l 0.5,-1.953125 C 4.921875,-5.40625 5.40625,-6.03125 6.0625,-6.03125 c 0.03125,0 0.4375,0 0.734375,0.171875 z m 0,0"
             id="path216" />
        </g>
      </g>
      <g
         fill="#000000"
         fill-opacity="1"
         id="g102"
         transform="matrix(0.352778,0,0,0.352778,-0.259071,0.0778316)">
        <g
           id="use100"
           transform="translate(100.438,11.626)">
          <path
             d="M 5.71875,-3.3125 H 9.6875 c 0.203125,0 0.453125,0 0.453125,-0.265625 0,-0.265625 -0.25,-0.265625 -0.453125,-0.265625 H 5.71875 v -3.953125 c 0,-0.203125 0,-0.46875 -0.25,-0.46875 -0.28125,0 -0.28125,0.25 -0.28125,0.46875 V -3.84375 H 1.234375 c -0.203125,0 -0.453125,0 -0.453125,0.265625 0,0.265625 0.234375,0.265625 0.453125,0.265625 H 5.1875 v 3.953125 c 0,0.203125 0,0.46875 0.265625,0.46875 0.265625,0 0.265625,-0.25 0.265625,-0.46875 z m 0,0"
             id="path220" />
        </g>
      </g>
      <g
         fill="#000000"
         fill-opacity="1"
         id="g106"
         transform="matrix(0.352778,0,0,0.352778,-0.259071,0.0778316)">
        <g
           id="use104"
           transform="translate(114.552,11.626)">
          <path
             d="M 4.3125,-1.703125 C 4.25,-1.46875 4.25,-1.4375 4.046875,-1.15625 c -0.3125,0.390625 -0.953125,1.015625 -1.625,1.015625 -0.578125,0 -0.921875,-0.53125 -0.921875,-1.375 0,-0.796875 0.453125,-2.40625 0.71875,-3 0.5,-1 1.171875,-1.515625 1.71875,-1.515625 0.953125,0 1.140625,1.171875 1.140625,1.28125 0,0.015625 -0.046875,0.203125 -0.0625,0.234375 z M 5.234375,-5.375 C 5.078125,-5.75 4.6875,-6.328125 3.9375,-6.328125 c -1.609375,0 -3.359375,2.09375 -3.359375,4.21875 0,1.421875 0.828125,2.25 1.796875,2.25 0.796875,0 1.46875,-0.609375 1.875,-1.09375 0.140625,0.859375 0.8125,1.09375 1.25,1.09375 0.421875,0 0.765625,-0.25 1.03125,-0.765625 C 6.75,-1.125 6.953125,-2 6.953125,-2.046875 6.953125,-2.125 6.90625,-2.1875 6.8125,-2.1875 c -0.125,0 -0.140625,0.078125 -0.203125,0.296875 -0.21875,0.84375 -0.484375,1.75 -1.078125,1.75 -0.40625,0 -0.4375,-0.375 -0.4375,-0.65625 0,-0.34375 0.046875,-0.5 0.171875,-1.046875 0.09375,-0.359375 0.171875,-0.6875 0.28125,-1.09375 0.53125,-2.15625 0.65625,-2.671875 0.65625,-2.75 0,-0.203125 -0.15625,-0.359375 -0.359375,-0.359375 -0.46875,0 -0.578125,0.5 -0.609375,0.671875 z m 0,0"
             id="path224" />
        </g>
      </g>
      <g
         fill="#000000"
         fill-opacity="1"
         id="g110"
         transform="matrix(0.352778,0,0,0.352778,-0.259071,0.0778316)">
        <g
           id="use108"
           transform="translate(121.926,13.778)">
          <path
             d="m 1.265625,-0.765625 1.0625,-1.03125 c 1.546875,-1.375 2.140625,-1.90625 2.140625,-2.90625 0,-1.140625 -0.890625,-1.9375 -2.109375,-1.9375 -1.125,0 -1.859375,0.921875 -1.859375,1.8125 0,0.546875 0.5,0.546875 0.53125,0.546875 0.171875,0 0.515625,-0.109375 0.515625,-0.53125 0,-0.25 -0.1875,-0.515625 -0.53125,-0.515625 -0.078125,0 -0.09375,0 -0.125,0.015625 0.21875,-0.65625 0.765625,-1.015625 1.34375,-1.015625 0.90625,0 1.328125,0.8125 1.328125,1.625 C 3.5625,-3.90625 3.078125,-3.125 2.515625,-2.5 l -1.90625,2.125 C 0.5,-0.265625 0.5,-0.234375 0.5,0 H 4.203125 L 4.46875,-1.734375 H 4.234375 C 4.171875,-1.4375 4.109375,-1 4,-0.84375 3.9375,-0.765625 3.28125,-0.765625 3.0625,-0.765625 Z m 0,0"
             id="path228" />
        </g>
      </g>
      <g
         fill="#000000"
         fill-opacity="1"
         id="g114"
         transform="matrix(0.352778,0,0,0.352778,-0.259071,0.0778316)">
        <g
           id="use112"
           transform="translate(127.405,11.626)">
          <path
             d="m 6.796875,-5.859375 c -0.453125,0.09375 -0.625,0.4375 -0.625,0.703125 0,0.34375 0.265625,0.46875 0.46875,0.46875 0.4375,0 0.734375,-0.375 0.734375,-0.765625 0,-0.59375 -0.6875,-0.875 -1.296875,-0.875 -0.875,0 -1.359375,0.859375 -1.484375,1.140625 C 4.265625,-6.265625 3.375,-6.328125 3.109375,-6.328125 1.65625,-6.328125 0.875,-4.453125 0.875,-4.125 0.875,-4.078125 0.9375,-4 1.03125,-4 1.140625,-4 1.171875,-4.09375 1.203125,-4.140625 1.6875,-5.734375 2.65625,-6.03125 3.0625,-6.03125 c 0.65625,0 0.78125,0.59375 0.78125,0.9375 0,0.3125 -0.078125,0.640625 -0.265625,1.328125 l -0.484375,1.96875 c -0.203125,0.859375 -0.625,1.65625 -1.390625,1.65625 -0.0625,0 -0.421875,0 -0.734375,-0.1875 0.515625,-0.109375 0.640625,-0.53125 0.640625,-0.703125 0,-0.28125 -0.21875,-0.453125 -0.484375,-0.453125 -0.34375,0 -0.71875,0.296875 -0.71875,0.75 0,0.609375 0.671875,0.875 1.28125,0.875 0.6875,0 1.1875,-0.546875 1.484375,-1.125 0.234375,0.84375 0.9375,1.125 1.46875,1.125 1.46875,0 2.25,-1.875 2.25,-2.1875 0,-0.078125 -0.0625,-0.140625 -0.15625,-0.140625 -0.125,0 -0.140625,0.078125 -0.171875,0.1875 -0.390625,1.265625 -1.234375,1.859375 -1.875,1.859375 -0.5,0 -0.765625,-0.375 -0.765625,-0.96875 0,-0.3125 0.046875,-0.546875 0.28125,-1.484375 l 0.5,-1.953125 C 4.921875,-5.40625 5.40625,-6.03125 6.0625,-6.03125 c 0.03125,0 0.4375,0 0.734375,0.171875 z m 0,0"
             id="path232" />
        </g>
      </g>
      <g
         fill="#000000"
         fill-opacity="1"
         id="g118"
         transform="matrix(0.352778,0,0,0.352778,-0.259071,0.0778316)">
        <g
           id="use116"
           transform="translate(135.388,6.4200001)">
          <path
             d="m 1.265625,-0.765625 1.0625,-1.03125 c 1.546875,-1.375 2.140625,-1.90625 2.140625,-2.90625 0,-1.140625 -0.890625,-1.9375 -2.109375,-1.9375 -1.125,0 -1.859375,0.921875 -1.859375,1.8125 0,0.546875 0.5,0.546875 0.53125,0.546875 0.171875,0 0.515625,-0.109375 0.515625,-0.53125 0,-0.25 -0.1875,-0.515625 -0.53125,-0.515625 -0.078125,0 -0.09375,0 -0.125,0.015625 0.21875,-0.65625 0.765625,-1.015625 1.34375,-1.015625 0.90625,0 1.328125,0.8125 1.328125,1.625 C 3.5625,-3.90625 3.078125,-3.125 2.515625,-2.5 l -1.90625,2.125 C 0.5,-0.265625 0.5,-0.234375 0.5,0 H 4.203125 L 4.46875,-1.734375 H 4.234375 C 4.171875,-1.4375 4.109375,-1 4,-0.84375 3.9375,-0.765625 3.28125,-0.765625 3.0625,-0.765625 Z m 0,0"
             id="path236" />
        </g>
      </g>
      <g
         fill="#000000"
         fill-opacity="1"
         id="g122"
         transform="matrix(0.352778,0,0,0.352778,-0.259071,0.0778316)">
        <g
           id="use120"
           transform="translate(144.05499,11.626)">
          <path
             d="M 5.71875,-3.3125 H 9.6875 c 0.203125,0 0.453125,0 0.453125,-0.265625 0,-0.265625 -0.25,-0.265625 -0.453125,-0.265625 H 5.71875 v -3.953125 c 0,-0.203125 0,-0.46875 -0.25,-0.46875 -0.28125,0 -0.28125,0.25 -0.28125,0.46875 V -3.84375 H 1.234375 c -0.203125,0 -0.453125,0 -0.453125,0.265625 0,0.265625 0.234375,0.265625 0.453125,0.265625 H 5.1875 v 3.953125 c 0,0.203125 0,0.46875 0.265625,0.46875 0.265625,0 0.265625,-0.25 0.265625,-0.46875 z m 0,0"
             id="path240" />
        </g>
      </g>
      <g
         fill="#000000"
         fill-opacity="1"
         id="g126"
         transform="matrix(0.352778,0,0,0.352778,-0.259071,0.0778316)">
        <g
           id="use124"
           transform="translate(158.16901,11.626)">
          <path
             d="m 2.640625,-0.6875 c 0,-0.421875 -0.34375,-0.703125 -0.6875,-0.703125 -0.421875,0 -0.703125,0.34375 -0.703125,0.6875 C 1.25,-0.28125 1.59375,0 1.9375,0 2.359375,0 2.640625,-0.34375 2.640625,-0.6875 Z m 0,0"
             id="path244" />
        </g>
      </g>
      <g
         fill="#000000"
         fill-opacity="1"
         id="g130"
         transform="matrix(0.352778,0,0,0.352778,-0.259071,0.0778316)">
        <g
           id="use128"
           transform="translate(164.46698,11.626)">
          <path
             d="m 2.640625,-0.6875 c 0,-0.421875 -0.34375,-0.703125 -0.6875,-0.703125 -0.421875,0 -0.703125,0.34375 -0.703125,0.6875 C 1.25,-0.28125 1.59375,0 1.9375,0 2.359375,0 2.640625,-0.34375 2.640625,-0.6875 Z m 0,0"
             id="path248" />
        </g>
      </g>
      <g
         fill="#000000"
         fill-opacity="1"
         id="g134"
         transform="matrix(0.352778,0,0,0.352778,-0.259071,0.0778316)">
        <g
           id="use132"
           transform="translate(170.75061,11.626)">
          <path
             d="m 2.640625,-0.6875 c 0,-0.421875 -0.34375,-0.703125 -0.6875,-0.703125 -0.421875,0 -0.703125,0.34375 -0.703125,0.6875 C 1.25,-0.28125 1.59375,0 1.9375,0 2.359375,0 2.640625,-0.34375 2.640625,-0.6875 Z m 0,0"
             id="path252" />
        </g>
      </g>
      <g
         fill="#000000"
         fill-opacity="1"
         id="g138"
         transform="matrix(0.352778,0,0,0.352778,-0.259071,0.0778316)">
        <g
           id="use136"
           transform="translate(177.845,11.626)">
          <path
             d="M 5.71875,-3.3125 H 9.6875 c 0.203125,0 0.453125,0 0.453125,-0.265625 0,-0.265625 -0.25,-0.265625 -0.453125,-0.265625 H 5.71875 v -3.953125 c 0,-0.203125 0,-0.46875 -0.25,-0.46875 -0.28125,0 -0.28125,0.25 -0.28125,0.46875 V -3.84375 H 1.234375 c -0.203125,0 -0.453125,0 -0.453125,0.265625 0,0.265625 0.234375,0.265625 0.453125,0.265625 H 5.1875 v 3.953125 c 0,0.203125 0,0.46875 0.265625,0.46875 0.265625,0 0.265625,-0.25 0.265625,-0.46875 z m 0,0"
             id="path256" />
        </g>
      </g>
      <g
         fill="#000000"
         fill-opacity="1"
         id="g142"
         transform="matrix(0.352778,0,0,0.352778,-0.259071,0.0778316)">
        <g
           id="use140"
           transform="translate(191.95799,11.626)">
          <path
             d="M 4.3125,-1.703125 C 4.25,-1.46875 4.25,-1.4375 4.046875,-1.15625 c -0.3125,0.390625 -0.953125,1.015625 -1.625,1.015625 -0.578125,0 -0.921875,-0.53125 -0.921875,-1.375 0,-0.796875 0.453125,-2.40625 0.71875,-3 0.5,-1 1.171875,-1.515625 1.71875,-1.515625 0.953125,0 1.140625,1.171875 1.140625,1.28125 0,0.015625 -0.046875,0.203125 -0.0625,0.234375 z M 5.234375,-5.375 C 5.078125,-5.75 4.6875,-6.328125 3.9375,-6.328125 c -1.609375,0 -3.359375,2.09375 -3.359375,4.21875 0,1.421875 0.828125,2.25 1.796875,2.25 0.796875,0 1.46875,-0.609375 1.875,-1.09375 0.140625,0.859375 0.8125,1.09375 1.25,1.09375 0.421875,0 0.765625,-0.25 1.03125,-0.765625 C 6.75,-1.125 6.953125,-2 6.953125,-2.046875 6.953125,-2.125 6.90625,-2.1875 6.8125,-2.1875 c -0.125,0 -0.140625,0.078125 -0.203125,0.296875 -0.21875,0.84375 -0.484375,1.75 -1.078125,1.75 -0.40625,0 -0.4375,-0.375 -0.4375,-0.65625 0,-0.34375 0.046875,-0.5 0.171875,-1.046875 0.09375,-0.359375 0.171875,-0.6875 0.28125,-1.09375 0.53125,-2.15625 0.65625,-2.671875 0.65625,-2.75 0,-0.203125 -0.15625,-0.359375 -0.359375,-0.359375 -0.46875,0 -0.578125,0.5 -0.609375,0.671875 z m 0,0"
             id="path260" />
        </g>
      </g>
      <g
         fill="#000000"
         fill-opacity="1"
         id="g146"
         transform="matrix(0.352778,0,0,0.352778,-0.259071,0.0778316)">
        <g
           id="use144"
           transform="translate(199.332,13.778)">
          <path
             d="m 0.875,-0.59375 c -0.03125,0.15625 -0.09375,0.390625 -0.09375,0.4375 0,0.171875 0.140625,0.265625 0.296875,0.265625 0.125,0 0.296875,-0.078125 0.375,-0.28125 0,-0.015625 0.125,-0.484375 0.1875,-0.734375 l 0.21875,-0.890625 C 1.90625,-2.03125 1.96875,-2.25 2.03125,-2.46875 c 0.03125,-0.171875 0.109375,-0.46875 0.125,-0.5 0.140625,-0.3125 0.671875,-1.21875 1.625,-1.21875 0.453125,0 0.53125,0.375 0.53125,0.703125 0,0.609375 -0.484375,1.890625 -0.640625,2.3125 C 3.578125,-0.9375 3.5625,-0.8125 3.5625,-0.703125 c 0,0.46875 0.359375,0.8125 0.828125,0.8125 0.9375,0 1.296875,-1.453125 1.296875,-1.53125 0,-0.109375 -0.078125,-0.109375 -0.109375,-0.109375 -0.109375,0 -0.109375,0.03125 -0.15625,0.1875 -0.203125,0.671875 -0.53125,1.234375 -1.015625,1.234375 -0.171875,0 -0.234375,-0.09375 -0.234375,-0.328125 0,-0.25 0.078125,-0.484375 0.171875,-0.703125 0.1875,-0.53125 0.609375,-1.625 0.609375,-2.203125 0,-0.65625 -0.421875,-1.0625 -1.140625,-1.0625 -0.90625,0 -1.390625,0.640625 -1.5625,0.875 -0.046875,-0.5625 -0.453125,-0.875 -0.921875,-0.875 -0.453125,0 -0.640625,0.390625 -0.734375,0.5625 C 0.421875,-3.5 0.296875,-2.90625 0.296875,-2.875 c 0,0.109375 0.09375,0.109375 0.109375,0.109375 0.109375,0 0.109375,-0.015625 0.171875,-0.234375 0.171875,-0.703125 0.375,-1.1875 0.734375,-1.1875 0.1875,0 0.296875,0.125 0.296875,0.453125 0,0.21875 -0.03125,0.328125 -0.15625,0.84375 z m 0,0"
             id="path264" />
        </g>
      </g>
      <g
         fill="#000000"
         fill-opacity="1"
         id="g150"
         transform="matrix(0.352778,0,0,0.352778,-0.259071,0.0778316)">
        <g
           id="use148"
           transform="translate(205.81,11.626)">
          <path
             d="m 6.796875,-5.859375 c -0.453125,0.09375 -0.625,0.4375 -0.625,0.703125 0,0.34375 0.265625,0.46875 0.46875,0.46875 0.4375,0 0.734375,-0.375 0.734375,-0.765625 0,-0.59375 -0.6875,-0.875 -1.296875,-0.875 -0.875,0 -1.359375,0.859375 -1.484375,1.140625 C 4.265625,-6.265625 3.375,-6.328125 3.109375,-6.328125 1.65625,-6.328125 0.875,-4.453125 0.875,-4.125 0.875,-4.078125 0.9375,-4 1.03125,-4 1.140625,-4 1.171875,-4.09375 1.203125,-4.140625 1.6875,-5.734375 2.65625,-6.03125 3.0625,-6.03125 c 0.65625,0 0.78125,0.59375 0.78125,0.9375 0,0.3125 -0.078125,0.640625 -0.265625,1.328125 l -0.484375,1.96875 c -0.203125,0.859375 -0.625,1.65625 -1.390625,1.65625 -0.0625,0 -0.421875,0 -0.734375,-0.1875 0.515625,-0.109375 0.640625,-0.53125 0.640625,-0.703125 0,-0.28125 -0.21875,-0.453125 -0.484375,-0.453125 -0.34375,0 -0.71875,0.296875 -0.71875,0.75 0,0.609375 0.671875,0.875 1.28125,0.875 0.6875,0 1.1875,-0.546875 1.484375,-1.125 0.234375,0.84375 0.9375,1.125 1.46875,1.125 1.46875,0 2.25,-1.875 2.25,-2.1875 0,-0.078125 -0.0625,-0.140625 -0.15625,-0.140625 -0.125,0 -0.140625,0.078125 -0.171875,0.1875 -0.390625,1.265625 -1.234375,1.859375 -1.875,1.859375 -0.5,0 -0.765625,-0.375 -0.765625,-0.96875 0,-0.3125 0.046875,-0.546875 0.28125,-1.484375 l 0.5,-1.953125 C 4.921875,-5.40625 5.40625,-6.03125 6.0625,-6.03125 c 0.03125,0 0.4375,0 0.734375,0.171875 z m 0,0"
             id="path268" />
        </g>
      </g>
      <g
         fill="#000000"
         fill-opacity="1"
         id="g154"
         transform="matrix(0.352778,0,0,0.352778,-0.259071,0.0778316)">
        <g
           id="use152"
           transform="translate(213.793,6.4200001)">
          <path
             d="m 0.875,-0.59375 c -0.03125,0.15625 -0.09375,0.390625 -0.09375,0.4375 0,0.171875 0.140625,0.265625 0.296875,0.265625 0.125,0 0.296875,-0.078125 0.375,-0.28125 0,-0.015625 0.125,-0.484375 0.1875,-0.734375 l 0.21875,-0.890625 C 1.90625,-2.03125 1.96875,-2.25 2.03125,-2.46875 c 0.03125,-0.171875 0.109375,-0.46875 0.125,-0.5 0.140625,-0.3125 0.671875,-1.21875 1.625,-1.21875 0.453125,0 0.53125,0.375 0.53125,0.703125 0,0.609375 -0.484375,1.890625 -0.640625,2.3125 C 3.578125,-0.9375 3.5625,-0.8125 3.5625,-0.703125 c 0,0.46875 0.359375,0.8125 0.828125,0.8125 0.9375,0 1.296875,-1.453125 1.296875,-1.53125 0,-0.109375 -0.078125,-0.109375 -0.109375,-0.109375 -0.109375,0 -0.109375,0.03125 -0.15625,0.1875 -0.203125,0.671875 -0.53125,1.234375 -1.015625,1.234375 -0.171875,0 -0.234375,-0.09375 -0.234375,-0.328125 0,-0.25 0.078125,-0.484375 0.171875,-0.703125 0.1875,-0.53125 0.609375,-1.625 0.609375,-2.203125 0,-0.65625 -0.421875,-1.0625 -1.140625,-1.0625 -0.90625,0 -1.390625,0.640625 -1.5625,0.875 -0.046875,-0.5625 -0.453125,-0.875 -0.921875,-0.875 -0.453125,0 -0.640625,0.390625 -0.734375,0.5625 C 0.421875,-3.5 0.296875,-2.90625 0.296875,-2.875 c 0,0.109375 0.09375,0.109375 0.109375,0.109375 0.109375,0 0.109375,-0.015625 0.171875,-0.234375 0.171875,-0.703125 0.375,-1.1875 0.734375,-1.1875 0.1875,0 0.296875,0.125 0.296875,0.453125 0,0.21875 -0.03125,0.328125 -0.15625,0.84375 z m 0,0"
             id="path272" />
        </g>
      </g>
      <g
         fill="#000000"
         fill-opacity="1"
         id="g158"
         transform="matrix(0.352778,0,0,0.352778,-0.259071,0.0778316)">
        <g
           id="use156"
           transform="translate(223.459,11.626)">
          <path
             d="M 5.71875,-3.3125 H 9.6875 c 0.203125,0 0.453125,0 0.453125,-0.265625 0,-0.265625 -0.25,-0.265625 -0.453125,-0.265625 H 5.71875 v -3.953125 c 0,-0.203125 0,-0.46875 -0.25,-0.46875 -0.28125,0 -0.28125,0.25 -0.28125,0.46875 V -3.84375 H 1.234375 c -0.203125,0 -0.453125,0 -0.453125,0.265625 0,0.265625 0.234375,0.265625 0.453125,0.265625 H 5.1875 v 3.953125 c 0,0.203125 0,0.46875 0.265625,0.46875 0.265625,0 0.265625,-0.25 0.265625,-0.46875 z m 0,0"
             id="path276" />
        </g>
      </g>
      <g
         fill="#000000"
         fill-opacity="1"
         id="g162"
         transform="matrix(0.352778,0,0,0.352778,-0.259071,0.0778316)">
        <g
           id="use160"
           transform="translate(237.57201,11.626)">
          <path
             d="m 2.640625,-0.6875 c 0,-0.421875 -0.34375,-0.703125 -0.6875,-0.703125 -0.421875,0 -0.703125,0.34375 -0.703125,0.6875 C 1.25,-0.28125 1.59375,0 1.9375,0 2.359375,0 2.640625,-0.34375 2.640625,-0.6875 Z m 0,0"
             id="path280" />
        </g>
      </g>
      <g
         fill="#000000"
         fill-opacity="1"
         id="g166"
         transform="matrix(0.352778,0,0,0.352778,-0.259071,0.0778316)">
        <g
           id="use164"
           transform="translate(243.86998,11.626)">
          <path
             d="m 2.640625,-0.6875 c 0,-0.421875 -0.34375,-0.703125 -0.6875,-0.703125 -0.421875,0 -0.703125,0.34375 -0.703125,0.6875 C 1.25,-0.28125 1.59375,0 1.9375,0 2.359375,0 2.640625,-0.34375 2.640625,-0.6875 Z m 0,0"
             id="path284" />
        </g>
      </g>
      <g
         fill="#000000"
         fill-opacity="1"
         id="g170"
         transform="matrix(0.352778,0,0,0.352778,-0.259071,0.0778316)">
        <g
           id="use168"
           transform="translate(250.15361,11.626)">
          <path
             d="m 2.640625,-0.6875 c 0,-0.421875 -0.34375,-0.703125 -0.6875,-0.703125 -0.421875,0 -0.703125,0.34375 -0.703125,0.6875 C 1.25,-0.28125 1.59375,0 1.9375,0 2.359375,0 2.640625,-0.34375 2.640625,-0.6875 Z m 0,0"
             id="path288" />
        </g>
      </g>
    </g>
  </g>
</svg>
