<?xml version="1.0" encoding="UTF-8" standalone="no"?>
<!-- Created with Inkscape (http://www.inkscape.org/) -->

<svg
   width="2.5141048in"
   height="2.6261075in"
   viewBox="0 0 63.858262 66.703128"
   version="1.1"
   id="svg5"
   inkscape:version="1.4.2 (ebf0e940, 2025-05-08)"
   sodipodi:docname="RutherfordGeigerExperiment.svg"
   xml:space="preserve"
   xmlns:inkscape="http://www.inkscape.org/namespaces/inkscape"
   xmlns:sodipodi="http://sodipodi.sourceforge.net/DTD/sodipodi-0.dtd"
   xmlns="http://www.w3.org/2000/svg"
   xmlns:svg="http://www.w3.org/2000/svg"><sodipodi:namedview
     id="namedview7"
     pagecolor="#ffffff"
     bordercolor="#000000"
     borderopacity="0.25"
     inkscape:showpageshadow="2"
     inkscape:pageopacity="0.0"
     inkscape:pagecheckerboard="0"
     inkscape:deskcolor="#d1d1d1"
     inkscape:document-units="mm"
     showgrid="false"
     inkscape:zoom="2.2753006"
     inkscape:cx="167.67015"
     inkscape:cy="171.40592"
     inkscape:window-width="1920"
     inkscape:window-height="1027"
     inkscape:window-x="0"
     inkscape:window-y="25"
     inkscape:window-maximized="1"
     inkscape:current-layer="layer1" /><defs
     id="defs2"><marker
       style="overflow:visible"
       id="Triangle"
       refX="0"
       refY="0"
       orient="auto-start-reverse"
       inkscape:stockid="Triangle arrow"
       markerWidth="1"
       markerHeight="1"
       viewBox="0 0 1 1"
       inkscape:isstock="true"
       inkscape:collect="always"
       preserveAspectRatio="xMidYMid"><path
         transform="scale(0.5)"
         style="fill:context-stroke;fill-rule:evenodd;stroke:context-stroke;stroke-width:1pt"
         d="M 5.77,0 -2.88,5 V -5 Z"
         id="path10" /></marker><marker
       style="overflow:visible"
       id="TriangleStart"
       refX="0"
       refY="0"
       orient="auto-start-reverse"
       inkscape:stockid="TriangleStart"
       markerWidth="5.3244081"
       markerHeight="6.155385"
       viewBox="0 0 5.3244081 6.1553851"
       inkscape:isstock="true"
       inkscape:collect="always"
       preserveAspectRatio="xMidYMid"><path
         transform="scale(0.5)"
         style="fill:context-stroke;fill-rule:evenodd;stroke:context-stroke;stroke-width:1pt"
         d="M 5.77,0 -2.88,5 V -5 Z"
         id="path135" /></marker><linearGradient
       id="linearGradient3880"><stop
         offset="0"
         style="stop-color:#57b7ec"
         id="stop3882" /><stop
         offset="1"
         style="stop-color:#066b9d"
         id="stop3884" /></linearGradient></defs><g
     inkscape:label="Layer 1"
     inkscape:groupmode="layer"
     id="layer1"
     transform="translate(-3.4860757,-4.8140163)"><path
       style="fill:none;fill-opacity:1;stroke:#417dcf;stroke-width:0.199808;stroke-linejoin:round;stroke-dasharray:none;stroke-dashoffset:0;stroke-opacity:1;marker-end:url(#Triangle)"
       d="m 55.181559,36.989507 2.727645,0.0043"
       id="path22"
       sodipodi:nodetypes="cc" /><path
       style="fill:none;fill-opacity:1;stroke:#417dcf;stroke-width:0.199808;stroke-linejoin:round;stroke-dasharray:none;stroke-dashoffset:0;stroke-opacity:1;marker-end:url(#Triangle)"
       d="m 55.058772,37.045413 2.495947,-2.618636"
       id="path23"
       sodipodi:nodetypes="cc" /><path
       style="fill:none;fill-opacity:1;stroke:#417dcf;stroke-width:0.199808;stroke-linejoin:round;stroke-dasharray:none;stroke-dashoffset:0;stroke-opacity:1;marker-end:url(#Triangle)"
       d="m 55.058772,36.940944 2.495947,2.618637"
       id="path26"
       sodipodi:nodetypes="cc" /><path
       style="fill:none;fill-opacity:1;stroke:#417dcf;stroke-width:0.199808;stroke-linejoin:round;stroke-dasharray:none;stroke-dashoffset:0;stroke-opacity:1;marker-end:url(#Triangle)"
       d="m 55.013944,36.998695 0.0043,-2.571918"
       id="path24"
       sodipodi:nodetypes="cc" /><path
       style="fill:none;fill-opacity:1;stroke:#417dcf;stroke-width:0.199808;stroke-linejoin:round;stroke-dasharray:none;stroke-dashoffset:0;stroke-opacity:1;marker-end:url(#Triangle)"
       d="m 55.013944,37.018856 0.0043,2.571918"
       id="path25"
       sodipodi:nodetypes="cc" /><g
       id="g18"
       transform="matrix(0.53567904,0,0,0.53567904,2.8519655,28.540833)"><path
         style="fill:none;fill-opacity:1;stroke:#417dcf;stroke-width:0.373;stroke-linejoin:round;stroke-dasharray:none;stroke-dashoffset:0;stroke-opacity:1;marker-end:url(#Triangle)"
         d="m 92.724032,15.789047 0.008,-4.801229"
         id="path16"
         sodipodi:nodetypes="cc" /><path
         style="fill:none;fill-opacity:1;stroke:#417dcf;stroke-width:0.373;stroke-linejoin:round;stroke-dasharray:none;stroke-dashoffset:0;stroke-opacity:1;marker-end:url(#Triangle)"
         d="m 88.915698,15.789047 0.008,-4.801229"
         id="path17"
         sodipodi:nodetypes="cc" /><path
         style="fill:none;fill-opacity:1;stroke:#417dcf;stroke-width:0.373;stroke-linejoin:round;stroke-dasharray:none;stroke-dashoffset:0;stroke-opacity:1;marker-end:url(#Triangle)"
         d="m 84.932937,15.789047 0.008,-4.801229"
         id="path18"
         sodipodi:nodetypes="cc" /></g><g
       id="g21"
       transform="matrix(0.53567904,0,0,-0.53567904,2.8519655,45.414427)"><path
         style="fill:none;fill-opacity:1;stroke:#417dcf;stroke-width:0.373;stroke-linejoin:round;stroke-dasharray:none;stroke-dashoffset:0;stroke-opacity:1;marker-end:url(#Triangle)"
         d="m 92.724032,15.789047 0.008,-4.801229"
         id="path19"
         sodipodi:nodetypes="cc" /><path
         style="fill:none;fill-opacity:1;stroke:#417dcf;stroke-width:0.373;stroke-linejoin:round;stroke-dasharray:none;stroke-dashoffset:0;stroke-opacity:1;marker-end:url(#Triangle)"
         d="m 88.915698,15.789047 0.008,-4.801229"
         id="path20"
         sodipodi:nodetypes="cc" /><path
         style="fill:none;fill-opacity:1;stroke:#417dcf;stroke-width:0.373;stroke-linejoin:round;stroke-dasharray:none;stroke-dashoffset:0;stroke-opacity:1;marker-end:url(#Triangle)"
         d="m 84.932937,15.789047 0.008,-4.801229"
         id="path21"
         sodipodi:nodetypes="cc" /></g><rect
       style="fill:#bdbdbd;fill-opacity:1;stroke:none;stroke-width:0.0965744;stroke-linejoin:round;stroke-dasharray:none;stroke-dashoffset:0;stroke-opacity:1"
       id="rect14"
       width="1.2773542"
       height="1.7184229"
       x="43.354275"
       y="33.152008"
       rx="0"
       ry="0" /><rect
       style="fill:#bdbdbd;fill-opacity:1;stroke:none;stroke-width:0.163;stroke-linejoin:round;stroke-dasharray:none;stroke-dashoffset:0;stroke-opacity:1"
       id="rect13"
       width="1.2773542"
       height="4.8952861"
       x="43.354275"
       y="35.659237"
       rx="0"
       ry="0" /><path
       style="fill:none;fill-opacity:1;stroke:#000000;stroke-width:0.211057;stroke-linejoin:round;stroke-opacity:1;marker-end:url(#TriangleStart)"
       d="M 4.3154729,65.631015 H 64.862752"
       id="path2512"
       sodipodi:nodetypes="cc" /><path
       style="fill:none;fill-opacity:1;stroke:#000000;stroke-width:0.211057;stroke-linejoin:round;stroke-opacity:1;marker-end:url(#TriangleStart)"
       d="M 6.1229151,67.189289 V 56.712886"
       id="path3249"
       sodipodi:nodetypes="cc" /><text
       xml:space="preserve"
       style="font-size:22.6959px;font-family:serif;-inkscape-font-specification:serif;fill:#89afc5;stroke:#f1f1f1;stroke-width:0.211057;stroke-linejoin:round"
       x="64.584877"
       y="69.050369"
       id="text3261"><tspan
         sodipodi:role="line"
         id="tspan3259"
         style="font-style:italic;font-variant:normal;font-weight:normal;font-stretch:normal;font-size:3.02361px;font-family:'Iowan Old Style';-inkscape-font-specification:'Iowan Old Style, Normal';font-variant-ligatures:normal;font-variant-caps:normal;font-variant-numeric:normal;font-variant-east-asian:normal;fill:#030607;fill-opacity:1;stroke:none;stroke-width:0.211058"
         x="64.584877"
         y="69.050369">t</tspan></text><text
       xml:space="preserve"
       style="font-size:22.6959px;font-family:serif;-inkscape-font-specification:serif;fill:#89afc5;stroke:#f1f1f1;stroke-width:0.211057;stroke-linejoin:round"
       x="4.2326694"
       y="55.933773"
       id="text3317"><tspan
         sodipodi:role="line"
         id="tspan3315"
         style="font-style:italic;font-variant:normal;font-weight:normal;font-stretch:normal;font-size:3.02361px;font-family:'Iowan Old Style';-inkscape-font-specification:'Iowan Old Style, Normal';font-variant-ligatures:normal;font-variant-caps:normal;font-variant-numeric:normal;font-variant-east-asian:normal;fill:#030607;fill-opacity:1;stroke:none;stroke-width:0.211058"
         x="4.2326694"
         y="55.933773">I</tspan></text><path
       id="rect1"
       style="fill:none;stroke:#000000;stroke-width:0.253376;stroke-linejoin:round;stroke-dasharray:none;stroke-opacity:1"
       d="M 13.959168,32.019034 H 8.9329503 c -1.0945626,0 -1.97594,1.037022 -1.97594,2.325286 v 1.715176 c 0,1.288264 0.8813774,2.325286 1.97594,2.325286 h 5.0262177 m 4.739709,0 h 5.371965 c 0.971318,0 1.774432,-0.81676 1.942998,-1.900921 h 17.311481 v 4.114373 h 1.304652 l 0.0014,-0.50686 7.004648,0.02244 h 7.006026 V 33.73282 h -7.006034 l -7.004649,-0.0346 -0.0014,-0.626166 h -1.304652 v 0.945339 H 26.027404 c -0.134241,-1.132342 -0.956324,-1.99836 -1.956562,-1.99836 h -5.371965"
       sodipodi:nodetypes="cssssccsccccccccccccccsc" /><path
       style="fill:none;fill-opacity:1;stroke:#000000;stroke-width:0.253377;stroke-linejoin:round;stroke-dasharray:0.506753, 0.506753;stroke-dashoffset:0;stroke-opacity:1"
       d="m 14.251299,32.029152 h 4.111235"
       id="path4" /><path
       style="fill:none;fill-opacity:1;stroke:#000000;stroke-width:0.253377;stroke-linejoin:round;stroke-dasharray:0.506753, 0.506753;stroke-dashoffset:0;stroke-opacity:1"
       d="m 14.251299,38.398452 h 4.111235"
       id="path5" /><rect
       style="fill:#000000;fill-opacity:1;stroke:none;stroke-width:0.175226;stroke-linejoin:round;stroke-dasharray:none;stroke-dashoffset:0;stroke-opacity:1"
       id="rect5"
       width="0.46718577"
       height="1.0278085"
       x="41.706245"
       y="34.022476"
       rx="0"
       ry="0" /><rect
       style="fill:#000000;fill-opacity:1;stroke:none;stroke-width:0.175226;stroke-linejoin:round;stroke-dasharray:none;stroke-dashoffset:0;stroke-opacity:1"
       id="rect6"
       width="0.46718577"
       height="1.0278085"
       x="41.706245"
       y="35.564186"
       rx="0"
       ry="0" /><path
       style="fill:none;fill-opacity:1;stroke:#000000;stroke-width:0.306944;stroke-linejoin:round;stroke-dasharray:none;stroke-dashoffset:0;stroke-opacity:1"
       d="M 42.045052,37.046821 H 55.00196"
       id="path7"
       sodipodi:nodetypes="cc" /><path
       style="fill:none;fill-opacity:1;stroke:#aeaeae;stroke-width:0.199808;stroke-linejoin:round;stroke-dasharray:none;stroke-dashoffset:0;stroke-opacity:1;marker-end:url(#Triangle)"
       d="M 9.6713131,34.070304 10.378292,31.315496"
       id="path9"
       sodipodi:nodetypes="cc" /><path
       style="fill:none;fill-opacity:1;stroke:#aeaeae;stroke-width:0.199808;stroke-linejoin:round;stroke-dasharray:none;stroke-dashoffset:0;stroke-opacity:1;marker-end:url(#Triangle)"
       d="M 8.415982,35.633962 6.0176688,36.182656"
       id="path11"
       sodipodi:nodetypes="cc" /><path
       style="fill:none;fill-opacity:1;stroke:#aeaeae;stroke-width:0.199808;stroke-linejoin:round;stroke-dasharray:none;stroke-dashoffset:0;stroke-opacity:1;marker-end:url(#Triangle)"
       d="m 10.347017,35.13563 36.72071,0.174946"
       id="path12"
       sodipodi:nodetypes="cc" /><circle
       style="fill:#449c60;fill-opacity:1;stroke:#1c371f;stroke-width:0.0926725;stroke-linejoin:round;stroke-dasharray:none;stroke-dashoffset:0;stroke-opacity:1"
       id="path13"
       cx="51.335064"
       cy="35.746197"
       r="0.20922181" /><circle
       style="fill:#449c60;fill-opacity:1;stroke:#1c371f;stroke-width:0.0926725;stroke-linejoin:round;stroke-dasharray:none;stroke-dashoffset:0;stroke-opacity:1"
       id="path13-5"
       cx="54.265182"
       cy="35.005863"
       r="0.20922181" /><circle
       style="fill:#449c60;fill-opacity:1;stroke:#1c371f;stroke-width:0.0926725;stroke-linejoin:round;stroke-dasharray:none;stroke-dashoffset:0;stroke-opacity:1"
       id="path13-1"
       cx="52.706131"
       cy="38.265697"
       r="0.20922181" /><circle
       style="fill:#449c60;fill-opacity:1;stroke:#1c371f;stroke-width:0.0926725;stroke-linejoin:round;stroke-dasharray:none;stroke-dashoffset:0;stroke-opacity:1"
       id="path13-50"
       cx="46.753403"
       cy="38.690891"
       r="0.20922181" /><circle
       style="fill:#449c60;fill-opacity:1;stroke:#1c371f;stroke-width:0.0926725;stroke-linejoin:round;stroke-dasharray:none;stroke-dashoffset:0;stroke-opacity:1"
       id="path13-8"
       cx="45.336082"
       cy="37.698769"
       r="0.20922181" /><circle
       style="fill:#449c60;fill-opacity:1;stroke:#1c371f;stroke-width:0.0926725;stroke-linejoin:round;stroke-dasharray:none;stroke-dashoffset:0;stroke-opacity:1"
       id="path13-16"
       cx="50.296692"
       cy="38.690891"
       r="0.20922181" /><circle
       style="fill:#449c60;fill-opacity:1;stroke:#1c371f;stroke-width:0.0926725;stroke-linejoin:round;stroke-dasharray:none;stroke-dashoffset:0;stroke-opacity:1"
       id="path13-58"
       cx="56.53289"
       cy="38.690891"
       r="0.20922181" /><circle
       style="fill:#449c60;fill-opacity:1;stroke:#1c371f;stroke-width:0.0926725;stroke-linejoin:round;stroke-dasharray:none;stroke-dashoffset:0;stroke-opacity:1"
       id="path13-583"
       cx="49.304573"
       cy="34.438934"
       r="0.20922181" /><circle
       style="fill:#e26f9d;fill-opacity:1;stroke:none;stroke-width:0.578389;stroke-linejoin:round;stroke-dasharray:none;stroke-dashoffset:0;stroke-opacity:1"
       id="circle13"
       cx="10.018831"
       cy="32.752586"
       r="0.60564208" /><circle
       style="fill:#e26f9d;fill-opacity:1;stroke:none;stroke-width:0.578389;stroke-linejoin:round;stroke-dasharray:none;stroke-dashoffset:0;stroke-opacity:1"
       id="circle13-1"
       cx="7.6418185"
       cy="35.840981"
       r="0.60564208" /><circle
       style="fill:#e26f9d;fill-opacity:1;stroke:none;stroke-width:0.578389;stroke-linejoin:round;stroke-dasharray:none;stroke-dashoffset:0;stroke-opacity:1"
       id="circle13-8"
       cx="45.829487"
       cy="35.274055"
       r="0.60564208" /><path
       style="fill:none;stroke:#4d63ce;stroke-width:0.141955;stroke-linecap:butt;stroke-linejoin:round;stroke-miterlimit:4;stroke-dasharray:none;stroke-opacity:1"
       d="m 42.116366,37.119737 0.0072,8.692475 5.761958,5.36e-4 0.03115,-5.792474"
       id="path9512"
       sodipodi:nodetypes="cccc" /><g
       id="g14"
       transform="matrix(0.53567904,0,0,0.53567904,3.5994628,-13.817345)"><rect
         style="fill:#e2e2ff;fill-opacity:1;stroke:#515151;stroke-width:0.264999;stroke-miterlimit:4;stroke-dasharray:none;stroke-dashoffset:0;stroke-opacity:1"
         id="rect9370"
         width="13.081759"
         height="8.0849724"
         x="65.160645"
         y="107.56624" /><rect
         style="fill:#ffffff;fill-opacity:1;stroke:#515151;stroke-width:0.264999;stroke-miterlimit:4;stroke-dasharray:none;stroke-dashoffset:0;stroke-opacity:1"
         id="rect9372"
         width="10.072701"
         height="4.2952657"
         x="66.544724"
         y="108.97009" /><path
         style="fill:none;stroke:#000000;stroke-width:0.235;stroke-linecap:butt;stroke-linejoin:miter;stroke-miterlimit:4;stroke-dasharray:none;stroke-opacity:1"
         d="m 67.21159,111.81525 0.323361,0.44825 c 0,0 1.200078,-1.00611 3.856743,-1.00611 2.656665,0 3.856743,1.00611 3.856743,1.00611 l 0.405396,-0.59053"
         id="path9374"
         sodipodi:nodetypes="cczcc" /><path
         style="fill:none;stroke:#000000;stroke-width:0.234678px;stroke-linecap:butt;stroke-linejoin:miter;stroke-opacity:1"
         d="m 71.480138,111.28406 v -1.18571"
         id="path9376" /><path
         style="fill:none;stroke:#000000;stroke-width:0.234678px;stroke-linecap:butt;stroke-linejoin:miter;stroke-opacity:1"
         d="M 69.421751,111.48326 69.232037,110.8572"
         id="path9382" /><path
         style="fill:none;stroke:#000000;stroke-width:0.234678px;stroke-linecap:butt;stroke-linejoin:miter;stroke-opacity:1"
         d="m 73.253959,111.4548 0.218169,-0.61657"
         id="path9384" /><path
         id="rect9386"
         style="fill:#c44141;fill-opacity:1;stroke:none;stroke-width:0.268517;stroke-linejoin:miter;stroke-miterlimit:4;stroke-dasharray:none;stroke-dashoffset:0;stroke-opacity:1"
         d="m 70.43785,109.90922 1.599638,2.56447 -0.38575,0.62528 -0.698238,-0.19585 z"
         sodipodi:nodetypes="ccccc"
         inkscape:transform-center-x="0.41191833"
         inkscape:transform-center-y="-1.5625248" /><circle
         style="fill:#652020;fill-opacity:1;stroke:none;stroke-width:0.13801;stroke-miterlimit:4;stroke-dasharray:none;stroke-opacity:1"
         id="circle1098"
         cx="71.433769"
         cy="112.58968"
         r="0.24387729" /></g><path
       style="fill:none;fill-opacity:1;stroke:#000000;stroke-width:0.211057;stroke-linejoin:round;stroke-opacity:1;marker-start:url(#Triangle);marker-end:url(#TriangleStart)"
       d="M 7.222555,29.924477 H 26.101656"
       id="path14"
       sodipodi:nodetypes="cc" /><text
       xml:space="preserve"
       style="font-size:22.6959px;font-family:serif;-inkscape-font-specification:serif;fill:#89afc5;stroke:#f1f1f1;stroke-width:0.211057;stroke-linejoin:round"
       x="15.332438"
       y="28.772295"
       id="text14"><tspan
         sodipodi:role="line"
         id="tspan14"
         style="font-style:italic;font-variant:normal;font-weight:normal;font-stretch:normal;font-size:3.02361px;font-family:'Iowan Old Style';-inkscape-font-specification:'Iowan Old Style, Normal';font-variant-ligatures:normal;font-variant-caps:normal;font-variant-numeric:normal;font-variant-east-asian:normal;fill:#030607;fill-opacity:1;stroke:none;stroke-width:0.211058"
         x="15.332438"
         y="28.772295">4 m</tspan></text><circle
       style="fill:#e26f9d;fill-opacity:1;stroke:none;stroke-width:0.578389;stroke-linejoin:round;stroke-dasharray:none;stroke-dashoffset:0;stroke-opacity:1"
       id="circle14"
       cx="5.3930664"
       cy="6.1878505"
       r="0.60564208" /><text
       xml:space="preserve"
       style="font-size:22.6959px;font-family:serif;-inkscape-font-specification:serif;fill:#89afc5;stroke:#f1f1f1;stroke-width:0.211057;stroke-linejoin:round"
       x="8.4147358"
       y="7.39994"
       id="text15"><tspan
         sodipodi:role="line"
         id="tspan15"
         style="font-style:normal;font-variant:normal;font-weight:normal;font-stretch:normal;font-size:3.02361px;font-family:'Iowan Old Style';-inkscape-font-specification:'Iowan Old Style, Normal';font-variant-ligatures:normal;font-variant-caps:normal;font-variant-numeric:normal;font-variant-east-asian:normal;fill:#030607;fill-opacity:1;stroke:none;stroke-width:0.211058"
         x="8.4147358"
         y="7.39994">Alpha-particle</tspan></text><path
       id="path8"
       style="fill:#88b2c3;stroke:#000000;stroke-width:0.260564;stroke-linejoin:round"
       d="m 10.951346,35.313176 c 0,0.67295 -0.38307,1.543415 -1.056021,1.543415 -0.6729511,0 -1.38095,-0.870464 -1.38095,-1.543415 0,-0.672952 0.5455339,-1.218486 1.2184855,-1.218486 0.6729505,0 1.2184855,0.545535 1.2184855,1.218486 z"
       sodipodi:nodetypes="sssss" /><path
       id="path15"
       style="fill:#88b2c3;stroke:#000000;stroke-width:0.260564;stroke-linejoin:round"
       d="m 6.5883522,11.033739 c 0,0.672951 -0.3830705,1.543416 -1.0560211,1.543416 -0.6729516,0 -1.3809506,-0.870464 -1.3809506,-1.543416 0,-0.672951 0.545534,-1.2184851 1.2184861,-1.2184851 0.6729506,0 1.2184856,0.5455351 1.2184856,1.2184851 z"
       sodipodi:nodetypes="sssss" /><text
       xml:space="preserve"
       style="font-size:22.6959px;font-family:serif;-inkscape-font-specification:serif;fill:#89afc5;stroke:#f1f1f1;stroke-width:0.211057;stroke-linejoin:round"
       x="8.4147358"
       y="12.245076"
       id="text16"><tspan
         sodipodi:role="line"
         id="tspan16"
         style="font-style:normal;font-variant:normal;font-weight:normal;font-stretch:normal;font-size:3.02361px;font-family:'Iowan Old Style';-inkscape-font-specification:'Iowan Old Style, Normal';font-variant-ligatures:normal;font-variant-caps:normal;font-variant-numeric:normal;font-variant-east-asian:normal;fill:#030607;fill-opacity:1;stroke:none;stroke-width:0.211058"
         x="8.4147358"
         y="12.245076">Radium</tspan></text><path
       style="fill:none;fill-opacity:1;stroke:#000000;stroke-width:0.41408;stroke-linejoin:round;stroke-dasharray:none;stroke-dashoffset:0;stroke-opacity:1"
       d="m 6.6948832,65.551097 c 0,0 1.2142061,0.112113 1.5085997,-0.308326 0.450865,-0.643908 0.674384,-4.444288 0.674384,-4.444288 0,0 0.25826,3.559952 0.9284352,4.356196 0.6321129,0.751022 5.4862069,0.380846 5.4862069,0.380846 0,0 3.735603,0.127685 4.029996,-0.292754 0.450865,-0.643908 0.674382,-4.444288 0.674382,-4.444288 0,0 0.258262,3.559952 0.928439,4.356196 0.311292,0.445738 1.095198,0.549124 1.449462,0.08809 0.450865,-0.643908 0.674382,-4.444288 0.674382,-4.444288 0,0 0.258262,3.559952 1.194752,4.554408 0,0 1.48052,0.310319 1.774914,-0.11012 0.450865,-0.643908 0.674382,-4.444288 0.674382,-4.444288 0,0 0.339543,4.100034 1.28819,4.554408 0.423139,0.202668 1.573959,0.310319 1.868352,-0.11012 0.450865,-0.643908 0.674383,-4.444288 0.674383,-4.444288 0,0 0.258261,3.559952 0.999108,4.400245 0.521535,-0.599865 0.745052,-4.400245 0.745052,-4.400245 0,0 0.258262,3.559952 0.928439,4.356196 0.689917,0.819701 5.942585,0.432314 6.183611,0.08809 0.450865,-0.643908 0.674382,-4.444288 0.674382,-4.444288 0,0 0.258262,3.419797 0.928439,4.216041 0.679732,0.8076 4.080077,0.44854 4.596742,0.08809 0.644684,-0.449756 0.828546,-4.304133 0.828546,-4.304133 0,0 0.258262,3.450941 0.928439,4.247185 0.738226,0.877099 1.973447,0.318338 2.134665,0.08809 0.450865,-0.643907 0.674382,-4.335277 0.674382,-4.335277 0,0 0.258262,3.559952 0.928439,4.356196 0.632112,0.751022 3.75762,0.380846 3.75762,0.380846 0,0 2.007018,0.127685 2.301411,-0.292754 0.450865,-0.643908 0.674382,-4.444288 0.674382,-4.444288 0,0 0.258262,3.559952 0.928439,4.356196 0.632112,0.751022 2.964812,0.365274 2.964812,0.365274"
       id="path27"
       sodipodi:nodetypes="cscscscssccscsscccsscsscsscscscsc" /><g
       id="g38"
       transform="matrix(0.53567904,0,0,0.53567904,-1.196978,-0.3623943)"><path
         style="fill:none;fill-opacity:1;stroke:#417dcf;stroke-width:0.373;stroke-linejoin:round;stroke-dasharray:none;stroke-dashoffset:0;stroke-opacity:1;marker-end:url(#Triangle)"
         d="m 92.724032,15.789047 0.008,-4.801229"
         id="path36"
         sodipodi:nodetypes="cc" /><path
         style="fill:none;fill-opacity:1;stroke:#417dcf;stroke-width:0.373;stroke-linejoin:round;stroke-dasharray:none;stroke-dashoffset:0;stroke-opacity:1;marker-end:url(#Triangle)"
         d="m 88.915698,15.789047 0.008,-4.801229"
         id="path37"
         sodipodi:nodetypes="cc" /><path
         style="fill:none;fill-opacity:1;stroke:#417dcf;stroke-width:0.373;stroke-linejoin:round;stroke-dasharray:none;stroke-dashoffset:0;stroke-opacity:1;marker-end:url(#Triangle)"
         d="m 84.932937,15.789047 0.008,-4.801229"
         id="path38"
         sodipodi:nodetypes="cc" /></g><text
       xml:space="preserve"
       style="font-size:22.6959px;font-family:serif;-inkscape-font-specification:serif;fill:#89afc5;stroke:#f1f1f1;stroke-width:0.211057;stroke-linejoin:round"
       x="50.586037"
       y="7.39994"
       id="text38"><tspan
         sodipodi:role="line"
         id="tspan38"
         style="font-style:normal;font-variant:normal;font-weight:normal;font-stretch:normal;font-size:3.02361px;font-family:'Iowan Old Style';-inkscape-font-specification:'Iowan Old Style, Normal';font-variant-ligatures:normal;font-variant-caps:normal;font-variant-numeric:normal;font-variant-east-asian:normal;fill:#030607;fill-opacity:1;stroke:none;stroke-width:0.211058"
         x="50.586037"
         y="7.39994">Electric field</tspan></text><g
       style="shape-rendering:crispEdges"
       id="g39"
       transform="matrix(0.01492176,0,0,0.01492176,47.445931,42.278946)"><g
         inkscape:label="Layer 1"
         id="layer1-3"
         transform="translate(-55,-285.4683)"><path
           id="path4241"
           transform="translate(0,-27.637839)"
           d="m 363.85547,318.10547 -17.97656,17.58203 c 0,0 16.52752,15.94264 33.54101,50.1875 17.0135,34.24487 34.04492,86.33391 34.04492,157.11719 0,70.78408 -17.06532,121.54454 -34.04492,154.59179 C 362.44113,730.63529 346.13086,745.5 346.13086,745.5 l 18.37695,16.39453 c 0,0 25.53075,-23.20254 43.41016,-58.00586 17.88345,-34.70163 35.56445,-87.96437 35.56445,-160.5957 0,-73.00015 -17.7147,-127.24969 -35.55859,-163.16992 -17.84472,-35.91701 -44.0625,-61.71485 -44.0625,-61.71485 z m -52.71094,50.07226 -0.004,0.20508 -19.48046,16.78711 c 0,0 12.92971,12.15877 26.22851,38.08008 13.29878,25.92052 26.73242,65.32349 26.73242,119.03516 0,53.71168 -13.46915,92.01625 -26.73242,117.01757 -13.26331,25.00132 -25.97656,36.0625 -25.97656,36.0625 l 18.125,17.03907 c 0,0 21.89304,-19.7706 36.0957,-46.54492 14.20264,-26.77354 28.2461,-67.57237 28.2461,-123.57032 0,-56.00118 -14.07896,-97.72991 -28.2461,-125.33789 -14.16715,-27.61443 -34.98828,-48.77344 -34.98828,-48.77344 z m -99.39062,16.84375 c -2.36303,-0.19454 -5.70772,1.16692 -10.40625,4.38282 -18.79515,12.864 -87.07422,87.34765 -87.07422,87.34765 -0.59554,0 -1.06454,0.21213 -1.64258,0.27539 H 60 v 130.88477 h 54.27734 c 0,0 67.06648,74.75904 87.07422,87.62305 20.00722,12.86347 15.88086,-7.12385 15.88086,-15.88086 V 405.01172 c 0,-6.56856 1.61235,-19.4036 -5.47656,-19.98828 z m 39.89453,30.81446 -20.26953,18.96094 c 0,0 47.66406,33.54316 47.66406,106.67968 0,73.1333 -47.41211,104.41016 -47.41211,104.41016 l 19.76367,21.18555 c 0,0 57.40625,-46.41246 57.40625,-125.58789 0,-79.18107 -57.1543,-125.63672 -57.1543,-125.63672 z"
           style="fill:#2e2e2e;fill-opacity:1;stroke:#ffffff;stroke-width:10;stroke-linecap:round;stroke-linejoin:round;stroke-miterlimit:4;stroke-dasharray:none;stroke-opacity:1"
           inkscape:connector-curvature="0"
           sodipodi:nodetypes="ccssccccscccccccsscccscccccccccsssccccccscccc" /><path
           style="fill:#343434;fill-opacity:1;stroke:none;stroke-width:5.27213"
           d="m 363.85547,318.10547 -17.97656,17.58203 c 0,0 16.52752,15.94264 33.54101,50.1875 17.0135,34.24487 34.04492,86.33391 34.04492,157.11719 0,70.78408 -17.06532,121.54454 -34.04492,154.59179 C 362.44113,730.63529 346.13086,745.5 346.13086,745.5 l 18.37695,16.39453 c 0,0 25.53075,-23.20254 43.41016,-58.00586 17.88345,-34.70163 35.56445,-87.96437 35.56445,-160.5957 0,-73.00015 -17.7147,-127.24969 -35.55859,-163.16992 -17.84472,-35.91701 -44.0625,-61.71485 -44.0625,-61.71485 z m -52.71094,50.07226 -0.004,0.20508 -19.48046,16.78711 c 0,0 12.92971,12.15877 26.22851,38.08008 13.29878,25.92052 26.73242,65.32349 26.73242,119.03516 0,53.71168 -13.46915,92.01625 -26.73242,117.01757 -13.26331,25.00132 -25.97656,36.0625 -25.97656,36.0625 l 18.125,17.03907 c 0,0 21.89304,-19.7706 36.0957,-46.54492 14.20264,-26.77354 28.2461,-67.57237 28.2461,-123.57032 0,-56.00118 -14.07896,-97.72991 -28.2461,-125.33789 -14.16715,-27.61443 -34.98828,-48.77344 -34.98828,-48.77344 z m -99.39062,16.84375 c -2.36303,-0.19454 -5.70772,1.16692 -10.40625,4.38282 -18.79515,12.864 -87.07422,87.34765 -87.07422,87.34765 -0.59554,0 -1.06454,0.21213 -1.64258,0.27539 H 60 v 130.88477 h 54.27734 c 0,0 67.06648,74.75904 87.07422,87.62305 20.00722,12.86347 15.88086,-7.12385 15.88086,-15.88086 V 405.01172 c 0,-6.56856 1.61235,-19.4036 -5.47656,-19.98828 z m 39.89453,30.81446 -20.26953,18.96094 c 0,0 47.66406,33.54316 47.66406,106.67968 0,73.1333 -47.41211,104.41016 -47.41211,104.41016 l 19.76367,21.18555 c 0,0 57.40625,-46.41246 57.40625,-125.58789 0,-79.18107 -57.1543,-125.63672 -57.1543,-125.63672 z"
           transform="translate(0,-27.637839)"
           id="path2842"
           inkscape:connector-curvature="0"
           sodipodi:nodetypes="ccssccccscccccccsscccscccccccccsssccccccscccc" /></g></g><text
       xml:space="preserve"
       style="font-size:22.6959px;font-family:serif;-inkscape-font-specification:serif;fill:#89afc5;stroke:#f1f1f1;stroke-width:0.211057;stroke-linejoin:round"
       x="36.386757"
       y="46.919537"
       id="text39"><tspan
         sodipodi:role="line"
         id="tspan39"
         style="font-style:italic;font-variant:normal;font-weight:normal;font-stretch:normal;font-size:3.02361px;font-family:'Iowan Old Style';-inkscape-font-specification:'Iowan Old Style, Normal';font-variant-ligatures:normal;font-variant-caps:normal;font-variant-numeric:normal;font-variant-east-asian:normal;fill:#030607;fill-opacity:1;stroke:none;stroke-width:0.211058"
         x="36.386757"
         y="46.919537">I</tspan></text><text
       xml:space="preserve"
       style="font-size:22.6959px;font-family:serif;-inkscape-font-specification:serif;fill:#89afc5;stroke:#f1f1f1;stroke-width:0.211057;stroke-linejoin:round"
       x="3.0874553"
       y="24.313871"
       id="text40"><tspan
         sodipodi:role="line"
         id="tspan40"
         style="font-style:normal;font-variant:normal;font-weight:normal;font-stretch:normal;font-size:3.02361px;font-family:'Iowan Old Style';-inkscape-font-specification:'Iowan Old Style, Normal';font-variant-ligatures:normal;font-variant-caps:normal;font-variant-numeric:normal;font-variant-east-asian:normal;fill:#030607;fill-opacity:1;stroke:none;stroke-width:0.211058"
         x="3.0874553"
         y="24.313871">(a)</tspan></text><text
       xml:space="preserve"
       style="font-size:22.6959px;font-family:serif;-inkscape-font-specification:serif;fill:#89afc5;stroke:#f1f1f1;stroke-width:0.211057;stroke-linejoin:round"
       x="3.0874553"
       y="51.475346"
       id="text41"><tspan
         sodipodi:role="line"
         id="tspan41"
         style="font-style:normal;font-variant:normal;font-weight:normal;font-stretch:normal;font-size:3.02361px;font-family:'Iowan Old Style';-inkscape-font-specification:'Iowan Old Style, Normal';font-variant-ligatures:normal;font-variant-caps:normal;font-variant-numeric:normal;font-variant-east-asian:normal;fill:#030607;fill-opacity:1;stroke:none;stroke-width:0.211058"
         x="3.0874553"
         y="51.475346">(b)</tspan></text><text
       xml:space="preserve"
       style="font-size:22.6959px;font-family:serif;-inkscape-font-specification:serif;fill:#89afc5;stroke:#f1f1f1;stroke-width:0.211057;stroke-linejoin:round"
       x="29.292871"
       y="25.54718"
       id="text42"><tspan
         sodipodi:role="line"
         id="tspan42"
         style="font-style:normal;font-variant:normal;font-weight:normal;font-stretch:normal;font-size:3.02361px;font-family:'Iowan Old Style';-inkscape-font-specification:'Iowan Old Style, Normal';font-variant-ligatures:normal;font-variant-caps:normal;font-variant-numeric:normal;font-variant-east-asian:normal;fill:#030607;fill-opacity:1;stroke:none;stroke-width:0.211058"
         x="29.292871"
         y="25.54718">glass tube</tspan></text><path
       style="fill:none;fill-opacity:1;stroke:#aeaeae;stroke-width:0.199808;stroke-linejoin:round;stroke-dasharray:none;stroke-dashoffset:0;stroke-opacity:1;marker-end:url(#Triangle)"
       d="m 35.901122,26.119875 -0.01979,7.020429"
       id="path42"
       sodipodi:nodetypes="cc" /><text
       xml:space="preserve"
       style="font-size:22.6959px;font-family:serif;-inkscape-font-specification:serif;fill:#89afc5;stroke:#f1f1f1;stroke-width:0.211057;stroke-linejoin:round"
       x="52.153828"
       y="24.861975"
       id="text43"><tspan
         sodipodi:role="line"
         id="tspan43"
         style="font-style:normal;font-variant:normal;font-weight:normal;font-stretch:normal;font-size:3.02361px;font-family:'Iowan Old Style';-inkscape-font-specification:'Iowan Old Style, Normal';font-variant-ligatures:normal;font-variant-caps:normal;font-variant-numeric:normal;font-variant-east-asian:normal;fill:#030607;fill-opacity:1;stroke:none;stroke-width:0.211058"
         x="52.153828"
         y="24.861975">amplifier</tspan></text><path
       style="fill:none;fill-opacity:1;stroke:#aeaeae;stroke-width:0.199808;stroke-linejoin:round;stroke-dasharray:none;stroke-dashoffset:0;stroke-opacity:1;marker-end:url(#Triangle)"
       d="m 58.76208,25.310086 -0.01982,7.020429"
       id="path43"
       sodipodi:nodetypes="cc" /><path
       style="fill:none;fill-opacity:1;stroke:#b1b1b1;stroke-width:0.273;stroke-linejoin:round;stroke-dasharray:none;stroke-dashoffset:0;stroke-opacity:1"
       d="m 25.016747,66.677636 v 1.453563 h 18.256745 v -1.686132"
       id="path44" /><text
       xml:space="preserve"
       style="font-size:22.6959px;font-family:serif;-inkscape-font-specification:serif;fill:#89afc5;stroke:#f1f1f1;stroke-width:0.211057;stroke-linejoin:round"
       x="33.421257"
       y="71.517143"
       id="text44"><tspan
         sodipodi:role="line"
         id="tspan44"
         style="font-style:italic;font-variant:normal;font-weight:normal;font-stretch:normal;font-size:3.02361px;font-family:'Iowan Old Style';-inkscape-font-specification:'Iowan Old Style, Normal';font-variant-ligatures:normal;font-variant-caps:normal;font-variant-numeric:normal;font-variant-east-asian:normal;fill:#030607;fill-opacity:1;stroke:none;stroke-width:0.211058"
         x="33.421257"
         y="71.517143">T</tspan></text><path
       style="fill:none;fill-opacity:1;stroke:#b1b1b1;stroke-width:0.273;stroke-linejoin:round;stroke-dasharray:none;stroke-dashoffset:0;stroke-opacity:1"
       d="M 24.852295,60.018103 V 58.56454 H 43.10904 v 1.686132"
       id="path45" /><text
       xml:space="preserve"
       style="font-size:22.6959px;font-family:serif;-inkscape-font-specification:serif;fill:#89afc5;stroke:#f1f1f1;stroke-width:0.211057;stroke-linejoin:round"
       x="33.092354"
       y="57.250946"
       id="text45"><tspan
         sodipodi:role="line"
         id="tspan45"
         style="font-style:italic;font-variant:normal;font-weight:normal;font-stretch:normal;font-size:3.02361px;font-family:'Iowan Old Style';-inkscape-font-specification:'Iowan Old Style, Normal';font-variant-ligatures:normal;font-variant-caps:normal;font-variant-numeric:normal;font-variant-east-asian:normal;fill:#030607;fill-opacity:1;stroke:none;stroke-width:0.211058"
         x="33.092354"
         y="57.250946">N</tspan></text></g></svg>
