<?xml version="1.0" encoding="utf-8" standalone="no"?>
<!DOCTYPE svg PUBLIC "-//W3C//DTD SVG 1.1//EN"
  "http://www.w3.org/Graphics/SVG/1.1/DTD/svg11.dtd">
<svg xmlns:xlink="http://www.w3.org/1999/xlink" width="360pt" height="333.36pt" viewBox="0 0 360 333.36" xmlns="http://www.w3.org/2000/svg" version="1.1">
 <metadata>
  <rdf:RDF xmlns:dc="http://purl.org/dc/elements/1.1/" xmlns:cc="http://creativecommons.org/ns#" xmlns:rdf="http://www.w3.org/1999/02/22-rdf-syntax-ns#">
   <cc:Work>
    <dc:type rdf:resource="http://purl.org/dc/dcmitype/StillImage"/>
    <dc:date>2023-01-22T16:15:15.727826</dc:date>
    <dc:format>image/svg+xml</dc:format>
    <dc:creator>
     <cc:Agent>
      <dc:title>Matplotlib v3.6.2, https://matplotlib.org/</dc:title>
     </cc:Agent>
    </dc:creator>
   </cc:Work>
  </rdf:RDF>
 </metadata>
 <defs>
  <style type="text/css">*{stroke-linejoin: round; stroke-linecap: butt}</style>
 </defs>
 <g id="figure_1">
  <g id="patch_1">
   <path d="M 0 333.36 
L 360 333.36 
L 360 0 
L 0 0 
z
" style="fill: #ffffff"/>
  </g>
  <g id="axes_1">
   <g id="patch_2">
    <path d="M 45 296.6904 
L 324 296.6904 
L 324 40.0032 
L 45 40.0032 
z
" style="fill: #ffffff"/>
   </g>
   <g id="matplotlib.axis_1">
    <g id="xtick_1">
     <g id="line2d_1">
      <defs>
       <path id="m4759e9aefe" d="M 0 0 
L 0 3.5 
" style="stroke: #000000; stroke-width: 0.8"/>
      </defs>
      <g>
       <use xlink:href="#m4759e9aefe" x="45" y="296.6904" style="stroke: #000000; stroke-width: 0.8"/>
      </g>
     </g>
     <g id="text_1">
      <!-- −1.00 -->
      <g transform="translate(29.677344 311.288837) scale(0.1 -0.1)">
       <defs>
        <path id="DejaVuSans-2212" d="M 678 2272 
L 4684 2272 
L 4684 1741 
L 678 1741 
L 678 2272 
z
" transform="scale(0.015625)"/>
        <path id="DejaVuSans-31" d="M 794 531 
L 1825 531 
L 1825 4091 
L 703 3866 
L 703 4441 
L 1819 4666 
L 2450 4666 
L 2450 531 
L 3481 531 
L 3481 0 
L 794 0 
L 794 531 
z
" transform="scale(0.015625)"/>
        <path id="DejaVuSans-2e" d="M 684 794 
L 1344 794 
L 1344 0 
L 684 0 
L 684 794 
z
" transform="scale(0.015625)"/>
        <path id="DejaVuSans-30" d="M 2034 4250 
Q 1547 4250 1301 3770 
Q 1056 3291 1056 2328 
Q 1056 1369 1301 889 
Q 1547 409 2034 409 
Q 2525 409 2770 889 
Q 3016 1369 3016 2328 
Q 3016 3291 2770 3770 
Q 2525 4250 2034 4250 
z
M 2034 4750 
Q 2819 4750 3233 4129 
Q 3647 3509 3647 2328 
Q 3647 1150 3233 529 
Q 2819 -91 2034 -91 
Q 1250 -91 836 529 
Q 422 1150 422 2328 
Q 422 3509 836 4129 
Q 1250 4750 2034 4750 
z
" transform="scale(0.015625)"/>
       </defs>
       <use xlink:href="#DejaVuSans-2212"/>
       <use xlink:href="#DejaVuSans-31" x="83.789062"/>
       <use xlink:href="#DejaVuSans-2e" x="147.412109"/>
       <use xlink:href="#DejaVuSans-30" x="179.199219"/>
       <use xlink:href="#DejaVuSans-30" x="242.822266"/>
      </g>
     </g>
    </g>
    <g id="xtick_2">
     <g id="line2d_2">
      <g>
       <use xlink:href="#m4759e9aefe" x="79.875" y="296.6904" style="stroke: #000000; stroke-width: 0.8"/>
      </g>
     </g>
     <g id="text_2">
      <!-- −0.75 -->
      <g transform="translate(64.552344 311.288837) scale(0.1 -0.1)">
       <defs>
        <path id="DejaVuSans-37" d="M 525 4666 
L 3525 4666 
L 3525 4397 
L 1831 0 
L 1172 0 
L 2766 4134 
L 525 4134 
L 525 4666 
z
" transform="scale(0.015625)"/>
        <path id="DejaVuSans-35" d="M 691 4666 
L 3169 4666 
L 3169 4134 
L 1269 4134 
L 1269 2991 
Q 1406 3038 1543 3061 
Q 1681 3084 1819 3084 
Q 2600 3084 3056 2656 
Q 3513 2228 3513 1497 
Q 3513 744 3044 326 
Q 2575 -91 1722 -91 
Q 1428 -91 1123 -41 
Q 819 9 494 109 
L 494 744 
Q 775 591 1075 516 
Q 1375 441 1709 441 
Q 2250 441 2565 725 
Q 2881 1009 2881 1497 
Q 2881 1984 2565 2268 
Q 2250 2553 1709 2553 
Q 1456 2553 1204 2497 
Q 953 2441 691 2322 
L 691 4666 
z
" transform="scale(0.015625)"/>
       </defs>
       <use xlink:href="#DejaVuSans-2212"/>
       <use xlink:href="#DejaVuSans-30" x="83.789062"/>
       <use xlink:href="#DejaVuSans-2e" x="147.412109"/>
       <use xlink:href="#DejaVuSans-37" x="179.199219"/>
       <use xlink:href="#DejaVuSans-35" x="242.822266"/>
      </g>
     </g>
    </g>
    <g id="xtick_3">
     <g id="line2d_3">
      <g>
       <use xlink:href="#m4759e9aefe" x="114.75" y="296.6904" style="stroke: #000000; stroke-width: 0.8"/>
      </g>
     </g>
     <g id="text_3">
      <!-- −0.50 -->
      <g transform="translate(99.427344 311.288837) scale(0.1 -0.1)">
       <use xlink:href="#DejaVuSans-2212"/>
       <use xlink:href="#DejaVuSans-30" x="83.789062"/>
       <use xlink:href="#DejaVuSans-2e" x="147.412109"/>
       <use xlink:href="#DejaVuSans-35" x="179.199219"/>
       <use xlink:href="#DejaVuSans-30" x="242.822266"/>
      </g>
     </g>
    </g>
    <g id="xtick_4">
     <g id="line2d_4">
      <g>
       <use xlink:href="#m4759e9aefe" x="149.625" y="296.6904" style="stroke: #000000; stroke-width: 0.8"/>
      </g>
     </g>
     <g id="text_4">
      <!-- −0.25 -->
      <g transform="translate(134.302344 311.288837) scale(0.1 -0.1)">
       <defs>
        <path id="DejaVuSans-32" d="M 1228 531 
L 3431 531 
L 3431 0 
L 469 0 
L 469 531 
Q 828 903 1448 1529 
Q 2069 2156 2228 2338 
Q 2531 2678 2651 2914 
Q 2772 3150 2772 3378 
Q 2772 3750 2511 3984 
Q 2250 4219 1831 4219 
Q 1534 4219 1204 4116 
Q 875 4013 500 3803 
L 500 4441 
Q 881 4594 1212 4672 
Q 1544 4750 1819 4750 
Q 2544 4750 2975 4387 
Q 3406 4025 3406 3419 
Q 3406 3131 3298 2873 
Q 3191 2616 2906 2266 
Q 2828 2175 2409 1742 
Q 1991 1309 1228 531 
z
" transform="scale(0.015625)"/>
       </defs>
       <use xlink:href="#DejaVuSans-2212"/>
       <use xlink:href="#DejaVuSans-30" x="83.789062"/>
       <use xlink:href="#DejaVuSans-2e" x="147.412109"/>
       <use xlink:href="#DejaVuSans-32" x="179.199219"/>
       <use xlink:href="#DejaVuSans-35" x="242.822266"/>
      </g>
     </g>
    </g>
    <g id="xtick_5">
     <g id="line2d_5">
      <g>
       <use xlink:href="#m4759e9aefe" x="184.5" y="296.6904" style="stroke: #000000; stroke-width: 0.8"/>
      </g>
     </g>
     <g id="text_5">
      <!-- 0.00 -->
      <g transform="translate(173.367188 311.288837) scale(0.1 -0.1)">
       <use xlink:href="#DejaVuSans-30"/>
       <use xlink:href="#DejaVuSans-2e" x="63.623047"/>
       <use xlink:href="#DejaVuSans-30" x="95.410156"/>
       <use xlink:href="#DejaVuSans-30" x="159.033203"/>
      </g>
     </g>
    </g>
    <g id="xtick_6">
     <g id="line2d_6">
      <g>
       <use xlink:href="#m4759e9aefe" x="219.375" y="296.6904" style="stroke: #000000; stroke-width: 0.8"/>
      </g>
     </g>
     <g id="text_6">
      <!-- 0.25 -->
      <g transform="translate(208.242188 311.288837) scale(0.1 -0.1)">
       <use xlink:href="#DejaVuSans-30"/>
       <use xlink:href="#DejaVuSans-2e" x="63.623047"/>
       <use xlink:href="#DejaVuSans-32" x="95.410156"/>
       <use xlink:href="#DejaVuSans-35" x="159.033203"/>
      </g>
     </g>
    </g>
    <g id="xtick_7">
     <g id="line2d_7">
      <g>
       <use xlink:href="#m4759e9aefe" x="254.25" y="296.6904" style="stroke: #000000; stroke-width: 0.8"/>
      </g>
     </g>
     <g id="text_7">
      <!-- 0.50 -->
      <g transform="translate(243.117188 311.288837) scale(0.1 -0.1)">
       <use xlink:href="#DejaVuSans-30"/>
       <use xlink:href="#DejaVuSans-2e" x="63.623047"/>
       <use xlink:href="#DejaVuSans-35" x="95.410156"/>
       <use xlink:href="#DejaVuSans-30" x="159.033203"/>
      </g>
     </g>
    </g>
    <g id="xtick_8">
     <g id="line2d_8">
      <g>
       <use xlink:href="#m4759e9aefe" x="289.125" y="296.6904" style="stroke: #000000; stroke-width: 0.8"/>
      </g>
     </g>
     <g id="text_8">
      <!-- 0.75 -->
      <g transform="translate(277.992188 311.288837) scale(0.1 -0.1)">
       <use xlink:href="#DejaVuSans-30"/>
       <use xlink:href="#DejaVuSans-2e" x="63.623047"/>
       <use xlink:href="#DejaVuSans-37" x="95.410156"/>
       <use xlink:href="#DejaVuSans-35" x="159.033203"/>
      </g>
     </g>
    </g>
    <g id="xtick_9">
     <g id="line2d_9">
      <g>
       <use xlink:href="#m4759e9aefe" x="324" y="296.6904" style="stroke: #000000; stroke-width: 0.8"/>
      </g>
     </g>
     <g id="text_9">
      <!-- 1.00 -->
      <g transform="translate(312.867188 311.288837) scale(0.1 -0.1)">
       <use xlink:href="#DejaVuSans-31"/>
       <use xlink:href="#DejaVuSans-2e" x="63.623047"/>
       <use xlink:href="#DejaVuSans-30" x="95.410156"/>
       <use xlink:href="#DejaVuSans-30" x="159.033203"/>
      </g>
     </g>
    </g>
   </g>
   <g id="matplotlib.axis_2">
    <g id="ytick_1">
     <g id="line2d_10">
      <defs>
       <path id="m0440138c5f" d="M 0 0 
L -3.5 0 
" style="stroke: #000000; stroke-width: 0.8"/>
      </defs>
      <g>
       <use xlink:href="#m0440138c5f" x="45" y="296.6904" style="stroke: #000000; stroke-width: 0.8"/>
      </g>
     </g>
     <g id="text_10">
      <!-- −1.00 -->
      <g transform="translate(7.354687 300.489619) scale(0.1 -0.1)">
       <use xlink:href="#DejaVuSans-2212"/>
       <use xlink:href="#DejaVuSans-31" x="83.789062"/>
       <use xlink:href="#DejaVuSans-2e" x="147.412109"/>
       <use xlink:href="#DejaVuSans-30" x="179.199219"/>
       <use xlink:href="#DejaVuSans-30" x="242.822266"/>
      </g>
     </g>
    </g>
    <g id="ytick_2">
     <g id="line2d_11">
      <g>
       <use xlink:href="#m0440138c5f" x="45" y="264.6045" style="stroke: #000000; stroke-width: 0.8"/>
      </g>
     </g>
     <g id="text_11">
      <!-- −0.75 -->
      <g transform="translate(7.354687 268.403719) scale(0.1 -0.1)">
       <use xlink:href="#DejaVuSans-2212"/>
       <use xlink:href="#DejaVuSans-30" x="83.789062"/>
       <use xlink:href="#DejaVuSans-2e" x="147.412109"/>
       <use xlink:href="#DejaVuSans-37" x="179.199219"/>
       <use xlink:href="#DejaVuSans-35" x="242.822266"/>
      </g>
     </g>
    </g>
    <g id="ytick_3">
     <g id="line2d_12">
      <g>
       <use xlink:href="#m0440138c5f" x="45" y="232.5186" style="stroke: #000000; stroke-width: 0.8"/>
      </g>
     </g>
     <g id="text_12">
      <!-- −0.50 -->
      <g transform="translate(7.354687 236.317819) scale(0.1 -0.1)">
       <use xlink:href="#DejaVuSans-2212"/>
       <use xlink:href="#DejaVuSans-30" x="83.789062"/>
       <use xlink:href="#DejaVuSans-2e" x="147.412109"/>
       <use xlink:href="#DejaVuSans-35" x="179.199219"/>
       <use xlink:href="#DejaVuSans-30" x="242.822266"/>
      </g>
     </g>
    </g>
    <g id="ytick_4">
     <g id="line2d_13">
      <g>
       <use xlink:href="#m0440138c5f" x="45" y="200.4327" style="stroke: #000000; stroke-width: 0.8"/>
      </g>
     </g>
     <g id="text_13">
      <!-- −0.25 -->
      <g transform="translate(7.354687 204.231919) scale(0.1 -0.1)">
       <use xlink:href="#DejaVuSans-2212"/>
       <use xlink:href="#DejaVuSans-30" x="83.789062"/>
       <use xlink:href="#DejaVuSans-2e" x="147.412109"/>
       <use xlink:href="#DejaVuSans-32" x="179.199219"/>
       <use xlink:href="#DejaVuSans-35" x="242.822266"/>
      </g>
     </g>
    </g>
    <g id="ytick_5">
     <g id="line2d_14">
      <g>
       <use xlink:href="#m0440138c5f" x="45" y="168.3468" style="stroke: #000000; stroke-width: 0.8"/>
      </g>
     </g>
     <g id="text_14">
      <!-- 0.00 -->
      <g transform="translate(15.734375 172.146019) scale(0.1 -0.1)">
       <use xlink:href="#DejaVuSans-30"/>
       <use xlink:href="#DejaVuSans-2e" x="63.623047"/>
       <use xlink:href="#DejaVuSans-30" x="95.410156"/>
       <use xlink:href="#DejaVuSans-30" x="159.033203"/>
      </g>
     </g>
    </g>
    <g id="ytick_6">
     <g id="line2d_15">
      <g>
       <use xlink:href="#m0440138c5f" x="45" y="136.2609" style="stroke: #000000; stroke-width: 0.8"/>
      </g>
     </g>
     <g id="text_15">
      <!-- 0.25 -->
      <g transform="translate(15.734375 140.060119) scale(0.1 -0.1)">
       <use xlink:href="#DejaVuSans-30"/>
       <use xlink:href="#DejaVuSans-2e" x="63.623047"/>
       <use xlink:href="#DejaVuSans-32" x="95.410156"/>
       <use xlink:href="#DejaVuSans-35" x="159.033203"/>
      </g>
     </g>
    </g>
    <g id="ytick_7">
     <g id="line2d_16">
      <g>
       <use xlink:href="#m0440138c5f" x="45" y="104.175" style="stroke: #000000; stroke-width: 0.8"/>
      </g>
     </g>
     <g id="text_16">
      <!-- 0.50 -->
      <g transform="translate(15.734375 107.974219) scale(0.1 -0.1)">
       <use xlink:href="#DejaVuSans-30"/>
       <use xlink:href="#DejaVuSans-2e" x="63.623047"/>
       <use xlink:href="#DejaVuSans-35" x="95.410156"/>
       <use xlink:href="#DejaVuSans-30" x="159.033203"/>
      </g>
     </g>
    </g>
    <g id="ytick_8">
     <g id="line2d_17">
      <g>
       <use xlink:href="#m0440138c5f" x="45" y="72.0891" style="stroke: #000000; stroke-width: 0.8"/>
      </g>
     </g>
     <g id="text_17">
      <!-- 0.75 -->
      <g transform="translate(15.734375 75.888319) scale(0.1 -0.1)">
       <use xlink:href="#DejaVuSans-30"/>
       <use xlink:href="#DejaVuSans-2e" x="63.623047"/>
       <use xlink:href="#DejaVuSans-37" x="95.410156"/>
       <use xlink:href="#DejaVuSans-35" x="159.033203"/>
      </g>
     </g>
    </g>
    <g id="ytick_9">
     <g id="line2d_18">
      <g>
       <use xlink:href="#m0440138c5f" x="45" y="40.0032" style="stroke: #000000; stroke-width: 0.8"/>
      </g>
     </g>
     <g id="text_18">
      <!-- 1.00 -->
      <g transform="translate(15.734375 43.802419) scale(0.1 -0.1)">
       <use xlink:href="#DejaVuSans-31"/>
       <use xlink:href="#DejaVuSans-2e" x="63.623047"/>
       <use xlink:href="#DejaVuSans-30" x="95.410156"/>
       <use xlink:href="#DejaVuSans-30" x="159.033203"/>
      </g>
     </g>
    </g>
   </g>
   <g id="line2d_19">
    <path d="M 324 168.3468 
L 323.930472 164.295179 
L 323.721956 160.247596 
L 323.374661 156.208087 
L 322.888933 152.180678 
L 322.265255 148.169384 
L 321.50425 144.178203 
L 320.606676 140.211114 
L 319.573429 136.272071 
L 318.405537 132.365001 
L 317.104165 128.493798 
L 315.67061 124.662322 
L 314.106302 120.874391 
L 312.412799 117.133782 
L 310.59179 113.444223 
L 308.64509 109.809392 
L 306.57464 106.232912 
L 304.382502 102.718349 
L 302.070864 99.269206 
L 299.642028 95.888921 
L 297.098416 92.580864 
L 294.442563 89.348331 
L 291.677118 86.194546 
L 288.804836 83.122653 
L 285.82858 80.135712 
L 282.751318 77.236702 
L 279.576117 74.428513 
L 276.306142 71.713943 
L 272.944653 69.0957 
L 269.495 66.576392 
L 265.960622 64.15853 
L 262.345043 61.844526 
L 258.651866 59.636686 
L 254.884773 57.537211 
L 251.047518 55.548192 
L 247.143928 53.671614 
L 243.177893 51.909347 
L 239.153366 50.263147 
L 235.07436 48.734655 
L 230.94494 47.325396 
L 226.769223 46.036773 
L 222.551371 44.870071 
L 218.295588 43.826454 
L 214.006117 42.906961 
L 209.687234 42.112509 
L 205.343244 41.443891 
L 200.978477 40.901772 
L 196.597284 40.486693 
L 192.204031 40.199068 
L 187.8031 40.039183 
L 183.398875 40.007198 
L 178.995749 40.103145 
L 174.598109 40.326928 
L 170.210339 40.678324 
L 165.836814 41.156982 
L 161.481893 41.762426 
L 157.149916 42.494053 
L 152.845203 43.351132 
L 148.572044 44.332809 
L 144.334698 45.438106 
L 140.137391 46.665921 
L 135.984305 48.015031 
L 131.87958 49.48409 
L 127.827309 51.071633 
L 123.83153 52.776079 
L 119.896227 54.595729 
L 116.025322 56.528768 
L 112.222674 58.573269 
L 108.492074 60.727196 
L 104.837241 62.9884 
L 101.261816 65.354627 
L 97.769366 67.823519 
L 94.36337 70.392615 
L 91.047225 73.059354 
L 87.824235 75.821078 
L 84.697614 78.675033 
L 81.670478 81.618375 
L 78.745845 84.64817 
L 75.92663 87.761397 
L 73.215643 90.954954 
L 70.615587 94.225656 
L 68.129053 97.570244 
L 65.75852 100.985384 
L 63.506352 104.467671 
L 61.374792 108.013634 
L 59.365967 111.619739 
L 57.481878 115.28239 
L 55.724403 118.997937 
L 54.095294 122.762676 
L 52.596176 126.572854 
L 51.228542 130.424674 
L 49.993756 134.314295 
L 48.893049 138.23784 
L 47.927518 142.191399 
L 47.098126 146.17103 
L 46.405698 150.172766 
L 45.850926 154.192619 
L 45.434362 158.22658 
L 45.156422 162.27063 
L 45.017383 166.320737 
L 45.017383 170.372863 
L 45.156422 174.42297 
L 45.434362 178.46702 
L 45.850926 182.500981 
L 46.405698 186.520834 
L 47.098126 190.52257 
L 47.927518 194.502201 
L 48.893049 198.45576 
L 49.993756 202.379305 
L 51.228542 206.268926 
L 52.596176 210.120746 
L 54.095294 213.930924 
L 55.724403 217.695663 
L 57.481878 221.41121 
L 59.365967 225.073861 
L 61.374792 228.679966 
L 63.506352 232.225929 
L 65.75852 235.708216 
L 68.129053 239.123356 
L 70.615587 242.467944 
L 73.215643 245.738646 
L 75.92663 248.932203 
L 78.745845 252.04543 
L 81.670478 255.075225 
L 84.697614 258.018567 
L 87.824235 260.872522 
L 91.047225 263.634246 
L 94.36337 266.300985 
L 97.769366 268.870081 
L 101.261816 271.338973 
L 104.837241 273.7052 
L 108.492074 275.966404 
L 112.222674 278.120331 
L 116.025322 280.164832 
L 119.896227 282.097871 
L 123.83153 283.917521 
L 127.827309 285.621967 
L 131.87958 287.20951 
L 135.984305 288.678569 
L 140.137391 290.027679 
L 144.334698 291.255494 
L 148.572044 292.360791 
L 152.845203 293.342468 
L 157.149916 294.199547 
L 161.481893 294.931174 
L 165.836814 295.536618 
L 170.210339 296.015276 
L 174.598109 296.366672 
L 178.995749 296.590455 
L 183.398875 296.686402 
L 187.8031 296.654417 
L 192.204031 296.494532 
L 196.597284 296.206907 
L 200.978477 295.791828 
L 205.343244 295.249709 
L 209.687234 294.581091 
L 214.006117 293.786639 
L 218.295588 292.867146 
L 222.551371 291.823529 
L 226.769223 290.656827 
L 230.94494 289.368204 
L 235.07436 287.958945 
L 239.153366 286.430453 
L 243.177893 284.784253 
L 247.143928 283.021986 
L 251.047518 281.145408 
L 254.884773 279.156389 
L 258.651866 277.056914 
L 262.345043 274.849074 
L 265.960622 272.53507 
L 269.495 270.117208 
L 272.944653 267.5979 
L 276.306142 264.979657 
L 279.576117 262.265087 
L 282.751318 259.456898 
L 285.82858 256.557888 
L 288.804836 253.570947 
L 291.677118 250.499054 
L 294.442563 247.345269 
L 297.098416 244.112736 
L 299.642028 240.804679 
L 302.070864 237.424394 
L 304.382502 233.975251 
L 306.57464 230.460688 
L 308.64509 226.884208 
L 310.59179 223.249377 
L 312.412799 219.559818 
L 314.106302 215.819209 
L 315.67061 212.031278 
L 317.104165 208.199802 
L 318.405537 204.328599 
L 319.573429 200.421529 
L 320.606676 196.482486 
L 321.50425 192.515397 
L 322.265255 188.524216 
L 322.888933 184.512922 
L 323.374661 180.485513 
L 323.721956 176.446004 
L 323.930472 172.398421 
L 324 168.3468 
L 324 168.3468 
" clip-path="url(#p0f58b8161e)" style="fill: none; stroke-dasharray: 5.55,2.4; stroke-dashoffset: 0; stroke: #0000ff; stroke-opacity: 0.2; stroke-width: 1.5"/>
   </g>
   <g id="line2d_20">
    <path d="M 184.5 168.3468 
L 197.575859 161.742503 
L 205.889298 157.234606 
L 209.837928 154.926715 
L 213.611726 152.573677 
L 217.185447 150.169181 
L 220.53558 147.707463 
L 223.640552 145.183383 
L 226.480906 142.592489 
L 229.039474 139.931085 
L 231.301519 137.19629 
L 233.254862 134.386097 
L 234.889977 131.49942 
L 236.200077 128.536142 
L 237.18116 125.497153 
L 237.83204 122.384379 
L 238.15435 119.20081 
L 238.152521 115.950509 
L 237.833731 112.638626 
L 237.207838 109.271385 
L 236.287283 105.856078 
L 235.08697 102.401038 
L 233.624129 98.915605 
L 231.918151 95.41008 
L 229.990412 91.895667 
L 227.864073 88.384411 
L 225.563868 84.889115 
L 223.115872 81.423253 
L 217.8861 74.636494 
L 212.400953 68.141428 
L 206.892021 62.058985 
L 201.587859 56.50957 
L 194.485672 49.435198 
L 186.432897 41.789896 
L 184.508691 40.011196 
L 193.441025 48.423111 
L 200.319633 55.219211 
L 205.538042 60.617029 
L 211.016905 66.577389 
L 216.529736 72.980688 
L 221.844912 79.705731 
L 224.356668 83.151639 
L 226.734103 86.633941 
L 228.950556 90.138861 
L 230.980593 93.65325 
L 232.80024 97.164674 
L 234.387202 100.661499 
L 235.721072 104.132964 
L 236.783518 107.569243 
L 237.558454 110.961494 
L 238.032192 114.301902 
L 238.193568 117.583704 
L 238.034054 120.801215 
L 237.547839 123.949827 
L 236.731886 127.026016 
L 235.58597 130.027325 
L 234.112687 132.95235 
L 232.317437 135.800708 
L 230.208385 138.573008 
L 227.796393 141.2708 
L 225.094935 143.896537 
L 222.119979 146.453513 
L 218.889858 148.945811 
L 215.425108 151.378235 
L 211.748297 153.756246 
L 207.883828 156.08589 
L 199.697434 160.626755 
L 191.089544 165.0581 
L 186.701632 167.251901 
L 182.298368 167.251901 
L 173.568464 162.852333 
L 165.14227 158.373727 
L 161.116172 156.08589 
L 157.251703 153.756246 
L 153.574892 151.378235 
L 150.110142 148.945811 
L 146.880021 146.453513 
L 143.905065 143.896537 
L 141.203607 141.2708 
L 138.791615 138.573008 
L 136.682563 135.800708 
L 134.887313 132.95235 
L 133.41403 130.027325 
L 132.268114 127.026016 
L 131.452161 123.949827 
L 130.965946 120.801215 
L 130.806432 117.583704 
L 130.967808 114.301902 
L 131.441546 110.961494 
L 132.216482 107.569243 
L 133.278928 104.132964 
L 134.612798 100.661499 
L 136.19976 97.164674 
L 138.019407 93.65325 
L 140.049444 90.138861 
L 142.265897 86.633941 
L 144.643332 83.151639 
L 147.155088 79.705731 
L 152.470264 72.980688 
L 157.983095 66.577389 
L 163.461958 60.617029 
L 168.680367 55.219211 
L 175.558975 48.423111 
L 183.798924 40.649297 
L 184.491309 40.011196 
L 176.5565 47.462729 
L 169.91889 53.971163 
L 164.799594 59.210262 
L 159.364994 65.041041 
L 153.838998 71.344979 
L 148.45273 78.000874 
L 145.884128 81.423253 
L 143.436132 84.889115 
L 141.135927 88.384411 
L 139.009588 91.895667 
L 137.081849 95.41008 
L 135.375871 98.915605 
L 133.91303 102.401038 
L 132.712717 105.856078 
L 131.792162 109.271385 
L 131.166269 112.638626 
L 130.847479 115.950509 
L 130.84565 119.20081 
L 131.16796 122.384379 
L 131.81884 125.497153 
L 132.799923 128.536142 
L 134.110023 131.49942 
L 135.745138 134.386097 
L 137.698481 137.19629 
L 139.960526 139.931085 
L 142.519094 142.592489 
L 145.359448 145.183383 
L 148.46442 147.707463 
L 151.814553 150.169181 
L 155.388274 152.573677 
L 159.162072 154.926715 
L 167.207406 159.50414 
L 175.731822 163.957206 
L 184.5 168.3468 
L 184.5 168.3468 
" clip-path="url(#p0f58b8161e)" style="fill: none; stroke: #ff0000; stroke-opacity: 0.2; stroke-width: 1.5; stroke-linecap: square"/>
   </g>
   <g id="line2d_21">
    <defs>
     <path id="mc952ecb32e" d="M 0 3 
C 0.795609 3 1.55874 2.683901 2.12132 2.12132 
C 2.683901 1.55874 3 0.795609 3 0 
C 3 -0.795609 2.683901 -1.55874 2.12132 -2.12132 
C 1.55874 -2.683901 0.795609 -3 0 -3 
C -0.795609 -3 -1.55874 -2.683901 -2.12132 -2.12132 
C -2.683901 -1.55874 -3 -0.795609 -3 0 
C -3 0.795609 -2.683901 1.55874 -2.12132 2.12132 
C -1.55874 2.683901 -0.795609 3 0 3 
z
" style="stroke: #ff0000; stroke-opacity: 0.8"/>
    </defs>
    <g clip-path="url(#p0f58b8161e)">
     <use xlink:href="#mc952ecb32e" x="324" y="168.3468" style="fill-opacity: 0; stroke: #ff0000; stroke-opacity: 0.8"/>
    </g>
   </g>
   <g id="line2d_22">
    <defs>
     <path id="m3fb6219181" d="M -3 3 
L 3 -3 
M -3 -3 
L 3 3 
" style="stroke: #ff0000; stroke-opacity: 0.8"/>
    </defs>
    <g clip-path="url(#p0f58b8161e)">
     <use xlink:href="#m3fb6219181" x="184.5" y="168.3468" style="fill: #ff0000; fill-opacity: 0.8; stroke: #ff0000; stroke-opacity: 0.8"/>
    </g>
   </g>
   <g id="line2d_23">
    <defs>
     <path id="m467a446305" d="M 0 3 
C 0.795609 3 1.55874 2.683901 2.12132 2.12132 
C 2.683901 1.55874 3 0.795609 3 0 
C 3 -0.795609 2.683901 -1.55874 2.12132 -2.12132 
C 1.55874 -2.683901 0.795609 -3 0 -3 
C -0.795609 -3 -1.55874 -2.683901 -2.12132 -2.12132 
C -2.683901 -1.55874 -3 -0.795609 -3 0 
C -3 0.795609 -2.683901 1.55874 -2.12132 2.12132 
C -1.55874 2.683901 -0.795609 3 0 3 
z
" style="stroke: #008000; stroke-opacity: 0.8"/>
    </defs>
    <g clip-path="url(#p0f58b8161e)">
     <use xlink:href="#m467a446305" x="305.310544" y="104.175" style="fill-opacity: 0; stroke: #008000; stroke-opacity: 0.8"/>
    </g>
   </g>
   <g id="line2d_24">
    <defs>
     <path id="mea82fc9fc0" d="M -3 3 
L 3 -3 
M -3 -3 
L 3 3 
" style="stroke: #008000; stroke-opacity: 0.8"/>
    </defs>
    <g clip-path="url(#p0f58b8161e)">
     <use xlink:href="#mea82fc9fc0" x="236.8125" y="126.7725" style="fill: #008000; fill-opacity: 0.8; stroke: #008000; stroke-opacity: 0.8"/>
    </g>
   </g>
   <g id="line2d_25">
    <defs>
     <path id="m61108a9d8f" d="M 0 3 
C 0.795609 3 1.55874 2.683901 2.12132 2.12132 
C 2.683901 1.55874 3 0.795609 3 0 
C 3 -0.795609 2.683901 -1.55874 2.12132 -2.12132 
C 1.55874 -2.683901 0.795609 -3 0 -3 
C -0.795609 -3 -1.55874 -2.683901 -2.12132 -2.12132 
C -2.683901 -1.55874 -3 -0.795609 -3 0 
C -3 0.795609 -2.683901 1.55874 -2.12132 2.12132 
C -1.55874 2.683901 -0.795609 3 0 3 
z
" style="stroke: #0000ff; stroke-opacity: 0.8"/>
    </defs>
    <g clip-path="url(#p0f58b8161e)">
     <use xlink:href="#m61108a9d8f" x="254.25" y="57.197982" style="fill-opacity: 0; stroke: #0000ff; stroke-opacity: 0.8"/>
    </g>
   </g>
   <g id="line2d_26">
    <defs>
     <path id="m0c20adc071" d="M -3 3 
L 3 -3 
M -3 -3 
L 3 3 
" style="stroke: #0000ff; stroke-opacity: 0.8"/>
    </defs>
    <g clip-path="url(#p0f58b8161e)">
     <use xlink:href="#m0c20adc071" x="214.702636" y="70.804536" style="fill: #0000ff; fill-opacity: 0.8; stroke: #0000ff; stroke-opacity: 0.8"/>
    </g>
   </g>
   <g id="line2d_27">
    <defs>
     <path id="mb653e914f7" d="M 0 3 
C 0.795609 3 1.55874 2.683901 2.12132 2.12132 
C 2.683901 1.55874 3 0.795609 3 0 
C 3 -0.795609 2.683901 -1.55874 2.12132 -2.12132 
C 1.55874 -2.683901 0.795609 -3 0 -3 
C -0.795609 -3 -1.55874 -2.683901 -2.12132 -2.12132 
C -2.683901 -1.55874 -3 -0.795609 -3 0 
C -3 0.795609 -2.683901 1.55874 -2.12132 2.12132 
C -1.55874 2.683901 -0.795609 3 0 3 
z
" style="stroke: #00bfbf; stroke-opacity: 0.8"/>
    </defs>
    <g clip-path="url(#p0f58b8161e)">
     <use xlink:href="#mb653e914f7" x="184.5" y="40.0032" style="fill-opacity: 0; stroke: #00bfbf; stroke-opacity: 0.8"/>
    </g>
   </g>
   <g id="line2d_28">
    <defs>
     <path id="meaaefd004e" d="M -3 3 
L 3 -3 
M -3 -3 
L 3 3 
" style="stroke: #00bfbf; stroke-opacity: 0.8"/>
    </defs>
    <g clip-path="url(#p0f58b8161e)">
     <use xlink:href="#meaaefd004e" x="184.5" y="40.0032" style="fill: #00bfbf; fill-opacity: 0.8; stroke: #00bfbf; stroke-opacity: 0.8"/>
    </g>
   </g>
   <g id="line2d_29">
    <defs>
     <path id="m6784b33dac" d="M 0 3 
C 0.795609 3 1.55874 2.683901 2.12132 2.12132 
C 2.683901 1.55874 3 0.795609 3 0 
C 3 -0.795609 2.683901 -1.55874 2.12132 -2.12132 
C 1.55874 -2.683901 0.795609 -3 0 -3 
C -0.795609 -3 -1.55874 -2.683901 -2.12132 -2.12132 
C -2.683901 -1.55874 -3 -0.795609 -3 0 
C -3 0.795609 -2.683901 1.55874 -2.12132 2.12132 
C -1.55874 2.683901 -0.795609 3 0 3 
z
" style="stroke: #bf00bf; stroke-opacity: 0.8"/>
    </defs>
    <g clip-path="url(#p0f58b8161e)">
     <use xlink:href="#m6784b33dac" x="114.75" y="57.197982" style="fill-opacity: 0; stroke: #bf00bf; stroke-opacity: 0.8"/>
    </g>
   </g>
   <g id="line2d_30">
    <defs>
     <path id="ma6638e0df3" d="M -3 3 
L 3 -3 
M -3 -3 
L 3 3 
" style="stroke: #bf00bf; stroke-opacity: 0.8"/>
    </defs>
    <g clip-path="url(#p0f58b8161e)">
     <use xlink:href="#ma6638e0df3" x="214.702636" y="70.804536" style="fill: #bf00bf; fill-opacity: 0.8; stroke: #bf00bf; stroke-opacity: 0.8"/>
    </g>
   </g>
   <g id="line2d_31">
    <defs>
     <path id="m5436af2a25" d="M 0 3 
C 0.795609 3 1.55874 2.683901 2.12132 2.12132 
C 2.683901 1.55874 3 0.795609 3 0 
C 3 -0.795609 2.683901 -1.55874 2.12132 -2.12132 
C 1.55874 -2.683901 0.795609 -3 0 -3 
C -0.795609 -3 -1.55874 -2.683901 -2.12132 -2.12132 
C -2.683901 -1.55874 -3 -0.795609 -3 0 
C -3 0.795609 -2.683901 1.55874 -2.12132 2.12132 
C -1.55874 2.683901 -0.795609 3 0 3 
z
" style="stroke: #000000; stroke-opacity: 0.8"/>
    </defs>
    <g clip-path="url(#p0f58b8161e)">
     <use xlink:href="#m5436af2a25" x="63.689456" y="104.175" style="fill-opacity: 0; stroke: #000000; stroke-opacity: 0.8"/>
    </g>
   </g>
   <g id="line2d_32">
    <defs>
     <path id="m211ef3fb96" d="M -3 3 
L 3 -3 
M -3 -3 
L 3 3 
" style="stroke: #000000; stroke-opacity: 0.8"/>
    </defs>
    <g clip-path="url(#p0f58b8161e)">
     <use xlink:href="#m211ef3fb96" x="236.8125" y="126.7725" style="fill-opacity: 0.8; stroke: #000000; stroke-opacity: 0.8"/>
    </g>
   </g>
   <g id="patch_3">
    <path d="M 45 296.6904 
L 45 40.0032 
" style="fill: none; stroke: #000000; stroke-width: 0.8; stroke-linejoin: miter; stroke-linecap: square"/>
   </g>
   <g id="patch_4">
    <path d="M 324 296.6904 
L 324 40.0032 
" style="fill: none; stroke: #000000; stroke-width: 0.8; stroke-linejoin: miter; stroke-linecap: square"/>
   </g>
   <g id="patch_5">
    <path d="M 45 296.6904 
L 324 296.6904 
" style="fill: none; stroke: #000000; stroke-width: 0.8; stroke-linejoin: miter; stroke-linecap: square"/>
   </g>
   <g id="patch_6">
    <path d="M 45 40.0032 
L 324 40.0032 
" style="fill: none; stroke: #000000; stroke-width: 0.8; stroke-linejoin: miter; stroke-linecap: square"/>
   </g>
  </g>
 </g>
 <defs>
  <clipPath id="p0f58b8161e">
   <rect x="45" y="40.0032" width="279" height="256.6872"/>
  </clipPath>
 </defs>
</svg>
