<?xml version="1.0" encoding="UTF-8" standalone="no"?>
<svg
   width="360pt"
   height="333.36pt"
   viewBox="0 0 360 333.36"
   version="1.1"
   id="svg122338"
   sodipodi:docname="operatorAction_v2B.svg"
   inkscape:version="1.2.2 (b0a8486541, 2022-12-01)"
   xmlns:inkscape="http://www.inkscape.org/namespaces/inkscape"
   xmlns:sodipodi="http://sodipodi.sourceforge.net/DTD/sodipodi-0.dtd"
   xmlns:xlink="http://www.w3.org/1999/xlink"
   xmlns="http://www.w3.org/2000/svg"
   xmlns:svg="http://www.w3.org/2000/svg"
   xmlns:rdf="http://www.w3.org/1999/02/22-rdf-syntax-ns#"
   xmlns:cc="http://creativecommons.org/ns#"
   xmlns:dc="http://purl.org/dc/elements/1.1/">
  <sodipodi:namedview
     id="namedview122340"
     pagecolor="#ffffff"
     bordercolor="#000000"
     borderopacity="0.25"
     inkscape:showpageshadow="2"
     inkscape:pageopacity="0.0"
     inkscape:pagecheckerboard="0"
     inkscape:deskcolor="#d1d1d1"
     inkscape:document-units="pt"
     showgrid="false"
     inkscape:zoom="0.53095755"
     inkscape:cx="240.13219"
     inkscape:cy="222.23999"
     inkscape:window-width="1280"
     inkscape:window-height="731"
     inkscape:window-x="0"
     inkscape:window-y="0"
     inkscape:window-maximized="1"
     inkscape:current-layer="svg122338" />
  <metadata
     id="metadata122018">
    <rdf:RDF>
      <cc:Work>
        <dc:type
           rdf:resource="http://purl.org/dc/dcmitype/StillImage" />
        <dc:date>2023-01-22T15:44:59.481978</dc:date>
        <dc:format>image/svg+xml</dc:format>
        <dc:creator>
          <cc:Agent>
            <dc:title>Matplotlib v3.6.2, https://matplotlib.org/</dc:title>
          </cc:Agent>
        </dc:creator>
      </cc:Work>
    </rdf:RDF>
  </metadata>
  <defs
     id="defs122022">
    <style
       type="text/css"
       id="style122020">*{stroke-linejoin: round; stroke-linecap: butt}</style>
  </defs>
  <g
     id="g124196">
    <g
       id="matplotlib.axis_1">
      <g
         id="xtick_1">
        <g
           id="line2d_1">
          <defs
             id="defs122031">
            <path
               id="m5e4ae374b9"
               d="M 0,0 V 3.5"
               style="stroke:#000000;stroke-width:0.8" />
          </defs>
          <g
             id="g122035">
            <use
               xlink:href="#m5e4ae374b9"
               x="48.58812"
               y="296.6904"
               style="stroke:#000000;stroke-width:0.8"
               id="use122033" />
          </g>
        </g>
        <g
           id="text_1">
          <!-- −3 -->
          <g
             transform="matrix(0.1,0,0,-0.1,41.217027,311.28884)"
             id="g122046">
            <defs
               id="defs122040">
              <path
                 id="DejaVuSans-2212"
                 d="M 678,2272 H 4684 V 1741 H 678 Z"
                 transform="scale(0.015625)" />
              <path
                 id="DejaVuSans-33"
                 d="m 2597,2516 q 453,-97 707,-404 255,-306 255,-756 0,-690 -475,-1069 -475,-378 -1350,-378 -293,0 -604,58 -311,58 -642,174 v 609 q 262,-153 574,-231 313,-78 654,-78 593,0 904,234 311,234 311,681 0,413 -289,645 -289,233 -804,233 h -544 v 519 h 569 q 465,0 712,186 247,186 247,536 0,359 -255,551 -254,193 -729,193 -260,0 -557,-57 -297,-56 -653,-174 v 562 q 360,100 674,150 314,50 592,50 719,0 1137,-327 419,-326 419,-882 0,-388 -222,-655 -222,-267 -631,-370 z"
                 transform="scale(0.015625)" />
            </defs>
            <use
               xlink:href="#DejaVuSans-2212"
               id="use122042" />
            <use
               xlink:href="#DejaVuSans-33"
               x="83.789062"
               id="use122044" />
          </g>
        </g>
      </g>
      <g
         id="xtick_2">
        <g
           id="line2d_2">
          <g
             id="g122052">
            <use
               xlink:href="#m5e4ae374b9"
               x="93.892082"
               y="296.6904"
               style="stroke:#000000;stroke-width:0.8"
               id="use122050" />
          </g>
        </g>
        <g
           id="text_2">
          <!-- −2 -->
          <g
             transform="matrix(0.1,0,0,-0.1,86.520986,311.28884)"
             id="g122062">
            <defs
               id="defs122056">
              <path
                 id="DejaVuSans-32"
                 d="M 1228,531 H 3431 V 0 H 469 v 531 q 359,372 979,998 621,627 780,809 303,340 423,576 121,236 121,464 0,372 -261,606 -261,235 -680,235 -297,0 -627,-103 -329,-103 -704,-313 v 638 q 381,153 712,231 332,78 607,78 725,0 1156,-363 431,-362 431,-968 0,-288 -108,-546 -107,-257 -392,-607 -78,-91 -497,-524 Q 1991,1309 1228,531 Z"
                 transform="scale(0.015625)" />
            </defs>
            <use
               xlink:href="#DejaVuSans-2212"
               id="use122058" />
            <use
               xlink:href="#DejaVuSans-32"
               x="83.789062"
               id="use122060" />
          </g>
        </g>
      </g>
      <g
         id="xtick_3">
        <g
           id="line2d_3">
          <g
             id="g122068">
            <use
               xlink:href="#m5e4ae374b9"
               x="139.19604"
               y="296.6904"
               style="stroke:#000000;stroke-width:0.8"
               id="use122066" />
          </g>
        </g>
        <g
           id="text_3">
          <!-- −1 -->
          <g
             transform="matrix(0.1,0,0,-0.1,131.82495,311.28884)"
             id="g122078">
            <defs
               id="defs122072">
              <path
                 id="DejaVuSans-31"
                 d="M 794,531 H 1825 V 4091 L 703,3866 v 575 l 1116,225 h 631 V 531 H 3481 V 0 H 794 Z"
                 transform="scale(0.015625)" />
            </defs>
            <use
               xlink:href="#DejaVuSans-2212"
               id="use122074" />
            <use
               xlink:href="#DejaVuSans-31"
               x="83.789062"
               id="use122076" />
          </g>
        </g>
      </g>
      <g
         id="xtick_4">
        <g
           id="line2d_4">
          <g
             id="g122084">
            <use
               xlink:href="#m5e4ae374b9"
               x="184.5"
               y="296.6904"
               style="stroke:#000000;stroke-width:0.8"
               id="use122082" />
          </g>
        </g>
        <g
           id="text_4">
          <!-- 0 -->
          <g
             transform="matrix(0.1,0,0,-0.1,181.31875,311.28884)"
             id="g122092">
            <defs
               id="defs122088">
              <path
                 id="DejaVuSans-30"
                 d="m 2034,4250 q -487,0 -733,-480 -245,-479 -245,-1442 0,-959 245,-1439 246,-480 733,-480 491,0 736,480 246,480 246,1439 0,963 -246,1442 -245,480 -736,480 z m 0,500 q 785,0 1199,-621 414,-620 414,-1801 0,-1178 -414,-1799 -414,-620 -1199,-620 -784,0 -1198,620 -414,621 -414,1799 0,1181 414,1801 414,621 1198,621 z"
                 transform="scale(0.015625)" />
            </defs>
            <use
               xlink:href="#DejaVuSans-30"
               id="use122090" />
          </g>
        </g>
      </g>
      <g
         id="xtick_5">
        <g
           id="line2d_5">
          <g
             id="g122098">
            <use
               xlink:href="#m5e4ae374b9"
               x="229.80396"
               y="296.6904"
               style="stroke:#000000;stroke-width:0.8"
               id="use122096" />
          </g>
        </g>
        <g
           id="text_5">
          <!-- 1 -->
          <g
             transform="matrix(0.1,0,0,-0.1,226.62271,311.28884)"
             id="g122103">
            <use
               xlink:href="#DejaVuSans-31"
               id="use122101" />
          </g>
        </g>
      </g>
      <g
         id="xtick_6">
        <g
           id="line2d_6">
          <g
             id="g122109">
            <use
               xlink:href="#m5e4ae374b9"
               x="275.10791"
               y="296.6904"
               style="stroke:#000000;stroke-width:0.8"
               id="use122107" />
          </g>
        </g>
        <g
           id="text_6">
          <!-- 2 -->
          <g
             transform="matrix(0.1,0,0,-0.1,271.92667,311.28884)"
             id="g122114">
            <use
               xlink:href="#DejaVuSans-32"
               id="use122112" />
          </g>
        </g>
      </g>
      <g
         id="xtick_7">
        <g
           id="line2d_7">
          <g
             id="g122120">
            <use
               xlink:href="#m5e4ae374b9"
               x="320.41187"
               y="296.6904"
               style="stroke:#000000;stroke-width:0.8"
               id="use122118" />
          </g>
        </g>
        <g
           id="text_7">
          <!-- 3 -->
          <g
             transform="matrix(0.1,0,0,-0.1,317.23063,311.28884)"
             id="g122125">
            <use
               xlink:href="#DejaVuSans-33"
               id="use122123" />
          </g>
        </g>
      </g>
    </g>
    <g
       id="matplotlib.axis_2">
      <g
         id="ytick_1">
        <g
           id="line2d_8">
          <defs
             id="defs122131">
            <path
               id="m34153d5df8"
               d="M 0,0 H -3.5"
               style="stroke:#000000;stroke-width:0.8" />
          </defs>
          <g
             id="g122135">
            <use
               xlink:href="#m34153d5df8"
               x="45"
               y="293.38925"
               style="stroke:#000000;stroke-width:0.8"
               id="use122133" />
          </g>
        </g>
        <g
           id="text_8">
          <!-- −3 -->
          <g
             transform="matrix(0.1,0,0,-0.1,23.257812,297.18845)"
             id="g122142">
            <use
               xlink:href="#DejaVuSans-2212"
               id="use122138" />
            <use
               xlink:href="#DejaVuSans-33"
               x="83.789062"
               id="use122140" />
          </g>
        </g>
      </g>
      <g
         id="ytick_2">
        <g
           id="line2d_9">
          <g
             id="g122148">
            <use
               xlink:href="#m34153d5df8"
               x="45"
               y="251.70842"
               style="stroke:#000000;stroke-width:0.8"
               id="use122146" />
          </g>
        </g>
        <g
           id="text_9">
          <!-- −2 -->
          <g
             transform="matrix(0.1,0,0,-0.1,23.257812,255.50764)"
             id="g122155">
            <use
               xlink:href="#DejaVuSans-2212"
               id="use122151" />
            <use
               xlink:href="#DejaVuSans-32"
               x="83.789062"
               id="use122153" />
          </g>
        </g>
      </g>
      <g
         id="ytick_3">
        <g
           id="line2d_10">
          <g
             id="g122161">
            <use
               xlink:href="#m34153d5df8"
               x="45"
               y="210.02762"
               style="stroke:#000000;stroke-width:0.8"
               id="use122159" />
          </g>
        </g>
        <g
           id="text_10">
          <!-- −1 -->
          <g
             transform="matrix(0.1,0,0,-0.1,23.257812,213.82683)"
             id="g122168">
            <use
               xlink:href="#DejaVuSans-2212"
               id="use122164" />
            <use
               xlink:href="#DejaVuSans-31"
               x="83.789062"
               id="use122166" />
          </g>
        </g>
      </g>
      <g
         id="ytick_4">
        <g
           id="line2d_11">
          <g
             id="g122174">
            <use
               xlink:href="#m34153d5df8"
               x="45"
               y="168.3468"
               style="stroke:#000000;stroke-width:0.8"
               id="use122172" />
          </g>
        </g>
        <g
           id="text_11">
          <!-- 0 -->
          <g
             transform="matrix(0.1,0,0,-0.1,31.6375,172.14602)"
             id="g122179">
            <use
               xlink:href="#DejaVuSans-30"
               id="use122177" />
          </g>
        </g>
      </g>
      <g
         id="ytick_5">
        <g
           id="line2d_12">
          <g
             id="g122185">
            <use
               xlink:href="#m34153d5df8"
               x="45"
               y="126.66599"
               style="stroke:#000000;stroke-width:0.8"
               id="use122183" />
          </g>
        </g>
        <g
           id="text_12">
          <!-- 1 -->
          <g
             transform="matrix(0.1,0,0,-0.1,31.6375,130.46521)"
             id="g122190">
            <use
               xlink:href="#DejaVuSans-31"
               id="use122188" />
          </g>
        </g>
      </g>
      <g
         id="ytick_6">
        <g
           id="line2d_13">
          <g
             id="g122196">
            <use
               xlink:href="#m34153d5df8"
               x="45"
               y="84.985176"
               style="stroke:#000000;stroke-width:0.8"
               id="use122194" />
          </g>
        </g>
        <g
           id="text_13">
          <!-- 2 -->
          <g
             transform="matrix(0.1,0,0,-0.1,31.6375,88.784394)"
             id="g122201">
            <use
               xlink:href="#DejaVuSans-32"
               id="use122199" />
          </g>
        </g>
      </g>
      <g
         id="ytick_7">
        <g
           id="line2d_14">
          <g
             id="g122207">
            <use
               xlink:href="#m34153d5df8"
               x="45"
               y="43.304363"
               style="stroke:#000000;stroke-width:0.8"
               id="use122205" />
          </g>
        </g>
        <g
           id="text_14">
          <!-- 3 -->
          <g
             transform="matrix(0.1,0,0,-0.1,31.6375,47.103582)"
             id="g122212">
            <use
               xlink:href="#DejaVuSans-33"
               id="use122210" />
          </g>
        </g>
      </g>
    </g>
    <g
       id="line2d_15">
      <path
         d="m 275.10792,168.3468 -0.1806,-5.26059 -0.54106,-5.23962 -0.89938,-5.19776 -1.2541,-5.13518 -1.60384,-5.05214 -1.94717,-4.94895 -2.28274,-4.82604 -2.60922,-4.68388 -2.92528,-4.52306 -3.2297,-4.34421 -3.52124,-4.14803 -3.79874,-3.93533 -4.06109,-3.70694 -4.30727,-3.46376 -4.53626,-3.20678 -4.74717,-2.937029 -4.93917,-2.655555 -5.11148,-2.3635 -5.2634,-2.062023 -5.39434,-1.752327 -5.50379,-1.435644 -5.59129,-1.11324 -5.6565,-0.786397 -5.69917,-0.456419 -5.71912,-0.124623 -5.71627,0.20767 -5.69063,0.539136 -5.6423,0.868453 -5.5715,1.194307 -5.47846,1.515402 -5.36361,1.830454 -5.22736,2.13821 -5.07028,2.437443 -4.89299,2.726959 -4.69619,3.005603 -4.48068,3.27227 -4.24729,3.52589 -3.99698,3.76546 -3.73074,3.99001 -3.44963,4.19866 -3.15475,4.39057 -2.84732,4.56498 -2.52852,4.7212 -2.199652,4.85859 -1.86201,4.97661 -1.516948,5.0748 -1.165837,5.15276 -0.81008,5.21018 -0.451093,5.24682 -0.09031,5.26256 0.270836,5.25731 0.630901,5.2311 0.988451,5.18405 1.342062,5.11633 1.690321,5.02822 2.031849,4.92005 2.36526,4.79228 2.68926,4.64541 3.00253,4.48001 3.30384,4.29675 3.59197,4.09638 3.86579,3.87967 4.12419,3.64749 4.36616,3.40077 4.59072,3.14051 4.79698,2.86771 4.98412,2.58349 5.15139,2.28896 5.29813,1.98533 5.42374,1.67376 5.52773,1.35553 5.6097,1.03189 5.66929,0.70415 5.70629,0.37359 5.72055,0.0415 5.71199,-0.29066 5.68067,-0.62172 5.6267,-0.95029 5.5503,-1.27508 5.45179,-1.59478 5.33153,-1.90813 5.19002,-2.21386 5.02783,-2.51078 4.84558,-2.79769 4.64404,-3.07343 4.42397,-3.33694 4.18626,-3.58714 3.93188,-3.82304 3.66181,-4.04369 3.37715,-4.24824 3.07903,-4.43585 2.76863,-4.60576 2.4472,-4.75733 2.11601,-4.88994 1.77639,-5.00303 1.42968,-5.0962 1.07728,-5.16905 0.72058,-5.22129 0.36101,-5.25272 0.0452,-2.63161 v 0"
         clip-path="url(#pef2a203d3d)"
         style="fill:none;stroke:#0000ff;stroke-width:1.5;stroke-dasharray:5.55, 2.4;stroke-dashoffset:0;stroke-opacity:0.2"
         id="path122217" />
    </g>
    <g
       id="line2d_16">
      <path
         d="m 275.10792,168.3468 -5.89847,20.95855 -3.07738,10.29664 -3.15876,10.07925 -3.23698,9.79235 -3.31198,9.4384 -3.38367,9.02049 -3.452,8.54226 -3.51688,8.00782 -3.57825,7.4218 -3.63606,6.78929 -3.69025,6.11574 -3.74076,5.40696 -3.78753,4.66907 -3.83053,3.90841 -3.86972,3.13153 -3.90505,2.34508 -3.93647,1.5558 -3.96399,0.77042 -3.98754,-0.004 -4.00713,-0.762 -4.02272,-1.49607 -4.03429,-2.2004 -4.04186,-2.8691 -4.04538,-3.49663 -4.04488,-4.07779 -4.04034,-4.60787 -4.03177,-5.08258 -4.0192,-5.49818 -4.0026,-5.85144 -3.98203,-6.13972 -7.88647,-12.87478 -22.7587,-38.43573 -3.62195,-5.67797 -3.56325,-5.30649 -3.50098,-4.8814 -3.43524,-4.40714 -3.36606,-3.88861 -3.29354,-3.33111 -3.21772,-2.74027 -3.13871,-2.12207 -3.056555,-1.4827 -2.971365,-0.82853 -2.883209,-0.16613 -2.792178,0.49795 -2.698365,1.15706 -2.601863,1.80463 -2.502765,2.43422 -2.401174,3.03949 -2.297188,3.61438 -2.190914,4.15309 -2.082455,4.65012 -1.97192,5.10038 -1.859419,5.49919 -1.745066,5.84235 -1.628972,6.12614 -1.511255,6.34741 -1.392031,6.50355 -1.27142,6.59256 -1.149542,6.61306 -1.928985,13.01026 -1.42932,12.26268 -0.923958,10.98076 -0.414911,9.20189 -0.01597,3.79331 0.111755,3.18835 0.239367,2.53956 0.36674,1.85233 0.493747,1.13237 0.620262,0.38574 0.746158,-0.38128 0.871312,-1.16221 0.995596,-1.95037 1.118887,-2.73907 1.241065,-3.52159 1.362004,-4.29118 3.081276,-10.80664 3.547201,-13.56832 6.162986,-24.79141 9.701153,-39.00191 5.44347,-20.86707 5.810317,-21.01352 3.035544,-10.37865 3.11846,-10.19677 3.19827,-9.94434 3.27489,-9.62357 3.34824,-9.23723 3.41826,-8.788678 3.48487,-8.281783 3.54801,-7.72095 3.60761,-7.111029 3.66361,-6.457289 3.71597,-5.765377 3.76461,-5.041263 3.80951,-4.291181 3.8506,-3.521585 3.88787,-2.739079 3.92125,-1.950371 3.95072,-1.1622 3.97626,-0.381285 3.99784,0.385738 4.01542,1.132373 4.02901,1.852327 4.03858,2.539562 4.04412,3.188346 4.04563,3.793312 4.04311,4.349497 4.03657,4.852393 4.02598,5.297983 4.0114,5.682777 3.99282,6.003844 3.97025,6.258837 7.85699,13.010265 18.97426,32.182716 3.64995,5.84235 3.59305,5.49919 3.53255,5.10038 3.46854,4.65012 3.40108,4.15309 3.33021,3.61438 3.25604,3.03949 3.17861,2.43421 3.09802,1.80464 3.01433,1.15706 2.92766,0.49794 2.83804,-0.16612 2.74562,-0.82853 2.65044,-1.4827 2.55263,-2.12207 2.45228,-2.74027 2.34947,-3.33111 2.24433,-3.88861 2.13695,-4.40714 2.02744,-4.8814 1.91591,-5.30649 1.80247,-5.67797 1.68723,-5.99188 1.57031,-6.24476 1.45182,-6.43376 1.33189,-6.55655 1.21063,-6.61144 2.05278,-13.111131 1.55485,-12.500711 1.05072,-11.349613 0.54241,-9.690451 0.0798,-4.077795 -0.0479,-3.496626 -0.17558,-2.869105 -0.30309,-2.200401 -0.4303,-1.49607 -0.55707,-0.762002 -0.6833,-0.0044 -0.80884,0.770418 -0.93357,1.555797 -1.05737,2.34508 -1.18012,3.131528 -1.3017,3.908412 -2.9628,10.076031 -3.43197,12.905029 -5.99724,23.971879 -9.49567,38.330491 -5.34831,20.73926 -2.8152,10.51593 v 0"
         clip-path="url(#pef2a203d3d)"
         style="fill:none;stroke:#ff0000;stroke-width:1.5;stroke-linecap:square;stroke-opacity:0.2"
         id="path122220" />
    </g>
    <g
       id="line2d_17">
      <defs
         id="defs122224">
        <path
           id="mc55d81896c"
           d="M 0,3 C 0.795609,3 1.55874,2.683901 2.12132,2.12132 2.683901,1.55874 3,0.795609 3,0 3,-0.795609 2.683901,-1.55874 2.12132,-2.12132 1.55874,-2.683901 0.795609,-3 0,-3 -0.795609,-3 -1.55874,-2.683901 -2.12132,-2.12132 -2.683901,-1.55874 -3,-0.795609 -3,0 -3,0.795609 -2.683901,1.55874 -2.12132,2.12132 -1.55874,2.683901 -0.795609,3 0,3 Z"
           style="stroke:#ff0000;stroke-opacity:0.8" />
      </defs>
      <g
         clip-path="url(#pef2a203d3d)"
         id="g122228">
        <use
           xlink:href="#mc55d81896c"
           x="275.10791"
           y="168.3468"
           style="fill-opacity:0;stroke:#ff0000;stroke-opacity:0.8"
           id="use122226" />
      </g>
    </g>
    <g
       id="line2d_18">
      <defs
         id="defs122232">
        <path
           id="mcfd5f38fb1"
           d="m -3,3 6,-6 m -6,0 6,6"
           style="stroke:#ff0000;stroke-opacity:0.8" />
      </defs>
      <g
         clip-path="url(#pef2a203d3d)"
         id="g122236">
        <use
           xlink:href="#mcfd5f38fb1"
           x="275.10791"
           y="168.3468"
           style="fill:#ff0000;fill-opacity:0.8;stroke:#ff0000;stroke-opacity:0.8"
           id="use122234" />
      </g>
    </g>
    <g
       id="line2d_19">
      <defs
         id="defs122240">
        <path
           id="m62e49f5272"
           d="M 0,3 C 0.795609,3 1.55874,2.683901 2.12132,2.12132 2.683901,1.55874 3,0.795609 3,0 3,-0.795609 2.683901,-1.55874 2.12132,-2.12132 1.55874,-2.683901 0.795609,-3 0,-3 -0.795609,-3 -1.55874,-2.683901 -2.12132,-2.12132 -2.683901,-1.55874 -3,-0.795609 -3,0 -3,0.795609 -2.683901,1.55874 -2.12132,2.12132 -1.55874,2.683901 -0.795609,3 0,3 Z"
           style="stroke:#008000;stroke-opacity:0.8" />
      </defs>
      <g
         clip-path="url(#pef2a203d3d)"
         id="g122244">
        <use
           xlink:href="#m62e49f5272"
           x="262.96875"
           y="126.66599"
           style="fill-opacity:0;stroke:#008000;stroke-opacity:0.8"
           id="use122242" />
      </g>
    </g>
    <g
       id="line2d_20">
      <defs
         id="defs122248">
        <path
           id="m489baf0984"
           d="m -3,3 6,-6 m -6,0 6,6"
           style="stroke:#008000;stroke-opacity:0.8" />
      </defs>
      <g
         clip-path="url(#pef2a203d3d)"
         id="g122252">
        <use
           xlink:href="#m489baf0984"
           x="217.66479"
           y="293.38925"
           style="fill:#008000;fill-opacity:0.8;stroke:#008000;stroke-opacity:0.8"
           id="use122250" />
      </g>
    </g>
    <g
       id="line2d_21">
      <defs
         id="defs122256">
        <path
           id="m8d50d5b19a"
           d="M 0,3 C 0.795609,3 1.55874,2.683901 2.12132,2.12132 2.683901,1.55874 3,0.795609 3,0 3,-0.795609 2.683901,-1.55874 2.12132,-2.12132 1.55874,-2.683901 0.795609,-3 0,-3 -0.795609,-3 -1.55874,-2.683901 -2.12132,-2.12132 -2.683901,-1.55874 -3,-0.795609 -3,0 -3,0.795609 -2.683901,1.55874 -2.12132,2.12132 -1.55874,2.683901 -0.795609,3 0,3 Z"
           style="stroke:#0000ff;stroke-opacity:0.8" />
      </defs>
      <g
         clip-path="url(#pef2a203d3d)"
         id="g122260">
        <use
           xlink:href="#m8d50d5b19a"
           x="229.80396"
           y="96.153519"
           style="fill-opacity:0;stroke:#0000ff;stroke-opacity:0.8"
           id="use122258" />
      </g>
    </g>
    <g
       id="line2d_22">
      <defs
         id="defs122264">
        <path
           id="mf7949a5305"
           d="m -3,3 6,-6 m -6,0 6,6"
           style="stroke:#0000ff;stroke-opacity:0.8" />
      </defs>
      <g
         clip-path="url(#pef2a203d3d)"
         id="g122268">
        <use
           xlink:href="#mf7949a5305"
           x="151.33521"
           y="240.54008"
           style="fill:#0000ff;fill-opacity:0.8;stroke:#0000ff;stroke-opacity:0.8"
           id="use122266" />
      </g>
    </g>
    <g
       id="line2d_23">
      <defs
         id="defs122272">
        <path
           id="m5859645a37"
           d="M 0,3 C 0.795609,3 1.55874,2.683901 2.12132,2.12132 2.683901,1.55874 3,0.795609 3,0 3,-0.795609 2.683901,-1.55874 2.12132,-2.12132 1.55874,-2.683901 0.795609,-3 0,-3 -0.795609,-3 -1.55874,-2.683901 -2.12132,-2.12132 -2.683901,-1.55874 -3,-0.795609 -3,0 -3,0.795609 -2.683901,1.55874 -2.12132,2.12132 -1.55874,2.683901 -0.795609,3 0,3 Z"
           style="stroke:#00bfbf;stroke-opacity:0.8" />
      </defs>
      <g
         clip-path="url(#pef2a203d3d)"
         id="g122276">
        <use
           xlink:href="#m5859645a37"
           x="184.5"
           y="84.985176"
           style="fill-opacity:0;stroke:#00bfbf;stroke-opacity:0.8"
           id="use122274" />
      </g>
    </g>
    <g
       id="line2d_24">
      <defs
         id="defs122280">
        <path
           id="mc7aea8a856"
           d="m -3,3 6,-6 m -6,0 6,6"
           style="stroke:#00bfbf;stroke-opacity:0.8" />
      </defs>
      <g
         clip-path="url(#pef2a203d3d)"
         id="g122284">
        <use
           xlink:href="#mc7aea8a856"
           x="93.892082"
           y="168.3468"
           style="fill:#00bfbf;fill-opacity:0.8;stroke:#00bfbf;stroke-opacity:0.8"
           id="use122282" />
      </g>
    </g>
    <g
       id="line2d_25">
      <defs
         id="defs122288">
        <path
           id="m9295dfba37"
           d="M 0,3 C 0.795609,3 1.55874,2.683901 2.12132,2.12132 2.683901,1.55874 3,0.795609 3,0 3,-0.795609 2.683901,-1.55874 2.12132,-2.12132 1.55874,-2.683901 0.795609,-3 0,-3 -0.795609,-3 -1.55874,-2.683901 -2.12132,-2.12132 -2.683901,-1.55874 -3,-0.795609 -3,0 -3,0.795609 -2.683901,1.55874 -2.12132,2.12132 -1.55874,2.683901 -0.795609,3 0,3 Z"
           style="stroke:#bf00bf;stroke-opacity:0.8" />
      </defs>
      <g
         clip-path="url(#pef2a203d3d)"
         id="g122292">
        <use
           xlink:href="#m9295dfba37"
           x="139.19604"
           y="96.153519"
           style="fill-opacity:0;stroke:#bf00bf;stroke-opacity:0.8"
           id="use122290" />
      </g>
    </g>
    <g
       id="line2d_26">
      <defs
         id="defs122296">
        <path
           id="mde1dd29850"
           d="m -3,3 6,-6 m -6,0 6,6"
           style="stroke:#bf00bf;stroke-opacity:0.8" />
      </defs>
      <g
         clip-path="url(#pef2a203d3d)"
         id="g122300">
        <use
           xlink:href="#mde1dd29850"
           x="60.72728"
           y="240.54008"
           style="fill:#bf00bf;fill-opacity:0.8;stroke:#bf00bf;stroke-opacity:0.8"
           id="use122298" />
      </g>
    </g>
    <g
       id="line2d_27">
      <defs
         id="defs122304">
        <path
           id="m70a63f4d09"
           d="M 0,3 C 0.795609,3 1.55874,2.683901 2.12132,2.12132 2.683901,1.55874 3,0.795609 3,0 3,-0.795609 2.683901,-1.55874 2.12132,-2.12132 1.55874,-2.683901 0.795609,-3 0,-3 -0.795609,-3 -1.55874,-2.683901 -2.12132,-2.12132 -2.683901,-1.55874 -3,-0.795609 -3,0 -3,0.795609 -2.683901,1.55874 -2.12132,2.12132 -1.55874,2.683901 -0.795609,3 0,3 Z"
           style="stroke:#000000;stroke-opacity:0.8" />
      </defs>
      <g
         clip-path="url(#pef2a203d3d)"
         id="g122308">
        <use
           xlink:href="#m70a63f4d09"
           x="106.03124"
           y="126.66599"
           style="fill-opacity:0;stroke:#000000;stroke-opacity:0.8"
           id="use122306" />
      </g>
    </g>
    <g
       id="line2d_28">
      <defs
         id="defs122312">
        <path
           id="md1c0253433"
           d="m -3,3 6,-6 m -6,0 6,6"
           style="stroke:#000000;stroke-opacity:0.8" />
      </defs>
      <g
         clip-path="url(#pef2a203d3d)"
         id="g122316">
        <use
           xlink:href="#md1c0253433"
           x="60.72728"
           y="293.38925"
           style="fill-opacity:0.8;stroke:#000000;stroke-opacity:0.8"
           id="use122314" />
      </g>
    </g>
    <g
       id="patch_3">
      <path
         d="M 45,296.6904 V 40.0032"
         style="fill:none;stroke:#000000;stroke-width:0.8;stroke-linecap:square;stroke-linejoin:miter"
         id="path122319" />
    </g>
    <g
       id="patch_4">
      <path
         d="M 324,296.6904 V 40.0032"
         style="fill:none;stroke:#000000;stroke-width:0.8;stroke-linecap:square;stroke-linejoin:miter"
         id="path122322" />
    </g>
    <g
       id="patch_5">
      <path
         d="M 45,296.6904 H 324"
         style="fill:none;stroke:#000000;stroke-width:0.8;stroke-linecap:square;stroke-linejoin:miter"
         id="path122325" />
    </g>
    <g
       id="patch_6">
      <path
         d="M 45,40.0032 H 324"
         style="fill:none;stroke:#000000;stroke-width:0.8;stroke-linecap:square;stroke-linejoin:miter"
         id="path122328" />
    </g>
  </g>
  <defs
     id="defs122336">
    <clipPath
       id="pef2a203d3d">
      <rect
         x="45"
         y="40.0032"
         width="279"
         height="256.6872"
         id="rect122333" />
    </clipPath>
  </defs>
</svg>
