<?xml version="1.0" encoding="UTF-8" standalone="no"?>
<!-- Created with Inkscape (http://www.inkscape.org/) -->

<svg
   width="98.361809mm"
   height="80.805542mm"
   viewBox="0 0 98.361806 80.805542"
   version="1.1"
   id="svg82824"
   inkscape:version="1.3.2 (091e20e, 2023-11-25)"
   sodipodi:docname="numbersAbstractionLevels.svg"
   xmlns:inkscape="http://www.inkscape.org/namespaces/inkscape"
   xmlns:sodipodi="http://sodipodi.sourceforge.net/DTD/sodipodi-0.dtd"
   xmlns:xlink="http://www.w3.org/1999/xlink"
   xmlns="http://www.w3.org/2000/svg"
   xmlns:svg="http://www.w3.org/2000/svg">
  <sodipodi:namedview
     id="namedview82826"
     pagecolor="#ffffff"
     bordercolor="#000000"
     borderopacity="0.25"
     inkscape:showpageshadow="2"
     inkscape:pageopacity="0.0"
     inkscape:pagecheckerboard="0"
     inkscape:deskcolor="#d1d1d1"
     inkscape:document-units="mm"
     showgrid="false"
     inkscape:zoom="1.1893044"
     inkscape:cx="150.92856"
     inkscape:cy="167.74511"
     inkscape:window-width="1280"
     inkscape:window-height="606"
     inkscape:window-x="0"
     inkscape:window-y="25"
     inkscape:window-maximized="0"
     inkscape:current-layer="layer1" />
  <defs
     id="defs82821">
    <clipPath
       id="clipPath2285">
      <path
         clip-rule="nonzero"
         d="M 0,0 H 8.964844 V 6.835938 H 0 Z m 0,0"
         id="path9792" />
    </clipPath>
    <clipPath
       id="clipPath5013">
      <path
         clip-rule="nonzero"
         d="M 0,0 H 7 V 6.863281 H 0 Z m 0,0"
         id="path6036" />
    </clipPath>
    <clipPath
       id="clipPath3188">
      <path
         clip-rule="nonzero"
         d="M 0,0 H 10.875 V 6.835938 H 0 Z m 0,0"
         id="path6954" />
    </clipPath>
    <radialGradient
       id="radialGradient5961"
       gradientUnits="userSpaceOnUse"
       cy="-153.33"
       cx="-3784.3999"
       gradientTransform="matrix(1.5808,0,0,1.5808,2173.3,9.5716)"
       r="832.59003"
       inkscape:collect="always">
      <stop
         id="stop5632"
         style="stop-color:#ffffff"
         offset="0" />
      <stop
         id="stop5634"
         style="stop-color:#cbcbc7"
         offset=".5" />
      <stop
         id="stop5636"
         style="stop-color:#b1b1ab"
         offset=".62443" />
      <stop
         id="stop5638"
         style="stop-color:#979890"
         offset="1" />
    </radialGradient>
    <radialGradient
       id="radialGradient5963"
       gradientUnits="userSpaceOnUse"
       cy="631.15997"
       cx="-2722.2"
       gradientTransform="matrix(1.3365,0.31524,-0.59302,2.5142,1289.6,-156.34)"
       r="93.850998"
       inkscape:collect="always">
      <stop
         id="stop5612"
         style="stop-color:#000000"
         offset="0" />
      <stop
         id="stop5614"
         style="stop-color:#000000;stop-opacity:0"
         offset="1" />
    </radialGradient>
    <filter
       id="filter5598"
       height="1.2100487"
       width="1.4545517"
       y="-0.10005192"
       x="-0.22054661"
       inkscape:collect="always"
       style="color-interpolation-filters:sRGB">
      <feGaussianBlur
         id="feGaussianBlur5600"
         stdDeviation="9.0900979"
         inkscape:collect="always" />
    </filter>
    <filter
       id="filter4945"
       inkscape:collect="always"
       style="color-interpolation-filters:sRGB"
       x="-0.037864292"
       y="-0.12172192"
       width="1.0756583"
       height="1.2337213">
      <feGaussianBlur
         id="feGaussianBlur4947"
         stdDeviation="11.409528"
         inkscape:collect="always" />
    </filter>
    <linearGradient
       id="linearGradient4907"
       inkscape:collect="always">
      <stop
         id="stop4909"
         style="stop-color:#ffffff"
         offset="0" />
      <stop
         id="stop4911"
         style="stop-color:#ffffff;stop-opacity:0"
         offset="1" />
    </linearGradient>
    <filter
       id="filter4989"
       inkscape:collect="always"
       style="color-interpolation-filters:sRGB"
       x="-0.02833519"
       y="-0.049348112"
       width="1.0566704"
       height="1.0986962">
      <feGaussianBlur
         id="feGaussianBlur4991"
         stdDeviation="6.2959966"
         inkscape:collect="always" />
    </filter>
    <linearGradient
       id="linearGradient5967"
       y2="787.45001"
       gradientUnits="userSpaceOnUse"
       x2="-4527.6001"
       gradientTransform="translate(8)"
       y1="863.14001"
       x1="-4276.5"
       inkscape:collect="always">
      <stop
         id="stop5510"
         style="stop-color:#000000"
         offset="0" />
      <stop
         id="stop5512"
         style="stop-color:#000000;stop-opacity:0"
         offset="1" />
    </linearGradient>
    <filter
       id="filter5544"
       height="1.1198439"
       width="1.7277471"
       y="-0.061120114"
       x="-0.36291548"
       inkscape:collect="always"
       style="color-interpolation-filters:sRGB">
      <feGaussianBlur
         id="feGaussianBlur5546"
         stdDeviation="10.527732"
         inkscape:collect="always" />
    </filter>
    <filter
       id="filter4919"
       inkscape:collect="always"
       style="color-interpolation-filters:sRGB"
       x="-0.0043014411"
       y="-0.0099153121"
       width="1.0086029"
       height="1.0198306">
      <feGaussianBlur
         id="feGaussianBlur4921"
         stdDeviation="3.1239843"
         inkscape:collect="always" />
    </filter>
    <linearGradient
       id="linearGradient5971"
       y2="-101.46"
       gradientUnits="userSpaceOnUse"
       x2="-2711.1001"
       y1="292.79001"
       x1="-3409.8999"
       inkscape:collect="always">
      <stop
         id="stop5126"
         style="stop-color:#84867c"
         offset="0" />
      <stop
         id="stop5128"
         style="stop-color:#84867c;stop-opacity:0"
         offset="1" />
    </linearGradient>
    <filter
       id="filter5138"
       inkscape:collect="always"
       style="color-interpolation-filters:sRGB"
       x="-0.023127556"
       y="-0.02494047"
       width="1.0462551"
       height="1.0498809">
      <feGaussianBlur
         id="feGaussianBlur5140"
         stdDeviation="7.1681064"
         inkscape:collect="always" />
    </filter>
    <linearGradient
       id="linearGradient5973"
       y2="952.62"
       gradientUnits="userSpaceOnUse"
       x2="-3663.7"
       y1="806.65002"
       x1="-3790.2"
       inkscape:collect="always">
      <stop
         id="stop4961"
         style="stop-color:#ffffff"
         offset="0" />
      <stop
         id="stop4963"
         style="stop-color:#ffffff;stop-opacity:0"
         offset="1" />
    </linearGradient>
    <filter
       id="filter5202"
       inkscape:collect="always"
       style="color-interpolation-filters:sRGB"
       x="-0.035444847"
       y="-0.094817458"
       width="1.0708897"
       height="1.1896349">
      <feGaussianBlur
         id="feGaussianBlur5204"
         stdDeviation="5.9791028"
         inkscape:collect="always" />
    </filter>
    <filter
       id="filter5540"
       height="32.705597"
       width="54.837373"
       y="-15.852799"
       x="-26.918686"
       inkscape:collect="always"
       style="color-interpolation-filters:sRGB">
      <feGaussianBlur
         id="feGaussianBlur5542"
         stdDeviation="10.527732"
         inkscape:collect="always" />
    </filter>
    <linearGradient
       id="linearGradient5975"
       y2="1269.1"
       gradientUnits="userSpaceOnUse"
       x2="-2907.2"
       y1="298.91"
       x1="-3220.2"
       inkscape:collect="always">
      <stop
         id="stop5070"
         style="stop-color:#ffffff"
         offset="0" />
      <stop
         id="stop5072"
         style="stop-color:#ffffff;stop-opacity:0"
         offset="1" />
    </linearGradient>
    <filter
       id="filter5076"
       inkscape:collect="always"
       style="color-interpolation-filters:sRGB"
       x="-0.021713473"
       y="-0.026435646"
       width="1.0434269"
       height="1.0528713">
      <feGaussianBlur
         id="feGaussianBlur5078"
         stdDeviation="4.913216"
         inkscape:collect="always" />
    </filter>
    <linearGradient
       id="linearGradient5977"
       y2="1465.2"
       gradientUnits="userSpaceOnUse"
       x2="-4221.3999"
       y1="157.85001"
       x1="-3973.7"
       inkscape:collect="always">
      <stop
         id="stop5082"
         style="stop-color:#ffffff"
         offset="0" />
      <stop
         id="stop5084"
         style="stop-color:#ffffff;stop-opacity:0"
         offset="1" />
    </linearGradient>
    <filter
       id="filter5088"
       inkscape:collect="always"
       style="color-interpolation-filters:sRGB"
       x="-0.032271908"
       y="-0.03851219"
       width="1.0645438"
       height="1.0770244">
      <feGaussianBlur
         id="feGaussianBlur5090"
         stdDeviation="7.3554805"
         inkscape:collect="always" />
    </filter>
    <radialGradient
       id="radialGradient5979"
       gradientUnits="userSpaceOnUse"
       cy="525.45001"
       cx="-3530"
       gradientTransform="matrix(1.3587,2.7091e-8,-2.4489e-8,1.2282,1239,-100.31)"
       r="781.85999"
       inkscape:collect="always">
      <stop
         id="stop5099"
         style="stop-color:#ffffff;stop-opacity:0"
         offset="0" />
      <stop
         id="stop5105"
         style="stop-color:#ffffff;stop-opacity:0"
         offset=".84872" />
      <stop
         id="stop5101"
         style="stop-color:#ffffff"
         offset="1" />
    </radialGradient>
    <linearGradient
       id="linearGradient5981"
       y2="215.49001"
       gradientUnits="userSpaceOnUse"
       x2="-3133.3999"
       y1="414.98001"
       x1="-2736.8"
       inkscape:collect="always">
      <stop
         id="stop5162"
         style="stop-color:#ffffff"
         offset="0" />
      <stop
         id="stop5164"
         style="stop-color:#ffffff;stop-opacity:0"
         offset="1" />
    </linearGradient>
    <filter
       id="filter5156"
       inkscape:collect="always"
       style="color-interpolation-filters:sRGB"
       x="-0.029344318"
       y="-0.046559901"
       width="1.0586886"
       height="1.0931198">
      <feGaussianBlur
         id="feGaussianBlur5158"
         stdDeviation="3.5396582"
         inkscape:collect="always" />
    </filter>
    <linearGradient
       id="linearGradient5983"
       y2="570.67999"
       gradientUnits="userSpaceOnUse"
       x2="-3031.2"
       y1="307.94"
       x1="-3211.2"
       inkscape:collect="always">
      <stop
         id="stop5180"
         style="stop-color:#ffffff"
         offset="0" />
      <stop
         id="stop5182"
         style="stop-color:#ffffff;stop-opacity:0"
         offset="1" />
    </linearGradient>
    <filter
       id="filter5174"
       inkscape:collect="always"
       style="color-interpolation-filters:sRGB"
       x="-0.025999963"
       y="-0.022285682"
       width="1.0519999"
       height="1.0445714">
      <feGaussianBlur
         id="feGaussianBlur5176"
         stdDeviation="4.5857432"
         inkscape:collect="always" />
    </filter>
    <filter
       id="filter5216"
       inkscape:collect="always"
       style="color-interpolation-filters:sRGB"
       x="-0.053194015"
       y="-0.027206462"
       width="1.106388"
       height="1.0544129">
      <feGaussianBlur
         id="feGaussianBlur5218"
         stdDeviation="4.9140878"
         inkscape:collect="always" />
    </filter>
    <linearGradient
       id="linearGradient5985"
       y2="147.53"
       gradientUnits="userSpaceOnUse"
       x2="-3815.3999"
       y1="-158.67"
       x1="-3980.6001"
       inkscape:collect="always">
      <stop
         id="stop5234"
         style="stop-color:#ffffff"
         offset="0" />
      <stop
         id="stop5236"
         style="stop-color:#ffffff;stop-opacity:0"
         offset="1" />
    </linearGradient>
    <filter
       id="filter5228"
       inkscape:collect="always"
       style="color-interpolation-filters:sRGB"
       x="-0.023867234"
       y="-0.024134126"
       width="1.0477345"
       height="1.0482683">
      <feGaussianBlur
         id="feGaussianBlur5230"
         stdDeviation="4.6984115"
         inkscape:collect="always" />
    </filter>
    <linearGradient
       id="linearGradient5987"
       y2="-34.814999"
       gradientUnits="userSpaceOnUse"
       x2="-3884.3"
       y1="326.42999"
       x1="-3629.7"
       inkscape:collect="always">
      <stop
         id="stop5260"
         style="stop-color:#333333"
         offset="0" />
      <stop
         id="stop5262"
         style="stop-color:#333333;stop-opacity:0"
         offset="1" />
    </linearGradient>
    <filter
       id="filter5254"
       inkscape:collect="always"
       style="color-interpolation-filters:sRGB"
       x="-0.046802287"
       y="-0.055234726"
       width="1.1045296"
       height="1.1288213">
      <feGaussianBlur
         id="feGaussianBlur5256"
         stdDeviation="11.972713"
         inkscape:collect="always" />
    </filter>
    <linearGradient
       id="linearGradient5989"
       y2="577.58002"
       gradientUnits="userSpaceOnUse"
       x2="-4145.7002"
       y1="278.26001"
       x1="-4238.6001"
       inkscape:collect="always">
      <stop
         id="stop5282"
         style="stop-color:#ffffff"
         offset="0" />
      <stop
         id="stop5284"
         style="stop-color:#ffffff;stop-opacity:0"
         offset="1" />
    </linearGradient>
    <filter
       id="filter5276"
       inkscape:collect="always"
       style="color-interpolation-filters:sRGB"
       x="-0.029162535"
       y="-0.04702582"
       width="1.0583251"
       height="1.0940516">
      <feGaussianBlur
         id="feGaussianBlur5278"
         stdDeviation="5.3928817"
         inkscape:collect="always" />
    </filter>
    <linearGradient
       id="linearGradient5991"
       y2="298.91"
       gradientUnits="userSpaceOnUse"
       x2="-3984"
       gradientTransform="translate(10.321,-3.4404)"
       y1="894.09998"
       x1="-3750.1001"
       inkscape:collect="always">
      <stop
         id="stop5348"
         style="stop-color:#000000"
         offset="0" />
      <stop
         id="stop5350"
         style="stop-color:#000000;stop-opacity:0"
         offset="1" />
    </linearGradient>
    <filter
       id="filter5342"
       height="1.1515289"
       width="1.5582089"
       y="-0.07453124"
       x="-0.28039401"
       inkscape:collect="always"
       style="color-interpolation-filters:sRGB">
      <feGaussianBlur
         id="feGaussianBlur5344"
         stdDeviation="12.462976"
         inkscape:collect="always" />
    </filter>
    <radialGradient
       id="radialGradient5993"
       gradientUnits="userSpaceOnUse"
       cy="184.13"
       cx="-3717.7"
       gradientTransform="matrix(2.2801,-0.63185,0.17505,0.63168,4726.2,-2263.6)"
       r="209.63"
       inkscape:collect="always">
      <stop
         id="stop5362"
         style="stop-color:#ffffff"
         offset="0" />
      <stop
         id="stop5364"
         style="stop-color:#ffffff;stop-opacity:0"
         offset="1" />
    </radialGradient>
    <filter
       id="filter5368"
       inkscape:collect="always"
       style="color-interpolation-filters:sRGB"
       x="-0.019783904"
       y="-0.030499249"
       width="1.0395678"
       height="1.0609985">
      <feGaussianBlur
         id="feGaussianBlur5370"
         stdDeviation="3.3891146"
         inkscape:collect="always" />
    </filter>
    <linearGradient
       id="linearGradient5995"
       y2="684.23999"
       gradientUnits="userSpaceOnUse"
       x2="-3502.3999"
       y1="1052.4"
       x1="-3512.7"
       inkscape:collect="always">
      <stop
         id="stop5388"
         style="stop-color:#ffffff"
         offset="0" />
      <stop
         id="stop5390"
         style="stop-color:#ffffff;stop-opacity:0"
         offset="1" />
    </linearGradient>
    <filter
       id="filter5374"
       inkscape:collect="always"
       style="color-interpolation-filters:sRGB"
       x="-0.0067894095"
       y="-0.051600932"
       width="1.0135788"
       height="1.1032019">
      <feGaussianBlur
         id="feGaussianBlur5376"
         stdDeviation="1.3771893"
         inkscape:collect="always" />
    </filter>
    <linearGradient
       id="linearGradient5997"
       y2="-258.44"
       gradientUnits="userSpaceOnUse"
       x2="-3509.2"
       y1="-265.32001"
       x1="-3922.1001"
       inkscape:collect="always">
      <stop
         id="stop5414"
         style="stop-color:#ffffff"
         offset="0" />
      <stop
         id="stop5416"
         style="stop-color:#ffffff;stop-opacity:0"
         offset="1" />
    </linearGradient>
    <filter
       id="filter5408"
       height="1.5406525"
       width="1.0526763"
       y="-0.27032626"
       x="-0.026338135"
       inkscape:collect="always"
       style="color-interpolation-filters:sRGB">
      <feGaussianBlur
         id="feGaussianBlur5410"
         stdDeviation="2.8454732"
         inkscape:collect="always" />
    </filter>
    <linearGradient
       id="linearGradient5999"
       y2="154.41"
       gradientUnits="userSpaceOnUse"
       x2="-4114.7998"
       y1="61.516998"
       x1="-4262.7002"
       inkscape:collect="always">
      <stop
         id="stop5444"
         style="stop-color:#ffffff"
         offset="0" />
      <stop
         id="stop5446"
         style="stop-color:#ffffff;stop-opacity:0"
         offset="1" />
    </linearGradient>
    <filter
       id="filter5438"
       height="1.0622953"
       width="1.2091673"
       y="-0.031147653"
       x="-0.10458365"
       inkscape:collect="always"
       style="color-interpolation-filters:sRGB">
      <feGaussianBlur
         id="feGaussianBlur5440"
         stdDeviation="3.6406414"
         inkscape:collect="always" />
    </filter>
    <linearGradient
       id="linearGradient6001"
       y2="-129.71001"
       gradientUnits="userSpaceOnUse"
       x2="-3170.2"
       y1="1192.3"
       x1="-1310.9"
       inkscape:collect="always">
      <stop
         id="stop5660"
         style="stop-color:#ffffff"
         offset="0" />
      <stop
         id="stop5662"
         style="stop-color:#ffffff;stop-opacity:0"
         offset="1" />
    </linearGradient>
    <filter
       id="filter5670"
       inkscape:collect="always"
       style="color-interpolation-filters:sRGB"
       x="-0.040637938"
       y="-0.017028461"
       width="1.0812759"
       height="1.0340569">
      <feGaussianBlur
         id="feGaussianBlur5672"
         stdDeviation="4.2908243"
         inkscape:collect="always" />
    </filter>
    <linearGradient
       id="linearGradient6003"
       y2="-544"
       gradientUnits="userSpaceOnUse"
       x2="-2979.3999"
       y1="670.46997"
       x1="-2893.3999"
       inkscape:collect="always">
      <stop
         id="stop5706"
         style="stop-color:#000000"
         offset="0" />
      <stop
         id="stop5708"
         style="stop-color:#000000;stop-opacity:0"
         offset="1" />
    </linearGradient>
    <filter
       id="filter5700"
       inkscape:collect="always"
       style="color-interpolation-filters:sRGB"
       x="-0.025471285"
       y="-0.049090886"
       width="1.0509426"
       height="1.0981818">
      <feGaussianBlur
         id="feGaussianBlur5702"
         stdDeviation="3.8704891"
         inkscape:collect="always" />
    </filter>
    <linearGradient
       id="linearGradient6005"
       y2="667.98999"
       gradientUnits="userSpaceOnUse"
       x2="-4478.7002"
       y1="556.08002"
       x1="-4405.7002"
       inkscape:collect="always">
      <stop
         id="stop5736"
         style="stop-color:#ffffff"
         offset="0" />
      <stop
         id="stop5738"
         style="stop-color:#ffffff;stop-opacity:0"
         offset="1" />
    </linearGradient>
    <filter
       id="filter5730"
       inkscape:collect="always"
       style="color-interpolation-filters:sRGB"
       x="-0.088065006"
       y="-0.041998966"
       width="1.17613"
       height="1.0839979">
      <feGaussianBlur
         id="feGaussianBlur5732"
         stdDeviation="2.7672593"
         inkscape:collect="always" />
    </filter>
    <linearGradient
       id="linearGradient6007"
       y2="191.17"
       gradientUnits="userSpaceOnUse"
       x2="-4381.3999"
       y1="1511.5"
       x1="-4449.2998"
       inkscape:collect="always">
      <stop
         id="stop5746"
         style="stop-color:#ffffff"
         offset="0" />
      <stop
         id="stop5748"
         style="stop-color:#ffffff;stop-opacity:0"
         offset="1" />
    </linearGradient>
    <filter
       id="filter5752"
       inkscape:collect="always"
       style="color-interpolation-filters:sRGB"
       x="-0.014537085"
       y="-0.010060438"
       width="1.0290742"
       height="1.0201209">
      <feGaussianBlur
         id="feGaussianBlur5754"
         stdDeviation="1.2167774"
         inkscape:collect="always" />
    </filter>
    <radialGradient
       id="radialGradient6009"
       gradientUnits="userSpaceOnUse"
       cy="-149.42"
       cx="-4031.1001"
       gradientTransform="matrix(1.3659,-0.11354,0.058805,0.7074,1483.6,-501.41)"
       r="192.84"
       inkscape:collect="always">
      <stop
         id="stop5788"
         style="stop-color:#000000"
         offset="0" />
      <stop
         id="stop5790"
         style="stop-color:#000000;stop-opacity:0"
         offset="1" />
    </radialGradient>
    <filter
       id="filter5814"
       inkscape:collect="always"
       style="color-interpolation-filters:sRGB"
       x="-0.051129664"
       y="-0.088633089"
       width="1.0962574"
       height="1.1717146">
      <feGaussianBlur
         id="feGaussianBlur5816"
         stdDeviation="6.1433135"
         inkscape:collect="always" />
    </filter>
    <linearGradient
       id="linearGradient3916"
       y2="-832.44"
       gradientUnits="userSpaceOnUse"
       x2="133.85001"
       gradientTransform="matrix(0.39629,0,0,0.39629,54.74,420.3)"
       y1="-886.78003"
       x1="750.40002"
       inkscape:collect="always">
      <stop
         id="stop3977"
         style="stop-color:#deaa87"
         offset="0" />
      <stop
         id="stop3979"
         style="stop-color:#decfa1"
         offset=".62875" />
      <stop
         id="stop3981"
         style="stop-color:#deaa87"
         offset="1" />
    </linearGradient>
    <linearGradient
       id="linearGradient3920"
       y2="-863.87"
       gradientUnits="userSpaceOnUse"
       x2="108.14"
       gradientTransform="matrix(0.39629,0,0,0.39629,68.327,510.31)"
       y1="-945.35999"
       x1="753.26001"
       inkscape:collect="always">
      <stop
         id="stop3985"
         style="stop-color:#deaa87"
         offset="0" />
      <stop
         id="stop3987"
         style="stop-color:#decfa1"
         offset=".61063" />
      <stop
         id="stop3989"
         style="stop-color:#deaa87"
         offset="1" />
    </linearGradient>
    <linearGradient
       id="linearGradient3924"
       y2="-881.01001"
       gradientUnits="userSpaceOnUse"
       x2="133.85001"
       gradientTransform="matrix(0.39629,0,0,0.39629,73.989,554.07)"
       y1="-945.35999"
       x1="738.96997"
       inkscape:collect="always">
      <stop
         id="stop3912"
         style="stop-color:#deaa87"
         offset="0" />
      <stop
         id="stop3973"
         style="stop-color:#decfa1"
         offset=".59805" />
      <stop
         id="stop3914"
         style="stop-color:#deaa87"
         offset="1" />
    </linearGradient>
    <radialGradient
       id="radialGradient3999"
       gradientUnits="userSpaceOnUse"
       cy="159.50999"
       cx="887.14001"
       gradientTransform="matrix(-0.28988,0.020364,-0.019202,-0.27334,666.54,509.04)"
       r="721.42999"
       inkscape:collect="always">
      <stop
         id="stop3993"
         style="stop-color:#4d4d4d"
         offset="0" />
      <stop
         id="stop3995"
         style="stop-color:#747979"
         offset="1" />
    </radialGradient>
    <linearGradient
       inkscape:collect="always"
       xlink:href="#linearGradient4907"
       id="linearGradient96184"
       gradientUnits="userSpaceOnUse"
       x1="-3345.8"
       y1="992.15002"
       x2="-3063.7"
       y2="804.65002" />
    <linearGradient
       inkscape:collect="always"
       xlink:href="#linearGradient5967"
       id="linearGradient96186"
       gradientUnits="userSpaceOnUse"
       gradientTransform="translate(8)"
       x1="-4276.5"
       y1="863.14001"
       x2="-4527.6001"
       y2="787.45001" />
    <linearGradient
       inkscape:collect="always"
       xlink:href="#linearGradient4907"
       id="linearGradient96188"
       gradientUnits="userSpaceOnUse"
       x1="-4104.3999"
       y1="-709.14001"
       x2="-3271.8999"
       y2="1396.4" />
    <linearGradient
       inkscape:collect="always"
       xlink:href="#linearGradient5971"
       id="linearGradient96190"
       gradientUnits="userSpaceOnUse"
       x1="-3409.8999"
       y1="292.79001"
       x2="-2711.1001"
       y2="-101.46" />
    <linearGradient
       inkscape:collect="always"
       xlink:href="#linearGradient5973"
       id="linearGradient96192"
       gradientUnits="userSpaceOnUse"
       x1="-3790.2"
       y1="806.65002"
       x2="-3663.7"
       y2="952.62" />
    <linearGradient
       inkscape:collect="always"
       xlink:href="#linearGradient5975"
       id="linearGradient96194"
       gradientUnits="userSpaceOnUse"
       x1="-3220.2"
       y1="298.91"
       x2="-2907.2"
       y2="1269.1" />
    <linearGradient
       inkscape:collect="always"
       xlink:href="#linearGradient5977"
       id="linearGradient96196"
       gradientUnits="userSpaceOnUse"
       x1="-3973.7"
       y1="157.85001"
       x2="-4221.3999"
       y2="1465.2" />
    <linearGradient
       inkscape:collect="always"
       xlink:href="#linearGradient5981"
       id="linearGradient96198"
       gradientUnits="userSpaceOnUse"
       x1="-2736.8"
       y1="414.98001"
       x2="-3133.3999"
       y2="215.49001" />
    <linearGradient
       inkscape:collect="always"
       xlink:href="#linearGradient5983"
       id="linearGradient96200"
       gradientUnits="userSpaceOnUse"
       x1="-3211.2"
       y1="307.94"
       x2="-3031.2"
       y2="570.67999" />
    <linearGradient
       inkscape:collect="always"
       xlink:href="#linearGradient5985"
       id="linearGradient96202"
       gradientUnits="userSpaceOnUse"
       x1="-3980.6001"
       y1="-158.67"
       x2="-3815.3999"
       y2="147.53" />
    <linearGradient
       inkscape:collect="always"
       xlink:href="#linearGradient5987"
       id="linearGradient96204"
       gradientUnits="userSpaceOnUse"
       x1="-3629.7"
       y1="326.42999"
       x2="-3884.3"
       y2="-34.814999" />
    <linearGradient
       inkscape:collect="always"
       xlink:href="#linearGradient5989"
       id="linearGradient96206"
       gradientUnits="userSpaceOnUse"
       x1="-4238.6001"
       y1="278.26001"
       x2="-4145.7002"
       y2="577.58002" />
    <linearGradient
       inkscape:collect="always"
       xlink:href="#linearGradient5991"
       id="linearGradient96208"
       gradientUnits="userSpaceOnUse"
       gradientTransform="translate(10.321,-3.4404)"
       x1="-3750.1001"
       y1="894.09998"
       x2="-3984"
       y2="298.91" />
    <linearGradient
       inkscape:collect="always"
       xlink:href="#linearGradient5995"
       id="linearGradient96210"
       gradientUnits="userSpaceOnUse"
       x1="-3512.7"
       y1="1052.4"
       x2="-3502.3999"
       y2="684.23999" />
    <linearGradient
       inkscape:collect="always"
       xlink:href="#linearGradient5997"
       id="linearGradient96212"
       gradientUnits="userSpaceOnUse"
       x1="-3922.1001"
       y1="-265.32001"
       x2="-3509.2"
       y2="-258.44" />
    <linearGradient
       inkscape:collect="always"
       xlink:href="#linearGradient5999"
       id="linearGradient96214"
       gradientUnits="userSpaceOnUse"
       x1="-4262.7002"
       y1="61.516998"
       x2="-4114.7998"
       y2="154.41" />
    <linearGradient
       inkscape:collect="always"
       xlink:href="#linearGradient6001"
       id="linearGradient96216"
       gradientUnits="userSpaceOnUse"
       x1="-1310.9"
       y1="1192.3"
       x2="-3170.2"
       y2="-129.71001" />
    <linearGradient
       inkscape:collect="always"
       xlink:href="#linearGradient6003"
       id="linearGradient96218"
       gradientUnits="userSpaceOnUse"
       x1="-2893.3999"
       y1="670.46997"
       x2="-2979.3999"
       y2="-544" />
    <linearGradient
       inkscape:collect="always"
       xlink:href="#linearGradient6005"
       id="linearGradient96220"
       gradientUnits="userSpaceOnUse"
       x1="-4405.7002"
       y1="556.08002"
       x2="-4478.7002"
       y2="667.98999" />
    <linearGradient
       inkscape:collect="always"
       xlink:href="#linearGradient6007"
       id="linearGradient96222"
       gradientUnits="userSpaceOnUse"
       x1="-4449.2998"
       y1="1511.5"
       x2="-4381.3999"
       y2="191.17" />
    <linearGradient
       inkscape:collect="always"
       xlink:href="#linearGradient3916"
       id="linearGradient96296"
       gradientUnits="userSpaceOnUse"
       gradientTransform="matrix(0.39629,0,0,0.39629,54.74,420.3)"
       x1="750.40002"
       y1="-886.78003"
       x2="133.85001"
       y2="-832.44" />
    <linearGradient
       inkscape:collect="always"
       xlink:href="#linearGradient3920"
       id="linearGradient96298"
       gradientUnits="userSpaceOnUse"
       gradientTransform="matrix(0.39629,0,0,0.39629,68.327,510.31)"
       x1="753.26001"
       y1="-945.35999"
       x2="108.14"
       y2="-863.87" />
    <linearGradient
       inkscape:collect="always"
       xlink:href="#linearGradient3924"
       id="linearGradient96300"
       gradientUnits="userSpaceOnUse"
       gradientTransform="matrix(0.39629,0,0,0.39629,73.989,554.07)"
       x1="738.96997"
       y1="-945.35999"
       x2="133.85001"
       y2="-881.01001" />
    <marker
       style="overflow:visible"
       id="TriangleStart-60-8"
       refX="0"
       refY="0"
       orient="auto-start-reverse"
       inkscape:stockid="TriangleStart"
       markerWidth="5.3244081"
       markerHeight="6.155385"
       viewBox="0 0 5.3244081 6.1553851"
       inkscape:isstock="true"
       inkscape:collect="always"
       preserveAspectRatio="xMidYMid">
      <path
         transform="scale(0.5)"
         style="fill:context-stroke;fill-rule:evenodd;stroke:context-stroke;stroke-width:1pt"
         d="M 5.77,0 -2.88,5 V -5 Z"
         id="path135-4-5" />
    </marker>
    <marker
       style="overflow:visible"
       id="TriangleStart-60-8-5"
       refX="0"
       refY="0"
       orient="auto-start-reverse"
       inkscape:stockid="TriangleStart"
       markerWidth="5.3244081"
       markerHeight="6.155385"
       viewBox="0 0 5.3244081 6.1553851"
       inkscape:isstock="true"
       inkscape:collect="always"
       preserveAspectRatio="xMidYMid">
      <path
         transform="scale(0.5)"
         style="fill:context-stroke;fill-rule:evenodd;stroke:context-stroke;stroke-width:1pt"
         d="M 5.77,0 -2.88,5 V -5 Z"
         id="path135-4-5-7" />
    </marker>
    <marker
       style="overflow:visible"
       id="TriangleStart-60-8-3"
       refX="0"
       refY="0"
       orient="auto-start-reverse"
       inkscape:stockid="TriangleStart"
       markerWidth="5.3244081"
       markerHeight="6.155385"
       viewBox="0 0 5.3244081 6.1553851"
       inkscape:isstock="true"
       inkscape:collect="always"
       preserveAspectRatio="xMidYMid">
      <path
         transform="scale(0.5)"
         style="fill:context-stroke;fill-rule:evenodd;stroke:context-stroke;stroke-width:1pt"
         d="M 5.77,0 -2.88,5 V -5 Z"
         id="path135-4-5-3" />
    </marker>
  </defs>
  <g
     inkscape:label="Layer 1"
     inkscape:groupmode="layer"
     id="layer1"
     transform="translate(-23.633109,-7.982072)">
    <path
       id="rect84256"
       style="fill:#c6e3d4;fill-opacity:1;stroke:#000000;stroke-width:0.170353"
       d="M 61.109733,69.291953 H 121.45127 L 90.631491,88.373626 H 30.289945 Z"
       sodipodi:nodetypes="ccccc" />
    <path
       id="rect84256-4"
       style="fill:#c6dee3;fill-opacity:0.734828;stroke:#000000;stroke-width:0.170353"
       d="M 61.353996,53.485805 H 121.69554 L 90.875753,72.567478 H 30.534208 Z"
       sodipodi:nodetypes="ccccc" />
    <path
       id="rect84256-4-3"
       style="fill:#c6cde3;fill-opacity:0.734828;stroke:#000000;stroke-width:0.170353"
       d="M 60.264139,38.870745 H 120.60568 L 89.785892,57.952417 H 29.444351 Z"
       sodipodi:nodetypes="ccccc" />
    <path
       id="rect84256-4-9"
       style="fill:#dac6e3;fill-opacity:0.734828;stroke:#000000;stroke-width:0.170353"
       d="M 60.709669,22.97267 H 121.05121 L 90.231422,42.054343 h -60.34154 z"
       sodipodi:nodetypes="ccccc" />
    <text
       xml:space="preserve"
       style="font-style:italic;font-size:3.43409px;font-family:'Liberation Serif';-inkscape-font-specification:'Liberation Serif Italic';fill:#000000;fill-opacity:1;stroke:#000000;stroke-width:0.170353"
       x="41.289593"
       y="84.325699"
       id="text85231"><tspan
         sodipodi:role="line"
         id="tspan85229"
         style="font-style:normal;font-variant:normal;font-weight:normal;font-stretch:normal;font-size:3.43409px;font-family:'Liberation Serif';-inkscape-font-specification:'Liberation Serif';fill:#000000;fill-opacity:1;stroke:none;stroke-width:0.170353"
         x="41.289593"
         y="84.325699">objects, actions, operations</tspan></text>
    <text
       xml:space="preserve"
       style="font-style:italic;font-size:3.43409px;font-family:'Liberation Serif';-inkscape-font-specification:'Liberation Serif Italic';fill:#000000;fill-opacity:1;stroke:#000000;stroke-width:0.170353"
       x="41.865002"
       y="68.364861"
       id="text85231-7"><tspan
         sodipodi:role="line"
         id="tspan85229-2"
         style="font-style:normal;font-variant:normal;font-weight:normal;font-stretch:normal;font-size:3.43409px;font-family:'Liberation Serif';-inkscape-font-specification:'Liberation Serif';fill:#000000;fill-opacity:1;stroke:none;stroke-width:0.170353"
         x="41.865002"
         y="68.364861">symbols for values</tspan></text>
    <text
       xml:space="preserve"
       style="font-style:italic;font-size:3.43409px;font-family:'Liberation Serif';-inkscape-font-specification:'Liberation Serif Italic';fill:#000000;fill-opacity:1;stroke:#000000;stroke-width:0.170353"
       x="-59.784325"
       y="26.017521"
       id="text85231-7-8"
       transform="rotate(-90)"><tspan
         sodipodi:role="line"
         id="tspan85229-2-5"
         style="font-style:normal;font-variant:normal;font-weight:normal;font-stretch:normal;font-size:3.43409px;font-family:'Liberation Serif';-inkscape-font-specification:'Liberation Serif';fill:#000000;fill-opacity:1;stroke:none;stroke-width:0.170353"
         x="-59.784325"
         y="26.017521">abstraction</tspan></text>
    <text
       xml:space="preserve"
       style="font-style:italic;font-size:3.43409px;font-family:'Liberation Serif';-inkscape-font-specification:'Liberation Serif Italic';fill:#000000;fill-opacity:1;stroke:#000000;stroke-width:0.170353"
       x="42.299889"
       y="53.483925"
       id="text85231-7-5"><tspan
         sodipodi:role="line"
         id="tspan85229-2-8"
         style="font-style:normal;font-variant:normal;font-weight:normal;font-stretch:normal;font-size:3.43409px;font-family:'Liberation Serif';-inkscape-font-specification:'Liberation Serif';fill:#000000;fill-opacity:1;stroke:none;stroke-width:0.170353"
         x="42.299889"
         y="53.483925">variables</tspan></text>
    <g
       inkscape:label=""
       transform="matrix(0.81120376,0,0,0.81120376,86.822897,33.284489)"
       id="g87636">
      <g
         clip-path="url(#clipPath5013)"
         id="g17"
         transform="matrix(0.352778,0,0,0.352778,-0.0881944,-0.0123031)">
        <g
           fill="#000000"
           fill-opacity="1"
           id="g15">
          <g
             id="use13"
             transform="translate(0,6.8629999)">
            <path
               d="m 1.109375,-5.9375 v 4.875 c 0,0.53125 -0.078125,0.703125 -0.578125,0.71875 -0.109375,0 -0.28125,0 -0.28125,0.171875 C 0.25,0 0.40625,0 0.59375,0 H 2.140625 C 2.3125,0 2.46875,0 2.46875,-0.171875 c 0,-0.171875 -0.171875,-0.171875 -0.3125,-0.171875 -0.546875,-0.015625 -0.625,-0.21875 -0.625,-0.75 v -4.5625 l 4.3125,5.703125 C 5.9375,0.15625 5.984375,0.1875 6.046875,0.1875 6.21875,0.1875 6.21875,0.03125 6.21875,-0.140625 v -5.625 c 0,-0.5625 0.09375,-0.703125 0.546875,-0.71875 0.0625,0 0.234375,0 0.234375,-0.171875 C 7,-6.828125 6.84375,-6.828125 6.671875,-6.828125 H 5.21875 c -0.1875,0 -0.34375,0 -0.34375,0.171875 0,0.171875 0.171875,0.171875 0.28125,0.171875 0.5625,0.015625 0.640625,0.21875 0.640625,0.75 V -2.625 l -3,-4.0625 C 2.6875,-6.828125 2.65625,-6.828125 2.4375,-6.828125 H 0.703125 c -0.1875,0 -0.328125,0 -0.328125,0.171875 0,0.15625 0.140625,0.171875 0.203125,0.171875 0.265625,0.03125 0.453125,0.1875 0.5625,0.3125 -0.03125,0.078125 -0.03125,0.09375 -0.03125,0.234375 z M 5.875,-0.515625 1.53125,-6.234375 C 1.4375,-6.359375 1.4375,-6.375 1.328125,-6.484375 h 1.1875 L 5.875,-1.9375 Z m 0,0"
               id="path23" />
          </g>
        </g>
      </g>
    </g>
    <g
       inkscape:label=""
       transform="matrix(0.81120376,0,0,0.81120376,82.1123,33.284529)"
       id="g87706">
      <g
         fill="#000000"
         fill-opacity="1"
         id="g12"
         transform="matrix(0.352778,0,0,0.352778,-0.0551215,-0.0123031)">
        <g
           id="use10"
           transform="translate(0,6.8629999)">
          <path
             d="M 2.671875,-3.125 H 3.03125 l 1.5,2.3125 C 4.625,-0.65625 4.859375,-0.265625 4.96875,-0.125 5.046875,0 5.078125,0 5.296875,0 h 1.375 c 0.1875,0 0.34375,0 0.34375,-0.171875 0,-0.09375 -0.0625,-0.15625 -0.15625,-0.171875 C 6.484375,-0.421875 6,-1.09375 5.765625,-1.40625 5.6875,-1.5 5.1875,-2.15625 4.53125,-3.234375 5.40625,-3.40625 6.265625,-3.78125 6.265625,-4.96875 6.265625,-6.34375 4.8125,-6.828125 3.625,-6.828125 H 0.5 c -0.1875,0 -0.34375,0 -0.34375,0.171875 0,0.171875 0.1875,0.171875 0.265625,0.171875 0.578125,0 0.625,0.078125 0.625,0.578125 v 4.984375 c 0,0.5 -0.046875,0.578125 -0.625,0.578125 -0.078125,0 -0.265625,0 -0.265625,0.171875 C 0.15625,0 0.3125,0 0.5,0 H 3.234375 C 3.40625,0 3.5625,0 3.5625,-0.171875 c 0,-0.171875 -0.171875,-0.171875 -0.28125,-0.171875 -0.5625,0 -0.609375,-0.078125 -0.609375,-0.578125 z m 1.921875,-0.5 c 0.28125,-0.359375 0.3125,-0.890625 0.3125,-1.328125 0,-0.484375 -0.0625,-1.015625 -0.375,-1.421875 0.40625,0.09375 1.390625,0.40625 1.390625,1.40625 0,0.65625 -0.296875,1.15625 -1.328125,1.34375 z M 2.671875,-5.9375 c 0,-0.21875 0,-0.546875 0.625,-0.546875 0.84375,0 1.265625,0.359375 1.265625,1.53125 0,1.28125 -0.3125,1.46875 -1.890625,1.46875 z M 1.3125,-0.34375 C 1.390625,-0.53125 1.390625,-0.8125 1.390625,-0.890625 V -5.9375 c 0,-0.09375 0,-0.359375 -0.078125,-0.546875 h 1.140625 c -0.125,0.171875 -0.125,0.359375 -0.125,0.515625 v 5.078125 c 0,0.09375 0,0.359375 0.078125,0.546875 z M 3.4375,-3.125 c 0.078125,-0.015625 0.109375,-0.03125 0.1875,-0.03125 0.15625,0 0.375,-0.015625 0.515625,-0.03125 0.15625,0.234375 1.234375,2.015625 2.0625,2.84375 h -0.96875 z m 0,0"
             id="path18" />
        </g>
      </g>
    </g>
    <g
       inkscape:label=""
       transform="matrix(0.81120376,0,0,0.81120376,91.228756,33.292324)"
       id="g88217">
      <g
         clip-path="url(#clipPath3188)"
         id="g88215"
         transform="matrix(0.352778,0,0,0.352778,-0.143316,0.00308679)">
        <g
           fill="#000000"
           fill-opacity="1"
           id="g88213">
          <g
             id="g88211"
             transform="translate(0,6.835)">
            <path
               d="M 5.4375,-1.3125 3.046875,-6.59375 c -0.109375,-0.25 -0.21875,-0.25 -0.4375,-0.25 H 0.40625 V -6.375 h 1.0625 v 5.625 c 0,0.21875 0,0.21875 -0.28125,0.25 -0.234375,0.03125 -0.265625,0.03125 -0.546875,0.03125 H 0.40625 V 0 c 0.375,-0.03125 0.9375,-0.03125 1.328125,-0.03125 0.421875,0 0.9375,0 1.34375,0.03125 v -0.46875 h -0.25 C 2.65625,-0.46875 2.484375,-0.484375 2.296875,-0.5 2.015625,-0.53125 2,-0.53125 2,-0.75 V -6.234375 H 2.015625 L 4.71875,-0.25 C 4.8125,-0.046875 4.9375,0 5.046875,0 5.25,0 5.328125,-0.15625 5.359375,-0.234375 L 8.140625,-6.375 H 8.15625 v 5.90625 H 7.078125 V 0 c 0.359375,-0.03125 1.28125,-0.03125 1.6875,-0.03125 0.421875,0 1.359375,0 1.71875,0.03125 V -0.46875 H 9.40625 V -6.375 h 1.078125 V -6.84375 H 8.28125 c -0.21875,0 -0.34375,0 -0.453125,0.25 z m 0,0"
               id="path88209" />
          </g>
        </g>
      </g>
    </g>
    <g
       id="g6449"
       transform="matrix(0.00968718,0,0,0.00968718,81.560168,75.983582)">
      <path
         id="rect3093-7"
         sodipodi:nodetypes="ccssccssc"
         style="fill:#784421"
         inkscape:connector-curvature="0"
         d="m 338.48,31.589 11.323,-3.2552 c 21.648,140.48 40.484,292.8 41.182,373.63 0.85906,99.505 3.5168,112.43 2.4712,164.91 -2.0413,102.46 -17.606,138.8 -28.049,231.4 l -10.544,-9.9782 c 8.3552,-85.608 16.056,-108.95 18.259,-182.93 1.7301,-58.099 0.15831,-146.17 0.34718,-200.43 0.3466,-99.608 -19.061,-236.59 -34.989,-373.35 z" />
      <path
         id="path3956"
         d="M 338.84,593.57 680.46,515.78 401.21,460.58 125.79,510.82 Z"
         sodipodi:nodetypes="ccccc"
         style="opacity:0.40717;fill:#d38d5f"
         inkscape:connector-curvature="0" />
      <path
         id="path3114"
         d="m 376.42,26.494 -26.608,1.84 c 21.648,140.48 40.366,294 41.064,374.83 0.85904,99.505 2.0327,111.22 0.98713,163.71 -2.0412,102.46 -16.005,138.8 -26.447,231.4 l 11.818,-4.8829 c 13.45,-82.494 34.456,-114.05 36.659,-188.02 1.7301,-58.099 3.5255,-157.77 4.027,-212.04 0.91274,-98.759 -23.59,-229.23 -41.499,-366.84 z"
         sodipodi:nodetypes="ccssccssc"
         style="fill:#d19b72"
         inkscape:connector-curvature="0" />
      <path
         id="rect3093"
         sodipodi:nodetypes="ccssccssc"
         style="fill:#784421"
         inkscape:connector-curvature="0"
         d="m 58.844,52.394 12.172,-2.9722 c 21.648,140.48 45.648,292.68 46.345,373.52 0.85906,99.505 0.90048,111.13 -0.14515,163.61 -2.0412,102.46 -12.511,196.83 -24.369,289.43 l -11.393,-14.22 c 7.223,-85.9 15.774,-159.91 17.977,-233.88 1.729,-58.1 0.719,-126.35 0.909,-180.62 0.35,-99.61 -25.567,-258.1 -41.496,-394.87 z" />
      <path
         id="rect3139"
         sodipodi:nodetypes="ccccc"
         style="fill:url(#linearGradient96296)"
         inkscape:connector-curvature="0"
         d="m 97.574,52.317 c 82.876,-4.425 167.17,-11.881 251.1,-18.414 l 9.7077,67.954 -249.2,22.518 z" />
      <path
         id="path3918"
         d="m 112.58,149.13 c 84.009,-8.9546 164.48,-16.835 248.98,-24.784 l 3.1972,22.663 -249.34,25.773 z"
         sodipodi:nodetypes="ccccc"
         style="fill:url(#linearGradient96298)"
         inkscape:connector-curvature="0" />
      <path
         id="path3922"
         sodipodi:nodetypes="ccccc"
         style="fill:url(#linearGradient96300)"
         inkscape:connector-curvature="0"
         d="m 119.79,195.72 c 84.009,-8.9546 163.35,-19.383 247.84,-27.331 l 3.1972,23.654 -247.78,29.028 z" />
      <path
         id="path3116"
         d="m 99.377,47.39 -28.36,2.0318 c 21.648,140.48 45.648,292.68 46.345,373.52 0.85906,99.505 0.90048,111.13 -0.14515,163.61 -2.0412,102.46 -12.825,196.51 -24.682,289.12 l 26.65,-5.1034 c 11.726,-81.387 23.279,-166.41 26.683,-240.78 2.6574,-58.064 1.0247,-130.75 1.2135,-185.02 0.35,-99.62 -29.77,-285.83 -47.703,-397.38 z"
         sodipodi:nodetypes="ccssccssc"
         style="fill:#d19b72"
         inkscape:connector-curvature="0" />
      <path
         id="path3952"
         d="m 123.5,626.33 200.77,89.066 0.11728,20.807 -200.49,-89.433 z"
         sodipodi:nodetypes="ccccc"
         style="fill:#a66320"
         inkscape:connector-curvature="0" />
      <path
         id="path3954"
         sodipodi:nodetypes="ccccc"
         style="fill:#d38d5f"
         inkscape:connector-curvature="0"
         d="m 123.43,626.26 200.84,89.137 13.138,-6.3677 -196.53,-84.975 z" />
      <path
         id="rect3949"
         sodipodi:nodetypes="ccccc"
         style="fill:#a66320"
         inkscape:connector-curvature="0"
         d="m 124.5,508.21 200.69,73.304 -0.2274,56.467 -200.56,-77.261 z" />
      <path
         id="rect3926"
         sodipodi:nodetypes="ccccc"
         style="fill:#784421"
         inkscape:connector-curvature="0"
         d="m 475.1,590.22 164.46,45.008 0.28308,19.815 -163.9,-46.14 z" />
      <path
         id="path3929"
         d="m 475.1,590.22 164.46,45.008 14.153,-3.9629 -162.76,-45.291 z"
         sodipodi:nodetypes="ccccc"
         style="fill:#d38d5f"
         inkscape:connector-curvature="0" />
      <path
         id="rect3931"
         sodipodi:nodetypes="ccccc"
         style="fill:#784421"
         inkscape:connector-curvature="0"
         d="m 636.56,517.9 23.094,1.4153 v 411.3 l -15.993,-6.7936 c -8.6146,-192.76 -9.3591,-276.86 -7.101,-405.92 z" />
      <path
         id="path3945"
         d="m 321.77,581.24 20.459,7.1202 4.6049,445.76 -15.34,-6.7623 c -6.6994,-190.2 -9.7779,-309.92 -9.7236,-446.12 z"
         sodipodi:nodetypes="ccccc"
         style="fill:#a05a2c"
         inkscape:connector-curvature="0" />
      <path
         id="path3934"
         d="m 683.69,513.71 -24.036,4.8122 v 412.09 l 18.824,-5.6614 c 2.7081,-188.8 4.1574,-282.25 5.2125,-411.24 z"
         sodipodi:nodetypes="ccccc"
         style="fill:#c78d5e"
         inkscape:connector-curvature="0" />
      <path
         id="rect3936"
         sodipodi:nodetypes="ccccc"
         style="fill:#c79165"
         inkscape:connector-curvature="0"
         d="m 360.35,584.06 295.76,-64.547 -0.14144,53.16 -295.24,68.927 z" />
      <path
         id="path3939"
         d="m 360.97,692.85 295.9,-73.408 v 20.664 l -295.38,74.73 z"
         sodipodi:nodetypes="ccccc"
         style="fill:#c79165"
         inkscape:connector-curvature="0" />
      <path
         id="path3941"
         sodipodi:nodetypes="ccccc"
         style="fill:#c87137"
         inkscape:connector-curvature="0"
         d="m 360.97,692.85 295.9,-73.4 -18.25,-3.26 -291.99,70.91 z" />
      <path
         id="path3943"
         sodipodi:nodetypes="ccccc"
         style="fill:#bf8559"
         inkscape:connector-curvature="0"
         d="m 373.21,579.62 -30.982,8.7375 4.6049,445.76 21.088,-5.6614 c 2.7082,-188.8 4.2333,-319.84 5.2883,-448.83 z" />
      <path
         id="rect3958"
         sodipodi:nodetypes="ccccccsc"
         style="fill:url(#radialGradient3999)"
         inkscape:connector-curvature="0"
         d="m 418.76,415 119.68,22.832 c 49.036,10.502 143.24,27.082 153.76,42.839 l -287.07,56.416 -61.668,14.917 -223.06,-79.825 c 5.4949,-10.685 79.031,-16.616 163.4,-33.082 43.862,-8.5599 95.628,-19.488 134.95,-24.098 z" />
      <path
         id="rect3964"
         sodipodi:nodetypes="ccccc"
         style="fill:#454444"
         inkscape:connector-curvature="0"
         d="m 120.41,471.9 c 73.496,23.399 146.31,43.494 220.51,79.542 l 0.84921,36.799 -219.66,-79.542 z" />
      <path
         id="rect3967"
         sodipodi:nodetypes="csccccc"
         style="fill:#b3b3b3"
         inkscape:connector-curvature="0"
         d="m 340.5,550.1 c 7.2942,-1.9967 10.822,-3.1066 18.181,-5.0481 7.1215,-1.8788 222.72,-44.497 331.76,-66.922 1.9212,0.69193 1.925,2.1448 1.203,2.8307 l -327.27,65.481 -23.314,6.2767 z" />
      <path
         id="rect3970"
         sodipodi:nodetypes="ccccc"
         style="fill:#999999"
         inkscape:connector-curvature="0"
         d="m 121.54,470.77 c 73.079,21.322 145.87,45.779 219.24,79.259 l 0.28307,2.6892 c -81.373,-37.17 -145.42,-57.681 -220.65,-79.967 -0.55482,-1.0489 -0.56327,-1.8702 1.1323,-1.9815 z" />
      <path
         id="rect3961"
         sodipodi:nodetypes="cscccc"
         style="fill:#666666"
         inkscape:connector-curvature="0"
         d="m 339.79,551.44 c 2.233,-0.44211 14.657,-4.847 16.89,-5.2886 114.98,-22.738 220.8,-43.156 333.83,-66.611 2.642,4.1516 2.642,15.097 0,32.836 l -349.02,76.428 z" />
    </g>
    <path
       id="path2689"
       sodipodi:nodetypes="csssscccscccscccsssssssssscsscscccssccsccccsssccccccsscccssssccscscsscscccccsssssccccscscsccccsssssscsccscssssssscssscssscsssssscsssccscsscscssssccscscssscscsccscccccccccccccccccccccsccscsccscc"
       style="fill:#707070;fill-opacity:1;stroke:#000000;stroke-width:0.0676973;stroke-miterlimit:4;stroke-dasharray:none;stroke-opacity:1"
       inkscape:connector-curvature="0"
       d="m 97.13956,82.447154 c 0,-0.0059 -0.0073,-0.0168 -0.01687,-0.02485 -0.01217,-0.01059 -0.01363,-0.01467 -0.0057,-0.01467 0.01314,0 0.03553,0.03638 0.02742,0.04449 -0.0032,0.0029 -0.0057,5.91e-4 -0.0057,-0.0047 z m 1.22164,-0.01828 c 0.0032,-0.0078 0.0073,-0.01213 0.0097,-0.0097 0.0024,0.0024 1.6e-5,0.0088 -0.0057,0.01407 -0.0081,0.0077 -0.0086,0.0068 -0.0041,-0.0041 z m -1.951983,-0.0054 c 0,-0.0047 0.0032,-0.0083 0.0081,-0.0083 0.0041,0 0.0081,0.0018 0.0081,0.0036 0,0.0018 -0.0032,0.0059 -0.0081,0.0083 -0.0041,0.0029 -0.0081,0.0012 -0.0081,-0.0036 z m 1.371664,0.0024 c -0.0032,-0.0029 -0.0057,-0.06826 -0.0057,-0.145279 0,-0.126463 0.0016,-0.14147 0.01476,-0.154767 0.0082,-0.0081 0.01955,-0.01639 0.02555,-0.0184 0.0073,-0.0024 0,-0.01414 -0.02263,-0.03727 -0.03212,-0.03224 -0.03334,-0.03543 -0.03334,-0.08244 0,-0.02692 -0.0024,-0.09185 -0.0049,-0.144357 l -0.0057,-0.09547 h -0.02912 -0.02912 l -0.05987,-0.159653 c -0.05808,-0.154898 -0.08719,-0.264211 -0.09499,-0.356874 -0.04218,-0.500527 -0.06092,-1.382695 -0.03724,-1.752986 0.02409,-0.376536 0.02393,-0.360015 0.0032,-0.412294 -0.126661,-0.324547 -0.173054,-0.437381 -0.290484,-0.706751 -0.136249,-0.312539 -0.164374,-0.368752 -0.202314,-0.404373 -0.03691,-0.03466 -0.03878,-0.02059 -0.02758,0.201804 0.01363,0.27092 0.0065,1.265248 -0.01111,1.510081 -0.01079,0.150608 -0.01079,0.192578 0,0.388705 0.0065,0.120937 0.0133,0.233345 0.01533,0.249795 0.0016,0.01644 0.0092,0.09596 0.01598,0.176695 0.01257,0.149421 0.01622,0.169503 0.06262,0.335254 0.06579,0.234955 0.137142,0.531145 0.141985,0.589179 0.0057,0.06752 -0.0024,0.148834 -0.02961,0.292812 l -0.01671,0.08885 -0.04754,0.04643 -0.04762,0.04643 -0.0032,0.104056 c -0.0024,0.06968 -0.0065,0.10945 -0.01387,0.120369 -0.0073,0.01136 -0.0086,0.02343 -0.0041,0.03969 0.0032,0.01283 0.0073,0.06038 0.0083,0.105592 0.0016,0.06696 0.0041,0.08513 0.01582,0.09793 0.0081,0.0086 0.01825,0.0236 0.02328,0.03324 0.0086,0.01674 0.0081,0.01727 -0.01671,0.01248 -0.01403,-0.0029 -0.02831,-0.0089 -0.03148,-0.0136 -0.0032,-0.0054 -0.0057,-0.0029 -0.0057,0.0054 0,0.01231 -0.0057,0.01337 -0.04924,0.0093 -0.02701,-0.0024 -0.09858,-0.0041 -0.159045,-0.0041 -0.06043,3.07e-4 -0.117008,5.91e-4 -0.125647,5.91e-4 -0.163912,5.91e-4 -0.207441,-5.91e-4 -0.211903,-0.008 -0.0081,-0.0129 -0.01971,-0.0012 -0.01412,0.01378 0.0041,0.01165 0.0032,0.01206 -0.0081,0.0029 -0.0084,-0.0069 -0.02141,-0.0086 -0.0378,-0.0047 -0.01501,0.0036 -0.02304,0.0024 -0.0202,-0.0018 0.0024,-0.0041 -0.02912,-0.01112 -0.0756,-0.01615 -0.06644,-0.0072 -0.08252,-0.01159 -0.09392,-0.02568 -0.0073,-0.0093 -0.01379,-0.02343 -0.01379,-0.03129 0,-0.0079 -0.01144,-0.03254 -0.02515,-0.05477 -0.02239,-0.03614 -0.02523,-0.0469 -0.02547,-0.100654 v -0.06017 l 0.04681,-0.05892 c 0.02571,-0.03242 0.06717,-0.08063 0.09217,-0.107191 0.0524,-0.05578 0.05646,-0.06458 0.07277,-0.1575 0.01582,-0.09068 0.01533,-0.128456 -0.0032,-0.254422 -0.02409,-0.158754 -0.03415,-0.188135 -0.08298,-0.242839 -0.02304,-0.02579 -0.046,-0.0546 -0.05103,-0.06409 -0.01387,-0.02602 -0.02352,-0.25825 -0.02109,-0.508963 0.0024,-0.213363 -0.0073,-0.356649 -0.03691,-0.561861 -0.0016,-0.01313 -0.01087,-0.09975 -0.01963,-0.192401 -0.0089,-0.09265 -0.01793,-0.179055 -0.02012,-0.192009 -0.0024,-0.01295 -0.0073,-0.07657 -0.01111,-0.141357 -0.0049,-0.07646 -0.01395,-0.145345 -0.02653,-0.196323 -0.02588,-0.105179 -0.09187,-0.351414 -0.09605,-0.358151 -0.0016,-0.0029 -0.04989,-0.178033 -0.106706,-0.389037 l -0.103372,-0.383634 -0.0016,-0.149207 -0.0016,-0.149207 -0.106778,-0.0047 c -0.05873,-0.0029 -0.110154,-0.0071 -0.114275,-0.0096 -0.0041,-0.0024 -0.04064,-0.0097 -0.08114,-0.01592 -0.07934,-0.01213 -0.138611,-0.03448 -0.16474,-0.06208 -0.0091,-0.0095 -0.04421,-0.0588 -0.07828,-0.109569 -0.05086,-0.0759 -0.06628,-0.106474 -0.08669,-0.172105 -0.02223,-0.07152 -0.02434,-0.08702 -0.02085,-0.149182 l 0.0041,-0.06938 h -0.03391 -0.03391 l -0.0041,-0.03336 c -0.0024,-0.01833 -0.0099,-0.09698 -0.01647,-0.174731 -0.0065,-0.07774 -0.01363,-0.151952 -0.01533,-0.164907 -0.0016,-0.01295 -0.0089,-0.07657 -0.0159,-0.141357 -0.0065,-0.06478 -0.01379,-0.126628 -0.01517,-0.137429 -0.01038,-0.08492 -0.01347,-0.12473 -0.02036,-0.26307 -0.0041,-0.08638 -0.01,-0.189478 -0.01265,-0.229093 -0.0065,-0.09983 -0.0081,-0.432448 -0.0016,-0.465881 0.0032,-0.01515 0.01095,-0.07873 0.01817,-0.141351 0.0073,-0.06263 0.01452,-0.124469 0.01639,-0.137429 0.01768,-0.123778 0.03472,-0.58928 0.03488,-0.952797 0,-0.151739 0.01168,-0.253677 0.0623,-0.54711 0.02271,-0.131685 0.02344,-0.133821 0.05078,-0.1576 0.0391,-0.03401 0.154412,-0.09625 0.287514,-0.155158 0.322243,-0.142612 0.685727,-0.324589 0.720893,-0.360932 0.02507,-0.02585 0.02596,-0.02911 0.02742,-0.09666 0.0016,-0.06501 0,-0.07336 -0.02393,-0.118784 -0.03066,-0.05892 -0.07252,-0.171443 -0.07252,-0.194914 0,-0.03774 -0.01582,-0.06448 -0.04121,-0.06956 -0.01347,-0.0029 -0.03553,-0.0168 -0.04883,-0.03135 -0.03172,-0.03461 -0.05946,-0.145965 -0.0593,-0.237829 0,-0.05791 0.0016,-0.06564 0.01841,-0.07867 0.0172,-0.01349 0.01874,-0.02171 0.02393,-0.126101 0.0116,-0.235133 0.02693,-0.303727 0.08801,-0.395679 0.06295,-0.09469 0.07698,-0.106913 0.179568,-0.155956 0.151622,-0.07251 0.156473,-0.0738 0.257825,-0.06824 0.212203,0.01165 0.371945,0.06813 0.472453,0.167017 0.04592,0.04514 0.06887,0.08813 0.105708,0.197411 0.02401,0.07135 0.02434,0.07451 0.0232,0.216629 -0.0016,0.143966 -0.0016,0.144268 0.01955,0.174821 0.02344,0.03448 0.02547,0.06027 0.01314,0.167816 -0.0065,0.06058 -0.01079,0.07091 -0.0451,0.120547 -0.05711,0.08278 -0.06546,0.102086 -0.07236,0.168242 -0.0032,0.03366 -0.01257,0.082 -0.01996,0.107463 -0.02085,0.07048 -0.01379,0.112414 0.02969,0.175973 0.06563,0.09603 0.09322,0.111817 0.264672,0.151348 0.05403,0.01242 0.260729,0.06662 0.459417,0.120376 0.33845,0.09159 0.362462,0.09924 0.380844,0.121429 0.02499,0.03011 0.08971,0.178262 0.137726,0.315154 0.03513,0.10014 0.03772,0.113419 0.04754,0.239515 0.0097,0.125368 0.01882,0.186532 0.05784,0.38871 0.01752,0.0907 0.06838,0.391391 0.09433,0.557574 0.0092,0.05832 0.02547,0.152585 0.03642,0.209501 0.01963,0.102086 0.01979,0.1077 0.01679,0.416222 l -0.0032,0.312723 -0.07601,0.446544 c -0.04186,0.24559 -0.07601,0.447721 -0.07601,0.449194 0,0.0012 -0.01987,0.0036 -0.04421,0.0047 l -0.04421,0.0024 v 0.04318 c 0,0.02378 0.0032,0.0909 0.0057,0.149207 0.0057,0.104216 -0.0049,0.229507 -0.02774,0.329824 -0.0083,0.03662 0.0065,0.133951 0.101717,0.667497 0.01736,0.09718 0.03699,0.20849 0.04372,0.247365 0.0065,0.03887 0.01752,0.09895 0.02393,0.133502 0.01168,0.06233 0.02085,0.141091 0.05094,0.435849 0.0086,0.08422 0.01955,0.183172 0.02434,0.219882 0.01314,0.0998 0.01947,1.862276 0.0073,1.968568 -0.0065,0.05513 -0.0189,0.106131 -0.04007,0.164492 -0.02255,0.06206 -0.03066,0.09678 -0.03066,0.130396 0,0.0252 -0.0094,0.08321 -0.02085,0.128929 -0.01979,0.07871 -0.02215,0.08368 -0.04632,0.09378 -0.02409,0.01011 -0.02523,0.01218 -0.01914,0.03874 0.0032,0.01544 0.01582,0.04732 0.02726,0.07084 0.01979,0.04034 0.03918,0.06056 0.163474,0.169834 0.03861,0.03396 0.06838,0.112692 0.06838,0.180924 0,0.04703 -0.0016,0.04868 -0.03618,0.08124 -0.02417,0.02218 -0.04608,0.03478 -0.06595,0.03797 -0.06108,0.0098 -0.112798,0.03567 -0.135909,0.06808 -0.01217,0.01703 -0.02831,0.031 -0.03569,0.031 -0.0073,0 -0.01785,0.0041 -0.02304,0.0094 -0.0073,0.0073 -0.0094,0.0064 -0.0094,-0.0041 0,-0.01562 -0.0086,-0.01721 -0.02198,-0.0041 -0.0073,0.0071 -0.0094,0.0071 -0.0094,3.14e-4 0,-0.0067 -0.0057,-0.0071 -0.02069,-0.0012 -0.01144,0.0041 -0.02263,0.006 -0.02482,0.0036 -0.0024,-0.0024 0,-0.0041 0.0065,-0.0041 0.0057,0 0.0086,-0.0018 0.0065,-0.0041 -0.0024,-0.0024 -0.01347,-5.92e-4 -0.02482,0.0036 -0.01533,0.0059 -0.02077,0.0054 -0.02085,-0.0018 0,-0.0062 -0.0032,-0.0054 -0.0081,0.0024 -0.0049,0.0074 -0.01,0.0088 -0.01363,0.0041 -0.0081,-0.01071 -0.09098,-0.01236 -0.09743,-0.0018 -0.0032,0.0059 -0.01257,0.0054 -0.0292,-0.0018 -0.01768,-0.0073 -0.03026,-0.0078 -0.0477,-0.0018 -0.01549,0.0054 -0.02531,0.0054 -0.02847,4.67e-4 -0.0032,-0.0054 -0.0082,-0.0054 -0.01436,3.14e-4 -0.01046,0.0086 -0.0739,0.0074 -0.0886,-0.0018 -0.0049,-0.0029 -0.01752,-0.0024 -0.02782,0.0018 -0.01144,0.0041 -0.02393,0.0041 -0.03196,-3.14e-4 -0.0084,-0.0047 -0.01866,-0.0047 -0.02807,4.74e-4 -0.0082,0.0041 -0.01752,0.0054 -0.02085,0.0024 -0.0032,-0.0029 -0.0041,0.0041 -0.0016,0.01597 0.0041,0.02307 0.0032,0.02455 -0.0041,0.01639 z m 0.315226,-0.08528 c -0.0024,-0.0024 -0.0065,0.0018 -0.0097,0.0097 -0.0041,0.01118 -0.0032,0.01213 0.0041,0.0041 0.0057,-0.0054 0.0081,-0.01166 0.0057,-0.01408 z" />
    <g
       transform="matrix(0.00179382,0,0,0.00179382,98.59928,81.486847)"
       id="g5818">
      <circle
         id="path4839"
         style="fill:url(#radialGradient5961)"
         transform="matrix(1.1033,0,0,1.1033,311.81,239.19)"
         cx="-3516.1245"
         cy="281.70477"
         r="832.58527" />
      <path
         id="path5548"
         sodipodi:nodetypes="csc"
         style="opacity:0.44015;fill:none;stroke:url(#radialGradient5963);stroke-width:20;filter:url(#filter5598)"
         inkscape:connector-curvature="0"
         d="m -2792.4,828.98 c 10.619,7.0793 72.059,-213.08 75.415,-226.25 3.5029,-13.746 48.655,-60.819 48.655,-60.819" />
      <path
         id="path4923"
         sodipodi:nodetypes="ccsc"
         style="fill:none;stroke:#36372e;stroke-width:13;filter:url(#filter4945)"
         inkscape:connector-curvature="0"
         d="m -4001.2,1081 197.82,-275.23 c 0,0 457.67,-6.0303 463.67,-1.3584 6,4.6719 201.09,267.25 201.09,267.25" />
      <path
         id="path4979"
         style="fill:url(#linearGradient96184);filter:url(#filter4989)"
         inkscape:connector-curvature="0"
         d="m -3316.6,790.89 c 0,0 172.02,247.71 189.22,258.03 17.202,10.321 282.12,-130.74 292.44,-144.5 10.321,-13.762 24.083,-30.964 24.083,-30.964 0,0 0,55.047 -24.083,75.69 -24.083,20.643 -282.12,144.5 -282.12,144.5 l -227.07,-306.2 z" />
      <path
         id="path5450"
         sodipodi:nodetypes="ccc"
         style="opacity:0.67181;fill:none;stroke:url(#linearGradient96186);stroke-width:19.6;filter:url(#filter5544)"
         inkscape:connector-curvature="0"
         d="m -4419.8,570.7 c 15.318,103.21 53.495,247.71 96.332,350.92 l -3.4404,86.011" />
      <path
         id="path4852"
         sodipodi:nodetypes="ccsssscccccccccssscsccccccc"
         style="fill:url(#linearGradient96188);filter:url(#filter4919)"
         inkscape:connector-curvature="0"
         d="m -4478.6,667.91 c 45.626,356.09 295.12,648.41 627.72,756.16 25.322,-13.275 76.098,-39.042 92.312,-40.844 21.895,-2.433 184.88,0 221.38,0 36.491,0 84.49,-24.264 126.69,-18.031 23.554,3.4793 42.886,17.899 64.781,30.062 21.119,11.733 63.812,28.062 63.812,28.062 241.81,-79.033 439.44,-255.69 546.34,-483.41 -53.142,-33.463 -21.089,-113.21 -19.875,-230.03 -70.983,59.503 -156.28,110.52 -238.44,148.66 -12.012,3.3882 -24.416,4.9524 -37.594,2.6875 -28.071,-3.6839 -44.613,22.029 -69.375,27.812 -27.716,-6.2475 -36.867,31.669 -61.438,22.281 -18.311,-24.282 -18.014,-2.5958 -23.25,13.719 -21.14,4.291 -100.56,-83.529 -117.21,-82.999 -8.2786,4.9893 50.608,63.534 29.54,78.356 -77.298,54.379 -208.87,54.237 -318.11,54.237 -87.307,0 -228.5,8.449 -264.06,-46.375 -16.04,-24.729 63.427,-96.587 50.156,-128.25 -17.678,9.4031 -79.902,94.408 -116.84,121.66 -24.034,17.727 -24.469,-17.771 -39.156,-15.938 -0.1507,-0.0885 -0.2805,-0.1976 -0.4375,-0.28125 -65.282,-56.647 -107.32,8.5484 -162.03,-29.75 -10.647,3.8406 -22.2,13.584 -33.719,6.875 -7.563,-9.3641 -18.225,-6.2338 -28.25,-3.1875 -83.795,-28.962 -136.93,-12.747 -174.14,-77.132 -60.71,32.426 -115.44,-70.097 -118.8,-134.34 z" />
      <path
         id="path5107"
         style="opacity:0.4656;fill:url(#linearGradient96190);filter:url(#filter5138)"
         inkscape:connector-curvature="0"
         d="m -3272.2,-320.09 c 2.6525,22.03 43.095,66.721 48.844,78.219 7.2983,14.597 94.884,63.266 131.38,87.594 36.491,24.328 19.447,14.605 24.312,36.5 4.8655,21.895 31.654,75.403 46.25,121.62 14.597,46.222 21.884,145.96 26.75,172.72 4.8656,26.76 -14.6,63.244 -34.062,92.438 -19.462,29.193 -162.98,48.678 -184.88,43.812 -21.895,-4.8655 -347.91,-231.12 -347.91,-231.12 0,0 245.72,231.11 311.41,272.47 65.684,41.357 53.509,-12.17 90,-19.469 36.491,-7.2983 226.25,-72.961 274.91,-85.125 48.655,-12.164 36.495,-41.364 34.062,-99.75 -1.7505,-42.012 24.208,-84.019 33.469,-130.56 -110.89,-156.38 -269.46,-276.55 -454.53,-339.34 z" />
      <path
         id="path4837"
         style="fill:#000000"
         inkscape:connector-curvature="0"
         d="m -3567.6,-368.59 c -100.55,0 -197.3,16.175 -287.84,46.031 -13.462,25.508 -27.813,55.158 -37.531,77.594 -2.0251,4.675 -4.2725,9.85 -5,11.5 -0.914,2.073 -3.3139,4.027 -7.7187,6.375 -3.5062,1.8689 -10.057,5.3643 -14.563,7.75 -4.5059,2.3857 -10.323,5.6858 -12.937,7.3438 -2.6142,1.6579 -5.1085,3.0312 -5.5313,3.0312 -0.4228,0 -4.0555,1.9508 -8.0625,4.3438 -4.007,2.3929 -11.781,6.9602 -17.281,10.156 -9.1661,5.3264 -18.726,11.2 -38.281,23.438 -9.8576,6.1689 -57.162,37.527 -65,43.094 -3.4585,2.4563 -11.108,8.0164 -17,12.344 -5.8915,4.3275 -12.744,9.2386 -15.219,10.938 -2.4751,1.6988 -6.7777,4.9013 -9.5626,7.125 -2.7849,2.2237 -8.5934,6.7625 -12.906,10.062 -4.3128,3.3 -13.06,10.201 -19.438,15.344 -6.3774,5.1428 -14.263,11.443 -17.531,14 -3.2681,2.5572 -6.7238,5.412 -7.6874,6.3438 -1.9385,1.8746 -4.7691,2.4686 -15.875,3.3125 -4.125,0.3135 -9.3001,0.74805 -11.5,0.96875 -2.2,0.2206 -7.15,0.6417 -11,0.9375 -3.8501,0.2958 -10.6,0.97605 -15,1.5312 -4.4,0.5552 -10.605,1.263 -13.781,1.5625 -3.1761,0.2995 -10.376,1.2319 -16,2.0625 -5.6239,0.8306 -12.469,1.7229 -15.219,2 -1.1832,0.11917 -4.2362,0.55612 -8.0313,1.125 -128.71,154.2 -207.82,351.23 -212.81,566.59 5.1365,4.3706 9.9238,8.4069 12.812,10.719 2.4053,1.925 8.7894,7.1 14.188,11.5 5.3981,4.4 10.778,8.675 11.969,9.5 1.1912,0.825 5.8599,4.425 10.375,8 4.5151,3.575 10.995,8.433 14.375,10.812 11.789,8.3004 11.202,7.2419 14.656,27.188 0.6191,3.575 1.7317,9.425 2.4688,13 0.7368,3.575 2.0819,10.325 3,15 5.1725,26.341 6.9956,34.712 12.656,58.5 10.876,45.705 25.724,96.802 41.156,141.5 2.1838,6.325 4.6521,13.525 5.4688,16 1.5673,4.75 5.3625,15.084 13.438,36.5 2.696,7.15 5.6193,15.025 6.5,17.5 0.8807,2.475 2.2676,5.4874 3.0625,6.7188 1.3074,2.0251 1.1034,3.3139 -2.1562,13.5 -5.7191,17.872 -6.3018,19.771 -9.0938,29.281 -1.4532,4.95 -3.0787,10.125 -3.5938,11.5 -0.5149,1.375 -1.7559,5.65 -2.7812,9.5 -1.0254,3.85 -3.1116,11.5 -4.625,17 -1.5134,5.5 -3.1091,11.35005 -3.5312,13.00005 -0.4222,1.65 -1.7553,6.6001 -2.9688,11 -1.2134,4.4 -2.4293,8.9001 -2.6875,10 -0.2449,1.0434 -0.5528,2.2465 -0.7187,2.8438 112.5,184.06 287.99,325.44 496.47,394.19 0.2796,-0.1865 0.4311,-0.2765 0.7187,-0.4687 7.8671,-5.2576 16.052,-10.688 18.188,-12.063 4.1306,-2.6593 11.22,-7.6216 19.656,-13.75 2.8372,-2.0609 8.9122,-6.4236 13.5,-9.6874 4.5878,-3.264 13.5,-9.789 19.812,-14.5 6.3121,-4.7111 12.837,-9.4058 14.5,-10.438 1.663,-1.0317 3.2562,-2.2115 3.5313,-2.5937 0.5572,-0.7747 11.769,-9.4198 16.656,-12.844 3.4421,-2.4117 2.5918,-2.4129 39.344,0.8124 55.726,4.8905 125.81,6.7982 186.72,5.0938 44.629,-1.2488 65.142,-2.3744 108.78,-6 l 23,-1.9062 3.5,2.375 c 4.2921,2.9267 10.321,7.3741 25.125,18.5 10.248,7.7019 32.087,23.56 43.312,31.437 11.248,7.8942 27.21,18.466 39.156,26.125 208.27,-68.604 383.62,-209.7 496.19,-393.41 -2.5329,-10.011 -6.9865,-27.215 -7.7188,-29.71905 -0.4825,-1.65 -1.5914,-5.475 -2.4687,-8.5 -0.8773,-3.025 -2.9641,-10.225 -4.6563,-16 -1.692,-5.775 -3.4641,-12.075 -3.9374,-14 -0.4734,-1.925 -1.8383,-6.65 -3.0313,-10.5 -1.193,-3.85 -2.7826,-9.025 -3.5,-11.5 -1.1675,-4.0275 -3.2201,-10.307 -6.9375,-21.094 -1.1505,-3.3387 -0.9614,-4.2667 2.7188,-13 2.1797,-5.1726 5.4774,-13.681 7.3124,-18.906 4.6549,-13.254 8.3255,-23.144 9.4688,-25.5 0.5336,-1.1 2.9633,-7.85 5.4062,-15 2.443,-7.15 5.159,-15.025 6.0313,-17.5 1.9623,-5.5675 10.083,-31.421 14.938,-47.5 1.9927,-6.6 4.8059,-15.825 6.25,-20.5 1.4442,-4.675 3.2038,-10.975 3.875,-14 0.6713,-3.025 3.0932,-12.237 5.4062,-20.469 2.3131,-8.2315 4.5784,-16.782 5.0313,-19 0.4528,-2.2186 2.4309,-10.556 4.375,-18.531 3.4893,-14.314 6.0388,-25.876 9.2187,-41.5 0.8956,-4.4 2.269,-10.925 3.0313,-14.5 1.8296,-8.5804 6.077,-32.215 6.9063,-38.375 0.7327,-5.4435 2.9198,-7.9714 12.5,-14.406 3.025,-2.0319 6.202,-4.3846 7.0624,-5.2188 0.8605,-0.8342 3.6975,-3.075 6.3126,-5 2.615,-1.925 6.8629,-5.2062 9.4374,-7.2812 2.5744,-2.075 5.1375,-4.1146 5.6876,-4.5312 4.1136,-3.1164 16.658,-13.122 19.594,-15.625 1.9806,-1.689 5.8066,-4.8625 8.4687,-7.0625 2.2021,-1.8199 5.2765,-4.4741 7.75,-6.625 -5.0761,-215.12 -84.115,-411.93 -212.66,-566 -0.7666,-0.1123 -1.5634,-0.22055 -2.1562,-0.3125 -1.6501,-0.2559 -5.25,-0.74725 -8,-1.0938 -2.75,-0.3465 -9.2236,-1.2434 -14.406,-2 -5.1826,-0.7566 -9.7707,-1.1638 -10.188,-0.90625 -0.4168,0.2576 -1.0552,0.0055 -1.4062,-0.5625 -0.351,-0.5679 -1.0438,-0.78935 -1.5626,-0.46875 -0.5187,0.3206 -4.2067,0.1317 -8.1874,-0.4375 -9.8861,-1.4136 -30.626,-3.4758 -46.75,-4.6562 -11.192,-0.8193 -9.5692,0.1538 -38.281,-22.938 -6.8388,-5.5 -16.797,-13.375 -22.156,-17.5 -5.3593,-4.125 -11.452,-8.85 -13.531,-10.5 -12.184,-9.6698 -53.517,-38.737 -77.812,-54.719 -24.828,-16.332 -70.154,-44.041 -88.719,-54.25 -2.75,-1.5123 -9.725,-5.3725 -15.5,-8.5625 -5.775,-3.19 -13.803,-7.5447 -17.844,-9.6875 -6.6482,-3.5258 -7.5297,-4.3718 -9.375,-8.8438 -2.3148,-5.6097 -3.6728,-8.6743 -10.25,-23.438 -6.171,-13.851 -20.132,-42.807 -30.344,-63.156 -90.934,-30.14 -188.17,-46.469 -289.22,-46.469 z m -329.84,138.44 24.687,0.625 c 21.436,0.5513 56.297,2.2852 82.688,4.0938 14.796,1.0139 53.375,4.9221 68.5,6.9375 1.925,0.2565 7.3249,0.9227 12,1.5 10.164,1.255 19.988,2.6112 29.5,4.0625 3.8499,0.5873 9.925,1.5126 13.5,2.0312 3.5749,0.5188 8.9749,1.3632 12,1.9062 3.025,0.543 8.4745,1.4394 12.094,1.9688 3.6191,0.5293 9.9191,1.6865 14,2.5625 4.0808,0.876 11.231,2.2177 15.906,3 4.675,0.7823 13.9,2.5835 20.5,4 6.5999,1.4165 14.238,3.0273 16.969,3.5625 2.7306,0.5352 5.237,1.2831 5.5625,1.6875 0.7428,0.9225 -0.7728,220.89 -1.7812,258.66 l -0.75,27.906 -6.5,4 c -3.575,2.1931 -13.25,8.1258 -21.5,13.188 -32.539,19.964 -92.504,58.973 -123.38,80.25 -27.077,18.662 -36.665,25.366 -59.625,41.719 -49.281,35.101 -103.09,75.468 -143.69,107.78 -8.8109,7.0125 -16.3,12.71 -16.656,12.656 -0.3558,-0.054 -6.5062,-1.8883 -13.656,-4.0625 -7.1501,-2.1742 -20.65,-6.1544 -30,-8.8438 -9.35,-2.6893 -23.75,-6.8986 -32,-9.3438 -26.547,-7.8679 -47.499,-13.872 -67,-19.219 -9.6969,-2.6583 -19.642,-5.4336 -37,-10.344 -21.908,-6.1971 -25.291,-7.1488 -43.5,-12.156 -10.175,-2.7981 -21.425,-5.9146 -25,-6.9375 -3.575,-1.023 -11,-3.0476 -16.5,-4.5 -18.5,-4.8852 -20.974,-5.563 -25.625,-7.0312 -2.5488,-0.8047 -5.3313,-1.4688 -6.1876,-1.4688 -0.8562,0 -1.8024,-0.4036 -2.0937,-0.875 -0.5443,-0.8807 1.0881,-15.216 3.9375,-34.625 0.8882,-6.05 1.9805,-13.7 2.4375,-17 1.4217,-10.267 4.1218,-26.16 6.375,-37.5 0.8196,-4.125 2.281,-11.775 3.2187,-17 0.9378,-5.225 2.3059,-11.822 3.0626,-14.656 0.7568,-2.8347 1.375,-6.1862 1.375,-7.4375 0,-1.2513 0.4205,-3.6548 0.9374,-5.3438 0.5169,-1.6891 1.4559,-5.7625 2.0938,-9.0625 1.7373,-8.9865 3.811,-18.284 5.5625,-25 2.3409,-8.9757 3.0758,-11.971 5.875,-24 1.4077,-6.05 3.0597,-12.35 3.6563,-14 0.5967,-1.65 1.4464,-4.575 1.9062,-6.5 2.4359,-10.197 3.2334,-13.172 5.4375,-20.5 1.3235,-4.4 3.1553,-10.7 4.0625,-14 0.9072,-3.3 2.2829,-7.4752 3.0625,-9.2812 0.7796,-1.8062 1.4063,-3.8192 1.4063,-4.4688 0,-1.1747 11.688,-36.887 16.437,-50.25 1.4045,-3.9517 3.5313,-7.8709 4.9063,-9 28.74,-23.6 70.881,-56.089 93.156,-71.812 9.014,-6.363 62.315,-42.084 70,-46.906 2.75,-1.7255 7.25,-4.552 10,-6.3125 3.9715,-2.5426 33.532,-20.226 43,-25.719 11.532,-6.6895 27.072,-15.278 43.812,-24.219 l 8.8126,-4.7188 z m 659.88,0.0625 10.75,5.6562 c 10.214,5.3817 20.091,10.86 35.75,19.844 3.8499,2.2089 8.8,4.9898 11,6.1562 16.301,8.6428 86.807,53.771 107.5,68.812 3.5749,2.5986 8.3,5.95 10.5,7.4375 13.86,9.3712 44.407,32.571 73.625,55.906 23.632,18.874 22.421,17.39 27.469,33.312 1.3077,4.125 2.7834,8.4 3.2813,9.5 1.6185,3.5763 10.135,30.937 10.125,32.531 0,0.8525 0.3886,1.9775 0.875,2.5 0.7287,0.7828 8.1041,26.1 12.219,41.969 0.5704,2.2 1.5008,5.35 2.0625,7 1.5257,4.4815 7.2515,28.147 8.7188,36.031 0.4131,2.2201 1.0626,4.5187 1.4374,5.125 0.6291,1.0178 2.8158,10.251 4.7188,19.844 0.4365,2.2 1.3108,6.475 1.9375,9.5 0.6266,3.025 1.4936,7.525 1.9375,10 0.4439,2.475 1.7261,9 2.8438,14.5 1.1176,5.5 2.8135,14.275 3.75,19.5 0.9364,5.225 2.3198,12.274 3.0937,15.688 0.7738,3.413 1.4063,7.5834 1.4063,9.25 0,1.6665 0.4459,4.936 0.9687,7.2812 0.5228,2.3454 1.6769,9.4562 2.5625,15.781 0.8856,6.325 1.9848,14.2 2.4688,17.5 0.9749,6.6494 2.6322,18.706 3.4687,25.219 0.5107,3.975 0.3742,4.268 -2.2187,4.875 -4.7592,1.1142 -12.472,3.1216 -20.469,5.3438 -4.2407,1.1784 -8.5157,2.3274 -9.5,2.5312 -2.2424,0.4647 -11.476,2.8943 -18.469,4.875 -19.237,5.4486 -27.317,7.7152 -34.812,9.6875 -4.6751,1.2302 -11.2,3.0388 -14.5,4.0312 -3.3001,0.9925 -13.65,3.8848 -23,6.4375 -9.35,2.5527 -20.6,5.7113 -25,7 -4.4001,1.2887 -23.525,6.6804 -42.5,12 -18.975,5.3197 -38.55,10.975 -43.5,12.562 -4.95,1.5872 -14.625,4.4268 -21.5,6.3125 -6.875,1.8857 -18.8,5.3002 -26.5,7.5938 -7.7001,2.2937 -14.665,4.3648 -15.5,4.5938 -0.8347,0.2289 -5.5597,-2.816 -10.5,-6.7812 -99.439,-79.811 -236.98,-176.49 -340.72,-239.5 l -22.688,-13.781 -0.062,-143.16 -0.031,-143.12 5.75,-1.0625 c 3.1624,-0.5828 8.9,-1.777 12.75,-2.6562 3.8499,-0.8792 12.85,-2.7074 20,-4.0312 7.15,-1.3238 16.6,-3.1014 21,-3.9688 4.4,-0.8673 10.7,-1.9968 14,-2.5 3.3,-0.5033 8.6999,-1.3846 12,-1.9688 13.082,-2.3163 27.844,-4.4443 51.5,-7.4375 6.875,-0.8699 15.425,-2.0488 19,-2.5938 7.6716,-1.1694 44.043,-4.7683 55.5,-5.5 4.4,-0.2811 10.025,-0.7296 12.5,-1 2.4749,-0.2704 8.55,-0.7212 13.5,-1 4.9499,-0.2788 11.925,-0.7376 15.5,-1 11.411,-0.8374 27.878,-1.4835 51.25,-2.0625 l 22.75,-0.5625 z m -1006.2,504.12 c 0.3936,0.003 5.6687,1.3938 11.719,3.0938 6.05,1.7 12.8,3.5613 15,4.125 2.1999,0.5637 5.9326,1.6922 8.2812,2.5 2.3486,0.8077 5.6803,1.6655 7.4062,1.9375 1.7261,0.2721 4.2935,0.96715 5.7188,1.5312 1.4253,0.5642 6.6438,2.0605 11.594,3.3125 4.9499,1.252 11.25,2.9568 14,3.8125 4.1535,1.2923 22.763,6.6327 37.5,10.75 1.925,0.5378 8.8999,2.5981 15.5,4.5625 6.5999,1.9643 12.88,3.728 13.937,3.9375 1.0571,0.2095 4.6572,1.2578 8,2.3438 3.343,1.0859 8.5375,2.6192 11.563,3.4062 7.2588,1.8888 41.11,11.984 52.5,15.656 4.9499,1.5959 15.975,4.936 24.5,7.4062 8.525,2.4703 23.15,6.8341 32.5,9.6875 9.3499,2.8533 19.25,5.8364 22,6.6562 2.75,0.8198 5.3454,1.8181 5.75,2.1875 0.4045,0.3694 3.6988,12.12 7.3124,26.125 3.6136,14.005 8.3714,31.769 10.594,39.469 2.2225,7.7 5.2841,18.5 6.8125,24 4.5777,16.473 14.925,52.113 19.156,66 2.1784,7.15 5.324,17.5 7,23 1.6758,5.5 5.7805,18.55 9.0937,29 3.3133,10.45 6.9301,21.925 8.0625,25.5 10.549,33.303 32.03,96.299 46.188,135.5 11.081,30.682 22.302,61.111 24.031,65.125 1.4555,3.3784 1.1991,3.8073 -27.906,43.875 -3.5957,4.95 -11.191,15.525 -16.875,23.5 -16.472,23.111 -25.403,35.584 -35.125,49.094 -4.9932,6.9388 -11.438,15.939 -14.312,20 -2.8749,4.0613 -9.7458,13.706 -15.25,21.406 -5.5041,7.7 -16.162,22.775 -23.688,33.5 -7.525,10.725 -15.626,22.2 -18.031,25.5 -8.7296,11.979 -28.752,40.257 -36.094,51 -8.8404,12.936 -9.2596,13.417 -11.219,12.75 -3.0829,-1.0496 -21.244,-8.2916 -24.313,-9.6874 -1.7536,-0.7977 -7.6874,-3.327 -13.187,-5.625 -5.5,-2.2981 -11.125,-4.7874 -12.5,-5.5313 -1.375,-0.7439 -6.7751,-3.1359 -12,-5.3125 -5.225,-2.1767 -12.2,-5.2718 -15.5,-6.9062 -3.3001,-1.6345 -8.9251,-4.2001 -12.5,-5.6876 -3.575,-1.4874 -8.9751,-3.9722 -12,-5.5312 -3.025,-1.5591 -9.1001,-4.4647 -13.5,-6.4375 -4.4,-1.9729 -9.125,-4.2581 -10.5,-5.0937 -1.375,-0.8359 -4.9751,-2.6714 -8,-4.0626 -3.025,-1.391 -7.75,-3.688 -10.5,-5.125 -2.75,-1.437 -10.85,-5.6364 -18,-9.3124 -16.839,-8.6575 -35.582,-18.777 -37.094,-20.031 -0.6533,-0.5423 -3.9977,-2.3338 -7.4375,-4 -3.4397,-1.6662 -8.6373,-4.5662 -11.562,-6.4375 -2.9252,-1.8712 -7.4942,-4.5574 -10.125,-5.9688 -8.3604,-4.4849 -15.59,-8.6908 -22.281,-12.969 -3.575,-2.2855 -8.75,-5.4346 -11.5,-7 -2.75,-1.5654 -8.15,-4.9166 -12,-7.4375 -7.877,-5.1578 -8.0955,-5.2925 -16.156,-10 -3.2096,-1.8744 -7.6438,-4.8108 -9.8437,-6.5312 -2.2,-1.7205 -5.2443,-3.9348 -6.7813,-4.9062 -1.5371,-0.9714 -3.1996,-2.76 -3.6875,-3.9688 -0.4878,-1.2087 -2.5328,-6.0125 -4.5312,-10.688 -1.9984,-4.675 -5.3491,-13.551 -7.4688,-19.719 -2.1196,-6.1679 -4.1572,-11.707 -4.5312,-12.312 -2.0788,-3.3634 -23.94,-68.361 -28.063,-83.438 -0.7456,-2.7274 -2.4751,-8.3524 -3.8437,-12.5 -1.3685,-4.1475 -3.3599,-10.906 -4.4375,-15.031 -1.0776,-4.125 -2.4551,-8.85 -3.0312,-10.5 -1.8302,-5.242 -11.125,-41.067 -11.125,-42.875 0,-0.9545 -1.0968,-5.6541 -2.4376,-10.438 -4.9825,-17.775 -6.5624,-24.071 -6.5624,-26.188 0,-1.1947 -0.6589,-4.9534 -1.4688,-8.3438 -2.1087,-8.8263 -6.0142,-27.708 -8,-38.656 -0.2494,-1.375 -0.9818,-5.425 -1.625,-9 -0.6431,-3.575 -1.7806,-9.3408 -2.5312,-12.812 -2.8394,-13.133 -3.1015,-12.296 19.906,-64.688 16.024,-36.488 44.528,-94.773 58.906,-120.41 3.8919,-6.9383 8.6603,-15.519 10.594,-19.094 15.456,-28.578 38.61,-67.469 57.719,-97 13.053,-20.172 15.632,-24 16.281,-24 z m 1352.1,0.5625 c 0.2211,-0.008 0.3879,0.0282 0.4687,0.0625 0.6468,0.2743 2.927,3.2822 5.0937,6.6875 11.191,17.589 25.885,40.883 29.125,46.188 13.67,22.383 30.162,50.726 38.688,66.5 5.499,10.175 10.315,18.95 10.719,19.5 2.5443,3.4698 31.866,61.324 41.562,82 13.193,28.133 24.305,53.339 35.188,79.906 l 4.4687,10.875 -1.6874,10.125 c -1.4493,8.8045 -9.8149,51.839 -12.563,64.594 -3.6437,16.915 -5.4177,24.542 -7.4062,32 -1.2464,4.675 -3.2604,12.775 -4.5,18 -3.4473,14.53 -11.778,44.719 -17.5,63.5 -5.9951,19.679 -15.631,49.939 -16.719,52.5 -0.5841,1.375 -2.9839,8.35 -5.3437,15.5 -2.3598,7.15 -5.894,17.275 -7.875,22.5 -1.981,5.225 -4.7551,12.76 -6.1563,16.75 -1.4011,3.9897 -4.9522,12.941 -7.875,19.906 -6.0813,14.492 -3.6901,12.198 -29.469,28.469 -23.139,14.605 -23.427,14.787 -25.094,15.531 -0.825,0.3683 -3.75,2.1214 -6.5,3.9062 -7.241,4.6994 -27.607,16.438 -28.531,16.438 -0.4329,0 -0.9416,0.3375 -1.125,0.75 -0.3719,0.8368 -7.4891,4.8732 -15.844,9 -3.0251,1.4942 -5.725,3.0094 -6,3.375 -0.5566,0.7397 -20.825,11.683 -40,21.594 -6.875,3.5536 -13.625,7.0909 -15,7.8438 -3.5296,1.9325 -53.702,25.871 -57.5,27.437 -1.1,0.4538 -7.2455,3.3377 -13.656,6.4063 -6.4108,3.0685 -11.963,5.5937 -12.344,5.5937 -0.7238,0 -3.1985,1.0697 -15.25,6.6563 -3.9905,1.8497 -9.8405,4.3081 -13,5.4687 -3.1596,1.1607 -8.1699,3.2023 -11.125,4.5313 -2.9552,1.329 -9.9302,4.2414 -15.5,6.4687 -5.5699,2.2274 -10.585,4.2617 -11.156,4.5 -0.5711,0.2384 -7.1074,-8.242 -14.531,-18.844 -18.72,-26.733 -49.264,-69.98 -68.375,-96.812 -8.8281,-12.395 -23.488,-33.017 -32.562,-45.812 -9.075,-12.796 -19.174,-26.96 -22.438,-31.469 -3.2631,-4.5091 -10.708,-14.938 -16.562,-23.188 -5.8545,-8.25 -17.731,-24.861 -26.375,-36.906 -8.6445,-12.045 -16.079,-22.62 -16.531,-23.5 -0.5448,-1.0611 1.0017,-6.4798 4.5937,-16.094 2.9798,-7.975 8.5107,-23.05 12.281,-33.5 3.7706,-10.45 9.851,-27.325 13.531,-37.5 9.1846,-25.393 36.217,-105.18 40.312,-119 0.5706,-1.925 3.1317,-10.025 5.6876,-18 2.5558,-7.975 5.4631,-17.2 6.4687,-20.5 1.0056,-3.3 2.7436,-8.925 3.8437,-12.5 10.118,-32.879 23.004,-76.806 28.188,-96 0.9654,-3.575 3.7918,-13.475 6.2812,-22 2.4893,-8.525 7.1067,-25.625 10.25,-38 3.1432,-12.375 6.0702,-23.17 6.5,-23.969 0.4298,-0.7987 3.4091,-2.2202 6.625,-3.1875 3.216,-0.9673 11.019,-3.4299 17.344,-5.4375 6.3249,-2.0077 12.85,-3.9746 14.5,-4.4062 4.5664,-1.1947 42.997,-12.673 51.5,-15.375 7.3978,-2.3509 44.984,-13.357 62.5,-18.312 4.9499,-1.4004 11.7,-3.3594 15,-4.3438 3.3,-0.9844 10.275,-3.0084 15.5,-4.5 5.2249,-1.4917 15.575,-4.469 23,-6.625 23.07,-6.6989 24.072,-6.994 33.406,-9.3438 5.0043,-1.2597 10.262,-2.7483 11.688,-3.3125 1.4253,-0.5641 3.9927,-1.2592 5.7187,-1.5312 1.7261,-0.2721 5.089,-1.1298 7.4376,-1.9375 2.3485,-0.8078 6.05,-1.9363 8.25,-2.5 2.2,-0.5637 8.8905,-2.3921 14.844,-4.0625 5.2091,-1.4615 9.983,-2.536 11.531,-2.5938 z m -443.66,527.69 7.1563,9.6875 c 3.929,5.3248 12.525,17.234 19.125,26.438 6.5999,9.2035 14.939,20.622 18.531,25.406 3.5919,4.7842 8.6759,11.869 11.281,15.719 2.6056,3.85 8.5843,12.175 13.281,18.5 4.6971,6.325 10.188,13.964 12.219,16.969 2.0305,3.0051 7.7376,10.912 12.688,17.594 4.9499,6.6815 16.65,22.874 26,35.969 9.3499,13.095 19.7,27.506 23,32.031 3.3,4.5253 8.6999,11.946 12,16.5 9.2759,12.8 33.954,47.658 39.094,55.219 l 4.5937,6.7813 -4,5.3124 c -3.5927,4.7587 -26.276,32.301 -31.812,38.625 -1.2036,1.375 -6.7951,7.9001 -12.438,14.5 -5.6424,6.6 -10.524,12.225 -10.844,12.5 -0.3199,0.2751 -3.5199,3.875 -7.0937,8 -3.5739,4.125 -6.751,7.725 -7.0626,8 -0.3116,0.2751 -4.7539,5.225 -9.875,11 -40.551,45.73 -108.64,112.57 -162.38,159.38 l -6.8437,5.9376 -11.156,0.7812 c -6.1426,0.4373 -18.556,1.2898 -27.562,1.875 -9.0065,0.5853 -16.735,1.2829 -17.188,1.5625 -0.4522,0.2795 -14.009,1.19 -30.125,2 -27.554,1.385 -114.92,2.5837 -135.81,1.875 -39.972,-1.356 -68.801,-2.7047 -76,-3.5625 -4.6751,-0.557 -14.8,-1.4338 -22.5,-1.9375 -39.859,-2.6075 -38.077,-2.3355 -42.969,-6.3437 -4.7796,-3.9166 -14.382,-12.457 -27.031,-24.031 -4.4001,-4.0261 -10.025,-8.9788 -12.5,-11.031 -10.745,-8.9096 -61.575,-58.626 -90,-88.031 -38.425,-39.75 -118,-131.48 -118,-136.03 0,-0.5187 2.4366,-4.3154 5.4062,-8.4376 2.9696,-4.1221 8.0129,-11.325 11.219,-16 3.2056,-4.6749 11.008,-15.7 17.312,-24.5 6.3046,-8.7999 13.146,-18.475 15.219,-21.5 2.0731,-3.0249 8.0595,-11.35 13.312,-18.5 5.2531,-7.15 13.009,-17.95 17.219,-24 4.2104,-6.05 12.204,-17.224 17.75,-24.812 5.5462,-7.5886 12.988,-17.983 16.563,-23.094 3.5749,-5.1112 10.55,-14.797 15.5,-21.531 4.95,-6.734 11.194,-15.465 13.875,-19.406 2.681,-3.9411 6.3063,-8.9562 8.0624,-11.156 1.7562,-2.2 6.5347,-8.725 10.594,-14.5 4.0591,-5.775 9.4461,-13.2 11.969,-16.5 2.5226,-3.3 8.2749,-11.175 12.781,-17.5 4.5063,-6.325 8.9627,-12.473 9.9375,-13.656 1.7452,-2.1188 2.0559,-2.1364 19.781,-1.2812 71.296,3.4396 114.27,4.2915 215.5,4.3125 62.722,0.0133 117.89,-0.4648 138,-1.1875 43.479,-1.5628 83.248,-3.1628 89.375,-3.5938 l 4.8437,-0.34375 z" />
      <path
         id="path4949"
         sodipodi:nodetypes="cscsc"
         style="fill:url(#linearGradient96192);filter:url(#filter5202)"
         inkscape:connector-curvature="0"
         d="m -3910.9,958.12 c 0,0 102.3,-148.31 110.9,-150.89 8.6011,-2.5803 293.95,6.7333 293.95,6.7333 0,0 -267.81,19.45 -284.83,22.491 -17.029,3.0409 -120.02,121.66 -120.02,121.66 z" />
      <path
         id="path5027"
         style="fill:#ffff00"
         inkscape:connector-curvature="0"
         d="m -3930.6,-186.25 c -0.3332,0.18272 -0.8384,0.48609 -1.25,0.71875 0.9108,-0.27569 1.1049,-0.50102 1.25,-0.71875 z" />
      <path
         id="path5017"
         style="fill:#ffff00"
         inkscape:connector-curvature="0"
         d="m -4242.9,293.81 c -0.3043,-0.0724 -0.5084,0.0361 0.4687,0.125 -0.1416,-0.0368 -0.3647,-0.10027 -0.4687,-0.125 z" />
      <path
         id="path5015"
         sodipodi:nodetypes="cccccc"
         style="opacity:0.67181;fill:#ffff00;stroke-width:19.6;filter:url(#filter5540)"
         inkscape:connector-curvature="0"
         d="m -4356.5,878.16 c -0.032,-0.006 0.694,1.1592 0.9376,1.5938 -0.021,-0.0538 -0.075,-0.13905 -0.094,-0.1875 -0.1414,-0.26981 -0.4429,-0.77344 -0.5312,-0.96875 -0.1318,-0.18846 -0.2814,-0.43194 -0.3126,-0.4375 z" />
      <path
         id="path5013"
         sodipodi:nodetypes="ccccccc"
         style="fill:url(#linearGradient96194);filter:url(#filter5076)"
         inkscape:connector-curvature="0"
         d="m -2904.8,993.89 c -70.767,38.151 -145.33,70.216 -219.25,100.77 -70.14,87.931 -137.77,190.21 -221.77,264.99 38.728,36.201 91.204,69.855 140.06,28.837 165.02,-71.39 307.67,-193.66 403,-346.15 -2.5901,-10.216 -6.5143,-23.239 -10.741,-36.765 -12.462,-75.702 -44.658,-36.893 -91.298,-11.675 z" />
      <path
         id="path5011"
         sodipodi:nodetypes="cccccc"
         style="fill:url(#linearGradient96196);filter:url(#filter5088)"
         inkscape:connector-curvature="0"
         d="m -4324.4,1058.3 c 107.68,160.79 268.78,285.37 452,347.94 21.794,-17.99 80.878,-47.444 88.286,-67.135 -82.781,-72.995 -165.19,-160.86 -234.56,-246.63 -91.92,-40.401 -172.72,-80.199 -248.72,-125.1 -58.485,-70.297 -74.568,70.386 -57.006,90.924 z" />
      <path
         id="path5005"
         style="fill:#ffff00"
         inkscape:connector-curvature="0"
         d="m -3193.2,1183.5 c -0.1771,0.1667 -0.5313,0.5208 -0.5313,0.5312 1.0928,-0.9654 0.3949,-0.3897 0.5313,-0.5312 z" />
      <path
         id="path5092"
         style="fill:url(#radialGradient5979);filter:url(#filter5088)"
         inkscape:connector-curvature="0"
         d="m -4296.9,947.84 c -34.003,-0.41383 -41.631,93.911 -27.5,110.44 107.68,160.79 268.78,285.37 452,347.94 21.794,-17.99 80.873,-47.434 88.281,-67.125 -82.781,-72.996 -165.19,-160.85 -234.56,-246.62 -91.92,-40.401 -172.72,-80.195 -248.72,-125.09 -11.423,-13.73 -21.247,-19.431 -29.5,-19.531 z m 1456.2,13.375 c -16.153,-0.0137 -37.827,18.471 -64.062,32.656 -70.767,38.151 -145.33,70.232 -219.25,100.78 -70.14,87.931 -137.78,190.19 -221.78,264.97 38.728,36.201 91.207,69.862 140.06,28.844 165.02,-71.39 307.67,-193.67 403,-346.16 -2.5901,-10.216 -6.5235,-23.224 -10.75,-36.75 -5.452,-33.12 -14.655,-44.333 -27.219,-44.344 z" />
      <path
         id="path5142"
         style="fill:url(#linearGradient96198);filter:url(#filter5156)"
         inkscape:connector-curvature="0"
         d="m -3189.3,337.13 c 0,0 243.28,-68.117 257.87,-77.848 14.596,-9.731 17.029,-9.731 17.029,-21.895 0,-12.164 -2.4328,-65.684 -2.4328,-65.684 l 17.029,92.445 -289.5,90.012 z" />
      <path
         id="path5168"
         style="fill:url(#linearGradient96200);filter:url(#filter5174)"
         inkscape:connector-curvature="0"
         d="m -2897.4,288.48 c 0,0 -272.47,72.983 -279.77,75.415 -7.2982,2.4328 -143.53,418.43 -143.53,418.43 0,0 141.1,-384.38 153.26,-396.54 12.164,-12.164 270.04,-87.579 270.04,-97.31 z" />
      <path
         id="path5206"
         sodipodi:nodetypes="cccsscc"
         style="fill:#ffffff;filter:url(#filter5216)"
         inkscape:connector-curvature="0"
         d="m -3559.1,89.04 c -3.4405,-17.202 0,-275.23 0,-275.23 l 65.368,-17.202 c 0,0 -30.964,6.8809 -48.166,24.083 -17.202,17.2021 8.6011,225.35 12.042,242.55 3.4405,17.202 190.94,166.86 190.94,166.86 z" />
      <path
         id="path5220"
         sodipodi:nodetypes="cssccc"
         style="fill:url(#linearGradient96202);filter:url(#filter5228)"
         inkscape:connector-curvature="0"
         d="m -4099,269.9 c 0,0 -85.74,-60.372 -97.764,-76.431 -12.023,-16.059 135.22,-266.35 192.96,-310.31 57.741,-43.968 278.8,-80.485 278.8,-80.485 l -22.636,116.45 c -169.15,77.906 -252.24,200.22 -351.36,350.78 z" />
      <path
         id="path5240"
         sodipodi:nodetypes="csssc"
         style="fill:none;stroke:url(#linearGradient96204);stroke-width:20;filter:url(#filter5254)"
         inkscape:connector-curvature="0"
         d="m -3578.1,-186.19 c 0,0 -8.6011,252.87 -6.8809,268.35 0.8944,8.0501 -102.62,70.61 -195.4,135.42 -85.656,59.836 -160.89,122.61 -165.85,122.61 -10.321,0 -302.76,-80.85 -302.76,-80.85" />
      <path
         id="path5266"
         sodipodi:nodetypes="cccsc"
         style="fill:url(#linearGradient96206);filter:url(#filter5276)"
         inkscape:connector-curvature="0"
         d="m -3953.1,364.28 -292.44,-89.451 -151.38,275.23 c 0,0 141.06,-240.83 158.26,-244.27 17.202,-3.4404 285.56,58.487 285.56,58.487 z" />
      <path
         id="path5288"
         sodipodi:nodetypes="cc"
         style="opacity:0.85199;fill:none;stroke:url(#linearGradient96208);stroke-width:20;filter:url(#filter5342)"
         inkscape:connector-curvature="0"
         d="m -3953.1,371.16 c 35.292,128.18 78.536,281.52 141.06,436.94" />
      <path
         id="path5354"
         sodipodi:nodetypes="ccccc"
         style="fill:url(#radialGradient5993);filter:url(#filter5368)"
         inkscape:connector-curvature="0"
         d="m -3925.5,369.44 c 86.361,-84.648 238.29,-197.78 357.66,-266.69 13.241,0.0306 53.475,27.581 53.475,27.581 -21.462,-9.2836 -27.426,-18.473 -51.916,-20.11 -126.9,82.6 -243.74,170.55 -359.22,259.22 z" />
      <path
         id="path5372"
         sodipodi:nodetypes="csscssc"
         style="fill:url(#linearGradient96210);filter:url(#filter5374)"
         inkscape:connector-curvature="0"
         d="m -3806.8,753.9 c 0,0 1.7202,22.363 22.363,30.964 20.643,8.6011 414.57,0 428.33,0 13.762,0 36.124,-51.607 36.124,-51.607 0,0 -21.503,61.928 -26.663,63.648 -5.1606,1.7202 -436.08,-2.5803 -444.68,-2.5803 -8.6011,0 -15.482,-40.425 -15.482,-40.425 z" />
      <path
         id="path5394"
         sodipodi:nodetypes="ccccc"
         style="fill:url(#linearGradient96212);filter:url(#filter5408)"
         inkscape:connector-curvature="0"
         d="m -3884.3,-238.11 c 68.141,-3.6544 145.45,3.1508 217.59,12.058 l 41.697,-16.513 c -79.809,-10.165 -140.65,-9.709 -209.06,-7.3339 z" />
      <path
         id="path5420"
         sodipodi:nodetypes="ccssc"
         style="fill:url(#linearGradient96214);filter:url(#filter5438)"
         inkscape:connector-curvature="0"
         d="m -4183.2,-40.098 c -35.913,77.688 -52.698,178.94 -69.226,280.52 0,0 -8.2149,-21.027 -13.344,-55.047 -8.3257,-55.219 39.095,-190.75 48.308,-198.1 z" />
      <path
         id="path5640"
         sodipodi:nodetypes="csccccc"
         style="fill:url(#linearGradient96216);filter:url(#filter5670)"
         inkscape:connector-curvature="0"
         d="m -2878.5,-28.179 c 71.877,77.922 230.01,521.72 185.19,552.56 -29.056,19.992 -24.228,-3.2025 -36.801,-39.025 4.6741,50.33 7.5162,67.958 17.792,77.46 l 87.227,-67.801 c -2.0571,-178.98 -75.126,-357.97 -160.52,-536.95 z" />
      <path
         id="path5674"
         sodipodi:nodetypes="cssccc"
         style="opacity:0.58687;fill:url(#linearGradient96218);filter:url(#filter5700)"
         inkscape:connector-curvature="0"
         d="m -3232.3,-234.36 c 0,0 78.106,45.342 150.5,90.207 56.453,34.987 110.11,71.706 116.14,73.214 13.762,3.4404 98.052,25.803 98.052,25.803 l -92.892,-10.321 z" />
      <path
         id="path5712"
         sodipodi:nodetypes="csccc"
         style="fill:url(#linearGradient96220);filter:url(#filter5730)"
         inkscape:connector-curvature="0"
         d="m -4478.7,541.48 c 0,0 26.76,41.357 36.491,55.953 9.731,14.597 38.924,102.18 38.924,102.18 l -17.029,-114.34 z" />
      <path
         id="path5742"
         sodipodi:nodetypes="csscccc"
         style="fill:url(#linearGradient96222);filter:url(#filter5752)"
         inkscape:connector-curvature="0"
         d="m -4480.7,521.6 c 0,0 44.675,31.208 59.272,31.208 14.596,0 113.04,-247.31 134.93,-266.77 21.895,-19.462 -17.029,55.953 -17.029,55.953 l -114.34,231.11 -58.386,-38.924 z" />
      <path
         id="path5756"
         sodipodi:nodetypes="cc"
         style="opacity:0.28185;fill:none;stroke:url(#radialGradient6009);stroke-width:15;filter:url(#filter5814)"
         inkscape:connector-curvature="0"
         d="m -4223.3,-18.05 c 103.13,-89.293 262.66,-200.68 384.38,-245.71" />
    </g>
    <path
       style="fill:#3581df;fill-opacity:1;stroke:#595959;stroke-width:0.307888;stroke-opacity:1;marker-end:url(#TriangleStart-60-8)"
       d="M 28.879751,88.787616 V 73.409268"
       id="path7375-7-3"
       sodipodi:nodetypes="cc" />
    <path
       style="fill:#3581df;fill-opacity:1;stroke:#595959;stroke-width:0.307888;stroke-opacity:1;marker-end:url(#TriangleStart-60-8-5)"
       d="M 28.933268,72.37207 V 58.957715"
       id="path7375-7-3-1"
       sodipodi:nodetypes="cc" />
    <path
       style="fill:#3581df;fill-opacity:1;stroke:#595959;stroke-width:0.307888;stroke-opacity:1;marker-end:url(#TriangleStart-60-8-3)"
       d="M 29.000563,57.8198 V 43.558786"
       id="path7375-7-3-3"
       sodipodi:nodetypes="cc" />
    <path
       style="fill:#3581df;fill-opacity:1;stroke:#595959;stroke-width:0.307888;stroke-opacity:1;marker-end:url(#TriangleStart-60-8-3)"
       d="M 29.000563,41.802034 V 27.54102"
       id="path1"
       sodipodi:nodetypes="cc" />
    <path
       id="path2"
       style="fill:#dfe3c6;fill-opacity:0.734828;stroke:#000000;stroke-width:0.170353"
       d="M 60.709669,8.0672485 H 121.05121 L 90.231422,27.148922 h -60.34154 z"
       sodipodi:nodetypes="ccccc" />
    <path
       style="fill:#3581df;fill-opacity:1;stroke:#595959;stroke-width:0.307888;stroke-opacity:1;marker-end:url(#TriangleStart-60-8-3)"
       d="M 29.000563,26.117972 V 11.856958"
       id="path3"
       sodipodi:nodetypes="cc" />
    <text
       xml:space="preserve"
       style="font-style:italic;font-size:3.43409px;font-family:'Liberation Serif';-inkscape-font-specification:'Liberation Serif Italic';fill:#010302;fill-opacity:1;stroke:#000000;stroke-width:0.170353"
       x="43.222591"
       y="21.294256"
       id="text3"><tspan
         sodipodi:role="line"
         id="tspan3"
         style="font-style:normal;font-variant:normal;font-weight:normal;font-stretch:normal;font-size:3.43409px;font-family:'Liberation Serif';-inkscape-font-specification:'Liberation Serif';fill:#010302;fill-opacity:1;stroke:none;stroke-width:0.170353"
         x="43.222591"
         y="21.294256">topologies, homotopies, categories</tspan></text>
    <text
       xml:space="preserve"
       style="font-style:italic;font-size:3.43409px;font-family:'Liberation Serif';-inkscape-font-specification:'Liberation Serif Italic';fill:#000000;fill-opacity:1;stroke:#000000;stroke-width:0.170353"
       x="41.334881"
       y="37.397625"
       id="text85231-7-5-9"><tspan
         sodipodi:role="line"
         id="tspan85229-2-8-0"
         style="font-style:normal;font-variant:normal;font-weight:normal;font-stretch:normal;font-size:3.43409px;font-family:'Liberation Serif';-inkscape-font-specification:'Liberation Serif';fill:#000000;fill-opacity:1;stroke:none;stroke-width:0.170353"
         x="41.334881"
         y="37.397625">sets, spaces, functions</tspan></text>
    <text
       xml:space="preserve"
       style="font-style:italic;font-size:3.43409px;font-family:'Liberation Serif';-inkscape-font-specification:'Liberation Serif Italic';fill:#000000;fill-opacity:1;stroke:#000000;stroke-width:0.170353"
       x="81.897736"
       y="66.057449"
       id="text85231-7-2"><tspan
         sodipodi:role="line"
         id="tspan85229-2-4"
         style="font-style:normal;font-variant:normal;font-weight:normal;font-stretch:normal;font-size:3.43409px;font-family:'Liberation Serif';-inkscape-font-specification:'Liberation Serif';fill:#000000;fill-opacity:1;stroke:none;stroke-width:0.170353"
         x="81.897736"
         y="66.057449">3, 9, True</tspan></text>
    <text
       xml:space="preserve"
       style="font-style:italic;font-size:3.43409px;font-family:'Liberation Serif';-inkscape-font-specification:'Liberation Serif Italic';fill:#000000;fill-opacity:1;stroke:#000000;stroke-width:0.170353"
       x="81.690536"
       y="50.801411"
       id="text85231-7-2-7"><tspan
         sodipodi:role="line"
         id="tspan85229-2-4-6"
         style="font-style:italic;font-variant:normal;font-weight:normal;font-stretch:normal;font-size:3.43409px;font-family:'Liberation Serif';-inkscape-font-specification:'Liberation Serif';fill:#000000;fill-opacity:1;stroke:none;stroke-width:0.170353"
         x="81.690536"
         y="50.801411">a, x, B</tspan></text>
    <text
       xml:space="preserve"
       style="font-style:italic;font-size:3.43409px;font-family:'Liberation Serif';-inkscape-font-specification:'Liberation Serif Italic';fill:#010302;fill-opacity:1;stroke:#000000;stroke-width:0.170353"
       x="33.548466"
       y="15.069757"
       id="text4"><tspan
         sodipodi:role="line"
         id="tspan4"
         style="font-style:normal;font-variant:normal;font-weight:normal;font-stretch:normal;font-size:3.43409px;font-family:'Liberation Serif';-inkscape-font-specification:'Liberation Serif';fill:#010302;fill-opacity:1;stroke:none;stroke-width:0.170353"
         x="33.548466"
         y="15.069757">?</tspan></text>
  </g>
</svg>
